<svg height="1000" width="1000"><path class="americon" d="M39.901 556.113l1.353-20.132 1.069-12.594 1.243-13.238.338-4.904.028-.144.46-6.192-.004-.069.704-9.506.222-3.26.031-.459 1.066-15.67.108-1.594 2.584-39.975.927-15.815.347-5.925v-.005l1.717-26.97 2.256-35.485 1.85-30.385.014-.109 1.144-18.72.077-1.263-.002-.023.427-6.89 2.261-36.51.595-8.338.001-.804.499-6.56-.01-.069v-.008l1.053-12.946.323-5.647.076-1.48.437-8.536 1.207-18.293 1.563-28.623 20.507 1.327 31.286 1.756 12.912.779 3.221.085 1.473.077 23.321 1.167 6.132.294 8.592.347 16.676.489 15.854.683 28.099 1.105 8.139.298 31.965.94 6.146.211 1.84.063 7.643.253 15.493.39 14.3.329 17.684.558 50.023 1.074 1.77.04.265.035.801.02 4.842.168.68.015 8.071.446 12.83.39 3.347.06 16.026.263 36.005.25 4.974.02.696-.002 38.665-.13 16.797-.123h.034l2.52-.016.216-.004 38.58-.284 10.913-.118 3.19-.24 6.994-.194 12.017-.35 9.402-.21.069-.002 12.678-.304.012.003 3.64-.013 11.941-.249 19.39-.446.062.013.337-.012 10.883-.27 2.353-.045 2.293-.062 2.367-.052 1.698-.028 1.735-.062 1.961-.115.64.027.9-.024 4.744-.13.158.01 2.21-.073 4.79-.107 1.055-.025 1.25-.095 2.26-.054 2.416-.072 11.774-.414 1.59-.057 19.54-.596 2.247-.072.093-.003 4.813-.161 4.635-.16 1.33-.093 8.01-.31.006.006 3.083-.213 1.796-.015 2.129-.017.289-.011 7.021-.288 28.267-1.231h.158l2.102-.11.19-.009 1.801-.075.588-.01 4.536-.24.239.003 2.156-.057h.15l2.203-.112.143.013.225-.008.133-.012 1.829-.118.215.032 2.168-.138.192.014 2.162-.122.207.001h.01l2.151-.095.206-.002.02-.001 2.197-.112.254.02 2.041-.148.348-.01 1.997-.11.376.016 4.262-.233 2.383-.132.845-.019 1.497-.087 1.855-.07.485-.025 10.172-.526 4.009-.25 5.238-.22.366-.016.03.01 1.17-.061 1.144-.064 4.837-.277 3.674-.213 2.154-.106.162-.015 11.007-.585.077-.004 1.921-.087 2.373-.135 6.434-.369.026-.005.009.003.148-.008 2.38-.144.504-.05.025-.003.985-.055 2.431-.136 1.02-.057 2.438-.165.351-.017.034-.002 2.21-.111 8.189-.49 6.72-.422 2.333-.136h.013l.438 7 1.938 30.99.15 2.408.065 1.04.514 8.544.504 8.397 1.072 17.842.206 2.916.819 13.171.394 7.153.002.027.067.543.307 5.436.141 1.785.14 1.782.684 11.948.288 5.03.066 1.014.675 10.966.135 2.362.873 13.827.641 10.145.257 4.097 1.231 19.627.1 1.6.092 1.045.11 1.68.154 2.368.836 12.768.718 10.956.286 3.603.039 1.288.611 8.895.207 3.027.066.974.327 4.846.008.372.313 5.058.892 13.74.053.85.177 2.424.106 1.582.228 3.377.794 11.715.932 13.762.938 13.841.048.644.043.573.607 8.994.322 4.758 2.578 38.925.152 2.323.152 2.672.15 2.234.162 2.425v.2l.613 9.475.101 1.505.023.305.115 1.922.01.045.06.89.539 9.084v.014l.36 5.608.243 3.824.151 2.497.223 3.346.171 3.054.002.023.533 8.658.406 5.682.105.645.262 5.258.799 12.073.462 7.29v.012l.074 1.062.145 2.077.795 12.485.36 5.667.132 2.817.17 2.011.658 11.333.175 2.575 1.167 17.151.02.33.146 2.04.551 7.744.487 7.365.228 3.468.194 2.485.37 4.81.251 3.64.17 2.47.5 7.315.14 2.487.134 1.885.107 1.721.382 6.14.491 8.416.178 2.833.047 1 .34 4.925.387 6.174.373 5.848.013.019.263 4.195.232 3.498.16 2.394.16 3.756.017.034.48 7.288.146 2.001.38 6.68 1.236 19.705.144 2.546.016.287h.006l.177 2.207.035.92.771 12.11.03.114.001.378.011.233.064 1.028.321 5.38-1.682.09-11.103.637-6.48.364-3.258.173-5.95.262-1.166.05-1.281.074-7.44.423-3.817.214-.266.015-.011-.011-46.458 2.425-5.974-.128-9.561.13-2.721.137-1.273.065-4.87.249-1.195.072-12.59.756-.84.035-.159.015-2.076-.173-11.377.5-9.466.403-34.198 1.557-2.377.102-6.326.27-35.39 1.406h-.152l-37.1 1.425-28.108.957-2.34.075-2.48.078-11.98.459-3.737.074-9.179.174-4.683.085-1.573.028h-.05l-5.26.091h-.009l-14.295.147-.132.135-.797.024-1.848.057-8.248.12-3.563.05-.012-.006-3.23.05-33.212.434-3.892.128-12.437-.353-2.124.023-2.524.026-8.902.086-4.166-.05-22.811.044h-.01l-3.133-.017-.651-.003-2.434.009-5.927.023-.495.02-1.336-.007-1.574-.008-1.917.005-10.784.02-5.057-.042-7.026-.013h-.272l-37.7-.138h-.179l-1.244.002-12.652-.016-13.8-.041-6.277-.101-.132-.005-6.056-.012-6.768-.151-9.36-.105-8.708-.108h-.007l-3.188-.043-.112-.001-15.827-.151.005-.007-1.564-.059-.011.002-4.427-.101-1.939-.019-10.178-.1-4.246-.092-11.934-.27-.986-1.334-2.507-.06-8.176-.2-4.003-.1-28.73-.789-7.83-.233-10.692-.333-10.487-.34-1.335-.045-2.92-.098-4.906-.169-.425-.015-2.735-.095-.955-.034-12.424-.448-15.172-.575-7.386-.29-1.861-.075-11.62-.475-.057-.002-.33-.014-17.832-.765-4.252-.167-2.088-.084-18.913-.779-8.477-.365-.168-.1-5.077-.248-.043.004-4.346-.212-.035-.004-7.927-.39-21.305-1.091-11.287-.603-.083-.01-3.482-.189-41.781-2.383-.605-.038-6.234-.4-.07-.005-5.389-.35.204-3.21.043-.677.546-8.599.035-.324.134-1.993.078-1.67.143-2.234.022-.423.008-.017.58-11.05.264-4.156.162-1.522.299-4.917.097-1.599-.054-.112.835-12.998.357-5.554.165-2.58 1.479-18.53.204-2.558.488-5.164.007-.012.784-12.388.099-2.277.07-1.034.422-7.127.548-7.602.017-.332.301-4.551.042-1.651.612-8.432.337-6.015.07-1.047.307-5.172.113-1.394.354-4.393.43-11.284.28-3.83.023-.376 1.742-25.804.132-1.955-.857-13.562-.391-5.169 2.368-37.588z"/></svg>