<svg height="1000" width="1000"><path class="americon" d="M952.546 822.86l.304-.059.116.17.039.146.03.157-.435.152-.14-.075zm-9.963 24.52l-.001-.698.115-.044.213-.211.142-.413-.073-.296-.11-.357-.012-.421.034-.658.143-.216.438-.342.176-.352-.033-.908-.027-.282.403-.296.25-.23.286-.118.81-.061.103-.287.23-.09.417-.173.748-.037.162-.314.303-.196.108.043.247.105.231-.115.219-.428.104-.255.27-.218.325-.357.079-.298-.114-.193-.143-.508.045-.527-.08-.221-.207-.087-.022-.156.293-.152.468-.471.58-1.353.014-.422.11-.105.363-.968.074-.431.098-.402.226-.632.013-.378.161-.59.001-.585.203-.185.25-.612-.029-.347.152-.466.242-.228.252-.401.231-.525.048-.393-.382-.174-.758-.353-.032-.323-.123-.249.073-.44.135-.22.513.092.28-.245.247-.009.125-.309-.138-.203.282-.124.016-.278-.078-.238.047-.432.136-.184.2.096.034.197-.03.54.004.347-.16.481-.126.815.106.73.136.45-.09.693.177.389-.07.187-.155.49-.414.93-.387.785-.062.317-.223.175-.112.39-.186.362.022.723.038.436-.227.793-.445 1.034-.608 1.673-.258.366.032.499-.206.56.118.393-.05.43-.224.438-.307.28-.47.443-.431.498-.493.53-.27.324-.161.32-.43.282-.08.364-.621.603.055.233.266.374-.18.472-.127.504-.17.566-.282.751-.25.61-.31.771-.154.415.18.426.117.29-.2.119-.198.149-.18.264-.427.243-.408.124-.235-.431-.17-.387-.277-.256-.364-.082-.148-.198zm-4.83 4.961l.137-.114.13-.03.133.208.002.27-.248-.007-.183-.11zm-1.199-7.745l.245-.165.45-.157.321-.23.092-.264.163-.007.146.414.001.443-.277.424-.548-.06-.414-.013-.186-.149zm-.135-3.776l.221-.127.211.017.072.183-.066.154-.214.204-.204-.153-.082-.171zm-19.045 52.613l.2-.141.445-.142.554-.11.408-.078h.152l.16.114-.038.242-.21.157-.456.14-.53.155-.436.058-.183-.108-.077-.106zm-3.054-5.122l.023-.284.12-.162-.025-.298.136-.178.257.133.208.104.278-.182.119-.225-.055-.25-.272-.118-.166-.262-.16-.531.102-.272.147.153.143.532.245.244.39.366.084.17.227.183-.345.074-.42.14-.213.274-.284-.006-.2.148-.1.303-.213.26-.177-.121zm-.307-3.586l.343-.455.106-.422.177-.545-.042-.44.268.34-.029.568.025.298.052.14.01.3.295.352-.134.241-.233.102-.234-.402-.24-.103-.227.291-.17.116zM912.196 886l.331.053.234-.148.395-.062.231-.22.026-.327.042-.244.065-.063.223.094-.085.271-.04.253-.224.37-.181.258-.136.194-.217.02-.169.244-.339-.257zm-.655 3.871l.138-.115.249-.061.187-.297.052-.201.366-.15.296.184.233.265-.141.126-.277-.11-.232.182-.144.225-.241.095-.37.043zm-1.174-9.128l.083-.15.204.061.208.214.205.02.066.303-.156.337-.04.26-.154.115-.19-.057.176-.4-.053-.171-.26-.251zm-.59-1.653l.41-.154.092-.356.31-.454.056.29.17.406.24.465-.203.24-.188.055-.247.29-.542-.54zm-.393 9.314l.276.19.462.142.204.105.215.106.106.162-.211.08-.164-.083-.115-.11-.3-.038-.218.036-.08-.21zm-3.836-13.999l.313-.285.34-.183.345-.074.266-.04.12-.192-.133-.232-.13-.107-.105-.343.23-.31.116.335.117.379.18.232.324.128-.118.296-.15.09-.197.065-.295.209-.226.09-.346.116-.291.023-.213-.055zm-.927 3.232l.345-.154.071.077-.032.209-.139.167-.177.157-.404.028zm-.432 14.2l.213-.212-.027-.21.184-.445.118-.27.133.133.062.23-.033.277.144.36.245.073-.086.27-.287-.152-.188.089-.28.15-.208-.104zm-1.734-9.706l.125-.05.207.294.244.043.187.174.01.455-.192.13-.193.216.017-.473-.336-.307-.09-.199zm-.107-2.47l.088-.207.233-.118.443.066.223.189.344.377.399.515.107.247-.166.096-.455.042.016-.27-.266-.148-.066-.31-.025-.334-.17-.22-.358.08-.28.12zm-.246 6.374l.433-.282.48-.282-.024-.206-.057-.425-.11-.45-.045-.456.124-.052.157.5.447.68.225.15.137.359-.17.131-.393.012-.28.119-.12.193-.375.122-.284-.023zm-.894-8.079l.204.002.39-.012.11.3.12.154-.151.198-.059.23.022.313.025.299-.089.192-.181-.263-.059-.52-.146-.324-.163-.289zm-.878 14.6l.192-.098.153-.219.11-.002.382.19-.006.348-.053.272-.235.003-.174.203-.248-.118-.15-.252zm-2.98-16.674l.442-.003.273.18.378-.01.197.277.255.086.239.103.297-.087.202-.07.187-.085.333.033.088.32.01.178-.156.24.004.33.071.22-.107.15-.223.02-.277-.138-.23-.072-.406.108-.191-.092-.299-.083-.3-.325-.133-.541-.106-.253-.271-.305-.238-.11zm-1.098 15.177l.11-.127.39-.05.65-.365.016.355.079.317.204.023.238-.067.158.028-.047.137-.123.107-.215.157-.164.276.007.236.22.451.101.25-.036.363-.2.148-.522-.015-.117-.234.074-1.216-.01-.388-.343-.049-.274.045-.21-.136zm.251 10.049l.185-.17.068-.24.29-.321.157-.02.217.173-.027.33-.143.18-.245-.04-.39.326-.155.01zm-1.45-26.312l.25-.007.186-.132.176.105.408.054.346.012.288.075.325-.107-.095.316-.038.09-.096.234-.096.245-.255.102-.434-.134-.21-.162-.03-.023.184-.303-.218-.145-.24.08-.013-.003-.37-.079zm.48 26.708l.145-.33.374.14.065.231-.141.183-.305-.034zm.152 5.947l.287-.236.158-.343.12.239.022.317-.03.182-.55-.05zm-1.63-9.814l.074-.157.357-.009.254.08.092.3-.209.184-.13-.004-.14-.19-.219-.114zm-1.535-3.442l.074-.176.375-.122.271.066.196.098.028.263-.087.26-.311.17-.286-.068-.253-.239zm-.064 2.25l.331-.142.11.02.042.12-.092.338-.288.126-.137-.287zm-.35 7.737l.325-.23-.056-.299-.005-.142.025-.222.124-.098.334.135.16.163.023.157-.189.168-.268.339-.1.116-.25.205-.194-.116zm-1.213-18.18l.31-.398.462.156.158.198.254.01.247-.228.185-.04.375-.484.336-.687.196-.226.057-.374-.094-.319-.316-.363-.057-.218-.255-.06-.276-.162-.195-.298.058-.324.075-.34-.11-.285-.057-.218.193-.146.285.301.357.057.49-.048-.128.274-.093.29-.334.13-.14.12.098.254.238.123.145.321.243.377.246.052.222.57.393.124-.242.205-.17.116-.261.655-.056.393-.147.503-.638.166-.045.221-.166.09-.165.14.263.331.11.251.301.097.072.392-.073.395-.354.183-.005.391.288.26.128.345.162.282.325-.09-.02.119-.297.266.05.4-.043.331-.05.287-.306.104-.485-.29-.356-.497.085-.624.026-.37-.32-.533.101-.3-.14-.444-.053-.642-.093-.302-.233-.416-.344-.176-.393-.124zm-.41 17.264l.26-.536.21-.34.164-.072.267.046.272-.115.162.01.14.155.023.224-.121.161-.17.116-.171.116-.01.19.039.251-.269-.008-.267.055-.444-.066zm-.666-6.779l.259-.14.325-.08.118.29-.022.222-.124.082-.276-.022-.18-.026-.132-.159zm.369 16.459l.175-.441.255-.185.183-.08.415.21.178.379-.066.314-.25.25-.4.265-.348.026-.25-.257zm-.535-9.555l.067-.114.16-.106.226.09.148.202.083.124-.073.126-.264-.093-.281-.074zm-1.59-16.375l.267-.126.16-.31.32-.077.448.258.209.197.13.37.257.127-.006.211-.382-.128-.397-.19-.218-.028-.322-.064-.273.04-.21-.064zm.235 9.93l.332-.35.399.198.175.036.011.093-.325.292-.324-.13-.18-.04zm-.886-11.943l.133-.088.044-.239-.155-.114-.11-.25.2-.158-.062-.371.25-.109.193.215.165-.157.246.314.01.355.128.318.126.267-.237-.01-.139-.097-.109-.268-.154-.063-.096.189-.042.323-.18.225-.355-.024zm.186 12.307l.151-.084.37.05.042.405-.026.387-.339-.106-.327-.15zm-2.048-3.532l.246-.403.39-.64.104-.008.3.29.005.412-.295.425.343.321-.254.315-.428.078-.315-.52zm-.385-6.388l.256-.4-.085-.421-.04-.545.236.1.092.251.047.49.145.317.007.254-.183.317-.378.075zm-.019-3.49l.188.046.207.146.249-.193.288.025.027.338-.35.23-.31.381-.183.017.016-.376-.295-.423zm.6 32.316l.178-.432.263-.463.15-.073.17-.053.15.112.252.567.257.672-.129.307-.26.128-.34.016-.483-.05-.24-.212zm-2.45-34.928l.182-.132.129-.224.186.012.21.247-.095.24.111.318.189.096.394.175.245.264.238.044.109.268.091.234.232.4-.13.206-.205-.061-.09-.218-.341-.064-.221-.098-.24-.534-.316-.323-.25-.216-.246-.427zm-.01-1.316l.306.244.214.324-.042.206-.218.07-.231-.372-.088-.328zm-1.567 8.106l.24-.428.196-.256.222.17.204.152.23.07-.413.12-.135.266.013.214.118.265-.357.2-.04-.33-.145-.23zm-.034 14.54l.175-.717.001-.301.84-.406-.02.177-.214.57-.07.555-.344.323-.225.133zm-1.02-10.234l.101-.208.065-.297-.047-.245.23-.228.133.101.053.317.167.18.156-.111.088-.255.219-.07.037.204-.059.144.064.195.133.308-.001.219-.112.141-.256.096-.149-.23-.134-.22-.249-.085-.24.143-.147.005zm-.156 8.382l.198-.42.281.477.14.418-.036.474-.32-.314-.157-.37zm.505 22.68l.03-.182.029-.247.153-.229.061-.09.31-.179.02-.03.049-.071.235-.348.147-.209.227-.137.033-.01.294-.095.12-.038.204-.076.08.067.39.332.3.182.282-.087.218-.32.307-.136.282-.127.205-.387.5-.22.29-.263.033-.323-.103-.467.115-.349.6-.384.403-.253.027-.005.634-.105.107.121.115.358-.214.29-.328.129-.255.196-.283.384-.295.44-.166.3-.194.28-.282.1-.416.25-.27.32-.507.247-.504.233-.373.163-.59.302-.528.396-.166.232-.122.17-.27.305-.13.266-.029.002-.278.02-.263-.23-.263-.31zm-3.122-26.172l.123-.529.3-.342.15-.156.119.248-.034.21-.205.29-.003.475.341.071.315.214.194.225-.134.234-.242-.23-.196-.204-.357-.022-.255.067zm-.914-16.464l.263-.165.224.152-.05.208-.213.054-.25-.012zm-2.582 30.087l.243-.08.325.009.168.217-.071.192-.056.126-.134.065-.293-.106-.15-.169zm-.745-12.422l.207-.188.444-.013.149.26-.07.163-.176.1-.279-.018-.307-.048zm-.554-15.574l.122-.13.27.072.309.354.37.32.46.486-.028.276-.131.068-.303-.258-.307-.141-.4-.528-.228-.172zm.232 5.435l.181.106.113.248.31-.028.19-.042.026.093-.278.405-.32-.126-.147-.205-.179-.363zm-.02 3.426l.501.008.162.34-.288.293-.343-.165-.092-.222zm-5.04 11.525l.13-.17.243.016.096.34.2.214.083.25-.091.145-.184.117-.062-.074-.042-.299-.34-.4zm-.679-18.49l.084-.242.155-.047.068.23.097.11.14.255.203.379-.073.044-.22-.077-.148-.204-.21-.144zm-.69 46.229l.302-.416.497-.058.543-.156.69-.303.374-.536 1.319-1.387.32-.305.328-.315.058-.055.146-.173.58-.683.526-.19 1.585-1.375.669.35-.447.293-.735.337-.665.588-.445.519.01.38.276.277.122.393.495.145.626-.302.132-.368.379-.058.473.341-.086.388-.321.557-.286.311-.046.177-.258.355-.42.082-1.292-.093-1.54.02-.268.094-.458-.044-.658.4-.82.392-.78.236-.612.43-.304.02-.247.048zm-1.721-44.715l.075-.139.221.006.08.152.01.175-.223.114-.127-.11zm-1.396 11.388l.164-.091.2-.149.055.022.09.31.092.087-.346.215-.24-.037-.065-.174zm-2.647-11.4l.243-.464.034-.26-.003-.22-.038-.08-.03-.114.067-.121.204.038.371.246.16.276-.043.464-.032.18-.258.227-.284.126-.3.04-.126-.113zm-.365 7.455l.198-.185.128-.023.168.19-.042.1-.187.166-.135-.048-.107-.134zm-2.31 1.258l.197-.104.222.01.033.276-.088.151-.238-.044-.116-.144zm-.89-11.958l.668-.601.533-.01-.039.368-.631.358-.424.014zm-.652 3.65l.215-.218.173-.04.072.096.122.244.25.262.193.26-.052.21-.255.157-.173-.007-.153-.222-.092-.227-.161-.287zm.171 50.161l.122-.193.202-.164.518-.235.18-.4.106-.194.025-.286-.148-.202.171-.115.212.232.205-.069.076-.007.21-.02.053.107.078.338.074.288.118.28-.137.303-.266.187-.324.217-.143.02-.393-.085-.471.013-.436.13zm-1.132-.273l.048-.136.026-.072.222.01.145.108h.005l.298.04.029.15.007.04-.073.255-.26.251-.42.137.036-.15-.002-.033-.023-.315v-.006zm-1.134-45.737l.27-.043.58.035-.107.194-.175.122-.336.005-.175-.104-.14-.113zm-1.671-4.057l.552-.17.512-.218.382.263-.36.217-.385.102-.133.126-.325.033-.322-.21zm-22.759 59.444l.822-.118.3-.154.415-.213.071-.036.698-.357.007.006.273.205.034-.005.277-.041.308-.047.2-.03.46-.274.454-.27.262-.156.073-.015.862-.183.111-.023.215-.046.405-.47.108.71.504-.427.186-.157.286-.035.43-.052.117-.014-.198-.438.024-.026.171-.186.504-.549.66-.33.646-.816.082-.104.035-.045.49-.393.074-.058.041-.028.548-.367.026-.018.019.001.635.05.27.343.518.389.265-.012.016.02.21.261.001.003.092.161.094.165.313-.192.339.195.308-.11.027-.01.215-.077.466-.4.159-.312.036-.072.23-.1.265.242.294-.13.384-.168.099-.155.266-.088.242.065.346-.211.181-.11.068-.278.002-.008-.104-.297.005-.095.034-.01.646-.184.276-.698-.02-.076-.197-.748.343.031.04.074.175.328.197.367.434.244.134-.218.15-.245.087-.14.255-.141.147-.081.274-.152.157.05.154.048.357.028.144-.343.236-.45.044.004.233.028.354-.236.093-.062.28-.393.138-.195.185-.234.256.169-.007.216-.003.08-.007.227.366.023.275-.403 1.074-.9.306-.067.176-.038.389-.015.063-.003.086.13.024.164.006.042-.234.148-.303.282-.022.02-.384.356-.012.011-.597.427-.016.012-2.572 1.837-.187.134-.436.567-.043.033-.348.265-.628.479-.065.049-2.137 1.4-.025.016-.577.302-1.307.682-.408.418-.025.026-.163.2-.075.092-.547.31-1.039.463-.77-.602-.117-.25.147-.165.117-.416-.024-.022-.104-.1-.083-.079-.216.079-.14.05-.246.004-.08.036-.666.307-.106.049-.044.02-.537.247-.595.274-.1.039-.017.006-.36.142-.03.012-.01.007-.433.351-.036.03-.399.264-.523.05-.064.005-.343.085-.51.483-.09.257-.025.063-.169.417-.019.047-.315.326-.147.47-.21.672.051.613.395.074.014.144-.249.132-.266.077-.334-.167-.093-.186-.381.056-.186.031-.061.02-.813.264-.153.05-.417-.09-1.397.24-.275-.127-.176-.184-.056-.059-.147-.153-.439-.994-.565-.721-.014-.018-.524-.09zm-14.404-10.723l.404.043.13.512.133.373-.213.064-.313-.22-.2-.588zm-6.285 18.72l.404-.655.464-.445.29-.1.54-.21.313-.544.208-.305.506-.62.296-.038.57.123.195.184.307-.077.487-.374.388.262.037.225-.227.484-.394-.023-.286.237-.227.25-.438.209-.371.08-1.264.641-.213-.066-.584.237-.47.487-.656.317zm-2.319-17.85l.153-.33.156-.188.357.396.386.248.19.317.194.362-.091.507-.47-.107-.638-.508-.18-.418zm-2.416 3.69l.172-.114.15-.415.261-.114.492-.044.145.276.31.544.452.64.083.496-.574-.392-.544-.276-.334-.025-.305-.185-.304-.137zm-1.741-1.63l.25-.484.122.006.352.44.325.434.216.419.052.205-.143.018-.753-.414-.486-.395zm-.384 5.052l.252-.04.472-.183-.053-.3-.027-.619-.007-.38-.344-.565-.312-.88.263-.087.344.597.239.043.387.357.519.594.558.18.379-.118.358.485.563.418.196.313.041 1.332.393.628.252.023-.498.412h-.276l-.26-.275-.66-1.317-.387-.343-.575-.129-.7-.057-.936.333zm-1.566-1.387l.46-.072.315-.069.077-.128-.086-.348-.004-.222.063-.033.304.106.371.374-.071.414-.005.603-.058.302-.108.16-.165-.33-.273-.2-.212-.282-.349.006-.24-.138zm-4.365-140.992l.492-.564 1.418-.788.378.243.32.43.01.5-.242 1.012-.021.673-.38.111-1.227.364-.672-.379-.192-.598zm-9.003 156.499l.172-.144.165.028.13.207-.01.242-.157.07-.303-.055zm-5.116 2.612l.243-.08.245.11.441.26.404.254.228.022.293.131.202.228-.01.237-.161.224-.348-.198-.274-.353-.49-.362-.429-.282-.342-.053zm-44.45 8.732l.148-.244.392-.645.232-.27.993.759.034.026.116-.49.077-.326.013-.051.177-.747-.002-.027-.032-.513-.056-.908-.004-.05-.023-.374.061-.712.007-.076.313-.07.24.255.168.918.043.231v.374l-.002.994 1.572-.335.146-.137.935-.884.483-.092.538-.103.17.077.443.2 1 .454.218.099.85-.706.135-.109.811-.66 1.675-1.805.61-.656-.246-.452-.623-1.145-1.296-.64-1.802-.892-1.874-.625.512-1.39.93-1.777.87-.663.273-.209 5.894-2.694 1.594-1.099.248-.17.61-.61 1.378-1.374 2.108-.525 1.67-1.41 2.699-1.193 3.216-1.44 1.947-1.054.4-.664 1.353-2.25 1.288-.61 3.371-.873.518-.306 1.242-.735 1.408-1.228.22-.192 1.269-1.068.347-.455.797-.319 2.23-.664.658-.47.556-.215 1.502-.755 1.485-.747.308.065.976.554 2.775 1.576 1.63.925 3.144 1.311.81.44.867 1.422-.036 3.954.68.75.158.465.118.799.905.952.211.25 1.289 1.913.752.367.698-.06 1.529.289.437.728.63 2.327.476 2.51 1.62 1.33-2.139 1.237-1.12.174-.859.134-.62.852-.71-.077-1.142.682-.207.048-1.75.4-.236.304-.432-.014-1.338.58-1.795.76-.648.194-.955-.338-.254-1.083-.397-1.689-.83-.614-1.34.043-1.199-.392-.57-.187-1.076 1.203-.29-.243-.133-1.332-2.123.432-.261.053-1.1.223-.564.501-.426.166-.182-.474-3.16-.91-.08-.024-.32.743-.156.36.227.682-.012.626-.223 1.398-.096.443-.877.665-.211.36-.756.037-1.287.128-.968.53-1.23.339-1.11.407-.65.853-1.388.447-1.429.838-.883.292-1.642 1.1-1.005.1-2.173.988-.97.007-.378.003-.778.63-1.858.186-.951.095-.525.5-1.084 1.035-1.055.645-1.682-.103-1.794.481-.8-.09-.73.02-1.533.042-.164.004-.437.084-.501.097-.857.165-.833.433-1.121-.087-.368.073-1.079.214-.135.027-1.152.449-.087.034-.196.076-.144.021-.845.127-.086.013-.425.063-.018.003-.655.098-.177.026-1.204-.129.06-.491.074-.293.062-.205.155-.514.03-.101.013-.041-.108-.087-.378-.3-.269-.214zm-10.35.103l.357.021.61-.065.272.256.017.13-.284.156-.313.226-.166-.181-.331-.129-.164-.327zm-4.124-5.838l-.005-.347.058-.24.216-.019.134.157.135.027.08.176-.173.227-.117.216-.19.115-.107.005-.125-.088zm-.142 8.513l.086-.22.254-.236.164-.087.197.03.254.111.134.108.03.206-.103.218-.276.231-.27.08-.16.098-.272.176-.068-.283zm-.41 2.298l.146-.208.218-.328.158.006.618.22.28.11-.01.188-.158.103-.291.018-.312.101-.332.189-.312-.008zm-6.87.727l.673-.336.456-.11.413.388.195.182-1.562.109zm-4.046-1.476l.06-.227.243-.215.403.189.343.244.286.203.205.392-.09.182-.265.116-.231.109-.212.03-.29.075-.152-.127-.236-.633zm-18.21-7.982l.265-.447.454-.329.653-.232.68-.123.696.062.673.326.728.274.84.336.568.456.305.36.191.658.044.515.052.365-.082.7-.149.639-.25.381-.15.326-.216.317-.336.057-.42.4-.13.392-.108.201-.352.285-.345.15-.32.007-.427-.03-.354.05-.45.03-.441-.265-.002-.35.414-.018.382-.034.32.237.301-.097.49-.576.381-.224.301-.225.174-.176.141-.35.14-.527.046-.414-.32-.3-.429.146-.286.001-.08-.254-.067-.493-.258-.54-.114-.476-.24-.333-.272-.205-.526-.236-.35-.189-.367-.062-.287-.141-.319-.142-.317.13-.078.302-.174.24-.247-.05zm-.435 5.633l.19-.112.302-.018.144.175-.05.214-.202.137-.384-.253zm-2.253-.717l.058-.254.066-.312.024-.436.38-.383.298-.055.238-.08.128.11-.206.287-.46.194-.126.255-.03.573-.013.509.113.27.207.126.19-.144.08-.191.206-.017.177.301-.088.343-.348.174-.299-.105-.185-.154-.348-.453zm-8.942-298.244l.532-.604.725.593 1.042 2.784.96 3.27.197.968.022.106.334.669.38.756.207.8.013.05.135.886.038.25.033.214.086.568.02.132.026.038.525.773.532.782.264 1.464.396.482.016.02.525.639.558.68 1.757 1.407.408.327 1.204.037.98-.26.524.213 1.088.572 4.107 2.636 1.478-1.588 1.331-.006.525-.588.793.478 2.03 1.224.588.54.012.011.015.007.054.025.456.211 1.506-.072.635-.257.246.085-.024.318-.902.554-2.448 1.501-2.993 1.833-1.537.501-.688.005-.335.002-1.97-.408-1.861-.811-1.846-.805-1.335-1.284-.435-.418-1.097-1.056-3.14-1.748-.533-.561-.482-.677-.366-.915-.022-.055-.36-.9-.322-1.607-.34-1.698-.16-.807-.15-.752-.666-3.328-.37-.78.019-.399.014-.312-.513-1.676-1.085-1.726-.934-.573-.464-1.347zm-4.993-11.681l.518-.584.151-.797.179-1.5.305-.277.428-.277.521.243.063.428.401.918-.304.613-.058.889.34.703 1.104.67-.152.337-.273.767-.119.95.463 1.041.218.827.646.733.065 1.073.527 1.47.645.242.032.276-.304.737-.028.675-.258.131-.1-.235-.526-1.868-.461-1.094-.6-.453-1.103-2.252-.48-1.173-.791-.796-1.047-1.498zm-20.596-166.687l.883-.325 1.225-.22-.025.399-.334.054-.518.084-.258.043-.059.037-.257.165-.433.278-.24-.18zm-2.002-2.987l.253-2.45 1.365-.001.021.024.023 2.256-.693.711-.634-.036-.33-.12zm-.443 4.433l.303-.52.928.142-.125 2.329-.806-.001-.39-.176zm-.66 3.9l.27-.03.12.27-.138.333-.012.028-.33-.27zm-16.501 24.54l.014-.14.469.116.426.541.018.377-.56-.107-.391-.542zm-15.052-4.15l.2-.463.761.106.294.469-.212.3-.504-.03-.49.177zm-7.049-161.489l.767-.202 1.12-.143 1 .594.442.238.821.987-.948.9-.365.983-.296.48-.552-.496-.779-.88.14-1.128-.35-.886-.854-.21zm-1.71 172.061l.1-.715.016-.626.036-.247.07-.108.134.011.13.094.203.28.023.503-.07.378-.152.98-.037.27.071.4.135.414.287.325.075.22-.186.006-.172-.154-.298-.388-.152-.197-.103-.138-.104-.922zm-9.561-75.436l.152-.834.513-.564.548-.12.193.172-.707.71-.252.669.174.836.713.512.032.453-1.295-.65zm-1.055-12.905l.407-.48.106-.126.414.121.21.062.566.238-.285.498-.36.488-.015 1.137.11 1.095-.312 1.131.203.896.16.416.266.695-.025.538-.747-.153-.114-.024-.32-1.048-.015-.049-.024-.079zm-6.377 517.85l.28-.193.315.072.414.179.583.008.052.468-.083.185-.086-.044-.032-.27-.516-.081-.542.109-.18-.022zm-6.563-.28l.336-.378.331-.254.23-.124.122-.033-.094.215-.163.199-.287.287-.24.252-.147.12-.335.123zm-8.675-647.403l.208-.35.614.123.484.423-.025.665-.314.2-.972-.563zm-.034 3.634l.468.092.583.386-.443.348-.561-.255-.157-.108zm-5.114-.337l.755-.154.992.048.227.404-.263.329-.413.23-.658-.142-.801-.517zm-2.109-4.276l.62-.433.406.385.302.465-.09.617-.298.61-.57.203.041-.569-.009-.512-.47-.307zm-88.19-119.713l.268.036.095.248-.249.167-.212-.177zm-103.39 23.24l.352-.033 1.179.72.632.019 1.007-.24.571-.818.283.022.83.246.611-.065.658-.18.924-.75.746-.64.465-.652.371-.706.21-.183 1.014-.405.442-.14.33.127.369-.233-.072-.393.52-.45.129-.2.107-.352.467-.115.192-.138.13-.234.172.302.097.606-.1.769-.26.645-.677.84-.424.249-3.394 1.448-1.67.833-2.595.655-1.769.49-1.063.154-.498-.254-.207-.517zm-52.352 20.45l.288-.201.378.197.247.296.66.739.68.299.506.67.577.502 1.994.95.442.036 1.233.557 1.381.454.765-.208.623.062.182-.198-.022-.51.164-.137.242.103.426-.123.635-.037.586.076 1.282-.363.746-.111 1.538-.613.75-.394.03-.009.465-.134.41-.322.924-.326.68-.63 1.331-1.348.56-.12.207-.354.1-.577.23-.263.462-.228.88-.142.722.11.413.097.335-.286.323-.39.662-.359.42-.02.493.04.321-.482.495-.482.804-.061.633-.328.047-.579.545.183.222-.409 1.016.167 2.268-.475 1.386-.349 1.27-.304.602-.416.649.115.245-.16.421-.273.29-.013.59-.315.06-.311-.187-.176-.255-.25-.48-.042-.081-.413.023-.607.484-.072.578.623.32.494.564.358.619-.435-.182-.946.25-.672.59-.319.672-.198.734-.649.682-.51.577-.224.678-.604.716-.043 1.766-1.248.237-.456.08-.565.353-.238.478.09.712-.718.454-.558.24-.904.416-.458.307-.025.318-.483.123-.413.218-.022.17.294.148.559-.082.262-.852.656-2.495 2.586-3.376 3.068-2.43 2.252-1.482 1.003-2.493 1.257-.266.134-2.656.978-1.112.2-2.991.934-2.011.765-1.814.84-6.648 3.79-2.326 1.235-.544.153-.034.012-2.337.78-6.966 2.182-1.092.226-.653-.483-.643-.608-.58-.61-.994-.991-1.746-1.463-1.326-.9-.268-.413zm-14.936-8.143l.244-.068.511-.062 1.108-.005.646-.176 2.083.072 1.967.128 1.471.454 2.07-.496.159-.181.467-.183 1.274-.095.223-.14.477.078.521-.03 1.24.38.426.248.25-.103.544.116.248.358.769.374.563.73.744.161-.375.423-.585.765-.861 1.316-.393.71-.765 2.414-.403.158-2.506.147-1.826-.358-.657-.314-.567-.693-.697-.677-.576-.627-2.193-1.686-1.403-1.002-2.049-1.074-2.077-.804zM35.173 42.835l.71-1.556.09-.331.653-.585.286-.076.176-.276.011-.338-.147-.536.081-.527.193-.182.588-.304.157-.374.137-.59.35-.808.218-.273.29-.71.083-.355.72-1.305.268-.368.304-.215.194-.31.69-1.388.488-1.767-.15-.702-.212-.513-.089-.476.003-.051.005-.12.206-.342-.054-.397-.342-.676-.2-1.146.05-.238 3.284.21 2.697.21 3.44.326.547.033 1.965.122 1.182.073.553.034.42.025.063.006.119.008.107.008 1.295.108h.007l.598.045.017.001.356.003.35.037.698.062 2.078.174.772.077 6.876.511.454.046.017.001.975.072.923.07 1.65.126 2.588.178.965.108.294-.011.457.039.797.068.248.02 1.499.121 1.161.094.11.008.595.056.1.01.207.004.113.018.167.01.074-.004.674.138 1.09.224.194.04.074.016.972.005.572.004 5.944.236 1.275.05.12.005.055.002 1.43.07 1.17.058 1.866.24.73-.033.45.036 2.156.174 2.468.197.607.049.28.022.543.033 1.225.098 1.637.055.427.065 1.099.093.348.024 2.353.163.692.141 8.38.733 2.559.191 2.151.16 1.8.119 4.872.375.17.009 5.29.424.027.002 4.798.424 2.006.074.131-.011.228.016 2.25.454 2.13.159 1.18.087 1.627.11 4.389.26 7.15.421.495.017 2.48.294 2.67.315.848-.009 1.527.149 4.953.224.427.056 5.919.338 1.543.08.39.022 1.679.064.627.039.518.035 1.743.122.205.014 1.718.12 1.365.096 1.595.11.537.038.967.076.856.067.021.002.026.001 2.098.123 1.753.103 2.157.058 6.07.406.833.056.596.064.739.056.724.046 3.579.28 1.878.145 7.218.386.447.01 2.072.108 4.323.307.16.008 3.762.185 3.547.173 5.03.243 7.427.318 6.954.292 2.706.112.04-.061.47.02.48.022 5.88.26 4.759.206.708.03 1.762.076 5.715.242.013.001.452.019 9.663.4h.034l.636.02.518.015 9.613.282 3.07.087 6.273.175h.016l1.902.052 8.252.22.42.019 3.205.143 1.16.051 2.074.092 3.749.163.266.012.016-.007.742.059 3.406.15 7.099.306.325.013.323.014 2.49.093.125.004.309.01.405.016 2.571.104.071.003-.006.388-.147 1.522-.444.968-.013.337v.004l-.002.043.085.328.122.177.475.337.013-.041.26.052 1.13.379.374.196.263.275.262.608.046.322-.023.597-.353 1.07-.12.594-.102.775.047.308.286.303.633.29.486.38.156.87.296.665 1.21 1.398.423.754.295.694.798 1.27.139.116.155.14.22.162.144.137.157.312-.04.524-.259.384-.024.087-.085.302.061.353.228.425.12.29.063.308-.09.369-.106.302-.003.57.227.403.362.385.139.29.043.352-.01.241-.143.3-.316.383-.282.47-.148.432-.072.873-.078.545.056.484.5.955.28.763.036.322-.162.76.02.198.04.388.176.411.974 1.723.06.309-.093.526-.284.838.33.391.253.3.043 1.06.088.185.281.165.57.105.39-.152h.347l.308.081.175.119.98 1.264.24.956.154.34.977.749.648.804.55 1.464.147.01 3.242.235 4.218.382 9.057.813 7.083.628.132.012 2.38.21 2.34.231h.001l2.248.223h.016l6.624.58 1.366.12.517.052 1.093.114 6.147.641 2.642.177 8.56.567h.003l.694.046 11.037.952.161.013 3.24.228.505.035 11.32.958 3.625.303 2.055.225 2.864.214 1.314.098h.003l1.856.139 1.27.102.574.06.251.014 2.46.214h.005l1.392.122h.008l15.201 1.236.012-.003.067.006 2.924.259 4.107.34 1.238.13.213.017 7.781.636 8.014.646.325.028 3.81.321 3.651.306h.006l8.955.68 4.43.333 6.098.553h.006l1.062.07 1.25.094.013-.003 4.72.376 1.27.11 2.606.221 1.999.17.019.002 3.498.293.014.001.248.025.025.002 5.188.424 9.41.76 1.556.127.239.017h.007l1.084.075.855.064 2.343.237.628.063.933.072.602.047 7.504.576.029.002 13.88 1.047 7.33.542.183.009 21.39 1.612.033.006 1.09.073.032.002 12.629.862 1.771.12.452.048 1.478.099.972.081 1.059.068 1.36.098 7.813.549.03.002 4.876.351 5.29.377 10.504.753 3.512.255.991.093 4.203.302.003.01.053.218-.351.248-.662-.054-.651.422-.521.647-.216.19.002 1.06-.536.5-.175 1.068.517.921.648.611.165.827-.11.466-.005.02.417.984.23.34.785.506.683.756.774.956.609.934.063 1.496-.439.78-.367 1.168.024.499.18.197.148.512.106 1.023-.298 1.037-.405.597-.047 1.149.752 3.244.927 1.674.506.66-.07.81.499.302.291-.107.212.025.103.482.459.709.974 1.15.056.068.176.13.587.123.414.023.438-.29 1.785-.494 3.238-.568 1.39-.145.282.068.132.176-.045.17.202.149.659.483 1.638.266 1.515-.062 1.023-.166 1.199-.288.012-.006.246-.125.858-.968.466-1.082.108-1.035-.649-1.609-.105-.896.034-.34.06-.596.139-.604.71-1.132-.06-.794-.336-.9.117-.552.733-.897.22-.356.322-1.448.198-1.332.709-1.092.092-.517-.047-1.236-.115-.62.277-.478.118-2.443-.132-.719-.141-.165-.085-.228-.145-.394.006-.116.047-.91.6-2.641.916-1.876-.327-1.883-.499-2.332-.44-1.103-.096-.108-.474-.19-.781-.313-.049-.08.09-.916-.243-1.187-.658-1.08-.445-.507-.283-.538.098-.557-.063-.303-.326-.853-.463-.32-.41-.524.075-.715.198-.312.019-.42-.18-.42-.241-1.019 1.018-2.25.632-1.984-.147-1.678-.195-.63-.224-.264-.338-.633.31-.643.134-.46.038-1.418.078-.214.358-.244.397.042.508-.046 1.25-.605.623-.843.125-.256-.764-1.766-.742-1.012.019-.492.116-.182.691-.515.045-.008 1.052-.178.347.164 1.202.78.497.618.27.214.88.451.265.047.012-.005.01-.005.599-.283.406-.86.167-.86.253-.364.508-.437.06-.546-.062-1.112-.041-.723.062-.608.015-.023.27-.42 1.185-.889.791.002.666-.044.363.57.123.407 1.096.421 1.618.22.554-.162.208-.103.05-.371-.145-.27-.173-.142-.069-.3.29-.382.401-.232.63.584.163.07.232-.05.23.421-.024.908 1.036 1.497.148.6.558.174.664.307.334.625 1.908-.253.67.443.632-.03.096.28.091.146.1.157 1.48-.26 2.209-.172.225.044.584.47.435.379.261-.146.333-.22.2.315.387.61.572.902-.357.432.497.514-.068.583.353.025 1.036-.354-.233-.395.1-.354.151-.42.183-.39.387-.098.388.023.336.157.14.454.13.089.407.278.443.169.415.075.442.062.336.157.016.187-.105.201-.036.389.217.224.55.208.39.21.016.2-.144.27.2.271.614.37.865.31 1.008-.189 1.995-.374.237.18.125.432.1.159.25.193.112.019 1.819.305.32-.185.095-.154.023-.509-.412-.475-.812.524-.485-.386.579-.496 1.027-.096.772-.39.434.5-.28.595-.055.485.337.116.572-.247.054.03.003.002.299.168.052.305-.045.64.053.467.164.358.152.14.367.147.503-.192.453-.625.36.008.22.509.311.206.21-.388.06-.632.472-.138.433.652-.031.388-.282.582.292.294.727-.03.246.308.294.586.363-.027.208-.464-.035-.91.201-.38.408-.076.534.298.048.366-.111.738.392.113.536-.615.295-.129 1.278.141.292.032.154.053.123.041.365.365.21.062.345.101.049.602.333.237.541-.295.423-.455.388-.189.041.018.345.152.176.424.377.539.387.19.386-.151.155-.33-.024-.372-.072-.446.026-.423.1-.344.263-.114.59.107.58.11.634.033 1.064-.114 2.11-.472.263-.002.43.299.98 1.257.382.195.867.266.111.034.539.077 1.35.13.55-.06.738.638.641.273.428.312.27.021.132.01-.192 1.142-.012 1.196-.128 1.797-.07.497-.25 1.744-.367 2.263-.164 1.008-.435 3.529-.081.657-.009.328-.09 3.498-.013.484.22 2.472.299 1.552.49 2.154-.019.628-.27.813-.185 1.014-.25 1.37.58.634.53.848.53.063.812-.099.694-.411.245.588.21.976.158.94.216 2.713.227 1.238.223.996.072.747-.07 1.398.428 1.8.254.759-.182.457-.177.446.149.356 1.226-.328.214.017-.307.651-.263 1.501-.045.258.081 2.61.025.788.2 2.131.064.506.208 1.621.182 1.423.121.94.051.402.334 1.93.067.315.116.554.156.739.159.756.002.009.238 1.207.233 1.176.136.543 1.17 4.676.295 1.174 1.687 6.731.003.012 3.25 14.4.773 3.729.406 1.666.657 2.706 1.041 4.42.328 1.117.39 1.333.486 1.657.007.02.559 1.562.476 1.11.326.758.17.184.257.276.46.493.55.59.287.716.017.712.29 1.403.117.386.187.618.005.016.075.514.416 1.603.03.117.029.05.02.037.018.032.064.113.042.896.068.98.01.088.193 1.659.003.024.164 1.49.027.25.013.104.064.528.023.188.064.528.074.613.17.896.142.749.271 1.113.023.091.289 1.26.224.67.042.125 1.48 4.42.098.232 1.167 2.773.187.446.294.483.045.39.022.188.055.162.165.485 1.376 4.045.13.383.003.007.17.5.324.818 1.832 4.626.345.871.297.749.618 1.56 1.144 2.883 1.62 4.082 1.966 4.352.92 2.035.949 2.096.92 2.033.338.747 1.117 2.537.142.35.349.858.028.069 1.2 2.799.041.094 3.144 7.324.874 2.034.85 1.978.513 1.192.139.323.006.014.099.23.136.317.104.24.079.184.174.405.419.973.568 1.32.001.004.405.868.601 1.29.16.341.23.494.356.762.791 1.698.85 1.821.838 1.794.533 1.14.467 1.001.461.986.498 1.065.44.941.313.668.006.014.75 1.602.008.019.6 1.282.007.015.965 2.061.904 1.932.24.514.47.864.372.682 1.101 2.025.87 1.597.777 1.126 1.068 1.547 1.533 1.825.469.403.244.211.32.4.016.019.308.933.014.027 1.195 2.469.014.029.488 1.006.009.02.127.262.483.873.01.018.92 1.666.54.976.118.191.853 1.38.56.907 2.928 4.732 5.044 8.14 1.73 2.789.515.829 6.124 10.263.9 1.436 3.012 4.81 8.068 10.935.5.593 2.76 4.322.71 1.108 2.777 3.473 1.47 1.627 1.252 1.716.538 1.641.182.695.235.895.484 2.722.447 1.736.919 2.373 1.118 2.098 1.286 2.82 1.458 2.68.004.629-.174.477-.27.293-.847.412-.422.027-.374.178-1.883.99-.757.498-1.092 1.176-.64.684-.553.899-.223.72-.257.284-.266.295-.089.271-.497 1.53-.148.55-.23.854-.088.447-.07.355v.003l-.013.068-.23 1.171-.047.243-.042.211-.174 1.449-.052.432-.079 1.02-.028.367-.067.868-.005.348-.018 1.352.036.982.03.8.051 2.233.008.34.105 1.015.255 2.446.237 2.28.024.476.779 4.342.216 1.307.093.56.008.047.11.66.007.045.125.758.004.02.047.286.298 1.251.303 1.275.001.003.217.8.291 1.078.27 1 .153.561.322 1.19.135.499.113.415.966 3.568.072.263.693 2.162.031.092.185.533.283.817.427 1.132.049.129.279.74.56 1.314.366.862.355.834.098.23.409.896.007.016.028.06.597 1.31.528 1.156.685 1.5.902 1.848 1.372 2.752.401.844.295.62 4.05 7.57.787 1.39.75 1.33.887 1.524 1.813 3.407-.008.171-.007.147 4.504 8.9.189.372 1.16 2.18.115.214.478 1.024.4.858.43.677.323.63.465.91.538 1.05.328.826.194.487.176.797.393 1.14.32.928.893 2.59.367 1.063.225.773.016.051.15.465.034.106.329 1.024.101.315.086.436.042.214.208.571.092.253.039.106.023.082.28.981.069.242.198.696.024.273.036.401.034.384.029.087.365 1.091.084.168.192.383.267.536.554.767.737 1.022.316.619.066.13.012.023.05.097.661 2.86.27 1.168.505 1.67 1.363 4.51 1.528 3.521.405 1.288.216.732.422 1.075.427.77-.032.215-.03.195.027.558.495 1.23.606 1.506.31.772.295.824.179.333.962 2.526 1.22 3.007 1.065 2.05 2.757 5.421.082.399.188.505.689 1.726.973 2.215 1.479 3.364.73 1.541.606 1.311.88 1.903.158.293 2.412 4.45 1.76 3.244.233.626-.017.234.328 1.072.614 1.402-.385.696-.116.21.25.652.707 1.587.135.533.64 1.609.252.918.223.847.49 1.17.673 1.363.297.508.033.055.636 1.087.22.403 1.142 2.096.244.82.465.86 2.508 5.937.76 2.932.403 1.559.733 1.829.156.519.306 1.022.061.203.128.424.139.383.193.533.044.119.467.992-.026.07-.068.184.06.192.366 1.196.278 1.187.078.245.12.373.36 1.132.008.025.217.678.52 1.562.128.382.48 1.438.076.248 1.002 3.246.796 3.154.807 3.196.628 2.483.036.144.006.52-.08.796.144.5.012.307.042 1.113-.147.125-.326.274-.266.714.236 1.589.15 1.001.129 1.688.1 1.219.03.355.042.525v.007l.083.408.11.544.043 1.108.011.288.018.456.009.222-.039 1.647-.097.443-.098 1.498.014 4.197v.133l.082 1.684.198 2.66.01.148.018.236.002.063.04 1.47-.044 1.294-.035 1.057-.012.338-.07 2.12-.274 2.162-.005 1.301-.01.035-.004.011-.31 1.048-.546 4.128-.004.039v.011l-.004.032-.023.233-.105 1.044-.359 3.577-.202 2.01-.09.908-.001.001.021.158.024.18-.113 1.245-.172 1.674v.007l-.041.926-.213 4.85-.12.202v.082l-.034 3.203-.053 1.214-.064 1.45-.09 2.06-.048.036-.167.13-.253 2.084-.042.346-.023.596-.028.751-.02.549-.001.03-.222 5.95-.017.817-.143.09-.089.056-.186.19-.085.627v.005l-.003.018-.055.408-.009.064-.245 1.102-.15 1.321v.05l-.001.018-.02.795-.014.623-.096.748-.005.037-.011.09-.235 1.578-.003.037-.033.412-.007.085-.138 1.714-.086 1.078-.004.05-.068.84-.04.51-.06.734-.013.163v.002l-.157 1.293-.173 1.43-.102 1.412-.03.427.025.658-.054 1.257.015 1.135.004.337-.002.233-.008.773-.013 1.39-.286.342-.102.121-.092.306-.013.411.02.906-.097 1.23-.027.623-.01 1.367v.063l-.04.52-.081 1.079-.09 3.24-.048 1.716-.01.37-.027.963-.025.88-.006.108-.037.69-.045.823-.003.06v.034l-.017 1.627-.003.29.004.742.01 1.584.004.464v.02l.008 1.148-.021.369-.046.825-.022.389-.016.725-.005.224-.005.222-.01.411-.008.4-.012.534.02 1.868.025.782.007.225.055.623.023.268.059.669.046.524.005.061.065.48.07.518.07.527.133.977.007.154.06 1.257.04.824.033.697v.18l.001.126.001.372.001.283.002.612v.373l.001.11.001.31v.247l-.024.442-.01.172-.031.562-.008.137-.022.389-.023.412-.015.086v.001l-.017.1-.115.663-.059.339-.04.143-.11.399-.043.155-.06.42-.083.595-.059.443-.08.6-.103.786-.077.576-.136.733-.021.112.008.405.012.603-.017.012-.365.269-.02.043-.051.107-.338.71-.005.01-.327.163-.007.003-.11.191-.28.482.043.646-.29.739-.43.495-.478.142-.526.503-.289.128-.095.042.646.584.28-.01.555.345.146.424-.085.625-.347.912-.026.568-.094.544-.261.449-.086.281-.065.214-.02.064-.018.368-.034.707.131.715.078.424.007.036.02.107.351 1.547-.416.807-.215.123-.192-.112-.465-1.186-1.026-.945-.062-.042-1.032-.716.363-.745.368-.607.539-.701.11-.144-.292-.746-.703-.215-.225-.219 1.848-.981.896-1.023-.492-.566.079-.09-.611-.58-.505-.003-.164-.307.1-.262-1.012-1.034-.193-.196-.504-.214h-.002l-1.368.055-1.343.053-.357-.27-.05-.038-.756.407-.165.2-.092.519-.47.37-.214-.07-.232-.078-.546.425-.91.636-.457.529-.384.443-.277-.163-.033.048-.137.196-.144.208-.533.94-.556.675.14.483.058.072.036.044.137.168.058.071.064.487.04.303.07.53-.285.132-.29 1.087-.737 1.42.006.108.007.112.01.178-.214.022-.326.465-.017.023-.297.78-.318.994-.036.112-.211.41-.027.198-.01.068-.053.391.272.246-.031.082-.241.07-.04.181-.137.401-.113.04-.067.44-.064.784-.493.28-.296.72-.567 1.059-.425.792-.25-.07-1.327-.101-.056.343-.168.051-.18.206-.243.04-.258.224-.153.46-.033.31-.018.176-.151.361-.005.044-.035.365.102.573-.002.112-.014.618.12.28-.046.207.077.825.281.8.106.299.361.981.003.335-.514.663-.115.598.034.192.043.25-.137.304-.39 1.31-.173 1.411-.113.18-1.344.13-.133.112-.398.338-.21.285-.128.369.213.29-.196.081-.032.473.146.468-.02.182-.326.149-.262 1.086.316.288-.05.209.176.302-.914.589.127.711.273.265-.132.59-.001.003-.246.018-.02.181.106.496.01.36-.089.11.019.628.057 1.058.219.002.21.613.038.008.299.063.06.117-.042.14-.053.18-.293.427.052.44.42.515.438.263-.02.317-.003.055.076.75.206.348.408.364.743.09-.125.635-.487.312-.097 1.155.055.507-.264.496.138.287.232.567-.461.553.25.27-.022 1.133.224.368.368.124.42.254.097.34.407.026.539.113.296-.266.25-.108.41.372-.164.499-.412 1.66-.192.467-.229.417-.57.64h-.281l-.309.231-.145.322-.298.339-.438 1.055-.119.496-.574.882-.42.618-.467.746-.064.58.148.629-.097.066-.27.015-.55.279-.168-.207-.085-.344-.079-.14-.361-.067-.138.184-.244.067-.19-.07-.147-.15-.148-.252-.294.006-.261.217-.026.274-.263.103-.422.152-.151.36.193.48-.123.032-.237.66-.014.481-.28.278-.023.266-.018.205-.091.338.168.39.295.465-.08.332.053.171.275.097.109.095-.126.351-.01.282-.536-.045-.353-.1-.074-.022-.44-.446-.39.092-.333.388-.315.435-.492.787-.407.532-.222.856.042.816-.058.615.158.482.273.18-.045.455-.002.018.137.797-.364.877.05.517-1.107.305-.702.18-.119.68.226.638-.025.205-.184.148-.408.973-.287.828-.02.803.587 1.113.5.377.766.32.36-.09.387.302.568.028.53-.143.252-.009.221-.432.02-.347.374-.107.284.006.023-.013.486-.272.292.242.284.038.24.086.245-.181.005-.04.032-.276-.06-.376-.098-.19-.037-.073.215-.15.3.022.31-.12.33-.027.347.035.651-.29.083.016.487.09.014-.014.094-.1.044-.048-.055-.234.03-.034.318-.371.012-.033.18-.498.01-.027.052-.136.052-.133.178-.197.02-.315.305-.31.377-.453.454-1.431.185-.557-.115-1.065.272-.528.008-.017.02-1.698-.164-.183-.054-.203-.859.156-.31-.351.13-.319.02-.315-.218.055-.112-.075.052-.316-.139-.373-.365-.097-.169.116-.251-.007-.233-.37-.234.04-.274.26-.622-.245-.018-.058-.105-.33-.224-.197-.035-.03-.451.14.065-.41.287-.078.948.296.434-.137.308-.331.644-.081.35-.23.058-.297.428-.088.163.134.214.368.342.091.291.165.364-.213.501-.246 1.043-.896.867-.745.449-.19.213-.352.064-.352.192-.151.563-.343.431-.665.379-.202.258-.192.026-.427.008-.14.037-.657.447-.25.013-.016.349-.413.387-.163.098-.252.023-.06.146-.379.259-.6.146-.608.053-.52.075-.223.245-.197.368-.318.248-.233.35-.064.442.063.445.156-.227.228-.126.413.41.503.393.149.215.175.011.313-.18.21-.252.593-.1.256-.14.478-.179.466-.409.323-.408.188-.438.202-.066.114-.246.422-.252.387-.174.147.066.39-.014.02-.091.143-.31.486.031.439-.04.41-.628 1.476-.426.934-.83 1.271-.349.533-.026.048-1.01 1.863-.356.48-.522 1.166-.074.227-.156.253.004.358-.212.531-.345.442-.47.31-.21.63-.259.238-.164.642-.38.386.005.332-.164.122-.374.305.01.464-.004.008-.204.361-.1.178-.04.436-.417.225-.213.503.021.476-.128.423-.174.103-.189.28-.657.376-.158.503-.02.591-.407.663-.333.147-.21.092-.332.421-.192.3-.027.041-.025.039-.294.457.102.233.299-.026.777-.294.623-.195H931l.44-.013.06.175.005.012-.244.433-.102.272-.223.141-.006.026-.144.646-.05.134-.251.67-.005.013-.62.053-.294.175-.57.308-.058.355-.155.156.012.428-.225.471.235.49-.394.209-.224.396-.103.392-.161.162-.309.153-.086.043-.406.585-.081.414-.459.079-.427.612-.454.414-.274.507-.226.329.046.216-.079.146-.577-.012-.345.288-.423.23-.248-.05-.255.11-.056.265-.356.295-.223-.08-.022-.125-.055-.299-.256-.12-.336-.16-.002.002-.35.31-.193.376-.103.2-.016.483-.133.809-.354.12-.03.3-.311.38-.396.61-.336.337-.13.194-.061.093-.4.175-.34.26-.566.218-.13.038-.962.28-.112.21-.308.186-.417.397-.538.506-.344.568-.432.487-.343.635-.029.041-.305.433-.147.207-.318.28-.377.411-.45.354.108.305.04.112.015.045.178.16.241.218-.002.432-.374.406-.117.392-.133.244-.386.35-.173.256-.471.21-.216.15-.082.111-.225.236-.022.001-.385.025-.179.357-.1.193-.303.064-.232.353-.036.607-.256.277-.356-.071-.414.146-.66.347-.155.081-.098.052-.086.045-.01.032-.083.25-.025.078-.023.07-.163.33-.168.229-.175.042-.36.498-.166.445-.262.353-.584.572-.328.78-.171.317-.417.39-.044.049-.316.343-.342.181-.127.067-.154.403-.234.255-.169.183-.002.232V907.6l-.362.11-.102.245-.286.162-.09.002h-.02l-.21.003-.244.212-.257-.015-.452.12-.333.166-.204.01-.174.008-.084.02-.371.086-.635.351-.426.067-.388.597-.435.215-.385.243-.601.63-.294.29-.47.47-.101.286-.538.526-.507.516-.14.272-.415.537-.334.42-.323.305-.724.59-.591.488-.464.348-.407.278-.405.382-.185.186-.241-.1-.128-.052-.034-.1-.053-.155.034-.553.135-.155.493-.23.491-.132-.05-.305.258-.42.087-.201.201-.117.464.092.133-.06.428-.194.245-.388.34-.327.03-.032.21-.234.034-.038.262-.418.333-.095.275-.433.21-.197.278-.26.205-.356-.176-.486-.106-.293-.048-.133-.003-1.053.575.003.387.459.425-.076.13-.415-.08-.567.02-.364.655.217.3-.009.535.443.325-.306.017-.016.058-.054.334-.437-.11-.24-.025-.056-.137-.129-.4-.376-.056-.472.205-.388.058-.11.578-.278.608.305.168.207.292.363.126-.067.075-.04.172-.094.09-.176-.325-.275.238-.091.158-.06.122.266.317.028.153.298.262.064.297-.117.018-.007.278.037.194.025.156-.313.208-.172.312-.318.127-.264.01-.018.375.02.297-.211.043-.031.17-.34.021-.084.08-.312-.067-.376.485-.7.021-.031.211-.53-.263-.268.142-.169.047-.056.27-.088.02-.345-.048-.176.242-.522.353-.135.242-.34-.008-.283-.093-.346v-.425l-.2-.516.06-.137.057-.134.513.054.497-.278.068-.038.625-.3.153-.039.376-.097.372.143.4.177.557.12.143.031.317-.4.012-.014.005-.007-.026-.315-.076-.408.096-.46-.113-.29-.016-.04.174-.091.042.005.342.042.258-.227.226-.325.217-.182-.1-.306.192-.35.204-.05.05-.047.088-.083-.028-.157-.009-.051-.05-.284.457-.599.129-.169.264-.193.392-.285.09-.065.28.043.277-.395.38-.266.38-.416.095-.221.098-.23.262-.355.373-.405.225-.328.364-.438.38-.486.41-.47.311-.341.005-.6.115-.335-.057-.298-.114-.223-.02-.04-.29-.18-.292-.015-.019-.089-.01-.043.546-.207.316.005.007.014.03.058.189.36.004.007.022.042.072.281.046.065.086.12.28-.135.324-.2.643-.604.007-.01.06-.069.313-.36.035-.363.136-.178.018-.019.348-.356.327-.61.414-.344-.07-.337-.042-.196.004-.346-.371-.253-.225-.153-.028-.362-.55-.423-.581-.097-.052-.009-.248-.354-.384-.176-.494-.173-.297-.385-.495-.22.036-.244.284-.148.046-.28.028-.22.053-.194.078-.268-.211-.33-.458-.844.002-.317.123-.23-.022-.36-.032-.293-.127-.31.09-.247.352-.659.001-.226.446-.796.181-.224.048-.304.117-.289.23-.173.307.101.184-.148-.056-.281.059-.112.297-.057.116-.303-.005-.63.02-.346-.376.043-.242-.05-.228-.55-.11-.344-.191-.09-.495-.233-.33-.404-.193-.398-.41-.042-.4-.385-.139-.389-.345.027-.514.199-.34-.223-.318-.113-.369-.05-.305.233-.446.143-.152.282-.06.272-.202-.057-.253-.09-.3.096-.252-.035-.122-.094-.21-.113-.183-.298-.294-.001-.124.177.085.28.432.069.234.377-.025.261.166.532-.344-.007-.344-.395.048-.375-.357.314-.403-.627-.316.164.144-.45-.481-.606.085-.24-.101-.05-.377-.185-.3-.007.009-.058.043-.32-.58-.391-.643.124-.218.485-.309.167-.157.492-.784.104-.481-.164-.28.427.39.975.031.046.357.532.025.039-.008.236-.606-.768-.29-.227-.325.2-.382-.162-.215-.324-.008-.251.112-.444-.2-.216-.273.183-.27-.086-.336.325-.345.043-.484-.05-.047.178.19.236.206.511.11.2.101.71-.778.462-.116.272.061.273-.446-.032-.435-.53-.338-.111-.167-.14-.245-.348.106-.355.022-.074.131.169.042.329.244.26.328.009.094.002.195-.388-.004-.334.09-.049.472-.001.148-.28-.008-.248-.407-.491-.227-.13-.309.2-.454.076-.16-.074-.225-.181-.39-.022-.328.216-.1.334-.206.173.122.176.042.329.012.393-.234.01-.324.068-.517.227-.158.3-.164.38.034.467-.196.197-.435.141-.382.208-.18.036-.075.037-.181.08-.178.084-.069.077-.068.117-.057.149-.151.072-.07-.248.021-.1.143-.13.113-.119.085-.047.204-.052.16-.066.11-.213-.003-.147-.113-.298-.261-.307.168-.682.097-.278-.194-.228-.52.062-.092.419-.49-.15-.788.581-.342-.294-.21.232-.021.347-.17.084-.483-.402-.286.084-.018.357-.44.178.042.18-.282.04-.322.292-.363-.02-.287-.097-.447.292-.006-.22-.14-.246-.532.034-.076.485-.178.367.024.283-.107.082-.322-.114-.38.086-.058.412-.158.167-.117.124-.105.476-.006.031.04.027.329.214.332-.055.012-.002.071-.322.013-.058.29.243.267-.023.282.127.046.02.429-.157.52-.175.186-.105.71-.066.232.026.193.225-.164.016-.307-.013-.353-.056-.258.172-.304.097-.155.171-.141.2-.288.615-.306.965.13.68-.352.12-.057.061-.209.224-.062.34.042.36.273.197.306.227-.105.161-.53.189-.028-.028-.058-.06.004-.138-.06-.049-.078.057-.026.14v.13l.068.186-.512.253-.465-.002-.453-.001-.304.235-.035.027-.292.26-.181-.278.068-.349.262-.196.25-.07.213-.39.302-.319.24-.332.366-.504.453-.124.319-.307.018-.018.085-.317.18-.304.02-.411-.357-.335-.25-.38-.26.086-.332.156-.43.116-.176.04-.234.023-.155-.03.107-.143.122-.142.034-.22-.1-.19-.138-.084-.219-.287-.179-.022-.166.14.007.372-.07.164.022.23.18.078.022.054-.315.085-.227.248-.13.167-.22.03-.114-.08.045-.211.163-.263.125-.21.031-.571-.14-.209-.407.055-.335.31-.532.544-.47.075-.305.357-.243.306-.28.082-.008.113-.015.207.124.485-.028.389-.006.084-.37.263-.322-.083-.227.331-.097.336.138.663.075.09.087.191-.064.258-.26.055-.16-.18-.14-.317-.015-.304-.066-.254-.18-.233-.09-.353-.4-.15-.226-.202-.34-.229-.27.08-.36.134-.316.182-.206.09-.038-.083.096-.187.012-.197.248-.28.22-.245-.102-.431-.21-.386-.351-.148-.256-.173-.427-.005.07.16.257.283.067.204-.027.372-.069.112-.553-.185-.246.273-.156.036-.177-.383-.423-.289-.531-.247-.216.12-.047.55.09.46.419.223.02.204.423.478.406.177.317-.262.55.026.369.218.685.342.276.18-.147.16h-.45l-.338.214-.541.15-.573-.018-.678.15-.74-.7-.532-.764-.352.081-.193-.106.132-.388.035-.406-.416-.372-.754-.203-.778.066-.373.19-.124.302.039.426.207.27.28.541.04.314-.08.49-.244.685-.41.29-.29.061-.164-.016.138-.208.276-.376.235-.395.107-.555-.192-.73-.31-.402-.118-.61-.395-.493-.526-.26-.562.226-.162-.002-.2-.004-.454.134-.462.642-.14.44-.08.257.035.55.135.62-.32.548-.067-.267.029-.508-.192-.626.174-.876.108-.67.155-.275.236-.602.217-.673.133-.418-.14-.502-.476-.275-.543-.04-.512-.275-.346-.026-.521.14-.273.132.074.36.063.341.008.288.257.174.244.336.031.504-.85.6-1.299.666-.253-.715-.246-.444-.448-.565-.77-.467-1.286-.219-1.227.184-.042.007-1.32.125-.96.264-.652.442-.37.662-.276.258-.343-.167-.866.17-.705.515-.175 1.21.381.89-.191 1.174-2.039-.188-3.59 1.094-.287.886-.488-.25-.1-.615-1.012-.16-.556.214-.343.325-.32-.263-.675.026-3.597 1.512-1.385-.14-1.788-.543-3.642.248-2.05.63-1.808.845-.531.393-.53.016-.369-.247-.54-1.327-.377-.61-.838-.827-1.153-1.207-1.17-.975-.908-.432-.82-.115-.985-.11-.026-.977-.226-2.795-.938-2.132-.888-1.501-.862-.953-1.373-1.075.079-3.45.321-1.078.106-2.457.37-.633.34-.17.038-.808-.218-.57.076-.736.34-1.288.902-1.035.408-1.84-.417-.97.479-1.182 1.03-1.239.811-.292 1.664.585.402-.954.093-1.424-.263-.624-.796-.268-.01-.397.337-.446-.267-.633.327-.646-.167-.498-.723-.188-1.704-.087-.73-.314-.49-.521-.057-1.745.447-.753.04-.48-.391-.226-.117-.621.074-.392-.277-.788-.764-.714.023-1.158-.73-.956-.633-1.406-.242-1.888.072-.825-.727-.36-.905-.447-1.168-.775-2.806-3.702-.088-1.514.866-2.537-.174-.689-.677-1.401-.63-.18-.795-.529-.74-.685-.395-.878-.689-.622.102-.652-.85-.912-.167-.497-.37-1.336.286-.976-.178-1.087-1.247-.257-2.687-.806-.526-1.503.217-2.01-.12-.21-1.169-.697-.118-1.277-.813-.079.053-.531-.016-.842.578-.76-.921-.507.549-1.015-.39-1.176-1.714-.875-1.158-1.314-.83-.363-1.604-.72-.634-.715-1.463-.822-1.221-1.034-.709-1.19.031-.7-1.293-.212-1.572-.814.298-1.163-.172-1.39-.13-1.278-.319-.174-.693-.649-.804.325-2.612-.71-1.195-1.344-1.525-.315-.764-.448-2.16.25-1.4-.787-.116-.438-.12-.454-.286-1.08-.556-.037-.398-.583-1.322-.098-.237-.383-.242-.883-.87-.558-.73-.185-.823.573-.465-.915-1.032-.326-.934.36.262-1.656-.854-.951-1.054.605-.718.439-.626-1.258-1.157-.48-.389.81-.658-.457-.453-.891-.833.119-.302-.862-.162-.855-.704-.379-.69-.564-1.577-1.249-1.665.138-.64.1-1.192-.973-.66 1.254-.47-.461-.757-.742-.873.733-1.424.994-1.074.56-.394.782.568.677.18.788-.378 1.415-.626.924-.093.736-.301.009-.555-.275-.63-.793-1.491-3.049-1.679-3.432-.598-.642-.002-.049-.02-.383-.024-.424-.622-.117-.204.027-.516.067-.044.006-.123-.18.005-1.313-.364-1.893-.356-.668-.562-.716-.876-.734-.07-.049-.552-.382-.384-.266-.039-.11-.281-.787.334-.562 1.072-1.316.834-.258-.1-.29-.092-.266-.205-.13-.514-.327-.293-.75-.265-1.096-.45-.254-.696-.76-.61-1.06-1.441-3.895-1.571-3.03-1.492-3.586-.754-1.814-.017-.148-.998-8.664-.128-.49-.656-2.534-.007-.109-.153-2.238-.177-2.577-.069-.539-.156-1.222-.015-.121-.227-1.777-.021-.166-.058-.452-.5-2.446-.007-.04-.008-.035-.528-2.59-.47-2.303-.191-.937-1.529-4.789-.162-.385-1.221-2.9-.18-.332-.023-.04-.333-.612-.54-.993.027-.25-.806-1.826-.988-1.196-1.013-1-.279-.603-.067-.034-.732-.366-.667-.333-.641-.898-.365-1.085-.014-.042-.422-.714-.41-.694-1.553-1.36-.015-.01-1.91-1.188-2.365-1.036-.04-.033-.95-.768-.424-.547-.196-.442-.01-.205-.027-.52-.05-.961-1.453-.632-2.113-.548-.13.011-1.414.117-.072-.06-.536-.446.3-.862.168-1.049.088-.55.014-.09-.26-1.231.085-1.014-.006-.011-.34-.607-.307-.545-.153-.024-1.17-.182-2.021.813-.034-.152-.192-.86-.027-.123-1.054-1.375-.896-.885-.128.168-.724.953-.58.761-.298 1.415.41 1.749.686 1.532.098.096.467.461.27.267v.053l.003.439-.11.01-.46.045-1.039.1-.31.03-.356.088-.904.224-.424.106-.143.035-.152.094-.215.133-.95.585-1.237.007-.113-1.078.018-.045.466-1.157.137-.845.089-.544.034-.212-1.106-.64.27-.43.644-.189-.34-.581-.065-.04-.891-.539-.219-.674-.038-1.228-1.116-2.052-.348-1.901.036-.917.014-.356.031-.784-.193-.77-.184-.734-.372-1.485-.255-1.017-.86-.34-.774-1.469-.407-1.684.426-.646.23-.718-.386-.59-.143-.218-.432-.66-.06-.062-.307-.321-.247-.259-.84-.879-.63-.658-.428-1.044-.461-.304-.368.032-.754-.466-.079-.237-.214-.64.026-1.041.304-.46.161-.184.783-.893 2.02-.254.836.457 1.63.157 1.707.489.38.526.422.583.094.13.922 1.333.556 1.573.17.485.158.126.182.147-.033 1.615.65 1.192 1.44-.192.668-.846.062-.078-1.154-1.81-.052-.083.016-.075.568-2.581.208-2.49.654-2.076.446-.994 1.234-2.747.306-2.193.002-.012.013-.098.049-.346.19-1.359.077-.553-.014-2.155.544-.772.257-1.138-.14-1.019-.248-1.795-.089-2.401.053-.754.15-2.145-.176-1.927-.49-.462-.217-.205-3.335-1.323-.716-.737-.02-.021-.256-1.86-.076-.504-.114-.746.785-1.438.697-.675.461-.013.578.25 1.414-.262.1-.069.634-.432.862-.658.179-.58-.382-.603-.153-.241-.387-.61-.002-.004-.675-.636-1.65-.536-.43.012-.665.017-.543.569-.673.206-.762-.057.028-.667-.888-.456-.886-.33-.036.112-.203.62.206.475.257.59-1.248.755-1.608 2.822-.233.464-1.126.494-.886-.331-.707-1.125-.948-.545-.034-.7-.795-.485-.55.409-.604.45.253 2.073 1.387 3.196 2.228 6.491 1.116 9.375-.148.857-.623-.081-1.362.733-1.206 1.106-.134.123-1.712-.006-.22-.114-.455-.236-.826-.058-.5.313-.14.087-.15.643-.275.185-.589-.523-1.37.225-1.287-.638-.954.425-.084.038-1.435.708-.424 1.286-.149 1.225-.642 2.383-.038.143.053.576.06.645.013.156-.247.124-.156.078-.301-.442.057-.79-.127-4.497-.632-4.01-.336-.697-.278-.579-1.09-1.534-.218-.732.27-.241-.037-.725-.91-1.531-1.478-2.025-.09-.124-.119-.198-2.463-4.099-.519-.863-1.127-.988-.908-1.321-.113-.164-1.181-1.97-.919-1.605-1.572-2.748-.542-1.063-.234-.458-.587-1.216-1.437-2.16-1.004-1.758-1.147-2.813-1.24-2.333-3.396-5.735-.004-.011-1.051-2.97-.251-.708-.052-.145-.183-.65-.327-1.163-.003-.006-.182-.444-.024-.058-.43-1.044-.096-.087-.238-.216-.123-.11-1.038-3.968-1.232-2.504-.787-1.397-.869-1.68-.036-.069-.37-1.316-1.209-2.556-.03-.071-.92-2.227-.286-.695-.755-1.223-.042-.07-.618-.559-.394-.593-.029-.482-.211-.409-.203-.39-.188-.263-.1-.14-.4-.56-1.437-.82-.162-.093-.806-.358-.036-.048-.342-.451-.245-.323-.109-.556.324-.371.338-.387.364-.636.01-.035.17-.677.034-.136-.334-.134-.423-.17-.413-.198-.822-1.473-.038-.069-.955-1.187-.41-.29-.205-.693-.182-.408-.07-.156-.923-1.061-.835-.952-.983-1.121-.01-.012-.773-.882-.73-.833-1.05-1.547-.684-1.005-.667-1.399-.002-.002-1.893-2.69-.417-.594-1.669-1.579-.107-.101-.004-.004-1.896-1.454-.22-.402.097-.922.01-.096-1.332-3.912-.658-1.935-.049-.143-.073-.217-.57-1.241-.274-.595-.11-.165-.876-1.316-.238-.357-.037-.057-.88-.945-.128-.137-.551-.593-.197-.212-.58-.624-.183-.593-.16-.517.421-.074.96.652.532.296 1.047.582.505.28 1.301.477-.043.41-.075.71v.006l-.055.517-.136 1.278-.02.198.388.383.092.091.951.135.24.034.09.013.8.113.246-.055.263-.058-.058-1.546.422-.729.045-.036 1.1-.89 1.602-.452.811.225.907-.153.41-.203.497-.246-.316-.426-.357-.482.084-.244 1.409-.807.104-.511.266-1.305.68-.998 1.869-1.76-.121-1.66.053-.113.111-.237 1.268-.656.666-.593 1.122-.01.382-.269.402-.04.509-.464-.138-.36.103-.474.662-.249.242-.249.628-.976.156-.867-.196-.393.29-.988.105-.939.554-.095.525-.945 2.191-3.948 1.086-1.653.56-.604.903-1.322.003-.318.002-.209.08-.127.267-.43 2.452-1.91.32-.026 1.075-.09.179-.014.328-.48.114-.165.053-.076.283-.714-.08-.577-.025-.178-.654-1.062.081-.083.376-.386.045-.045.705-.242 1.119-.384.805-.277.667-.388.6-.349.36-.208.312-.182.132-.077.009-.005.188-.11.13-.075.394-.23.103-.06.237-.587.083-.36.049-.211-.013-.01-.023-.02-.475-.39.581-.723 1.441-1.794.037-.046.048-.06.024-.146.066-.403.008-.05.08-.488.073-.45.787-.904 1.007-.258.469-.924.031-.124.28-1.108.17-.669.243-.723-.171-.667-.068-.115-.126-.214-.084-.144-.068-.874-.047-.315-.035-.001-.532-.016-.26-.55.39-.42-.255-1.89.217-.336-.132-.89-1.603-2.535-1.767.138-.69.42.03-.69-.205-.35-.028-.047-.904-1.514-.181-.305-.03.959-.43.508-.368-.134-.27-.148-.166.002-.865.014-.069-1.685.021-.303.157-2.252-.064.027-.201.085-.028.011-.383.161-.21.48-.566.18-.092.029-.373.324-.227.197-.52.406-.426.33-.268.208-.267.208-.04.179-.124.548.038.23.069.413.031.186.17 1.014.156.939h.001l.076.086.025.027.216.241.438.488.254.31-.21.887-.008.033-.07.301-.01.038-.772.86-.02 1.066-.003.147.999 1.474 1.074.842.35.578-.454 2.96-.358.223-1.84-.231-2.694-.774-2.186-1.233-.678.529-.457-.39.015-.102.092-.63-.827-.687-.08-.018-.945-.216-.367-.084-.07-.53.382-.713-.138-.883 1.805-.311.274-.332.408-.495.417-.97-.066-.063-.305-.29.198-.675-1.291.044-.059-.325-.097-.538-.004-.023.136-.443.807-.035-.007-.065-.043-.423-.01-.089.043-.743.526-.097-.004-.057-.043-.598-.053-.742-.107-.089-.148-.122-.159-.38.02-.316.016-.283.147-.204.063-.089.056-.077-.01-.146-.033-.463-.042-.585-.089-.214-.199-.483-.407-.988-.01-.023-.237-.574-.651.052-.255-.5.168-.424.029-.073.114-.289-.422-.563-.578-.772-1.46-.014-.422.814-.569-.24.391-1.047-.11-.155-.278-.385-.063-.034-.875-.47-.296-.16-.034-.017-.017-.01-1.209-.078-.898-.058-.069-.005-.814-.583-.776-.84-1.011-.522-.047-.025-.047-.024-.134-.462-.491-.527-.598-.18-.017-.015-.848-.706-.047-.385-.007-.053-.034-.28-.156-.58-.021-.078-.056.002-.512.026-.364-.138-.114-.043-.718.147-.23.54-.011.028-.03.334-.001.024.298.12-.302.957-.061.568-.718-.092-.238-.24.121-.598-.033-.362-.024-.266-.201-.434-.215-.465.3-.447.093-.837-.028-.448-.537-.331-.861-.337-.065-.025-.449.208-.778.176-.212.196-.197.182-.01.01.107.167.513.804.011.04.087.304.104.365.06.21.007.026.067.06.708.63.125.457.023.082-.048.079-.242.403-.252.419-.633 1.05-.029.049-.158.336-.008.017-.045.095-.721.601-.03.024-.014.086-.077.452-.018.114-.008.054-.035.221.448.271.327.39-.45.238-.484.984-.538.454-.1.085-.799-.034-.082.078-.44.418-.745-.198-.505.368-.074.178-.306.731-.078.187.205.327.126.2.212.338-.009.153-.03.539-.007.11v.003l.012.012.602.55.056.052.597.547.056.042.719.545.252.06.447.105.044.01.035.008.275.023.018.001.096.008.451-.448.319.817.42.552.63.018.421.269.623.17.076.02 1.181.164.785.162.598.601.568-.492.332.046.717.631.647-.476.163-.12.169.116.043.03.078.054-.622.625-.108.174-.392.627-.013.738.44.148.29.097.043.015 1.97 1.468.798 1.034.012.016.142.2.7.99.873.158-.029.74-.231.187.452 2.024.692 1.1.07.753-.19.56-.275.372-.146.198.05.025.785.39-.195.603-.397.333-.606-.062-.464.62-.035.047-.537.718-.12.464-.175.167-.062.06.219.35-.18.51-.574.367-.722.203-.325.093-.322.092-.095.324-.112.383-.038.612.045.082.302.542-.134.418-.072.222-.026.081-.073 1.218-.513.283-.078.159-.087.174-.15.305.148.657.603.13.17.548-.303.3-.203.201.271 1.194-.068.614-.023.2-.443 1.033-.563 1.308-.787.955-.197.062-.622.197-.79.25-.089-.02-.951-.21-.274-.06-1.099-.518-.72-.045.002.83.002.764-.248.017-.08.005-.003-.078-.028-.762-.026-.717-.456.238-.117.06-.543.6-.585-.11-.496-.255-.117-.873-1.1.26-.525.124-.242.24-.024.48-.012.237-.465.667-.196.281.297.469-.091.104-.244.28-.005.005-.09 1.805.332.832-.482.439-.089.08.006.018.148.4.51 1.372.017.026.193.277.032.047.232.333.061.247.104.417 1.662.457-.564 1.572-.321.362-3.563 1.749-.244.304-.3-.122.107-.807-.093-.828-.005-.048-.48-.879-.118-.62-.352-1.85-.04-.272-.05-.338-.056-.385.065-.932.066-1.354.319-.607.106-.203.081-.212.367-.959.036-1.944.022-1.166.004-.194-.284-1.63-.392-.852-.399-.864-.38-.375-.511-.503-.23-.323-.674-.953-.308-.778-.158-.398-.727-1.839-1.203-1.228-.414-.742-.085-.323-.032-.122-.781-1.136-.735-.637-1.387-1.204-1.629-1.414-.007-.006-.691-.828-.167-.2-.047-.056-.048-.058-.064-.077-.002-.002-.08-.149-1.05-1.926-.533-.98-.03-.054-.546-1.479-.105-.416-.215-.856-.2-1.299-.041-.273-.018-.251-.104-1.428.2-1.208.002-.015.226-1.37.132-.801.01-.058.387-2.035.191-1.005.063-.33.04-.09.127-.288.034-.077.802-1.815.306-1.165.15-.92-.018-.278-.035-.539.16-1 .123-.762.032-.93.077-2.21.11-1.833.012-.21.01-.17 1.24-4.062.247.425.346 2.064-.277 1.493-.067 1.256.892.782-.21.298-.601.415-.02.049-.048.122-.205.516.559 1.588.091.13.205.29.116.81-.126 1.046.55.378.195.135.008-.033.052-.232.216-.96.366-1.112.064-.801.24-.238.023-.097.245-1.004.28-1.15.034-.139-.116-.647-.03-.16.305-1.016.036-.569.095-1.522.277-.329.024-.029-.032-.72.343-.91-.37-.091-.051-.013-.858.017-.368.007-.804-.513-1.192-.425-.908.121-1.475-1.39-.554-2.243.31-1.76 1.138 1.27.224.62.08.867-.123 1.257.543.508.442-.297.655.077.924.768.594.541.52.003.377.002.358-.058.788.059.079.006.002-.472.004-.663-.385-.66.931-1.07.044-.512-.117-.098-.484-.407-.01-.32.442-2.122-.43-1.316.067-.35.253-1.325-.279-.696-.042-.106.295-.494.035-.06-.083-.382-.225-1.027-.424-.128.163-.628-.026-.1-.057-.215-.509-1.07-1.042.094-1.06-.07.124-.582.889-.637.037-.027-.06-.092-.266-.402-.265-.404-.144-.692.072-.556.615-1.187.245-.473 1.331-.804.32-1.04.334-1.075.703-.113.795.215.011-.019.063-.106.37-.63.499-.846-.227-.152.899-1.163-.914-.427.006-.027.33-1.655.914.205.004-.005.416-.56-.152-.443-.083-.242-.721-.508.457-.357.714.063.447-.718.275-.67.082-.2.032-.076-.14-.892.002-.019.074-.542.176-.254.252-.364.032-.047.046-.066.135-.192.125-.178.045-.064.561-.798-.329-1.204.172-1.168.074-.501.171-1.161.1-.676 1.666-2.45.227-.334.075-.11.183-.477.033-.086.138-.36-.666-.146.033-.563.003-.05.63-.286.015-.03.1-.193.017-.033.339-.653v-.008l.066-.614.01-.098.303-.574.022-.041.002-.006.27-.746-.359-.553-.013-.357-.047-1.22.141-.83.547-.473.892-.234.14-.553.01-.04-.711-.151-.187-.195.43-1.025.364-.374 1.3-.735.41-.465.266-.304.114-.13.385-1.075.469-.996-.205-.86-.433-.14-.524-.17-.35-.16-.122-.97.776-.36.117-.055.098-.045.466-.13.256-.072.26-.783-.143-.497.57-.787.075-.618-.317-.133-.13-.325-.021-.056-.084-.213.12-.186.077-.117.12-.183-.046-.047-.421-.442-1.004.2 1.16-1.181-.102-.503.046-1.227.176-1.18.54-.28.55-.18.55-.18.269-.71-.488-1.001-.692-.734-.107-.114.186-.478.605.016.561.269.15-.68-.382-.772-.355-.8v-.016l-.002-.034-.052-.927.16-.07.162-.073.22-.098.051-.024.417-.827-.175-.681-.42-.235-.112-.063-.205-.592-.387-.899-.526-.376.005-.178.01-.376.229-1.664-.357-.292-.115-.094-.054-.297-.084-.466-.241-.072-.333-.098-.375-.933.071-.691.02-.196.179-.295.444-.205.15-.502-.56-.534-.649-.505.304-.878.497-.035.415-.265-.205-.414.03-.443.916.269.444-.471.416-.59.002-.797-.619-.298-.983-.105-.16-.3.378-.483-.117-.414-.907-.312-.006-.05-.058-.557-1.032-.329-.946-.176-.525-.894-1.179-.918-.976.082-1.016.018.017-.699.713-1.177.827-.203.447-1.061.736.357.62.002.474-.44-.447-.8-.52-.768-.003-.072-.038-1.26.177-1.556-.034-.858-.66-.479.725-.965.592-.647.06-.471-.44-.503-.382-.09-.272.582-.613-.497-.176-.266-.794-.298-.152-.616-.08-.328-.912-.446-.968-.917-.233-.65-.81-.61.268-1.571 1.113-.468-.214-1.193-.546-.64.358-.876.39-1.817 2.134-.585 1.247-.426.673-.492.673-.492.143-1.369-.02-1.475-.852-.685.429-.287.044-.505-.44-.031-.379-.23-.355-.214.65-.821.032-.794-.816-.305-.762-.43-1.853-2.486-.182-1-.043-.233-.85-.62-1.364-.515.016-1.131-.904-.598-.303.102-3.516 1.187-4.246 1.43-.646-.003 3.417-1.45 2.43-.94 1.69-.655.423-.185.624-.274-.91-.627-.117-.081-.029-.02-.428-.938.582-.973.144-1.775.594-1.03-.466-1.083-.26-1.117-.257-1.35-.11-.174-.152-.239-.908-.122-.732-.297-.763-.033-.646.055-1.292.257-.734.143-.115-.412 1.514-.607.073-.03 1-.434.18-.615-.556-.326-1.46-.49-1.032.3-.91-.034-.164-.453.288-.572.006-.968-.688-.016.105-.662-.523-.99 1.025-.436.311-.63.637-.28.739-1.14-.116-.622-.699-.65.342-.596-.122-.908.2-.48.054-.979-.412-.253.137-.583-.495-.618-.346-.792-.82.024-.238.614-.568-.073-.615.212-.268.278-.89-.55-2.056-.507-1.246.122-1.001.267-1.33-.337-2.445-.443-.567-.362-1.34-.359-1.209.256-.716-.001-.81-.001h-.063l-.102-.014-.265-.034-1.352-.173-1.263-.163-.186-.024-.375-.048-.071-.01-.596-.132-.021-.004-.803-.124-.672-.123-.379-.237-.47.142.019.773-.163.75-.443.843-.518.143-.772.24-.377.57-.034.497-.09.321.375.59-.237.261-.555-.122-.673.334-1 .497-.355-.147-.494-.444-.225.132-.07.041-.5.347-.016.145-.042.377-.007.064-.608.41-.413-.45-.167-1.29.15-1.017-.49-.246-.476.786-.428-1.523.313-1.612-.107-1.055-.108-.967-.722-1.002-.637-1.557-.856-1.782-.206-.975.147-1.163.748-1.361-.155-.698.225-.332.692-.879-.301-1.04-1.43-1.588-2.266-.36-.453-.915-.586.244-1.17-.756-.296-.551-1.236-.2-1.018-.735-.407-.086-1.457.557-.589-.401-.388-.266-.792-3.175.436-.322.671.066.24-.552.154-.728-.43-.677-.642-.007-.789.05.266-.319.47-.17.245-1.047.093-.466-.564-.316-.795-.41-.208-.86-.584-.742-.109-.645-.297-.327.119-.347-.318-.266-.587.285-.49-.473.226-.358-.055-.893-.348-.45.279-.661-.055-.894-1.084-.563-.123-.313.245-.606-.489-.754.101-.426-.523-1.031-1.283-.116-.219-.886-1.226-.818-2.101-.001-.77-.405-.336.165-.657.322-1.004-.176-1.322-.523h-.005l-.547-.004.144-.362.084-.211.237-.288-.23-.295-.295.195-.285-.59-1.024-1.658-.072-1.297-.873-.596-.996-.546-.972.155-1.058-1.445-1.233-.524-.794-1.495-1.66-.024-1.09-.53-.559-1.336-.54.068-1.443-.695-.146-.853.717-.415-.08-.495-.406-.458-.38-1.444.352-.96-.298-2.096-.49-.789.249-1.086-.18-1.44.24-.985.425-.749.294-1.683-.197-2.875-.306-1.046-.267-1.342-.63-.954-.36-.92.498-.107.267-.402-.103-.139-.181-.243-.456-.09-.474.192-.782-.07-.45-.776-.91-.349-1.023.017-.438.26-.871-.18-.359-.247-.015-.326-.663-.243-1.76-.792-.634-.1.04-1.452-.504-.255-.37-1.138-.582.073-.359-.29.702-.394-1.36-.168-.667.173-.373-.578-1.637-.684-1.148-.657-.817-.36-.663-.001-.162-.218.264-.362-.796-1.264-.738-.281-.085-.873-.263-.755-.343-.967-.88-.27-.813.553-.532.088-.166-.408.3-.603.533-.363-.277-.443-.405-.65-.267-.405-.263-.613.384-.187.377-.367.151-.665-.299-.68-.11-.502-.365-.26-.053-.434.39-.895-.19-.606.095-.404-.428-.355-.265.384-.224.01-.114-1.326-.857-.366.15-.364-.457-.47-.652-.053-.288-.453-.666-.359-.116-.74-.444-.898-.687-1.345-.373-1.47-.53-.373.076-.877-.172-.473-1.871-1.239-.01-.01-.753-.687-.276-.418-.77-.51-.346-.538-.669-.265-.216-.405-.012-.571-.183-.433-.419-.269-.557.168-1.014-.816-1.737-.796-.695-.57-1.243-.548-1.346-1.183-.479-.698-.364-.527-.372-.152-.394.436-.56-.328-.57-.415-.42-.57-.193-.466-.374-.066-.447.056-.205-.589-.605-.002-.193-.476-.758-.219-.476.087-.38.068-.83-.277-.62.111-.572-.742-.83-.336-.317.278-.804-.162-1.985-2.13-1.61-.973-.485-.444-1.333-.489-4.685-2.61-.07-.5-.742-.305-.65-.01-.73-.647-.254-.298.226-.418-.18-.302-.673-.548-.577-.108-.207-.598-.634.21-.077-.734-.721-.592-.23-.315-.946-.137-.233-.657-.48-.305-1.165-.109-.713-.662.3-.47.11-.487-.426-.385-.227.18-.131.103-.496.473-.65-.505.367-.855-.276-.467-.623-.419-.883.01-1.218-.862-1.508.1-.442.36-.32-.272-.688-.254-.635.093-.827.25-.273-.13-1.6.786-.861.423-.483.013-.805-.28-1.451.351-1.013.77-.607-.44-.191-.379-.52.067-1.336 1.027-2.654 1.371-1.288.146-1.358-.284-.632-.587.296-.707.594-.417.452-.76-.121-.674-.249-.055-.348.568-.99-.316-.652-.548-.984-2.048-.113-.084-.295-.216-.414.983.474 1.596.337.217.355.919-.37-.017-.234.466-.556-.039-1.302.077-1.09-.219-1.116-.066-.248-.65-.77-.424-.188-1.142-1.026-.535-.752.122-.203.476-.68.348-.403.73-.218 1.294.41 1.077-.082 1.03-.292.6-.512.474-.61-.142-.924.527-.42-.183-.56.119-2.055 1.051-.363.187-.99.781-.507.401-.585.3-.366.652.378.479-.46.354-.219-.41-.73.295.119.638-.328.532-.69.777-.365-.168.04-.374-.165-.265-.615.388-.577.963.267.551.321.967-.218.714.044.713.227.427.222.267.191.352.352.06.161.143.223-.195.338-.496.142-.124.23.007.164.308.239.566.105.497-.1.474-.117.236-.8.144-.29-.1-.374-.017-.802-.235-.224-.237-.872-.272-.383-.214-.63-.135-.563-.017-.063-.01-.252-.043-.793-.5-.324-.255-.544-.147-.401-.07-.773-.197-.406.074-.41.16-.388-.041-.911-.375-.298-.168-.432-.475-.186-.05-.177.11-.251.209.162.337.069.565-.13.443.454.343.002.002.01.275-.213.08-.306.54-.671.238-.07.387-.028.403.2.05.239.238.32-.09.246-.007.225.18.75-.005.352-.177.446-.39.242-.168.897.204.241.123.165.265.31.254.275-.02.633.063.347-.018.58-.069.621-.098.36.1.502.549.558.638.486.159.494-.1.397-.248.592.166.478.25.635.501.28.136.364-.086.313.188.24.565.257 1.81v.832l-.313 1.5-.418.87-.308.618-.366.433-.57.293-.322.052-.83-.074-1.002.105-.645.219-.669.072-.407-.057-2.894-1.144-.497-.116-1.727-.24-.224-.224-.955-.406-.9-.794-.328-.56-.6-.683-.19-.858-.133-.2-1.034.149-1.247.418-1.315.909-.448.194-.52.416-.418.449-.127-.091.042-.253-.205-.239-.467-.125-.279-.198-.63-.066-.537-.007-.327.145-.285-.028-.783.154-.837.216-.889.286-2.104 1.305-.331.205-.76.471-.803.497-1.155.472-2.008.896-1.19.638-.823.732-.413.367-.26.18-1.205.83-1.086.542-.35.466-.858.394-.572.368-.512.416-.082.067-.148.516-.12.536-.234.226-.303.324-.004.005-.128.027-.36.078-.03.006-.996.214-1.535-.358-.999.283-1.21.62-.627.417-1.297 1.025-1.325.871-.308.005-.494.23-.285.212-1.035.848-.697.662-.657.51-.366.077-.382-.12-.717.389-1.332.648-1.642.926-.873.638-.62.119-.55.23-.742.428-1.284.597-.871.07-.72.201-1.652.86-.916.301-1.292.584-1.691 1.139-.39.662-.1.48-.334.438-.011-.003-.565-.126.008-.28-.237-.422-.538-.444-.103-.27-.202-.333.187-.268.085-.324.42-.547.127-.165.763-1.512.146-.527.38-.806.162-.217.269-.188.338-.096.375-.5.774-1.157.01-.072.03-.216-.154-.527-.012-.42.269-.975h-.362l-.486-.177-.544.21.027.45-.072.345-.054.273.079.22-.297.177-.123.198-.348.001-.185-.08-.54-.053-1.228-.203-.683.335-.669.03-.192.878-.572.553-.873 1.61-.825.728-.552.76-.933.621-.097.065-2.17.655-.561 1.539-.079.216-1.027.784-.288.027-.28.026-.634.422-.814.321-.545.12-.787.014-.097.002-.126.27-.985.256-1.36-.424-.483.102-.448.346-.395-.008-.149-.354-.358-.263-.942-.366-.638-.075-2.27-.585-3.603-.112-2.428.304-3.915.903-1.025.309-1.325.255-.628.437-1.303.022-1.078.41-1.106.506-.97.126-.71.282-.08.142-.18.325-.212.38-.493.267-.427.398-.853.12-.506-.038-.61-.248-1.635-.484-2.047-.4-1.716-.16-.96-.035-.976.057-1.444.176-1.236.34-.963.421-.853.556-.468.35-.619.238-.618-.435-.614-.841-.35-.292-.295-.507-.857-1.592-.612-1.466-.698-1.9-1.17-3.932-.59-2.696-.52-2.786-.16-1.517-.249-1.065-.293-4.085.354-1.91.34-1.438.264-.95.376-.604.492-.627.739-.631.364-.055.28-.103.874-.465.283.143-.141.24-.54.266-.31.389-.226.401-.436.607-.193.402-.081.92-.13.482-.449.708-.21.597-.43.746-.291.662-.047.362.075.459.244.466.07.35-.068.334-.202.411-.183.71.013.889.132.558.173.44.137.575.1.931.22.85.246.341-.011.271-.316.51-.053.52.202.314.417.077.213.297.353 1.147.027.53.271 1.193-.038.466-.047.73.068.49.284.684.414.855.46 1.4.838 1.068.09.27-.02.548.25.548.468.12.196.564-.144.908.408.28.472-.152.223.199.428-.46.444.227.306-.336.345.074.19-.196.324.176.578-.04.385-.435.33.214.276-.059.302.193.717-.205.467-.705.127-.879.247-.946-.046-.853.664-1.904.17-.862-.24-.337.223-.609.043-.906.096-.492-.085-1.534.197-1.523.054-.16.176-.524.176-1.178.084-.86.08-.824.123-.503-.02-.164-.154-1.233-.332-.303-.086-.077-.264-.278-.332-.162-.271-.927-.058-.198.082-.56-.058-.604.043-.3-.316-.88-.053-.054-.039-.04-.083-.084-.013-.013-.69-.702-.076-.015-.496-.097-.306-.06-.422-.414-.087-.085-.695-1.245-.027-.214-.043-.342-.48-1.483-.217-.674-1.505-3.143-2.405-3.203-.457-.5-.012-.013-1.881-2.057-.883-.68-.925-.623-.938-.444-1.222-.256-.052-.026-.93-.456-.06-.02-.943-.335-1.263-.176-.668.083-1.231-.218-.774-.427-.647-.35-.334-.275-.728-.469-.735-.613-.727-.786-1.097-1.483-.58-1.125-.085-.322-.749-.917-.94-.262-1.02-.96-1.743-2.077-1.42-1.708-.793-1.07-.839-.806-1.32-.974-.748-.487-.423-.275-.035-.023-1.252-.73-.507-.292-2.465-1.422-3.579-1.986-1.916-1.18-2.066-1.699-1.345-1.212-.466-.547-.057-.066-1.284-1.429-.58-.645-1.016-1.012-.713-.711-.397-.395-.447-.446-.359-.357-.563-.448-.408-.324-.77-.612-.04-.03-1.119-.89-.596-.474-.664-.529-1.032-.746-1.31-.947-.785-.569-1.223-.886-2.107-1.525-1.336-.97-1.631-1.059-.04-.025-.33-.214-.018-.012-.717-.466-2.201-1.431-.093-.061-.158-.102-1.518-.91-1.418-.85-2.216-1.249-3.463-1.885-.453-.246-1.838-.9-3.508-1.721-5.235-2.572-.8-.34-3.221-1.373-2.192-.935-1.629-.695-3.795-1.622-1.437-.518-.58-.21-1.973-.825-.518-.21-1.953-.79-2.37-.904-1.954-.649-2.197-.714-1.811-.578-.367-.097-3.005-.8-1.073-.252-1.183-.278-.334-.079-1.982-.424-.833-.178h-.001l-1.131-.223-.035-.006-1.724-.34-1.3-.219-2.498-.421-2.561-.24-.672-.063-.379-.015-1.868-.075-.566.011-1.443.03-.08-.04-.587-.286-.268-.13-.717-.258-.717-.154-1.77-.33-.925-.117-1.28-.204-.472-.133-2.027-.412-.76-.025-1.173-.217-.752-.162-.591-.128-1.596-.262-.446-.073-2.223-.206-1.615-.079-2.934-.082-3.808-.085-3.082-.008-1.97.08-4.143.203-1.35.073-4.35.235-1.717.138-.035.003-1.366.137-1.716.172-4.101.444-1.171.136-4.103.476-6.447.856-5.204.698-5.491.835-7.558 1.068-4.434.301-1.715.116-2.462.11-2.864.045-2.521-.092-1.981-.77-.951-.705-.473-.381-.091-.309-.32.12-.85.316-.235.087-.003.216-.272.366-1.926.383-2.517.407-4.018.663-3.794.736-1.6.247-2.894.202-.286.02-1.398.22-2.033.254-1.299.24-1.001.127-2.194.277.01-.158.013-.19.009-.135 1.586-.32.67-.059 5.858-1.254.397-1.495-.67.072-.502.226-.414.037-.339.001-.342-.11-.868-.028-.742.206-.23.15-1.344-.136-.867-.372-.056-.024-.21-.241-.093-.511.022-.361.036-.6.201-.635.294-.448.328-.19.975-.189.02-.004 1.963.087 1.014-.125.292-.036.236-.08.386-.291 1.011-1.012.182-.288.034-1.963.064-.653.084-.3.311-.424.936-.752.427-.596.015-.18-.213-.661-.015-.267.092-.399.306-.39.15-.19.378-.194.362-.769.15-.217v-.001l.15-.22.438-.343.43-.092.42.02.707.223.514.069.504-.11.159-.034.217-.15.4-.487.4-.318 1.146-.316.255-.138.287-.155 1.39-.954.39-.378.082-.157.145-.278v-.536l-.164-.594-.226-.33-.874-.394-.338-.153-1.278-.31-.599.093-.355-.084-.554-.31-.346-.516-.805-.19-1.155-1.252-.484-.738-.054-.843-.107-.163-.355-.238-.094-.189.113-.183.247-.404.356-.839-.02-.658-.744-1.396-.156-.193-.421-.052-.171-.114-.325-.44.006-.203.065-.095.107-.123.162-.044.04-.132-.119-.76.016-.266.04-.674 1.577-2.96.062-.06.428-.059.468-.507.286-.804.335-.163.066.012.038.134.18-.018.285-.14.286-.603-.016-.238-.17-.231.025-.066.276-.314.22-.123.213.048.022-.052.014-.034.554-1.33.438-2.234.273-.462.42-.108.24-.15.269-.415.344-.888.004-.086-.154-.154.01-.114.153-.776.16-.241.104-.245.007-.051.048-.405.01-.08-.138-1.84-.104-.587.146-.315-.087-.551-.317-.425-.064.004-.513-1.362-.092-.731.09-.303-.034-.163-.659-.455-.789-.332-.602-.521-.597-.783-.674-.057-.432-.287-.032-.038-.238-.29-.134-.28-.643-.652-.233-.144-.687.26-1.084-.544-.155-.13-.28-.526-.466-.219-.545-.92-.005-.292-.15-.23-.672-.33-1.14-.35-.091.024-.112-.05-.445-.2-.285-.682-.704-1.064-1.363-.776-1.014-.805-.259-.898.05-.692-.058-.93-.054-.164-.56-.739-.414-.664.118-.281.09-.63-.75-1.119-.1-.104-.222-.043-.516-.506-.05-.256-.448-.593-.436-.432-.448-.238-.486-1.104-.55-.637-.684-.423-.743-.332-.696-.565-.085-.637-.191-.501-.232-.393-.604-.235-.565-.334.093-.318-.19-.479-.755-.81-.221-.127-.132-.215.143-.535.16-.332-.069-.392-.205-.436-.73-.863z"/></svg>