<svg height="1000" width="1000"><path class="americon" d="M234.915 413.706l.301-1.305.216-.425.557-.705.151-.446-.081-.382-.157-.735-.047-.783.086-1.055.408-1.475.05-1.26-.199-.451-.055-.343.105-.428.37-.774.324-.37.37-.274.118-.224.153-.287.797-1.503.092-.48-.055-.424-.272-.882.016-.909.064-.5.186-.576.1-.312.14-.429.231-.527.311-.707 2.014-3.99.316-.851.433-1.834.046-.199.633-1.328.753-1.03.608-.831.607-.905.216-.45.2-.221.735-.55.823-.375.484-.222.375-.257.62-.654.356-.376.503-.51.354-.139 2.078-.062.624-.145.28-.065.226-.053.847-.426.47-.329.225-.225.007-.007.13-.13.413-1.214.062-.353.025-.544.023-.486.033-.715-.122-1.097-.45-1.454-.01-.05-.202-.842-.159-.664-.021-.464-.035-.756.062-.59.242-1.023.256-.719.591-1.268.038-.08.792-1.7.079-.266.392-1.335.169-1.006.041-.509.015-.184-.03-.993-.297-1.317-.107-.473-.075-.192-.064-.162-1.036-1.828-.512-.904-.327-.471-.442-.378-.816-.283-.791-.413-.423-.414-.244-.616-.051-.828.09-.723.006-.017.159-.454.517-.798 1.774-1.488.819-.688.307-.258.762-1.353.638-1.028.68-1.096.66-1.063.674-.663.115-.114.698-.506.98-.496.205-.103 4.355-1.999 1.214-.268 2.73-.605 1.455-.227.082-.04.798-.4.278-.08.396-.113.674-.048 2.53.087 1.256.042 2.627.49.31-.033 1.104-.118.204-.124 3.46-2.104.639-.388 2.131-1.165 1.866-1.337.202-.252.218-.349.171-.523.636-2.682.408-.742.068-.123.166-1.054.008-.852-.294-1.919-.069-.187-.08-.219-.056-.557.224-.959.576-2.468.317-.906.365-.482.404-.533.598-1.024.275-.653.365-1.204.275-.906.008-.097.091-1.09-.07-.792-.024-.26-.287-.845-.27-.795-.062-.528.075-.555.063-.465.027-.078.449-1.3.072-.208.192-.287.203-.303 1.55-1.337.108-.093 1.375-1.41 1.102-.694.309-.342.849-1.688.405-1.028.365-.615.74-.858.304-.24 1.157-.63.056-.03.575-.583.21-.213 1.044-1.932.09-.167.194-.254.301-.397.793-.75.66-.483 1.69-.627.82-.547 1.322-.569.48-.409.329-.553.374-1.918.93-2.405.215-.555.057-.708-.076-.654-.265-1.324-.344-1.16.01-.528.376-1.075.037-.103.755-1.406.53-1.887.142-.913.005-1.246.22-1.213.096-.522.157-.86.01-.638-.116-1.723-.098-.615-.074-1.605-.394-1.454-.017-.062-.02-.355.211-1.973.024-.133.279-1.603-.037-.322-.528-1.028-.747-1.456-.447-.62-.61-.847-.574-1.801-1.263-2.162-.39-.882-.602-1.357-.358-.47-.289-.38-.364-.34-1.21-.65-.26.01-.374.013-.242.048-1.635.322-.357-.04-1.448-.486-1.61-3.37-.333-.606-.289-.526-.677-1.236-.856-1.318-1.034-1.265-1.423-1.434-.946-1.366-1.074-1.056-.102-.128-.235-.295-.153-.41-.01-.734-.009-.724.527-1.006.776-.99.45-.84 1.267-3.29.696-1.237 1.23-1.218.358-.621.248-1.319.274-3.353.003-.04.084-1.02.78-4.293.207-.644.082-.122 1.648-2.453.064-.096.085-.38.071-.961.085-1.142.166-.802.211-1.016.261-.528.11-.13.14-.168.535-.425.355-.24.306-.145.894-.421.833-.073 1.172-.102.307-.064.474-.098 2.688-1.219.644-.055.585.075 1.054.696 1.674.892.426.167 2.484.543.725-.224.644-.44 2.414-.865.114-.063 1.04-.57.091-.051.04-.026 1.379-.881 1.094-.785.52-.373 1.251-.728.504-.18.896-.181 1.157-.048 1.595.241 2.204.064 2.644.341.586.164.505.141.744.106 2.713.265 1.594-.04 1.777-.308.027-.004 2.81-.34 1.298-.286 1.213-.43.638-.228.946.05.341.018 1.32-.219.72-.47 1.298-1.366.995-.885.24-.135 1.554-.88 1.283-1.19.345-.32.027-.056.2-.41.302-1.51.892-.82.09-.05.447-.24 1.144-.36.054-.006.151-.019 1.175-.143.496-.19.122-.094 1.293-1 .165-.024 1.192-.168.58-.082.463.105.527.12 2.481.966.007.003 1.196.22.374.07.099-.001 1.251-.002.057-.006.141-.015 1.775-.187 1.641-.603 2.09-2.076.215-.323.672-1.006.587-.71.151-.183.7-.321.265-.182.08-.056.295-.203.307-.53.531-.917.367-.376.02-.02.906-.535.996-.587 2.106-.696.322-.068 1.786-.377.068-.015 1.018-.507.54-.269 1.102-.55.224-.467.064-.306.164-.792.05-.243-.1-2.153-.023-.494-.21-4.468.006-1.027.445-1.445.05-.162.41-1.332.003-.03.126-.964.199-1.528.086-.14.18-.29.29-.299 1.312-.944.334-.32.34-.526.169-.544.035-.263.063-.465.001-.859-.047-.331-.485-1.497-.016-.733.185-1.038.16-.902.593-1.325 1.02-1.295 2.862-2.647.222-.206 1.94-.763.594-.524 1.143-.662.124-.072.793-.517 2.552-1.662.68-.358.933-.32.129-.044 2.584-.887.763-.643.134-.382.047-.44-.104-1.787-.251-1.764.035-.532.057-.261v-.003l.197-.903.015-.054.052-.186.135-.246.167-.304.518-.945.267-.629.046-1.213.01-.256.04-.186.01-.047.1-.463.021-.1.2-.926.167-.318.305-.58.17-.323 1.047-2.375.401-1.267.053-.168.017-.482.036-1.025.229-2.234.035-.35-.126-.347-.282-.475-.233-.394-.46-.455-.388-.693-.04-.21-.085-.451.121-1.227.264-.854.98-1.947.093-.187.541-.558.124-.128.305-.508.043-1.142.698-1.308.089-1.216-.008-.06-.114-.895-.308-1.003-.524-.87-.06-.23-.06-.22-.066-.652-.139-.485-.08-.202-.321-.414-.561-.798-.567-.452-.125-.287-.075-1.489V100.879l-.037-.268-.273-1.941.006-.019.644-1.954.27-1.89.063-1.25-.03-.56-.039-.684-.117-.494-.476-.83-.084-.145-.42-.464-2.05-.073-.37-.066-.522-.256-.327-.159-.496-.474-.467-1.373-.107-1.078-.12-.607-.244-.603-.811-.693-1.001-.571-1.31-.93-1.87-1.046-.66-.072-1.682-.48-1.612-.76-1.71-1.29-.281-.211-1.04-.475-1.339-.613-.02-.02-1.258-1.221-1.22-.406-2.325-.403-.42-.367-.576-.505-1.224-.743-1.944-1.827-.44-.61-.012-.07-.113-.615-.57-1.044-1.186-1.442-.577-.547-.133-.127-.302-.394-.061-.08-.334-.917-.023-.115-.191-.973-.19-.477-.607-1.527.04-1 .018-.04.48-1.04.329-.429.05-.192.473-1.814.041-1.056-.076-.742.126-.26.373-.37.12-.227.037-.231-.065-.405-.221-.43-.075-.145-.28-.335-.489-.37-.467-.541-.158-.183-1.58-3.107-.296-.311-.783-.396-1.194-1.357-.26-.374-.338-.79-.306-.714-.425-.529-.037-.046-.383-.354-.35-.146-.554.002-.31-.11-.385-.335-.65-.903-.528-.537-.796-.55-.018-.013-1.303-.737-1.197-.57-2.535-1.207-.846-.526-.3-.53-.069-.29-.048-1.26-.184-.738-.57-.991-.329-.284-.336-.227-1.394-.492-.387-.205-.622-.33-1.946-.72-2.188-1.292-2.002-1.659-.26-.215-.444-.368-.871-1.126-.262-.86v-.936l.084-.412v-.004h.001l.926-1.045.757-1.716.47.022.521.025.625.03.59.027.884.042.387.014.192.007.29.01.106.005.062.002 2.388.09.552.02 2.46.09h.012l1.168.044.58-.017.783.015.055.003h.001l1.489.058.201.004 4.791.103.719.033.791.036.554.001 4.651.16h.02l1.31.044 2.518.082.52.007 2.442.031 1.38.017.334.007h.011l.643.024 6.656.07.591.005.185.003 3.628.06.436-.024.27.02 1.726.082.308-.024 3.38.021.26.005 1.845.036H415.005l2.12.002 2.64.065 4.799.115 1.102.026.245-.042.91.007 1.474.01.029.002 6.744.265.015.003.186.027 2.182.067.258.03 1.424.074.07-.004.544.028 1.786.093 1.308.068.03.001 1.094.006 2.39.013h.078l2.435.04 8.502.134 4.396.065.27.007h.708l1.682.037 1.313.018.144.001 2.188.015 1.024.007h.001l1.013.018 1.82.031 3.192.054.408-.012h.01l2.771.062 2.128.076.733.02.024.001 3.79.126 1.217.073.257-.01.177-.006.643.039 1.619.072.327.014.62.027 1.175.052.07.002 5.087.153 3.613.083h.075l1.024.02.08.002 3.52.073 1.368.028 2.317.047.153-.014.167.023.194.016.22.004 1.14.016 1.05.016h.002l4.36.04.028.003.522.043 8.707.214 3.478.105h.005l1.463.045.35-.017.116-.006 2.304.016.247.015 3.482.057 3.855.06.225-.015.955.012 3.355.041.593.007.554-.006h.05l.402.013 2.21.065h.013l2.386.03 1.036.012h.046l.41-.002.944-.004.422-.002.203-.001 1-.005.455-.002h.113l.668.003 1.273.006.763.003.768.003.017.002H560.407l1.02.001H561.489l.18.005.668.014.877.019.08.001 3.197.067 1.063.022.354.01 5.646.124 9.205.194 4.094.082 1.256-.016 1.371-.018 3.474-.15.08-.004 1.12-.05.67-.028 1.8-.08 4.506-.17 1.531-.058 2.429-.094 4.835-.041 1.21-.01 3.67-.035 1.182-.012 1.2-.012 4.136-.042 4.475-.02 1.134-.006 1.788-.024 1.835-.024 1.158-.016.512-.007.129-.002.527-.008 7.162-.116 1.959-.034.515-.008h.013l1.585-.028.422-.007.118-.002.522-.01.24-.004.823-.014.254-.005 2.16-.038.632-.011.314-.006.35-.006.356-.007h.003l.774-.062.45-.036 1.432-.114 1.502-.031.754-.016.994-.021.597-.013.242-.005.348-.009.113-.003.81-.02.79-.02.077-.001.119-.003h.03l1.239-.027.747-.015.658-.014 3.292-.071 1.438-.032 1.803-.04.705-.015.349-.008H671.183l.091-.001h.895l2.033-.003h.941l.988-.002 1.514-.003 5.746-.067 1.57-.019 2.32-.029 1.612-.02.92-.003 4.138-.015 2.107-.009.331-.001 1.34-.006.333-.002h.09l1.16-.005.188-.001 1.215-.006 1.196-.006.524-.003h.203l.151-.001 2.526-.014.411-.002.655-.004h.122l1.454-.01h.073l.139-.004.37 1.42.08.767.11 1.074.016.16.005.051-.065 1.27-.092 1.773-.033.644-.033.642-.007.135-.119.48-.149.603.01.526.046 2.484.018.675.013.469.068 2.47.032 1.19.007.235-.218.892-.02.077-.01.028-.082.214-.155.125-.29.871-.272.544-.318.816-.066.442-.025.424-.099.44-.48.024-.14-.185-.003-.228v-.055l-.055-.03-.03.001-.072.005-.06.054-.039.45.007.75v.017l-.219.243-.027.85-.035 1.133-.013.401-.02.64-.423 1.033-.135.502.015.235.032.504.127 1.106.09.843-.034.078-.13.298-.07.11-.057.09.01.3-.084.362-.133.57.012.073.11.646.066.387.105.62.03.177.18 1.057.392 2.31.07.176.164.417.527 1.336.426 1.08.598 2.009.384 1.289.007.021.47 1.15.011.03.107.261.065.16.245.6.21.515.31.759.193.473.191.333.226.393.01.016.702 1.222.034.06.362.629.139.242 1.15 2 .401.696.833 1.447 1.242 2.158.646 1.121.516.894.104.18 1.029 1.786.003.006.045.068.3.462.657 1.007 1.2 1.843.008.009.954 1.103.797.921.001.002.556.472.498.425.058.049.1.085.22.187.66.561 1.132.653.519.3-.1.457.332.665.838 1.683.265.531.143.895-.02.113-.043.24-.01.057-.077.434.123.864.041.289.173 1.213.111.781.392 1.032.019.048.212.559.131.345.136.356.138.364.033.086.363.716.089.174.106.458.015.063.07.302.049.302.052.334.048.301.06.378.02.129.016.098.012.073.006.04.05.318.002.005.032.204.044.137.004.013.026.08.1.312.08.248.017.054.23.716.02.065.037.116.118.244.446.93.072.075.142.146.042.043.572.59.85.13.126.301-.546.362-.003-.001-.226-.135-.46.108.108 1.139v.004l.017.17.438.848.025.05.448.866.07.136.003.014.195.896.003.011.135.622.004.02.223 1.08.268 1.297.004.021.055.266.725.55.097.073-.41.33-.054.043-.023.018-.107.087.032.157.08.388.013.061.027.132.005.022.046.225.012.057.034.084.05.124.05.124.015.035.037.01.18.043.172.042.121.211.13.228.185.322.297.52h.008l.271-.02.231-.452.965-.022.027.509-.926.047.034.598-.23.022-.02-.18-.207.012-.065.004.015.056.064.238.002.007.035.13v.007l-.013.475-.003.122-.003.13-.336.173-.079.04.011.249.057 1.281.01.233.022.496.124.03.172.04 1.013.243-.019 2.294-.491.232.05.34.113.774v.003l.047.118.157.4.233.594.47 1.196.046.118.248.632.154.224.971 1.406.63.91.008.014.798 1.155.003.019.01.073.027.203.003.022.04.295.002.01.04.3.416.306.143.105-.046.19-.005.023-.398.28.222.638.079.224.122.35.007.02.282.56.587.182-.086.08-.111.103-.203.187.799.86.048.048.034.032.351.34.455.438.04.402.026.275.012.011.243.234.163.158.074.071.054.053.098.094.606.266.275.121.448-.253.44.456-.417.385.146.47 1.536.612.262 2.578.002.017.685 1.455.033.96-.282 1.025-.14.328.48.318-.084.954v.008l.021.604.045 1.216v.029l.089 2.723.081 2.522.056 1.73v.017l.03.91.05 1.543.003.089v.42l.014.375.027.73.019.505.002.043v.013l.017.567.018.613.009.284.021.735.01.297.032 1.117.002.052.026.867.006.205.012.405.023.766.021.733.008.258.017.555.005.19.001.027.033 1.116v.006l.034 1.146.001.022-.03.692.01.284.008.261.03.96.008.217.002.056.004.142.002.058.097 2.987.004.243.02.937.018.893.064 3.125.015.715v.002l.016.774.038 1.85.03 1.471v.033l.03.902.056 1.788.003.075v.013l.056 1.704.043 1.334.048 1.475.004.107.147 4.527.077 2.366.024.748-.008 4.225.032 1.255.211 8.466v.021l.08 2.545.384 12.458.076 2.475.148 4.792.011.377.006.518.002.12-.005.108.031.927.024.8.047 1.615.09 3.07v.006l.143 4.56.038 1.232.33 10.534.093 2.41.006.038v.002l.041 1.295.016.495.292 9.275.039 1.24.137 4.344v.013l.03.913.061 1.838-.047.234v.01l.13 2.288-.015.156.098 2.485.072 1.804.012.435.16 5.834v.015l.115 4.122.07 2.585.131 4.726.06 2.173v.01l.232 7.935.2 6.834.207 7.103.148 5.034.054 1.862.015.517.143 4.891-.006.05.217 7.394.002.057.055 2.392v.047l.002.207.034 2.293.091 5.008.135 7.437.002.077.179 9.854.083 4.59.052 2.892.044 2.435.067 3.68.011.108.045 2.391.069 3.613.049 2.617.017.928.007.363v.003l.048 2.49.023 1.22v.008l.071 3.69v.035l.001.016-.023.64.012.259.072 1.66.032 1.276.031 1.271.002.075.061 2.425.062 2.476.13 5.125.2 8.01.001.041v.016l.062 1.954v.009l.005.377.025 1.76.005.241.027 1.426v.458l.021.67.066 2.551.033 1.256.008.302.161 6.255.12 4.649.001.021.156 5.058.158 5.132.065 2.11v.006l.047 1.2.039 1.31v.002l.073 2.477.28 8.713.096 2.963.026.789.013.4.066 2.054.163 5.055v.007l.13 3.21.01-.005.057 1.714.164 4.928.164 4.942.083 2.468.102 3.11.002.08.051 1.768.04 1.391.041 1.126.156 4.255.028.654.026.904.044 1.594v.002l.045 1.324.018.54.102 2.87.073 1.871.005.142.006.183v.001l.438 13.983-.047.882-.482.017-.414-.277-.744-.194-.612.617-.101.495-.125.612-.477.447-.503.204-2.672-.086-1.191.99-.203.169-.164.307-1.686 3.164-.268.517-1.969.905-.102.494.269.327.338.182.434-.157 1.314-.347.658.435.263.538-1.591 2.142.2 1.288.983.59.144.565-.548 1.596.138.232.024.04.89 1.508.516.516.57-.165.507-.843.72-.342.833.049.296.541-.082.614-.8.544-.18.55.575 1.945.224 2.022-.292 1.26-.697 1.005-.78 1.325-1.506.797-.382.378-.257.937-.773.333-1.01-.37-.241.216-.003.03-.099 1.06.1.699.197.459.002.003-.14.303-.595.195-1.05.099-.666.098-.325.302-.197.736.097.363.538.213.943.091.155.152.206.201-.122.401-.373.171-.376-.064-.424-.565-.633-.038-.359.491-.881.66-.192.503.026.64-.701 1.394.323.48.667.384.716.14.41.216.162.601-.007.315.173.07.384-.123.39.184.027.137.001.242-.127.285-.617.72-1.231-.317-.474.381-.184.582.028.073.228.59.557.367 1.177-.18 1.333.195.915-.055.684.014.49.377.086.726-.78 1.098.252 1.114 1.092.619 1.92.22.985 1.125 2.302 2.626-.234 1.79-.76.915.785 1.3.786 2.499-1.17 3.1.123.489.397.38.31.117 1.258.193.404.075.146.398-.187.466-.74-.02-.896-.368-.354-.039-.29.513.14.673 6.478 2.035.501.944.236.578.712.677.232.14.563.337.172.573-.168.669-.755 1.024-.238.205-.03.41.593.76.107.333-.176.6-.087.296-.016.904-.585.223-.431.112-.113.415.249.827-.14.557-.045.469.33.364 1.009-.057.142.263-.164.249-.41.066-1.058.172-.526.026-.142.264-.317.867.325.795-.328.34-.441-1.34-.56.226.005 1.058.606.368.606.872-.15.72-1.407.35.079.762.51.544-.105.79-.912-.184-.312.387.4.48 1.206.691.605.284.825.163.4.128.324.49v.919l-.055.845.387.965.257.412.092.671-.277.75-.334.31-.105.42.798.857.695 1.158 1.48 1.734.904.92.517.838.176.68-.338.705-.87.515-1.041.213-.36.31.037.456.331.272.51.024.753-.344.582.131.05.141.13.372-.046.475-.005.053-.416 1.246-.393.944.346.677.701.496-.04.254-.076.474-1.033.647-.061.25-.153.624-1.218 2.387-.29 3.314-.207.319-.986 1.527-.304.472-.562.346-.029.018-1.304.802-2.527.555-1.54.336-2.368 1.062-.852.878-.33 1.064-.05 1.07-.573.914-.478.2-.778.324-.365.471-.089.584.29.811.45.694-.151.886-.703.594-.043.31.346.733-.302.349-.52.446-.086.5.008.025.466 1.429.311.27.586.012.426-.024.29.084.198.354-.018.424-.167.417-.956.258-.739-.018-.43-.232-.673-.62-.628-.13-.02.03-.314.473.057.8.04.545.25.714-.185.639-.446.337-.578.156-.39.256-.172.332-.147.645.371 1.034-.055.379-.757.472-.117.065-1.087.606-.397.392-.207.439.13.6 1.162 1.628.23.934.525.937.785.606.537.415-.244 1.57-.992.747-1.21-.695-.83-.224-.993 1.601-1.956 1.853-2.785 1.487-2.258.261-.546.04-.995.072-1.361 1.283-.396.902-.076.173-.033.59-.03.53.604.46.963.17 1.835.616.208 1.357-1.367 1.306-.313 3.203-.044.455-.094.955-.631.937-.37.547-.535.793-.364.539-.44.652-2.201 3.258-3.506 1.422-.093.123-.278.363-1.818 2.38-.06.183-1.204 3.671.177 3.048-.196 2.886-.65 1.453-1.622 1.289-1.313-.51-.69-1.342.057-1.614.55-1.744-1.398-1.153-1.27 1.22-.36 2.098-.612 1.401-.52.574-.933 1.028-1.294 1.361-1.01-.055-.484-.799.73-1.89.757-1.52-.788-.906-1.271-.09-1.877 1.116-.537 2.217-1.47 1.165.136.866.34.796.474.27.472.37-.121.438-.404.437-1.357.667-.303.683.105 1.124-.301.724-.549.155-.642-.175-.24-.56.083-.471-.777-1.143-.895-1.09-.392-.253-.394.108-.012.081-.038.249.635.929.158.23.408 1.404-.192 1.103-.322.677-.154.32-.07 1.05.126 1.202.102.965 1.193 2.077 2.276 2.284 2.628 1.585.566.602.394 1.207-.182.978.14.392.42.01.649-.448.243-.558-.207-.767.068-.669.314-.523.305-.078.216-.055.465.105.435.434.28.715-.09.846-.497.697-.223.165-.913.672-.305.043-.316.358.194.292.202.504-.139.647-.374.324-.774.243-.462.663-.24.345-.658 1.247-.275-.099-.452-.514-.406-.309-.311-.136-.626.153-.524-.083-.554.2-.385.597-.38 1.083-.095 2.073-1.7.502-1.436-.161-2.476 1.468-.056 1.445.835 1.255 1.04.091 2.468-1.148 3.393-1.594.28 1.792.133.855-1.213 2.925-2.9 2.064-2.062.815-3.184-.103-.865.124-.926.556-.247.904.097.73.026.193.014.104.823.764 1.085.169 1.37-.55.756.14.39.234.243.568-.508.544-.745.37-.51.895-.187.327-.302 1.13-.157.591 1.927 5.205-.01 1.829-.733 1.585-1.331-.127-1.17.306.144 2.44.744 2.393-1.545.804-1.44-1.02-.784-.41-1.24.5-.157 1.237.714.774 4.25.768.875-.382.792.085.412 1.065.037 1.095.632 1.507-.156.249-.355.564-1.03.106-1.548-.649-2.833.25-2.044-.677-1.597-1.327-1.205-.375-.837.347.114 1.484.704.77.04.044 1.869 1.98 1.944 4.475 2.288 1.581 2.374.405.607.803.037 1.205-1.339 1.147-2.056.225-1.618-.27-2.196-1.196-1.442.96.038 1.544 1.802 1.948.116.126 1.964.666 3.039-1.659 1.366.535.302 1.261-.595.512-.45.783-.377 1.333-.167 1.458-.078.676-.22.87-.103.245-.86 2.046-1.286 2.025-.566.702-1.184.958-1.283.53-.541.325-1.34.965-.82.917-.715.384-1.465.61-.626.517-.352.458-.639 1.15-.335.603-.077.307-.171.682-.445.466-1.063 1.115-.832 1.322-.87 1.857-.152.473-.099.743.028.568.214.909.066 1.594.237 1.242.604 1.728 1.51 3.3.218.795.086.678-.084.77.148.766.548 1.066.4 1.041.003.007.249.216 1.413.81 1.015 1.023 1.187.989.043.036.626.834 1.198 2.017.675.774.26.158 1.135.354.814.542.46.607.823 1.65.11.38-.016.95.216.483.008.017-.143 1.623-.2.692-.144.456-.169.282-.182.346-.2.123-.302-.127-.274.12.01.294-.143.41-.283.257-.402.702-.29.503-.474.268-.533-.005-.13-.069-.369-.275-.994.034-1.328.237-2.57.376-.644-.17-.348-.007-2.37.688-.652.19-.405.053-1.628.216-.482.327-1.842.365-2.532.344-2.013.43-.486.103-1.768.133-2.414.052-3.657.787-2.223 1.047-2.03 1.12-.273.317-.4.465-.152.08-.353.185-1.292.962-.35.374-.228.322-.99 1.394-.849 1.196-1.376 1.046-.01.008-.292.234-.126.102-.54.23-.8-.175-.314-.277-.578-.95-1.428-1.141-1.235-.805-.12-.077-.948-.424-.652-.178-.594.14-.244.143-.511.3-1.019.46-.996.236-.85.318-1.486.842-.807.576-1.35 1.405-.596.758-.863 1.65-.24 2.07-.205.786-.121.47-.15.575-.017.61-.03 1.087-.01.07-.028.192-.198 1.368-.332 1.055-.457.803-.516 1.292-.872 1.737-.606 1.75-.487.795-.385.849-.424 1.33-.162 1.21.907 1.852.383 1.175-.322.796.184.325 1.025 1.156 1.181.884.721.755.327.574.758 1.945.221.41.912 1.23.672.538 1.154.596 1.146 1.12.411.611.845 2.526.356 1.273.248.3.638 2.467-.041.316.33.656.224.283.255.156.529.926-.027.256-.02.187-1.328 4.132-.154.242-1.039 2.794.002.119.113.116-.238 1.623-1.302 2.926-.645 1.449-2.39 1.009-.938.206-1.01-.12-.03.007-1.975.476-1.387.023-.991-.05-1.422-.264-1.488-.455-2.51-1.043-.695-.213-.147.364-1.014-.83-.324-1.408-.196-.296-.635-.622-.488-.478-.627-.615-.663-.362-.936-.846-.084-.075-.625-.422-.824-.555-1.4-.796-.631-.36-.205-.08v-.001l-.457-.182-.026-.001-1.004-.042-.966-.26-4.411-2.079-1.276-.602-.333-.157-.87-.303-1.2-.25-1.549.234-.915.138-.046-.01-.404-.083-.47-.183-.744-.29-.234-.126-.566-.306-.018-.01-.316-.241-.318-.244-.403-.31-.106-.08-.255-.14-.727-.401-1.726-1.38-1.487-1.06-.496-.648-.595-.599-.457-.46-.382-.284-1.08-.803-1.17-.646-2.126-.617-.098-.037-1.218-.454-.658-.246-.709-.336-1.388-.657-2.726-1.292-4.653-1.652-1.97-.864-.55-.08-.996-.32-.52-.168-.154.42-.076.003-2.354.07-2.371-.356-.707-.236-.328-.244-1.191.183-1.265.39-1.2.37-1.052.672.363-.11-1.123.899-2.225.873-1.054 1.265-.515.186-.342.363-1.991 2.114-.656.622-1.876 1.773-1.255 1.463-.18.208-.096.174-.795 1.433-.391 1.06-.127.735-.092.255-.238.662-1.69 3.842-.612.574-.682.403-.08.14-.137.237-.426.443-1.377.972-.128.19-.332.927-.431.534-.737.553-.448.155-.21-.115-.42.26-.028.017-1.75 2.376-.148.2-.53 1.058-.537 1.073-.511 1.588-.278 1.176-.159 1.584.233 1.829.028.112.174.685.06.24.755 1.67.347.585.083.105.317.403.255.322.81.576 1.756 1.478 1.361 1.144.807.506-1.139.49-.462.05-.809.263-1.665.856-1.155.434-1.013-.103-1.158-.461-.926-1.137-.413-1.714.002-1.804-.205-.866-.28-1.182-.323-.779-.594-.68-1.628-1.101-1.234-.835-1.2-1.088-.586-.979-1.033-2.618-1.296-2.496-.057.112-.645 1.28-.636-.132-2.223-.075-.435-.103-.028-.162-1.447-.11-1.915-.408-.08.225-.357 1.835.197.724.28.586.369.504.472.453 1.424.805 1.885.752 1.598 1.31.878.947.334 1.367-.832 2.708-.381.657-.466.509-.65.509-.622.319-1.89-.62-2.869-2.963-.632-.654-.813-.585-1.145-.677-2.074-.985-2.294-.82-2.218-1.664-.469-.598-.319-.603-.103-.318-.101-1.206.036-.46.018-.045.87-2.187.323-1.256.128-.496.016-.952-.427-1.518-.76-1.524-.538-.74-.314-.274-.435-.38-1.955-1.428-.595-.563-.382-.447-.1-.15-1.442-2.167-1.333-2.433-.422-1.612-.01-.02-2.178-4.16-.034-.064-.13-.25-.115-.217-.188-.475-.605-1.524-.11-.672-.679-2.603.022-.638.215-.537.117-.291.965-2.408.046-.264.022-.125-.054-.783-.062-.218-.018-.062-.258-.336-.274-.167-1.094-.327-1.209.048-1.328.263-.165.033-.895-1.258-.819-.925-.618-.844-.984-1.515-.43-.834-.179-.627-.003-.675.07-.33.03-.14.275-.579.064-.274.098-.418.083-.778.275-1.083.038-.148.181-.36.12-.24.214-.243 1.27-1.013.549-.575.558-1.145.262-.299.025-.03.019-.02.429-.253.24-.142 1.342-.434 2.76-.182.997-.203 1.604-.687.448-.455.434-.855.043-.143.176-.59.872-4.257.141-1.247-.034-.771-.155-.884-.29-1.107-.185-.702-1.122-3.39-.774-1.812-.513-.864-.297-.4-.734-.991-.497-.513-2.294-2.366-.595-.861-.905-1.58-1.364-2.382-.77-1.914-.345-1.4-.367-.86-.623-1.13-.678-.961-.555-1.007-.081-.3-.543-2.888-.108-1.21.033-.955.035-1.036.041-1.19.067-.38.14-.277.453-.304.36-.052.607.12 2.138.715 1.105-.123.686-.366.496-.505.213-.757.016-.483-.078-.446-.257-.58-1.015-1.45-2.208-2.428-.078-.087-.566-.622-.54-1.172-.703-.822-.281-.833.083-.448.178-.307v-.915l-.123-.923.106-2.07.315-1.498.264-.767.01-.791-.306-.769-.326-.487-.006-.01-.722-.65-.52-.346-.783-.335-.996-.131-3.86-1.094-.937-.334-1.345-.74-.105-.146-.427-.598-.554-1.065-.716-1.623-.603-.479-.197-.155-.87-.563-.513-.065-.093-.089-.332-.317-.08-.337.04-.68-.061-.171-.122-.098-.93.098-.55.167-.741.404-1.66-.07-.566.102-1.226-.396-.671-.413-.3-.359-.065-.258-.26-1.031.216-.82.329-.748.3-.91.115-.344.14-.922-.013-.916-.127-.334-.362-.455-.765-1.594-.649-.54-.439-.365-.717-.48-.508-.314-1.367-.843-.86-.439-.083-.065-1.915-1.505-1.627-1.644-.449-.6-.5-.873-.466-.603-1.372-.023h-.014l-.57.103-.446-.223-.63-.536-.442-.2-1.248-.072-.755-.317-.301-.211-.602.578-1-.937-.32-.43-.57-1.593.077-.476.302-.49-.04-.95-.173-.325-.626-.262-1.328-.837-3.074-2.486-.127-.087-.744-.514-.163-.038-.13-.03-.862.266-1.648 1.211-.561.582-.753.99-.588.773-.678.635-2.19 1.362-.627.303-1.577.01-1.353-.196-1.94-.726-.11-.074-.165-.111-1.523-1.028-.257-.298-.149-.326-1.423-3.128-.98-2.155-.267-.42-.075-.273-.078-1.305.91-.811.843-.494.374-1.01h1.676l1.316-1.001.752-.217.985-1.14.083-.293-.026-.695-.002-.035-1.196.137-.285-.08-.14-.256-.101-.689-.556-.853-.03-.046-1.763.58-3.3.624-.771.068-.24.021-1.479-.2-.409-.238-1.115-.993-1.184-1.615-2.046-2.792-1.183-.555-.652-.306-.434-.296-.303-.33-.202-.406-.084-.442-.244-.614-.25-.422-.257-.19-.027-.02-.773-.243-.99-.038-1.192.254-.998-.075-.75-.37-.093-.065-2.173-1.487-.464-.456-.465-.456-1.174-1.582-.048-.57.103-1.143-.041-.753-.227-.828-.352-.474-1.862-1.193-1.893-1.024-.414-.035-.254.09-1.219.797-4.652-3.267-.06-.042-1.562-1.099-3.274-3.239-.915-2.167-.315-.443-.024-.043-.408-.727-2.53-4.502-1.09-1.207-1.026-1.062-1.31-.858-1.37-.605-.844-.17-.744-.386-1.233-1.064-.36-.415-2.59-4.204-.2-.43-.047-.1-.05-.108-.435-1.228-.552-2.063-.325-2.098-.045-.285-.08-1-.065-.337-.123-.653-.196-1.035-.109-1.126-.16-.879-.05-.28-.04-.22.02-.758.017-.574.024-.851.322-1.71-.038-3.237-.001-.056.269-1.761.377-1.153 1.69-3.446.198-.617.757-2.352.262-.375.245-.35.369-.54.05-.074.328-.349 1.316-1.401.17-.182.213-.226.854-.606.012-.013 1.315-1.492 2.17-2.463.25-.284.922-2.007.18-.305.325-.55.188-1.312.219-1.115.297-1.52.207-1.055.302-.783.169-.436.158-1.156.02-.064.5-1.621.197-.922.175-.818.725-2.477.013-.035.006-.017.1-.268.38-1.02.356-.624 1.048-1.844.192-.337.83-1.248.38-.573.3-.452 1.858-2.797.068-.103.153-.126.136-.111.121-.064.442-.23.173-.09.909-.882.626-.477.128-.098.287-.219.119-.13.777-.856.581-.767.725-1.527.229-.482.07-.15.303-1.112.52-1.915.123-.792v-.002l.056-1.287.011-.248.001-.017-.082-.585-.318-2.272-.007-.052-.006-.034-.02-.11-.152-.826-.007-.035-.362-1.224-.12-.408-.05-.096-1.097-2.136-.022-.024-.08-.089-.228-.256-.595-.666-.006-.011-.908-1.612-.348-1.56.033-1.07.078-.585.033-.125.183-.683.652-1.04 1.905-1.83 1.048-.638.027-.016.979-1.294.14-.786.039-.212.052-.107.478-.971.655-1.006.023-.035 2.68-1.748 3.216-2.533.748-1.316.43-1.597.674-3.182.142-.668-.023-1.052-.51-1.001-1.023-.637-1.442-.899-.416-.26-.976-.607-1.216-.759-1.972-1.62-2.723-1.548-.453-.215-.656-.098-.319-.16-1.528-1.64-.565-.606-1.255-1.218-.967-.617-1.51-.712-1.131-.8-.504-.206-.395-.055-.779.057-.942-.399-.794-.172-.22-.048-.835-.073-1.482.054-.53.019-.992-.042-.446-.112-1.074-.675-.8-.316-.079-.032-1.24-.656-1.704-1.293-2.015-1.09-.43-.232-2.415-1.307-.35-.171-1.332-.654-1.403-.464-.9-.154-1.553-.112-1.201-.327-.84-.335-1.434-.101h-.002l-1.566.557-.73.416-.592.498-1.436 2.444-.133.398-.022.292.075.988-.604 1.49-1.824 2.642-1.014 1.293-1.292.65-1.946 1.977-1.782 2.03-.251.174-1.332.523-1.205.246-.26.053-1.366.054-.892-.142-.37-.253-1.209-.825-3.932-2.445-.438-.522-.939-2.149-.52-.76-1.064-.689-.675-.713-.53-.725-.534-.828-.25-.532-.266-1.065v-.003l-.427-2.42-.331-.719-.288-.974-.217-.735-.045-.634.006-.248.08-2.9-.205-1.34-.34-.843-.146-.364-.21-.224-.166-.3-.35-.631-.136-.343-.119-.725-.018-.11-.3-.78-1.038-2.167-.912-2.295-.473-.794-.24-1.242.014-.273.146-.254 1.43-1.425.134-.747.012-.067.003-.015.108-.234 2.437-2.785.108-.293.17-1.806-.399-2.243-.086-.34-.099-.391-.204-.375-.927-1.702-.709-1.01-.312-.577-.28-.765-.328-1.335-.145-.735-.025-3.064-.054-.593-.476-1.55-.177-1.065-.17-1.027.022-.923.119-.673.028-.634-.053-.603-.137-.417-.443-1.351.04-.362.075-.678-.042-.44-.22-1.115-.41-2.072-.374-.821-.518-.565-.666-.499-1.291-.42-.356-.234-2.062-2.565-.778-1.829-.226-.396-1.057-.777-.886-1.012-.115-.699-.014-.029-.209-.414-.763-.638-2.287-1.339-.576-.56-2.41-2.952-.957-.858-1.509-1.092-1.21-.771-2.92-1.863-.384-.245-.812-.885-.323-.527-.022-.373-.25-.328-.408-.254-.622-.159-.254-.065-.507-.197-.322-.126-.472-.263-.537-.43-.673-.808-.2-.899-.127-.374-.078-.228-.203-.34-.224-.22-.978-.634-.184-.045-1.022-.25-1.311-.548-.648-.397-.66-.733-.703-.395-1.413-.474-1.285-.838-1.066-.903-1.509-1.084-.093-.086-.411-.378-.316-.29-.71-.654-.355-.326-1.152-1.478-.004-.006-.376-.482-.346-.444-.806-1.183-.363-.914-.047-1.24-.085-2.284-1.407-1.454-.39-.595-.172-.261-.807-1.642-.798-2.107-.665-1.18-.262-.467-1.834-.475-.208-.031-1.414-.218-2.835-.711-.122-.078-.57-.366-.628-.845-.63-.968-.371-.694-.223-.418-.157-.798-.165-2.121-.28-1.737-.048-.23-.413-.852-.49-.785-.51-.437-3.988-1.858-.866-.456-.77-.585-1.51-1.633-.29-.524-.283-.738-.355-.624-.978-.954-.51-.496-.695-1.244-.083-.15-1.179-1.545-.918-.784-1.347-.843-1.113-.875-.349-.754-.17-.165-1.414-1.374-1.65-1.32-.112-.09-1.743-1.602-.452-.501-.488-.541-.16-.207-1.721-2.22-.01-.021-.264-.588.091-2.138.394-1.498.192-.347.14-.468-.062-1.07.073-1.308.021-.39.141-.761.263-.566.182-.39.04-.421-.211-.908-.543-1.32-.122-.203-.764-1.279-.355-.426-.994-.771-1.547-1.014-1.062-.957-1.063-.642-1.914-1.413-.427-.488-.376-.863-.096-.346-.045-.163-.012-.046-.351-1.277-.68-2.47-.139-1.297.156-.863.52-1.782 2.002-2.337.163-.174.942-1.002.142-.279.179-.949-.035-.956-.083-.263-.204-.647-.01-.018-.27-.466-.204-.354-.408-.525-.809-.807-.203-.203-.551-.856-.686-1.429-.296-.998-.591-1.054-.496-1.337-.083-.153-.529-.355-.198-.375-.156-.563-.057-.579-.222-.811-.956-2.373-.812-1.798-.402-.677-.084-.217-.008-.022-.596-1.541-.201-.519.835-3.547-.164-.584-.492-1.75-.208-1.05-.04-.207-.323-2.18-.26-1.385-.295-1.567-.125-.907-.125-.907-.075-.545-.086-.934-.01-.114-.036-2.24-.016-1.02.036-.37.475-1.183.022-.227-.395-2.195-.089-1.384z"/></svg>