<svg height="1000" width="1000"><path class="americon" d="M45.612 686.648l1.037-2.155.346-1.494.073-.696.127-.497 1.924-3.631.351-1.16.522-2.632.272-.888.136-.282.616-.76.733-.612 1.173-.447 1.63-.285 1.234-.11.81.066.108.009.998 1.192.542.815 1.318 2.608.748 1.69 1.798 2.65.839 1.051.432.42.973.66.209.047 2.76-.103 1.187-.319.95-.706.365-.27.532-.587 1.609-3.265.393-2.584.303-1.155.221-.501.719-1.061.657-.76.594-.522 1.139-.822.008-.008 1.246-1.298.123-.128.76-.926-1.152-.95-.39-.126.326-.303.227-.55.071-1.146-.153-.54-.612-.84-1.116-1.22-1.35-1.787-.388-.66-.113-.651.021-.884.248-1.31.305-.795.868-1.167.95-.943.65-.347.59-.19.016-.006.737-.237.28-.007 1.2.658.66-.002 1.173.22.815.592.64.083.534.031.497-.455.457-.748.412-1.19.113-.757-.064-.504-.382-1.041-.347-.524-.006-.009-.65-.415-.531-.123-1.376-.113-1.454-.22-.605-.322-.9-.792-.3-.421-.437-.933-.137-.292-.122-.26-.138-.426-.028-.471.12-.563.12-2.318.126-.497.135-.178.513-.597.395-.242.456-.127.922.066.276-.106.512-.483.736-.036 1.216.05.86-1.524.809-2.243.254-.422.378-.627.342-.567.328-.694 1.366-5.04 1.104-2.92.221-.74.001-.005.384-2.146.017-.554-.016-.195-.024-.302-.356-.832-.754-1.127-.65-.635-.391-.268-.827-.31-.476.005-.487.134-.687-.5-1.14-1.1-1.472-1.422-.686-.562-.206-.302-.258-.377-.067-.1-.273-.541-.569-1.53-.04-.219-.112-.619-.018-.101-.096-1.642.238-1.398.319-1.03.552-1.38.543-.922.536-.909.144-.169 1.702-2.006.025-.013.39-.206.18.115.407-.111.69-.447.416-.448.352-.805.125-.16 1.284-.78.406-.37.136-.202.08-.119.631-.317.58-.473 1.738-3.315.253-.574.097-.221.157-.646.413-.92.795-1.225.096-.149.172-.174 1.207-1.225 1.776-1.463.622-.512 1.9-1.76.326-.302.47-.133 1.015-1.062 2.032-.64 1.055-.73-.33.074.977-.534 1.09-.255 1.15-.27 1.07-.09.277.238.614.253 2.088.461 2.098.082.068.002.162-.364.453.18.867.346.485.105 1.698.89 4.04 1.754 2.345 1.316 1.195.67.61.342.57.259 1.055.479.086.038 1.854.68 1 .646.912.78.323.277.378.437.493.569.401.606 1.258 1.034 1.451 1.334.622.4.219.142.088.078.34.3.268.236.266.235.015.01.486.306.2.126.644.304.407.192.354.099.04.011.824-.067 1.392-.114 1.051.296.756.324.287.16 1.098.614 3.796 2.12.844.29.89.1.024.002.394.19.178.085.54.358 1.196.794.699.545.53.413.07.072.781.81.568.363.52.585.405.456.526.592.156.275.202 1.273.852.8.152-.314.605.232 2.17 1.082 1.295.496 1.249.323.878.105 1.236.065 1.786-.302.026-.005.892.17.848-.127 2.188-.75.662-1.25 1.338-2.523.312-1.429-.094-.11.006-.106 1.096-2.422.152-.206 1.436-3.594.029-.165.04-.227-.414-.856-.217-.155-.183-.265-.253-.604.057-.278-.417-2.234-.202-.283-.238-1.154-.597-2.3-.328-.568-.95-1.067-.99-.601-.566-.52-.736-1.151-.172-.378-.554-1.777-.256-.53-.595-.717-.996-.859-.841-1.091-.145-.3.336-.69-.269-1.068-.693-1.703.219-1.067.459-1.158.394-.732.482-.677.647-1.52.883-1.492.538-1.118.456-.686.36-.919.26-1.205.037-.169.013-.062.094-.965.052-.542.168-.502.137-.41.23-.687.342-1.827.869-1.416.576-.638 1.288-1.168.754-.463 1.374-.657.775-.231.901-.15.935-.345.473-.236.226-.113.538-.088.57.198.817.436.1.076 1.051.792 1.2 1.104.456.88.263.266.7.204.495-.17.12-.084.273-.19.01-.006 1.288-.847.83-1.012.966-1.18.223-.273.334-.31 1.209-.777.326-.144.14-.061.384-.39.263-.265 1.875-.872 2.042-.795 3.304-.475 2.15.101 1.583-.009.438-.062 1.818-.258 2.275-.151 1.661-.211.45-.262 1.462-.092.363-.023.592-.128 2.152-.466.31.026.562.192 2.31-.176 1.197-.13.887.031.31.268.113.069.474.037.439-.21.288-.429.401-.6.268-.21.152-.357.01-.263.25-.089.261.131.186-.097.184-.296.167-.241.156-.397.221-.603.227-1.436-.005-.015-.163-.444.073-.845-.075-.345-.632-1.519-.37-.568-.692-.533-.989-.384-.221-.158-.553-.73-.942-1.869-.507-.78-.036-.035-.995-.953-.84-.973-1.208-.809-.208-.207-.002-.006-.293-.952-.422-.982-.084-.692.122-.679-.035-.608-.146-.721-1.14-3.031-.431-1.575-.135-1.12.039-1.423-.135-.822.01-.507.134-.656.164-.412.889-1.599.822-1.125 1.015-.928.424-.387.195-.597.087-.268.335-.516.64-.985.342-.386.588-.422 1.342-.453.66-.297.787-.766 1.251-.776.502-.256 1.174-.394 1.113-.78.547-.59 1.27-1.723.892-1.769.107-.212.249-.76.11-.598.239-1.287.417-1.164.449-.67.562-.418.875-.298.725-.046 1.266.337.914.428.477.32.225.277.478.31.34.078.95.635.538.548.169.442 1.192 1.398.902.273.495-.071.27-.164.252-.265.495-1.17.321-.76.349-.263.158-.323-.005-.528.31-.367.63-.31 1.046-.306 1.009-.425.542-.358.306-.749.134-.808-.346-3.101-.265-.915-.521-.988-1.456-1.48-1.027-1.481-.213-.432-.198-.692-.095-.645.052-.646.126-.667.23-.476.15-.193.057-.075.603-.708.56-.534.088-.117.698-.928 1.97-2.28.225-.262.84-.369.454-.022.233-.011.487.137.62.176.718.374.564.497.812.96.28.51.47 1.431.167.339 1.374 1.226.103.176.337.693-.02.666.044.168.36.413.5.402.4.144 1.81.215.943.112 1.57.056.528-.045.078-.015.478-.092.347-.172 1.346-.996.258-.255 1.101-.674.782-.133 1.95-.332.836.083.664.23.503.175.697-.05.902-.168 1.216-.473.029-.014 1.544-.728.46-.118.075-.019.45.054.554.232.508.399.585.6.163.36.148 1.076-.045.387-.243.71-.42.759-.288.4-.312.52-.288.372-.828 1.524-.094 1.473.11.905.157.675.418.73.368.42.71.29 1.381.278 1.141.068 1.043-.103.13-.013.066-.007 1.336-.266 1.197-.401.049-.036.327-.239.67-.65.075-.07.908-1.257 1.054-1.458.333-.6.033-.06.019-.257.067-.953-.167-1.768-.092-.966-.013-.136-.645-.834-.573-.54-.778-.508-1.392-1.32-.345-.608-.329-.85-.23-.835.036-.49.38-.178.36-.253.09-.183.362-.731.211-.728-.007-.232.866-.707.027-.035.567-.724.388-1.428-.192-.396.023-.574.094-.28.101-.302.316-.546.085-.048.503-.285.47-.137.38-.016.233.056.24.057.575.333.38.31.367.605.008.051.12.746-.156 1.205.145.723.006.033.001.003.079.395.405.985.29.523.756 1.084.951.927.33.234.033.022.278.197 1.72 1.056 1.353.625 1.038 1.002.493-.028.269-.118.523-.23 1.357-1.115.518-.53.67-.508 1.958-1.484 1.797-1.08.09-.054.332-.139 1.346-.223 1.024-.058.648.028.566.024.535.127 1.17.278.232.054.174.168 1.199.46 1.327.507.888.557.047.029.047.054-.089.175.044.084 1.022 1.23.235.217.407.087.425.37.245.34.912.803 1.147.6.155-.094.294.003 1.421.44 2.096 1.19.033.018 3.339 2.525.532.498.14.192.675.925.911.889 4.108 2.966 1.03.487 1.235.419 2.706.465 1.136-.11.726.196.307.174.41.369.633.873.147.282.463.89.507.974.217.416.5 1.402v.001l.46 2.354.404.883.079.08.088.09.082.082.586.217.422.156.993.084.01-.002.166-.035 1.213-.25.073-.029.033-.013.348-.138.025-.01.44-.174.233-.092 1.658-1.249.007-.005.105-.107.226-.231.515-.526.256-.429.06-.103.06-.098.321-.677 1.008-2.607.335-1.208.007-.034.566-2.805.297-.933.715-1.695.119-.657-.002-.076-.019-.684-.07-.637-.166-.467-.032-.09-.011-.127-.02-.23.157-.603.024-.045.347-.645.744-.836.373-.419 1.925-1.293.967-.65.871-.398 3.015-1.122.015-.005 1.21-.372.519.089 2.47-.107 1.387-.179.686.017 1.038-.235.921-.573.582-.361.017-.01.59-.471 1.306-1.48.06-.084.848-1.201.456-.477.682-.485.69-.68.44-.612.466-.484.91-.72.857-.4 1.71-.532 1.448-.766.42-.06.584.096.062.033.463.249.415.285.136.094.21.146.53.364.622.429.5 1.397.284 1.128.852 2.373.066.184.337.732.107.235.15.328.09.196.985 2.143.063.138.977 1.835.161.303.506.95.638.854.358.48.582.777.35.47.39.358 1.122.29.235-.03.23-.032.289-.14.502-.31.534-.331.55-.426 1.426-1.104.749-.689.63-.284.965.04.082.018.07.015 1.329.289 1.313.41.361.319.185.329.152.65-.002.647-.1.525-.52 1.35-1.242 2.557-.375 1.019-.176.898.078 1.126.392.875.359.263h.001l.337.143.55.046 1.2-.173.495-.163.095-.046.96-.461 1.314-.838.75-.38.567-.431.102-.172.73-1.224.105-.43-.014-.204-.223-.514.152-.877.034-.641-.179-2.592.05-.859.186-.65.296-.509.948-1.045.254-.169.764-.116 1.718.19 2.158.719.95.171.804-.003.725-.235.264-.124.855-.402 1.02-.593.398-.412.154-.29-.033-.889-.267-.945-.377-.7-.716-.768-.227-.414-.382-1.208-.144-.944.08-2.11-.061-2.569.05-1.358.143-.888.052-.886-.04-1.439.02-.08.017-.062.381-1.47.305-.445.263-.21.681-.267 1.434-.173 1.133.037 1.266.041 1.039-.078 2.42-.613 1.734-1.506.629-.948.056-.084.364-1.771-.457-1.269-2.989-1.554-.602-.752-.27-.875.04-1.185.362-.743.275-.289.488-.51.901-.399 2.196.215.619.531.938.805.176.202 1.457 1.673.415.071.67-.358 1.147-2.588.92-.702.547-.2 2.78.388 2.112-.083.832-.548.62-.943.289-1.294-.55-1.079-3.356-.876-2.193-.754-.672-1.127-.045-2.242.368-.77.183-.383 1.649-.812.266.097 1.262.463.586.643 1.196 1.314.334.283 1.545 1.304 1.568.808 1.968 1.556 1.179 1.968.713 1.19.05 1.204-.788 3.885-.155.768-.047.228-.032 1.426.569 3.4.168.346.572 1.183.05.083.674.695 1.018.816.344.275 2.048 1.046.906.949.615.84 1.687.965.011.006.576.267.612.284.683.316.293.166 1.154.652.827.228.343.01.253.006 3.22-.82.947-.034.702-.025 1.142.13 1.224.306 1.083.516.422.201.999.604.906.676.056.061.503.552.17.234-.12.325.388.959.447 1.003.358.805.374.67.94 1.216.659.661.395.178.349.041.512-.2.271-.361.209-.45.014-.1.116-.793-.21-1.685.04-.556.321-.816.22-.234.147-.155 1.089-.526 1.414-.357 1.244-.178.292-.042 2.519-.51 2.168-.14.837-.144.423-.233 1.05-.579.6-.532.543-.597.598-.791.378-.806.13-.535.236-1.384.167-2.035.183-1.181.125-.52.046-.196.315-1.066.677-1.528.198-.447v-.002l.044-.44.174-1.741-.056-1.674v-.005l-.095-.897-.381-3.597.12-3.268 1.153-2.958.236-.605.264-.475.096-.172 1.788-2.29.703-.643.328-.301.406-.372.316-.259 1.194-.975.59-.483.137-.202.565-.836.035-.051.279-.567.44-.897.001-.007.1-.785.12-.948.003-.023-.004-.96.061-.249.163-.664.18-.739.067-.13.234-.461.38-.749.662-.56.005-.006.02-.016.715-.28.21-.083 1.655-.294.034-.011.01-.003.748-.243.245-.183.303-.105h.001l1.287.025.171.068.75.296.891.89.003.015.02.108-.1.309.653.783.01.012 1.158.699.063.038.74.114.008-.004.433-.194.305-.136.743-.44 2.19-1.298.2-.118.078-.047.88-.521.059-.035.078-.047.57-.338.473-.28 1.16-.689.3-.179.809-.695.14-.121.095-.081.777-1.419.173-.22.904-1.147.058-.09.622-.964.086-.134.266-.707.59-1.566.062-.166.162-.505.307-.958.165-.515.283-.882.098-.722-.042-1.302-.007-.236-.004-.115.06-.539.002-.007.08-.298.039-.148.237-.888.182-.681.094-.35v-.001l.366-1.025.993-2.213.03-.066.161-.712-.015-.145-.007-.072 1.574-2.494.462-.43 1.952-1.288 1.516-.425 2.656-.079 1.397-.228.633-.103 1.136-.337 1.239-.469.128-.062 2.062-.994.904-.995.313-.513.723-1.183.201-.412.218-.95.22-.585.403-.887.136-.179.123-.161.653-.6.017-.016.505-.357.487-.277 2.029-.889 1.039-.572.027-.023.862-.719.329-.44.698-1.416.21-.86.042-1.402-.058-1.146-.006-.11-.487-1.546-1.01-1.973-.683-1.334-.264-.515-.152-.53-.137-.568-.09-.77-.005-3.39.175-2.082.039-.469-.075-1.022-.042-.585-.728-1.662-1.154-1.673-.126-.183-.118-.46-.058-.627.078-.634.046-.37.45-2.022.02-.089.392-.619.69-.864.106-.133.544-1.01.446-.468 1.45-.826.649-.22.686-.124 1.256.172.36.09 1.58.39 1.45.358.274.004h.002l.74.012.059-.007 1.39-.17.054-.015 1.249-.332.45-.16.5-.177.27-.096 2.977-.76 1.22-.072.802-.046 1.656.19.94.196 1.058.33 1.215.748.27.165.026.047.464.814.454.576 1.52 2.625.594.693.948.848 1.055.578.352.12 1.334.454.227.03.161.022.861-.089.363-.037.552.049 1.969-.648 1.117-.492.983-.58.677-.497.634-.619.768-.75.914-.78.82-.7-.01-.13.44-.57.23-.187.051-.042.757-.45 1.497-.89.697-.628.532-.321.995-.374.406-.153.529-.33.945-.586.842-.669.931-.478 1.15-.59 1.415-.729 1.414-1.24.48-.317.36-.129.352-.126 1.355-.146 1.945.181 1.792.415.79-.06.97-.297 2.124-1.026.853-.542.745-.474.65-.331.3-.153.721-.151 1.292.227 2.438.427 1.082.318 1.475.576.838.16.88.008.808-.22.174-.205.036-.042.131-.476.008-.555-.285-1.144-.315-.785-1.288-2.04-.344-1.04-.014-.776v-.03l.29-.66.49-.665.078-.07.659-.587 1.66-1.139 1.027-.994.107-.104.321-.432.319-.58.293-.8.138-.897-.086-.788-.143-.273-.21-.23-1.46-1.117-.101-.042-1.402-.57-.759-.046-1.149-.222-.219-.042-3.545-.032h-.084l-.843-.222-.282-.191-.06-.095-.777-1.227-.22-.674-.056-.417.08-.301.095-.353.829-1.372.715-.877.927-.944.444-.453 1.39-1.416.097-.099.653-.665.174-.315.096-.173.03-.053.32-1.222-.086-.744-.012-.103-.35-1.017-.444-1.002-.075-.112-.253-.382-.876-.919-.286-.554-.111-.357-.8-1.267-.927-1.247-.667-.897-.948-.803-.577-.49-.597-.828-.152-.21-.111-.236-.006-.011-.286-.607-.23-.488-.348-.433-.01-.26-.014-.376-.004-.128.009-.018.238-.454.164-.313.592-.606 2.017-1.103.113-.062 1.22-.668.995-1.186.32-.38.382-.35.809-.74.219-.229.764-.798.588-.35.085-.025.64-.183.76-.162.181-.095.175-.315 2.014-.601.729-.369.436-.428 2.026-3.169.96-.83.494-.428.44-.111.786-.023 1.446.446.707.377.342.28.571.464.543.67.238.34 1.226 1.75.622.951.525.801.332.507.59.563.91.328 1.325.031 1.066.373.83.575 1.76 1.844.401.421 1.044.347.434.143 1.454.017.422-.082.322-.062 1.099-.624 2.41-.641.036-.03.775-.664.157-.133.002-.003.746-1.16.364-.435.406-.254.02-.013.87-.057.24.066.024.007.492.258 1.514.791.247.003.362.004 1.165-.261.434-.225.476-.246.008-.007.4-.348.242-.21.083-.087.009-.009.237-.247.022-.04.676-1.246.344-.402.453-.531.555-.377.012-.006.58-.313.083-.044 1.009-.06.003-.001.802.203.667.39.499.452.052.047.545.711.014.018.05.089.536.969.04.07.251.906.089.319-.127.278-.07.852v.01l.209.443.049.875-.003.053-.044.763v.008l.108.82.32 1.425.048.102.088.186.102.216.23.25.035.038.118.074.157.097.221.137.016.01h.001l1.747.785.526-.008.19-.11.51.097.304.059h.563l.308.001 1.872.316.172.029 1.008.17.11.018 1.731.648 1.163.608.006.003.15.103.686.47.348.238.803.814.761.771 1.101 1.6.235.563.431 1.036.21.756.059.207.106.674.04.485.134 1.655.038.473.265.588.596 1.322.497.791.518.825.48.435.13.117.15.198 1.443 1.888.137.179.463.513 1.406 2.464.365.585.31.345.705 1.17.278 1.366.037.59.042.865.015.307-.009.147-.05.875-.064 1.12-.024.411-.018.315-.003.051-.003.056.086 1.678.27 1.861.115.48.032.135.358.795.253.562.4.595.305.331.817.887.225.118.662.346.874.24 1.171.19 3.942.636.485.152.951.296 1.081.338.4.168 1.955.826.46.286.37.232 1.755.58 2.76.677.968-.126 1.287-.062.126-.006.862.108 1.03-.302.867-.254.655-.192.328-.135 1.697-.696 1.044-.246.11-.025.12-.028 1.978-.846.443-.02 1.56-.07.198.031.173.028.664.104 1.158.367 1.897 1.347-.008.367.196.094 1.18.264.163-.009.353-.019 1.08.221.007.001 2.029.344 1.687.448.806.322.914.503.642.604.213.2.42.646.159.368.163.377.203.743.26 1.084.042.515.109.422.14.36.18.226.305.386.33.277.091.058.925.593.365.234.107.069.968.303.912.105.06.017.883.258.959.436.437.326.414.553.022.03.484 1.642.396 2.103.184.683.325.91.144.404.35.443.523.347.322.111.445.101 1.073.243.012.001.033.005 1.373.214 2.104.132.351.215.016.031.11.211.433.307.15.06.489.192.343.003.158.001 2.26 1.146.736.265 1.379.265.506.007.552-.118.463-.19.298-.142.373-.343.442-.67.324-.976.325-1.428.037-1.035.204-1.358.129-.413.25-.434.828-.956.045-.022.016-.008.705-.35.751-.371.602-.179.505.01.405.13.67-.507.47-.275.087-.023.38-.097 1.54-.397.014-.004.705-.187.858-.416 1.496-.573 1.904-.57 1.485-.191 1.014.173.999.348 1.35.74.846.604 1.248 1.17.534.62.506.394 1.002.254.33-.065.044.02 1.186.53.796.095.352.01 2.085.055.991.265 3.287.402.014.002 1.026.227.046.017 1.13.397 1.253.656 2.024 1.218 1.532 1.21.67 1.038.265 1.21.087 1.027.14.584.19.423.015.031.766.89.449.368.299.159.424.224.943.213.633-.237.255-.187.024-.018 2.083-2.523.08-.484.018-.02.408-.506.341-.196.788-.133.4-.45.657-.288.726-.126.862.126 1.143.485 1.482.807 1.042.213.409-.046.92-.102 2.243-.493.953-.007.94-.109.288-.132 1.382-.63.495-.514.404-.545.682-1.34.291-.785.371-2.168.524-1.081.627-.89.573-.567.552-.345 2.206-.667.518-.29 1.829-1.019 1.307-1.109 1.218-1.974.42-1.26.018-.04.257-.553.332-.577.244-.28.022-.026.326-.232.73-.283 1.072-.22.115-.023h.029l1.479.045.273.041h.002l.367.056.963.316.807.014.535-.204.663-.253.07-.027.49-.43.649-.573.09-.066 1.196-.882.553-.408 1.385-.69.37-.185.538-.268.724-.238 2.776-.91.604.051.529.292.665.367.508.627.15.281.053.098.176.33.177.486.22 1.563.021.154-.001.057-.02.885-.071.574-.405 2.085-.143 1.178-.037 1.113.372 1.118.029.03.639.66.816 1.339.528 1.35.43 2.018.037.17.006.433.02 1.604.2 1.854.134.657.095.47.42 1.39.557 1.393.016.028.36.62.605.7.346.282 2.08 1.692.513.283.518.284 1.45.796 1.267.444 1.249.088 1.893-.296 1.527.046.717.022.673.02 1.038-.089.748.224.653.578.36.236.327.215.724.366.266.134.754.38.428.325.013.014.56.607.274.297.088.146.614 1.012.388.64.772 1.272.22.245 1.077 1.194.009.01.585.72.094.117.402.493 1.09.946 1.142.73.192.124.982.384.695.272.699.37.583.369.062.066.235.251.075.08.054.058.15.26.147.253.557 1.243.003.024.428 2.604.104.627.03.185.399 1.2.027.083.116.35.452.734-.282.6-.026.055-.066.746.031.454.309 1.317-.051.169-.031.102-.025.083-.058.191-.055.18-.074.244-.16.315-.04.435.069.25.516.906-.001.001.069.234.001.005.273.926-.09.505-.137.329-.158.382-.087.39-.03 1.079.012.193.074 1.242.034.568.192.31.49.16.352.2.227.247.347.685 1.064.846.133.329.451 1.11.121.462.006.336-.101.257-.614 1.04-.34.792-.167.567.038.208.402.562.081 1.049.109.487.28.643.279.419.073 1.677-.37 1.421-.384.982-.252.356-.244.128h-.005l-1.075.077-1.138-.233-.048.002-.086.004-.209.216-.55 1.558-.02.239.317 1.19.196.473.406.37.177.082.495.227.244.23.068 2.536-.029.587-.236.676-.292.835-.745 2.53-.251.214-.714.222-.744-.192-1.658-.02-.468.264-.021.073-.162.566.768 1.32.1.707.075 1.34.152.681.11.18.277.171.6.143.397.095.504.197.127.214.064 1.355.112.268.115.108.406.062.22-.028.119-.016.82-.107.033.024.469.34.18.077.13.057.268.214.434.573.14.184.23.138.494.136.267.279.134 1.381-.015.59.203.548 1.278 1.267 1.026.178.806 1.172 1.032.266.072.11.149.224.062.853.274.293.316.384.04.659.121.324.107.169.246.386.507.479-.003.388-.174.46.071.371.175.279.31.494.588.508.412.167.161.176.05 1.06.445 1.002.39.668.262.192.047.322-.036.414.065.195.178.189.332.023.218-.14.192-.124.193-.035.124-.022.912.321 1.234-.016.254.071.236.396.084.983.085.373.172.367.148.069 1.33-.503.572.165.195.115.159.204.047.482-.086.538-.507.615-1.294.047-.46.272-.058.262-.01.644.076.323.652.224.787.16.129.107-.01.136-.371.672-.672.93-.485.504-.326.133-.922-.16-.167.04-.07.143v.003l.022.4.062.097.392.262.519.184.066.057-.008.118-.06.209-.17.136-.785-.113-.346.059-.178.282.023.241.492.737.303.18 1.441-.068.451.163-.07.241-.774.722-.068.28.098.174.913.252.11.03.485.425.118.236.071.359-.033.336-.13.294-.008.257.189.318.259.15.158-.025.018-.034.225-.423.046-.28-.1-1.076.07-.452.467-.208.175.023.183.261.11.361.13.175.118.03.126.033.6-.016.192.072.491.616.037.018.553.283.545.278.371.483.5 1.081.391.233.943.362.223.273.084.266.039 1.084.1.418.138.26.174.151.238.08.507.007.356.192-.109.226-.16.112-1.498.3-.234.153-.01.207.102.212.195.133.922.44-.027.11-.055.226-.475.894-.088.166.005.106.21.086.18.073.471.021.048.002.125.08.141.382.319.861.14.171.302.235.745.577.217 1.278-.39 1.414.01.263.078.135.37.185.211-.047.375-.432.512-.887.169-.165.145-.007.169.116.747.973.151.394.013.057.167.76.137.05.18.066.603.033.277.16.291.344.083.235.156.201.327.14.627.056.232.106.377.468.336.417 1.038.12.097.08.203.78-.07.339.036.219.17.222.206.125.416.017.323-.273.492-.068.271.163.094.17-.073.217-.941.73-.26.302.017.142.344.334.215.103.26.011 1.173-.474.586-.053.151.107.12.243-.01.107-.243.22-.568.193-.05.037-.11.085-.216.55-.016.649-.813.476-.615.84.045.323.04.034.8.691.892.242.104.094.077.107.096.825.256.948.574.401.086.22.086.623.467.852.13.09.07.049.584.058.37.291.072.097.12.164-.032.198-.023.147-.01.06-.54.589-.092.4.193.443.482.445.193.096.025.138-.108.309-.78.95-.069.196.08.213.06.006.142.015.018-.011.237-.152.412-.264.242-.045.045.048.07.71-.062.177.054.279.332.186.45.119.197-.307.174-.811.139-.132.15.031.071.106.52.77.132.158.64.77.011.004.499.182 1.38.808.594-.056.315-.217.68-.468.379-.149.172.04 1.703 1.213.08.174.113.764.187.372.538.223.34.232.01.213-.259.645-.135.182.014.135.716.949-.092.212.273.115.47.022.653-.146.114-.056.102-.216.152-.072.065.017 1.038.28.615-.241.07-.104.03-.27-.207-1.193-.058-.232-.243-.276-.212-.374-.038-.233.398-.52.3-.228.337-.02.626-.036.299.137.082.081v.14l-.004.013-.112.3-.168.45-.01.205.217.458.421.505.051.218-.114.245-.938.715-.027.118-.076.328.142.324.534.464.025.021.056.049.475-.283.374-.352.296.008.28.174.095.059-.055.299-.473.802-.027.046.044.49.125.207.458.05.126-.05.587-.229.226.042.114.657-.115 1.28.144.612 1.036.236.233-.284.578-.424 1.193.187.24.298.392.738.278 1.176.17.18.004.217-.328.6-.277.126-1.497.243-.12.06-.077.04-.128.328.022.213.11.104.07.068.798.167.37.318.07.235-.078.352-.042.19.05.44.16.216.193.079.587.135.402-.03.215-.225.132-.668.474-.43 1.653-.172.112.093.051.208-.269.397-.088.262.08.11.108.012.097.012.486-.067 1.177-.488.57.06 1.175-.13.227.112.993 1.32.187.25.115.398-.112.46.065.331.14.096.257.017.46-.165.331.002.655.202.15.188.075.774.199.11.272-.144.201-.776-.016-.288-.351-.922-.067-.418.027-.344.226-.27.479.04.125.15.172.644 1.044.73.435-.118.504-.382.261-.023.26.3.161.65.248.105.59.015.216-.08.853-1.437.2-.09.16.033.038.658.363.13.17-.122.394-.676.192-.061.63.123.197-.097.52-.509.76-.212.504.379.165.124-.036.291-.293.506-9.703 9.531-1.386 1.58-5.676 5.631-1.604 1.589-1.4 1.339-1.54 1.469-6.118 5.835-.108.172-1.879 1.852-.007.008-4.203 4.137-.013.013-3.778 3.674-.644.627-2.074 1.918-.623.682-.154.169-.121.2-.017.417-.165.548-.667.714-.854.196-.646.42-.617-.147.027 1.057-1.044 1.153-.53.318-1.134.184-1.46.781-.356.001-.475.002-.143.047-.148.05-3.957 1.499-1.57.792-.58.073-1.648.487-.341.227-.59.698-.752.036-1.245.488-1.6.762-.104.103.033.433-.397.35-.112.099-.47-.058-.147-.299-.313.097-1.089.728-.053.056.015.072.03.148-.153.326-.43.337-.018.014-.834.653-.555-.293-.523.215-.365.275-.023.203.072.253-.294.183-.317.198-.577.089-.534.566-.577-.189-.419.274-.515.53-.862.587-.006.004-1.634 1.266-.888.467-.051.028-.692.467-.092.127.07.258-.557.543-.837.44-.48.254-1.1.821-.521.502-.006.005-.361.348-.933 1.299-.003.003-.072.1-.291.062-1.95.412-.197.102-.036.024-.145.096-.296.886-.611.21-.642.33-.449.568-.338.31-.288.264-.336-.08-.645-.011-1.347.738-1.475 1.01-1.03.578-.25-.016-.453.349-.48.692-.025.141.002.028.04.46.585.938.071.688-.02 1.09-.262.219-.067.173.288 1.068.326.48.31.166.13.172.074.36-.19.246-.411.1h-.002l-.258-.041-.133.139-.258.27.132.957.331.662.238.709-.07.866.016.753.118.389-.263.378-.046.028-.144.084-.688-.18-.243-.157-1.092.29-.143.255-.152 1.816-.27.736-.333.189-.152-.23-.282-.139-.644-.088-.873.7-.069.344-.551.842-.318.045-.375.054-.107.436-.44.69-.842.05-.023.027-.045.033-.058.042-.063.047-.05.08-.31.213-.175-.056-.114-.12-.074-.28-.17-.172-.368.284-1.61.482-.284-.282-.275.174-.214.002-.247.297-.109.045-.332-.323-.416.108-.156.344-.06.411.205.524-.182.65-.37.246-.248.502-.305.297-.188-.006-.149.047-.447.496-.55.076-.253-.148-.155-.067-.141-.027-.316.477-.023.49-.14.134-.328.016-.307-.255-.24.162-.134.121-.083.038-.102.088-.108.167-.075.363-.021.33-.06.957.008.077.375.347.278.786.15.01.17.027.302.26.275.299.343.02-.04.212-.46.552-.062.51-.074.158-.013.867.156.287.248.675.043.053.083.496-.072.276-.157.405-.232.168-.178.31-.206.226-.221.473-.598.732-.197.19-.082.095-.21.243-.141.36.645.69.323.244-.364.717-.397.177-.26.365.04.118.072.212-.074.357-.112.084-.638.122-.365.264-.283.42-.63.345-.034.02-1.346.433-.2.164.006.237.102.245-.056.15-.314.115-.173-.023-.017.002-1.323.105-1.855 1.12-1.442.204-.317.045-1.138.614-1.133.807-.21-.004-.192-.2-.734-.064-1.184.135-1.195.442-.583.708-.064.077-.263.622-.39.11-.42.017-1.183-.376-.324-.253-.21-.556-.127-.026-1.909.248-.254.23-.406.204-.615-.007-1.014-.242-.425.346-.277-.02-.399-.251-.42-.14-.017.032-.333.609.26.883-.15.633-.563.07-.9.41-.237.355-.235.22-.043.042-.937.444-.347.437-.032.142.006.024.053.209.25.272.124.294.103 1.36-.531 1.212-.592.73-.335.295-.464.692-.518 1.048-.51.471-.718.21-.333.029-.177.133.007.215.134.246.151.43.294.467-.131.306-.197.05-.111.329.198.048.288.19-.267.247-.012.2-.121.24-.017.19.469.234.329.164.075.038h.001l-.008.021-.123.048-.244.502.077.231.088.866-.39.179-.396.517-.227.522-.015.036-1.21.25-1.334-.012-.59.384-.736.137-1.045-.023-2.373.104-.165.089-.464.248-2.514 1.066-1.047.393-.988.372-.264-.022-.97.318-1.136.59-1.013.162-.703.418-.398.124-.378-.018-1.266.484-.135.181-.009.013-.024.008-.088.027-2.412.462-.535.192-.194.195-.334.153-3.37 1.2-.609.347-.242.138-.092.112-.04.05-.35.12-.122.09-.218.237-.346.184-.126.005-.245-.18-.238.04-.43.312-2.306 1.036-.394.265-.726.887-.035.08.095.217-.109.129-1.98 1.008-.957.393-.523.19-1.002.175-.602.067-.545-.092-.91.28-.828.106-.42-.143-.348.153-.026.001-.687.05-2.036-.167-.8-.21-.642-.356-.517-.046-.238.054-.183.179-.69.085-.606-.044-.533.252-1.39.295-.315-.021-.283.197-.13.27-.006.22-1.069.866-.682.351-.852.136-1.058.425-.335.56-.464.348-.695.248-.31.391-.87.087-.035.004-.193-.367-.165.124-.315.264-.556.116-.759.478-.32.161-.168-.12-.164-.011-.286.118-.817.511-.227.415-.425.547-.629.458-.486.187-.763.211-.613-.28-.677.114-.384.247-.123.946-1.011.799-.72.806-.248.164-.94.2-.031.045-.064.09-.087.122-.088.363-.018.347-.063.111-.117.208-.29.401-.433.311-.545.801-.152.444-.231.29h-.01l-12.388.137-6.49-.029-6.808-.037-4.586-.078-7.174-.128h-.029l-4.209.028-.387.002-3.362.02-6.653.037h-.118l-2.709.013-.174.001-2.173.024-.647.007-6.02.062-.467.005-3.218.03h-.045l-.018.001-4.286.111-1.24.039-18.56-.252-2.118-.032-.13-.002-.373-.006-.472-.007-.954.002-6.246.01-2.645.067-2.8.07-2.43-.09-5.398-.202-2.491-.095-2.179-.038-17.18-.328-.868-.017h-.007l-2.314-.12-4.961-.093-2.103-.188.003-.01-6.666-.55-3.955-.33-3.9-.444-1.46-.167-4.814-.397-7.788-.368-1.224-.085-9.327-.325-2.166-.078-1.014-.036-1.066-.015-1.191-.016-7.939-.116h-.01l-1.797.01-.67.096-.016.002-.546.218-3.055-.018-1.194.25-9.985.506-2.113.105-.796.065-6.545.536-1.756-.032-.794-.014-5.406-.1-.067-.009-4.416-.125-9.865-.288-.071-.002-1.496-.045-6.812-.406-1.683-.065-5.466-.215h-.004l-1.618-.104-3.842.023h-.025l-5.25-.301-5.746-.433-.155-.012-4.942-.376-1.575-.08-.055-.002-.368-.019-.072-.003-7.096-.361-.047-.008-.657-.07-5.322-.564-.161.013-1.56-.115-2.545-.187-1.707-.127-4.647-.345-4.093-.307-.917-.074-.076-.008-1.348-.139-.028-.01-.336-.042-.386-.017-5.317-.504-3.639-.348-.355-.044-4.634-.582-3.273-.228-1.851-.079-.153.048-4.538-.21-.042-.003-2.532-.119-3.544-.168-1.11-.053-.466.003-.154.01-.01.001-.054-.003-4.26-.209-3.826 1.482-.747.29.06-.526-.293-.058-.524-.102-.019-.004-.036.215-.143.854-.482.198-1.118.46-.034.014-.901-.866-2.276-2.19-1.907.012h-.17l-5.874.05-3.283.026-4.373.033-5.683-.093-.552.003-.683.004-5.584.03-.396-.023-.28.006-1.858.017-1.281-.01-1.35-.01h-.028l-6.518-.091-.07.005-1.665-.001-7.697-.013-.829-.002-3.03-.008-6.213-.075-6.818-.09-4.53-.12-2.949-.08-2.943-.082h-.025l-.705-.02-3.395-.096h-.064l-2.092-.065-3.47-.103-.4-.012-.391-.02-4.21-.127-2.648-.082-1.026-.031-.461-.006-1.017-.03-.07-.001-5.278-.155-1.397-.041-.61-.019h-.002l-1.346-.05h-.151l-1.275-.007h-.023l-1.114-.024h-.007l-.783-.018-1.168-.025-.755-.017-1.079-.024h-.027l-11.002-.254-.236-.01-9.598-.22h-.001l-6.68-.127-6.371-.127-6.6-.068h-.002l-7.062-.078.672-4.754-2.819-.346-4.989-.763-.047-.007-12.442-1.919-4.137-.35-3.237-.178.152 2.893.41 1.418.675 1.217.172.444.144.766-.02.305-.036.515 1.126 4.382.352 2.975.112 1.788.42 1.757.154 1.58.081 1.745-.279 1.488-.256.806-.195.326-.092.43.04.504-.093.621-.235.53-.783.958-.682.6-.368.442h-.01l-4.403-.32-4.934-.362-1.306-.081-4.832-.303-16.8-1.078-1.445-.094-.017-.002-.626-.04-.02-.002-.547-.036-.051-.003-10.79-.621-1.732-.118-2.527-.172-.302.019-2.524-.165-2.081-.124h-.017l-2.86-.223-.044-.01-.515-.018h-.01l-3.586-.265-.038-.003-4.045-.252-10.569-.668-.041-.002-6.777-.471h-.002l-4.002-.27-.062-.004-6.565-.39-2.163-.144-1.292-.085-.036-.003-.923-.067-.03-.002-.212-.01-.885-.042-1.475-.071-.51-.025-1.563-.076h-.006l-.377-.018-.135.004-1.112.034-.592-.063-.664-.071-.602-.064-.021-.002-2.562-.162-5.586-.357-.039-.002-4.48-.361-.852-.064-.455-.034-.015-.001-3.033-.24-3.05-.232-1.668-.125-.036-.003-2.234-.171-3.449-.265-.285-.026-.025-.003-5.063-.47-.373-.036-.025-.002-6.033-.588-5.653-.485-2.862-.247-.4-.071-2.262-.217-5.808.207-1.339.064-2.978.066-.22.04-1.176.07-1.62-.127-1.684-.102zm-20.584-5.366l.23-.699.05-.153.448-.927.51-.675.696-.697.583-.418.145-.104.854-.379.466-.056 1.876.05.22.067.428.133.44.266.064.022.458.158 1.792.368 1.864.844.472.358.009.011.199.25.628 1.351.55 2.099.169 1.694-.128.97-.45 1.33-.564 1.147-.672 1.001-.723.724-.425.7-.892-.11-.692-.07-5.186-.394-.387-1.135-1.289-1.997-.447-.833-.212-.542-.373-1.262-.177-.598-.45-1.2-.112-.473z"/></svg>