<svg height="1000" width="1000"><path class="americon" d="M624.789 655.098l1.015-.056.694.24.764.057.842.347.367.21-.03.327-.91-.127-1.46-.37-1.531-.37zm-.731 14.653l.285-.296.602.06-.118.512-.505-.042zm-.403 33.743l.135-.585.754-.204.638.47.103 1.09-.303.241-.596.272-.659-.538zm-1.116-54.012l.476.208.191.504-.213.222-.808-.492zm-1.265 3.978l.692.132.574-.337.118.505-.902.272-.512-.208zm.136 16.633l.976-.31.762-.05.082.627-1.34.16zm-3.462 28.803l.542-.374 1.09-.13.195.697.944-.245.364.33.79-.02.666 1.334-.428.519-.612-.569-1.04.072-.571.266-.482.027-.944.5-.504.444-.073-.332.343-1.174-.451-.721zm-.993 19.093l.507-.2.555-.012.437.434-.43.64-.513.314-.345-.42zm-.543 4.445l.467-.455.58-.275.589.209-.396.555-.25.683.416 1.263.09.632-.428.347-.53-.58.004-.684-.402-.456.127-.564zm-3.103-25.824l1.275-.096 1.023.127 1.052-.348.412.576-.458.884-.984.055-1.241-.05-.995-.53zm.071-2.117l.586.136-.064.475-.362.152-.333-.249zm-.709 5.792l.502-.126.718.38.705-.738 1.775.657.205 1.2.716 1.265.515-.345-.245 1.07.667.535-.691.159-.176.423-.638.427-.626.081-1.145-.413-.95.684-1.204-.635-.387-.785zm-4.606-5.296l.44.102 1.22.963.374.577-.363.043-.335-.359-.58.193-.549-.064-.196-.835zm-5.547 19.409l.682-.78.464-.628-.007-.402-.263-.47-.045-.512.504-.447 1.21.236.67.792.157.582.659.062.267.653-.5.257-.556-.545-.474.607-.495.464-.65.322-.697.524-.511.009-.55-.064zm-1.305-51.975l.617-.01.62.135.41.647-.105.183-.47.154-.105.256-.394.297-.336-.503-.302-.685zm-.438 54.892l.856-1.33.735.243.733.097.458.616.192 1.056-.745 1.402-.653.267-.52-.06-.206.438-.336-.434-.4-1.111zm-2.62 7.542l.329-.042.122.767.083.584-.508.265-.128-1.133zm-.62 6.772l.178-.582.964-1.071.318-.74.647-.779.658.697.819-.615.461-.187.507.2.252.362-.04.817.994.313.377.616-.395.483-.429.63.267.655.545-.302.79-.176.31.267-.275 1.03-.799.845-1.815-.578-1.308.165-.764.066-.315.648-.135.699-.476.044-.215-2.15-1.115-1.023zm-.16-15.798l.668-1.135.282-.348.785-.72.63-.285.948-.16.691.868-.683.67-.678.998-.536.74-.753.424-.476.473-.746-.296-.561-.595zm-.789 9.308l.766-.16.004.257-.57.96-.181-.08-.213-.477zm-2.764-56.891l.751-.775.52.718.267.76-.465.48-.506.189-.408-.539zm-.997 64.022l.41-.07.497.014-.165.448-.19.327-.462.021-.282-.172zm-4.952-39.032l.627.501.228.617-.293.494-.246-.341-.21-.57-.26-.374zm-3.22-3.888l.182-.313.714-.101.333.359-.209.659.35 1.453-.012.372-.192.615-.856-.157-.208-.301.31-1.266-.329-.765zm-.209-6.95l.473-.907.364-.857.161-1.043.508-.605.815-.34.887-1.742.564-.449.896-.063.462-.699.291-.004-.098.693-.132.911.559.865.117.544.56.829-.602 1.174-.285.368-.666-.681-.355.587.007.473.333.323-.246.586-.332-.25-.247.514.227.579.048.728.01.691.124.982-.354.66-.177.368-.8.121-.248.441-.29.114-.804-.788.27-.844.203-1.059.027-.62-.336-.614-.505.372-.357.442-.318-.073-.45-.625zm-.404 18.043l.952.242.264.58-.76.449-.181-.378zm-1.175 9.656l.289-.223.411.651.047.694-.74-.684zm-.014 2.897l.67-.458.136-.697.991.315.709.796-.052.462-.756.408-1.384-.381zm-.873 21.4l.779-.223.458.324-.11.388-.377.31-.721-.47zm-1.124-26.971l.543-.41.47-.335.405.286.515.212.377.871-.176.478-.323.37-.361.297-.95-.06-.387-.266-.249-.747zm-1.166 5.386l.39-1.6.282-.706.71-.746.736.392.375.652.489.98-.17.916-.288.26-.61.812-1.064-.277-.776-.082zm-.64-17.112l.399-.151 1.324.82 1.033 1.22.964.648.3.616-.206.879-.846-.46-1.017-.146-.876-.552-.71-1.763zm-1.201 29.389l.922.536-.476.327-.465-.276zm.378-1.798l.005-1.257.753-.503.265-.972 1.1-.896.432.629.09 1.205.919.28.276-1.174.024-.878-.724-2.234.75-.301.782.256 1.253-2.15 1.601-.195.57 1.49.168 1.424.264.508-.43.592 1.068.532.613-.594.235 1.057 1.195-.786.94-.71.136-.696-.671-.867.315-.92-.446-.468.204-.434.287.103.594.64.855-.12.16.876.446.468.203 1.095.67.35.292.549 1.141.494.106.825.8.99.897 1.119-.249.194-1.224.186-.261.539.185.643-.141.331.315 1.076-.217.234-.631.275-.762 1.023-.422.246-.728.016-.552.69-.704.046-.749 2.21-.47.338-1.766.594-1.59-1.994.054-.72.096-.98-.646-.264-.602-.454-.372-.577-.014-.988.64-1.254-.375-.653-.372-.434.14-.441.246-.662-.586-.065-.786 1.329-1.027-.205-.693.193-.1.733-.624 1.053-.493.097.013.713-.5-.062-.222-.826-.254-.456-.322.357-.735.074-1.068-.781zm-2.583 8.779l.345-1.062.577-.666.189-.833.654-.471.714.037.63.504.337.545.802-.306.116.476-.398.927.389 1.05-.157.468-.675.35-.835.525.158.84-.213.443-.259.715-.465-.4-.27-.668-.663-.247-.8-.396zm-2.427-47.22l.239-2.364 1.18-2.961-.22-1.975.476-2.882.888-.821.77-.1.971.615.455 2.691 1.183 2.943.846 3.265-.303 1.752.5.932.943.65-.136.622.157.528-.756.938-1.157.755-.594-.888-.787-1.544-.937-.265-1.36-.04-.43.329-1.091-.138-1.3-1.26zm-3.168 22.758l.473-.189.915.171.844.354 1.205-.052.363.177-.207.588-.815-.311-.64.471-.23.19-.302-.082-.344.237-.479-.322-.518-.542zm-.468 39.185l.639-.914.18.58-.059.656-.235.863-.503-.24zm-2.497-36.847l.691-.191.478.213.627.43.186.327-.51.043-.254.222-.81-.537zm-.707 25.6l.396-.554.114-.297.406-.034.286.358-.205.623-.588.413zm-1.588-10.573l.401-.367.536-.204.586.283-.027.463-.432.554-.51.226-.148-.144-.006-.44-.33-.105zm-.336-18.099l.511-.006.29-.26.401.032.515.323.333.324-.322.552-.73.046-.657.044-.703-.758zm-.014 35.148l.611-1.034.626.148-.21.837-.41.827.04.563-.381.56-.412-1.019zm-1.183-16.819l.503-.097.296.252-.249.625-.591-.505zm-1.152-7.028l1.355.24-.013.433-.276.209-1.279-.294zm-.642 7.653l.442.215.768-.01.077.293.079.438-.362.37-.252.332-.48-.36-.081-.621-.37-.398zm-1.702-1.59l.571-1.25.62-.264.251.509-.023 1.22.377.289-.394.468-.84.156-.59-.396zm-.053 1.757l.623.03.156.803-.069.403-.998-.83zm-.836 3.707l.33-.004.693-.264.283-.845.293.033.368.179.406.251.584-.117-.06.414-.357.442-.337.072-.287.842-.61.2-.634.038-.59-.473-.443-.324zm-1.128-2.66l.366-.004.81.503.005.33-.292.076-.885-.575zm-.106-2.926l.618-.337.662.286.448.763-.768.045-.762.595-.264-.656zm-.713 4.986l.326-.297.621-.117.626.25-.541.738-1 .396zm-1.185-1.232l.434-.444.55.104.005.402-.436.298-.07.257-.402.114zm-.365-3.18l.285-.699 1.096-.158.004.33-.506.554-.62.19zm-.871.632l.511-.116.55.177-.066.55-.545.408-.483-.653zm-.342 3.646l.38-.133.622-.043.15.328-.179.368-.505-.201-.425.073zm-.096 4.01l.71-.203.786.123.418.377.796.023-.174.528.758.39.13.284-.066.76-.53-.07-.576-.135-.149-.216-.922.013.041-.473-.07-.458-.472.069-.673-.375zm-1.818 7.386l.61-.768.65.423.935-.253 1.603-.306.565.15 1.16-.443.792-.61.504-1.42.673-1.063.667-.382.453.569.983.037-.317 1.14.701.395.756.172.162 3.006.269 1.024-.211.772-.207 3.146.127.867-.546 1.382-.32 1.514-.46.902-.317 1.677.294.723 1.047.284.294.553-.739.195-.985-.258-.463.68-.454-.33-.23-.768.07-.404-.045-.624-.55-.03-.666-.36-.254.223.188.552-.03.364-.9-.275-.632.344-.594-.03-.693.694-.62 1.153-.29.826-.277.381-.365-.369-.076-1.192.048-.952-.623-.69.321-1.32.467-.886.022-1.121.284-1.169 1.07-1.308.652-.815.213-.626-.594-.69-.8.706-.757 1.219-.227-.695-.688.08.826-1.324.067-1.133.276-.563.36-.7-.34-.877-1.056.06-.324-.394-.497-.461-.365.075-.374-.059zm-9.84-31.04l.207-.36 1.205-.96.955-.878.954-.145 1.078-.584.447.303.438-.005.437-.477.069-.075-.43-.267-.06-.38-.108-.662.234-1.15.514-1.007.32-.628 1.044-1.25.94-.923.21-.768-.086-1.276.08-.4-.38-.363.577-.626.804.174.666.832.597 1.27.912.063.308 1.42.869-.593.949.025.594.305.218.562.535.152.495.566.259.326.688-.483.409.689.56 1.088.077.365 1.374.886.67 2.266.169 1.86.225.472 1.792.198 1.32.422-.169 1.134 1.073 1.12 1.837.78.06 1.9.19.546-.103.55-.576.665-1.76.732-1.344-.475-1.985-.926.03-.512.474-.115 1.02-.195.36-.443-.083-.877-1.177-.643.177-.514-1.068-.645-.425 1.138-.724.557-1.602.53.17.727.254 1.095.676 1.565-.138.732-.832.741-1.2 1.688-1.123-.162-1.25-.608-.358.736-.1.879 1.208.06.079.547-.5 1.103-1.53.676-1.534.163-1.02.413.044.695.202 1.754.067 1.262-1.364-.453-1.056-.221-.638-2.201-.218-.81-1.552-.657-.138-.573-.592-.058-.327.222-.757-.002.021-.393.545-.444.103-.623-.443-.435-.266-.239-.177-.159-.55-.14-.477-.106-.232.792-.328-.248-.102-.903.159-.737.269-.474-.24-.973.305-1.269.857-.692-.093-.63-.021-.71-.162-.667-1.6.429-1.14-.96.903-.511.982-.448-.046-.937-.883-.698-1.069-1.013zm-2.69-17.174l.898-.044.25-.345-.192-.565-.022-.065-.194-.707.363-.186.5.527.015.015.908-.41.385.466.754.58 1.806 1.084.828-.052.38.713.36.337.077.363.731.285.728-.19.849 1.012.324-.331.623.248-.05.52-.048.576-.389 1.207.41.871-.596.435-.316-.498-.693.007-1.075.558-.347-.05-.495-.43-.86-.183-.65-.528-.679-.552-.245-.171-.477-.334-.473-.745.007-.777-.592-.831-.032-.044-.644-.445-.524-.174-.637-.211-.05-.03-.837-.51zm.555 89.272l.33-.155.298.143.53-.052.223-.38.323-.218.708-.251.276-.3-.102-.365.166-.21.243.018.067.694-.275.45-.406.11-.325.095-.44.266-.078.402-.088.251-.35.102-.444-.135-.17-.173-.198.025-.196.228-.142-.272zm-1.72-82.691l.696.288.601.177.5.32.64-.15.35-.31.334.544.33.143-.142.44.657.03.184.18-.578.59-.919-.527-.696.164-.435.014-.282-.274-.688.082-.022-.255.257-.252-.271-.297-.247-.33-.295-.19zm-1.07 5.36l.353-.515.372.07.408.256.665.054.457.31.049.388-.519.226-.65.216-.504.23-.203-.354-.41.013zm-3.406 7.369l.525-.116.303-.596.461-.39.679-.63.297.276.635-.077.118.25-.222.707-1.28 1.457.18.858-.545.48-.524-.045.01-.28.326-.295-.21-.717-.419-.438zm-.274 15.324l.361-.552.18-.34.467-.268.337.087.117.397-.365.483-.506.164-.456.538-.48.169zm-1.512-31.158l.665-.362.595.372.444-.009.278.246-.917.42-.203.267-.414.102.191-.482-.197-.425zm-.12 10.59l1.123-.162.643.387.63.72-.028.668.453.437-.664.314-.492-.25-.758.035-.52.446-.09-.416.18-.526-.528-.668zm-.457 20.256l.398-.553.62-.26.364-.297.475-.077-.252.478-.216.478-.764.482-.293.039-.178.587zm-1.397-32.936l.402.215.59.124.253.453.37.58-.876-.465-.52-.297-.62-.497zm-2.256.601l.422-.147.816-.045-.25.622-.42.06-.382.019zm.112 33.46l.397-.698.693-.298.806.067.581-.554.401-.186.332.254-.252.514.217.421-.322.275-.47-.249-.355.275-.43.116-.21-.077-.224.57-.355.077-.515-.289zm.478 62.036l.5-.906.444-.82.692-1.274.73.284.236.704-.51.283-.508.143-.33.778-.43.373-.441.634zm-1.124-88.75l.292-.325.477.065.439.438.504.162.301.197-.249.234-.546.083-.366-.035-.707-.58zm-.075 9.464l.662-.722.024-.622.143-.638.37.75.044.927-.691.285zm-.192-3.622l.603-.438-.028-.983.642-.43.797-.204-.026.612.437.553-.664.513.142.95.066.987-.406-.545-.474.04-.573-.064-.453-.433zm-3.048.161l-.058-.608.145-.167.23.122-.009.53.372.542-.195.394-.639.14zm-1.845-5.54l.432-.416.207.064-.142.622-.033.401-.311.14-.152-.548zm-4.31 47.75l.11-.558.516-.055.336.915.37.475.038.463-.92-.383.188.475-.366.112-.372-.695zm-.63 46.157l.67-.934.157-1.465.399-.535.652-.07.396-.534 1.035-.033.223.39-.294.568-.847.376-.469 2.166-.727.425-1.071-.153zm-1.101-6.862l.667-.871.042-.694-.114-.377.2-.644-.266-.714.956-.838.944-.535.474.307.836 1.172.394 1.218.063.99-.48-.328-.25.717-.444.43-.48-.218-.41.29.12.708-.694-.017-.04.538-.663-.033-.405.113-.72-.244zm-.645-44.585l.519-.208.577-.427-.103-.42.393-.164.773.435.297.585-.364.333-.292.331.19.953.044 1.137-.675-1.45-.665-.64-.433.49-.293-.258zm-.593-7.533l.47-.677-.337-1.098.29-1.147-.007-.466 1.523-2.427 1.791-.45 2.31.57 1.36.723.379 1.682-.396 1.102-.799.994.478.217.913-.52.546-.443.47-.846.07-.477.874-.629-.004-.659.031-.696-.734-.288-.334-.51.327-.405.986-.373.141-.697.036-.01.695-.178.263.95-.066.915-.287.845.48.582.453-.271.68-.067.472-.626.582-.408.533.182.793.724.035.544 1.25-.152.41.803-.436.59-.066.842.86.933.98.078.61.692.27.307.605.685-.07.906 2.144 2.254-.577 1.031-.576 1.215.814.873-.522.56-1 1.68-.893-.009-.546.889-.16.832-.505.66-.961-.464-.438.37.042.582.409.625-.326.553-.766.202-.477.432-.618.137-1.505.064-.594-.29-.849-.654-.241-.473-.28-.55-.477.076-.32.372-.575.67.138.762-.114.817-.764.272-.697-.527-.476.04.594 1.024-.652-.097-1.12-1.432-.591-1.652.095-1.06.394-1.398-.49-.465-.547-.922-.59-.436-.038-.33.215-.661-.406-.437.14-.991.25-.955-.738-.729-.404-.107-.483-.987-.299-.877-.512.186.093 3.006-.104.99-.48-.583-.268-.854-.993-.747.033-1.251.176-1.174-.226-.952-.64.033zm-.599 10.512l.345-.53.05-.83.478.143.594 1.208.051.556-.566.323-.32.41-.12-.37-.803-.542zm-4.317-50.798l.25-1.058.422-.577.366.227.34-.449.31-.097.162-1.016.289-1.084 1.355-1.432.479-.475.729-.262-.333-.91 1.45-.992.216-.511-.368-.544-.659-.579-.69.296.04.728-.69.113-.145-1.268-.09-1.534.47-.046.109-.468.473.034.236-.853.33-.34-.007-1.287-.474-.442-.001-1.033.028-1.448.795-1.895.27.186.434-.374-.276-.834.774-.357.823.252 1.165.247.507-.367.027-1.455-.154-1.2.425-.242.235 1.075.495.935 1.068.472.603 1.415-.042 1.065.015.629.674.422-.338.501-.42.859.212.792-.506.89-.75 1.456-1.704 1.274-1.084.366-.325.94.147.589.15.545-.3.022-.318-.282-.353.283.102.784.227.463.22.689-.947.418.041.8.37.764.55.506.692.069.44.252-.712 1.523-.546.219-.276.579.275.418-.211.469-.537.745.223.496-.735.817-.353 2.472-.329.902.234.64-.037.497-1.11 1.522.249.506-.066 1.058-.943 1.138-.787.428-.39.912-.576.449-.283-.463.086-.765.775-1.759.248-1.279.063-1.715-.482-1.348.8-.37.066-1.167-.625-.835.174-1.569-.584-.07.138-1.313-.615.842-.578.915-.727.478-.535-.239zm-.101 36.817l.446-.952.805-.783.651-.727-.294-.696-.187-.382.323-.898.97-.419.327-.36.157-.91.8-1.032.325-.66.424.268.525-.456-.033-.269.501-.575.612.153 1.76-1.34.082-.038.084-.038.493-.222 1.244-1.116 1.032-1.033.932-.337.292-.668 1.262-.747.808-.623.67-.628.48-.044.35.425.884-.074.393-.495 1.183-.202.452.762.436.424-.03.196-.814.273-.273.42.35.252.231.205.13.72.395-.053-.029.988.055.764.32.562.472.055.441-.403.44.142.187.746-.508.281-.728.372.149.401.224.62.73-.262.474-.296.03-.274.412.71-.398.551-1.137.43-.544-.16-.69.628-1.025.08-.258-.29.58-.773-.224-.51-.548.04-.328.259-.362.515-1.172-.101-.583.224.223.547.186.328-.583.444-.511.15-.07.44-.513-.033-.296-.474-.405-.29-.583.333.042.769.484 1.095.262.803-.144.294-.807-.177-.402.113-.44-.107-.952.006-.478-.253-.404-.18-.513-.07-.914.226-.95.372-1.135-.14.766-.48.948-.592.435-.552.545-.626.768-.224.62-.297.253-.478-.187-.584-.733-.069-1.06.117-.764.7.003.513-1.095.52-1.126 1.288-.33-.181-.55-.034-.216.55-.474.407-.696-.07-.656.554-.834 1.432-.36.955-.107.66-.107.403-.66-.216-.366.222zm-1.305-22.932l.364-.644.352-.967.713-1.4.615-1.026-.3-1.386.656-.296.654-.514-.103 1.059.002.438-.47.842-.324.805-.283 1.609-.65 1.245-.66.182-.395.59zm-1.933 5.367l.04-1.311.547-.186.4-.221.01-.047.204-1.014.511-.149.17.552-.31.472-.08.135-.61 1.024.166.34-.342.488.221.46-.436.556-.551-.51zm-.203-13.032l.007-.694.424-.585.294.363.221.364.47-.769.002-1.017.387-1.392.681-.213.173-.84.128-.082.62.579.472-.294.585.215.478.617-.033.693-.618.405-.034.402-.764.296-.362.586.513.508.73-.04.113.619-.144.329-.548-.106-.143.584-.615.989-.585-.216-.364.185-.143.511-.35.527-.381-.665-1.402-.885zm-2.675 17.236l.348-.385.257.291-.07.622-.36.261-.257-.142zm-4.53 57.245l.516.145.53.149.407.69.064.593-.552.187-.441.149-.259-.257-.003-.81zm-3.578-1.606l.92-.15.296.33-.403.517-.477.333-.333-.44zm-1.449-34.38l.363-1.248.873-.818.52.886.42.506-.634 1.071-.77.15-.696.076zm-.762 1.982l.181-.404.477-.001.624.144-.316.154-.342.325.101.33.049.55-.293.33-.546-.566zm-1.31 14.061l.071-.588-.002-.624.77-.186.838-.66.484.324.516.55-.405.687-.228.335-.518.581-.313.688-.399.764-.442-.366-.259-.44-.443-.733zm-1.954-2.27l1.526-.598.587.013.42.576-.769.48-.586.406-.55.516-.476.185-.223-.697zm-.13-6.167l.293-.441.699.511-.33.478-.51.368-.48-.512zm-1.487 12.757l.864-.564.734.626.041.548-.915 1.216zm-2.002-.519l1.027-.59 1.321-.482.77-.48.733-.627.696-.627.186.55-.263.83-.385.995-.742.054-.552-.108-.991.407-.623.626-.718.485-.493-.03zm-5.58 24.243l.445-1.194-.183-.56.407-1.75-.07-.515.096-1.08.487-.518.903-.195-.024.637-.258 1.072.05.503-.158.967-.146.626-.441.59-.035.922.447.25.225.106.103.048-.073.189-.184.475-.832-.336-.434.368zm-14.482-10.2l.037-.265.22-.766.258-.405.736-.037.296.274.451.63-.06.338-.28.218-.368.515-.415.32-.764-.086-.369-.184zm-10.962 10.198l-.074-.406.222-.589.444.155.204.786.604-.313.627-.147.11.885.04 1.082-.48.265-.52-.138-.45.155-.545.145-.442-.516zm-.57-14.135l.549-.742.589-.404.146 1.472.956.884-.479.073-.625-.479-.478.11-.505-.024-.215-.42zm-2.225 4.247l.45-.391.675.215.184.615-.19.94.03.47-.408.521-.372-.476-.503-1.104zm-1.286 3.362l.81-.478.559.345.508.982.33.553.11.885-.369.22-.515-.258-.073-.885-.478-.332-.295.037-.385-.47zm-.103 8.833l.68-1.353.298-1.88-.205-.882.516-.672.474.263.285.703.69.202-.371 2.332-.4 1.524-.798.552-.786.043zm-.044 21.863l.38-1.457.428-.55.313-.403.429-.553.89-.215.18-.285.584.109.406.527-.07.763-2.103 2.558-1.281.176zm-4.298-36.19l1.328-1.653.397.218-.465 1.79-.452.64-.838-.004zm-5.124 3.852l.456-.315.346-.692 1.224-.128.116.374-.488 1.171-.791 1.117-.689 1.383-.114-.529.191-.649-.108-.847zm-1.662-11.051l.131-.924.312-.206.847-.292-.001.441-.4 1.026-.243.58-.282.267-.55-.333zm-5.031 8.233l.185-.478.735.297-.157.699.074.6-.301.559-.434.458-.254-.92zm-2.158 1.252l.575-3.173-.17-1.729.37-.624.481-.918-.255-.59.407-.66.39.227.193 1.394.954.592.296.778.141.51-.621.38-.235.806-.353.334-.569 1.824-.334.772-.683 1.54-.69.1zm-22.969 30.337l.42-1.094.515.17.206 1.56-.116-.02-.363-.058-.557.366zm-2.04-4.299l.154-.885.264-.959.387-.072.501-.106-.277.596-.203.941-.305.655-.12.682-.534.092zm-2.642 8l.377-.959.491-1.586.082-1.145.34-.921.85-.29.183.445-.337.552-.524.957-.043 1.383.067.576-.416.681.051.954-.37.727-.166-.127-.37-.285-.006-.029zm-2.545-11.213l.412-.679.398-.415.287.038.071.072.114.766.414.685-.303.465-.312.2-.092.025-.268.069-.479.056-.214-.205-.022-.215-.007-.635zm-19.554 21.15l.203-.561.728.655.031.63-.49.81-.439-.486zm-28.162-4.552l.655-.155.463.903.48.552-.63.14-.593-.09-.394-.655zm-7.86-23.212l.606-1.098.593-.213.104.444-.493.952.179.445-.416.658-.48-.006-.623-.23zM343.7 795.6l.454-.731.12-.59.744-.431.67-.47.855-.431-.048.811.254.336.26-.107-.045.516-1.13 1.571-.823.763-.593.213-.256-.188.12-.663-.737-.084zm-3.392 21.942l.381-.735.497-1.029.528-.695.517.045.698.343-.34.44-.68 1.025-.602.657-.252.14-.532.293-.094-.212zm-1.484-16.845l.422-.724 1.452-1.058.193-.588.312-1.102.631-.39.428.435-.264 1.148-.574.705-.525 1.162-.9.947.314 1.187-.525.546-.65.099-.283-1.808zm-.266 15.116l.98-1.17.445-.103-.043.443-.603.73-.417.66zm-1.819-5.096l1.598-2.23.199-.922.825-.8.151.257-.325 1.13-.068.238-.99 1.329-.15.2-1.268 1.7zm.1-3.473l.27-.662-.142-.371.454-.733.37.006-.082.516.323.67-.639.656-.487.436-.334.069zm-1.955-4.909l.377-.51 1.261-.314.07.297-.974.797-.418.77-.407.067zm-.7-2.522l.828-.984.413-.4.668-.211.103.518-.12.515-.525.583-.594.212-.703.063zm-.728 18.104l.452-.548 1.05-.793.106 1.119-1.266 1.441zm-1.25-.538l.943-1.169.63-.064-.312 1.031-.413.401-.633.249zm-.968-1.976l.755-.913.158-.627.632-.212.143.336-.378.475-.266.476-.452.511-.564.51-.144-.225zm-.966 10.47l1.275-2.502.073-.142.882-.674-.142 1.339-.077.72-1.214 1.959zm-1.72-22.679l1.443-1.047.49.377.986-.954.981.703-1.95 1.772-.71-.4.17-.76-.848.377zm-.882 20.285l.355-.603 1.986-2.497.452-1.075.783-.702.411-.261.149.23-.816 1.826.809.62.677-.377-.975 1.732-.905-.783-.756.158-1.83 2.47-.37-.085zm-.608-3.888l.604-.73.45-.4.631-.064-.046.554-.564.51-.899.9-.155.156-.217-.3zm-5.268-1.405l.19-.384.901-.477.182-.096.897-.54.16-.823.401-.593.073-.892 1.392-1.656.12-.142.024-.154.277-1.753.005-.032.889-.586.003-.002.075-.05 1.012-.274.018-.005.026.007.881.213.872-1.626 1.39-.62-.13.418-.036.115-.283.9.215.823-.196.331-.46.78-.211.356-.93 1.542-.098.162-.06.183-.226.692.264.534.234.472-.302.381-.377.476-.175-.61-.453.048-.446.618.313.005.142.22-.055.58-.986 1.237-.512.642-.243.076-.557.176.2-.697.42-.143.25-.264-.053-.23-.366-.129.384-.935-.469-.385-.648.43-.345-.028-.369-.03-.423.446-.91.939-.014.04-.296.85h-.459l-.422-.467-.531.012zm-.448-8.46l2.334-2.437-.202-1.186.255-1.954 1.142.204.993.02.834-.987.321.513-.455.852.765-.357.305.485-.746.431-.887-.051-.344.696-.16.773.176-.026.935-.14 1.036-.056.737.123-.452.546-.596.25-.233.698-.786.542-1.042.389-.437-.28-.038-.024-.268.55-.268.513-.849-.088-.768.708-.202-.17-.063-.63-.603.33zm-2.316 14.175l.362-.815 1.18-1.026 1.113-.477 1.688-1.464.888-1.279.438.378.616.788-.302.351-.56.3-.191.743-.835 1.16-1.318.872.317.969-.436.155-.883.496-.507-.016-.77.732-.32-.07.202-.714-.661-.345zm-1.975-12.03l.53-.657.598-.36.596-.248-.082.443-.195.588-.227.292-.333-.006-.416.51-.629-.01zm-1.499 5.19l.416-.474.573-1.026.596-.212.103.483-.572.952-.53.657-.675.469zm-.948 13.613l.27-.55-.153-1.82.445-.029.649-1.063.64-.544.42-.697.634-.248.145.304.033.07-.013.74-.053.926.766.5.066.794-.473.936-.711.914-.962-.128-.748.357-.743.098zm-1.55 2.31l.52-.734.603-.545.553.195.365.34.824-.467.29.302-1.07 1.455-1.35 1.078-.193-.016.214-1.04-.807-.497zm-.388-5.409l1.237-1.175.227-2.18.49-.774.848-.696.616-.2.225-.148 1.423-.934-.049.665-.649 1.1-.097.261-.136.364-.24.996-.614 1.212-1.123.61-.533.805-1.156 1.065-.354-.282zm-4.23 25.556l2.127.06-.782.696.46.378-.117.394-.135.45-.314.055-.758.132-1.683-.535zm-62.396 118.74l.414-.184.35.248.221.61 1.264 1.257.212.505-1.047.693-1.652-1.755zm-56.282-498.6l.232.168.707-.292 1.153-.733.347-.274.704-.2.527.202.474.398.688-.441.81.076.63.259.52.281.326.14.3-.538.534-.406.464-.152.33.229 1.133-.462.794-.455.241-.635.788-1.2.03-.14-.38-.662-.458-.387-.348-.069-.1-.186.003-.734.051-.423-.235-.733.035-.31.308-.518.876.417.446.389.588.717.723.49.246-.008.113.423.124.349.54.541.456-.084.246.095.481-.036.272-.198.389-.025.902.291.937-.895 1.318-.455.301.352-.1.625.197.642.156.315.453.228-.032.725.192.285.48.252.193.653 1.371.407.378.78.858.235.514.429-.348.884.012.494.868 1.101.23.886-.266.725-.787 1.189-.193.436-.298 1.161.03.122.737.351.174.557.525.927.517.257.392.832-.24.837 1.184.67.01.773.244.382.218.188-.392.84-.162.878.224.445.59.625.544.239.594.71.967.37.543-.154 2.639 1.124.419-.383 1.501-.697.694.096.341-.163.08-.477-.25-.077-.339-.302-1.043-1.26.324-1.746-.39-.74.15-1.468.802-.472.338-.305.317-.413.424-1.365.218-.234.545-.581.307-1.56.041-.727-.333-.133-.523-.622 1.21-.569.717-.383.55-.066.301.255.133-.068.604-.808.095-.75-.302-.71.823-.562.151-1.163.232-.736-.084-.398-.168-.719.01-.518-.288.102-.41-.07-.515-.554-.22-.438-.12-.528-.085-1.075.062-.28.533-.914.532-.123.374-.42.071-.674-.351-.26-.317-.793.633-.257.26-1.012.175-.16.56-.159.183-.14-.004-.345-.46-2.137-.202-.337-.674-1.13-.123-.785-.618-.734-.683-.045-.263-.13-.15-.465.159-.653-.258-.441.075-.4.964-.854.355-.77.657-.667.245-1.012 1.371-.343.145-.565.42-.728.112-.54.458-.292.478.01.537.346 1.018-.937 1.34.55.66.04.379.505.986-.333.472-.06.234.128.354.361.28.682.799.419-.129.826.12 1.119 1.293 1.207.589.4-.09.504.189.61 1.054.898 1.529 1.03.69-.27.394-.3.95-.2.31.503.615-.07.777-.12.411-.377.16-.025.822.202 2.46 1.832.014 1.67.11.06 1.315.2.787-.309 1.71-1.002-.066-.38-.542-.763.35-.731.123-.675.31-.484.779-.395.811-.082.304-.483-.337-.708-1.012-.309-.655-1.046.067-.736.54-.138.139-.498.469-.61-.354-.74-.194-.377-.615-.225-.87-.88-.306-.615.161-.237-.485-.415-.536-1.079-.129-.458-.395-.132-1.42-.262-1.745-1.288-.93.023.047-1.321-.112-.733-.314-.243-.934-.164-.325-.681.169-.94-.03-.727-1.077-.944-.758-.149-.485-.29-1.313-1.489-.098-.523.307-.619.684-1.037-.037-.847-.623-.518-.748-.333-.278-.36-.018-.591.096-.502.196-.479.763-.706.865-.307.4-1.091.394-.633.509-.256.502-.126-.22-.288.081-.38.502-.846.126-.634.494-.413.827-1.394.554-.42.623.121.388-.31-.928-.957-.412-.68-.318-.414.087-.495.392-.272.05-.396-.338-.468.602.073.778-.316 1.023-1.17-.04-.444 1.34-1.044.61-.698.034-.584.681-.534.786-1.23-.12-.24.894-1.633 1.406-.626 1.387-.073.917-.242.412-.922.919-.962.458-.32.306-.795.732-.146.733-.541.617.003.148-.142.269-.73.414-.289.447-.723.098-.743.533-.194.648-1.017.763-.497.877-.916-.025-.434.463-.708-.249-.291v-.16l.815-.822.83-.225.006-.001.802.387.874-.11 1.068-.828.497.103.603.83 1.084-.722.019-.368.08-.114 1.333-1.458.582-.349.534-.122.096-.375.7-.363.132-.373 1.74-1.3.887-.383 1.395-1.319-.09-.306.378-.231.308-.427.44.043.375.056.562-.222.424.183.33.375.677.097.412.039.39-.27.386.185 1.208-.573.656.019-.465-.645 1.002-.447.708-.288.581-.237.187-.317.995-.26.882-.396.02-.428.419-.386.061-.689-.012-.443.422-.088.61.225 1.037-1.318-.193-.186-.687-.082-.64-.867-.081-.588.42-.642.484-.34.033-.45-1.097-1.407-.821-.362-.69-.847.174-1.783-.292-.582.314-.743-.455-.657-.253-1.042-.683-.052-.04-.317.174-.962-.428-.654-.001-.169.114-.148 1.325-.459.245.025.298.268.355.08.33-.06.56-.549-.05-.808-.258-.306.247-.918.939-.85.323-.277.068-1.077 1.08-1.16.75-.634.391.003.565-.711-.348-.653.464-.367.246.216.466.043.187-.146.456.032.46-.445.041-.38.524-.223-.02-.38.446-.548.11-.451.439-.455.35-.08.235-.526 1.874-.301.296-.279.175-.027 1.394-.218.61-.377 1.021-.286.485-.751.727-.209 2.07-1.574.636-.86.373-.164.238-.372.316-.19.144-.607.801-.688.725-.4.532-.604-.291-.342-.674-.25.858-1.15.665-.456.286-.37-.014-.748-.085-.388-.653-.224-.08-.3.278-1.552-.097-.1-.36-.368-.262.096-.071-.069.156-.461-.141-.316.17-.286.451-.273.102-.429.52-.286.379-.669 1.727-1.218.119-.388.008-.589-.572-.26.202-.281-1.461-1.923-.227.182-.145.358-.848.06.4-.539-.23-.553.24-.387-.987-.73-.295-.082-.701.38-.394-.231.088-.43-.272-.55-.677.338-1.302.4-1.312.028-.433-.332-.55-.095-1.135.615-.48-.275-.095-.074.011-.091.762-.49-.023-1.112.24-1.16.461-.215-.323-.448.341-.485.916-.576.782-.114 1.231-1.212.481-.743-.052-.05-.654.043-.502-.441-1.484-.363-.084-.108-.273-1.028-.093-1.257-.65-.351-.145-.965-.81-.576.007-.086 1.158-.943.942-.558.712-.738-.483-.514.452-1.201.82-.693.468-.48.198-.572 1.425-1.092-.148-.333.36-.68.036-.56-.102-.21-.395.038-.37-.496-.457.03-.82.384-2.03-.18-.323-.243-.231-.443.62-.799.41-.534.265-.606-.052-.717.363-.257-.331-.44.197-.566 1.15-.507.548-1.795.743-.588-.09-.608.992.053.886-.49.922.293 1.797.327.24-.211.022-1.18-.376-.456.003-.39.584-1.624 1.16-2.266.649-2.933.425-.45-.17-.519-.329-.575-.974-.406-.475-.893-.704-.612-.672-.953-.707-.306-.186-.963-.71-.587-.348-.094-.638-.542-1.124-1.688-.708-.632.15-.578-.395-.641 1.073-1.116 1.065-1.408.37-.798.582-.462.17-.44-.45-.691.877-.716.204-1.384.948-1.291.314-.866.524-2.162.57-.57-.058-.812-.378-.371.264-1.015.685-1.672.873-1.337.425-.65-.015-.529 1.075-1.096.232-1.42 1.577-.413.889-.41.338-.673.945-.263.093-.656-.125-1.393.464-1-.174-.45-.378-.584-.05-.483.217-.58-.376-.986.2-.492 1.014-1.231.705-.724.033-.486.636-1.044-.006-.398h.401l.995-.432.085-.48.989-.836.4-.166.872.393.679-.723.415.356.31-.438 1.127.547.596-.615.487-.155.134-.556.577-.95.442.213.53-.092.325-.533.025-1.432.311-.543 1.006-.59.553-.46.637.085.328-1.087 1.203-1.482-.06-.184.047-1.201.57-.467.044-.452 1.024-.244.367.318.932-.27.6.25 1.37-.564.38-.317 1.05-.289 4.845-29.795.506-3.416.578-3.91 3.573-21.59.418-.693 6.488-9.137 1.01-1.562 10.027-14.259 8.154-11.733 36.434-52.03 18.192-26.037L452.044 46.1 466.71 25l.624.527.803.133 1.15.507.32.392.445-.31.69-.376.578.128.269.262.576-.373.534-.044.499-.21.707.177.344.49.931.494-.053.502.44.265.403-.28.164-.478.215-.01.521.173.276.31.563-.032.479.487.212.463.256-.096.05-.39 1.106.454.97.489.31-.069.843.78.51.135.02.44.641.013.137.975-.08.72.529-.269.067-.369.719-.097.162.185.088.69.682-.002.146.483.57-.112.614.26.262-.02.712-.554.88-.11.371-.63.569-.041-.212-.53.42-.018.81.16.358.639.35.561.224.298-.42.341.26.208.515-.468-.219-.563.56-.054.176.205.066.665.418.268-.016.441-.414.778.941.392-.159 1.348.831-.228-.216.57.008.858-.939-.383-.481-.116.732.65-.705.078.054.39.486.493-.204.301-.457-.359-.3 1.103.163.552.196.296.434.318.077.262-.327.464-.333-.176-.352-.051-.52.629.006.494-.62.126.111 10.417-.127 2.664.829 1.84-.235.529-.074.87-.18.311-.016.812.067.276.224.11.087.219.104 1.422-.223.848.164.573.286.76.171.656-.253.343.196.494-.262.491.122.355-.175.196-.146.478-.05.52.069.304 1.246 2.134 1.147.968.703.288.603.361 2.652 1.584 2.009 1.122 1.575.972.258.504.503.21.528.458.705.367.76 1.486.386.017.717-.267.12.138.109.661.195.092.209-.073.91-.75.967.86.258.47.662.11-.077.456.267.06.214-.187.252.013.627.57.077 1.084.41.107.429.265.26.335.33.03.322.287.322.832.403.432.333.232.183-.76.436-.323.352-.021.434.15 1.099-.24.634-.683.484-.38.48-.18 1.128.124.799-.492.877-.727.393-.663 2.346-1.308.756-.67.517-.46.703-.382.81-.96 1.2-.02 3.159-1.183 1.653-.077.762-.152 1.728-.976 1.07-.801 1.372-1.054.877-.16 1.51-1.012.6-.02.387.134.336.336.463.129.492-.103.576-.468.607-.492.426-.195.39-.052.453.273 1.217.042 1.692 1.208.3.087.494-.177.642-.493.833-.057 1.276-.366.552-.198 1.357-.031.08-.002.737-.181 1.037-.343.633-.57.433-.406.014-.017.933-1.069.47-.603.19-.429-.11-.365-.143-.404-.526-.977-.015-.42.473-.437.395-.586.097-.416.16-.7.263-.35.804-.798.623-.438 1.057.092 1.527.683.922.29h.304l.722-.166.993-.47 1.47-1.58.784-.454.776-.287 1.493-.133.486.056 1.01.46.926.04.513-.181 1.014-.298.662-.328.649.143.572.395.336.537.301.681.27.61.261.296 1.194.502 1.114-.292 1.34.3.545.078.503-.197 1.193-1.064.782-.198 1.325.265 1.684.038.901.085.68-.3.26-.204.133-.325.026-.46-.107-.414-.094-.285-.248-.368-.784-.843-.123-.294.026-.454.41-.574.058-.282-.512-2.737.033-.969.382-1.231.133-1.553.233-.61.57-.92.585-.75.632-.582.584-.387.898-.32.24-.038 1.475-.234.83-.297.122-.044.897-.105.139.037 1.054.28 1.64.47.873.132.431-.126.866-.56.258-.166.473-.16.736-.051.83.358.83.753.4.242.65.237 2.425-.038 1.099-.376.783-.185.997.396.428.465.07.199.017.653.185.45.747.754.452.244.472.1.982-.147.273.062 3.356 1.83.403.22 2.089.27.884.47.23.258.167.545-.117 1.568.043.481.145.384.994 1.188 1.222 1.651 1.258.367.408.417.575.8.257.199 3.896 2.132 1.381.968.395.412.39.67.235.95.286.48 1.747.655.061.038 3.462 2.136.494.414 1.662 1.093.907.771 1.426 1.64 1.196 1.771.921 1.191.297.409.54.136 1.748.469.574.339.917.476.966.728.656.634.16.77.004.563.006 1.296.31.203.694 1.133.232.183.577.969.076.207.426 1.16.548.894.692 1.127.01.017 1.107.75 1.351.615.874 2.193.5.492 1.151 1.06.163.267.325.821.155 1.232.022 1.123.057.697.479.562.264.304.372.393.6.425.972.166.833.333 2.247 1.146 1.759 1.298.651.294 1.298.224.357.158.65.47.83 1.046.899.541 1.372.76.652.331.138 3.73.075 2.005.271 8.46.254 8.543.487 16.378.041 1.846.358 16.177v.023l.28 7.68.44 14.421.562 18.393.017.396.804 18.662.402 9.327.264 6.097.506 13.583.735 19.68v.005l.578 19.627.32 10.857.239 8.105.57 19.34.018.782.172 7.772.044 1.21.116 3.204.191 1.024.369.825.111.026.283-.205.199.033.307.598.414-.066.436.332.007.556.607.06.636.334-.154.443 1.243 1.224-.195.623-.332.296-.213.414-.3-.119-.272.506-.6-.09-.183.14.052.334-.38.758-.172.569.15.72-.132.134-.949.4-.421-.273-.144.513-.611.006-.302-.093-1.659 1.669-.278.79-.637.13-.083.177-.07 1.873.18.98.205.365.872.366-.058.095-.127.208.31.565-.095.363 1.052 1.707.996 1.08.772.574.885.475.435.413.64 1.105.183.85.176.305 1.169.994-1.262.744-.252.325-.19.064-.877-.156-.716.053-.356.227-.059.123.018.299-3.103 2.76-.63 1.883.512 2.757-.136 1.682-.067.834-.522.492.477 2.546 1.978.973 1.762 4.051-4.114.515 1.173 6.985-2.165.57 1.91 2.8.333.49 5.126-.073 2.187 2.013.999-.589.429-.552.866 1.087.458.16.277.51.53.25.598.044.289-.24.59.306.108-.066.232-.52-.027-.58-.834-.484-.12-.446-.997-1.183-.46-1.26-.16-1.002.695-.024.337.105.57.805.933 1.063.7-.394.526-.05-.135.43.68 1.195.724.94.561 1.966 1.046 1.287-.198.674 2.01 2.54.654 1.493 1.366 1.337.484-.215 2.64 2.425.809-.57-.632-1.474.776-.416 1.078.745 3.54 3.116 2.77-.204.98.875 3.306 1.506.655-.054.072-.468 1.53-.069 1.729.527 2.336 1.307.062.035 2.841.102 1.232-.988.344-.68-.1-.484-.677-.375-.073-.499.607-.019.668-.114 1.25-.579.66.736.582-.028.338-.552 1.57-.367.862.354.363 1.225 2.728 2.717.665.97.317 1.46-.676.71.32 1.75.69.832-.063.514.282.865-.382.613-.208 1.364-.435.05-.11-.119-.24-.03-.23.085-.309 1.094-.07 1.09.049.422.504 1.085-.021.762.463.187.389.27.135.669.807.698.667 1.589.003.29-.318.116-.371-.71-.256-.162-.237-.002-.11.372-.081.269-.291.345-.295-.045-.444-.463-.292.094-.39-.338-.667.035-1.159-1.037-.243.014-.398.293.063.35.495.445.18.598-.056.53-.32.139-.708-.672-1.04-1.328-1.095.754-.066.22.056.892.388.305.621.18-.045.215-.47.32-.554-.416-.286.257-.544-.233-.381.185-.26.519-.509-.29-.481.377-.08.556-.131.437-.807.119-.663-.474-.532.298-.094.25.113.666.553 1.534.84 1.034 1.14 1.029.161.713.566.79.08.536-.418.499.105.855.102.504.39.384.493.252.237.641-.235.403-.316.149.53 1.949.614 1.309.134.421.512.125 1.17.049.166.474-.021.292.317.552.365.381.504.86.735.433 1.543 1.845 1.257 1.215.473.574.152 1.054.533.867.057.41.574.37-.03.262-.358.426-.334.142-.519-.03-.412.401-.161.234-.417 1.15.14.869 1.156.734.034.282-.292.196.02.696-.456.361.082.382.274.952-.367.71-.517.189-1.01 1.209v.52l-.475.425-1.187.46-.407.397-.053.171.056.363.644.891.02.592-.141.554-.698 1.297-.282 1.683-.741.157-.45.525.425.014-.017.651-.056.075-1.126.535-.262.57-.317.105-.24-.286-.403-.336-.293-.088-.21.1-.12.174.125.758-.509.95.03.29.353.15.457.194.27.748.867.195.066 1.278.28 1.139.501.486-.192.516 1.505 3.062.232.28.282.165 1.017.136 1.035 1.75 1.082 1.173.462.917.01.637.93 2.015.593 1.745-.166.574.071 1.242.504.424 1.126.216.851 1.158.392.587.483.434.889.345.144.056.34.85-.097.952-.814.436-.092.446.014.427.133.618 1.875 1.016.272.147 1.054.358.52.082 1.34 1.816 2.296 2.008-.03.308.454.411.784.035.531.639.717.176.007.002.14-.039 1.46-1.341 1.24.02.55-1.458-.387-.903 2.131-.584.016-.005 1.075-.43.295-.284.18-.371.049-.819-.406-.36-.726-.368-.158-.894.441-1.63.487-.329.665-.247-.067-.644-.278-.336-.053-.392.414-.81-.095-.553.077-.698.113-.232.898-.747 1.885.131.218.097 1.235.551.016.015.566.528.656.559 1.04.307.421.514.305 1.273.256.218 1.158.506.45.63.446.387.624-.034.703-.601 2.114-1.145 1.957 1.103 3.5.139 1.006.326.28.135.233.244 1.956 2.974 2.626 2.983.986 1.537 1.657 2.583 2.964 7.73.65 1.409-2.245.714-.354 1.358-1.205.262-.135.375 2.38 2.032.413.354.61 1.187-.205.258-.63.347-.648.777.677-.062.713-.064.694-.53.633.183.943 1.073 1.165 2.159.418 2.31.737 1.529 2.178 2.948.664 1.52.185 1.105-1.001.864-.041.045-.176.19-.126.137.238.564.552.372.007-.005.48-.373 1.055.387.454.713.235.37.23 2.245.058.56.875.195-.1.948.932.094.612.046.27.334 1.107.004.589.37-.053.468-.44.629-.277.45.244.484 1.492.512.165.495.51.194 1.454.356.478.353.544.73.247 1.032-.027.937-.032 1.076-.267.243-.497.164-.417.54-.375.483.748 1.95.466.441.28 1.362.035.175.11.537.076.37.266 1.297.093.206.135.3.169.376.141.455.024.075-.583.637-.38.259-.928.632-.414.82-.084.167.067.192.075.218.779.626.344.489-.16 1.337.234 1.286.416.9.674 1.932 1.1-.37-.018-.535 1.258-.815 2.16-.306.36.55-.076.618-1.521 1.616-1.34.39-.966-.515-.513.225-.336.859-1.045 1.03.026.386-.835 1.293-.34.53-.656.324-.536-.175-.604.205-.076 1.048-.24.901-1.085.739-.744.319.132.57.573-.118.05.38-.96.347-1.108.171-1.468.602-.075.434-.595.421-.478-.233.306-.445-.205-.604-.095-.572-.025-.612-.018-.431-.508-.088-.363.808-1.217.193-.63.458.07.047.597.394.407.272.193 1.217-.325.32-.108 1.352-.899.148-.084 1.168-.303.866-1.502.5-1.397-.54-.956.332-.77.326.027.612.854.687.074.687-.47.564-.296 1.176.124.68-.156.517-.51.18-.208 1.005-.419.099-.448-.38-.388.232-.032 1.012-.083.17-.15.308.178.582-.651.157-.813 1.352-1.567.397-1.261 2.13-.95 3.171.109.28-2.284 1.372-1.823-.27-.724.251-.77 1.554.158 1.654.324.461-3.532 1.484-3.211.552-.556-.244-.321-.697-.344.406-.459-.2.267-1.018-.439-.128-.112-1.08.266-1.6.486-1.499-.929-.687-.96.396-1.762.21-1.206.622.433 1.935.431.924-.36 1.025.19 1.221.44.165.757-.028.428.816.671.553.088.431.812.44.427.414-.73.176-1.022-.252-1.149-.753-.54.056.016.433-.79.504-.132.627-.914.094-.945-.147.062-1.268-.692-.155-.626-1.315-.026-1.228.315-1.226-.524-.161-.403.228-.3-.388.273-.91-1.735-.993-.855-.194-.541.153-.592-.04-.505.726-.288-2.193.722-.19.06-1.306.503.44-.133 1.754.832.043.696.263.328.097.169-.331.047-.688-.44-.129.004-1.516.588-1.177-.314-.675-.033-.937-.343-.494.11-.439 1.136-1.206-.066-.67.114-.994.03-.251-1.433-.322-1.668.626-1.042.318-.422.128-.41.631-.432.039-.58-.111-.35.337-.986-.056-.825-.133-.165-.607-.546-.126-.31.444.125.465-.588.897-.274.417.67.389.57-.2.701.444-1.147.22-.02.47-.935.106-.629-.448-.343-.53-1.603.634-.522-.488.377-.59-.77-.37-.86.21-.24.369.275.64.029.83-1.517 1.062.776.515 1.471-.267.132.681.365.096.344-.481.756-.063.624.304-.698.79-1.288.253.086.395.653.085-.56.525.163.536 1.233-.054.783.511.12.698.786.803.191.703.58 1.691.32.893-.117 1.801-.723 1.554-1.375 1.098-.594-.62-.053-.878-.781.005-.316.1-.408.272.305.46.135 1.84-.35.3-.335-.24-.331.318-.066 1.793-.337.42-.303.976-.625.85-.51-.057-.471-.49-1.128-1.355-.287-.933.157-1.39-.246-.86-.38-.565-.607-.811-.354-.856 1.08-.145.269-.587-.62-1.208-.563-.632-.425.267-.27.552-.663-.375-.27-.497-.568-.169-.308-.091-.115.871-.278.335-.348.409-.007.868.462.852 1.09.144.22.101.082 1.371 1.237 1.297-.388 1.387-.635.456-1.308-.173-.6.454.167.751-1.089-.178-.648.094.252.91-.517-.178-.275-.417-.556-.783.188-.732-.625-.305-.789.207-.944-.747-.88.264-.631.6-.957-1.597.465-.16.214-.522-.057-1.327-.21-.997-.645-.855-1.26-.787-2.556.889-.147 1.395-.989 1.018.183.964-.413.664-.365-.097.192-.801-.172-.862-.55-.236-.34-.527-.223-.014-.256-.016-.829 1.043-.106.103-.39.376.101.763-.114.98-.432.111-.526-.696-.328 1.095.464 1.223.398.884-.246.787-.63 1.303-.08.907-.184 1.056-.235.685-.416.17-.228.948.097.973-.266.768-.429.745.82.803.698 1.126.445 1.26.473 1.183-.746.973.074.715-.518.22-.71-.11-.82.425-1.78-.126-.699-.305-.634.6-1.16-.038-.788.314-.608.272-2.39.108-.584-.163-.572.27-.481-.347-.204.018-.375.035.048.397-1.152.174-.577-2.391-.648-.086-.558-.241-1.343-.106-.27.827-.282.131-.447-.253-.333-.376-.936.208-.382.554-.86.22-.923 1.284.114.454.535.213-.04 1.125.58.02-.451.665.022.761.055.687-.802 1.013-.383.511.194.572-.62 1.178-.584.193-.88-.89-.645-.13-1.68.533-1.435-.21.033-1.874.397-.603-.33-.56-.01-1.104-.285-1.076-.175-1.083.011-.906-1.168-1.634-.348-.999-.17-.69-.628-.417-.504.125-.97.241-.819.019-.134.913-.796 1.362-.023 1.234.214 1.805.317 1.007.434.416-.195.375-.902-.139-.793-.903-.941.062-.57-.319-.823-.673-.34-1.426-.012-1.812-.056-.759-.754.04-.657.034-.646.234-.7-.416.328-1.313-.592-.49-.775-.524-.08-.288.018-.688-.478-.277-1.134-.477-.755.237-.477-.242-.163.693-.277.478.124.612.582.094.23.464.478 1.69-.271.696-.537.267-.559.812.447.46-.371 1.06-.893.494-1.301.142.089.65 1.034.771.56 1.98.486.604-.02 2.03.445.388-.24 2.324-.566 1.346-.82.257-.028.869-.826.386.03 1.086-.282.37-.83-1.249-.707-2.087-.563-.747-.84.202-.17.04-.458.52.568.93.352 1.007.027 1.088.269.574.392 1.152.552.312.158.469-.75.527-.612 1.65-.275.588.415.643-.367 1.28.113 1.965-.41.66-.052.837-.303.986.595.832-.69 1.172-.748 1.95-1.183-2.764-.462-1.889-.443-.28-.05-.656.204-.438-.11-1.487-.381-.753.517-1.103-.178-.645.137-1.025.112-1.346-1.173-1.932-1.137-.444.12 1.885.032 1.343-.875-.124-.497.448.02.835.365.064.305.573.098 1.051-.34 1.359.163.537-.306.623.889.705-.615.124-.35.518.17 1.138-.896.442-.958-.558-.595-.683-1.175-2.684-.443-2.539-.434-1.442.014-.908.096-.547-.451-.532-.235-.832-.944-1.538-.233-.648-1.46-.365-.322-.14-.155-.066-.384.626-1.039 2.165-.461-.139-.354-.568-.588-.313-.498.447-.661-.348-.562-.749.039-1.489-.409-.426-.44-.171-.47.047-.046-.435-.444-.389-.508.012.031 1.378.317 1.154-.278.55.368.247.059.978.549.206.556.495.495 1.042 1.167.227.435-.523.914.746.162.723 1.036.811.583.095.349-.625.423-.518.157.504-.19 1.203.276.902.694 1.691.367 1.7.627.384-.08 1.274-.133.476.337.428.832-.165.305.574.086.507-.465.375.774.454.154.36-1.22.647-.543.122-.888.93-.363.902-.04.526-.69.053-.414-.538-1.271-1.89-.703-1.771-.309-.495-.523-.904-.556-.46-.435.047.01.472-.04.7-.104.903-1.02-.05-.785-.963-.096.173-.148.269.359 1.41.476.134.902 1.819-.003.924-.717.65-.454.993-.533.546.099.831-.415.955.497 1.045.01.655-.074.643-.497.153-.299-.813-.67-.677-.26.08-.499.156-.535.485-.355.408-.024.547.064 1.236.445 1.256-.063 1.175-.165.769-.674.848-.304-.268-.384-1.206-.537.413-.057.717-.413.112-1.042-.77-.625-1.35-.813-1.24-.393-5.372.462-.661-.494-2.645-1.008.495-.105-.061-1.294-.746-.132.621.974 2.114.056.12-.014 1.055-.3.107-.448.1-.253-.352-.073-.1-.998-1.384-.194-.565-.204-.596-.078-.684.243-.551.37-.212.025-.015-.232-.686-.657-.095-.483-.499-.216-.292-.342-.465-.219-1.59.343-.988.12-.407.083-.288-.464-.499-.016-.448-.545-1.175-.068-.52-.586-3.49.002-2.964.496-.468.107-1.341-.412-1.084-.57-1.259-.827.38-.756.306-1.168-.527-.89-.737.684-.304.023-.617.07-.184.068-.182-.344-.863-.807-.419-.67-.857-.955-.597-.69-.022.04.278.129.879-.533 1.468-.515.548.12.542.264.539.726-.015.99.524-1.256.331.19.816-.608.447-.833.289-.825-.066-1.713-.138-.472.1-.584-.184.747-.763 1.38.046-.416-.863-.574-.658.043-.492-.158-.686-.823-.188-.65-.98-.25-1.592-.566-1.95.445-.585-.01-.482-.008-.46-.447-.608-.617-.06-.87.053-.029.295-.062.612-.025.58-.28.55-.157 1.236-.414 1.132-.01 1.342-1.197.022.402 1.353-.327 1.038-.561.666.335.622-.057.643.508.53.212 1.09-.848.454-.61-.754-1.546-1.169-1.531-2.366-1.213-.885-.295.104-.246.087.283 1.591-.304 1.276-.463.519-1.02-.238-1.044.417-.519-.607-1.164-.161-.243.621.41.61.489.971.71 1.113.361-.08.025-.617.327-.006.479.391.585.244.102-.53-.304-.592.434-.08.413.718-.276.804-1.01.381-.598.932-.803-.072-.456.352-1.423.153-.557-.752-.696-.351-.517-.5-.729-.132-.81-.676-.548-.208-.395.26.01.545-.492.988-.02.908-2.261-.543-.479-.391-.555-.68-.272-.041-.383-.058-.138.475.333.357-.073 2.18-1.11.926-.032.331-.534.623-.24.912.558.79.766.169.326-.09 1.084-.297.302.65.046.616.908-.051.546.1.13-.91.689-.121-.088-.907.094-.874.895-.778 1.104-1.253 1.053-.018 1.067.816.523.827.405-.299.751 1.029.528.003 1.051-.128.022-.016 1.413-1.027.901-.343 3.239 1.328.462.71.285 1.34-.022.764-1.049.516.012.629.199.139 1.425.995.53.553.715.747.406.424.537.561.046.025.615.326.667.642.12.38.1.32.074-.033.027-.012.646-.283.238-.104.843-.01.775.95.26.317.188.652.592.793.462 1.211.728.99.03.106.388 1.302-.081 1.211.504 1.592.447.475.35.415-.291.738.383.867-.196 1.206.31.78-.553.643-.243-.175-.265-.505-.327.007-.348.76-.662 1.59-.02.876.2.439-.04.927-.456.146-.25-.04.016-.624-.333-.248-.262.332-.236.297-.28.552-.237.952-.828.644-1.045.489-.522-.576-.418 1.016-.495.824-.595.14-.416.39-.39-.15-.38-.091-.538-1.449-.509.083-.348.918.414.648-.911-.01-.82-.906-.893 1.001-1.13-.067-1.068-.513-.774.505-.047.495-1.568.028-.803-.06-.641-1.228-.3-.396-.245.136-.338-.162-.502-.387-.237-.183-.652.266.05.729-.626-.354-.415 1.356.304.22.05.036.503.703.056.078.055.077.674 1.046-.102.403-.162.281-.05.087-.036.107-.242.737.867.28.777-.126.67.593.167.772.37.275.456 1.863.414.437-.165 1.026-1.008.784-.488 1.323-.573-.19-.447.317-.044.927-.373.746-.699.231-.365.444-.433.069-.305.048-1.195.025-.548.719-.877-.33-.582-1.408-.849-.853-.487-.759-.8.233-.468.372.06.36-.23.41.087.705-.593.259-.776-1.199.612-1.265-.694-1.155-1.277-.891-.619.149-.652.156-.114.349-.39-.112-.202-.503-.595-.535-1.019-.45-.508-.341-.429-.601.42-.919-1-.906-1.378-1.984 1.024.029.06-.876.58-.155.066-.512-.594-.647-.588-.283-.324.224-.51.112-.362.12-.6-1.158.19-1.229-.753-.743-.03-2.996 2.862-2.112.44-.726-.067-.383-.075-.424.408-1.672-.412-.721-.65.337-.431 1.216-.737-.571.017-.352.676-.431-.039-1.05 1.08-2.509.576-.099 1.436-1.577.14-1.206-.266-.92-.142-.494 1.363-.94.069-.806.344-.155.35.29.372.576.65-.302.064-.546-.057-1.309.61-.482.725-.12.122.612.594.37.518-.166.589-.556-.098-.498.335-.56.06-.728-.266-.723-.95-.312-.414-.975-.053-.907-.438-.741-.129-.594-.322-.354-.36-.396-.42.004-.546-1.255-.61-.615-1.497-.485.133 1.524.175.174-.217 1.998-1.683 2.05-.818.469-.595 1.5-.484.34-.816.346-1.382-.1-.488-.968.318-.666.336-1.025-.162-.613-.53-.355.163-2.708.161-1.073.473-1.172.167-.947-.558-3.26.116-1.639.203-1.27.942-.122-.175-.48-.43-1.18.125-1.272-.153-2.935-.616.081-.011.013-.56.612-.254.561-.346.5.024 1.596-.617-.027-1.386-.451-.864-.368-.527-.555-.76.007-.403-.172-.932.775.668 1.043.113 2.865.193.796.515.464.862 1.839.02 1.452-.605.807-.83.376-.504.297.891 1.368 1.133 2.926-.048 1.698.195.953-.955 2.068.128.743-.13.756.376 1.022.393.19-.523.596.113.688-.624-.082.025.552-.38.108-.294-.486-1.26.042-.732-1.963.054-1.162.303-.82.187-.496.758-.374.254-.585-.547-2.137-.704-3.515.689-.118-.152-2.976.506-.19-.161-1.123-.844-.64-.43.477-.222.979-.348.44-.062.079.051 1.052-.377 1.654-.652.067-.16.519-.068 1.338-.656 1.996-.891.551-1.375-.34-.316.162-.665.974-.29.966-.713 1.1-1.03.162-3.161-1.217-.896.191-.425.55-.207.267-.001.004-.13.712-.02.11-.027.15-.002.015.055.384.05.355.042.29.005.035.13.91.98 1.215-.116 1.11 1.42.521.525 2.02.228 1.566-.594 1.132-.674.757-.128 1.098-1.116 1.543-.15.207.094 1.482-.624 1.832.125.983.35 1.064 1.21 1.528.78.67.183 1.222 1.424.164.692-.046-.414-.979.043-.87 1.184-.13-.076.832.508.53-.407.522-.2 1.14.556 1.018.034 1.165 1.216 1.866.292.45-.019 1.314-.55-.212-.473.116-.737-.61-1.313.053-.707-.757-.116-.8-.657-.029-.634-1.086-.399.224.046.692-.211.623.413.907-.177.477.299.507.985.024.658.064 1.47.857.506 1.006.277 1.783.873.912.196 1.02-.207.879-.65.055-1.168-.295-1.367-.824-.849-.234-.48-.433-.01-.803.501-.736-.335-.543-1.022.05-.804-.436-1.56-.985-.686-.293-1.328-1.152-.522-.87-2.22-2.336-1.88-.132-1.616-1.062-.23-.847-.131-.127-.26-.254-1.05-.042-1.829-.527-.53-.155-.454-.55-1.54-.033-.917-.573-.848-.94-.369-.397-.401-.068-.007.663-.49.581-.695-.102-.619-.582-.194-.54-.48-.614.02-.16.08-.68-4.418-2.702-1.193-1.14-.008-.82-.915-.502-.78.53-.96.288-1.732-.02-.627.988-.807.969-.378.365-1.027-.15-1.09.301-.03.693-.423 1.044-.642.49-1.098-.105-1.37-.184-1.362-.327-.49.255-.614-.52-.188-.94.107-.974.549-.692.665-.521-.72-.982-.177-.69.368-1.964.233-.391.003-.872-.04-.524.595-.23.118-.546.301-1.406-.176-.893.623-.757.231-.631.09-.245-.04-.4-.061-.587-.057-.54-.015-.002-.64-.101-.492.027-.272.015-.168-.508-.065-2.11.493-.468.007-.007.764.03.175-.765-.004-.008-.328-.607-.654.041-.56-1.086.006-.398.405-1.744.392-.584-.1-1.204.256-.572.502-.488 1.579-.967.192-.79.015-1.38.092-.854.311-.446.946-.475 1.225 1.282v-.004l.058-1.703-.478-.831-.154-.943.465-2.24.875-2.379-.148-1.051.13-1.052-.157-.521-.154-.513-.212-.702-.705-1.952-1.32-1.693-.48-1.227-.766.198-.536.138-.09 1.958-.399.366.08.941.515.83-.536.983.185.47-.322.51-.69-.14-.433.367-.901.696-.687.26-.613.548-.43.656-.067.762 1.359 2.094.15.725 1.883-.523.451.384-.153.557-1.607.24-1.144.616-.32.91-1.807 1.375-1.355.658-1.048.796-.856 1.06-.946 1.172-.521.508-.124.492-.78.388h-.615l-.339-.543-.673-1.562-.309-1.158.109-.355-.613-.938-.163-.249-.587-.3-1.036.227-.637-.724-.653.149-.838-.612-.322.837-.47.33-.09.678-.03.567-.068.153-.575 1.285-1.034.959-.756 1.26-.407.021-.574-.474-1.172.425h-.013l-.557.047-.757.113-.874.486-1.526.008-.726.003-.839-.65-.495.36-.41.298.601.719.574 1.534 1.432 3.477-.441.405-.499.727.03.06.741 1.536.594-.07 1.767 1.11.954 1.287.845 1.397 1.159 2.703-.245 3.404-.684 3.419-.667 2.08-.691 1.298-2.555 2.902-.387-.708-.425-.047-1.47.18-.058.027-1.262.618.4.84-.347.511-.578 1.242.442 1.02-.11.783-1.824 3.648-1.73 1.74-.48 1.4-.68 1.045-.644.848-.516 1.856.018.298.008.126.103 1.688-.556.67.135.602-.24-.17-.42-.298-.016-.01-.73.002-.255.367-.437.403.066.224.193.652.439.108.406 1.423.046.161-.041.534-.298.47-.213.336-.016.097-.233 1.349.205 1.262.372.361-.179.821-1.026 1.3-.207-1.493-.662-1.278-.809-1.277-.328.184.15 1.096v.548l-.688 2.326-.314.878-.132.682-.041.217.441 1.276-.222 1.47-.41 1.021-.768.075-.876.771.257.33.33.364.511-.55 1.099.033.439-.038.034.99-.101 1.097-.61 1.517-.241.5-.61.294-1.025-.875-.879-.035-.402.331v.805l-.546.552.037.184.046.227.028.138.436.741-.034.03-.691.585.354.884.417.176-.078.671-.59.407-.354.244.625.768-.032 1.943.804-1.102.956-.575.45.087 1.944-1.145 1.346-.169.571-.064.19.53.997-1.28.846.056 1.145.581-.567 1.295-.769.186-.105 1.247-.072.476-.984 1.727-.71-.142-.55.499-.413.598.14 1.36-.708-.093-.363-.048-.488.838.576.938.362 1.018-.505.836-.629.207-2.013.503-.62.84-1.418.68-.442.33-.438.326-.34.873-.383.386-.088.088-.298.299-.837.347-.356.498.426.809.26 1.358.406.807.772.476.919.182.038.44-.513.81-1.963-.303-.206-.721-.039-.661-.323-.08-.412-.102-.586.589.112.77-.55.92-.44.552-.035.772.839.246.026.008.753.22.699.33.537.804-.274.237-.967.395-1.941-.733-.332-.44-.447-.919.003-1.248-.698-.11-.44 1.03-.658-.383-.291-2.113-.854.772-.345.983-1.069 1.133.184.844.17 1.01-.612.175-.085.038-.516.23-.095.507.25.426-.502.605.065.86.032.42-.04.453-1.101.387-.428 1.267-1.4 2.189-1.208 1.038.188.644-.277.622-.435.073-1.111-.624-1.214.441-1.159.003-1.07.257.243 1.06-1.807 1.239-1.045.498-1.113.14-.874.54-.832-.316-.073-1.436.815-1.189.218-1.828.479-.698.393-.864-.54-.387-.845-.626-.622-1.948-.32-.143-.222-.1-.698.193-.657.672-.294.625-2.034 1.755-.985.227-.516.404-.33-.515-.022-.423 1.054-1.415 1.205-1.12.137-1.159-.347-.218-.587.401-.515-.037.075-.699-.882-.59-.445-.343-.55-.425-.512.803-.81.33.55 1.508 1.064.774.183.846-.848 1.14-.81.182-.551-.222-.587-.81-.786.538-.062.637-.555 1.47-.813 1.544-.883-.296-.406.882-.445.563-1.47.058.149-.809.985-.797 1.007-1.332-.492-1.117.285-.58.838-.803.223-.993.735.333.332-.846.038-.551.37-.772 1.03-.586 1.51-1.284-.207-.536-.673-.021-.85 1.106-.698.035-.035-.735.481-1.543-.477-.406-.546-.317-.151-.088-.48.844-.405.477.33.515-.002.552-1.957 1.623-.325-.342-.18-1.434-.182-.956.777-2.203.591-1.322-.624-.295-.287.023-1.035.084-.625-.149-.16.93.009.834-.212.937-.455.935.034.92-.81.732-.773.292-.631-.275.011-1.491-.18-1.03-1.027-.738-1.559 1.838-.512 1.941-.593 1.432-.775.916-.367-.221-.163-1.343.689-1.818.077-1.139-.81.255-.883.29-.764 1.652-.05.11.255.258-.047.45-.924 3.628-.56 1.158.109 1.232-.82 2.462-.65 4.608-.441 1.132-2.04 3.012-1.239.795.202.36-.219.698-.42 1.34-1.046 2.008-.038.576-.565 1.24-.3 1.097-.728 1.832-.563.612-.33-.26-.914 1.01-.199-1.275.466-1.626-.318-.527-.344-2.112-.618-.79-.069-.997.284-.68.165-.57-.957-.227.006-1.068-.065.004-.894.064-.736-.115-.689-.722-.457-.2-.018-.008-.86.34-.23.438.04 1.16.399.604.453 1.84-.43 1.968-.197 1.605-.378.704.16.66-.224.782-.64.414-.349-1.717-1.012-.335-.566-.49-.49.065-.189.025-.432.436-.207 1.658-.347 1.17.053 1.183-.17.375-.852-.126-.141.79-.72 1.002-.368.513-.55-.192-1.196-.287-.27-.284.143-1.23-.19-.615.267-.506.95.07.958-1.155-.302-1.067.42-2.21.409-1.11-.327-.144-.522-1.492-.911.105-.627.073-.38 2.22-.894.397-.365-.16-.143-.063-.26.33.51.779.19.91-.326 1.251-.252.566-.683.463-.353-.101-.2-.763-.676-.498-.18-.844-.104-.67.204-.709.727-.576-.182-.33-.145-.263-.887.215-.54-.004-.382-.003-.117.848-.303 1.03-.668.585-.636.011-.017.125-.09.666.326.56.389 2.291-.224.368-.436-.89-.5.985.432 1.303.013.037-.086 1.26-.02.288-.412 2.743.158 1.447-.528.7-.892-.511-.538-1.651-.518-.9-.046-1.336-1.518-1.226-.547-.816-.592.142.073-1.334-.009-.908-.562-.44-.175-.608.521-.623.202-2.027.192-.921-.016-.737-.03-1.447-.009-.38v-.024l-.025-1.137-.308-1.804.153-.618.296-1.19-.029-.958-.36-1.035.36-2.5 1.052-3.38.895-1.319.228-.992-.236-.2-.262-.222-.379-.321-.485.769-.698-.117-.668.658-.411.77-.127 1.95-.089 1.73-.488 1.1-.05 1.62-.344 1.36-.11 1.106-.35.918-.594.548-.031 1.365.32 1.744.156.84-.105 1.003-.662 2.346.316 1.811-.233 1.363-1.423 2.172-.473 1.98.097 1.861-.423 1.228-.294 1.006-.18.195-1.299 1.415-.307.334-1.263.764-.771 1.594-.924 2.918-.391.943-.518.008-1.326-.436-.239.579-.52 1.263-1.23.05.059-1.209-.703.03-1.116.617-.563.808.496.66-.176.527-.7-.192-1.114.395-.414.588-1.144-.234-2.12 1.013-1.084 1.024.677 2.376-.717 1.176-.522.328-.214-.309-.225-.844-1.074-.289-.735.588-.587-.258.41-1.618.36-1.18-.738-.194-.427-1.142.385-1.88.648-1.447.45-.587-.918-.528-1.26.318-.354 1.698-.786 1.496-.16.305-.043-.487-.087-.994.5-1.96-.05-1.095.04-1.161.186-.51.979-.802-.106-.249-.376-.885-.682-.432-.28.44-.333-.423.225-1.61.378-.735-.625-.229-1.117.37-.542-.315-.52.206-1.168.461-1.086.682-.307-.575-.988-.751-.4.685-.439-.14-.123-.483-.69-.03-.302-.353-.362-.595-.333-.136-.696-.284-.802 2.022-1.14 2.35-.405.086-.41.088.053-.35.063-.408-.188-.162-.383-.48-.516-.646-.758 1.357-1.281 1.831-.754 1.062-1.03-.42-.62 2.024-1.727 3.41.32.35-.041.442-.905 1.472-.29.558.213.837-.41.216-.778.026.159-.738-.245-.738.035-.257.27-2 .965-1.393.068-.189.481-1.33.182-.505-1.1-.644-1.526.644-.53.916-1.845 2.156.558-2.73.348-1.03-.362-.523-1.126 1.13-.851.062-.832 1.208-.595.176.687-1.795-.391-.642.37-.442.135-.163.775-.929.112-.266.092-.22.536-1.278.464-.464 1.138-1.138.317-1.51.72-1.172 1.389-1.568.738-1.085.39-.573.243-.737.194-.585.264-.799.036-.109.218.225.447-.29.194-.661.668-.286.401.375.087-.153.746-1.312-.02-.303-.006-.08-.097-1.428 2.066-2.701.515-.997.391-.54.593-.177.35-1.148-.036-.286.191-.49.663-.537.082-.067-.215-.445-.214-.14-.119-.078-.069-.045-.451.657-.704.249-.306.807-1.099.728-.903.036-.067.003-.302.012-.16-.093-.052-.03-.373-.217-.522.435-.22-.003h-.028l-.453-.007-.468.454-.462.087-.678 1.023.067.48-.974 1.056-.439-.301-.448.362.106.37-1.008.798-.12.442-.37.326-1.41.914-.15-.31.604-.877.044-.516 2.356-2.179.199-.716.645-.869 1.145-.82.344-.844.312-1.212.594-.25-.1-.739-.626-.105-.33-.056-1.04.538-.64.84-.743.468-1.415-.114-.574.527-.064.058-.802.737-.577.53-.448.506-.765.866-.246.277-.103.117.323.595-.677.838.504.856-.671.47-.505-.783-.819.468-.796 1.39.662.157-.573 1.284-2.022 1.814.46-1.137.238-1.277.288-1.63-1.346.841-.411-.31.135-.668-.741.21-.233.697.046.825-2.104.951-.759 1.28-1.223.313-.075.114-.494.763-.189.292-.274.479-.144.253-.497.496-.667.666-.64.692-.848-.089-.547-.62-.214-.242-.919-.274-.048.068-.292.407.361.486.252.373-1.166 1.274-.421.842-.572.95-1.306.829-2.19 2.124-.69-.179.818-2.425.024-.908-.446.19-1.349.576-.34.679-.824.335.283.745-.243 1.178-.616 1.381.757 1.062-.21 1.438-.646.771-1.055 1.26-2.15 2.567.02.072.125.43.058.199.067.134.333.67.028.055-.317 1.084-.193.624.016.024.486.748-.2.848-.627-.196-.616-.715-.241-.034-.554-.079-.624-.64-.59 1.27.127.375.33.967.7.198.283.672-.714.543-.205.035-.418.071-.317-.409-.125-.162-.564-.826-.198-.29-.237.745-.112.35-.99 1.39-.013.07-.192 1-.13.31-.022.052.866.671.786.244.29.09.315 1.007-.526.566-.117.126.02.08.167.672.313.252.62.5.06.12.44.892.553.193.445.009-.268 1.515.135.08.249.15.179.675.189 1.101.04.233.256.19.136.67.628.124.537.573.57.503-.424 2.201-.568.856-.108.913-.072.607-.117.316-.314.85.445.287-.045 1.073.487.063 1.028.133.539.689-.318.764-.755 1.004.387.67.54.152.257 1.153.463.877-.718.937-.75.659-1.67.132-.068-.175-.28-.715-.1-.257-.554-.416-.711.108-.642.495-1.971 1.963-1.104-.28-.989-.165-1.002.1-.875-1 .094-.757-.267-.168-.215-.136-4.222 2.512-1.369 1.326-.505 1.036-.13.218-.403.68.301.46.115.176.205.313.407.415-.9.429-1.252-.09-.069-.087-.145-.183-.124-.156.153-.276.194-.35.49-.557-.559-.91-.964-.37-.118-.045-2.033.015-1.746.963-.09.095-1.252 1.315-1.178 1.901-1.725 2.784-.894 2.24-.06.149-.155 1.942.34 3.755.397 1.184.395.652.817 1.35.75.624.605.042.242-.547.174-.392.542-.273 2.542.087.634.107 1.566-.244-.355.723-.848.77.283 1.099-.713-.071-.232.685-.804.714-.912-.433-1.946.598-1.355 1.039-.99 1.38-.096 1.495-.977.352-.617.92.997.319-.037.663-.758.404-.582.657-.174.888-1.318 1.696-.025.032-.015-.022-.336-.484-.089-1.038-.023-.269-.746.053-.627.601-.213.006-.755.02-.763.437-1.034 1.387.229.361.155.244.08 1.48.901 1.558.283 2.487-1.256.679-.694.627-1.842-.012-.856.169-.695.61-.206.907-.477.104-.539.116-.146.39-.088.236-.084.226-1.022.27-.104-.058-.908-.5-.066-.137-.34-.715-.033-.004-.067-.009-1.242-.167-.333.665-.698-.26-.79.289-.623-.042-.35.83-1.303-.898-.519.24-.372-.124-.36-.121-2.796 1.503-.236.247-2.769 2.898-.372.61-1.092 1.792-.613 2.063-.353.732.098.794-.529.755.12 1.042-.082.154-.075.141-.938.47-1.373 2.516-.183.549-1.305 3.918.257.793.553.405.072 1.575.85 1.353.119.23.854 1.65-.165.907-1.838 1.9.16.633-.422.402.249.87-.24.895-.446.702-.319.703-.645.737-.38.24-.011.006-.233.146-.11.165-1.059 1.57.287.533.16-.035.438-.098.308-.069.907.63.24.447.508.622-.002.302-.243.091-.037.014-.644.24-.33-.193-.81-.476-1.188-.466-1.203.956-.066.052-.17.496-.686 2.004-.025.074-.135.395-.178.519-.031.884.401.16.174.068-.016.428-.012.318-.044.929-.395.185-.985.072-.138.01-.26.756-.149.436.088.548-.096.631-.033.406-.353.2-.37.12.21.328-.138.657-.598.467-.083.375-.902 1.291-.535.583-.492.1-.094.348-.072.267-.17 1.046-.203.337-.543.272-.35.404.447.58-.594.106-.258.394-.137 1.532-1.167 1.252-.821.44-1.335.559-2.765 1.14-.285-2.887-.047-.482-2.188.082-2.8.104h-.017l-.415-.561-.168-.228-1.681-.464-.007-.001-.59-.163-.184-.2-.478-1.128-.323-.76-.509-.696-.009-.012-.223-.182-.024-.02-1.741-.549-.545-.828-.18-.272-1.548-1.312-.78-.793-1.494-1.517-1.749-1.248-1.045-1.006-.193-.44-.167-.741-.072-1.28-.427-1.075-.118-.783.813-2.359.26-1.833-.062-.565.351-.66.192-.136.163-.114.088-.28-.173-1.109-.002-.006-.505-1.525.076-.43.116-.17.554-.328.485-.113.223-.29.045-.459-.132-.404-.045-.136-.048-.467.704-3.189.144-.229.469-.326.103-.272.487-1.293.01-.183-.227-.44-.003-.004-.1-.193-.336-.172h-.226l-.085-1.295-.227-.53-.007-.06-.004-.048-.788-.516-.055-.036-.264-.13-.01-.005-.255-.088-.205-.07-.878-.301-.575.1-.217-.138-.091-.307-.28-.942.04-.226.216-.143.085-.178-.613-.677-.01-.012-1.357-.579-.493.335-.485-.252-.214-.235-.022-.524-.22-.738-.277-.432v-.002l-.084-.036-.003-.001-.097-.041-.015-.007-.01-.004-.204-.086-.4.011-.29-.13-.143-.284-.229-.231.036-.326-.258-.38-.397-.14-.755-.028h-.01l-.168-.157-.113-.934-.032-.09-.374-1.07-.572-.32-.953-.267-.379-.43-.064-.073.172-.688.313-.288-.153-.138-.476.26-.896-.074-.207-.418.573-.696.408-.394.175-.556-.279-.769-.339-.1-.332.068-.13.026-.365-.422-.407-.36.143-.356.007-2.134-.534-.025-.157-.096-1.1-.96-.052-.047-1.042-1.071-.125-.318-.063-.768-.069-.478-.683-.153-2.284.51-.247.298-.539-.328-.096-.345-.092-.328-.382-.72-.558-.2-.326-.282-.164-.142-.52-1.47-.31-.877-.043-.118-.226-.64.146-1.066-.323-.95-.754-1.352-.055-.1-.373-.502.01-.148-.182-.534-.056-.167.03-.91.137-.538-.364-.612v-.431l.068-.417.718-.269.07-.64-.029-.332-.446-.513-.13-.42-.03-1.8.085-.516.147-.242.218-.36.285-.471.778-.542.546-.213.58-.539.445-.78-.133-.75.106-.463.322-.185.02-.01.878-.506.032-.465-.075-.556-.622-.996-.15-.632.12-.68.38-.663.622-2.106-.131-.674-.446-.788-.017.003-.233.066-.765-.237-.307-.251-.185-.525.82-.565.186-.128.102-.397-.237-.294-.078-.486.482-1.081.135-.233.657-1.14.444-.33.252-1.869.498-.353.015-.01-.088-.339-.072-.1-.148-.201.482-1.297.023-.822-.414-.36-.062-.17.053-.808-.164-.619-.66-.61-.115-.205-.02-.327.055-.467.186-.448h.002l.523.105.459-.266.086.207.012.02.086.085.186-.015.038-.814.45-1.42-.153-.266-.223-.11-.254-.337-.093-1.2-.204-.346-.71-.37-1.005-1.304-.248.06-.393-.382-.066-9.529-.016-2.301-.28-10.39-.062-2.35-.098-3.635.002-.217.03-2.132.046-.684-.171-8.18-.027-.628-.339-7.8v-.021l-.003-.062.196-10.07-.014-8.248-.003-1.872-.003-2.147.112-4.305v-1.961l.004-6.877v-.577l.006-8.644v-.793l.003-3.78v-.039l.002-4.164-.046-6.053-.038-5.084.007-.059-.005-3.74-.03-28.943.062-2.776.007-.081-.029-3.1-.022-2.465-.033-3.661.05-8.344-.001-.029-.11-6.54-.025-1.433-.057-7.939-.04-5.407-.05-7.133-.151-5.638-.145-12.43.014-11.158.013-9.643-.001-.052-.189-11.589-.091-5.679.013-4.08-.11-4.753-.248-10.826-.08-3.52-.13-3.95-.228-6.931-.243-7.434-.173-9.11-.068-3.64-.038-2.007-.137-1.042-.04-2.117-.515-27.518-.215-7.856-.167-14.034-.623-12.462zM756.07 620.888l.12-.256.228-.125.317.455.39-.195.48.272.422-.34-.158-.393-.092-.572.695-.496.054-.414.673-.617.276.522.686-.025.629.375.236.534.807-.68.324-.048.048.324.453.526.657.156.596.485.301.315.814.476.43.009-.071.87-.29.222-.293-.297-1.303-1.001-.506.018-.504.055.048.324.309.531-.27.497-.476-.14-.689-.05-.485.467-.038.297-.123.416-.987.02-.626.407-.757.078-.417-.229-.517.197-.119-.896.124-.51-.289-.24-.385.34-.167-.275.006-.324-.225-.142-.304-.384zm-1.638-8.737l.393-.123.238.415-.415.785-.653-.159zm-1.215-5.736l.734-.676.425-.232.097.683-.629.6-.358.085zm-2.423 8.105l.199-.513.323-.048.014.397-.239.406-.252.009zm-.11 13.386l.585-.889.48-.334.273.214-.059.56-.265.701-.33.469-.373.13zm-.806-14.764l.243-.297-.195-.391.636-.42.155.284.13.646-.232.586-.459.305-.519-.379zm-.387 16.87l.803-.861.162.175-.402.935-.434.3zm-.955-21.158l.47.02.335.277.498-.234.935-.105.425-.232.222.137-.275.407-.528.38-.02.47-.288.01-.443-.273-.898.14zm-.158 16.237l.177-1.164.601-.728.305.474-.356.452-.302.698-.241.334zm-2.93-1.02l.342-.59.346-.447.421-.166.313.467-.309.48-.536.2-.123.62-.404-.168zm-.275 5.13l.256-.425.34.423-.551.438zm-.193-2.979l.497-.27.143 1.008-.506.38-.217-.343zm-1.555 3.394l.606-.51-.022.48-.238.442-.088.619-.29-.212zm-3.499-5.14l.388-.302.118.285-.235.473-.252-.258zm-1.886 9.051l.93-.513.633-.292.287.335-.53.38-.756.17-.597.011zm-3.306-3.221l.386-.402.674-.593.624.64-1.021.616-.61-.087zm-1.446.613l.467-.178.271.23-.242.334-.448-.027zm-1.296 1.619l.205-.444.115-.44.396-.024-.173.65-.266.44-.223.02zm-1.506-9.088l.14-.149.338.387.27.496-.326.012-.444-.31zm-2.589-4.002l.47-.015.836.153.184.103-.423.339-.485.63-.715-.844zm-3.858 19.516l.59-.183.58.173-.15.35-.535.277-.329-.134zm-1.109-12.202l.445-.268.657.252.196 1.248.577-.055.972-.175 1.064-.686-.028-.868-.399-.958.621-.402.996.995.827.95 1.083-.07.806.374 1.384 1.275-.07.638-.62.401-.685.108-1.414-.548-.765-.793-1.176-.541-1.123 1.086-.176 1.272.716.231.404.82.451.528.95.26 1.016.075.49.564.85.095.139.27-.373.773-1.242.316-.898.27-.698.158-1.208-.21-2.332-2.089-1.36-2.882zm-2.844 16.94l.454-.708 1.22-.439.936-.023 1.067.02.685-.928.583.218.254 1.152.88.298 1.223 1.012.585 1.414.31.748-.1.388-.529.734-1.742 1.688-.42.834-.248 1.227-.57.393-.56.08-.628-.342-.155-1.447-.328-1.223-.283-.899.292-1.097-1.484-1.042-1.398-1.354zm-5.509 14.36l.142-.113.947.115-.646.517-.324-.195zm-1.458-1.77l.435.385-.014.632.463.174.128.23-.457.522-.444.008-.043-.596-.391-.516zm-1.783-11.741l.407-.955-.31-.64.059-.96.263-.395.386-.099.729-.188 1.74-.017-.823 1.548.367 1.367.505-.088.818-.533-.022-.725.94-.258.246-1.264 1.306.032.158.43-.019.043-.455 1.023-.36.295-.739.537.599.598-.303.557-.278.263-.286.775.17.53-.334.907.47.365 1.147.32.488.53-.233.66.348.37.644.035.17.793 1.379 1.508-.38.275-.805-.192-.067 1.345.146 1.193.127.577.484.313-.773.53-.36.37-1.084.376-.656.456-.52.188.115-.53-.731-1.866-.41-.762.205-1.138-.144-.544-.745-1.207-.41-1.311-.257-.645-1.389-.014-.383-.363.33-.216 1.083-.141.247-.262-.374-1.548.107-1.089-.358-.314-.441.118-.756.204-.376-.46-.467.16zm.03 9.28l.323-.002.66.198.121.432-.391.266-.704-.45zm-1.985-5.558l.211-1.421.024-.4.51.094.048.361-.078 1.018-.022.472-.166.513-.368.136-.283-.174zm-2.108-5.015l.415-.664.34.46.263.32.834-.026.536-.233.579-.054.41.35-.387.41-.904.1-.208.297-.388.374-.425.339-.097.402-.507.015-.413-.46-.208-.9zm-2.32.033l.535-.306.127.612-.353.337-.332-.208zm-1.036-2.058l.37-.99.237-.55.502-.196.48.312-.702.782-.254 1.203-.363.01zm-.477 7.266l1.422-1.02.221.138-.269.465-.32.495-.747.494zm-.314 4.31l.3-.558.297-.082.094.529-.124.389-.097.742-.22-.102zm.014 1.578l.703-.086.366-.057.203.179-.132.44-.873-.197zm-.231-4.203l.586.2.385-.483.75-.42.355.19-.513.612-.48.19-.083.67-.282.473-.466.038-.664-.966zm-3.258-.995l.878.265.189.249-.112.34-.912-.275-.219-.392zm-1.343 5.823l.655.01-.073.54-.283.263zm-4.972-1.856l1.024.14.302.39-.132.476-.676.49-.496-.715zm-.871 1.056l.578-.009-.026.364-.284.262-.37-.299zm-2.111-7.026l.396.117.163-.552-.136-.537.192-.427.304-.068.144.91-.051.763.19.51-.657-.246-.208.262-.407-.279zm-1.288-6.946l.533-.377.505-.086.118.359-.495.449-.544-.022zm.033-1.414l.393-.192.332.209-.38.662-.543.015zm-3.655 12.247l1.907.746-.387.446-.241.479-.752.124-.402-.914-.678.125zm-2.311-7.736l.279-.406.303.499-.017.814-.292-.19zm-2.028 1.468l.493-.557.872.085.901.948.412 1.56-.034.654.464.337.843.385.458.06-.45.81-.23.877-.09.692-.536.178-.596-.438-.336-.354-.248-1.118-.489-.64-.593-.492-.472-1.365.084-.945zm-.376 14.067l.4-.47.073 1.025-.362.236-.272-.354zm-2.269-19.543l.452-.737 1.081-.21-.444 1.027.34.534.291 1.406-.157.91.455.75-.137.33-.255-.066-.571.341-.491-.748-.244-1.009-.147-1.482zm.431 10.938l.506-.086.509.023.023-.508.274-.588.563.71.015.545-.389.409-.317.335-.312-.28-.404.662-.593-.457zm-1.017-12.59l.316-.37-.086-.505-.052-.614.285-.189.313.898.577-.088.682-.272.024.942-.869.022-.678.38-.429.23zm.058 17.551l.618-.518.616.8.544.885-.307.937-.533.45-.642.642.27-.96-.23-.502-.092-.724zm-1.998 2.739l.248-.225.605-.487.743.67-.132.476-.472.012-.729-.09zm-2.53 16.168l.543-.087.632.53.607.967-.28.407-.41-.353-1.16-1.244zm-.497-15.22l.476-1.282.408-1.1.434-.048.558.494-.055.692-.054.728.784.566.23 2.168.586.17.565 2.162-.504.195-.157.949-.656-.056-.13-.796-.475-.133-.433.12.35.9-.242.137-.53-.481-.122-.506-.02-.8-1.057-2.951zm-23.835 24.76l.218-.27.241-.583.459.139-.179.804.068.764-.2.77-.45-.573.025-.474zm-10.642-6.541l.505-.23.525.717.536 1.226-.067.62-.057.402-.631-.569-.71-.858-.235-.796zm-4.605-11.542l.945.017.854.855.458 1.044-.495.665-1.055-.015-.277-1.12-.413-.61-.92-.526zm-1.564-3.637l.026-.473.275-.768.062-.546.7-1.286.73.167.779.819-.022.69-.565.811-.377 1.062-.169.62-.167.694-.936.42-.451-.718zm-.877 10.486l.187-1.177.62-.258.618-1.293.613-.768.9-.382.537 1.297.13 1.016-.006 1.455-1.238 1.699-1 .557-.616-1.323-.612-.216zm-2.054-17.108l.953.417.85.781.489.825-.947-.162-.82-1.036-.807-.42zm-.648 12.945l1.03-1.184.721-.306.008.4-.385.735-.28.514-.68.56-.314.624-.541-.551zm-2.348.565l.492-.674.407.356-.03.364-.066.292-.578-.155zm-.298 3.472l.434-.103.384.013.133.413-.613.267-.357-.306z"/></svg>