<svg height="1000" width="1000"><path class="americon" d="M25.206 76.945l.737-.873.412-.32 2.613.2 8.025.556.008.001 4.801.29 1.411.085.513.044 3.673.32.025.002 5.015.37 2.597.202 1.314.101 1.65.127.885.068.176.018 3.573.237 1.5.099 2.564.168 1.158.076 4.05.264 2.135.138 5.65.383h.004l2.19.183 3.025.194 10.434.644 3.86.235.81.05.437.026.374.026.18.013.563.04.083.005.153.012.025.002 1.246.082 5.205.34h.006l1.296.09 1.279.082 3.308.213 1.172.087.212.014.049.01.421.028 1.31.051 2.435.141 1.475.09 3.993.263 1.217.08 1.078.07.129.008 4.11.267 3.433.125 1.548.098.253.016 5.23.33 1.832.112.633.052h.004l9.953.562.514.062 1.198.082 1.324.08.216.014 3.53.213 3.881.225 3.934.227.237.01 2.334.13 1.289.072.784.044 1.7.093 5.195.28 5.187.235 1.124.047 5.233.214.717.029.044.001.479.026.064.002.108.004.433.02 6.086.224 2.466.066.077.002 1.363.028.078.002 2.305.07 1.84.057 5.501.155 4.234.116h.012l1.653.046 1.295.036.02-.003 1.61.052 1.916.054 2.17.103h1.02l6.034.135 1.49.032 13.939.291 1.382.028.2.004 3.748.073.258.024 1.192.017.033.001 1.103.01 5.19.043 2.547.01 1.661.004 2.17.006 1.458.003 1.761.025 3.279.007.168-.013.21-.019.024.006.081.022.087-.006 2.966.014 1.787.009h.003l.21-.007.136-.009 1.267.01 4.833.034 1.737.01 2.206.014.826.005.443-.024 1.927.027 1.98.026 1.71.023.562.007 2.731.044.324.019.694.04.617.01.134.002 1.215.027h.807l3.083.039 1.301.015 1.808-.006.798.002.291.001h.984l.36.012.419.004 3.156-.015 1.357-.007 3.525-.02 4.256-.027.051.008.078-.01.607-.018.254.026.278-.003.398-.004.779-.006 2.115.047.63.014.077-.011H332.037l.112.004.377.01.943.027 3.355.092 3.025.083.218-.013 3.21.1h.017l9.183.078 3.951.03 2.414.02 1.387.01 3.916.046 3.864.044 6.584-.053 1.133-.01 9.325-.086 5.094-.143.165-.005 1.026-.033.583-.02 13.673-.288.411-.009.864-.019 2.498-.056.157-.002 1.792-.03.256-.005 5.194.021 1.877-.018 1.45-.043 1.62.034.583.012.212-.008.559-.02h.047l2.999-.002.967.001-.01-.014h9.645l.508-.01.738-.016.825-.017 3.773-.047 3.377-.043.432.015 6.48-.16.18-.004 2.666-.07 5.2-.142 2.858-.104 4.86-.178.203-.007 5.14-.192.3.005.095-.008 1.18-.032 1.561-.042 1.073.012 3.545-.078 2.556-.057 4.006-.092 3.942-.144h.004l2.638-.084.033-.017 4.428-.13.704-.018 6.49-.167 1.303-.034 2.577-.065 2.174-.036.751-.019 2.235-.093 11.379-.298.479-.048 1.32-.038.117.012 1.749-.119.22.02.542-.023 1.39-.06.07-.003 3.217-.142 4.224-.162 3.778-.153 3.046-.089.13-.003.626-.073.521-.06 3.872-.173.485-.022 5.155-.234.157-.007 4.792-.357.105-.008h.012l1.032-.082.085-.004 1.395-.073 1.887-.098.649-.034 1.289-.085 7.744-.481 1.263 2.16.456.534.655.617 2.155 1.212 1.04.838.343.45.138.355-.042.38-.717 2.011-.05.142.001.475.018.065.095.353.178.27.115.176.965.77 1.47.357 2.278.283 2.232.624 1.77.341.298.14.15.071.207.213.048.049.15.31.147.906-.084 1.394-.441 1.67-.016.481.15.77.262.524.354.416.57.426.618.412.84.39 1.048.489.53.478.553.902.51 1.452.133.793.129.326.166.333.613.745.17.206.967.592.537.226 1.303.318.23.057 1.221.092 1.291-.116.785-.071.336.062.148.138.173.27.02.125.1.607-.006.112-.015.283-.102.294-.276.329-.784.715-.218.35-.003.447.116.275.51.444.57.132.692-.045.112.151.022.274-.312.871-.688 1.202-.06.574.097.59.256.471.316.196.542.165.604.016.68.306.229.221.097.213.204.145.989.269.608-.102.13-.087.389-.26.183-.004.09.08-.012.252-.08.444-.29.866-.017.314.916 1.71.305.327.285.044 1.133-.218.932-.443.073.774-.158.468.128.384.154.099h1.57l.54-.623.963-1.34.592.177.242.072 1.314.391.463.271.407.474-.354.42-.614.728-.38.296-.5.263-.846.448-.743.625-.198.246-.2.49-.587.993-.592.916-.732 1.134-.588 1.443-.037.213-.344 1.965-.282.918-1.884 4.341-.286.766-.213.572-.12.462-.087.336-.162.62-.037.533.04.961.34.916.085.444-.068.513-.75 1.637-.144.314-.112.243-.373.313-.32.41-.343.842-.085.458.08.36.238.463.023 1.336-.34 1.583-.026 1.12.097.825.211.767.11.399-.132.481-.546.779-.202.462-.24 1.399-.006.455.179 1.457.552 2.296-.01.242-.428 1.28-.016.393.08 1.077.174 2.365.018.12.149.98.113.573.188.95.187.95.407 1.639.36 1.448.475 2.284.056.217.284 1.096.627 1.82.21.606-.665 3.8.244.536.725 1.593.01.022.102.224.466.69.968 1.852 1.156 2.448.285.844.095.608.2.585.232.385.58.342.098.157.606 1.382.69 1.077.374 1.037.812 1.468.635.87.227.203.904.803.463.53.238.36.313.477.012.019.256.67.104.273.095 1.009-.13 1.013-.133.304-.934 1.116-.162.194-1.973 2.593-.439 1.915-.111.92.226 1.363.87 2.569.45 1.328.015.047.058.17.122.36.45.888.481.489 2.11 1.376 1.163.614 1.18.946 1.697.975 1.098.754.4.429.887 1.304.14.206.656 1.363.278.946-.015.447-.168.424-.244.613-.102.813.001.413.004 1.388.13 1.126-.118.503-.182.38-.324 1.605.035 2.265.315.605.011.022 1.955 2.24.182.208.549.542.509.502 1.94 1.586.123.088 1.825 1.293 1.579 1.365.19.163.414.775 1.23.857 1.475.808 1.018.772 1.34 1.56.097.153.81 1.271.57.494 1.092.947.413.638.345.762.337.536 1.697 1.633.849.57.943.43 4.327 1.717.566.43.566.8.489.873.064.242.403 1.817.304 2.23.215.835.261.427.434.71.725.984.716.854.625.352.133.075 3.039.577 1.507.143.221.021 1.967.39.306.476.775 1.206.972 2.177.954 1.685.196.265.449.605 1.576 1.45.23 2.407.126 1.307.44.944.923 1.2.393.447.426.487.005.006 1.308 1.49.394.323.792.647.35.287.458.374.104.085 1.66 1.053 1.182.888 1.409.807 1.52.414.768.374.742.733.709.38 1.419.5 1.094.2.197.036 1.073.61.25.219.235.346.096.236.157.388.267.937.76.812.593.421.516.25.347.112.547.178.273.053.667.129.447.244.284.331.045.393.375.537.911.885.42.235 3.2 1.788 1.325.74 1.661 1.061 1.063.848 2.727 2.97.642.557 2.498 1.273.845.628.246.425.017.029.164.73.998 1.015 1.164.757.263.404.934 1.885 2.335 2.582.39.226 1.389.364.734.486.583.565.445.845.559 2.163.3 1.164.072.462-.037.72-.02.385.55 1.4.171.432.092.634.01.67-.084.718.033.977.243 1.074.252 1.113.598 1.609.093.623.214 3.234.199.768.428 1.39.342.79.365.59.81 1.024 1.084 1.74.239.384.128.407.112.353.558 2.345-.068 1.918-.096.316-2.403 3.09-.1.254-.002.016-.009.071-.096.798-1.422 1.592-.14.277.003.29.33 1.297.548.809 1.104 2.368 1.229 2.224.365.806.025.114.17.76.166.353.408.646.193.305.236.224.177.375.41.87.299 1.403.094 3.067.008.262.087.666.274.764.363 1.01.394.739.599 2.53v.003l.347 1.108.297.547.615.84.603.734.757.712 1.166.662.596.77 1.123 2.212.494.524 4.303 2.341 1.326.797.407.244.95.095 1.44-.14.27-.073 1.259-.332 1.373-.634.255-.2 1.757-2.252 1.934-2.208 1.324-.765.991-1.428 1.765-2.9.546-1.611-.14-1.039.006-.31.116-.428 1.366-2.669.595-.562.745-.484 1.62-.684h.002l1.52.018.908.303 1.288.271 1.647.024.96.107 1.51.404 1.446.609.38.16 2.63 1.232.468.219 2.195 1.027 1.878 1.261 1.35.617.086.028.863.285 1.176.647.477.09 1.05-.015.56-.053 1.56-.147.886.026.235.037.85.133 1.019.364.818-.108.421.033.545.188 1.242.775 1.64.66 1.058.591 1.4 1.21.633.606 1.714 1.636.346.15.699.064.49.2 2.971 1.467 2.181 1.59 1.33.727 1.068.582.455.248 1.578.861 1.118.61.6 1.026.089 1.11-.109.713-.518 3.401-.356 1.713-.709 1.435-3.24 2.87-2.723 2.01-.022.038-.63 1.102-.445 1.055-.049.116-.027.226-.1.838-.955 1.427-.028.019-1.067.737-1.899 2.048-.624 1.139-.152.732-.028.134-.046.623.03 1.131.464 1.626 1.057 1.646.007.011.668.666.258.257.09.09.024.024 1.289 2.187.058.098.152.424.458 1.27.009.036.21.863.028.115.009.035.01.054.476 2.38.122.613v.017l.004.263.02 1.362v.002l-.081.844-.433 2.054-.25 1.191-.067.163-.212.523-.671 1.656-.567.846-.768.951-.117.145-.29.248-.129.111-.632.542-.905.987-.177.107-.452.27-.125.074-.136.126-.154.141-.066.114-1.789 3.066-.29.496-.366.628-.8 1.369-.181.367-.994 2.01-.337.682-.338 1.099-.09.29-.005.018-.012.038-.613 2.659-.135.874-.151.985-.43 1.742-.016.07-.096 1.23-.151.47-.271.845-.154 1.126-.22 1.623-.163 1.19-.118 1.396-.31.6-.17.334-.85 2.175-.247.316-2.14 2.732-1.297 1.656-.012.015-.864.692-.21.252-.168.202-1.304 1.56-.324.388-.05.082-.356.593-.236.383-.255.413-.654 2.528-.171.664-1.572 3.741-.328 1.24-.175 1.876.004.06.239 3.414-.235 1.824.027.9.018.607.024.8.056.23.071.294.223.917.184 1.183.27 1.08.17.682.089.352.147 1.05.064.298.473 2.194.708 2.144.535 1.269.06.11.056.105.236.44 2.993 4.279.406.416 1.366 1.047.81.362.9.128 1.484.554 1.435.825 1.148 1.058 1.225 1.207 2.946 4.596.476.742.028.044.359.448 1.099 2.231 3.654 3.218 1.716 1.063.066.04 5.111 3.163 1.237-.915.263-.11.438.01 2.062.965 2.038 1.144.4.48.29.86.09.79-.038 1.213.085.6 1.336 1.597.519.453.518.452 2.384 1.436.103.062.813.345 1.058.019 1.242-.342 1.048-.021.83.21.03.019.283.184.29.43.295.634.115.46.24.418.34.329.475.285.707.283 1.283.513 2.33 2.821 1.348 1.632 1.238.979.446.227 1.572.12.253-.037.81-.119 3.443-.861 1.826-.72.034.046.638.867.15.72.163.261.306.067 1.254-.217.003.037.07.731-.069.315-.97 1.264-.78.274-1.327 1.137-1.768.104-.333 1.088-.859.573-.91.911.161 1.373.097.282.308.428 1.166 2.214 1.693 3.213.176.336.29.298 1.67.991.181.107.12.072 2.093.646 1.44.125 1.663-.108.642-.358 2.228-1.571.677-.713.573-.851.733-1.09.557-.65 1.664-1.378.894-.334.14.024.173.03.817.497.139.084 3.397 2.435 1.451.801.677.239.203.333.1.999-.288.535-.052.508.698 1.646.365.434 1.112.926.6-.646.33.204.817.288h1.32l.479.184.698.527.484.208.595-.144h.015l1.449-.06.529.607.581.89.51.606 1.818 1.635 2.112 1.47.092.064.934.41 1.495.807.555.299.786.463.485.359.717.53.906 1.635.41.458.154.344.07.966-.092.981-.099.37-.262.979-.301.81-.178.877.338 1.072.085.268.337.36.734.396 1.317.342.59-.142 1.757-.028.757-.472.571-.21.975-.16.134.096.076.177-.002.72.106.35.37.315.103.088.545.037.953.54.216.152.667.468.854 1.669.65 1.09.487.604.12.148 1.465.698 1.008.295 4.14.917 1.058.078.847.305.57.333.8.643.008.01.374.494.369.792.04.835-.233.825-.24 1.6.014 2.19.186.966.056.965-.169.335-.06.478.348.862.791.824.642 1.204.635.621.088.086 2.479 2.426 1.158 1.469.307.595.11.466.013.511-.18.811-.492.564-.7.428-1.159.197-2.299-.623-.648-.09-.376.077-.46.349-.13.3-.047.406.03 1.257.026 1.096.024 1.01.188 1.27.749 3.012.105.312.646 1.028.775.973.725 1.153.44.885.45 1.455.93 1.973 1.584 2.428 1.052 1.612.68.872 2.565 2.355.556.51.834 1 .338.405.594.88.928 1.863 1.391 3.507.238.73.374 1.15.218.922.083.811-.073 1.324-.659 4.543-.15.634-.036.154-.405.928-.444.508-1.65.822-1.04.276-2.9.361-1.39.54-.243.164-.437.293-.018.023-.026.033-.258.332-.518 1.242-.544.64-1.277 1.145-.21.27-.113.26-.168.391-.031.16-.224 1.158-.04.826-.077.447-.051.293-.255.628-.023.15-.054.351.045.712.227.65.505.854 1.131 1.537.704.852.92.926 1.02 1.272.173-.045 1.385-.36 1.273-.123 1.173.277.299.159.293.339.022.064.079.226.105.822-.015.134-.032.281-.87 2.599-.106.314-.194.58.016.674.875 2.704.158.701.731 1.571.228.49.134.222.153.255.04.066 2.552 4.253.012.02.544 1.675 1.555 2.484 1.654 2.197.115.152.429.448.663.557 2.149 1.387.482.374.348.27.614.747.893 1.56.544 1.575.041 1.005-.104.53-.263 1.346-.783 2.359-.017.05-.01.486.18 1.266.129.329.373.616.532.602 2.44 1.619 2.47.723 2.248.912 1.248.644.894.567.707.65 3.206 2.949 2.032.538.636-.375.654-.576.46-.565.362-.716.712-2.907-.436-1.421-.985-.945-1.766-1.284-2.033-.677-1.55-.761-.527-.45-.42-.508-.33-.6-.253-.752.265-1.958.07-.242 2.044.314 1.533.026.039.17.465.082 2.35-.057.678.099.602-1.389.053-.122 1.52 2.553 1.249 2.699.68.995 1.33 1.074 1.353.805 1.784 1.06.669.682.388.802.367 1.23.27.9.108 1.902.54 1.783 1.047 1.141 1.248.416 1.075.046 1.192-.528 1.703-1.004.837-.328.484-.08 1.171-.587.552-.23.56-.077 1.017.24.5.257.86.65 1.054 1.21.543.926.074.351.048.227.063.653-.13 2.58v.005l-.15.904-.86 3.597-.851 6.128-.283.865-.316.717-.35.794-.236.535-.616 2.756-.782 1.922-1.437.122-.86.153-.53.643-.307.167-1.094.06-.516.217-.43.345-.513.778-.132.23-.074.602.207 2.742-.057.68.103.55.227.48.182.288.204.322.655 1.031.415.45 1.176.797.76.288 1.742.04 1.634-.073.642.064.827.392.008.009.487.563.604 1.167.15.583-.019.906-.306 1.461-.425.948-.516.609-.633.044-.763-.002-1.047-.573-1.412-.083-.775.1-1.51-.593-.327.05-.83.389-.019.009-.666.312-.712.505-.975 1.252-.845 1.501-.24.98-.094 1.578.107 1.041.23.749.555.717 1.854 1.898 1.495 1.268.846.896.26.61.089 1.36-.185.68-.337.404.477.09 1.496.944-.754 1.202-.125.169-1.27 1.712-.009.01-1.215 1.138-.62.702-.66.992-.684 1.355-.186.623-.182 1.402-.075 3.097-1.402 4.08-.537.768-.388.373-1.011.972-1.349.553-3.228.535-.253-.023-1.242-.63-.571-.43-1.145-1.11-2.51-2.845-1.132-1.875-1.941-2.867-.76-.878-1.351-1.251-.128.005-.963.044-1.433.314-1.874.58-1.312.701-.77.828-.61.988-.118.351-.186 1.085-.22 3.173-.238 1.415-1.718 4.557-.074.604.017.83-.181 1.807-.897 2.689-1.441 5.513-.321.971-.429.865-.876 1.447-1.04 1.444-1.65 1.957-.658.62-1.07.643-.546.207-1.13.096-.728-.12-1.485-.624-.705-.691-.424-.835-.161-.57-.053-.51.085-.512.854-3.076.167-.482.396-.886.74-.96.64-1.278.492-1.434.33-1.63.004-1.16-.452-1.966-.962-2.385-.94-1.494-.272-.264-.013-.012-.608-.35-2.318-.713-2.162-.165-.562-.116-.078-.017-.557-.247-.524-.091-.268-.047-2.214.223-.54.136-.946.573-.155.144-.623.579-.714.924-.499.87-.388 1.157-.036.188-.164.856.09.97.203.54.708 1.342.297.676.63 1.429.33.605.65.912 1.815 2.155.624 1.277.118.18.65.992 1.87 1.79.329.474.202.596.04 1.248.01.319-.146.952-.307 1.017-.239.493-.288.472-1.937 1.963-.352.54-.21.73-.026.787.072.671.188.624.317.652 2.743 3.524 1.85 2.805.6 1.188.156.606-.003.06-.008.21-.161 1.087-.222 1.495-.762 2.15-.517.738-.62.613-.695.49-.921.376-1.033.182-2.324-.054-3.223-.695-2.842.029-.761.179-.737.372-.731.85-.532 1.248-.007 1.222.016.037.158.38 1.224 2.11 3.42 2.118.856.605.926.89 3.736 1.781.752-.226.38-.335.268-.017.827.534.293.375.072.17.296.696.239 1.62.054 1.72-.637.736-.35.192-.466.1-.64-.1-.713-.363-.673-.095-.632.056-.411.179-1.282 1.23-.529.322-1.444.593-2.249.373-.623-.01-.706-.14-2.033-.65-1.905-.796-.824-.221-1.565-.147-3.814.64-1.242-.166-.787-.442-.377-.062-.22-.037-.48.43-.168.421-.114.214-.395.74-.241.669-.017.33.059.29.129.199.648.706.114.125 1.114 1.04 1.181.916.87.673 1.094.745 1.31.89.929.555.512.306 1.588 1.31 1.237.9 1.153.609.872.377.869.547.669.586 1.104.967.987 1.188 1.061 1.647.381.979.149 1.119.006 1.582-.09 1.115-.115.475-.694 1.048-.429.454-1.605.96-.33.197-.888.698-.558.439-.474.263-2.188.715-2.173.95-1.31.688-.847.784-.893 1.392-.162.409-.195 1.91-.185 3.869-.086 1.095-.175 2.226-.155.908-.502 1.66-1.568 2.412-.29.58-.153.764-3.95.263-.675.05-.013-.008-4.886.242-.031.003-.011.001-2.546.15-2.708.16-5.559.324-2.705.156-1.403.081-.83.05-.013.001-.075.003-.075.007-3.162.17-.706.045-.035.001-5.856.31-.87.045-2.034.106-.078.004-.18-.014-.64.09-1.096.014-3.471.182h-.015l-8.927.462-7.43.376-2.286.165-.067.005-1.045.075-.15-.001-4.758.246-4.12.206-1.355.067-7.967.392-.088.004-6.121.296-.022.001-.519.024-7.115.341-.48.044-3.947.165-1.387.076 1.91-3.43 1.032-.905.806-1.359.053-.289-.088-.288.105-.59.38-.67-.155-.94.165-.345.679-.548.579-.468.327-.133.13-2.208.025-.41.292-1.094 1.862-.786.311-.795.009-.215-.075-.494-.213-.35-.132-1.1.205-.539.993-.885.922-.083.932-.686.254-.939.005-.304-.094-.356.547-1.18.198-.274 2.148-.651.952-.165.905-.498.796-1.312.284-.045.48.075.36-.07.644-.483.038-.055.368-.526.221-.69.511-.174.784-.434.127-.331.447-1.164-.057-1.216-.63-.963.7-1.509-.16-.4.26-.831 1.26-2.13.707.006.346.238.334-.043.884-.62.119-.083.542-1.002-.177-.18-.013-.539.257-.156.419.142.257-.806.145-.087.19.04.384-.19.053-.025.252-.733.366.113.439-.099.451-.608.95-.42.81-.597.972-.497.266.053.318.287.188.014.534-.373.134-.677 1.317-1.614.627.026.503.138.366-.024.878-.583.22-.835-.011-.329-.398-.132-.01-.014-.45-.707-.082-.33.12-.218.563-.058.217-.155.868-1.772.185-1.045.217-1.232.29-.192.391-.094.766-.007.743-.433 1.324-.48.5-.057.215-.024.406-.167 1.099-1.756-.333-1.26-.002-.008.874-.974.235-.26.85-1.592-.536-1.135-.338-.716-1.135-1.087-.12-.013-.26.182-.137-.032-.325-.636.052-.664.364-.45.262-.537.186-.615-.056-.21-.363-.233.12-.906.314-.095.14-.215-.105-.35-.483-.667-.012-.187.347-.139.661-1.138.628-.625.14-1.429.112-1.134-.166-1.692-.711-1.196-.633-.784-.201-.047-.39-.461-.11-.204-.037-.066-.175-.323-.277-.295-2.112-.507-1.398-.083-.108.02-.764.138-.792-.334-.191-.402-.621-.336-.24-.13-1.096-.09-.374-.62-.583.275-.528-.021-.025-.11.358-.164.183-.298.014-.267.043-.84-.088-.074-.116.07-.314.328-.26-.037-.66-.527-.07-.253.031-.5.141-.506.55-.044.217-.128.477-.894.011-.244-.344-.924-.172-1.376-.118-.937-.111-.117-.315-.327-.218-.362-.032-.165.033-.104.029-.09-.074-.22-.144-.074-.105-.044-.1.084-.112.09-1.68-.073-.003-.475.383-.915.993.222.606-.218-.019-.295-.241-.715-.135-.041-.123-.038-.439.082-1.293-.458-.305-.108-.084-.095-.011-.114-.012-.12.31-.54.015-.027-.336-.269-.037-.33.462-.044.035-.493-.393-.205-.117-.158.028-.241.25-.102.355.093.157-.323-.091-.273.28-.22-6.2.277-3.497.145-.056.001-.45.008h-.005l-1.227.065-2.538.088-2.93.101-7.822.264-1.29.043-2.018.066-4.623.168-.87.031-7.43.264-.787.028-1.13.039-4.238.146-4.062.139-.067.002-.768.021-2.098.072-9.265.31h-.01l-1.213.032-.158.004-1.34.052-1.669.055-1.063.017-3.997.146-1.38.05-.71.015-5.949.186-2.725.12-2.248.062-5.9.156-1.977.056-.534.014-.29.009-2.727.08-7.155.205-1.989.107-1.323.071-.178.01-.42-.033-.045-.02-.352.02-6.842.184-2.32.062-3.023.079-.34.01-.021.001-2.642.08-.08.003-4.086.123-1.219.065-.189.01-11.658.328-.06-.003-1.938.061-2.588.082-6.86.179h-.007l-6.726.17-.193-.005-1.31.019-1.235.031-9.999.247-3.743.09-11.591.266-.034-.008-.299.016-.019-.002-3.868.046h-.03l-.48-.012-1.464.01-.557-.008-7.509-.101-.788.006-3.306.027-.342.002h-.027l-.677-.005-.359-.002-.372.013-.718.008h-.077l-.673.008-.634.01-.24.004-.104.002-1.358.022-2.64.041-2.066.032-.765-.022-2.45.052h-.001l-2.057.043-1.67-.001-4.454.04-2.048.045-.238-.001-3.121.06-2.724.053-5.904.093-.144.002-2.184.032-.457.007-2.213.05-.38.002-.59.002-4.633.072-1.305.02-2.805.042-.241.004-8.947.122-.858.011-.736.01-2.722.035-4.663.058h-.009l-.442-.01-4.584.033-1.418-.01-2.094.012-1.94.012-.208.001-2.658.002-3.507.015-2.113.006-1.173.004h-.016l-2.594.044-1.879.024-7.35.09h-1.805l-.403.006-.246-.005-.094-.002-6.442.07h-.002l-7.48.076-1.347.038-4.77-.004-2.99.093-.735.023-1.463-.119-5.308-.007-.41-.013-1.726-.054-1.419-.045-5.694-.022-5.19-.022-1.841.022-4.598.053-.659.007-5.599.003H451.733l-19.673-.029-1.54-.004h-.001l-1.873-.022-8.05-.097-.038.009-2.272-.007-5.981-.02-.05-.003-3.302-.036-1.911-.02-.03-.001-.777-.009-11.855-.141-.096-.002-8.095-.106h-.158l-2.713-.03-.203.008-5.537-.002-3.77-.06-8.79-.145-1.783-.031-10.331-.185-.398-.008-3.272-.061h-.002l-2.163-.037-8.155-.145-.233-.005-.807-.014-.524-.01-.096-.015h-.003l-.104-.016-.104-.002-.284-.004-.107-.001-.29-.004-2.577-.035-1.265-.018-1.284-.028-.559-.013-5.307-.121-.442-.01-1.724-.04-.457-.012-2.263-.053-1.063-.015-10.311-.203-.132-.003-9.579-.223-1.579-.037-3.051-.074-.103-.003-1.419-.035-.304-.007-1.31-.032-1.435-.04-.028-.001-1.338-.03-1.296-.006-.07.001-.938-.019-2.687-.055-.224-.005-12.02-.26-.045-.001-4.85-.11-5.238-.122-.655-.015-2.35-.061-.718-.019-4.872-.13-.512-.013-.196-.005-.489-.013-.617-.017-.713-.02-2.002-.054-.989-.028-5.345-.149-6.23-.178-.55-.016-2.6-.068-.617-.016-.249-.006-1.56-.03-.107-.005h-.012l-.389-.014-.293-.01-9.781-.345-.236-.008-.169-.006-.418-.015-1.423-.051-2.838-.103-4.132-.151-.915-.034-.701-.026-2.312-.086-.023-.001-1-.037-.594-.023-1.384-.052-2.672-.101-.903-.034-.46-.018-1.706-.065-.258-.01-1.478-.057-3.272-.127-1.642-.051-1.741-.055-9.509-.303-.78-.026-.664-.021-2.903-.096-.577-.019-5.863-.196-5.258-.241-.695-.033-8.73-.317h-.027l-.013-.001.054-1.326.007-.183.008-.19.049-1.2.019-.521.1-3.002.001-.065.033-.336v-.008l.002-.158.078-1.947.159-3.952.067-1.678.04-1.086.1-2.683.008-.208.053-1.434v-.003l.05-1.069.08-2.251v-.005l.004-.13.28-7.894.001-.005.01-.275.213-5.943.049-1.33.054-1.504.111-3.051.16-4.395.066-1.815.033-.885.355-9.38.018-.484v-.013l.065-1.71.07-1.85.025-.662.124-3.914.002-.057.001-.033.066-2.056v-.014l.146-2.515.037-.627v-.01l.097-2.668.067-1.574.049-1.143v-.019l.012-.633.075-1.47.073-1.664.038-.665.317-8.252v-.002l.006-.22.002-.057.032-.5.067-1.872.023-.58.136-3.477.013-.337v-.002l.057-1.44.126-2.933.003-.077.02-.606.065-1.9.03-.878.019-.693.037-1.317v-.002l.01-.09.02-.532.028-.775.002-.033.026-.556.038-1.35.056-1.702.048-1.066.09-1.99v-.012l.02-.479.007-.26.11-3.583.04-1.308v-.005l.085-2.695.04-1.168v-.004l.001-.012.081-1.402.043-1.093.09-2.312.001-.027.016-.08.155-3.76.012-.225.054-1.527.032-.524.17-3.972.4-9.436.083-1.951.087-2.448.02-.29.197-4.754.001-.034.01-.571v-.024l.214-5.315.11-2.682v-.009l.14-2.688v-.008l.12-2.626.002-.043.094-2.718v-.001l.039-1.03-.002-.02.04-.871.031-.823.07-1.495.053-1.104.062-1.44.123-2.827.116-2.69.027-1.162.132-4.42.01-.314.002-.073.028-.632.017-.385.032-.708.031-.695v-.008l-.002-.665v-.154l.007-.073.245-6.933.025-.178.159-4.798.004-.116.042-1.256.06-1.765v-.018l.114-3.579v-.004l.042-1.673.06-.816.013-.187-.005-.463.2-5.89.078-1.384.19-4.743.042-1.058.078-1.97.008-.187.028-.532.424-8.011.187-3.326.04-.97.018-.45.067-1.17.066-1.16.054-.947.09-1.723.029-1.066v-.004l.09-1.563.14-2.742.043-.848v-.009l.098-1.745.187-3.35.01-.46.04-.747.042-.61.003-.049.042-1.031.016-.282.137-3.585.056-1.31.073-1.71.002-.056.07-.855.345-8.163v-.02l.151-4.22v-.006l.036-1.067.014-.264.373-9.29.047-1.179.187-4.645.091-1.991.098-1.332v-.015l.209-4.133.103-1.86.026-.587.072-1.516.048-1 .006-.168.005-.125.057-1.417.078-1.955v-.02l.217-5.975v-.006l.012-.36.084-2.648.018-.561.011-.277.092-1.837.01-.195.074-1.938.012-.314.02-.973.025-.777.054-2.09.155-5.236.034-.954.14-3.494.028-.678.042-1.363.02-.649.028-.634.216-4.992.322-7.43.022-.5v-.005l.063-1.014.004-.221.063-1.33.001-.037.032-.73.083-1.92.098-2.267.014-.321.214-4.949.002-.056.03-.347.108-2.87.075-2.012.064-.65.002-.005v-.017l.176-4.685.024-.618.085-2.047v-.006l.087-.818.05-1.776.003-.118.366-6.793.483-8.95.16-2.987.026-.474.02-.317.177-3.312.065-1.203.144-2.711.075-1.397.207-3.881v-.006l.056-.966.097-1.683.002-.032.018-.317.009-.403.008-.354.004-.22.057-2.606.02-.544.034-.877.034-.888.009-.241.047-1.105v-.153l.008-.2.004-.099.097-2.56v-.003l.034-.878.016-.42.055-1.407.049-1.267.007-.194.044-1.134.052-1.339.063-1.633.042-1.072.012-.312v-.005l.02-.095-.02-.476.013-.364v-.012l.046-1.321.045-1.347v-.001l.052-1.519.015-.442.045-1.31.024-.733.02-.561.019-.403.014-.293.017-.362.048-.98.062-1.297v-.008l.003-.062.064-1.335.043-.894.01-.208.011-.226.052-1.079.064-1.319.02-.441.028-.562.003-.063v-.003l.023-.478.035-.735.017-.35.011-.23.005-.1.016-.33.033-.688.036-.75.026-.541.073-1.521.04-1.202v-.026l.056-1.683.014-.29.055-1.146v-.02l.147-4.315-.101-.823.39-.76.79-1.117 1.165-1.303.392-.546.284-1.97-.283-.903-.737-.562-.79-.376-.966-.298-1.019.15-1.082.534-.083.04-2.253.442-1.528-.13-.013-.002-.7-.314-.468-.411-.273-.903.19-.958.205-1.098-.062-.093-.561-.837-.726-.556-1.561-.48-.978.108-1.292.832-.024.015-2.567 1.384-1.348.2-1.816-.108-.751-.212h-.002l-1.443-.605-1.472-1.278-.939-1.876-.09-.273-.563-1.683h-.001l-.302-.543-.498-.498-.319-.196-.49-.114-.249.033-1.497.196-1.684-.175-1.255-.422-.427-.244-1.064-1.148-.25-.348-.178-.497-.011-.032.046-.577 1.077-1.803.269-.769.089-.622-.074-.563-.023-.18-.098-.75-.512-1.182-.538-.728-.313-.424-1.143-1.151-.588-.413-.882-.62-.096-.054-1.348-.738-1.485-.662-.581-.424-.605-.599-.326-.435-.76-1.016-.632-1.115-.085-.246-.301-.876-.264-1.044-.07-.512-.066-.485-.156-1.144-.042-1.104-.065-1.741-.008-.204-.015-.422-.039-1.02.092-.58.029-.18.099-.307.315-.437.702-.633.503-.35.313-.115.834-.127.824-.488.567-.606.36-.952.004-.74-.115-.423-.091-.334-.522-1.095-.532-.5-.396-.177-.141-.021-.296-.044-.965.098-1.118.667-.9.418-.48.192-.55.1-1.396-.242-.073-.013-.484-.2-.095-.075-.046-.037-.204-.16-.315-.296-.462-.81-.077-.33-.028-.74.099-1.073-.197-.546-.444-.583-.488-.41-1.548-.694-.376-.34-.553-.503-.472-.928-.23-1.743-.434-.802-1.078-1.072-.767-.394-.634-.221-2.135-.745-1.728-1.072-.666-.5-.55-.536-.436-.51-.64-1.131-.178-.464-.128-.995-.09-2.545-.074-.566-.206-.46-.555-.747-.412-.413-2.451-1.457-.71-.606-1.333-1.428-.544-.693-.802-1.022-.445-.743-.036-.062-.34-.855-.495-2.138.111-.937.03-.086.879-2.54.158-.248.465-.438.592-.318.288-.089.189-.058.87-.034 1.755.855.626.145h.398l.676-.13.715-.334.377-.243.308-.334.83-1.25.34-.988.149-.798.005-.372-.166-.856-.648-1.422-.041-.248-.1-.6-.094-.557.06-.603.26-.958.6-1.338.744-1.144.675-.765.135-.153.248-.58 1.47-2.21.45-.528.446-.37.463-.384.43-.233.887-.233 1.07-.081 1.064.031.026.001.242-.032 1.078-.141.367-.126.75-.463.738-.88.217-.47.16-.7.155-2.138.034-.471-.24-2.863.031-1.115.132-.504.765-1.224.233-.213.526-.478.688-.445.371-.033.54.09.01.004.534.24.746.54 1.232 1.177 1.573 1.26 1.124.593 1.025.331.457.049.136-.014.924-.095 1.072-.299.392-.2.818-.419.796-.708 1.066-1.477.377-1.08.03-.086.155-.72v-.005l.006-.023-.11-1.707-.3-.773-.271-.518-.252-.3-.338-.232-.208-.027h-.002l-1.439.253h-.005l-.35.179-1.398 1.023-.01.008-.029.02-.022.017-.14.102-.032.024-.555.33-1 .29-.84-.022-.613-.316-1.268-1.06-.455-.493-.605-.849-.13-.362-.04-.598.113-.76.37-.555.324-.251.118-.092.574-.241 4.543-.048.375-.08.882-.434.462-.543.041-.1.669-1.6.104-1.154-.027-1.322-.045-.574-.205-.51-.306-.447-.79-.79-.347-.182-.44-.083-1.457.033-.937-.144-.954-.351-1.24-.992-1.53-1.598-.276-.4-.351-.86.057-.806.257-.594.29-.448 1.06-.976.445-.657.2-.7.014-.67-.058-.39-.212-.488-.645-.862-1.261-.917-1.044-.48-1.063-.253-.568.072-2.024.574-1.284.088-.456-.082-.427-.16-1.42-.536-.639-.063-.658.086-.795.432-.465.602-.367.476-.13.266-.122.53.05 1.433-.059.382-.39.92-.597.55-.815.47-.612.105-1.445.012-4.041.296-.48-.052-.704-.26-2.133-1.189-3.042-1.047-.78-.464-.109-.064-.312-.286-.458-.625-.257-.772-.066-.63.185-1.09.005-.464-.138-.717-.293-.424-.484-.342-.482-.152-.388-.123-.53.022-1.768.813-1.008.307-.267-.01-1.134-.039-.583-.16-.748-.4-.347-.26-.489-.788-.053-.235.005-.463.107-.547.58-1.287.232-1.022-.029-1.094-.394-.88-1.251-.83-.368-.152-.517-.112-1.514.044-.78-.065-.63-.215-1.195-.726-.968-1.177-.53-1.062-1.033-1.639-.649-.523-2.017-1.111-1.709-1.288-.593-.89-.079-.275-.058-.571.061-.954.011-.17-.005-.398-.321-1.03-.13-.294-.4-.504-.368-.225-1.426-.513-1.037-.676-1.343-1.725-.295-.2-1.098-.458-.98-.045-2.66.656-.589.032-.595-.083-.589-.207-.916-.504-.61-.492-.824-1.003-.402-.89-.296-.957-.122-1.055-.1-.855.172-.65.354-.689.529-.57.67-.73.044-.047.239-.862-.062-.908-.125-1.337.482-1.149 1.075-.885.43-.33.433-.533.186-.517.024-.272.03-.347.02-.228-.02-.317-.019-.286-.245-.662-.42-.674-.766-.509-.69-.222-1.332-.165-.75-.433-.52-.535-.287-.527-.132-.479-.12-.925.003-1.231-.108-.563-.185-.497-.565-.673-.283-.192-1.634-.684-.777-.51-1.129-1.232-.216-.235-.673-.953-.363-.68-.224-.53-.058-.231-.115-.457.019-.913.091-.595.677-1.404.662-.838.322-.678.223-.742.108-1.15-.06-.528-.252-.962-.617-1.232-.69-.677-.428-.303-.585-.237-.416-.13-.94-.062-.974.082-1.207-.118-.668-.198-.421-.211-1.38-1.125-1.214-.74-1.187-.283-.24-.282-.057-.196-.175-.596.036-.548.758-1.817.119-.875-.063-.494-.205-.46-.702-.872-.454-.31-.803-.363-1.868-.183-.745-.414-.368-.3-.441-.503-.554-.63-.104-.12-.858-.543-.717-.294-.414-.07-.615.057-.737.186-1.844.762-.833.252-.423.036-.838-.226-.37-.24-.386-.555-.077-.336.067-.554.195-.652.427-.538.824-.49 1.974-.565.547-.276.681-.556.318-.718.09-.444-.083-1.034-.123-.484-.007-.019-.273-.644-.038-.057-.514-.786-.714-.77-.248-.463-.254-.474-.156-.627.016-.931.105-.579-.158-1.56-.658-1.713-.288-.557-.915-1.77-.246-1.323.131-.514.387-1.005.32-.744.15-1.067-.225-1.051-.01-.041-.044-.211-.894-1.726-.809-1.039-.707-.663-.95-.632-.36-.364-.777-.787-.186-.38-.19-.812-.023-.533.109-.582.176-.796.143-1.255-.112-.988-.485-1.148.608-.182.497-.27 3.358-1.04.883-.374.883-1.076.158-.667.454-1.92-.119-.686-.285-.865-.819-.65-.394-1.232-.795-1.114-.95-.042-1.163.276-.997.613-.163 1.111-.301.988-.166 1.459.265.71-.342.817-1.623 1.155-.166-.414-.554-.645-1.103-.227-.381.04-.838.373-.844.223-1.556-.152-1.132-.374-.76-.472-.52-.605-.216-.47-.054-.463.157-.655.563-.935.173-.454.06-.447-.031-.555-.132-.557-.823-1.706L25 77.767z"/></svg>