<svg height="1000" width="1000"><path class="americon" d="M107.76 660.433l2.237.008.97.33 1.187 2.758-1.446 1.151-2.064-.009-1.336-1.512-.395-1.355zm-18.779-1.308l1.386-.043 3.02 4.243 1.663 6.437.56 2.507 1.842 1.36.084 1.952-3.966-1.73-1.51-5.124-.191-3.045-.475-1.305-1.526-.955-1.491-3.292zm3.613-9.553l1.1 1.274.224.928-1.626.656-.616-.3.074-2.34zm-6.567 1.073l1.98 1.187-.033 1.586-.827 1.046-1.253-1.517zm2.205-6.6l1.016.494.18 1.215-.7.972-1.434-.504.101-1.456zm-15.348-6.203l1.663.752 1.447-.226 1.92.255 1.993-.864 2.311-1.314.747 1.054-.271 1.22-2.092.81-1.01.243-.306 1.645-.654.572-1.507-1.09-1.169-1.18-1.07.277-1.163.438-1.048.73-.099-1.396-.92-1.32zm-31.287-57.205l2.094 3.07.858.973-.586 1.204-2.453-2.097-1.128-2.93zm-11.773 2.295l1.743 1.145 1.954-.047 1.553 1.86-2.368.862-.175 1.473-.98.535-1.015-.852-.77-2.045-1.232-.13-1.42-2.886zm-3.775-21.883l3.368 1.026 2.026 1.635 3.982 4.15.841 2.48.88 3.65-.764.855-1.873-1.569-.659-1.367-1.52.744-1.098-.624-1.423-1.398-1.604-.266-.718-1.688.05-1.28.905-1.276-.429-1.742-.952-1.157-2.061-.62zm881.756 75.724l1.335-1.898.584-2.277.491-1.929-.247-1.283-1.463-2.399-.409-1.674-.49-1.237.833-1.14 2.671-.447 3.295-1.382.782.251 1.954 1.331.658-.03 1.257-.06 1.765.88 1.587 1.515-.89.508 1.087 1.034.652.62 4.585 1.626 3.722 2.51 1.383 2.854 1.31-.298 2.574 2.53 3.501 1.438-1.258 1.894 3.524 2.542 1.522-.25 2.042 2.118.146 2.391 1.582 1.765 1.587 3.49 1.68 2.69.07 1.887-.098 1.04-2.025 1.135-1.357-.403-1.167.724-1.299-.476-.976-.649-1.612.813-1.698 1.64.37 2.372-1.22.572-2.097.026-.792-1.379-.993-.523-1.563-.548-2.826-1.949-1.69-1.144-1.159-1.322-1.325-1.332-.122-1.37-.974-1.571-.974-.178-.791.693-1.087.153-1.413-.454-.324-.954-2.139.014.85 2.534-1.119-.004-1.29-1.756.256-1.912-.575-1.506-1.463-.633-1.443.484-.39-2.58-.163-1.481-.555-1.9.366-2.325-1.5-1.167-.563-1.424-2.575.674-1.028.05zm-16.89-22.92l1.068-2.626 1.152-.385.441-.898 1.821.346 1.362 1.689 1.43.872.66-1.52-2.003-2.81-2.592-1.087.113-1.455 1.523-1.319 2.442-.173 3.326-.29 3.341-.224.237-.104 3.072-1.357 2.663 1.347 2.522 2.829 1.858.057 1.493 1.357 2.416.641.808 1.574-.233 1.892-1.575 1.852-2.052.337-1.563.774-1.387 2.593-1.828.5-1.638.855-.653.34-2.774 1.494-1.935 2.365.58 2.02-.158 1.441.5 1.455-.453 1.534.584.84.092 1.68-.838.432-1.125.231.173 1.975.826 1.114.467 2.002-.973 1.575-.375 1.157-.525 1.222-.866-.734-1.335-2.064 1.296-.432.207-3.504-1.93-2.362-1.614-3.143-1.045-2.133.144-1.929-.647-1.273-.105-2.66-.916-.41-1.158.482-.407-1.896-1.626-.877-2.23-3.926zm-23.761-38.445l1.801.755 1.757 1.431 1.285 1.187.422.605.816 1.169 1.187-.754 2.206-.452 2.111-.057.94-.66h.007l1.349.078.358 1.335.958.558 1.24 1.077 2.092 1.7 2.474 2.344 1.394 3.216 2.069 1.532.302 1.157.113 2.561 1.297 3.092 1.763 1.05-.36 1.4-.469.292-1.937-.331-1.311 1.645-.512 2.723-1.092 1.92-.886 1.007.174.79-.59 1.004-.472 1.144-.925.583-1.897-1.95-1.41-3.487-.476-4.995-1.831-2.565-3.016-4.17-1.155-2.491-2.212-4.036-1.88-3.69-2.12-2.217-2.728-3.317zm-19.38 17.953l-.175-1.712 1.152-.985.838-1.356-1.254-2.715 1.391-.448 1.506-.913 1.931-1.01 2.385-.309 1.088-1.192 1.528 1.131 3.658.628 3.862.81 2.466-.625 2.759.558 1.49 2.973-.754 1.427 1.758 2.404.375.512 4.3 6.504 1.279 3.465.652 3.068 4.65 7.196 1.394 1.798 1.465 2.429 1.48 2.394.951 1.888.697 2.332-.336 1.053 1.234 1.983 1.142 2.692.827 2.167.41 1.952.019.976-1.811-.672-1.066-.68-1.106-1.593-1.683-.965-1.707-1.752-2.159-2.065-1.72-1.644-1.542-1.761-.475.562-1.948-1.18-1.179-.574-1.698.221-1.937-1.462.413-.912.202-.852.012-1.582.55-2.621-2.036-.786-2.032-.368.092 1.81-.132 1.155-2.613 1.563-.517-.021-.673-2.469.943-1.573-.394-1.189-1.2.315-1.055-1.197-.092-1.822-.677-.968-1.326-2.194-1.24-1.122-2.043-.975-.984-.93-1.133.279-1.725-1.46-.731-1.546-1.583-2.09-1.528-1.328-.023-.02-1.453-.162-.757-1.04-1.569-.4zm-233.986-30.017l1.543-2.662 1.588.688-.72 1.303-.89 2.06-1.733.768zm-22.221 29.167l1.6-.776 1.116.029.922 1.084-.6 1.342-1.885.241-.452-.311zm-20.147 57.808l1.474-2.264 1.267-1.956 1.597-1.765 1.758-.527 1.912-1.26 1.514-.536 3.15.338 1.04-1.13.034-3.39 2.44-1.771.944-.387 1.112.337 2.137-.792-.305-.938.775-1.011 1.489 1.197 1.378-1.401-.994-1.574-.82-.616.912-1.351.728-.962 1.427-.604.344-1.328 1.566-1.42.897-1.39 1.82-.944.666-1.753 1.45-.3.829-1.422 1.417-.256-.378-2.15.766-1.665.845-.511 1.6.039 1.491-.57.263 1.422-.76 1.915-1.206 1.336-.69 1.424.207 1.594 1.005.499.683-.123.646-.931-.17-.922.824-.152 1.123 1.513 1.495-.584.612.83 1.637.56 2.53 2.428.344 1.515-1.007 1.254-2.633-.428-1.19 1.027-2.343.38-1.676.457-1.66-.287-.715 1.044-1.968.941-1.698.893.67 1.243-.467 1.564-.826.991.215 1.2.564.692 1.129-1.192.717-1.245 1.686.163 1.452-1.822.154.797 1.52.934-.418 2.383 2.158 1.26-1.343 1.33-2.202.56.83 1.715 1.137.92 2.382.378.034.867-1.562 1.946-1.004 1.735 1.107 2.452-1.106 1.212-2.382-2.682-1.504-.436-.493 1.95-.472 1.74-1.041 1.205-1.945.451-1.989.225-.119 2.04 1.09.674-.333.957-2.621.796-2.199 1.778-1.088 1.227-1.214.47-.934-2.891-1.31-.188-1.531 1.045.558 1.596-.047 3.158-.999-.01-1.566.9-1.261.701-1.025.212-1.055 1.466-1.15.74-.788 1.611-2.211.146.456-1.768-2.73-3.192-.03-2.116-1.455-1.522-1.894-1.07.25-3.73-.965-3.803-1.496-.862-1.606-.218zm-2.388 27.75l2.339-2.87 3.236-2.296 4.938.04 1.867-.17 1.103 1.377 2.372.273-.175.949-2.223 1.452-3.986-.572-4.281-.368-1.583.74-2.041 2.077zm-16.103 16.804l1.122-1.205 1.506-1.803 1.21.576-.523 1.926-.315 1.678-.468.798-2.111-.463zm-15.7-8.898l.892-.551 1.036 1.095-.18 1.395-1.115.6-.808-.917zm-7.671-15.261l1.98-.749 1.259.626 1.755 1.377-1.22.49-1.94-.496-2.562-.11zm-55.74 42.1l1.643-3.523.473-2.356 1.105-1.431 2.04-.648 2.984-1.974.284 1.12.131 2.179 2.486.257 2.837-1.718.258 1.992 1.92 4.589 1.733 4.249-1.4 1.333-.631-.141-2.029-2.594-.578-2.693-2.176-.634-1.862-1.162-1.21.983-3.652-.384-1.505 1.518-2.655 2.566zm-8.115-13.709l1.067-1.374 2.193-.584 2.72 1.163 3.36-1.17 1.347-.584 1.997.721-.637 2.108-2.916 1.763-.837 1.419-1.946-1.455-1.16.788.314 2.31-.915 1.423-2.04-1.277-1.382.03-1.63.726.11-2.61zm13.638-96.326l.66-1.831 2.255-.909 3.547-1.442.133 1.107-3.941 5.13-1.335.574-1.71-.192zm-23.715 97.553l1.185.083.44.14-.579 1.742-1.686-.916zm-4.345-1.836l3.028-.092-.982 1.774-2.246-.18zm-23.899 17.58l4.015 2.81 3.82 2.26-.964.832-1.5.446-2.261-1.306-2.578-.662-1.39-1.932zm-50.394 1.616l2.56-.348 3.48-.15 2.5.21 2.295.508 2.604-1.205 1.23-.584 1.01.344-1.393 1.634-3.153 2.2-2.163-.95-3.672.053-4.687-.858zm-6.602-6.3l2.02-.528 1.493.627 4.79-1.247 2.45.81.798 3.302-3.496 1.655-4.346.091-1.816.507-.227-.895-2.612-.183-.444-2.589zm30.04-173.58l1.8-.462 2.74.84 2.2 1.157 1.256.5.711-.945-.152-.604 2.107-1.099 1.234.601 1.247-.888.996-.52 1.318 1.386 2.014-.411 1.59-.952.091 2.057.521 1.548 2.256-.071 2.357 2.137-.993 1.367.244 1.183-.799.793.477 1.288-1.013 1.432.681 1.547.893 2.183-1.015 1.051-1.888.21-.74-.7-1.423.51-1.705-.53-1.651.476-.48 1.737-1.658.292-.645-1.99-1.019-1.093-1.997-.81-1.83-1.472-1.484-1.473-1.536-2.003-1.526-1.124-1.725-2.088-1.235-1.141.36-1.652zm-67.154 188.695l2.156-.95 1.818.438 2.76-.661 1.572.267 1.818-.294 1.977-.805 1.146-.493.064-1.714 1.168-.485.913-.738.91-1.05 1.038-1.174-1.159-1.779-.494-1.01.383-1.138 2.572-1.655 2.955-.438 2.55-.045 1.644.542.482 1.87 1.021 1.444 1.488-.543 1.763-.933 1.353 1.188.734-.053 1.006-.072 1.402 1.314-1.752.549-1.01.314-1.023.922-1.239-.143-1.972 1.298.966.995 2.78-.706 1.613-.073.034.853-1.529 2.563-1.98.048-1.623.66-2.431.321-1.602 1.306-1.712 1.16-1.68.851-2.015.835-2.318-.379-2.004-.615-1.43-.324-1.675-.151-2.61.702-.559.765-1.925-.488-1.788 1.347-.794-.543-1.688.316-1.934-1.39-1.438-1.607zm103.487-334.745l2.153-1.364 4.014-.676 4.652-1.463 6.673-2.856 9.072-3.089 7.59-2.195 6.811-1.19 4.655-.432.05.01 5.994 1.083 2.096 1.385-1.639 1.273-1.094 1.451-1.06 1.079-.226 2.187-.217 1.266-1.07.717-.114.927.665 2.64.915 1.32 2.276-.212 1.317.294 2.262 1.184 1.69-.124 2.71.189 1.105 1.612 2.178.172.902.658 2.32-.846 2.939 2.083.92-1.231 2.227-2.412 1-1.549.787-.475 1.494.463.073.873 1.244.56 2.298-.252-.656-2.31-2.233-1.84-2.553-1.22-1.262-.21-2.576.802 1.093-2.802.135-1.393-1.872-3.381-.402-1.855-1.617-1.372-1.494-.722-.687-3.33.684-1.083 1.435-.99.134-.78-1.62-.806-2.162-.237-1.519-1.357-2.76-1.429-2.791-1.463-1.028-.69.186-2.706-.195-5.67-.838-4.284-1.523-2.673-2.277-2.547-4.17-6.637-1.865-3.028-.389-.34-2.43-2.141-1.626-.96-.773-1.048-.543-2.343-1.65-2.3-2.4-1.873-2.21-.713 2.8-1.093 2.721-.261.967-1.898 1.13-2.222 1.106-2.783.714-3.802 2.723.85 3.606 1.272 5.283.573 4.276.074 2.602.25 3.41-1.118 3.934-2.461 3.995-4.046 1.507-3.018.965-4.686 1.366-3.063 1.191-2.1 2.309-2.31 3.355-3.908 2.262-2.331 4.26-2.534 2.455 1.135 2.52.595 4.46-1.382 5.88-3.91 3.508-3.371 2.194-2.008 4.314-1.548.292 1.552 2.141.924 2.386.217 1.84-.438 2.875-.013 2.36-.895 3.198-2.326 2.346-2.885 2.584-3.532.905-1.156 2.136-1.538.197 1.48 1.767 1.084 1.929.592.145 1.515 1.266-.154 2.537.717.453 1.853-.16.897-1.528 1.145-.535.866-1.644.435-.312 1.187.347 1.741 1.61.668 1.638-.317.546-.978-.149-1.435 1.345-1.32.98-2.16 1.787-1.632.965.547 2.911 3.229-.301 1.679.178 3.043 1.221-.09 1.187.3 1.356 1.178 2.114-2.739 1.91.11 2.05-.127 1.616-.813 1.607.268 1.227.776 1.768.062 2.331.619 1.715.888.264.763-1.337 1.329-.033 1.214-1.045.368.338 1.742 1.188.382 1.892.459.896.55 2.424.382-.309 1.159-.028 1.758 2.061.105 1.826.761 1.087.636 1.32-1.554 1.002-.733 1.023-.09 1.983-.542 1.268.53 1.027 1.04 1.963-.626 1.73-1.944 1.116.277 2.396-.65 2.507.71 2.276 1.401 2.282-.236 1.792 1.733.182 1.178 1.025.165 1.211-1.24 2.193.717.904.473 1.03 1.841 3.016.545 1.703-.652.763 1.291 1.528.06.83-1.092 3.328-.357 3.417.327 1.144.353 1.226-.822 2.337 1.861 1.826 1.016 2.46.87 2.52.371.918-.534 1.116.182 1.66-2.053 1.542-.589 2.906-2.225 3.387-1.154.866.212 1.14-.886 2.752 1.186 2.431.78 2.987 1.694.63.99 1.55.236 2.275 1.122 2.927.711 3.006 1.907 2.02-.13 2.063.592 6.397 29.497 15.201 69.263.004.018 23.622 105.224 9.456 41.295.543 2.357 6.903.754.284-2.58 7.43 1.817 2.865-5.255 8.132-2.652.31.905.115 6.79 2.782 1.958 5.369 1.102 1.704 2.986 1.114.866 17.646 9.897 3.62 6.532.28 2.3.015-.007 1.075-.41 1.78-3.329 4.421-5.473.344-.706 3.343-1.282.43-3.057.096-.687-1.703-4.818 1.718-.138 1.021-2.58-.348-.9-1.905-.577 1.815-1.815 3.095-1.76 2.43-2.776 2.626-3.033 4.269 1.562.537.793 1.732.61 1.746 1.166.871 2.364-.048 1.607 1.168.8.086 1.052 1.543 1.4 3.85-.427 1.178 1.58 1.851.914 1.168-.43 2.316 1.954.298 1.671 1.13-.038.428 1.17 1.698 1.227 6.974 1.278 3.193 2.44 6.317 2.989-.682 1.576 2.859 2.378 3.63 2.252 3.03 3.41 4.628 2.948 3.111 2.985 2.588 2.13 2.46 2.012 4.475 2.943 3.171 2.804-.334 3.926 5.112-.835.873 4.659.09.481 4.49.226.172 1.562 2.745 3.572 3.557-1.956 2.515.939 5.472.665 1.668.535.036.011 4.431-.936 1.365.257 2.648 1.15 2.613-.344 1.846 2.302 1.362-.221 1.813.098 1.824-1.53 3.01 2.51.857 2.07.141 2.924-.358.725.351 1.257.286 1.022 1.143.901 1.393 3.152 1.447 1.642 1.477 1.293 1.423 2.267 1.084.643.198 1.127-.56 2.744.112 2.672.24 2.477-.433 3.632-1.465 4.323-1.226 1.653.633.973-.604 1.024-1.252-.595-1.235-.428-.557.885-.39.079-1.484-.529-1.234-2.014-.79-1.153-.741-.988-.833-.302-.374-1.384-.82-1.1-.944-.467-1.094-.941-.449-.707-1.087.31.653 2.593.815 1.722-.189 1.827.61 1.307 1.036.19-.237 1.831-1.04.734-2.09-.246-1.31-.494-1.593.707-.61-.22-.311-1.13-.147-.533-1.004-.55.22-1.825-.47-.383-.255.045-2.19.384-2.07-1.317-1.61-2.2-1.465-3.578-.275-1.023-2.431-.244-2.787-.44-1.482-.546-.875-1.236-1.083-1.535-1.326-1.347 1.446-2.207.194-2.117-2.059-.5-1.71.57.204 2.236-1.428-.239-1.686-1.728-1.919-2.674-1.003 1.847-2.748-1.688-1.35-2.769-2.11.223-.52.176-1.025-.385-.85-.59-1.241-.097-.772-.159-.165-.416.002-.38.325-2.698.991-.993 1.645-.416 2.272-1.397.7-2.396.744-1.42-1.992-1.475-.932-1.616-.176-.294-.657-1.093-4.55-1.18-2.993-3.036-1.271-1.2-3.669.333-1.801-.838-.825 1.089-2.606-.395-2.029-1.773.122-1.997-.43-1.8-1.744-2.549-.683-1.505-1.965-.707-1.29-.918-.628-2.489-1.524-1.82-.141-.117-3.438-2.89-4.162-2.271-1.334-2.249-1.45-.883-1.219.525-2.104.451-1.445-.024-2.552.346-3.12-3.237-3.269-.804-1.727.82-.546.258 1.24 1.835.908 1.645-.574.717 1.095 2.423-2.344-.273-1.177.24-2.404-2.186-.634.362-1.173.667-1.445.682-1.795-1.573-2.544 1.362-1.75.633-.649 1.36-1.937 1.505-2.336 1.149-1.668.123-.11 1.206.422.852-.098.857-1.585.475-.71-1.401-2.397-.514-1.25-1.22-1.366-.58-1.255.6-2.79-.79-1.996-.553-3.852-1.674-1.39-.183-.801-1.196-2.91-1.664-1.93-.996-.032-.273-.13-1.159-.733-1.037-2.195-1.466-2.834-1.402-2.179-.471-4.407-.555-3.003-1.473-1.885-.652-2.423-.475-3.175-.623-2.404-.606-3.561-1.423-3.812-1.565 1.108-2.551 2.046-1.087-.517-1.809-1.083-3.031-2.408.275-1.084 1.193-2.576 2.007-1.19.893-.593 1.555-2.438.255-5.497.473-1.965-.214-3.654-.962-3.642-.822-1.623-1.24-1.755-.686-1.955.425-2.727-.806-2.167.05-5.322-.28-4.545.233-2.257.545-2.108 1.027-2.722.793-4.864 1.493-2.07 1.138-1.348.865-.15.097-1.654-.5-.789-.696-1.074-1.467-1.151-.328-2.147 1.092-1.378-1.413-1.89-.576-1.507-.523-3.924-.073-.647-1.622-1.956-.624-.565.764-1.702-.192-1.905-.915-1.683 1.222-1.724.702-2.853-1.003-2.322-.761-1.304.806-1.46.659-.46.327-2.2.591-1.252 1.078-1.458 1.706-.61.019-.722-.965-3.146.026-.92 1.553-1.927 2.168-1.4 1.958-1.412 2.765.672 1.48-1.572.388-.125 1.366 1.197.71-1.559 1.18-1.9.874-1.642.78-1.51 1.056-.806-.5.093-1.535.742-1.061-1.669-2.354-2.036.365-2.125.763.373-1.289-1.459-1.523-1.117 1.69-1.004 1.28-2.177.738-.785-.715-.055-.05-1.608-.115-.773.866-1.151-.75-1.403.418-1.285-.67-1.339.936-.589 1.941-1.453 1.123-1.48-1.851-1.353 1.544-.24 1.574 1.316.692-.199 1.845-1.46-.708-1.478.87-.102 1.986-1.483-1.748-1.092.325-1.112 1.807-1.804 2.195-2.024 2.665-.187 1.214-.873.755-.318 1.669-.657-.015-.78-2.23-.345-.967-1.185.36-.354 1.703-.963 2.354-.587.402-1.513-1.062-1.296.772.398 1.059-.77 1.021-.859.282-1.826.456-2.38-.219-.793-.064-1.906-.55.603 3.067-3.358 1.37-2.907-1.533-.869-2.384-1.015-1.462.292-1.903 1.1-2.19 2.078-1.377 3.27-1.629 2.71-1.468 1.734-1.675-1.361-1.874-2.164 1.434-2.808.08-1.512-1.103-1.792-2.35.78-2.154.777-2.1.535-2.625 1.545-2.587 2.568-3.269.515-2.398.17-2.154.845-.431.275-3.093-.336-1.844-.696-2.064-.875-2.145.538-.648 1.488-1.056 2.731-.563 2.25-1.92 2.532-2.469 2.722-2.075 1.337-.849.834.307 2.164 3.381 1.178.26 1.715.24 1.087-1.776.598-.802 1.328-.98.474-.352-1.658-1.748-2.44-1.642-.839-.315-2.691.786.462-1.013.076-.99.133-1.751-2.962.513-1.526-.624-1.942.175-1.962 1.118-1.502.553-.43.43-1.005 1-.952 2.204-.587 1.063-1.167.208-1.303.872-1.796.008-1.62 1.305-1.631 1.754-1.076 1.442.33 1.217 1.041 2.196-.166.624-2.516-.294-1.947 1.748-1.333 2.33-1.742 1.145-.974 1.836.412 1.68.951.578-2 1.372-.488 1.64-1.815 1.309-.5.998-.059 1.04.398 1.6-.363 1.862-1.498 2.277-.316 1.36-2.3 1.27-1.522-.202-.618 1.444-.135 2.269-.53 1.694-1.51 1.041-1.24.606-.998.173-1.448-.333-1.927.13-.178.945-.386 1.166-1.555.049-1.117.24.843 2.31-.729.952-1.68.11-.937.51-1.087.554-.527 1.637-1.384 1.084-.346 2.027-.513 1.25-.166 1.41 1.676 1.53 1.922.337 2.06-.189 1.454-.032 1.411 2.161 1.724.183 1.26 1.3 1.02 1.267.802 1.187-.455.38-1.092.915-.543 2.257-.658.947-1.63.601-.619 1.345-2.12.864-1.809-.158-.927 1.436-.368 1.832-1.085.113-1.092 1.477 1.243 1.467-1.385 1.06-.52 2.084-.711 1.984-1.266 2.228-1.857 1.138-2.159 1.03-1.635.89-2.848.317-1.676-.784-2.346.703-1.496 1.238.796 1.49-.609 1.102-2.79 1.045-.307 1.887-1.144 1.2-2.284-1.48-1.563-.592-.265 2.601-.291.908-1.514.567-.304 2.429-2.883.216-2.078.126.368 2.206-1.263.243-2.002-.317-2.333 1.126.248 1.91-.314 2.562-.023 1.931-.687.622-1.187 1.07-.7 1.446-1.348 2.354-1.369-.394-1.076.105-2.182 2.44-1.691-.82-1.682.89-.753 1.29-1.967 1.854-1.609-1.217-2.02.57-1.989.517-.69 1.417 1.61 1.956-.798.696-1.74-.319-1.156.224-.575-1.356-1.113-.647-2.131.574.527 2.325.666 1.639-1.024 1.594-1.594-.782-2.577.168-1.903-.389-.57-.515-1.462.228-1.223 1.032-1.148 2.404 1.189.319 1.988.848 1.24.8 1.236 2.045-2.91 1.361-1.634.952-.596 2.01-.862 1.992-1.346.272-2.055-.72-.387 1.03-1.567-.23-2.496-.087-3.41.614-.166 2.372-5.613 2.793-2.46.792-.699 1.074-.17.262-2.317 1.284-.634.002-.234-1.398 1.533-.99.528-2.779.99-1.42-.704-1.175-1.43-.63-1.498 1.265-1.476-.257-1.522.088-.865 1.985-1.383.99-2.666.767-2.059.82-1.536 1.84-.107.784-1.137.78-2.014-1.503-.484 1.513-1.946-.1-.809-.79-2.326-.407-2.073 1.567-3.174 1.005-3.847-.835-.32-.849.908-1.504.465-1.616 1.949-1.838.052-1.759-1.443-.45-1.808.073-1.514 1.51-.954 1.209-.387 3.15-1.966 2.002-1.795 1.538.239 2.802 1.52.984 2.09 1.943.224 1.205-2.279-.836-1.865.43-1.632-1.794-.77-.517-1.848.78-.923-1.066-1.418.803-.717 1.01-.682 1.887-.516 2.368-1.027 1.022-1.153-.086-.96-2.023.09-1.016 1.039-3.06-.873-.657-1.938 1.03-.52.885-2.108-.046-2.314.457-1.18-.982-.529-1.444-2.176 1.572-1.676.853-2.079.964-1.848.453.977 1.256 1.622.431 1.527 2.266.09 2.04-2.934-1.595-2.98-.129-3.287.308-3.808-1.33-4.039-.633-4.074.58-1.707 1.064-.698 1.656-2.095.86-3.328.021-1.727-.551-1.695-1.607-.19-2.158-.418-1.16.297-1.377 1.728-.786 2.247-.184 1.558-1.358 2.56-3.1.544-2.044 2.626-.485 1.236 1.52 2.58-.488 1.704-.747 2.18.115 2.051-1.21 2.122.006 4.002 1.419 1.035 2.888 1.568-.237 1.447-1.458.067-2.845 3.39-.85 1.608.594 3.008-.126-.288-1.717 1.742-1.048 3.432-2.086 1.726-1.887 4.144-3.303 3.039-2.588 1.844-.777 1.397-.98 2.727-.735 1.826-1.404 1.627-.049 4.55-.635 5.095-.783 3.189.234 2.568.452-.46 2.228-.025 1.84 3.644 1.306.94-.01 1.079-1.256-1.04-1.462-.797-.831 2.116-2.467 1.991-3.585.675-2.038 2.959-1.52 1.49-1.35 2.819-1.028 2.964-2.344 5.066-1.69 5.52-2.555 4.36-2.436 1.136 1.133.572.568 1.746.16 1.464-.25.293-1.058-.38-1.962.403-2.23 2.88-3.871 3.867-3.924 1.558-.988 2.414-.761 2.78-3.178 2.713-1.774 1.51-.328.064-1.345-.236-1.42.706-2.743.997-3.26 1.385-6.277.795-1.66 1.372-1.863-.834-1.842.398-2.862 1.21-2.882 2.77-2.162 1.158-1.183 1.829-1.876 1.264-1.601 1.285-2.675-.262-.797-1.483-.259-.562.186-3.646 1.194-2.895 1.277-3.205 1.032-5.69 1.911-1.356-.303-1.33-1.48-.376-2.449-.62-.71-1.97-1.2.854-1.47-1.27-1.726-2.356 1.053-.557 1.656-.04 1.473-1.421 1.505.234 2.042 1.31 4.354-1.65 1.962-1.351.327-2.612-1.3-1.75-5.488-1.997-5.249-1.56-1.971-1.59-.568.78-1.036-.01-1.366-1.418-.15-.76 1.446-.88 1.375-1.894.993-.8-1.744-2.378-1.263-1.047-1.188-1.077-1.712 1.155-.992-.543-2.297-3.17 1.2-3.562 2.021-1.803 2.374-.468-1.52-2.032.482-.544.221-.841.342-2.216.893-1.883.674-.088.203-.817 1.875-2.916 1.067-3.291 1.111-.409-1.853-3.343-.502-1.887-1.592 2.825-.62 2.753-.801 1.477-2.983.22-4.21-.98-3.164-.803-2.51-.3-2.394 1.264-2.204 2.57-2.238 1.029-.84 1.372-.397-.597-2.302-.98-2.606.101-1.4-1.437-4.667-.482-2.136-.216-1.416-.694-2.709-1.37-3.479-1.05-.427-.845 1.102-.313 1.421-.181 1.436-.682 1.364-1.517-.189-1.595-.348-1.214.855-1.832.36-3.773 1.008-4.195.084-4.466-.61-2.152-.745-2.538-1.825-.447-2.701.593-.655.842-.653-1.574-1.985-1.55-1.88-.767-3.157-1.145-1.319-.657-1.952-1.08-.202-2.416-2.252-1.362-2.795.997-.533.808-.097 1.181-1.338-.303-.502-1.51-.084-1.536.586-1.125-.326-1.126-.526-.45-1.397.924-.642 2.364-.223 2.305-1.552 1.189-.118.072-1.316-.209-.863.6-1.743-.194-2.247-.22-.428-.805-1.582 1.067-.805 1.341-1.058-.837-1.178-.438-1.776-1.457-.931-1.425 2.224-.94-.361-1.187-.586-.783-1.527.753-2.404.491-1.33-1.896-1.43-.593-.065-.448-2.916.776-.6 1.245-.2.865-.906-1.196-1.65-.444-.733-1.237.135-1.322.987-.798-.812-.08-2.776 1.738-2.868 1.494-.807-.197-1.418 2.203-.407 1.562 1.102 2.24-.009.062-.765-.54-2.692.541-2.542 1.639-1.972 3.688-3.12 3.368-3.258 2.801-1.997 1.062-1.892 1.514-1.328 1.718-.338.12-1.872.226-1.487 1.419-2.423 2.34-2.78 1.538-2.196 2.577-1.918 3.12-.636 1.786.114 1.948 1.58 1.788.664.975 2.254 1.014.39 2.026 3.203 3.324.136 1.993-1.32 1.108-.727.575-1.328h1.23l1.911-1.458 1.048-.803 1.771-2.24 1.078-1.05-2.075-2.743-1.523-1.446 1.696-.986 2.279.198 1.29 2.849 2.01 1.173.749 2.032 3.788.188 3.066.693 2.925-.319 1.757-1.695 4.366-4.59.552-2.017-.838-4.855-.17-1.917.457-4.204-1.955-3.744-.742-1.643-2.683-1.166.817-2.168 1.111-.945 1.975 1.764 2.579-.794 2.654-1.712.549-2.611-1.276-3.116-1.425-1.543-.475-.872-.986.24-1.549 1.207-.829 1.423-1.707.243-1.342-.885-1.587.462-1.402.84-2.163.052-1.567.267-.805 1.316-3.972 1.672-1.002 1.217-.843 2.45-1.86 1.075-.22-2.92.107-1.733-.72-1.336-1.188.394-.162 1.118-.966.916-.797 1.39-.91-2.269-1.483-2.237-2.868-1.855-1.599-.531-1.79.25-1.888-.804-1.842-.346-3.026.53-3.39 1.06-2.316-.14-2.983-2.07-5.57-3.13-4.393-2.413-1.495-2.322-.008-2.93.348-1.084 1.2-1.22-.052-.883-1.17-2.37-.97-1.274-.164-1.069-1.18-3.109.372-.253 2.662 1.123 1.994-.602.809-1.709 1.43-.73-.695-1.39-1.586-.925-1.689-.392-1.409-1.175-1.63-1.16-2.932-1.221-1.233-.786-1.661-2.651-1.395-1.81-1.845-1.443zM302.01 733.094l5.314-1.56 1.907-.683 2.516-1.652 1.595-.345.436-2.257 1.356-1.53 4.15-1.845 2.117 1.431.996-1.49 1.18-1.987 1.685-1.911 2.216-.694 3.982.07 1.516 1.794 2.1.819-.76 1.192-1.269 1.014-.161 1.29-2.43.6-2.797.752-4.098.532-1.37 1.338-1.792 1.292-1.319 1.296-3.173.385-1.714.75-1.76 1.265-1.637-.611-3.464 1.255-3.409.466-1.805.033zM333.54 622.78l2.961 1.437 2.12.704-.105 1.245-2.413.569-1.526-.651zm-46.664 104.48l2.83-3.263 1.4-.28 2.471 2.145 2.373-1.34-.01-2.88 1.52-.27.514 2.08-.602 2.47-1.018 2.446-1.587 2.224-1.805-1.167-2.305-.8-2.912 1.08-2.353-.554zm43.726-123.568l1.969-.02 2.374.757-.483 1.718-2.782.585-1.643-1.655zm-56.436 123.295l3.201-.713 2.166 1.474-1.959 2.243-1.792-.536-2.223.433-.705-.88zm-10.085.476l1.365-.577.697 1.232-1.3 1.62-1.134-.997zm113.197-296.767l1.067-1.21.84-2.473 1.332-1.42 1.477.52-.353 1.893-.15 1.384 2.299 2.214 3.564 2.85 1.21-.05 3.68-1.106 1.566-.12 1.603.66.707.792.57 1.666.8.66-.154 2.113-.105 1.777 1.428 1.48 2.204 1.126.667 1.427.948 1.149 4.18 1.996 1.691.776 2.622 1.95-1.453 1.786-1.613 1.316-1.286.038-1.244-1.578-1.863-.497-2.945.708-1.505.615-.921 1.054-.35 1.336-1.185.73-1.194-1.079.393-2.275-.509-2.009-1.432-2.187-1.421-1.045-.912-.26.088-1.702-.756-2.48-2.092-2.576-2.265-2.065-1.893-.918-2.099.058-.956.47-2.272.843-.91-.865-1.273-1.417-.802-1.065.023-3.027zM239.793 722.943l1.774-.89 2.053-.186 1.741 1.617-.032 1.2-2.574.61-2.202-.254-2.011-.6zm92.473-225.626l.916 3.452-.143 2.595 2.67 4.317 1.78 1.645 1.314 1.95-.62.932-1.891-1.308-2.502-1.686-2.098-4.419-1.54-2.251 1.093-4.283zM191.669 707.74l4.958 1.352 2.879.25 2.821 1.492 3.106.462 2.234-.652 1.485-2.655 2.889-.57 2.975-.008 1.565 1.699.403 2.647-2.112 1.7-.97 2.982 2.13.837 4.185 1.83 2.257.647 1.926 2.642 3.614 1.11 3.578 2.314-1.105.936-3.46-.949-3.983-1.384-2.05-.87-2.665-2.3-2.26-.697-1.265-.826-3.016-2.254-2.737-1.953-1.841-.66-1.37 1.644-2.127-1.888-3.395-.734-2.407-1.66-2.2-.709-2.262-1.334-2.817-1.344zm-32.3-5.055l2.19-2.581 2.717.321.843-.753.106-1.992 1.164-.683 1.194.726 2.494.063-.204 1.533-.764 1.152-1.35 1.578 2.63.821 2.122.791 2.392.979 1.04-1.687.507-1.473.5-1.989 1.767-.845 1.4 1.046.162 1.573.931 2.949 1.223.85 2.41 1.155 3.774 1.37-.152 1.303-4.08-.854-2.656-.94-3.904.392-1.23.868-3.092-.573-2.555-.473-3.117-1.219-1.67.032-2.428.033-1.535.447-1.59-.758-2.495-.548-.55-.87zm-10.76-8.25l3.27.988 3 1.48 1.756.13 2.068-2.507.79-.688 1.211.944.31 1.48-1.9 1.304-1.768 2.82-1.706-.216-1.63-.364-.935-1.104-2.41-.914-3.135-.847-.143-1.825zm-5.895-9.213l1.903.662 2.137 1.426.034 2.278 2.015 1.336 2.395 1.137-1.359 1.058-2.138-.254-2.098.88-1.153.458-1.942 1.741-1.669-2.179-.41-1.928 1.426-.085 1.337.424.805-1.83-1.035-1.555-1.308-2.787zm-16.246 1.807l4.232.67 1.76 1.65-1.263.858-2.722-.928-1.374-1.027zm4.462-6.683l1.744.606-.343 2.175-1.532.385-1.103-1.862zm-13.668 11.234l5.024-1.643.596 1.475-.405 1.278-4.047.637-1.372.239z"/></svg>