<svg height="1000" width="1000"><path class="americon" d="M915.234 642.58l.254-.732-.226-.804-.276-.647.341.026 1.044.227.159.564.182.164-.189.673-.108.746-.197.749-.819-.57zm-1.392-.98l.586-.488.211.143.097.708-.818.056zm.532 2.015l.083-.362.484.45.2.273-.342.185-.324-.243zm.66 4.364l-.415-2.352.02-.228.146-.517 1.896-.518.604.104.062.05.21.87-.021.19-.182.262-.194.108-.09.133.058.638.062.17.155.12.334-.078.522-.69.237-.723-.143-.428-.027-.643.038-.06.87.162.507-.396-.322-.306-.047-.634.013-.255.24-.401 1.065-.407.878.496.26-.028.157.075.175.272.133.664-.044.583-.478 1.162-.301-.092-.4-.195h-.094l-.389.367-.402 1.105.29.32.585-.31.179.033.115.098.137.29.11.609-.075.167-.296.111-.627.705-.75 1.687.052.966.126.65.251.86-.038.071-.197-.01-.256-.133-1.47-1.13-.059-.112-.1-.327.19-.284.172-.665.052-.524-.228-1.025-.57-.783-2.074-.55-.153.079-.196.181zm-5.97-13.6l.158-.412.222-.335.15-.9.165-1.991.09-.193.286-.377.574-.243.485-.05.446-.345-.028-.357-.465.143-.881.041-.38-.472-.097-.59.298.003.722.166.204-.513-.056-.466-.158-.214-.598-.107-.476-.198-.686.053-.61-.19-.01-.342.375-.197.135-.445-.251-.406-.311-.173-.358-.453-.43-.746-.062-.49.099-.037.126.022.14-.453-.038-.072-.041-.11.376-.414.17-.079 2.672-.448 1.333-.57.716-.116.77-.229.474-.472.678.21 1.768 1.372.292-.002.195.18 1.063 1.26.161.848-.065.18.075.271.077.154.202.233.4.007.376-.17.385.167.231.54.376.375.36.212.454-.175.33.418.04.258.608.196.079-.433.521-.329.255.267 4.216 1.455.372.167.09.07.102.224.601.456 1.095.521.939.573.898.662 1.294 2.588.093.265.283.084.51-.22.295-.187.222.023.557.286 1.027 1.267.237.412.757.563 1.202.252.806.076.2.06 1.1.734.164.228.031.083-.252.327-.23.05-.85-.245-.263-.131-.066-.1-.34-.138-1.295-.122-.162.044-3.592-.394-.334.468.483.322-.526 2.263.183.224.51-.315.271-1.411.62.263 1.164-.793.669.716.343-.226.863.075.667.278.196.144-.024.075-.242.232-1.695.942.792.624 1.583-1.254.271-.022.978.89 1.043-.08.669.808.838.92.25.12.27-.099.083.361-.01.26-.244.817-.32.16-.875.13-.14.306.424.311.157.068 1.45-.042.337-.193.182-.261.01-.515-.1-.32-.173-.136-.026-.18.054-.467.193-.572.115-.11.517.146.19.114.815 1.157.408.81.011.494-.487.662-.025.256.172.463.057.049.387-.043.07 1.065-.276 1.655-.67.984-.185.167-.19.085-.154.31.013.088.263.383.822-.204.103-.089.6-1.267.275-.762.145-.127.464-.113.338.098 2.14 4.69.144.07.33.282.512.782.15.354.071 1.887-.032.722-.064.318-1.639 1.043-.386.095-.368-.219-.425-.12-1.112-.125-.105.057-.185.278.008.063.131.271-.018.031-.45.088-.529-.581-.77.106-.45-.825-.94.317-.845.704-.354-.029.422-1.647 1.608-.436-.032-.087.086-.212.134-.047-.495-.607-1.535-.47-1.2.144-1.54-.4-.514-.206-.674-.342-.092-.095-.155-.26-.057-.342.19-.043.275-.247-.004-.13-.656-2.91-.296-.378-.032-.008-.182.058-.394.477.033 1.15.019.241.065.139-.004.093-.06.038-.062-.038-.289-.474-.271-1.192-.048-.856.024-.292.056-.191.047-.03-.015-.317-.699-.595-.295-.05-.116.484.22.176.047.09.16.627-.332.418-.414.379-.584.364.776.803 1.057 1.249.12.517-.018.099-.529 1.16-1.183.029-.943-.04-1.04-.185-.284-.218-.26-.375-.03-.115.257-.337.102-.976.015-.447-.172-.25-.73-.814-1.104-.827-.086-.014-.705.16-.285.446-.817-.526-.228-.402-1.114-.017-.084.431 1.477 1.516 1.595 1.13.896 1.187.15.333-.212.407-.033.285.235.313 1.017.03 1.904 2.315.035.293.594.305 1.28.347.346-.22-.01-.085-.284-.632-.15-.167-.156-.092-.215-.367.14-.386 1.021-.623 1.671.406.581.426.94 2.033.525.749.06.316-.157.497-.56-.083-.34-.186-.604-.535-.146-.341-.203-.122-.313-.11-.112-.01-.332.327-.027.148.109.234.274.124.838.845 1.686 1.925.103.156-.002.06-.24.226-1.353.398-1.722-.081-.075-.034-.083-.431-.163-.316-.472-.598-.393-.295-.425-.215-.177-.012-.348.13-.205-.057-2.065-1.265-1.775-1.3-.631-.409-.774-.272-.287-.461-.152-.687-.53-.754-.075-.028-.403.148-.276-.104-1.051-1.227.159-.31.079-.066 1.159-.426.151-.074.075-.095-.483-.113-1.422.071.158-.357-.868-1.12-.32-1.335-.496.149-.267.56-.522.539-.268.154-.369-.342-.17-.067-.265.022-.283.542-.135.146-.101.09-.294.09-.275-.105-.608-.674-.116-.208-.127-.34-.234-1.143-.04-.404.14-.382.503-.577.606-.43.327-.072.448.254.173.288.025.084.582.583.412-.03.326-.293.003-.393-.029-.137-.439-.135-.544-.234-.115-.215-.052-.222.03-.337.087-.281.309-.601.25-.181.449-.033.478.038.79-1.56-.594-.276-.877-.634-.776-.34-.304-.285.165-.395.487-.206-.112-.306-.393.091-.698-.183-.295-.757.448-.35-.57-.496-1.119 1.037-.326-.226-.374-.115-1.765-.243-1.06-.34-.025-.031-.465-.54.313-.23.589-.1-.458-.685-.528-.283-.164-.864-.434-.098-.98-.095-.233.355.175.3.323.213.038-.013.122.159.175.355.024.198-.407.529-.45.082-.519-.01-.8-.135-.38-.134-1.421-.992-.081-.174.27-1.313.422-.416.97-.527 1.69.23.863.189.96-.875.068-.087.136-.463-.655-.322-.913-.872-1.108.022-.48.732-.513.063-.124-.24.123-.863-.49-.944-.229-1.635-.419-.24-.256 1.36-.85 2.126-.471.437-.236.529.625.33.215.475-.033.418-.2-.067-.44-.546-.382-.326-1.586-.374-.551-.623zm-15.369-35.687l.247-.614.312-.27.72.038.305.413-.384.578-.28.408-.467.293zm13.996 37.863l-.006-.157.046-.119.484-.697.222-.121.204-.038.2.068.332.495.087.188.21.29.073.16.077.51.02.647-.058.117-.42.176-.156-.015-.394-.227-.239-.197-.538-.626zm-6.446 2.6l.301-.622.349-.023.68-.473.143.329.318.656.346-.547.741-.697.293-.191.08-.464-.216-.45-.107-1.023.363-.1.166 1.173.187.749.116.08.021.387-.027.155-.07.095-.155.019-.297.255-.443.666-.222.464-.028.352-.277.765-.095.176-.467.241-.303-.185-.336-.082-.159-.362.309-.494-.33-.224-.405-.253zm-10.592-25.211l.44-1.575.698-.71.085-.913.342-.116.81-.27.584-.265-.143-.634 1.821.344 1.365 1.688 1.43.87.792-.411.851-.168.674.292.284-.808-.125-.013-.351-.23-.151-.04-1.315-.143-.511-.498-.918-1.072.05-.42-.627-.818-.952-.45-1.642-.634-.137-1.006.248-.449 1.522-1.321 1.875-.153 1.175-.05 1.377-.327 1.342.06 1.515-.035 1.36-.158.272-.008.055.049.139-.076.028-.264.004-.039.21-.182 3.066-.98 2.265 1.046.4.298 1.13 1.297.51.76.2.45.685.32.51-.044.287-.11.521-.093 1.3.725.638.64.098.292 1.512.41.683.07.08-.031.141.19-.004.24.046.219.08.074.162.018.342.352.269.21.31-.11.257.041.104-.066.12.009.253.313.075.24-.697 1.194-.2.206-.03-.023-.313.179-.484.918-.176.523-.854.96-.299.175-.99-.029-1.673.592-.01.064-.896.136-.765.144-.41.002-.416.059-.008.14.093.24.09.08.265.033.254.505-.117.826-.103.266-.492.6-2.395.3-.14-.012-.237-.352-.237-.142-.086-.025-.388.135-.157.116-.056.04.004.468-.2.871-.587.777-.278.184-1.061.41-.555.116-.293.011-.177-.11-.558-1.017-.444-.92-.872-.505-.477.98-.515 1.135.934.412.781 2.123-1.228.548.175.773.495.194.537.775-.156 1.441.502 1.455-.088.737-.364.797.584.841.094 1.68-.452.467-.385-.035-1.125.233-.156.512.319.988.033 1.206-.975-.128-1.15-.945-.961-1.33-1.047-2.53-1.346-1.808-.582-1.791.305-1.425-.648-1.272.094-.99-.202-1.672-.917-.407-.823.406-.335.077-.409-1.896-.562-.536-1.065-.34-1.052-1.6-.31-1.024-.873-1.3zm-23.65-38.994v-.2l1.155.594 1.836 1.017.08.114.174.409.522.41.333.06.443-.112.128.112.624 1.22.071.138.261.6.355.656.106.122.175.017.095-.036.693-.363.224-.373-.011-.052.09-.341.386-.5.358.194.397.112.3-.014.309-.076.216-.163.228-.079.523-.014.218.044.572.225.675-.102.13-.097.076-.246.607-.393.571-.355.569-.143.436.663.028.112-.066.126-.078.571.298.63.14.135.308.201.65.356.854.54.179.176.157.22.053.139-.118.284.054.122.265.196.43.242 1.063.542.399.313.162.264.095.226.886.917.592.293.742.64.133.245.014.086-.027.108.09.306 1.188 2.47.679.517.668.406.094.048.18-.014.102.087.348.486.31.687.033.132.003.197-.043.14-.423-.095-.571-.655-.1-.32-.144-.152-1.112-.795-1.01-.416-.165-.104-.612-.516-.64-.971-.349-.79-.558-.684-.558-.126-.74-.351-.539-.428.013-.057-.138-.242-.14-.184-.148-.126-.343-.083-.43-.034-.33.232.043.304 1.112 1.025 1.125.777.246.315.244.39.02.099-.477.695.485.46.288.247 2.114 1.363.106-.016.35.074.714.324.482.278.156.33.182.916.112.212.327.4.334.314.416.234.342.244.851.935-1.07.249.165.335 1.595 1.706.192.34.056.159-.009.12-.776 1.947-.066.072-.206.115-.516-.253-.486-.123-.333.051-.53.325-.033.158.422.386.122.147.068 1.454-.216 1.385-.316.84-.95 1.852-.14.07-.563.587-.321.422.268.365-.094.425-.969 1.655.053.275-.143.219-.925.584-.63-.073-1.27-1.874-1.372-3.084-.042-.403.175-1.09.276-.774.578-.836-.615-.472-.226.125-.26-.057-.046-.06-.624-1.512.26-.32.428-.097.1.193.015.115.04.11.787.238.108-.1.01-.553-1.849-1.325-1.473-1.144.037-.302-.084-.33-.516-.699-1.216-.852-.22-.185-1.022-1.799-.18-.259-.119-.124-.28-.067-.314-.34-.308-.951.044-.75-.444-1.32-.79-1.184-.286-.312-.202-.163-1.002-2.13-.229-.33-.276-.231-.825-1.352-.049-.7-.161-.383-.954-1.012-.866-.744-.142-.075-.203.043-.137-.026-.298-.204-.42-.475-1.13-1.61-1.147-2.208zm-2.098-2.768l.106-.02.58.24.3-.056 1.146.231 1.229 1.07 1.202 1.295-.023.118-.42.174-2.069-2.224-.542.14-.822-.15-.678-.64zm-9.302-11.801l.335.11.984 1.26.347 1.08-.295-.064-.432-.42-.9-1.692zm10.986 46.539l.067-.159.35-.322.315-.05.057-.256.001-.117-.032-.136-.154-.13-.049-.133.108-.052.22-.396.209-.286.207-.093.15-.336-.11-.27-.05-.028-.04.038-.024-.024-.023-.05-.022-.063.035-.076.018-.058.236-.078.048-.14-.269-.85-.515-.671.326-.139.29-.778.456-.936.282-.324 1.028-.046.151.048.524.325.637.464.016.06-.066.439.269.255.498-.093.257-.178.213-.269.275-.067.98.504-.039.214.215.188.258.106 1.381.11.38-.113.166-.135 1.442-.588.504-.119.746.042 1.314 1.6.333 1.175-.186.244-.148-.136-1.025-.534-.546.182-.413.216.01.148.129.394.062.078.124.046.35-.147.783.188.597.5.357.366 3.2 4.692.756 1.204.422 1.139.173.542.508.411.639.635.463 1.374.633.558.372.495 1.221 1.898.862 1.627.353.755.7 2.332.025.392-.061.09-.495.114.196.458.306.537.167.201.079.053.354.483.823 1.764.972 2.433.31.834.2.534.412 1.952.074.469.028.381.007.09-.088.036-.563-.06-2.158-1.053-.74-1.1-.526-.728-1.684-.962-.75-.628-1.378-1.612-.925-.962-.738-.587-.08-.025-.167-.328-.229-.805.047-.415.161-.409.246-.328.164.094.192-.027.208-.301-.166-.322-.268-.282-.309.042-.46.205-.006.29-.32.485-.311.357-.154.124-.23.091-.122-.113-.847-1.118-.014-.089-.682-.553-.475.563-.35-.57-.9-.097-.7-.512-.354-.395-.063-.143.248-.326.2-.143-.087-.272-.535-.106-.588.813-.75-.362-.949.585-.685-.062-.875-1.068-.936-.815.97-.428.83.46.422-.482-.6-.931-.441-1.482.507-1.611.039-1.011-.642-.372-1.394-.412-.761-.478.032-.651.669-1.275-.378-.444.176-.596.268-.499-.157-.197-.132-.62.096-.207-.055-.294-.16-.098-.616.135-.124.056-.173.189-.3.08-.387-.096-.12.01-.346.217-.054.227-.475.597-.222-.188-.02-.06-.214-.266-.788-.657-.073-.119.015-.117-.08-.177-.542-.14-.124-.069-.06-.132-.697-.259-.277-.319-.23-.137zm-10.054-27.05l.679-.7.539-.19.472.007 1.258.683-.008.234-1.444.684-.77-.077zm8.908 31.202l-.264-.72.088-.48-.678-.968-.018-.521.663-.32.549-.354.84.172.344.249 1.134.41 1.115 1.08.305.354.791.231.297-.463.372-.575.692-.16.57-.04.075.812-.324.949.1.467-.533.24-.293.367-.318.185-.249.748.347.914-.234.728.193.727-.197.668.066.487-.687.097-.696.634-.531.29-.697.546-.518-.021-.317-1.31-.359-1.159.324-.908.618-.666.007-.689-.403-.5-.597.092-.603.224-.11-.729-.946-.466zm-17.09-35.388l.011-.32.305-.161.445.25.34.517.102.253-.046.217-1.05-.62zm2.853 8.5l.353-.715.865-.765.136-.046.148.183.32 1.044-.69.724-.486.022-.619-.312zm-2.73 11.747l-.836-3.004-.21-.788-.07-.39.103-.534.454-.494.382-.022.134.09.181-.56.203-.63.634-.728-.244-1.234-.296-.567-.334-.428-.383-.485-.389-.319.025-.152 1.158-.443.523-.05.176.66.248.587 1.117 1.191.482-.435.19-1.213.278-.267 1.519-.363.173.358.842-.186.059-.304.435-1.143.925-1.502.275-.24.262-.06.464.458.663.56.403.111 1.251-.168.677.042 1.215.415.362.206.154.129.081 1.437-.047.596-.466.777-.493 1.55.587 1.073.337.182.359-.28.09-.273.082-.562-.131-.21-.136-.49.006-.075.104-.567.44-.929.182-1.532.352-.426.107-.077.216-.037 2.193.648.21-.084 2.256-.543.416.074.086.155.309.3 1.445-.185.157.013.346.198.379.33.737 1.024.32 1.229.058.388-.752 1.429-2.36-.415-.407.354.298.439.362.17.276.096 1.107.078 1.399.528.731.333.18.263-.82 1.054-.59.399-.395-.184-.312.33.103.12.367.424.537-.072.643.005.145-.15.328-.642.545-.217.19.065.286.411.464.95.186.655 1.324 1.316.405.602 1.453 2.502-.003.534-.356.699-.362.29-1.733.796-.966.037-.117-.008-.117-.067-.819-.554-2.064-.74-1.512-.4-1.192-.267-1.502-.425-.767-.307-1.058-.359-.215.401-.724.602-.738-.503-.351.272.251.349.186.199.728.37 1.25.375.287-.19.282-.36.361.098.325.206-.053.242-.122.032-.386.307-.149.171-.142.381.147.46.38.015.077.9.503.779-.027 1.33-.584 1.638-.37.998-.19-.114-.793-.02-1.186.188-.875-.22-.224-.232-.159-.635-.859-.253-.473-.264-1.015-.672-.556-.038-.304-.503-.681-.426-.176-.62-.64-.2-.317 1.1-.6-.452-.716-.213-.411-.794-.769-.89.036-.654-.74-.74-.876-.962.03-.387-.146-.206-1.263-1.067-.11-.057-.033-.017-.274.09-1.18-.25-.388-.409-.37-.63-.884-.235-.324.163-.267-.104zM703.21 558.2l.967-.06.481.22.33.486.27.074.179.396-.287.269-.422.31-.633-.165-.513-.574-.55-.807zm-5.027-.146l.77-.432 1.056.044.696.21.922-.135.306.13-.04.752-.332.24-.702.156-.529-.132-.665-.458-1.13-.169zm-19.604-11.531l1.208-.981.223.023.248.14.195-.042.623-.327.22.005.55.295.099.15-.187.564-.458.522-.194.134-.713-.142-.371-.192-.493-.04-.768.05-.235-.067zm-1.823 6.61l.141-.853-.175-1.254 1.227-.554.162.038.376.72.875 1.318-.443 1.128-1.438.36-.405.067zm1.027 11.313l.1-.363 1-.506 1.06-.84.1.859-1.873 1.627-.243-.275zm-4.75 13.866l.406-.554-.05-.393-.264-.588.308-.746.433-.316.708-.103.009-.605-.241-.39.093-.357.401-.31.448-.747.4.051.41-.318-.013-.417-.405-.149.132-.407.763-.44.676-.53.397-.782.925-.735 1.066-1.308.285-.891-.029-.39.533-.743.068-.958.535-.5.674-.685.296-.65-.5-.318.117-.426.02-.674.15-.663.54-.546.734-.436.27.293-.18.368.207.367.61-.045.6-.125-.026.345-.36.593-.325.378.512.358.39-.348.701-.443.317-.02.15.51-.45.959-.299.38-.51.648-.871 1.058-1.151 1.098-.418.592-.542.95-.595.965-.578.894-.238.907.166.626-.155.458.663.396-.439.307-.725-.306-.408.388-.39.335-.236.504.502.527.389.064.81.647-.246.418-.644.705-.669.058-.472.244-.404-.422-.79.158-.349.468.116.427-.468.586-.472-.096-.702.292-.515.36-.38.463-.614.235-.482-.173zm-1.468-13.017l.167-.866.98-4.102.462-1.8.125-.214.057-.026.193.196-.137.566.438.418.177-.025.3-.217.075-.12-.15-.425-.147-.126-.077-.856.048-.178 1.345-1.757.617-.484.053.024.118.152.09.402-.127.721-.507.84-.113 1.18.132.814-.697.704-.204.287.169.465.719-.108.128.152.084.418-.211.826-.358.936-.393.703.177 1.126-.04.508-.147.752-.45 1.344-.076.07-.26-.172-.563-.476-.4-.417.182-.085.054-.084-.032-.192-.395-.22-.773-.157-.503.103-.172-.165zm-2.168-13.5l.688-.829.123.111.086.158.65.123.892.981.038.1-.149.503-.094.19-.857.507-.567-.463zm-31.164-9.655l.151-.704.107-.22.758-.14.085.184.009.187-.414.61-.498.477-.51-.086zm-5.55 51.56l.415-.505.56-1.139.423-.615.807.409.12.241-.094.878-.46.37-.408 1.108-.587.403-.61-.335-.158-.105zm-10.977 5.6l.685.116.728.205.035.514-.19.365-.682-.463-.533-.357zm-2.785.484l.45.066.733.344-.068.352-.274.449-.764-.317-.195-.4zm-2.112-.943l.532-.354.365.024.14.367-.056.544-.205.302-.218-.052-.514-.208-.372-.34zm-.136 27.34l.388-1.109.688-.18.406.478-.06 1.037-.32.798-.686.457-.146-.033-.299-.688zm-2.971-20.379l.165-.631.467-.058.412.216.728.762-.905.172-.865-.104zm-.37-40.648l.145-.434.833-1.221.451-.301.186-1.703.178-1.028.304-.164 1.284.85-.025.136-.752.602.059.566-.678.277-.47 1.193.26.592-1.734.77zm-2.885 85.464l.12-.364.348.075.24.243-.115.489-.348.056-.458.08zm-.935-44.527l.65-.467.07-.878.977.684.947-.25.354.108-.07.247-1.738.801-.992.029zm-4.03-35.793l.285-.513.577.382.16.325.239 1.274-.042.434-.109.108-1.019-1.549zm-12.289 60.266l.087-.166 1.527-2.02.529-.199.117-.013.176.09.527.64.426.629.462.403.188-.046.125-.464-.28-.635-.633-.665-.21-.346.343-1.329.504-.242 1.461.65.2.02.372-.133.557-.356.038-.068-.133-.226-.83-.412-.315-.26-.29-.395-.007-.07.05-.107.855-1.214.606.187.169.115.162.256.624.236.81-.092.144-.156.143-.474-.216-.065-.433-.008-.13-.178-.233-.502.007-.128.166-.136.461-.158.375.281.738.217.264-.317.474-.788-.203-.065-.786-.107-.659-.817-.084-.26.038-.034.323.184.315.046.485-.013.373-.224.203-.242.054-.284.572-.897.162-.04.502.067 1.199-.454.142-.423.018-.13-.129-.037-.154.072-.054-.016-.465-.36-.183-1.087.006-.59.418-.661.34-.415.731-.56.113.048.146.251.011.289.07.196.635.025.739-.723 1.491-.57.252.024.123.153-.11 1.244-.529 1.675-.23.24-.464.22-.742 1.118-.476.783-.106.221-.107.42.276 2.107.261.109 1.36-.247.345-.148.3-.783-.053-.286-.102-.335-.055-.073.04-.228.425-.316.113.015.286.148.338.371.787 1.141-.103.418.149.134.365.058 1.084-1.195h.06l.534.686.018.144-.454 1.1-.28.99-.131.833.012.519.457.014.13-.348.001-.572.38-.864 1.456-1.184.067.07.24.44.038.108.01 1.739-.111 1.113-.211.494-1.441 1.737-.476.17-1.27-.737-.436-.599-.02-.22.07-.114h.189l.057-.168-.463-.906-.138.062-.577-.032-.47.617.715 2.478-.13.294-1.072.189-.896-.046-.36-.2-.88-.064-.493.449-.22.596-.022.175-.172.118-.198-.028-.043-.054-.186-.824.19-1.332-.035-.298-.045-.205-.326-.277-.204.225-.279 1.843-.252.995-.396.605-.772.3-.993.1.129.944-.877.542-.813-.115.006.061-1.178.384-.537-.04-1.767-.6-1.606-.77-.111-.142-.069-.22-.053-.044-1.099-.206-.853.266-.32.04-.822-.616zm-1.263-38.357l.723.016 1.445-.65.318.088.605.995.057.629-.344.54-.705.395-1.492.022-.453-.311-.362-1.156zm-2.662 72.424l.249-.315.711-.18.226.154-.505.5-.466.122zm-8.929 5.753l.642-.455.397.099.826-.702.385.463.051.76-.082.138-.417.013-1.713-.004zm-3.467 4.287l.367-.612.521-.622.351-.28.76-.378.337-.098.214.105.067.084.34.106.788-.136.387-.205.165-.022.12.002.092.091.122.332.031.407.056.186.518.832.26.14.261.018 1.126-.166.417-.182.595-.01.122.237.033.194-.33.517-1.088.748-.673.137-2.06-.072-.378-.142-.33-.062-.548.153-.586.302-1.16-.379-.622-.257-.068-.058-.211-.411zm-5.596-24.51l.793.152.363-.516.14-.594.031-.341-.035-.226.181-.74 1.087-1.827.179-.131.258-.099.17.012.824-.578.344-1.101.17-.018.167.13.495.141.589-.397.336-.386 1.088-.904 1.887-.816.451-.079.155.183 1.558.334.47-.082.394-.233.574.134.173.213.006.046-.078 1.273-.007 1.504.16.406.37-.011.131.062.15.151.049.124.037.262-.007.618.528-.15.238-1.106.115-.262.337-.245.38-.487.192-.315-.159-.27-.348-.448-.087-.028-.381-.48-.03-.133.099-.349.097-.101.153-.038 1.704.193.681.174.593.071.067-.023.235-.41-.14-.219-.286-.246-1.87-.836-1.002-.334-.394.031-.48.271-.186-.039-.035-.205.066-3.186 1.78-1.46 1.074-.51.53-.191 1.112.336 1.165 1.428.287 1.325-.021.693-.036.104-.086.721.045.36.069.132.535.056.347-.337.391-1.106.134-.836-.266-.571-.095-.574.128-.223.43.09.69.324.813.568.158-.03.3-.582.036-.15-.027-.356-.05-.043-1.043-.28-.774-.491-.238-.167-.755-.85-.25-.37-.114-.267.058-.3.213-.644.112-.153.449-.215.235-.018.125.134.125.272 2.723 2.184.085.05.484-.081 1.682 1.049.074.004.453-.137.064-.105-1.66-1.91-.53-.332-.564-.521-.428-.796-.046-.178.071-.136.328-.052.644.054.2.226.062.166 1.338 1.102.471-.298.548-.073.608.09 2.282.74.07-.023.242-.408.061-.791 2.013-.355-.275 1.236-.191.329-.825.992-.289.237-1.086 1.4-.16.36-.118.573-.114 1.142.18.596.176.26.168.109.117.012.377-.057.04-.192-.067-.167-.033-.524.088-1.492.136-.254.295-.375.505-.429.493.523.072.17.32.532.267-1.14.541-.586.425-.226.219-.47-.03-.081.04-.342.063-.127.738-.24.024.55.287.226.274.008.363-.382.6-.834.268-.585.583-.405.173.01.096.076.055.11-.17.6-.232.258.003.083.169.178.585.186.409-.05.589.279-.14.41-.49.542-.19-.082-.14-.115-.133-.114-.139-.19-.174-.032-.515-.012-.314.407.346.568.692.344-.31.597-.19.366.066.122.185.136.828-.405.2-.158.418.3.228 1 .982-.062.532.021-.519.637-.823.694-.684-.477-.093-.061-.008-.12-.126-.158-.37-.082-.976.017-.339.261-.084.108-.412.724.004.123.886.228-.387.7-.044.62.384.39.649-.539.046-.02.363.358-.839.957-.503 1.047-.112.155.007.08.122.113.317.117.213-.086.37-.427.24-.13.37-.853.39-.342.384.493-.137.38.898-.09 1.342.044.28.043.145.11-.11.757-.067.263-1.494 1.685-.5.295-.366.908-.137.533-.038.77.177.267-.385.285-.35-.148-.865-.22-.92.03.394-.632-.5-.353-.213.452-.345.59-.841-.492-.468-.585-.718.076-.265.07-.34-.087-.506-.351-.058-.091.018-.189-.052-.178-.316-.342-.426.038-.454.29-.159-.008-.258-.077-.21-.155-.74-.254-.437.222.367.48-.344.462 1.496-.019.846.427.313.287.312.426.775.594.68.228.152.117.3.571-.086.542-.384 1.199-.433.558-.608.648-.192.153-.067-.061-.06-.808-.537-.098-.385.537-.222.307-.482.422-1.073-.771-.223-.344-.126-.624-1.191-.474-.377.001-.754.298-.372.208-.317.33-.279.383.233.309.082.002.905-.176.342-.125.027-.073.048.023.66.502.415.695.011.063-.122.232-.748.513-.947.47-.334.092-.756-.023-.599-.152-.1-.105-.507-.05-.129.082-.088.158-.015.118.032.125.748.73.668.162.43-.223.368-.107 1.982.019 1.09.673.087.114.077.297-.495.547-.174.152-.63.2h-.742l-1.948.808-.162-.048-.06-.07-.019-.13-.197-.048-.54.178-.574.536-.092.225-.024.19.016.041.124.134.127-.005.075.416-.07.245-.508.763-1.064.457-.183-.012-.568-.507-.004-.083.464-.745-.05-.192-.637-.858-.513.333-.085-.287-.02-.306.333-1.017.072-.149.567-.55.408-.513.59-.474.022-.057-.053-.25-.373-.304-.639.048-.289.2-.014.132.035.122-1.969 2.624-.056.328-.154.271-.584-.384-.432-.357-.212-.105-1.243.22-.355.425-.007.442.19.037 1-.061.087.012.235.22.56 1.595-.233.77-.723.755-.434.151-.602.159-.455.152-.04.495.086.947-.01.344-.199.278-.65.239-.611.464-.713-.353-.312.565-.543.824-.511.644-1.01.665-.14.076-.299.037-.42-.02-.091-.371-.228-.228-.216-.01-.225.093-.346.25-.352.153-.367.088-.128-.01-.187-.105.417-1.095.907-1.672.092-.12.202-.146.233-.1.17-.021.772-.993.805-.744.779-.284.647-.454.214-.52-.318-.44-.74.166-.176.085-.069.092-.277.087-.678.09-.04-.21.301-1.083.855-1.498.438-1.037.195-.078.262.037.884-.689.356-.538.117-.32-.025-.47-.148-.08-.286.109-.277.434-.02.075-.619.585-1.98 1.494-.191.457-.521.98-.53.846-.354.477-.766.397-.679 1.047-.793.266-.2.396-.072.38.003.2-.089.114-.744.52-.366.197-.109-.015.095-.148.042-.327.008-.857-.089-.579-.087-.206-1.112-1.255-.345-.267-1.083-.513-.56-.152-.204-.1-.049-.304.224-.826.088-1.398-.116-2.677-.042-.432-.077-.38-.495-1.301-.304-.52-.282-.325-1.215-.535-.1-.01-.675.195-.584-.13-.222-.208-.025-.065.696-.52.143-.199-.214-.454-.585-.507zm-1.786 27.38l.509-.804.667-.978.581-.71 2.896-2.21.168-.093.172.004 1.036.154.577.426.173.192.042.123-.08.12.153.298.036.133-.024.114-.745.545-1.552.877-.699.22-1.04.613-.596.543-.397.45-.225.359-.559.577-.107.059-.362-.009-.172-.089-.206-.215-.166-.257-.08-.244zm-16.651 17.091l.97-.415.642-.524.384-.968.812-.484.37.166.037.655-.422 1.08.256 1.181-.07.592-.469.798-2.112-.461-.145-.21-.277-1.298zm-16.127-7.605l.39-1.17.892-.553.516.639.159.935-.712.566-.04.598-.18.353-.809-.916zm-.45-4.793l.192-.55.422-.3.047.416-.03.945-.003.736-.222.178-.386-.21-.074-.625zm-7.528-10.947l.504-.532.179-.16.672-.41 1.677.123.89.162.217.084.776.646.535.402.23.244.031.12-.224.09-.273-.112-.041-.1-.17-.14-.557-.272-.962-.16-.135.007-.365.248-.156.246-.31.07-2.563-.11-.037-.092zm-9.947 4.635l1.189-.516.361.409.064 1.112-.529.224-1.12-1.063zM500.5 689.222l.427-1.14.262-.393 1.173-.156.773.56.638 1.111-.006.285-.187.203-.323-.1-.416-.369-.69-.72-.675.023-.437.74.423.43-.089.187-.796-.165zm-3.883-2.052l.435.319.275.438.091.613-.83.083-.735-.59zm-7.11 28.536l.15-.164.051-.18.028-.273-.157-.315.138-.143.73-.343 1.155.806.04.065-.052.316-.24.535-.486.524-.673.275-.576-.068-.056-.072-.229-.609zm2.62-25.351l.722-1.64.603-.17.41.718.168.624-.112.327-.541.294-.743.004-.828.826zm-4.765 23.475l.26-.77.249-.363.448-.292.075-.647-.576-.504.115-.76.129-.068 1.13.176.6.23.061.393-.122 1.986-.042.121-.035.05-1.758.721-.369-.028-.151-.154zm-3.043 3.63l.321-.356.317.106.833 1.225-.198.868-.532.093-.922-.197.27-.567zm.686-11.304l.997.682.468-1.194 1.2-1 .033-.004.187.593-.091.372-.182.393-.461.645.457.31.069.095.02.576-.108.56-.17.116-.103.02-.462.658-.155.65.126.22.596.684-.03.106-.1.132-.375.18-.124-.119-.237-.46-.62-.136-.164.507-.327-.183-.68.19-.055-.052-.07-.128-.054-.218.044-.486.188-1.685.011-1.816zm-4.352 10.535l.873-.037.53-.41.779.352-.23.515-.701.007-.626.481-.442-.271-.243-.473zm.605-7.043l.46-.535.204-.355 1.605-.835.296-.102.1.262-.267.796-.75.709-.767.054-.443.93-.016.337-.352.11-.34-.946zm-3.166-8.925l.476-.21.415.067.213.408.288.248-.082.304-.323.142-.94-.346zm-4.291 11.542l.13-.091.382-.107.984-1.124.928-.83.494-.322.45-.126.092-.107-.105-.393-.1-.108-.706.16-.652-.369-.016-1.702.117-.279 1.512-1.038.481.51.238.428.062.373-.016.068-.075.015-.028.09.018.118.45-.065.339-.153.15-.17.041-.149-.13-.677-.38-.811-.144-.615.156-.055.471.05.345.34.093.295.155.173.533-.185.535-.847 1.021-1.87.174-.064.128.18.29.57-.005.55-.038.162-.243.369-.107.059-.08-.113-.344.007-.201.31-.418 1.545.027.242.228.377.424-.046.095-.457.003-.207.033-.156.263-.073.49.162-.28.983-.203.504-.535.695-.25.139-.26-.274.015-.135-.316-.215-.727.106-.084.126.04.391-.198.615-2.001 1.526-.54.258-.641.18-1.487 1.865-.031.38-.462.768-.5.258-.318-1.023zm16.859-109.345l.241-.645.173-.314.232.347.15.597.051.725.004.473-.154.326-.342.24-.071-.635-.258-.72zm-16.048 94.426l.497-.475 1.03-.378.11-.008.534.189.241.175 1.223.356-.385 1.858-.03.106-.12.16-.101-.015-.76-.555-1.258-.334h-.497l-.202-.049-.234-.523-.108-.345zm14.23-94.427l.304-.79.12-.488.333-.518.213.632-.024.519-.158.287-.71.544zm-23.283 96.123l.385-.577.938-1.098.36-.152 1.2-.226.377.092.343.156.226.35.022.174-.13.749-.152.398.637-.021.902-1.085.095-.017.359.127.42.33-.101.135-.026.117-.029.176.042.093 1.448.933.299-.034.11-.122.78-.38.29.056.165.113.087.225.075.456.013 1.07-.613 1.177-.222.243-.487-.328-.072-.218.004-.184-.099-.434-.805-.49-.139.012-.16.13-.19.058-.12-.03-.088-.092-.527-.615-.097-.318.379-.198-.288-.527-.101-.019-.55.24-.347.492-.053.206-.014.14.088.905.21.304.348.3.38 1.969-.064.343-.243.43-.672.994-2.041-1.276-.273-.454-.097-.683.044-.444-1.193.255-.232.255-.01.262-.707 1.16-.245.222-.3.184-.04-.077.257-.604.215-.388.064-.371-.1-.604-.287-.567.48-2.63zm13.261-95.086l.315-1.28.66-1.832 2.253-.91 1.13.057 2.417-1.503.229.095-4.033 6.147-1.335.575-1.711-.192-.056-.177zm-23.341 96.32l.489-.138 1.136.36-.115 1.05-.196.6-.266.094-.98-.852-.392-.625zm-4.469-.894l.231-.418.543-.241.635.21 1.386-.251.163.263-.789 1.179-1.222.08-1.025-.258zm-4.104 2.247l.198-.728.306-.505.736-.295.39-.02 1.411.784.277.291.262.57.282.22.24.093.206.02.64.552.462.488.084.118.244.594.003.075-.106.418-.143.11-.143.043-.3-.038-.127-.104-.203-.328.02-.116.179-.182-.826-.83-.371.151-.085.078-.024.15-.257.231-.942.56-.41-.248-.356-.613-.268-.704.049-.377-.041-.089-.301-.186-.544.47-.312.352-.62-.87zm-10.07 3.648l1.973-1.184.201-.07.99.305.174.152.075.09.154.44-.393 2.108-.122.261-.872.922-.155.1-.351.19-.376.065-.426-.34-.89-1.458-.087-.249.06-1.292zm46.986-243.334l.558-.406.462-.445.342-.023.4-.177.21.002.315.23.127.242.55.132.146-.005.136-.064.081-.102.011-.045-.021-.046.058-.075.266.105.28.277.215.949-.264 1.132-.436.137-.447-.189-.639-.13-1.028-.022-.132.08-.617-.222-.657-.555-.046-.043-.204-.624zm-56.818 255.9l.208-.95.179-.327.483.197.88.599 1.133.79.548.239.818.463.346.778.583.458.79.03.81.314.386.291.555.655-.611.566-.705-.258-.374.193-.421.512-.364-.275-.789-1.033-1.11.002-1.375-.873-.325-.481-.848.205-.031.489-.377-.208-.322-.532-.694-1.192zm.818-29.822l.36-.065.276.02.18.238-.007.253-.02.212-.054.128-.04.174-.138.085-.256.035-.317-.291-.138-.424zm-37.168 28.447l.842-.353.49.021.52.322-.116.385-1.12.564h-.402l-.603-.707zm-6.885 1.415l.496-.33 1.1-.153.868.334.32.239.283.123.463.119.361-.308.538.156.67.117.218.311-.07.37-.07.138-.8.815-.143.025-1.504-.115-2.544-1.358-.131-.111zm-4.682-.478l.295-.061.535.01 2.07.251.88.213.067.024.315 1.027-.035.073-.236.143-.62-.201-.236.519-.401-.474-.18-.682-.467-.23-1.63-.239-.37-.289zm-1.834.528l.597-.353.62-.088.118.588.293.231-.26.193-.317.068-.334-.099-.538.075zm-.128-6.556l.268-.384.93-.763.195.012.155.092.148.143.235.374 1.19-.147.346.11.377.236-.083.34-.053.043-.632.063-.905.367-.048.092-.018.118.02.232.466.965.263.136.315.015 1.24.363.166.315.07.255-.43.473-.207-.105-.13-.148-.914-.254-.11.055-1.339 1.196-.367.44-.309.04-.17-.064-.535-.537-.184-.417.428-1.97.329-.177.561-.162.172-.097.154-.16-.053-.284-.108-.172-.245-.19-.074.033-.26.272-.276.049-.502-.124-.139-.286-.02-.209zm-7.935 1l.592-.798 1.669-.713.388-.122.648.2 1.17.479.07.069.028.093-.114.347-.19.266-.194.135.084.492.055.096.401.277.085.015.15-.055.63-.405.058.011.005.059-.047.294.634.51.064.112.085.344.084.88.889-.1.09.064.001.37-.46.585-1.876.41-.665-.47-1.415.791-.197-.662.025-.147-.055-.087-.224-.154-.23-.094-.96-.13-.688.12-.18.121-.332-.043-.371-1.973-.074-.618zm-2.987 4.115l.535-.26 1.049.612.354.703-.801.151-.631-.128-.606-.33-.023-.276zm33.897-179.132l.624.172.376-.052.457-.106.404-.094.582.222.456.178.507.019.541.285.655.134.363.386.554.414.488.019.689.08.28.674.46-.103.26-.005.363.19.41-.263.289-.283.012-.399-.152-.603.429-.313.7-.308.533-.164.444-.316.652.205.583.396.444.17.22-.238.069-.615.513-.206.54-.172.456-.35.589.558.385.543.345.285.64-.201.733-.203.641-.008.51.103.759-.82.32-.236.147.606-.122.875.069.576-.015.47.273.37-.298.455.562.254.666.337.454-.067.614-.326.522-.018.63.539.677.303.022.436.629.237.4.622-.143.597-.341.425-.342-.008-.165.354.274.386-.03.797-.501.365-.297.428.166.368.382.049-.053.322-.018.55-.136.72-.418.31-.254.125-.204.278.298.436-.08.681.464.43-.305.506-.192.31.228.571.391.026.696.007-.154.259-.246.265-.35.121.004.449.173.239-.365.481-.658.028-.71-.13-.52.313-.164-.5-.576-.2-.441.026-.582-.013-.4.499-.125.222-.484-.331-.341-.376-.756-.045-.677.109-.975.369-.435.232-.326.359.092.36.072.517.118.27-.326.468-.226.025-.62-.006-.486-.195-.154-.315.092-.422-.584-1.252-.506-.544-.351-.134-.163-.415-.53-.52-.471-.2-.674.067-.323-.155-.272-.136-.625-.119-.47-.2-.303-.449-.162-.569-.6-.463-.606-.34-.05-.293-.883-1.455-.883-.923-.544-.564-.455-.309-.528-.25-.476-.148-.311-.325-.43-.63-.51-.986-.107-.536-.28-.158-.459-.152-.39-.294.088-.267.165-.694.106-.691-.143-.635-.221-.959-.215-.673-.248-.39zm-68.254 189.393l1.245-.216 1.82-.85.337-.101.748.115.465.376 2.621-.236.348-.26.078-.173.319-.048 1.056.444.285.315.229.338.472-.12.035-.7.494.607.319-.677.502-.236.183.073.626.503.116.143.28.165.143-.08.41-.619.22-.991 1.383.73.175-.751-.373-.334-.04-.139.063-1.715.047-.236.09-.082.42-.171.612.003.284.079.052.237.186.27.137.037 1.037-.154.078-.187-.097-.24-.162-.208-.602-.572.27-.602.276-.279.363-.171.39-.115.421.037 1.304.376.465.209.22 1.44-.185.423.48.21.533-.098-.226-.86.155-.5.994-.04.015-.484-1.063-.736-1.266-1.103-.238-.305-.268-.035-.166.07-.242.2-.285.137-.193-.046-.117-.11-.598-1.109-.747-1.526.383-1.137 1.976-1.36.596-.298 1.982-.348.974-.091 1.067.193 1.335-.304.102.004.047.06.12.428 1.01-.138.515.251.108.112.195.399.18.608v.752l-.345.035-.294-.04-.687.732.007.358.195.66.286.388.333.252.243.09.365-.66.4-.343.52-.028.097.928.875-.183.178-.148.061-.116.276-1.025 1.55-1.241.096.064.118.242.013.108-.026.103-.255.501.531.696.881-.44.21.22.529 1.542-.001.14-.187.472-.698.766-.285.056-1.24-.143-.64.153-.862.564-.47.583-.61.171-2.349.816-.264.579.085.423 1.397-.204.237-.24.824-.262 1.648-.288.612.044 1.768-.275v-.104l.097-.202.304-.171 1.507-.147.106.073.18.36.018.156-.83 1.717-1.322.975-.606.01-1.3.355-.085.146-.262.268-.17.045-3.153.42-.336-.29-1.257.122-.428.092.322.494.097.889-.983-.28-.314.642-.414.8-.876-.735-.141.652-.36.498-.305.437-.12.019-.09-.05-.655-.597-.314-.358-.063-.28-.676.375.379.53-.156.556-.32.641-.576-.566-.497.428-.86-.562-.386.322-.664-.567-.492-.62-.304.641-.545-.068-.533-.808-.212-.053-.176.444-.51.094-.705.035-.13-.32-.16-.081-1.422.45-1.868.47-.447.72-.113.046-.707-.197-.589-.43-1.145.252-.642.59-.63.645-.482-.119-.19-.312-.124-.11-.755-.597-.165-.034-.223.013-.546.934-.374-.14-2.332-1.867-.475-.635-.193-.355zm99.375-317.312l.212-.095.13-.122.295.039-.181.541-.354-.034-.14-.206zm5.19-17.786l.506-.682 1.647-.684 1.504-.279 1.453-.169 2.416-.527 2.86-.95.924-.467 1.398-.619 2.057-.75.314-.231 1.668-.74 2.906-1.067.91-.386 2.38-.67 5.528-1.902.17-.08.785-.27 1.614-.373 3.108-.818 2.578-.585.707-.045 4.725-.758 3.455-.242.05.012.526.13 2.666.3 1.203.227.008.038-.014.041.677.073.93.269.969.415.553.354.575.614-.354.036-1.253-.128-.096.523.179.38-.115.463-.062.184-.543.882-.488.386-.581.363-.184.225-.294.491-.355 1.584.13.604.077.115-.034.644-.05.22-.209.287-.825.63-.617.222-1.008-.015-.382.124-.25.417.023.066.104.06.743.214 1.028-.073.228.883.04.66.063.415.337.682.225.55-.005.226-.066.34 1.516.404.96-.11.464-.21.097-.095 1.608.358.276.325.244.218 1.218.53.234.045.594.028.52-.039.577-.114 1.33.108.94.018.439.061.59.904-.006.093.048.131.332.432.143.052 1.01.048.854-.203.314.325.039.389.198.213.209.06.456-.004.716-.156.76-.256.822-.448.021.011.038.256.074.071 1.009.315.701.748 1.119.692.276-.237.093-.218.214-.334.337-.443 1.201-.818.214-.25.558-.748.075-.23.177-.368.998-1.549.787-.475 1.227.318.268.143-.013.324.024.188.062.36.071.083.496.274.678.203.614-.147.684-.267.212.01.144.137.173.072.4-.034.07-.024.042-.058.021-.075-.006-.335-.015-.084-.539-.877-.09-.651-.07-.23-.141-.385-.194-.247-.33-.221-.573-.279-1.372-.973-1.649-.865-1.792-.296-1.473.697-1.09.247-.012-.14.615-1.232.164-.39.225-.686.222-1.253v-.634l-1.252-2.28-.557-.635-.048-.115-.018-.35.005-.464-.058-.33-.1-.385-.25-.676-.444-.684-.377-.294-.797-.393-.73-.274-.63-.087-.134-.36.046-.189.027-.244-.008-.516-.189-.777-.181-.595-.164-.367-.166-.273-.048-.13-.013-.116.006-.123.114-.38.148-.287.204-.3.218-.117.506.072.356-.154.144-.522.428-.387.092.725.338.234.725-.294.283-.174.278.378.014.427.038.322.257 1.07.558 1.072.255.938.162.303.215.18.242.12.362.1-.077.54-.31.61-.174.262-.22.163-.129.15-.097.15-.124.267.093.393-.2.377-.017.347.02.154.305.442.53.889.112.3.53 1.145.983 1.735 1.264 1.504.476.401.625.022.915-.175 1.262-.44.613-.625-.07-.432-1.102-.27-.586-.067-.156-.045-.139-.1-.08-.16.001-.094.108-.079.063-.144v-.466l-.443-.638-.545-.418-.614-.58-.243-.32-1.403-2.554-.104-.341.586-1.111-.134-.463.145-.502.238-.408.25-.07.361-.348.177-.333.098-.347-.02-.602.316-.342.622-.438.417-.69.116-.271-.01-.11.031-.038.126.006.982.914.81.084.082-.222.068-.4-.148-.392-.205-.325-.835-.778-.76-.21-.194.232-.352-.865-.325-.52-.1-.093-.26-.088-.14-.037h-.461l-2.466.175-1.001.33-.265.144-.028.13-.055.01-1.25-.245-.515.154-.653-.015-.36.024-1.162-.64-.255-.487-.275-.609-.705.223-.192-.124-.484-.549-.16.667.121.292-.05.12-.261.043-1.175-1.15-1.161-.692-1.946-.94-.941-.567-.388-.282-.515-.275-.947-.338-.715-.367-.313-.322-.335-.538.05-.282.24-.66.118-.562.11-.664.088-1.25-.103-2.57-.093-1.065-.09-.784-.582-3.39-.424-1.463-.194-.484-.262-.475-.516-.713-2.666-2.977-1.804-3.027-.962-1.513-1.118-1.742-.57-.69-.437-.77-.228-.581-.625-1.018-.59-.635-.353-.38-.515-.51-1.659-1.274-.858-.436-.769-.523-.194-.275-.58-.772-.046-.567-.208-1.136-.585-1.289-.749-1.046-1.285-1.275-1.09-.825-1.402-.83-1.442-.257.522-.316.97-.216 3.432-.444.17-.058.239-.147.187-.176.343-.435.045-.073.053-.143.34-1.014.768-.968.17-.238.153-.284.024-.07.003-.227.195-.67.494-1.246.224-.328.101-.286.69-2.233.057-.305.045-.357.02-.383.114-1.12.07-.327.133-.137 3.562 1.354 1.306.574.85.283.48.044 1.814.393 3.47.176.825-.034.667.108 1.547-.06 1.235.058 2.159.237.444.01.928-.162.318-.097.673-.352.97-.199.888-.529.425-.361.348-.241 1.095-.464.76-.477.936-.7.451-.377 1.045-1.202 1.844-1.764.37-.357.282-.349.585-.89.518-1.004.268-.7.134-.425.198-.567-.025-.157.36-1.605.101-.516.328-1.84.206-.626.38-.74.137-.18.64-1.519.13-.245.345-.756.468-.814.247-.285.848-.847.713-.693.277-.16.47-.611.918-.923.65-.784.579-.744.243-.386.342-.453.384-.319.236-.301.363-.56.335-.36.628-.574.517-.543.417-.296.884-.529 1.411-.811.247-.102.044-.109.523-.279.53-.242.12-.144.499-.32.287.148.614.26.979.477.972.42.752.24.362.063.448.046.444.142.118-.07.486-.128 1.367-.332.435-.06.358-.146 1.812-.718 1.97-1.033 1.264-.821 2.643-2.06 1.632-1.704 1.434-1.317 1.13-.908 1.5-1.453.585-.318.523-.228 1.194-.367 2.011-.638.057 1.08.236.471.415.05.923.658 1.556.415.893.161.741-.146.43.114.542-.21.432.144.318-.165.117-.322.98.16.797.007 1.098-.182 1.317-.418.386-.158.655-.321.547-.352 1.892-1.313.758-.663.265-.266 1.365-1.562 1.263-1.874.454-.634 1.046-1.406 1.436-1.834.323-.302 1.144-.91.224-.145.443-.182-.019.481.006.449.031.133.18.416.051.053.96.764.37.201.295.082.16-.03.727.083 1.134.52.307 1.044-.086.169-.073.248-.002.054.195.343.532-.333.352-.522.187.357.085.106.464-.023.218-.099.357.069.847.37.566.292.162.203-.044.623.031.331.305.695.048.151.014.169-.01.239-.211.338-.137.175-.793.43-.597.542-.066.196-.468.67-.616.484-.404-.081-.624.033-.227.053-.172.365.088.77-.329.379-.005.116.004.07.5.111.178 1.064-.116.393.556.244 1.171.03.743.227.894-.546.351-.322.14-.29.021-.092.034-.275.01-.436-.024-.385-.136-.613.321-.059.184-.092.46-.495.2-.288.178-.387.186-.257.724-.241-.005.102.023.171.342.715.08.101.077.01.086-.103.13-.247.072-.199.025-.182-.02-.289-.091-.36-.765-1.012-.014-.06.003-.09.125-.22.051-.048.937-.756.029.03-.01.195.026.163.115.52.043.109.095.081.282-.026.11-.304.033-.209-.005-.417-.153-.517.233-.453.245-.015.72.56 1.341 1.183 1.297 1.542.094.125.181.377.096.457-.238.327-.137.393-.057 1.373.004 1.07.213 1.102.453.1.146.033.142-.087.48-.136.667-.068.767.54.264.341.039.19-.153.473.484.239.105-.004.37-.236.506-.39.66-.714.177-.309.226-.517.147-.405.025-.116-.01-.063.014-.053.367-.173.728.012.476-.059.318.003.387.153.434-.027h.764l.342-.002.511-.1.576-.202.283-.147.628-.423.127-.042.772.112.836.154.134.322.285.164.58.105.228.184.523-.373.528.447.717-.013.8.01.856.368 1.01.357.263.265.5.185.618.318.309.6-.012.089-.033.074-.402.05-.205.07-.175.135-.746 1.448-.056.401-.813.673-.016.135.11.98.23.762.112.207.477.202.087-.066.122-.22.078-.017.595.526.55.17.267.022.206-.041.393-.015.193.07.157.25-.032.166-.01.143.346.095.436-.104.832.211.554.234.365-.062.256-.163.232-.035.147.052.055.092-.017.05-.106.034-.113.13-.246.46-.073.193.23.343.052.211-.406.267-.423.04-.827.303-.152.24-.081.289.409.476.21.087.277-.113.513-.057 1.16.042.415-.072.446.03.965.259.898.415.404.204.466.73.867-.132.112-.39.41-.292.326-.674.225-.162.274-.433.319-.254.408-.047.43.228.269-.06.325-.259.385.04.395.341.278-.414.02-.374 1.238-.187.208.304.726.275.361.54-.092.272.248.49 1.28-.655.866-.012.074-.022.253-.2 1.727-1.946.433.485.078.021.178-.027.428-.203.098-.126.103-.062.473-.135.038.011.068.1.606.2.14-.021.242-.09.107-.077.115-.18.405-.27.28.364.132.293.161.052.742-.183 1.193.181.878.491 1.137 1 .262-.092.626.061.633.486.52-.305.232-.352.012-.087.258-.042.506.161.19.134.093.109 1.004 1.328.146.485-.073.51.11.183.146.125.357.126.422-.032.1-.055.666-.711.087-.2.457-.33-.19.657.068.542.25.21.284-.306.201-.467-.02-.408.262-.154.157.128.013.052.004.068.009.047.115.082 1.04.264.904.472.442.392.313.733.277.716.781.452.29-.113.55-.052.716.014.679.241.267.068.15-.013.304-.093.857-.903.124.287.05.315.147.421.374.45.194.105 1.527.058.147-.127.506-.614.175-.351 1.367.131.185-.018.76-.265 1.017-.208.53.011.33.099.693-.026.217-.095.329.014.917.185.4.136.15.087.182.237.812.028.453-.049.323-.1.375-.212.074-.462.144.032.51.347.092.228.178.261.067.06 1.348.931.408.148.507-.083.158.057.372.358.042.28.34.254.255.11.71.143.764.022.29.241.232.294.21.058 1.487.074.204.063.256.317.135.116.437-.2.28-.245.035-.039.009-.33.02-.013.573.092.512.182.604-.002.467-.133.23-.253.578-.796.135-.534.25-.338.583-.24.897-.129.06-.22.167-.272.682-.24.312-.484.32-.197.584-.165.585-.414.254-.457.215-.164.592.25.433-.247-.02-.3.483-.241.44-.137.36-.068.32-.365.562.116.866.211.554-.29.585-.597.247-.074.347.35.28.08.393.16 1.142.514.936.418 1.84.514 2.515 1.368.472.323.498.558.133.431 1.213.02.337.214 1.296.667.307.118.065.045 1.187.566 1.085.09 1.263.343 1.096.52.828.516 1.084.869 1.186.022.834-.155.87.1 1.192.49 2.678 12.322 3.744 17.167 3.431 15.672 3.461 15.744 3.703 16.776 4.67 21.053.004.018 5.949 26.657 5.842 26.004 5.679 25.104 4.87 21.397.086.398 1.294 5.646.911 3.976.164.733.316 1.36 1.514 6.6 2.36 10.013 3.67 16.166.566 2.442.545 2.357 6.905.747.281-2.58 7.432 1.809 2.468-4.516.394-.743 8.13-2.66.31.905.122 6.79 2.492 1.662.084.099.084.122.125.072.236.07 3.708.884 1.426.143 1.28 2.481.024.096.404.408.251.233.228.279.636.353.425.21 10.006 5.638 7.228 4.032 3.421 6.133.207.396.281 2.299.016-.006 1.075-.412 1.775-3.33 4.417-5.479.344-.707 3.342-1.285.455-3.031-.21-.287.276-.428-1.708-4.817 1.63-.056.089-.084.64-.642.378-1.939-.154-.353-.195-.546-1.906-.576 1.056-1.078.757-.739 3.093-1.764.935-1.105.048-.07 1.428-1.62 2.64-3.02 3.923 1.557.17.04.126-.044.052.005.538.793.947.625.069.023.182.1.535-.14 1.747 1.164.284.738.59 1.626-.402.788.356.82.949.452.22.346.112.57-.025.482.604.561.94.838 3.85-.432.842 1.412 2.19 1.079 1.168-.432.984.997 1.335.955.106 1.128.193.543 1.13-.04h.338l.091 1.17 1.701 1.226 4.407.848 2.569.422 2.671 2.07.213.157.312.209 1.702.904 1.124.58 1.17.516 2.325.983-.68 1.577.036.045 1.812 1.504.642.549.371.277 2.594 1.555.218.15.48.308.343.235.827.917 2.207 2.49 4.631 2.943 3.115 2.982 2.352 1.676.21.193 2.49 2.268 4.48 2.938 1.905 1.662 1.27 1.139-.156 1.866-.173 2.06 2.472-.405 2.64-.435.232 1.312.644 3.345.093.482 4.49.22.126.859.044.498.004.206 1.153 1.04.682 1.055.335.556.58.919 1.05-.537 2.505-1.424 1.81.697.707.239 1.816.196 2.534.32.686.108.438.034.79.267.88.267.035.01.3-.051.816-.194 2.174-.454.799-.186.341-.056.458-.102.908.357 2.168.955.482.193.578-.034.852-.01 1.183-.304 1.848 2.3 1.363-.223 1.813.096 1.822-1.531 1.22.958.732.558.106.056.464.4.491.534-.05.307.19.563.391.9.149.401.07-.023.11-.078.145 2.923-.357.726-.008.163.074.337.018.368.035.371.256.556.265.484.184.3.469.265.491.334.45 1.127.388 1.037.238.58.321.407.389.421.655.779.405.44 1.122.734.357.558.946 1.543.48.722.818.462.267.18.103.137.14.244.024.07-.01.117.015.092-.053.294-.02.173-.19.681-.058.39-.133.569-.057.408-.112.4-.006.297-.045.444-.007.585.01.395.156.625.018.234-.016.39-.044.42.185.362.113.425-.022.79.012.48-.028.353-.054.298-.01.168.022.47-.059.51-.163.909-.138.925-.547 1.582-.43 1.62-.837 1.952-.61.6-.26.227-.108.596.742.376-.22.187-.408.747.025.091-.178.007-1.075-.6-.393-.434.125-.29-.023-.087-.218-.293-.183-.144-.72-.272-.237.046.342.759.071.287-.124.319-.315.524-.289.108-.217.015-.685-.058-.328-.13-.472-.34-.466-.4-.104-.458-.667-1.154-.592-.758-.2-.394-.258-.99-.121-.08-.363.082-.706-.2-.128-.1-.3-.943-.182-1.072v-.12l-.201-.408-.513.059-.368-.132-.578-.334-.529-.399-.19-.17-.287-.257-.09-.113-.448-.707v-.045l.941-2.213.165-.915-.211-.501.285-.43.239-.086.658-.114.039-.168-.14-.293-.161-.07-.718-1.113-1.457-1.573-.113-.153-.097-.31-.03-.434.06-.36-.066-.79-.317-1.085-.957-1.654-1.555-2.442-1.268-1.255-1.232-.854-2.808-1.784-1.728-.713-.397-.235-.777-.549-.2.093-.077.101.008.273.06.222.195.257 1.918.841 2.18 1.317.605.64.55.8.09.092 1.117.742.915.684.762.875 1.21 1.822-.026.622-.418.42.014.348.732 1.836 1.36 1.917.489.173.809.958.016.236-.08.346-.117.266-.138.042-.137-.455-1.366-1.47-.208-.123-.35.049.13.433.155.372.086.04.117.123.405.57.616 1.753-.233 1.113-.632 2.123-.37.326-.336.17-.433.033-.552-.09-.848-.47-.271-.365.244-.44.245-.983.016-.351-.191-1.94-.102-.204-.366-.564-.097-.012-.992.626-.25.24.051.145.343.5.495.179.35.352.085.206-.011 1.158-.036.169-.347.673-.808 1.275-.336.133-.065.009-.257-.172-.303-.38-.516-.372-.427-.446.076-.338-.268-.223-.446-.083-.237.11-.029.154.203.958-.09.138-.218.067-.407-.223-.32.033-1.186-.422-1.093.002-.787-.373-.105-.092-.136-.27-.15-.12-1.882-.666-.377-.2-.808-1.737.003-.15.545-.725.432-.143.4-.455.632-1.346.025-.362-.431-.258-.219-.027-.313.04-.577-.344-.07-.077-.066-.133-.006-.295-.075-.464-.212-.904-.198-.214-.47-.25-.224-.218-.009-.582.138-.27.668-.725-.06-.503-.047-.11-.271-.081-.425.06-.164.148-.046.143.001.153-.076.003-.278-.408-.61-1.218.09-.287.01-.47-.11-.312-.074-.077-.513.09-.65.802-.75.385-.109.107.321.46.443.414.757.113.245.313.088.54.205 1.848-.018.418.368 1.028.208.36-.111 1.22-.162.932-.87-.249-.257.39.086.172.695.851.577.938-.09 1.224-.25.037-.601-.2-.686-.352-.34-.082-.659.069-.252.092-.5-.047-.151-.044-.831-.453-.56-.636-.17-.266-.034-.228-.08-.112-.756-1.064-.362-.464-.315-.167-.587-.411-.7-.634.002-.123.272-.01.27.07.519.275.383-.057.183-.256-.05-.319-.296-.688-.118-.166-.115-.436.668-.633.24-.148.177-.708-.226-1.262-.608-2.402-1.465-2.155-.051-1.397.024-.147.543.34.174-1.248-.236-1.907-.295-.357-.254.043-.502.268-.238.43.339 1.433-.34.28-.388.849-.469 1.875 1.856 2.3.106.47-.128.665-.128.162-.354.077-.586-.02-.769.516-.172 1.26.167.352.266.18.023.078-.078.366-.72.363-.098-.053-.61-.547-.076-.132-.232-.583.215-.481-.378-.444-.668-.046-.55-.04-.486-.917-.47-.652-.387-.217-.579-.887-.56-.094-.074.774-.624-.272-.3.2-.01.523.462.431.104.287-.073.383-.744-.392-1.231-1.03-.702-.646-.606-.81-.747-1.958.183-.744.251-.13.159.031.337-.033.408-.218.145-.248-.157-1.16-.076-.178-.022-.34.061-1.16.131-.255 1.117-.971.172-.017.174.014.44.27.602.5.052.072.067.243.419.201.035-.131-.017-.426-.308-1.049-.752-.904-1.702-2.585.005-.185.096-.06.338-.019 2.05.322.213.17.455.578-.083.133.226.376.397.291.415.197.087-.006.08-.544-.017-.11-.133-.212-1.07-1.363-.675-.324-.43-.16-.275.176-.17.039-1.472-.689-.115-.115-.55-1.037-.727-.017-.38.828-.517.168.064-.598-.543-.465-1.554-.186-.456-.641-.348-.572.425-.795-.25-.27-.516-.557-.069-.56-1.447-.126-2.58-.683-.526-.364-.172-.203.035-.06-.047-.147-.131-.137-.52-.38-.241-.108-.333-.082-.512-.256-1.064-.838-.404-.678.393-.145.424-.565.3-.906-.718-.957-.414-.129-.225.146.026.267-.269 1.036-.397-.091-.75.11.11.658-.73-.478-1.016-.341-.787.102-.495.287-.417.087-.528-.43-.118-.224-.007-.166-.4-.231-.164.023-.17.105-.823 1.09-2.607-.393-.93-.197-1.101-1.573-.055-.23-.016-.862.19-.906.17-.155.332-.01.226.103.12.192.282.01.777-.339.888-.466.155-.465-.127-.81-.152-.016-.884.246-.143.17-.811.036-.67-.044-.197-.026-.295-.129-.102-.096-.184-.29-.036-.237.096-.23-1.24-1.33-.713-.855-.133-.302-.324-1.177.04-.147.2-.1.089-.118.033-.334-.15-.242-.43-.043-.27.249-.004.14-.061.093-.35.27-.215.025-.747-.13-.975-.625-.317-.291-.31-.59-.316-1.722-.004-.176 1.015-.45.745.278.288.18.159.036.534-.013.746-.142.605.01 3.025.476.866.256.16-.007.1-.433-.278-.205-1.533-.612-.514-.158-.221-.019-.453.17-3.104-1-1.162-.44-.167-.09-.145-.077-.068-.325-.948-1.801-.468.155-.118.04-.152.49.056.247.17.76.129.194.084.072.06.214-.017.064-.22.21-.277.104-.362-.115-.003-.001-.059.114-.092.018-3.49-3.023-4.165-2.266-1.781-2.994-.117-1.69-.545-1.138.57-.564.378-.89-.714-.77-.83-1.27-.358.2.31 2.1-.74 1.074.36.976.783.273-.232.592.127.971-.635-.041-.91.887-1.366.23-.93-.216-1.2.127-.212.488-2.066-.168-3.544-3.256-1.166-2.45-3.275-2.45-1.315-1.561.938-.38-.687-1.237-.613-1.396-.726-1.165-.413.46-.04 1.158.55 1.314-2.889-2.396-1.578-3.304-.292-.62-1.153-1.972-.92-1.28-1.224-1.444-1.83-1.48-.663-.642-2.086-.202-.1.444.992.49.68-.106.535.864 1.163.605 1.05 1.363 1.017 1.295.058.405-.337-.074-.568-.312-.544-.506-.842-.931-1.438-1.186-1.382-.442-1.172.137 1.695.817 1.087.6.864 1.258.473.476.755-.021.312.372.184 1.327.261.194.18.339-.145.493.282.35.129.528.755.997.798.32.1.235-.128.4 1.448 1.625.193.082.565.47.155.18.59 1.231 2.433 2.736.364.722.078.288-.058.043-.059-.016-.197-.18-.16-.213-.403.078-.007.165.174.428.617.677.96 1.175 1.326 1.754 1.157 1.818.522 1.033.122.529-.025.064-.072-.024-.253-.284-.314.281-.031.152.178.776.318.492 1.15 1.264-.248.07-.3-.18-.37.09-.74.006-1.117-.37-.119.003-.264.112-.406.23-.161.019-.345-.12-.815-.556-1.306-1.263-.286-.363-.902-1.408-.202.072-.196.07-.015.174-.572.464-.182-.108-.646-.266-1.128-.222-.122.03-1.082 1.337-1.325.67-1.064.653-.154.042-.088-.107-.02-.094.074-.845-.316-.917-.398-.282-.092.06-.057.352-.073.036-.794-.115-.195-.113-.122-.258.056-.232.254-.31.194-.01.13-.106.437-.484.118-.286-.215-.536-.328-.083-.507-.804-.197-1.319-2.274-2.04-.146-.264.01-.284-.144-.294-.84-.875-.759-.542-.16-.167.086-.308.345-.452-.783-2.064-.275-.332-1.204-.82-.424-.105-.247.067.024.114.15.286.275.355.566.487.795 1.54.372 3.104-.11.19-.716.274-.489.111-2.65-.92-.521.012-.724-.131-.34-.133-1.285-2.265-.21-.713-.371-.261-.174.174-.117.223.048.305.158.478.024.58-.448.721-.586.103-.106-.017-.329-.166-.235-.233-.363-.155-.417-.072-.51-.02-.078.035-.081.423-.505.265-.374-.247-.065-.305-.451-.44-.437.596.113.229-.036.675-.036.009.088.205.14.207.98.13 1.535-.059.276-.27 1.135.238.982-.019.478.065.808.306 1.393.687 2.302 1.912.111.212-.108.545-.21.463-.148.205-.159.108-.301.39-.27.725.405.133.874-.96.435-.599-.007-.556.13-.275 1.07-.118.121-.405.2.019 1.162 2.343.944.499.386.559.615.308.13.378.648.709.15.352.343.512.3.454.505.954-.433 1.093-.215.269-1.936 1.507-.149.069-.185-.006-.135-.024-.158-.098-.062-.138-.04-.216v-.202l.046-.273.105-.085.015-.317-.159-.063-.111-.035-.754.015-.51.621.387.355.091.048.186.398.051.806-.05.108-.18.107-1.257.14-.638.103-.496-.037-.316.278-.089.46.297.469.183.218.24.633-.098.857-.05.104-.279.247-.534.254-.721-.128-.547-.592-.211-.28.046-.529-.302-.283-.464.133-.35.002-1.281-.363.011-.385-1.966-1.298-.664-.114-.372-.026-.13.035-.753.592-.44.288-.446-.28-.856-.43-1.05-.366-.218-.026-.398.03-.303-.105-2.041-.851-1.618-.754-1.273-.514-.69-.184-.333.14-.685-.256-.183-.133-.152-.7-.208-.34-.098-.112-2.028-1.173-1.41-.542-.44-.109-.502-.304-.308-.32-.1-.209-.029-.06.005-.272.06-.2-.004-.219-.095-.471-.315-.639-.419-.397-.662-.503-1.534-.962-1.246-.581-.65-.245-.197-.244-.743-.329-1.09-.334-5.499-.685-1.223-.602-1.032-.561-1.44-.59-1.196-.367-1.994-.39-3.606-.703-1.152-.256-1.252-.348-2.012-.742-.919-.416-2.534-1.044-1.761-.523-.152-.184v-.071l.122-.343.098-.163.482.1.24-.347-.22-.258-.114-.278.283-.493.344-1.235 1.047-.05.233.08-.078.244-.281.158-.036.14.114.215.283.07.453-.057.111-.065.317-.343.056-.11-.046-.115-.132-.116-.098-.14-.027-.536.613-1.485-.002-.435-.326-.012-.222.139-.582-.015-.16-.237.054-.23.066-.277-.341-1.084-.457-.83-.554-.831-.43-.893-.093-.84.268-.098.3-.466.445-.615.081-.162-.202-.536-.25-.19.152-.2.24-.39.194-.33-.646-.57-.347-.579-.314.128.051.393-.136.714-.235.207.195.866.068.552-.251.219-.302.378-.532.226-.182.569-.262.79-.147.61.225.613.013.553-.751.74-1.013.722-.862.664-1.036.865-1.033.719-.274.307-.17.499-.578.57-.643.437-1.036.114-2.45.31-.735.066-.682.167-2.116-.003-1.456-.048-1.452-.468-2.713-.655-.917-.19-3.194-.736-.755-.444-.402-.686.187-.097.791.128 1.521-.95-.071-.87.248-.945-.467-.39-.175-.508-1.664-1.847-.104-1.036-.256-.283-.304.161-.338.749-1.21-.594-.545-.113.055.472.498.652 1.106 1.018 1.144.637.595.712-.349.604-1.61 1.18-.807.635-1.956.427-2.074-.626-.654-.178-.804-.1-.473-.001-.89.153-.539.026-.436-.012-1.71-.209-4.25-.127-.746.026-1.538.155-1.557.25-.894.253-.455.149-2.108 1.029-.897.357-.817.155-3.002.843-2.869.939-.998.45-2.418 1.557-.15.096-2.097-.63-2.147 1.017-2.74 3.41-.273.703-1.636 2.456-.157-.03.244-1.603 1.4-2.774 1.395-1.734 1.275-1.58 2.292-.428-.03-.5-1.047-.966-2.634-.75-.471-.552-.452.534.462.573.004.43-.206.532-1.38-1.412-.245-.394-.18-.055-.446-.033-.787-.444-.132.09-.098.162-.003.1-.04.025-.548-.024-.92-.523-3.61.083-.314-.153.656-.568 1.837-.868-.988-.311-1.27-.14-.244.377-.64-.11-.204-.575.515-1.623.385-1.322.18-.303.181-.797-.25-.29-.365-.004-.173.062-.163.41-.349.536-.793.442-.588.326.161 1.105.013.27-.507 1.14-.265.584-.298.18-1.183-.047-.52-.143-1.231-.587-2.578-1.247-.127-.403.084-.058.01-.179-.028-.11-.516-.207-.39-.307-.485-.182-1.085-.242-.963-.134-.83.471-.69.56-.395.08-.934-.186-.167-.141-.064-.104-.002-.07.548-.781.675-.359.77-.625 1-1.934-.37-.292-.366.152-.183.378-.186.518-.257.373-.109.023-1.745 1.26-.958.71-.441.425-.454.335-1.414.751-.424.025-.929-.064-.077-.081-.45.235-.038.146.068.671.146.49.28-.015.272-.237.33-.138 2.037-.65.099.009.057.072-.023.11.488.338.252 1.263-.835.041-.625.62-.642.455-.953-.037-1.064.502-.845.68-.407.4-.612.757-.845.95-.284.077-.187-.014-.139-.044-.633-.736-.09-.228-.009-.141.139-.235.4-.412.713-.543.324-.054.38-.532.186-.36-.282-.176-.454.073-.422.21-.206.316-.439.078-.883-.16-.144-.278-.07-.782.009-.253.934-2.126.314-.562.257-.184.853-.131.085.127.29.261.737.245 1.155-.577.658-.56.306-.556 1.814-.527.99-.603 1.653-1.173.86-.367h.196l.385-.099.575-.29.052-.21-.015-.055-.315-.217-.238-.044-.312.152-.442.076-.115-.027-.027-.05-.033-.424.01-.017-.106-.613.157-.22.19-.27.292-.582-.015-.11-.044-.005-.098.022-.083.05-.224.173-.219.293-.057.094-.243.578-.03.091-.103.494.004.044-.364.268-.481.28-.033-.028-.018-.016-.037-.077-.021-.157.062-.45.32-.822.382-.465.068-.085.232-.348.137-.274-.065-.27-.056.018-.886.979-.463.557-.112.07-.397.239-.398.24-.39.297-.178.14-.151.17-.046.077-.533.262-.893.174-.087-.103-.085-.15-.108-.252-.034-.101-.011-.087.088-.112.904-1.13.116-.133.466-.519.21-.162.291-.232.7-.782-.06-.289-.08-.267-.264-.341-.026.09-.04.089-.159.301-.053.09-.363.506-.49.506-.105.042-.34-.147-.116-.053-.045-.038v-.205l-.123-.022-.1.09-.137.189.014.386-.103.159-.236.138-.628.072-.16-.114-.058-.084-.018-.075.041-.306-.474.02-.482.66-.147.63-.124.09-.817.35-.349.082-.273-.195-.206-.023-.64.062-.377.153-.202.193-.364-.044-.287-.233-.56-1.057-.09-.266 1.298-.625.55.147.836-.693.495-.019 1.403-.608.7-.422.63-.416.859-1.159.098-.463-.028-.089-.217-.067-1.009.17-.069.12-.222.629-.27.456-.249.198-.8.371-2.127.333-.076-.01-1.073-1.55-.606.017-.424.688-.198.382-.001.157.096.267-.05.174-.061.074-.398.165-.618.147-.287-.286-.078-.708-.007-.399.363-.323.148-.319.227-.089.445.296.383-.221-.262-.65-.38-.35-.227-.689-.053-.622.507-.892.456-1.776-.15-.352.22-.429.43-.346 2.33-.273 2.326-.416.048-.249-.216-.378-.29-.235-1.538.105-.334-.176-.903.404-1.608.295-.388.476-.482 1.175-1.195.734-.742 1.284-.143.528.03.177-.079.143-.13.192-.616.66-.56.33-.92-.107-.239-.07.437-.453.475-.5.004-.58-.348-.47-.093-.76-.352-.862-.433-.565-.286-.656.492-.325.295-.484-.33-.148-.738.008-.451.176-.2.467.387.473-.17.51-.152.25.358.265.228.594.186.579-.034.722-.22.227-.265.652-.054.501.174.471-.086.191-.366.236-.132.007-.35-.235-.157-.137-.09-.134-.104-.245.073-.216-.045-.341-.023-.05-.416.154-.267.17-.02.385.093 1.242-1.223 1.233-1.05-.36-.027-.087-.062-.802-.067-.436-.312-.425-.253.012-.13.885.034.169.051.016.14.214-.275.525-.108-.025-.265-.18-.105-.123-.126-3.143.006-.333.165-.875.154-.316-.221-.66-.167-.127-.445.082.073.222-.01.293-.288 1.863-.25 1.342.117.515.32 1.035.25 1.094-.141.708-.318.17-.566.153-.056-.1-.139-.687.183-.159-.063-.244-.954-.69-.422-.017-.256 1.15.127.274.2.262.234.018.32.749.053.178-.049.04-.13.1-.457.124-.72-.074-.386-.105-.799-.05-.008.177-.057.19-1.486.96-.89-.018-.504-.09-.157-.152-.15-.584.02-.301.468-2.043.181-.561.228-.568.57-1.008.766-1.692.01-.324-.133-.787.025-.164.756-1.01 1.381-2.174.06-.97.524-1.044-.185-.467-.165.042-.655 1.029-.258.722-1.131 1.986-.77 1.145-.252.533.023.676-.006.18-.726 1.472-.337-.003-.082-.17-.199-.655-.353-.977-.339-.14-.213.227.084.746-.078 1.225-.225.812-.23.53-.273.47-.324.067-.171.539-.055 1.564-.151.721-.36.842-.123.154-.341.042-.199-.045-.116-.22-.44-.345-.23.54-.026.35.004.196.153.315.16.161.331-.266.134.006.2.096.238.263.071.699-.139 1.521.174.415.343-.246.23-.847.537-1.287.136-.126.532-.235 1.143.063.399.238.206.243.37 1.771.002.418-.582 1.155-1.145.88-.12-.137-.225.163-.457.88-.15.432-.263.556-.068.047-.109.79.022.403.271.335.478-.233.506-.338.089-.209-.048-.197.128-.405.561-1.068.979-1.182.162-.07.232.05 1.677 2.026.255.444-.064.469-.07.164.587.998-.487 2.647-.274 2.12-.54.128-.728-.031-.52-.432-.06-.19-.027-.24.028-.264-.01-.097-.316-.289-.314-.083-.322.241.047.376.092.314-.042.173-.907.932-.372.255.069.411 1.36-.448 1.226.562.641.593.54.32.681.607.598.62.877.587.343.504.62.895.396.258.166.3-.17.48-.337.802-.098.672-.621.695-1.643 1.007-.917-.319-.642.488-1.068.267-.414.01.372-1.29-.812-.963-.649-.559.126-.582.194-.906-.372-.912-.626-.55-.41.672.235.843-.378 1.625.115 1.501-.265.713-.265.336-.545-.4-.198-.565-.342-.65-.462.24.018.769-.243.69-.877.89-.598-.153-.219-.55-.024-.062-.999-.326-.61.212-.265.644-.507.223-.286-.337-.587-.874-.71-.051-.637.662-.458-.465-.663.404-.5-.339-.004-.312.48-.886.606-.994-.499-.325-.442.36-.845.676-.46.981-.174 1.438-.588 1.943-1.452 1.123-.526-.401.338-.922.332-.49.057-1.036.449-1.052-.226-1.083-.245-1.03-.345-1.19-.166-.846-.836-.072-.225.708.075 1.105.124.859.43.425.311.826-.515.122-.091.467-.333 1.33-.246-.276-.61.067-.424.512.057.577-.219 1.096-.512.446.273 1.129.744.39.573.301-.074.941-.123.904-.851-.317-.61-.39-.325-.98-.187-.981-.268-1.114.356-.937-.057-.54-.592-1.343-.536-.281-.368.192.15.562.264.69-.355 1.22.302 3.663.215 1.117-.176 1.59-.695-.645-.79-1.101-.15-1.045-.824-.65-1.818-.666-.187.477.417.5.535.235.753.585.181.89-.174.662-1.341 1.64-1.053 1.336-.99 1.053-1.004 1.408-.585.898.026.89-.813.285-.121.966-.255 1.174-.657-.014-.215-1.733.91-3.295.67-1.965-.054-.717-.518.365-.775 1.285-.23 1.165-.625 1.624-.29.074-.26-.163-.083-.157-.008-.194.044-.072.031-.145-.01-.132-.107-.224-.194-.1-.12-.333-.116-.476-.006-.337.217-.704-.08-.513-.073-.166-.088-.093-.122.005-.273.322-.181.415-.063.346-.104.212-.182.019-.241-.1-.12.064.028.432.114.296.25.317.302.288.078-.011.079.156.089.426v.11l-.057.231v.507l.07.135-.271.572-.708.162-.023-.024-.729-.297-.562.241-.05.704-.337.808-.365.302-.347.17-.215.16-.596.99-.495.201-.012.185.269.537.124.36.005.162-.136.356-.632.666-.254.024-.233-.097-.19.166-.097.187-.085.002-.088-.26-.042-.358.018-.167.149-.18-.044-.383-.35.068-.143-.189-.19-.507-.028-.164-.173-.063-.173.402.034.107-.052.089-.217.358-.062-.01-.203.18.084.644-.01.342-.068.316-.27.233-.54.223-.336.003-.072-.108-.028-.131-.203-.228-.262-.138-.555.128-.185-.264-.1-.021-.062.084-.03.081-.007.155-.07.149-.188.14-.535-.353-.57-.557-.117-.24-.056-.414-.139-.316-.114-.093-.32.316-.113.42-.166.162-.573.32-.306.1-.13.12-.094.156.076.229.23.117.078.138.028.103-.013.117-.054.148-.276-.007-.543-.123-.24.14-.064.222.048.432-.054.213-.151.103-1.594-.015-.171.145-.151.06-.267.006-.14-.073-.248-.483.04-.854.04-.303-.044-.16-1.128.364-.53-.075-.612-.442-.024-.107.09-.157.07-.037.014-.262-.295-.208-.405.118-.096.082-.287-.175-.203-1.716.41-.902.151-.13.418-.147.306-.176.176-.366.05-.27-.309-.362.04-.165.267-.576.876-.526.8-.264.284.036.162.23.175-.038.116-.1.196-.567.169-.161.87-.416.574.176.344-.222.325.35.44-.389-.172-.553.187-.567.617-.437.541.221.018-.392.512.066.71-.759.69-.376.336-.418.651-.11.993.281.082-.206-.109-.203-.332-.203-.267-.611-.038-.297.06-.153.418-.176.68-.49.064-.185-.023-.087.077-.526.254-.387 1.106-1.378 1.287-1.089-.298.044-.494.261-.272-.13-.076-.13-.305-.083-.515.1-.708.474-.824.76-.591.629-1.632 1.357-.68.081-.684.322-.168.123-.035.09-.023.277-.106.156-.18.15-.61.28-2.019-.348-.633-.389-.88-.713-.72-.504-.48-.452-.31-.536-.133-.3-.152-.558.023-.264.145-.365.338-.66.273-.865.14-.979.146-.295.208-.25.282-.578.203-.772.329-1.854.206-.652.58-.717.522-.887.235-.332.856-.835.384-.48.402-.65.924-1.307.204-.437.242-1.11.067-.852-.035-.834.005-.92.057-.195.142-.205.844-.432.06.07.03-.022.075-.873.076-.526.029-.499.003-1.714.026-.213.186-.66-.058-.162-.492-.339-.298-.357-.094-.18-.128-.385-.087-.543-.02-.268-.071-.33-.181-.531-.365-.587-.241-.576-.09-.451.009-.27.333-.273.196-.106.843-.22.405-.206.124-.105.122-.186.024-.145-.031-.195.113-.121.558-.193 1.462-.132.598-.12.348-.185.154-.113.008-.121.17-.218 1.57-1.285.113-.145.04-.105.51-.469.501-.395.501-.582.865-.775.355-.59 1.016-.493.275-.226.904-.523.048-.163.122-.084.637-.267.303-.22.396-.362.334-.096.329.194.172.208.469.96.355.63.354.518.989 1.272.743-.05.435.308.416.092.46-.04.33.5.337.122.333-.834.359-.317.88-1.647.284-.217.245-.053.26.04.636-.051 1.85 1.002.919-.287 3.158.973 3.242.28.318.312.737.552.498.372.088-.232-.18-.416-1.183-1.463-1.497-.77-1.823.451-2.596-1.367-1.17.093-2.016-.913-.178-.192-.464-.373-.013-.074-.308-.488-.381-.476-.348-.062-.828-.592-.77-.84-.969-.286-.366-.174-.14-.14.088-.283.738-1.092 1.148-.266 1.381-3.073 1.068-.485.307-1.49 1.186-.327.471-.394.516-.03.56-.61.824-.58-.06-.583v-.002l-.637.037-.89-.565-.966-.038-1.439 1.187-.533.463-.48 1.223-.906.367-.243.903-.23.835.064 1.687-.86.773-1.224-.393-.788-.089-.979-.003-.662.17-.156.1-.101-.005-.189-.158-.226.008.003.045-.114.057-.3.089-.806.094-.41.117-.592.048-.214-.066-.158-.106-.923-.818-.385.014-.02.057-.203.057-.297-.178-.252-.337-.131-.037-.09.082-.095.615-.11.222-.137.19-.273.24-1.55.69-.202.124-.084.104-.628.348-.416.085-.173-.107-.036.011-.057.039-.01.066-.002.09-.047.123-.118.137-.156.061-.246.095-.302.168-.163.141-.623 1.052-.072.235-.53 1.206-.022.213-.072.19-.198.404-.317.47-.321.11-.846.098-.56.133-.191.137-.064.132-.243.322-.244.15-.18.02-.862-.087-.584.03-.17.046-.783.552-.478.459-.64.53-.22.306-.049.13-.52.563-.177.136-.292.038-.09.348-.204.363-.642.652-.114.162-.115.266.054.422.134.463.143.333.36.61.683 1.585.016.13-.034.276-.066.154-.081.064-.388-.051-.072-.05-.152-.203-.33-.148-.275-.059-.104-.09-.16-.284-.12-.14-.29-.188-.113.024-.065.08.215.343.024.073-.008.048-.3.193-.64.271-1.445 1.273-.497.758-.573 1.487-.501.453-.17.071-.21-.026-.44.208-.922.894-.664.904-.083.186-.226.747-.027.365.044.497.062.236.191.409.144.172.952.578-.931.692-.098.088-.115.211-.512.085-.196.08-.074.088-.074.13-.134.503.005.343-.085.39-.272.405-.139.072-.324-.012-.171.048-.36.265-.656.662-.165.275-.134.398-.106.097-.96.153-.023-.062-.008-.053-.01-.085-.208-.088-.247-.378-.146-.066-.4.101-.242-.019-.442.224.05.256-.165.38-.002.228.073.38.213.421.485.275.162-.015.146.067.053.335-.19.324.015.074.394.461.331.167.54.422.303.534.087.302-.089.67-.215.348-.263.3-.06.293.014.188-.542.575-.43.574-.21 1.004-.104.355-.081.143-.555.311-.696.21-.193.246-.047.276-.729.088-.204-.072-.106-.13-.254.002-.288.114-.433.023-.236-.138-.503-.155-.25.01-.388.104-.466.317-.944.308-.974-.1-.19.123-.04.142-.415.474-.318.235-.104.213.003.108.096.169.299.008.31-.31.274-.077.289.002.215.073.538.43.445-.222.367-.501.955-.01.184.103.072.112.164.48-.04.535-.555 1.925-.304.913-.834.367-.184.006-.491.67-.864.56-.375.046-.19-.175-.133-.145-.167-.686-.163-.088-.22.04-.179.065-.017.04v.07l.109.246.12.506v.11l-.07.137-.089.054-.495.117-.336-.362-.214-.128-.15-.026-.253.067-.078-.067-.044-.102.043-.25.317-.22.134-.236.109-.62.074-1.218-.907-1.535-.21-.217-.069.788.116.593.052.428.038.328.005.46-.047.324-.32 1.087-.173.253-.967.336-.304-.255-.319-.37-.273.36-.093.295.017.192.24.315.486.157.069.251-.035.263-.35.904-.114.126-.474-.043-.246-.095-.227.001-.996.122-.617.18-.086.6.458.488.377.806.097.415-.438.798-.29.156-.882.267-.238.034-.56-.19-.507.145-.218.13-.212.237-.313.54-.084-.03-.044-.16-.071-.125-.44-.012-.06.076-.037.091-.038.174-.13.059-.27.02-.145-.144-.124-.06-.112.03-.154.12-.385.412-.194.049-.245.006-.065.14-.001.214.258.307 1.014-.003.067.193-.04.295-.704.369-.535.376-.145.34-.233.708-.11 1.32.149.18-.662 1.07-.639.578-.44.197-.236.023-.052.13.078.578.07.21.114-.1.063-.126.192-.167.684.087.1.091.082.569-.005.286-.083.203-.365.388-.041.239.098.491.245.65.16.333.032-.208.388-.185.37-.335.698-.992.469-.029.343.034.86.204.25.126 1.212.318.18-.063.34-.265.092-.169.106-.038.13.027.621.552.038-.168.042-.185.63-.288.124.055.67 1.315.458.65 1.003.688.35.137.267-.066.39-.382.242.247.18.315.182.183.24-.017.346.14.071.432.061.167.338.514.191.178.26.04.17.368.253.838-.008.124.04.1.11.168.127.07.282-.114.185.16.035.172h-.006l-.976.224-.123-.056-.16.01-.12.052-.094.097-.122.193-.165.444-.033.633-.235.951-.273.675-.375.612-.283.336-.207.017-.15-.11-.132-.018-1.14.713-.385.472-.167.539-.066.335-.149.154-1.165.636-1.42.134-.52-.043-.396-.158-.28-.014-.693.142-.09.253-.322 2.326.143.065-.331.484-.07.086-.391.179-.206-.022-.051-.105-.367-.024-.828.062-.133.077-.128.232-.036.174-.017.408.013.326.038.2.205.622.224.427.088.051.16-.033.246.06.322.338-.225.413-1.518.849-.552-.173-.077-.104-.166-.107-.267-.032-.124.397-.054.667.031.04.128-.009.26.185.66 1.02-.71 1.985-.516.595-.65.127-.37.808.378.406.088.2-.194.095-.718.083-.331-.214-.807 1.27-.638-.895-.619-.726-.148-.105-.364.05-.101.104.091.389.103.222.01.826-.254 1.003-.239.164-.36.05-.579-.193-.488.854-.208.18-.941-.446-.086-.36.106-.317-.019-.109-.105-.118-.236-.047h-.111l-.629.257-.094.132-.126.346-.046.29-.004.192-.242.268-.315.232-.148.038-.51.01-.177-.082-.053-.174-.014-.21-.045-.07-.73-.294-.235-.01-1.538.334-.574.38-1.495 1.24.33.737.313.522.125.085.03.146-.132.592-.234.323-.243.188-.872.242-1.37.745-.548.06-.391-.083-.068-.075-.357-.082-.192.139-.058.164.03 1.139.343.485.122.099.266.101.008.04-.146.622-.24.329-1.156.318-1.332-1.073-.564-.513-.39-.49-.083-.211-.086-.088-.348-.103-.267.056-.185.089-.204.157-.137.224-.387 1.56-.008.312.105.333.163.173-.29.908-1.12.342-.394.226-.256 1.133.06.167-.073.962-.033.168-.853.02-1.421-.105-.61.303-.47-.149-.334-.176-.263-.292-.023-.136-.327-.407-.362.017-.172.146-.21 1.85.02.404.1.48.316.483.016.115-.167.332-1.095-.088-.108-.122-.54-.863-.704-.36-.19.046-.25.146-.044.435-.167.402-.117.127-.437.015-1.384.515-.396.471-.265.26-1.765 1.386-.478.068-.365.16-.118.238-.255.838.179.244.49.097 1.437-.76 1.39-.62.128 1.266-.238.809-.202.487-.23-.14-.29-.027-.388.282-.053.244-.001.542.141.25.487.446.226.047.042.049.045.24-.387.634-.036.059-.195.207-1.111.572-.392.597.174.19.035.162-.024.279-1.15.794-.437.17-.503.77.202.48-.038.531-.058.05-.075.025-1.294-.417-.529-.11-.987.39-.337-.366-.158.13-.336.396-.106.192-.034.125-.027.566-.247.855-.13.16-.366.21-.203-.142-.48-1.255-.116-.32.008-.137.057-.057v-.074l-.048-.072-.115-.043-.257-.012-.15.045-.294.23-.094 1.017-.833.186-.335.173-.172.153-.342.38-.752 1.292-1.393.007-.09.21.001.075.296.659-.021.335-.387.457-.373.113-.295.017-1.218-1.107-.097-.126.008-.188-.091-.23-.493-.638-.667-.757-.245-.106-.177-.012-.518.114-.362.267-.282.41.013.252.074.46.06.163.149.106.19-.055.238.087.036.059.048.64-.06.265-1.695.07-.236.183-.272.41-.129.243-.287.765.139.68.119.181.533.298.144.012.298-.09.025.042.353.833-.014.128-.056.116-.145.253-.078.064-.504.135-.65-.022-.144-.125-.687-.17h-.26l-.162.02-.361.175-.633.03-.435-.62-.105-.362-.002-.235-.034-.14-.213-.691-.266-.144-.155-.01-1.443.6-1.169.175-.596.529-.597.63-.954-.031-.33.347-.456.255.117.584 1.11.152 1.595-.45 1.129.545.118.442.06.96-.125.35-.655.47-.232.262-.44-.168-1.327-.782-.624-.45-1.336-.441-.128.073-.254.457.116.177.144.12.024.09-.196.676-.162.152-1.904-.388-.571-.515-.702-.179-1.306.701-1.832 2.005-.063.119-.045.312.116.71.93.068.522.5.945.267.145-.045.113.038 1.765 1.136.033.318-.27.396-.66.406-.399.083-.998.347-.141.434.127.141 1.068.252 1.267-.348.297-.257.926-.06.069.004.035.058-.116.271-2.103 1.04-1.348.542-1.092.735-.446.682-.04.53-.109.8-.062.045-.408-.23-.14-.757.012-.06.135-.119-.008-.079-.109-.16-.248-.06-.115.048-.27.361.02.177.28 1.001.432.607.085.677-.133.27-.332.272-.133.008-.09-.13-.245-.918-.131-.05-.447.038-.083.278.12.163.027.101-.086.531-.093.214-.186.038-1.162-2.114-.032-.11.303-1.804.181-.132.17-.067.004-.074-.38-.328-.494.22-.225.176-.376.415-.193.577-.07 1.292.137.124.109.252.045.23-.008.326-.12.551-.33.779-.359.166-1.043-.192-.167-.203-.027-.136.388-.92.121-.183-.264-.246-1.782-.042-.932 1.44-.251.45-1.518.028-2.366.2-2.267.236-1.31.197-.475.12-.42.381-.08.12-.187.586-.146.625.025.408-.154.22-.197-.033-.17-.141-.43-1.146.002-.304.033-.129.151-.258.378-1.264-.444-.216-.199.022-.619.257-.13.196.485.853-.332 2.64-.233.504-.347.305-.291.184-.312.462-.039.197.2.48-.01.734-.333.519-.38.348-1.053.963-1.416.462-.56.024-.074-.021-.04-.912.037-.103.167-.194.2-.078.856.047.087.089.478-.02.265-.306-.084-.465-.11-.26-.558-.188.09-.752.316-1.638.12-.39.99-1.423.05-.036.376.048-.061-.246-.512-.605-1.068-.642-1.573-.55-.479.051-.259.118-.11.144.045.54-.043.641-.318.398-.237.054-.267-.056-.654-.652-1.237-.009-.286.099-.465.534-.09.155-.018.173.028.095-.319 1.029-1.382.99-1.025.52-1.642.25-.742-.208-.438-.24-.872-.618-.093-.013-.103.06-.153.115-.11.256-.034.265.486 1.205-.862.733-.279.395-.395.713-.044.17.028.379-.09.236-.402.464-.382.254-.353.063-.253-.058.013-.827-.062-.634-.221-1.29-.204-.372-.324-.056-.475.465-.284.215-.257.084-.603-.457-.504-.07-.245.034-.28.113-.155.231-.024.285.622.286 1.17.36.07.19.05.363-.02.239-.183.533-.33.378-1.947-.1-.226-.135-.584-.654-.024-.508.162-.198.283-.22.025-.05-.081-.26-.306-.29-.254-.138-.749-.048-.246.102-.415.273-.722.932-.08.18.005.156-.125.185-.318.368-.32.223-4.027 1.49-.838-.054-.712-.31.146-.06.148-.279-.014-.197-.482-.29-.317-.01-1.431.215-.304.217-.427-.09-.339-.17.018-.679.112-.142.254-.143.31-.579.231-.641.327-1.09-.057-.211.195-.316 1.948-1.84.197-.256.342-.75.002-.188-.062-.19-.428-.376-.367-.193-1.076-.256-.747-.037-1.062.11-.296.133-.21.19-1.913 2.257-.049.143-.467 2.672.1.23-.018.25-.738.807-2.303 2.245-.126.08-.211.054-.154.08-.228.278-.304.458-.12.254.016.253-.023.159-.069.096-.533.462-.25-.15-.516-.707-.308-.31-.828-.271-.21.04-.098.102-.052.208.408 1.8.495.54.12.883-.199.402-.104.145-1.743.637-.925-1.065-.1-.627.325-.493-.048-.385-.222-.165-.626-.04-.897.897-.16.28-.031.19.16.638.181.508-.022.201-.695.811-.533.15-.093-.02-.232-.082-.186-.181-.157-.254-.078-.222.005-.084-1.035-.21-.902-.004-.873-.656-.227-.444-.24-.705-.05-.554.084-.33.258-.052.81-.038.114.082.146.206.049.197.165.258.129.05.113-.023.166-.42-.459-1.044-.536-.412-.084-.71.037-.454.074-.433.037-1.103-.03-.074-.904-1.598-.648-.313-.414.061-.242.095-.453.446-.49.616-.33.574-.132.328.06.277.225.475.374.2.416-.021.084.09.278.672.341 1.228-.095.184-.054.039-.192.073-.14-.067-.424.793.051 1.304.266 1.249-.282 1.305-.309-.09-.356-.562-.466-.387-.705-.122-.35.076-.18.097-.113.173.17.288-.004.184-.104.208-1.215.522-1.1-.063-.188-.046-.557-.363-.436-.572-.622-1.696.187-.458.133-.055.096-.337-.05-.329-.365-1.24-.682-.866-.283-.284-.118-.063-.554-.066-.96.102-.446.152-.57.61-.317.45-.067.199.039.39.068.142.334.367.22.16.445.073 1.134 1.323.21.361.065.829-.603.365-1.677.854-1.345.872-1.558.2-1.024.348-.403.193-.06.29.33.873.415.46.42.153 1.012.172.156-.012.646-.425.085-.017.588.547.424.981.01.842.142.643.4.015.001.487-.211.296-.634-.16-.447-.305-.471-.038.008-.101.1-.094.41-.222.12-.333-.245-.05-.714-.335-.17.003-.274.118-.19.447-.163-.028-.306-.545-.54-.22-.463-.864-.04-.531-.142-.402-.226-.098-.177-.014-.292.033-.22.077-.672.506-.128.143.128.212.037.478-.306.828-.194.209-.255-.052-.548-.145-.293-.028-1.633.596-.198.148-.112.135-1.32-.817-1.24-.521-.94-.274-.997-.133-1.554-.307-.226-.093-2.082-.16-1.748.208-.992.173-.517.264-1.558.913-.15.153-.281.826.011.337-.034.1-.392.394-1.334.69-.761.172-.762-.022-.35-.105-1.131-.017-.344.012-.743.155-1.727-.55-.707-.43-.818-.703-.325-.892.028-.192-.067-1.549-.035-.269-.332-.514-.052-.376.247-1.262.05-.117.424-.471.276-.13 1.64-.297 1.271-.022.365-.052.279-.097.385-.226 2.054-2.386 1.398-1.754.454-.693.144-.726.329-.323 1.308-.7.935-.09.13.043.767.736.137.28.072.298.132.163.867-.026 1.65-.367.064-.097.837-.476.867-.272.124.198.371.11.436.069.544-.023.705-.24.59-.286.716-.449.454-.332.292-.145.169.017.193.125.3.06.688-.042.473-.13.299-.025.502.352 1.535.486 1.342.176.584.147.042.255-.232.423.016.27.91 1.263.224.44.12.493.08.518.085 1.13-.074.24-.211.24-.302.696-.004.108.058.06.327.054 1.08-.29.305-.149.124-.552.014-.122-.184-.485-.115-.083-.017-.181.239-.722.128-.148.281-.049.135.064.115.683.502.062.546.394.077-.426-.72-.843.101-.58.444-1.316-.173-1.164.164-1.066h-.059l-.04-.182.041-.26.132-.175.892-.38 1.266-.34.782-.11.929-.047.365.192-.009.106.152.119.623.2 1.242.307 1.324-.071.443-.363.521-.67.07-.55-.114-.17-.07-.059-.218-.029-.244.206-.196-.15-.085-.121-.011-.04.058-.135.313-.479.127-.074.526-.089.014.4.465-.249.296-.558.326-.279.555-.006.214.277.308.061.302-.268.222-.27.366-.262-.11-.437.432.091.336-.273.166-.327.316-.396.036.84.425.208.063.144.3.349.352-.011.242-.152.46-.273.253-.383.174-.14.078-.653-.18-.108.016-.411.298-.382.042-.362-.101-.219-.635.13-.545.15-.067-.298.514-.318.6-.399.88-.65 1.383-1.228.886-.665 1.517-1.402 1.045-1.06.87-.494.635-.207.695-.2.982-.707.693-.549.237-.096.958-.016 1.77-.722.846-.797.825-.55.154-.058.592-.045 1.036-.006 1.265-.214.987-.347 2.298-.077 1.2-.109 1.559-.235.749-.21 1.154-.225.836-.016.614.1.19.163.938.293.634-.363 1.265.144.654.123.763.09.3.14.226.218-1.287.47-.037.407-.21.748.765.187.085.2-.16.632.092.71-.302-.093-.088-.23-.545-.022-1.217.16-.14.674-.432.517-.01.538.027.377.126.269 1.653 2.59.769-.435.52.378.909.886.113.023.126-.177.052-.288-.096-.186-.18-.21-.302-.163-.798-.872-.073-.208.184-2.151-.299-.487.047-.392.378.132.513.475.556.357.94.286 1.26.054.243-.074.303-.019.394.083.2.19.161.723-.117.544.02.959.486.114.904-.054.62.654.745.504.274.036.26-.254-.03-.263-.32-.58-.304-.435-.014-.136.807-.248.825.124-.229-.588-.484-.276-.81-.465-.796-.782-.565-.672-1.003-.637-.728-.589.135-.588.173-.364.06-.273-.03-.115-.07-.114-.273-.116-.462.297-.196-.147.452-.554 1.663-1.915.146-.216.7-1.093.987-1.891.427-1.057.31-.535.557-.753.33-.295.447-.254.74-.325.978-.73.287-.286.263-.392.939-.673 1.077-.153 1.452-.698.452-.28.712-.492 2.09-1.755.224-.115 3.093-.972 1.75-.606 1.573-.903 1.042-.616.513-.003.845-.395.489-.085.3-.185 1.869-.924.868-.407.22-.046.97-.528.356-.22 1.113-.92.028.047.004.189.256.495.313.431.244.3.354.32.232.15 1.067.494.68-.336 1.13.09.334-.34.063-.63.23-.429-.23-.328-.359-.968.206-.667-.156-.489.558-1.741.702-1.188.708-.875 1.301-1.625 1.504-1.687 1.222-1.273 1.54-1.363 1.325-.782 1.338-.528 1.075-.235.475-.836.167-.059.246.026.409-.283.291-.342.718-.952.372-.624.102-.11.83-.286 1.655-1.374.227-.118 1.12-.358.39.03-.111.168.005.589.366 1.138.498.396.436.092.3-.772.02-.24-.047-1.749-.096-.767-.106-.146-.69-.14-.513.085-.105-.046-.21-.868.366-2.36.667-1.425.745-2.728.567-2.622.413-2.11.4-1.547.308-1.008.053-.104.433-.548.39-.306.295-.046.312.057 1.501-.172.25-.302.57-.947-.182-.414-.117.004-.236.093-.331.439-.236-.01-.272-.247-.994-1.175-.346-.51-.069-.171-.058-.77.074-.778.497-1.72.246-.64.72-1.588.126-.25.366-.513.152-.156.886-.54.246.11.354-.24.469-.464.296-.363.584-.963.235-.254.27-.292 1.199-1.033 1.638-1.223.4-.073-.112-.421.075-.892.27-.647.702-.999.27-.544-.005-.566-.257-.23.088-.351.428-.33.08-.06.245-.355-.039-1.068.246-.606.532-.272-.22-.299-.377-.026-.444.24-.487.45-.171.281-.11.93-.513.691-.741.516-1.133.464-.405.14-.393.076-.276.027-.233-.037-1.206.413-1.212.648-.825.063-.762.307-.085.11-.094.21-.143.171-2.245.472-.398.154-1.245.665-.886.404-2.846.956-1.015.265-.597.106-.75-.05-.345-.103-.261-.15-.562-.46-.327-.321-.387-.532-.056-.166.002-.115.06-.16.008-.341-.072-.788-.07-.417-.306-.628-.304-.419-.316-.29-.44-.261-.828-.282-.366-.199-.163-.152-.175-.306-.007-.13.038-.235.189-.742.633-.364.999-4.015-.636-.024-1.635 2.314-1.582.916-.184.013-.221-.112-.368.237-.51 1.386-.038.164-.008.107.068.403.068.373.055.137-.055.255-.267.47-.294.395-.184.12-.235.067-.32.01-.295.75.235 2.042.585 2.341.528 1.545.2.469-1.647 1.964-.572.244-.78.084-.23-.013-.696-.292-1.45-.797-.237-.197-.175-.64-1.157-3.407-.566-1.928-1.246-3.537-.376-.864-.744-1.136-.642-.865-.412-.33-.338-.16-.339-.146-.913-.262.779-1.036.202-.136.083-.277-.064-.361-.08-.26-.153-.332-.356-.26-.22-.032-.53.128-.312.015-.155-.105-.145.024-.626 2.087-.785-.288.072 1.104-.276.493-1.617.502-.985-2.144.25-.606-.936-.627-.69.654-.82-.283.17-1.452-1.219.264-.584-1.37-.494-.341 1.155-.993-.545-2.298-2.52.88-2.7 1.342-1.886 1.255-1.427 2.126-.47-1.52-2.032.484-.545.227-.819.34-1.612.667-2.507.9-.148.191-.544.704-.212 1.185-2.37.527-.546.541-1.165.032-1.037.914-1.09.168.047-1.381-1.335-1.38-2.961-.094-1.393-1.09 2.825-.622.63 1.098.969-.12.5-1.148 1.674-1.619.468-1.418-.046-2.151.25-1.1.172-.857-.487-1.956.379-.435-.437-.408-.291-.245-1.036-2.622-.388-3.086-.018-.496.446-.421.835-1.289.605-.287.223-.784 1.165-.339.576-.83.518-.033.51-.807.735.175.638-.573-.435-2.007-.684-1.23-.463-1.671.101-1.4-.127-1.282-1.011-2.74-.772-1.65-.015-1.132.248-.663-.059-.277-.112-.352-.294-.124-.308-.543-.163-.55-.122-.598-.102-1.018-.482-.47.022-.501-.639-1.347-.275-1.161-1.05-.427-.729.768-.256.746-.171 1.01.083.923-.65 1.27-.42.179-.293.207-.552-.009-.547.044-.295-.095-.779-.665-.521.052v.36l-.19.263-.54.396-.484.198-.759.098-.66.029-.413.233-1.087.412-1.381.421-1.305.179-2.614.152-.564-.01-2.48-.138-1.479-.174-.593-.11-.934-.24-2.153-.745-1.912-1.16-.433-.356-.194-.307-.247-.617-.232-1.557.03-.528.037-.237.063-.165.175-.134.318-.119.26-.004.494.103.2-.201-.112-.552-.603-1.117-1.334-1.19-.447-.146-.532-.762-.628-1.922-.288-1.025.11-.172.044-.206-.09-.299-.129-.182-.288-.24-.215-.105-.407-.563-.236-.41-.147-.272-.093-.323-.012-.279.02-.145-.427-.934-.409.038-.671-.239-.924-.52-.572-.529-.698-.845-.439-.7-.516-.905-.633-1.547-.01-.153.182-.253.07-.04.755-.087.282.054.526-.152.296-.187.686-.637.199-.515-.013-.178-.042-.094-.058-.098-.19-.132-.93-.304-2.117.808-.737-.143-1.515-.708-.15-.223-.213-.683-.089-.491.02-.045.103-.14.6-.419.202-.039.276.09.421.236.308.097.307-.028 1.522-.895.145-.113.468-.52 1.386-.73.15-.004.106.103.2.094.569-.226.36-.274.104-.148.064-.183-.048-.17-.41-.542-.12-.273-.06-.216-.028-.374.06-.326.094-.109.054.08.155.075.6.014.506-.162.337-.174-.103-.436-.993-.01-.155-.04-.033-.326.077-.33.614-.931 1.08-1.042.112-.08.18.038.133-.055.278-.337-.2-.175-.256-.033-.327-.084-.224.299-.497.193-.456.407-1.127-.795-.07-.05-.403-.623-.06-.989.043-.163.084-.07.94-.573.275-.07.244.048-.004.048.164.101.818.262.31.002.554-.158.184-.151.126-.462.123-.583-.52-.222-.375.495-.558-.368-.681-.723-.383-1.109-.048-.228.009-.13.187-.182.038-.08.02-.236-.04-.069-.38-.197-.514-.171-.387-.973-.238-.065-.318.279-.92 1.454-.248.71-.256.06-.424-.086-.515-.274-1.19-.585-.33-.625-.068-1.642.259-.662.066-.803.096-.463.234-.533.166-.258.036-.276-.11-.233-.286-.34-1.501-.856-.308.01-.117.068-.169-.143-.268-.425-.147-.51-.074-1.545.04-.436.039-.179.113-.243 1.113-.318.633-.09.123.029.36-.108.383-.46.121-.34-.033-.28-.462-1.007-.702-.361-.445-.734-.662-.174-.263.063-.086.11-.226.138-.485-.004-.541-.077-.242.217.01.605-.063.246-.426-.104-.244-.411-.13-.296.1-.79-.02-.269.011-.698.008-.187.043-.194 1.142-2.92.182-.369.19-.219.118.045v.058l-.113.34-.368 1.111-.225.734-.045.197.087.046 1.047.1.305-.003.248-.067.666-.064.886-.022 1.092.096.174-.022.118-.44-.586-.199-.882-.69-.625-.658-.113-.227-.558-2.201.01-.13.06-.23.133-.04 1.765.029 1.021.463 1.423.404.16-.023.167-.104.052-.167.097-.057.472-.017.716.194.233-.351-.438-1.06-.102-.688-.174-1.358.08-1.112.26-.993.409-.889.775-.791.654-.73.877-.706 2.095-1.822 2.161-1.804.594-.442.458-.447.383-.603.485-.56 1.155-.912 1.646-1.087.657-1.534.404-.36.766-1 .123.004 1.013-.54.808.288.52-.42.178-2.777.084-.361.083-.221.526-.815.262-.295.63-1.315.636-1.042.296-.27.916-1.138.49-.332 1.469-.67.119-.301-.332-.295-.39.046-.016-.069.013-.118.134-.308.12-.157 2.223-1.723 1.062-.715.813-.21 2.018-.234.886-.014.9.126.36.114.72.532.638.592.232.342 1.134.394.406.093.249.175.066.09-.003.112.131.552.467.967.315.532.347-.06.667.45.04.351.107.295.308.481.44.373.166.19.478.896.49.617 2.333.175.991-.041.187-.068.67-.624 1.135-.631.251-.1.857-.628.11-.118.066-.139.065-.633.043-.144.087-.124.203-.17.691-.18.132.024.115.126.292.03.471-.072.361-.188 1.161-1.052.249-.226 2.131-2.164.085-.116.133-.284.007-.206.13-.198.59-.634.487-.416.71-.403.447-.313.05-.076.028-.115-.083-.894-.098-.325.071-.064.542.06.686.466.402.412.314.205.172.058.436.032.255.724-.122.375-.067.06-.016.06.074.34.109.34 1.132.29 1.11.14.928-.009.78-.143.356.04.974.478.063.19.378.031 1.281.008 1.767-.08 1.529-.257.726-.278.041-.054.293-.67.28-.378.952-.723 1.639-1.542.307-.316 1.475-1.795.406-.533.305-.525.132-.532.135-1.139-.103-.962-.117-1.005-.266-1.427-.202-.67-.135-.263-.2-1.805-.028-1.125.177-1.302.228-1.451.061-.157.108-.16-.199-.91-2.331-4.14-.274-.808-.57-.175-1.022-.768-.62-.054-.09.019-.316.247-.066-.434.603-1.647.213-.521 1.053-.54.185-.029.085.24.11.172.308.263.946.539.4.172.483.137.895.17.649-.046.116-.046.046-.142-.001-.266-.213-.178-.085-.089-.066-.11-.01-.11.059-.127.053-.09.652.101.27-.026.375-.106 1.868-1.357.14-.225.037-.097.347-1.532.163-.983-.691-1.953-.587-1.162-.523-.408-.902-1.134-.212-.342-.264-.53-.126-.401.025-.122.06-.1-.314-.236-.21.124-.05.08-.121.32-.034.19.007.12-.224.267-.674.472-.368.177-.506.558-.454.58-.16.308-.027.318-.05.08-.136.138-.466.203-.205.066-1.037-.025-.829-.46-.364-.254-.149-.17-.187-.38-2.802 1.685-.303.099-.445.048-1.84-.122-.509.042-.368.086-.265.168-.409.37-.098.315-.297.631-.463.206-.252.04-.662.238-2.594 1.19-.228.25-.949 1.19-.033.093.098.304-.054.217-.676 1.615-.182.13-.284.065-.68.29-.714.592-.298.17-.049-.08-.067-.245.037-.456.099-.314.134-.252.091-.556.006-.285-.174-.901-.044-1.072.149-.663-.72-1.335-.302-.187-.729-.026-.15.033-.025-.262.31-.227.042-.256-.264-.585-.818-.755-.187-.887-.542.097-1.325.935-.066.463.496.716.84.338.488 1.031 1.043-.033-.162 1.118-.965.917-.345.723-.168.114-.399.099-.271-.116-.446-.95-.08-.748.031-.364-.915-1.21-.6-.663-.384-.358-1.506-1.126-.595-.242-1.982-.657-.537-.065-.284.172-.97.145-.228-.063-.529-.328-.296-.128-.835-.284-1.289-.292-.554-.053-1.406.121-.888.22-.732.19-3.39 1.063-.347.04-.466-.01-1.503-.169-.162-.054-2.016-1.5-2.072-1.323-1.457-.78-2.101-1.233-.748-.304-1.07-.525-2.848-1.537-.477-.35-1.35-1.912-.146-.409-.128-1.178-.056-.79.002-.399.416-1.369.103-.278.617-.128.23-.246.143-.22.078-.156.13-.47.032-.202.019-.337-.103-.345-.694-1.712-.477-.657-.257-.315-.212-.166-.468-.618-.068-.348.016-.075.15-.107.166-.315.046-.313.001-.175-.268-.572-.792-.889-.33-.483-.162-.469-.14-.605.08-.204.055-.049.118-.042.119.041.14.092.318.339.056.25.089.102.622.36.927.288.378-.002.133-.308.385-.176 1.023-.085.156-.054.43-.288.243-.208.091-.149.047-.172-.022-.145.062-.623.044-.175.343-.237.843-.27.586-.46-.058-.361-.119-.295-.519-.734-.42-.45-.319-.226-.333-.166-.237-.06-.276-.023-.397.2-.318-.084-.252-.125-1.184-.626-.52-.466-.428-.464-1.214-.95-.767-.384-.729-.256-2.372-1.01-.716-.564-.831-1.157-.347-.625.014-.084-.709-1.114-1.149-1.244-.037-.235-.522-.518-.55-.387-.315-.118-.459-.419-.235-.276-.126-.488.05-.175.05-.037.04-.272-.162-.49.033-.392zm-7.829-5.423l.1-.106.132-.05.256-.011.132.066-.115.669-.1.108-.06.016-.286-.108-.069-.13-.056-.205.033-.21zm-121.937 346.16l.334-.084.837.185h.404l.302-.149.07-.946.45-.502 1.06.374.956-.65.128-.867.372-.511 1.596-.346.636-.606.176-.274-.026-.404-.088-.163-.194-.173-.14-.285.072-.353.337-.644.245-.296.112-.12.66-.472 3.292-1.333.425-.255.806.992.253.068h.453l.245-.128.796.24.476.406.732.445.084.022.403-.177.104-1.468-.024-.248-.06-.076-.719-.395-.119-.452.595-.14.785-1.07-.193-.781.593-.457 1.204-1.002.503-.008.413-.09 1.245-.508.055-.09.762-.125 1.057.005 2.577.223.358.26.236.325.017.054-.171.232-.033.134.326.493.569.398.212.098 1.207.463.373.025.099.034.015.06-.005.172-.085.381-.151.225-.52.416-.799.367-.245.186-.16.187-.065.275.016.241.082.147.02.236-.16.453-.118.213-.249.178-.459.194-.094-.017-1.629.248-.622.178-.476.231-.649.193-2.4.345-1.016.017-.274-.052-.87.083-.59.293-.397.246-.795.663-.355.86-.756.58-.383.036-.476.247-.533.35-.241.185-.248.248-.297.515-.901.339-.583.012-.311-.142-.085-.15-.476-.06-.181.023-.637.365-.302.232-1.413.52-1.072.096-.688 1.17-.553-.108-.173-.755-2.125.587-2.78.426-1.21.04zm-4.64 1.222l1.217-.377 1.023-.158.047.45-.558.59-.587.175-1.219-.141zm-6.255-9.042l.76-1.116.083-.053.86.015.322.081.136.412-.006.086-.304.668-.968.887-.521.162-.282-.25-.117-.556v-.14zm37.826-101.22l.418.076 1.172.72.972.503.885.271.415.044.305.158.427.434-.005.087-.434.319-1.616.728-.246.033-.824-.466-.12-.108-.084-.127-.078-.253-.012-.202.088-.168.052-.325-.075-.18-.998-.638-.233-.75zm-36.945 98.278l.234.049.188.62-.313.44-.354-.134-.398-.505zm-6.433 5.056l.345-.176.281.025.567.149.56.473.832.156.012-.528.381-.081.544.32.936-.16.403.194.682.49.416.87-.7.958-.708.79-.18.478-.473-.093-.172-.593-1.216-1.338-.725-.242-.198.168-.249.113-.623.065-.456-.045-.18-.112-.393-.635.001-.862zm-1.238-2.286l.543-.35.187-.066.639.244.369.362.235.323.019.257-.133.303-.122.194-.098.085-.334.194-.734.13-.618-.679-.08-.69zm-3.233 4.56l.947-1.646.744.212.986.841.095.182-.105.296-.185.347-.494.509-.171.06-.67-.125-.953-.415-.187-.224zm44.122-124.125l.28-.588.033-.02.33-.155.23-.045.968.023.312.069.216.302.34.173.453.049 1.294.028.092.235-.725 1.027-2.239.786.11-.482-.092-.34-.287-.167-.519-.18-.856-.486zm-56.573 123.123l.6-.84.082-.07 2.038-.596 1.164-.118.636.279.741.806.21.322-.023.216-.143.46-.237.276-1.132.818-.608-.05-.425-.11-.09-.085.014-.172-.077-.12-.171-.04-.263.027-.873.218-.799.414-.3.257-.268.1-.706-.879zm-5.595-1.818l.345.15.126.323-.202.528-.634-.024-.367-.434zm-3.813 1.39l.183-.187.431-.256.335-.116.513-.024.602 1.237-.001.067-.585.71-.164.12-.53.196-.277-.081-.7-.351-.11.032-.068-.07.12-.706zm112.868-296.487l.4-.789.879-.84.588-.342.294-.313.125-.261.208-.962.192-.445.143.11.107-.051.124-.141.104-.192.077-.268.048-.431.16-.6.075-.02.401.245.087.009.163-.081.108.027.042.09-.014.281.128.196-.059.315-.088.249-.076.086-.19.11-.024.068.024.06-.029.148-.274.503-.03.164.02.275.04.157.17.322.776.92 1.303 1.328 1.792 1.384.95.878.584.48.963.666.515.136.134-.024.56-.163.663-.3 1.73-.532 1.289-.277 1.565-.12.2.017.099.055.191.246.72.398.164.06.098-.098.131-.019.308.18.32.316.08.296.025.276.545 1.39.188.254.146.121.304.122.164.162-.01.714-.185 1.806-.378.83.145.326.17.214.336.26.669.618.424.601 1.178.684 1.027.442.134.108.507.9.027.419-.016.086.053.262.047.142.244.284 1.13.68.37.105.796.372.322.253.122.169 1.874.81.19-.02.437.084.598.255.655.435-.015.087.03.053 1.418 1.06 1.15.567.04.183-.047.082-.668.84-.737.863-.664.758-.11.093-.483.314-.616.265-.157-.025-.2-.115-.595-.581-.104-.215-.205-.143-.64-.413-.72-.31-1.11-.296-.799-.097-.534-.023-.962.05-.373.297-.68.434-.547.246-.614.189-.344.181-.48.39-.342.425-.098.24.005.144-.354 1.192-1.185.73-1.109-.928-.086-.15.03-.095.364-.184.02-.056-.022-1.94-.16-1.09-.048-.186-.302-.733-.49-.946-.413-.457-.199-.116-.129-.19-.202-.477.021-.113-.014-.045-.46-.47-.228-.208-.32-.196-.245-.06-.176.047.026.092-.149-.014-.79-.337-.14-.275.023-.217.09-.041.052-.072.083-.22-.02-.878-.13-.852-.138-.612-.49-1.015-.677-1.054-.415-.535-1.47-1.45-1.48-1.378-.6-.42-.475-.264-1.136-.456-.39-.115-2.295.233-.162.05-.128.094-.03.041-.05.226-.165.261-.686.32-1.421.264-.363-.122-.842-1.14-.98-1.019-.722-.577-.216-1.312-.043-.65.002-.226.198-1.327zM239.332 723.18l1.364-.93.154-.066 2.006-.233.541-.01.7.382 1.043 1.234.13.391-.023.46-.138.35-.313.167-2.262.444-2.204-.253-1.383-.587-.105-.124-.138-.427zm90.522-220.673l.365-.19.073-.3.194-.414.318-.487.763-.145.856-.503.461.263-.26.52-.308.296-.16.378.045.712-.029.71.267.845.24.327.343 1.035.51.76.685.951.41.613.86.74.866.308.395-.126.448.487-.028.245.268.662.462.857.349.566.253.37-.24.025-.368.157-.53-.16-.012-.51-.05-.495-.683-.518-.763-.325-.823-.319-1.024.003-.364-.137-.147-.531-.696-.941-.219-.183-.183-.858-.437-1.105-.565-1.332-.11-.158-.078-.48.014-.221-.36-.256-.383-.358-.373-.415-.222-.154zm1.846-5.17l.266-.058.037.305-.396 1.043-.048.731-.133.175-.48-1.31zM213.223 716.33l.233.015.77.65 1.113.375.988-.028-.572.485.8.898.054.18.09.062.28.102.849-.438.824.45 1.33.106.576.075.394.138.09.325.524.338.675-.23.181.317-.669.484.082.72.226.267.658-.115 1.45.97-.031.048.004.123.167.302 1.587.311.477.524 1.21.28.825.38.065.09.093.324.653.406.811.328.978.6-.123.164-1.384-.231-.26-.079-.949-.63-1.053.147-.815-.515-1.866-.722-1.745.178-.319-.61-1.156-.013-.576-.247-.542-.395-.782-1.113-1.616-.953-1.498-.644-.36-.004-.131.113-.217-.02-1.048-.807-.498-.517.125-.182-.134-1.238-.334-.204-.2.001-.141-.11-.208-.58-.068-.352.015-.263zm-22.629-7.96l2.502.482.732.17.419.166.19.26-.027.03-.032.219.183.488 1.118-.193.443-.405.569.236-.139.586.235.024.588-.395.791.084.05-.309.233-.147.341-.07.252.603.586.297-.102.336.874.45.802.17.147-.568.732.033.104.756.603.265 1.046.051.381-.46.446.327.395-.315.133-.162.033-.48.256-.042.363.367.56.133.546.223.104.184.418.474.15.064.34-.233.016-.068-.605-.957.054-.318.231-.08.89.44.572.493.512.302.53.163 1.208-.378.312-.873-.696-.51-.29-.315-.36-.215-.105.072-.332-.135-.525-.583-.5-.783.037-.256.115-.134.259-.082.201.022.71.588.187.332.14.068.406-.07.242-.088.442-.333.096-.319-.015-.369.107-.186.142-.083 2.835.074.464.289 1.101 1.41.293 1.552.144.854-.032.242-.275.507-.067.075-1.475.97-.666.336-.414-.149-.31-.313-1.11-.727-.098-.02-.444.237-.128.185-.157.463.037.206.136.354.483.69.354 1.169.028.252-.019.127-.42.494-.129.037-.124-.07v-.291l-.035-.152-.352-.457-.637.182-.55-.471-.36.216-.148.314-1.055-.394-.114-.797-.47-.367-.315.044-.449.182-.494.28-1.264 1.17-.358-.889-.822-.61-.103.163-.952-.078-.354-.306-.15-.24-.542.152-1.951-.221-.4-.118-.427-1.069-1.546-1.16-1.442-.548-.666-.044-.34.088-.19.365-1.42-.528-.116-.155-.726-.651-1.002-.337-.862-.884-.293-.16-.183.034-.083.075-.396-.072-.102-.536zm-3.637-.403l.572.066.607.074.277.364-.2.509-.668-.275-.693-.318zm2.362-5.618l.519-.022.138.462.034.47-.416.194-.381-.24-.05-.532zm-6.401 3.995l.418-.063.848.533.84.494.624.302-.08.252-.19.387-.373-.128-.675-.537-.901-.221-.69.082-.155-.6zm-3.234-2.314l.863.044 1.588.894.04.185-.232.952-.117.59.2.6-.109.202-.85-.59-.467-1.038.054-.658-.986-.928zm-2.615-4.723l.607-.423.78-.15.833.7.568.345-.016.781.308.582-.336.547.373.623-.289.277-.353-.132-.434.067-.532.031-.05.436.029.446.151.848-.362.317-.54.065-.25.007-1.088-.548-.786-1.083.905-1.181-.399-.293.28-.758.22-1.232zm-4.27 6.355l1.016-1.118.31-.12.517.307.034.098-.025.083.014.272.182.449.625.482.35.088.27-.175.015-.074-.024-.167-.42-.652.105-.037.947.064.859.18.469.213.064.18-.067.645.3-.003-.105.36-.205.335-.464.509-.25-.347-1.14-.414.285.7-.124.93-.368-.308-.317-.591-.66-.676-.382.971-.313-.556-.262-.131-.29.488-.502.231-.177-.775.325-.462-.47-.454-.152-.444zm-15.235-1.754l.538-.68.269-.158.73-.29.47-.095.381.238.218-.007.729-.407.127-.113.043-.064.335-1.014-.3-.341.035-.553.151-.227.257-.22.17-.048.879.271 1.053.64 1.203-1.075.033-1.39.072-.603.785-.599.38-.085.664.24.25.152.28.333.505.705.687-.237.172-.178.658-.279.305-.025.169.077.218.347.01.216-.78 1.754-.416.37-.077-.005-.04-.23-.98-.146-.173.158-.24.295-.379.597.538.91.484.398.432.21.251-.081 2.112.422 1.477.662.335.197.031.08-.004.219-.428 1.358-.5.836-.288.306-.71.656-1.03-.22-1.215-.963-.873-.035.188-.606-.815.15-.603.594-1.178-.281-1.31.463-.382-.254.079-.565-.437-.579-.2-.041-.689.346-.021.554-.267.733-.376-.721-1.136.103-.078-.14.027-.603.061-.206.482-.398-.04-.805-.383-.294-1.391.92-1.101.874-.153-.035-.224-.184-.348-.533.022-.153zm-3.342-11.854l.501-.19.366.427-.207.652-.468.103-.542-.175-.114-.549zm-7.01 3.08l.213-.08 1.279-.047.536.652.598.54.299.164.398.111.491-.188.777.033 3.402.822.917.03.632-.116.227-.158.44-.58.609-.989.617-1.092.135-.15.199-.116.24-.04.443.213.77.73.308 1.122.001.36-1.226.793-.873.047-.221.076-.427.427-.682 1.407-.179.697-.193.252-.704.363-2.277-.397-.223-.118-.287-.298-.233-.349.025-.093.05-.09.086-.088.054-.339-.168-.446-.19-.326-.4-.442-.473-.185-.52-.113-.478.12-.561-.02-.909-.312-.5-.276-.49-.533-.159-.052-.347.045-.525.557-.117.37-.341.006-.156-.456.012-1.37zm-5.602-9.447l.126-.07.696-.302.445.054.559.14.37.123.53.344.289.244.074.215.894.627.737.164.145.177.068 1.288-.519.468-.012.12.68.55-.11.735.106.094 1.114.155.445.593.313.373.97-.06 1.392.436-.018.06-.405.303-.645.207-.705-.138-.087-.092-.792-.263-1.215-.208-.278.36-.045.235-.537.26-.79.293-.155.253-.014.183.09.233-.086.163-.485.286-.37.079-.213-.07-.11-.137-.05-.314-.14-.191-.068-.006-.524.29-.457.394-.077.124-.07.24-.02.403-.176.745-.185.2-.065-.005-.262-.326-.082-.403.04-.274.244-.492.068-.274-.054-.142-1.115.069-.264-1.618-.374.023-.262-.4-.02-.271.586-.48 1.4.656 1.15.24.143-.023.41-.37.209-.306.143-.37-.001-.242-.041-.222-.43-.376-.744-.356-.196-.396-.155-.511.058-.292-.88-1.654-.397-.866-.032-.269.076-.257zm-11.517 2.515l.726.349.287.245.227.377.378.132.031.289-.392.296-.243-.15-.378-.436-.378-.133-.454-.383.045-.444zm-3.307-.915l.437.307.86 1.01.226.546-.121.228-.998-.589-.377-.438-.088-.967zm3.283-5.696l.596-.537.707-.096.199.003.12.095.255.386.18.444.095.528-.176.809-.685.5-.56-.024-.288-.09-.232-.181-.087-.128-.37-1.416zm-8.55 9.328l.51-.305.272.044.293.856-.114.628-.291.65-.746-.422-.107.165-.332.149-.357.07-.182.005-.045-.05zm-3.846.963l.617-.136.306.18.037.616-.25.617-.243.272-.805.376-.568-.137.003-.332.593-1.323zm-10.074-31.531l.082.014.566.48.477-.048.695-.242.773.114.473.194.358.338.83 2.421-.07.257-.414.25-.375.174-.587.47-1.924-.005-.329-.066-.381-.249-1.002-1.567-.161-.989.13-.493zm-18.856-.425l.65-.285.354.09.126.192-.057.292.026.219.532.795.74.488.305.154.724.934.455.613.073.39-.203.245-.093.175-.007.075.684 1.694.22 2.109.158.58.377.842.24.338.212.139.168.183.01.877-.116.464-.126.296.028.157.364.385 1.083.77.784.55.16.25.551 1.254-.001.164-.38-.021-.882-.391-.122-.14-.027-.134-.148-.377-1.867-.757-.315-.904.146-.289-.08-.27-.88-2.319-.33-.744.005-.856-.005-.684-.106-1.306-.084-.448-1.027-2.042-.148-.172-.646-.262-.215-.02-.19-.287-.65-1.072-.57-1.518-.005-.07zm3.128-10.2l.41-.062.223.167.88 1.107.169.333.053.596-.143.16-.675.238-.808.258-.368-.13-.248-.17-.09-.436.118-.706.292-.843zm-5.718 1.424l.919.886.04.093.064.2.077.298.018.086-.012 1.189-.05.338-.314-.39-.182-.238-.079.003-.213-.238-.095-.19-.026-.082-.2-1.586zm1.402-6.476l.402-.167.203.04.076-.057.324.253.263.705.001.13-.346.835-.45.113-.705-.33-.201-.558.049-.168zm-15.557-6.28l.68.022.753.172.263.217 1.363-.306.2-.147 1.292.334 1.124.633.35-.054.36-.307.165-.155.385-.54 1.678-1.06.625-.31.845.052.44 1.217-.146.647-.404.288-.234.08-.07-.083-.209-.077-.197-.016-.978.62-.322.21-.558.012-.132.02-.898.186-.236.152-.084.33.001.119.338.414.105.104.477.205-.008.136-.26.329-.264.235-.13.008-.702-.294-1.002-.99-.973-.985-.719-.12-.638.093-.866.497-.04.066.029.179-.396.53-.461.246-.192-.046-.063-.175.001-.288.074-.04.063-.165-.093-.493-.273-.796-.284-.327-.051-.19.197-.377zM61.282 612.71l.542.248.49.65.07.377-.735.295-.496-.325-.085-.14-.032-.311.053-.577zm-18.333-28.394l.443.097.089.02.314.628.068.254-.103.413-.101.218-.04.017-.615-.605-.328-.641.16-.349zm-1.249-1.668l.353.384.184.335-.017.516-.422.043-.258-.578.004-.327.073-.309zm-.726-1.507l.186.16.156.254.214.68-.011.245-.193.036.04-.103-.036-.113-.442-.308-.051-.464.03-.418zm-13.847 2.35l.821-.304 1.223.211.1.034.098.488.066.155.316.307.463.119.1.016.593-.15.05-.07.055-.182.206.043.38.425 1.059-.252.878.518.745.648.443.388.004.086-.062.063-.438.04-.265-.115-.728-.01-.51.273-.3.242-.106.187.04.182-.021.082-.102.34-.346.598-.687.99-1.014-.852-.065-.103-.02-.086-.106-.81.104-.435.082-.277-.388-.338-.378.003-.572-.196-.413-.293-.227-.238-.038-.225-.564-.982-.105-.145-.392-.329zm-1.92-21.743l3.603.318.255.084 1.46 1.057 4.41 4.498.14.23.072.17.12.613-.09.444.124.91.39.177.226.166.257.883.145 3.232-.198.392h-.088l-.161-.103-1.561-1.159-.15-.307-.204-1.252-.061-.062-.396-.054-.554.189-.705.43-.261.126-.492-.08-.144-.052-.21-.185-1.354-1.652-1.926-.319-.719-1.688.049-1.28.524-.492.263-.32.119-.466-.58-2.352-.802-.547-.61-.267-.641-.214-.457-.64zm933.222 79.047l.272-.764.306-.008.496.424.056.166-.032.498.281.505.016.128-.376.118-.616-.252-.24-.255zm-1.991 5.534l.033-.089.89-1.011 1.855-1.76.282-.08.14.183-.044.362.84 1.211.185.005.225-.125.378.016.064.026.015.042.028.25-.278 1.54-.098.287-1.335.634-2.451-.62-.557-.302zm-2.031 1.06l.273-.908.467-1.236.466.015.242.348-.03.757-.369.442-.115.404-.324.396zm-1.465-2.212l.224-.545-.006-1.281-.47-.383-.064-.555.195-.27.36.015-.055-.544-.418-.203-.525-.231-.271-.186-.88-1.563-.131-1.022.172-.407.106-.045h.216l.757.275.412-.064.203.025.13.252.544.428.344.05.21-.136.217-.071.37.034.985.449.43.36-.16.102-.037.306 1.278 2.284.232.73-.044.795-.09.207-1.454.73-.282-.054-.248-.187-.06-.094-.47-.067-.481.88-.036.335-.198.2h-.185l-.63-.346zm-7.419-7.245l-.434-1.622-.002-.086.31-.083.423.065.048.026.134.177.194.099.799.203 1.055.56.665.215.353.033.556.435v.44l-.337.488.622 1.6-.078.799.413 2.12-1.184-.552-.827-.58-.054-.074-.007-.11-1.26-1.876-.353-.321zm-22.668-26.323l-.112-.81-.144-.38.405-.147.28.343.063.28-.126.303.02.285-.275.277zm.357 3.77l-.174-.697.405-1.21.33-.199 1.154.236.312.166.184.523-.928 1.4-.364.194-.71-.051zm-2.52-2.193l.012-.117.241-.818.09-.131.382-.146.006-.735.039-.562.113-.387.155-.048.104.144.126.415.067.855-.104.721-.117.163.315.88-.058.251-.202.087-1.048-.36zm13.763 42.13l.331-.698.642.12.015.352.358.495-.08.49-.482-.082zm-16.421-33.001l.004-.82-.122-.57.266-.218.35.08.156.468.771.498.447.415.896.814.412.739.78.624-.041.214-.484.002-.035.428-.337-.122-.626-.28-.763-.536-.5.105-.32-.443-.175-.317.002-.344-.178-.26zm-2.082-3.133l.113-.109.071-.442.082-1.435-.018-.053-.108-.069-.031-.077.053-.224.272-.398.189-.373.35-.396.452-.225.372-.128.563.148.414-.008.15-.104.146-.326.106-.12.636-.49.313-.019.874.088.707.27.152.121.405.62-.295.61-.068.243-.085.506.028.26.256.288.354.25.295.402.093.219.14.597-.693.813-.77.452-.83.847-.52.176-1.319-.493-.558-.48-.887-.048-.646-.086-.473-.205-.281-.533zm6.69 26.677l.186-.664.715-.45.295.218.083.25-.046.663-.462.439-.298.162-.432-.237zm2.491 16.75l.494-.186.588.68.435 1.001.493.67.279.434-.061.41-1.049-.758-.406-.931-.405-.66z"/></svg>