<svg height="1000" width="1000"><path class="americon" d="M198.245 637.376l.218-7.849 3.24-23.841 4.697-34.679.603-4.467 1.485-11.615 6.794-53.393 3.349-26.449 5.406-42.904 1.542-12.278 4.756-38.01 2.605-20.509 6.105-48.288 4.065-32.333 1.205-9.041 8.139-61.347.718-5.511 5.949-45.792 3.577-27.685 2.976-23.112 1.025-7.974 6.946-52.397-8.927-6.071-6.927-14.41-.406-2.421 32.314 1.089 2.408.052 21.19.433 36.136.92 3.015.08L413.313 29l1.175.023.944.026 59.672 1.406 8.39.168h.002l50.337.07 23.752-.248 1.193-.014 71.3-.088 41.249-.293 1.835 11.74 2.228 12.365 3.87 21.424 4.857 24.53 1.354 6.823 2.502 12.587 1.914 9.612 4.976 25.47 2.194 11.199 6.174 31.406 1.57 8.643 4.149 22.787 2.28 12.2 4.901 26.154 4.223 22.48 4.555 24.16 1.73 9.224 2.017 10.741 11.066 58.62.8 4.222 8.963 46.84.334 1.738 4.089 6.75 6.487 14.693 1.834 4.148 4.708 14.245 2.371 9.834 1.187 4.913 10.851 11.45 1.083 2.69.244.607 5.079 12.61-1.168 12.727-.29 3.163-3.975 5.398 8.995 5.845 11.011 8.112-4.52 6.63-1.639 2.403-11.183 7.048-9.984 10.156 2.263 9.63-.584 5.032-1.64 14.099-.572 4.908-7.392 14.998-4.405 10.939 2.488 11.723.731 3.441 1.282 6.026-.906 7.571 11.91 14.616.332 9.885 2.901 5.156-1.521 5.086-3.1 10.351 1.18 7.393-4.126 13.867 1.024 8.25-.077 2.614-.082 2.739-2.946 7.407.539 14.487 12.837 15.362 2.699 6.505 1.81 4.358 1.861 10.59-4.966.159-19.784.574-32.322 1.1-26.736.963-1.674.058-14.06.476-29.372.932-24.835.792-24.41.299-26.277.256-30.682.213-4.086.013-30.186.045-21.536-.127-16.824-.13-7.99-.072-16.551-.08-40.53-.419h-.076l-25.743-.053-19.607-.109-16.183-.074-13.688-.143h-.018l1.066 9.272-7.643 17.154 15.799 20.05 3.164 5.931 14.015 9.368 7.242 7.236-.277 10.671-5.376 10.891-2.401 8.627 5.134 10.21 8.351 4.26-11.446 6.662-3.707 11.933-11.699 12.774-24.346 5.917L302.8 975l-12.986-2.442 15.332-7.96 1.855-8.971-11.735-12.206-8.347-12.847-3.197-8.402 5.75-12.745-2.176-7.121-2.551-13.55-13.307-6.775-9.477 7.901-.744 11.425-3.089 8.424-4.056 9.101-.77 20.035-5.687 16.316-10.402-.34-10.872.21-9.161-10.356-9.057-4.101-5.514 3.62-.615-35.233-.43-38.094-.014-.773-.918-53.005-.4-23.37-1.179-61.717-.055-2.923-.691-37.269-.286-15.283-.345-18.573z"/></svg>