<svg height="1000" width="1000"><path class="americon" d="M25 78.248l11.117.386 7.546.336 30.015.929 47.353 1.681.151.007 1.978.036.315.008 4.078.1 21.465.58.897.023 7.085.18 2.98.075 7.468.167 26.319.547.09-.002 1.642.007 1.696.036 1.856.05 21.984.505 13.236.253 1.348.018 15.255.342 5.865.077.258.04 15.06.26h.003l4.147.076 31.779.53 7.018.001.256-.01 3.44.036h.2l33.038.394.063.004 7.582.025 2.879.007.048-.01 12.577.15h.001l39.488.04 6.663-.074 2.332-.028 13.797.06 4.506.143 6.728.012 1.854.15 4.721-.145 6.046.007 1.706-.047 17.65-.178.43.01.511-.008 2.287.001 9.317-.11 2.382-.028 3.288-.055h.02l4.166-.01 4.444-.017h3.37l.263-.001 5.112-.029 1.798.016 5.81-.038.56.012 22.733-.283.305-.005 11.082-.16.747-.003.482-.003 2.806-.06 3.53-.05 7.484-.11 7.408-.137.301.001 2.596-.055 5.646-.045 2.116.004 5.715-.115.968.029 8.927-.132 1.86-.018.473-.016 1.346.01 5.623-.039 9.517.139.707.01 1.856-.01.608.017 4.94-.054.024.003.379-.02.043.01 33.676-.762 1.66-.022.245.007 17.23-.42 5.738-.172.075.003 14.777-.393 1.785-.093 8.63-.249.457-.013 15.446-.389.446-.022.057.024.531.043 4.425-.231 12.525-.34.368-.011 3.183-.084 10.328-.257 3.454-.148 7.54-.222.902-.018 6.815-.236 1.348-.019 2.115-.066 1.698-.062 1.738-.043h.013l14.403-.456.974-.026.086-.002 29.332-.974 21.04-.668 1.556-.08h.006l.64-.01 4.433-.174 7.86-.334-.356.278.116.347-1.065 3.348 3.479 2.04.278 2.886 1.594 5.437-1.711 2.942 2.499 2.116 4.194 2.433 5.553.56 2.853 3.311.777 6.911-2.487 3.863-.278 5.305 3.194 3.557-2.685 3.537-.784 3.869-5.878 1.829-1.895 5.324.053 3.323-3.01.555-2.486 3.281-5.053 2.319-1.213 1.183-2.052 2.003-1.663 2.473-2.057-.576-2.625 6.165.134 4.656-3.714 3.074-4.335 2.454-2.975 1.165-.908 3.52-3.612 2.088.254 3.418-2.758 1.998-.99 4.87-2.12 4.872-4.83 7.569 1.756-.093 5.001-.198.609-.054 9.014-.414.657-.029h.028l24.898-1.17 6.03-.298.188.002 4.307-.3 25.141-1.234 1.388-.015.811-.111.228.018.099-.005 11.143-.559.895-.055 4.006-.205.096-.008.095-.004 1.068-.062 18.905-1.055.054-.006 6.19-.29.017.01.855-.06.4.865.568.76 1.86 1.714.08.225-.11 2.471.097.87.199.62.868 1.205.867.721 2.049 1.272 2.552 1.387 2.056 1.607 1.108 1.073 2.983 2.229.791.994.414.851.806 2.285.401.85-.36 2.256-.609.988-.871.984-.432.297-1.49.652-.744.04-1.46-.51-.97-.968-1.29-1.591-5.246-1.963-5.053.114-2.798 2.192-1.726 1.684-.536 1.126-.498 1.67-.18.835-.086 1.083.098 1.01.184.545.625.812 1.009.725 2.924 1.138 3.882 1.085 3.988 1.886.98.711.299.36.319.738.1.65-.091.952-.365.957-.403.5-2.584 1.713-.651.547-2.007.855-1.723.164-2.905-.959-1.464-.123.015.404-3.093 1.193-2.663 3.038-.533 1.047.501 1.369-.007.602-.338 1.127-1.812 2.71-.66.796-.29.301-1.266.824-.703.27-1.527.26-2.597-.081-2.129 1.438-1.161.642-1.662 1.57-.85.02-1.247-.805-.944-1.17-3.438-1.986-.862-.042-.582.523-.43.586-6.532 4.184-.69.584-.41.676-.41 1.368v.92l.499 2.87.23 3.84.21 1.148.514.978.646.92 1.513 1.675 1.121 2.19 1.282 1.293 1.648 1.06 1.438.535 1.808.311 1.397-.003 1.607-.428.668-.321.38-.367.369-.576.764-1.784.252-.324.955-.601 1.388-.512.68.046.461.218 1.11 1.385.509 1.31.136 1.713-.123 1.42-.335 1.442-.487.93-1.362.93-2.403 1.09-3.321 2.79-.506.178-.54-.02-1.216-.204-.914-.292-.282.127-1.389 1.207-2.443 1.145-2.429 1.592-1.067 1.026-.547.792-.465.913-.189.781.013.42.28.957.536 1.257 1.534 2.903.45.76.688.864 2.428 1.089.968.192 1.302.004.634.115.678.494.203.82-.155.712.043.559.311.118.075.029.64.271.242.245.114.359-.615 2.701-.239.581-.53.77-.648.574-.748.33-.747-.101-2.064-.89-2.217-.108-.585-.142-.644-.395-1.024-.845-.281-.368-.034-.697.347-.75.014-.312-.255-1.144-.37-.54-3.567-2.747-2.586-1.36-.705-.145-1.168-.043-1.787.335-.564.252-1.14.788-1.277-.028-.902.296-.817.464-.874.777-.39.56-.325 2.531-.482 1.404-.266.503-.483 1.766-.162 1.67.447 2.582.601 1.839.485.989 1.767 2.689 2.928 2.368.294.572.06.71-.552 1.795-.392.759-.393 1.558-.029.697.108 1.132-.13.532-.35.645-.344.889-.023.934-1.696 1.198-.385.419-.286.49-.174.911-.227.598-.998 1.216-.86 1.049-2.496-.976 1.342-1.694-1.732-1.862-.789-2.517-.05-1.339.427-2.573.696-2.559-.025-.922-.14-.326-.888-1.043-1.604-1.386-.964-.436-2.653.164-.573.43-1.155.035-1.254 1.114-.736.905-.403.743-.433 1.42-1.053 4.312-2.03 1.378-5.452 3.7-.277.846.057 1.973-1.432 5.984.208.731 1.196 1.006 1.22.652 4.14-.135 1.808-.556-1.649-2.542-.534-1.762-.104-1.042.175-1.03.29-.705.33-.464.705-.73.52-.37.895-.22 2.652.385.868.332.395.356.78 1.222.393.425 1.65 1.42.611.434 1.159.548 1.57 1.264.387.168.581.06-1.566 3.724-.739 1.348-.48.588-.579.118-.615.805-.62 1.36-1.283 2.072-.287.144-.289-.036 1.349 2.423-.502 1.877-.254 4.693-1.564.445-.914-.238-.359.015-1.65 1.03-1.367.45-2.042-.984-.694.195-1.054.506-.434.42-.477.695-.241.708-.612 2.694.042.692.47 1.056 1.615 2.803 1.38 1.519 2.311.792 1.603-.276 1.641-.497 1.374-.245 1.246.03.987.239 1.118.646.314.324 1.447 1.802.952 1.506.696.902.855.925.397.796.42.926.181.8.031 1.328-.47.66-.842.194-.596-.518-.89-.43-.826 2.204-.54 2.036-.182.02-2.315-.937-1.378.2-.19 1.9.054.639.679 1.453.638.704.374.03.252.916.534.905.476.63.704.808.663.81.739.865.511.208 4.114.46.494.412.1.179.467 2.478-.124.706-.217.415-.855 1.086-2.29 2.463-.624.477-.747.387-1.933.459-1.738-.456-5.925-3.374-.746-.232-.369.04-2.168 1.039-.772.546-.995.9-1.548 1.77-.577 1.453-.696 4.97-2.412 7.171-.232 1.361-.06 1.295.12 1.685.208 1.49-.746 1.126-1.755 1.566-.968.216-.37-.046-1.704-.87-1.15-.282-5.09-.567-1.17-.41-.206-.256-.096-.499-.3-.156-5.233-.164-.689.432-.313.537-.585 2.198-1.12 2.575-.509 2.038-.035 1.306.271 2.048 1.048 2.534.407.67 1.235 1.325.669.4 1.162.446 1.023 1.127.805.588 3.703 1.605 1.14.629.8.877.465.767.369.848.382 1.594.1 3.96-.295 1.655-.306 1.072-.328.59-5.585 4.338-4.343 2.56-1.535 1.243-.652.838 1.875 2.591.149.207.259.764-.01.505-.217.93-.637 1.058-.754.5-1.554-.094-.772-.34-1.866-1.403-1.653-1.815-1.494 1.31-.76.486-5.368 1.931-4.19 2.693-1.229.595-.517.25-.823.073-1.486-.386-.307-.213-1.014-1.592-.47-1.8-.229-1.445-.028-.924.46-1.494.01-.499-.252-.96-1.363-2.71-.36-.431-.59-.395-.711-.378-1.812-.687-1.165-.157-1.235.27-1.832 1.183-.796.756-.755 1.483-.099.501-.047 1.401.292 1.887.405.83 1.55 1.939 2.2 3.415 1.441 2.715.059.714-.396 1.44-1.215.963-.972 1.364-.32.627-.282.984-.098 1.249.245 1.037.677 1.884 2.401 3.9 1.239 2.573.413 1.32.01.791-.203 1.107-.454 1.056-.566.645-2.303 1.496-1.912.601-1.795.315-2.524-.036-2.615-1.213-.73-.727-.574-1.377-.215-1.173-.04-1.18.226-1.188.755-1.21 2.12-1.564.776-1.312.055-.302-.132-.86-.467-1.265-1.915-3.854-.424-1.251-1.613-.066-1.645.457-1.002.514-.707.695-.72 1.128-.646 1.595-.089.65.083.643.366 1.366.777 2.143.08 2.819-.194.809-.37.814-.339.385-.514.392-.564.232-.612.109-.7.203-.701.53-.356.523-.332.748-.136 1.461.038.618.13.358.378.524 4.005 4.42 1.42.744 1.938.408 1.405.005 2.399-.415 2.597-.704 1.881-.278 1.363-.055.96.132.804.395.84.793.692 1.067.262.835-.024.84-.556 2.36-.705 1.194-1.873 2.343-1.57 1.265-1.67 1.678-1.208 1.799-.961 1.017-1.743 1.438-1.423.629-1.512.294-.984-.035-1.302-.388-.789-.477-.855-1.13-.501-1.037-.234-1.28.157-2.111.223-1.132.46-.912 2.061-1.856-2.758-4.1-4.002.596-1.09.654-.615.885-1.193 2.262-.006.556.264.769.3 3.28.292 1.099.41.817.02.223-.073.312-.836 3.57.286 2.603 1.18 2.724 1.431 2.11.979 1.837 1.077 1.131 1.465 1.315 1.732 2.063.7 1.14 1.073 2.943.064.662-.086.664-.426 1.204-.393.644-1.835 1.677-2.733 1.564-1.742 2.115-.481.85-.421 2.112-.562.974-.41 2.176-.145 1.52.42 3.405.64 2.218.367.57 1.385 1.031.6.576 1.401 2.717.344 1.432-.097 1.169-.338 1.146-.51 1.095-.79 1.267-1.023 1.138-6.441 4.972-.884.498-2.587.46-.658.22-1.262.638-3.339 2.066.663.908-2.152 3.92.039 1.743 1.375 3.039.665 2.018.014 1.216-.725 1.666-1.561.62-1.738.05-1.59-.611-.815-.652-.649-.94-.162-1.705.36-2.161 1.866-3.494.15-2.318-.305-.825-.278-.67-1.441.095-1.894.718-2.354.563-2.542.11-.841-.106-2.498-.653-1.689-.117-1.203.194-1.15.635-.712.657-.244.449-.228 1.642.187 1.582.135.382.401.577 3.303 2.736.883 1.46.433 1.096.462 1.62-.007 1.669-.405 1.041-1.816 3.18-.497.596-1.922 1.577-1.407.18-5.044-.447-1.066.015-1.946.783-1.597.43-.697.404-.735.643-.45.592-.332.912-.792 4.207-.505 3.382.01 1.447.15.935-.08.755-.384 1.503-.493 1.43-.565 1.09-1.005-.663-.799-.507-2.064-.075-2.42-.731-3.13-2.067-.76-.671-.371-.56-.908-2.706-.346-.61-.234-.225-1.066-.319-2.142-.087-1.154.509-.867 1.063-.553.862-.133.626.077 1.7.401 1.913.532 1.004 3.423 4.223.864.705 4.026 2.092.812.65 1.017-.602 1.032-.334.741.562.834.039 1.006-.249 1.076-.608.69-.162 1.696.153 1.787.492 1.948-.29 2.365.359.85.52.486.547.282.608.36 2.018-.088 1.445-.574 1.358-.955 1.478-1.298 1.44-.607.509-.898.555-1.146.498-2.199.3-1.26-.117-2.234-.672-.668-.366-1.824-1.392-1.264-.779-2.315-2.215-1.852-.764-1.289-.25-5.484 4.18-3.171 2.553-.95 1.987.201 1.26.528 1.186.2.272 1.342 1.822.45.446 5.092 3.583.58.203.865.049 2.568-.529 1.497-.793 1.085-.033 1.096.259.755.472.47.388.976 1.482.317.935.001.536-.255 1.008-.49 1.055-1.46 2.002-.81 1.309-.277.77-.138.723-.047 1.461.374 1.562.111 1.143-.067.626-.291.663-.673.724-1.388.776-3.02.541-1.481-.282-.345.027-2.203.993-1.545.333-1.526.094-1.643-.545-2.46-.266-1.235.1-1.158.238-1.032.37 1.714 4.525.513.844 1.336 1.092 1.952 2.831.089.914-.448 2.053-.28.545-.475.528-.636.367-1.194.36-1.297.11-.863-.126-1.455-.524-1.07-.773-.602-1.064-.436-1.464-1.83-4.173-1.106-2.061-2.927 1.96-1.13 1.481-.617.615-1.113.445-2.779.065-1.784.19-.83.233-.766.376-.774.558-.92 1.114-.225.653-.111.71.014.897.245 1.12.405.73.544.493 1.133.485 6.395 1.453 2.175.828 3.214 1.523 1.45 1.135.553.692.07.566-.15.353-1.293 1.594-1.716 2.723-2.006 2.33-3.643 3.83-1.159 1.363-1.869 2.65-.36 1.052-.014 1.195.41 1.901.79 2.179.528.789 1.708 1.938.805 1.13.661 1.301.588.799.897.585 3.508 1.582 1.027.34 2.486.387 1.556.696 1.72 1.638.519 1.094.188.838-.172.96-.334.923-.507.784-1.232 1.103-2.516 1.148-2.102.459-.707-.14-5.531-3.507-1.327.288-5.01.416-.697.163-3.65 1.337-.861-.934-1.299-1.048-1.147-.719-.963-.302-.795.025-.332.154-.686.714-.49.69-.413.805-.588 1.58.078.807.247.454.475.294.116.263-.14.917-.582 1.064.019.549.263.525-.593 2.585.003.979.185.85.225.508 2.56 2.98 1.4 1.29 1.586.795 2.032.114 1.315-.11 2.245-.622 2.872-1.77 1.416-.535.916.12.782.241.884.542 1.802 1.45 1.147 1.516.47.796.398.882.23.913.556.069.602.228.05 1.486-.206.847-.595 1.254-.448.423-1.908.782-.827.07-1.733.445-1.574.935-2.27 1.12-1.125.259-.82.003-1.182-.205-1.41-.5-6.008-3.243-.61-.535-2.236-3.048-3.45-4.156-.32.069-.67.428-1.978.53-2.886.367-2.13.125-.935.193-1.334.65-1.682 1.324-.92 1.271-.496 1.142-.205 1.342.19 1.5.354.636.731.922.813.779 1.578.687 5.226 1.079 1.452.572 1.456.777 1.424 1.055 2.817 2.422 2.314 1.728 1.005 1.465.75 2.063.118 1.18-.194 1.599-.16.6-.308.612-.862.889-2.724 2.04-1.058.35-.67.02-3.078-.323-.45.097-.569.276-1.56 1.316-1.862 1.048-.975.337-3.68.706-.532.204-.868.672-.46.808-.11.191-.21.765.073 1.128.525 1.38.738 1.4 1.464 2.11.747.697 5.812 4.448.573.76.372 1.2-.014.913-.507.547-.737.839-1.24 1.126-.773 1.311-1.177 2.346-.203.79-.352.42-1.39.958-.937.44-.635.082-1.654 1.407-.17.766-.12 2.407-.17.425-.319.416.16.394 3.623.96 1.44.189.701-.027 2.444-.662 1.542-.575 1.038-.553.894-.713 1.556-2.213-.545-2.343-.825-2.265-.31-1.724-.072-1.76.31-1.122.631-1.449.963-.412.688.192.797.617.58.45 4.238 2.716 2.38 2.002 1.17 3.03.377 1.549-.079 1.14-.496 1.357-1.474 1.798-.38.741.005.33-.257.452-1.453.787-1.163-.156-.56.142-3.154 1.286-2.58 1.312-.627-.028-1.036-.565-1.517.48-1.496-.11-.645.374-.532.642-.665 1.351-.092.591.051.644.195.39.695.757 2.807 2.169 2.908 1.585 1.017.417 1.154.295 2.492.137 2.64-.438 3.467-1.788 1.964-1.403 1.302-1.474 1.546-2.26.77-2.26-.07-1.985-.468-1.456-.022-.483.141-.943.466-1.24.528-.897.995-1.298.928-.655.804-.373.658-.055 1.405.138.599.308 1.005.83.475 1.18-.011 4.034-.792 1.83-2.545 3.764-3.09 2.543-2.099 2.133-1.04 1.491-2.667 4.267-.932.921-3.008 2.167-.317.34-.08.266.322 3.026-.169.86-.282.6-.052.516.52 3.406.053 3.586.332.702 3.035 3.904.033 1.34-.483 1.525 2.039 1.515.207.332.632 1.863.803 1.688.92.982 1.248.863.204-.016.42-.85.393-2.163.637-1.069.219-.609.76-3.983.468-1.202.482-.665.539-.512 1.195-.655 1.114-.34 1.687.027 1.299.33.871.614.633.903.333 1.056-.045 1.167-.219 1.081-.467 1.327-.508 2.146-.726 1.256-1.936 2.171-.323 1.07-.625.026-.465.701.093.677-.689.133-.729-.144-.31.247.015.634-.079.163-.65.405-.63.01-1.16.228.427 2.57.665 2.824.629 4.276.002 4.632-.102 1.455-.352 2.597-.431 1.352-.663.728-2.233 1.299-1.979.474-3.572.26-2.38-.112-1.435-.19-.31-.262-.254-.794-1.515-1.455-.279-.132-1.582-.173-2.896.294-1.019.479-.89.767-.422.497-1.27 2.364-.042.942.188 2.82.076.352.202.3.87.558 3.112 1.44 1.28 1.607.253.56.422.355 1.149.375 1.075.116 2.228.922 5.228 4.134.73 1.19.201.785-.01.339-.58 1.948-.405 2.03-.674 1.164-1.676 1.21-1.009.39-1.49.257-1.291.694-1.245.976-.754 2.05.081 1.757-20.196.19-3.954.1-5.638.05-2.14.022-.517.004-.278.003-.688.002-.662-.014-8.778.101-10.092.128-2.106.017-3.588.124-1.435.009-5.873.032-2.236-.11-12.118.178-2.619.023-1.49.128-.034-.01-5.96.078-1.758-.014-1.847.045-22.22.067-3.986.184-24.506.092-15.28.19-.4.026h-23.911l-31.376-.062-14.255-.203-8.823-.04-5.505-.06-1.515-.019-20.302-.307-6.453-.04-.489-.002-42.348-.643-.938-.026-1.565.01-.243-.007h-.05l-1.675-.008-12.925-.191-6.99-.246-2.71-.11-.043-.008-2.016-.03-2.723-.002-16.128-.311-5.016-.139-3.585-.059-16.727-.29-.506-.031-1.685-.026-3.99-.01-.095.01-10.795-.157-8.784-.134-3.723-.157-4.685.034-14.195-.244-.044-.006-6.52-.138-7.504-.094-18.342-.403-4.584-.041-.207-.004-.076-.001-6.136-.155h-.005l-.8-.02-1.343-.027-39.119-1-16.655-.363-1.966-.045-42.82-1.054-.715-.003-1.603-.046-1.143-.042-.31-.016.392-14.656.123-3.218.249-10.005.014-1.038.014-1.292.208-4.083.234-9.593.016-.7.087-3.048.209-6.458v-2.017l.063-2.616.082-2.505v-.004l.173-6.506.209-7.87.113-4.088.032-1.151.032-1.615.136-3.009.006-1.588.319-10.303.052-2.618.032-1.163.19-8.36.12-5.015.069-.485.256-11.934.05-2.205v-.2l-.528.21-.843.035-1.078-3.947-3.308-1.3-6.165.282-4.306 4.296-3.676-6.314-3.8-2.82-4.234-.927-5.766 4.291-3.192 4.956-4.773-1.082 2.435-4.758-2.708-2.366-3.831 5.053-1.889-2.512-3.576-.432-2.447 5.868-4.229-.384-1.466-3.534-2.92 1.471-1.414 4.165-6.713-2.141 1.028-3.447 2.149-2.132-1.587-1.816-6.717.904-3.317-4.227-4.402-1.138 1.363-4.928-1.163-6.415-4.505 1.374-.926.198.191-3.732.096-2.436.412-5.92.012-.89.324-4.765.039-1.306.49-8.166.003-.052.041-.69.042-.638.446-7.897.117-1.618.095-1.672.004-.057.388-6.58.304-5.104.445-7.2.033-.068.767-13.563.04-.765.166-3.11.046-.85.938-15 .018-.525v-.01l2.332-40.415 2.242-38.969.146-1.793.608-10.359.17-2.82.07-1.228 1.232-21.073.53-9.062.023-.625 1.226-20.858.06-1.921 1.294-20.582 1.897-30.233.046-.784.036-.631.2-3.326.238-3.656.024-.86-.018-.412.58-9.092 1.956-30.685.868-13.642.168-2.165.563-9.59.03-.66.252-3.664.014-1.529.025-.885.212-2.688.063-.572.292-4.75.03-1.99.062-.697.256-1.874.325-5.05.044-.706.09-.385.1-2.762.055-.955.327-3.567.904-13.42-.002-1.072.115-.52-.315-1.609.178-1.07-.16-1.355-.025-.221.544-1.525.036-.1-2.75-24.498-1.933-20.526-.113-1.1-.056-.393-.115-1.224-1.059-10.629-2.157-20.902-.095-.739-.661-7.135-.06-.65-.176-1.53-.656-6-.087-.822-.122-1.366-.036-.28-.054-.623-.266-2.57-.198-2.182-.171-1.73-.28-2.924-1.441-13.337-.705-7.71.005-.13.005-.022-.042-.294-.209-1.888-.042-.4-.508-4.747-.024-.093-.538-5.19-.227-2.131-.181-1.4-.124-1.22-1.707-16.529-.021-.24-.621-5.699-1.291-11.862-.23-2.29-.004-.036-.399-3.932-.132-1.268-.658-6.446-.081-.677-.354-3.86-.07-.651-.028-.224-.122-1.517-.28-2.253.007-.126-1.155-11.846-.974-10.862-.84-9.924-.304-3.446-.094-.752-.385-3.953-.832-9.382-.294-3.488-.204-2.073z"/></svg>