<svg height="1000" width="1000"><path class="americon" d="M38.9 572.827l7.621-104.375 2.525-39.98 1.372-21.745 1.7-26.966 2.234-35.488 3.083-50.5.457-6.89 4.693-70.884.09-1.478 1.63-26.831 1.564-28.624 98.853 5.485 41.118 1.652 68.21 2.21 6.146.233 56.631 1.883 66.781 1.636 12.833.242 3.347.037 113.165.3h.035l41.316-.301 10.914-.12 44.363-1.297 54.965-1.164 59.271-1.858.093-.004 23.676-.895 37.862-1.597 52.34-2.465 4.012-.205 7.945-.413 62.444-3.59h.013l2.59 41.44.527 8.542 2.608 42.328.922 14.942.11 1.785 3.361 55.294 1.944 30.417 2.673 40.54.064.973 2.13 32.249 2.71 39.963.974 14.325 3.741 58.26.886 13.763 2.484 38.593 1.25 19.376.069 1.063 1.618 25.057 4.25 62.942.167 2.47.84 13.412 2.7 43.048 1.39 22.151 1.613 25.665.772 12.11.405 7.124-42.422 2.312-46.47 2.414-19.537.218-21.724.939-11.374.553-87.762 3.685-37.25 1.468-44.911 1.526-53.376.985-52.784.252-4.649.027-8.902.042-4.166.016-22.811.045-15.56.016-24.785-.03h-.272l-37.88-.139-1.244-.005-45.686-.318-18.07-.202-53.427-.851-.986-1.335-73.763-2.1-8.25-.282-70.374-2.774-51.333-2.364-32.67-1.686L25 825.714l5.355-82.168 4.337-66.764 2.961-45.68.127-1.955-1.248-18.731z"/></svg>