<svg height="1000" width="1000"><path class="americon" d="M39.901 556.114l1.353-20.132 1.069-12.595 1.244-13.238.338-4.904.028-.144.46-6.192-.004-.069.704-9.506 1.427-20.984 2.583-39.976 1.275-21.74v-.005l1.717-26.97 2.255-35.487 1.85-30.385.015-.11 1.22-19.983-.002-.022.428-6.89 2.26-36.512.596-8.338.001-.804.499-6.56-.01-.077 1.053-12.946.323-5.647.076-1.48.437-8.536 1.207-18.294 1.563-28.624 20.507 1.327 31.288 1.757 12.911.778 3.222.086 30.926 1.538 8.592.347 16.677.488 15.854.684 36.239 1.403 31.966.94 6.146.211 9.483.316 29.793.719 17.685.557 50.024 1.074 1.77.041.265.035.802.02 4.841.167.68.015 8.072.447 12.83.39 3.347.06 16.027.263 40.979.269.696-.002 55.463-.253h.035l2.519-.015.216-.004 38.58-.284 10.914-.119 3.19-.24 19.012-.542 22.15-.518.011.004 3.641-.014 31.331-.695.062.014.337-.012 10.884-.27 2.352-.046 2.294-.062 2.366-.051 1.699-.028 1.734-.062 1.962-.115.64.027 5.644-.154.158.01 2.21-.073 5.845-.132 1.251-.096 2.259-.053 2.417-.073 13.363-.47 21.788-.668.093-.003 9.449-.32 1.329-.094 8.01-.31.007.005 3.082-.212 1.797-.015 2.129-.018.289-.01 35.289-1.52h.157l2.102-.11.191-.008 1.801-.075.587-.01 4.537-.241.238.003 2.157-.057.15.001 2.203-.112.143.012.224-.008.134-.012 1.829-.117.215.031 2.168-.137.192.014 2.161-.122h.218l2.151-.095.206-.002 2.217-.112.254.02 2.041-.148.348-.01 1.997-.11.376.016 6.645-.366.845-.018 1.497-.088 1.856-.07 10.656-.55 4.01-.25 5.238-.221.366-.015.03.01 1.17-.062 1.144-.063 8.51-.49 2.155-.106.162-.016 11.085-.589 1.92-.086 8.808-.505.025-.005.01.003.147-.008 2.38-.143.53-.053 4.436-.248 2.438-.165.35-.018 2.246-.113 8.188-.49 6.72-.422 2.334-.136h.013l2.59 41.44.514 8.544 1.576 26.24.206 2.915.82 13.172.395 7.18.067.543.307 5.436.141 1.785.141 1.782.971 16.979.066 1.013.676 10.967.134 2.361 1.514 23.973 1.59 25.324.09 1.046.11 1.68.155 2.367 1.553 23.725.287 3.603.038 1.288.612 8.896.206 3.026.066.974.328 4.847.008.372.313 5.058.892 13.74.053.851.176 2.424.335 4.958.793 11.716 1.871 27.604.048.643.043.573.928 13.752 2.58 38.927.151 2.323.152 2.672.15 2.234.161 2.425.001.199.613 9.476.1 1.505.024.305.115 1.922.01.045.06.89.539 9.085v.013l.36 5.608.242 3.824.152 2.498.223 3.346.171 3.054.002.022.532 8.659.406 5.682.106.645.262 5.258.799 12.073.461 7.29.001.012.074 1.062.145 2.077 1.155 18.153.132 2.817.17 2.011.658 11.333 1.342 19.727.02.33.697 9.784.487 7.365.228 3.469.194 2.485.37 4.81.251 3.64.17 2.469.5 7.316.14 2.487.134 1.884.107 1.722.382 6.14.492 8.416.177 2.833.047 1 .34 4.925.387 6.175.374 5.847.012.02.263 4.195.232 3.498.16 2.394.16 3.756.017.034.48 7.288.146 2.001.38 6.68 1.236 19.705.16 2.834h.006l.178 2.207.034.92.772 12.11.03.114v.378l.011.233.065 1.028.299 5.37-1.661.1-17.583 1.002-3.259.173-7.115.312-12.804.725-.012-.01-46.459 2.425-5.974-.129-2.423-.021-2.54.005-2.88.101-2.352.069-3.367.193-18.65 1.062-.84.035-.157.016-2.076-.174-11.377.5-9.468.403-78.292 3.336h-.152l-37.1 1.424-32.929 1.11-11.98.46-24.492.452-14.296.147-.132.134-2.644.081-11.812.17-.012-.005-36.443.483-3.892.128-12.437-.353-4.649.05-8.902.086-4.166-.05-22.811.044-3.143-.017-.651-.003-2.434.008-5.927.023-.495.02-2.91-.015-12.702.026-5.057-.042-7.026-.014h-.272l-37.701-.137-.179-.001-1.243.002-26.454-.057-6.277-.1-.132-.006-6.056-.011-6.768-.151-18.076-.214-3.3-.044-15.826-.15.004-.007-1.564-.06-.011.003-4.426-.101-1.94-.02-10.178-.1-16.18-.36-.986-1.336-73.762-2.1-8.252-.281-70.373-2.774-33.73-1.394-.169-.101-5.077-.248-.042.004-4.347-.212-.035-.003-7.927-.39-32.592-1.694-.084-.012-45.264-2.571-.605-.038L25 825.612l.793-12.485.035-.324.134-1.994.078-1.669.143-2.234.022-.423.008-.018.58-11.05.264-4.156.162-1.521.396-6.517-.054-.112 1.358-21.133 1.478-18.53.204-2.557.488-5.165.007-.011.784-12.389.099-2.277.07-1.034.422-7.127.548-7.603.017-.331.301-4.552.042-1.65.613-8.433.337-6.015.07-1.047.306-5.172.113-1.394.354-4.393.43-11.285.28-3.83.023-.375L37.648 631l.131-1.955-.857-13.563-.391-5.168 2.369-37.59z"/></svg>