<svg height="1000" width="1000"><path class="americon" d="M25 770.006l15.847-9.353 27.996-16.56 3.737-2.177 33.376-19.242 24.965-14.832 2.543-1.519 13.268-7.619-17.116-28.95-15.61-25.498 1.114-7.93-.235-5.443.396-6.76 2.467-26.113.737-6.673.006-.086 1.38-19.05 1.978-18.171.119-1.293.294-3.388.538-6.666.056-1.126.07-1.417.019-.308.057-.945.862-12.198.054-.326.005-.336.069-.748.055-.591.049-.472 2.355-30.916 5.268-60.21.698-13.933 1.103-16.602.9-13.55 2.855-34.663.63-11.57 3.482-42.213.035-.332 1.747-22.344 2.086-21.917 1.128-19.38 2.04-23.433 1.994-26.945 1.55-32.116 26.248-.268 66.607 3.103.637.035 29.862 1.582.605.05 49.356 2.291 35.64 1.598 21.433.767 4.428.156 65.413.853.055.001 7.935.547 16.183.29-1.582 25.228 20.244-2.916 3.866-.559.291-3.049 1.386-1.326.015-1.98.964-1.168.724-1.556-.778-.771-.46-1.033.077-1.136.768-.207 1.16.637.329-.053 1.653-2.884 1.11-3.112-.867-1.233-1.926-.78.82-1.88 28.857-.385 25.433 2.822 16.959 1.007.49 3.76 8.046.176 3.807-.01 4.375-3.543 21.717-2.764 9.123.017 25.294.03 67.22.942 32.577-.079 54.83.366h.014l16.16.695 18.637.79 36.697-.163 46.533.966 3.601-.011 39.826-.162.847 10.043 1.429 47.135 2.849 61.188.01.624 1.011 20.432.028 1.084 1.23 23.852 1.173 29.59.005.107L975 408.405l-.134 10.463-.36 28.001-.001.038-2.075 117.413-10.154-1.716-10.314 5.046-1.401 1.499-.402 2.631.765 6.817 4.364 6.997 1.04 8.87-2.92 4.856.976 6.243 3.212 6.075-4.502 6.926-10.39 9.168.441-1.412-4.335-5.506-8.905-3.431-14.855 2.959-2.659-1.463-.588-.38-6.396-1.764-4.587.17-5.363 5.249-6.913 3.584-4.21-3.507-1.344.1-2.838 6.098-16.506 2.656-30.696-1.45-4.838 3.627-2.582 4.706-5.825 5.222-10.986-.075-13.488-6.949-6.098-4.725-1.845-3.18-3.195-.947-3.376.555-5.05 4.944-.768 1.639-.403 9.206-4.318 5.088-6.103-4.958-5.037-.846-6.187.658-1.826.582.7 2.758-.37 2.868-4.947 4.658-27.578 3.577-4.828-.407-3.111-2.886-3.699 1.858-3.512 1.763.317 5.056-18.89 5.282-5.981-10.654-3.554-.127-22.567-.196-10.086 5.782-6.457-.479-6.778 3.303-3.469 3.78-5.905-.73-1.313-2.834-3.974.785-1.876 1.136-1.703 4.24-.504.367-4.632 3.377-11.766-11.455-5.993-2.334-7.209 1.976-9.426-2.134-11.919 3.286-6.035.727-.43-.21-3.99-1.939-4.66 1.442-6.178 6.142-.292 4.114-2.403 3.006-2.113 1.129-7.783.323-1.513-2.955 1.21-1.314-.614-2.056-4.9-3.245-18.61 11.686 2.904-16.765-1.488-.001-14.069 1.37-16.01 8.174-.31-1.186-3.683-1.766-10.251.022-1.201.746-1.9 5.091-3.582 1.587-9.874 1.737-6.872-.738-4.363-2.365-.44-.654 1.09-2.935 4.081-2.207.45-2.415-1.78-3.83-3.91-2.865.043-6.906-1.037-10.12-2.68-.359-3.316 3.695-3.654 5.899-5.563 1.269 2.802 6.494 2.239 4.168-2.594 2.406-1.07.993-10.489 3.6-2.49.854-11.935 11.766-5.781 7.026-4.758 8.14-3.656 3.836-2.557.117-.14-1.503-1.029-.528-13.798-2.037-4.289 2.26-9.93 8.224-12.901 14.171-1.242 2.25-1.205 5.9.185 1.766.772 2.148-1.342 1.9-9.468 2.547-16.73-7.819-2.795-1.308-.285-2.886-3.47-1.173-12.288 5.517-12.707 10.014-3.32-.941-6.458 11.444-7.147 5.75-11.948-6.918-4.741 1.39-7.698 6.064-9.304 4.019-20.554 3.674 8.763 12.12-16.477 17.724-17.318 6.776-6.286-6.055-7.543-.36-8.866 3.643-4.638 9.98-7.765-8.074-11.718 6.007-.02 6.046-3.007 6.631-3.088 1.853-1.084-3.629.549-4.479-1.254-1.912-1.257-.182-8.047 4.843-5.244 4.855-2.873 3.817-1.278 6.067-6.87.352-.406-6.316-5.232-3.654-4.084.551-19.652 8.111-3.877 4.48-3.154 6.53-.135-.218-.988-1.594.506-3.649-.23-3.93 1.968-5.334.488-2.61-.333-.725-3.519-5.099-3.742-6.346-4.556-7.733-3.45-5.883-3.403-5.685-10.813-18.703-2.737-3.973z"/></svg>