<svg height="1000" width="1000"><path class="americon" d="M118.757 309.652l55.37-56.103 13.78-11.621 33.367-35.343L356.071 73.563 404.152 25l17.066 17.873 74.898 73.57 6.515 6.983 19.91 20.018 20.67 21.536.33.344 244.36 242.433 93.342 95.158-5.074 5.32-30.772 30.806-3.259 3.268-106.873 107.796-14.501 13.066-93.573 96.562-47.909 44.771-26.503 29.379-5.084 1.866L411.035 975l.41-42.75 11.288-65.738-8.354-3.267-3.621-27.042 3.646-33.559-3.992-16.783-7.259-6.996-5.083-.468-3.27 2.795-5.08-6.995-.354-17.713 1.86-5.065 1.049-2.858 9.077.004 32.318-6.979 4.005-41.015-27.562-64.326 1.454-6.99-.721-10.718-5.436-14.448-9.79-13.053-7.615-5.595-4.354 1.395 3.623 8.856-2.544 7.92-10.16 2.79-7.975-11.654.732-9.32-10.87-18.18-3.988-4.196-11.081-.274-18.992-39.816-13.735-49.398-3.261-2.798-6.885-4.2-43.867-5.638-28.99-10.751-12.677-7.937-27.152-24.263-7.962-8.398-10.464-28.897-25.682-28.456-11.565-17.254-4.68-16.31z"/></svg>