<svg height="1000" width="1000"><path class="americon" d="M916.505 753.326l.19-.113.165-.192-.069-.542.177-.144.059-.37-.06-.178.047-.293-.023-.23.173-.251.013-.29.205.063.212-.072-.054-.23.205-.125.263-.072.096-.205.187-.056.39-.435.258-.208.107-.212.205-.03-.033-.222.149-.013.062-.296.102-.15.241-.107.087-.017.089-.018-.005-.157.233-.224.072-.186.304-.24.538-.213.258-.017.196-.013.096-.007.195-.024.132.155.25.034.693-.38-.092-.408.034-.248.212-.23.155-.17.132-.336.107-.054.156-.08-.004-.152-.003-.12-.004-.136.248-.486.164-.199.354-.113-.014-.301-.04-.309.03-.188.196-.207.205-.134.191.04-.025-.344.187-.164.142-.111.366-.248.195-.533.28-.27.252-.035.252-.2.242-.024.2-.021.016-.392.002-.044.038-.184.204-.214-.027-.247-.057-.232.11-.54.041-.21.09-.161-.005-.424-.284-.081-.088-.121.133-.18-.254-.312-.204-.251-.128-.158-.12-.148-.031-.043-.3-.414-.266-.273-.154-.284-.172-.05-.178-.182-.807-1.377-.052-.483-.286-.438-.219-.88-.253-1.039-.004-.408-.103-.723-.067-.47.116-.386-.025-.41.178-.567-.025-.257.288-.577.167-.086.027-.234.015-.128v-.006l.007-.052.293-.298.196-.198.448-.211.756-.129.182.107.429-.097.386.143.096.167.308.096.153-.056.355.16.45.202.11.19.265-.02.418.187.15.068.088.097h.176l.137-.171.301.21.09.12.032.044.23-.002.194.126.193.265.215.065.336.321.278.133-.014.253-.126.209.429.44.884.535.327.187.629.36.961.398.596.272.535.483.076.396.2.143.308.023.319.059.343.26.258-.04.262.393.196.264.417.26.16-.025.365-.057.51-.325.481-.104.336.12.808.286.68.261.924.137.746.264.736.269 1.257.394.126.06 1.049.488.488.262.167.224.387.204.376.145.707.29.217.118.164.088.17.092.01.006.016.008.176.095.244.007.221.228.493.283 1.476.682.656.163.163.04.493.255.471.403.004.002.354.19.042.067.011.018.163.262.19.009.103.004.09.004-.022.215.852.507.402.24.421.25.354.409.082.25.275.034.511.271.804.68.572.608.225.112.621.666.225.24.132.14.258.49-.044.183.149.147.193.034.11.133.057.166.048.14.169.09.244.132.306.135.192.215.072.352.162.033.119.237-.161.205.1.38-.222.854-.234.468.128.194.03.046.132.044-.054.31-.1.145.03.273.16.254-.028.271-.024.223-.095.177.02.126.015.09-.055.453-.007.058-.001.007-.013.108.043.588.006.316.005.011.123.284.013.03.188.153.056.046.498-.03.032-.002.008-.133.292-.099.15.124.326-.314.351-.009.079-.103.15-.198.463-.018.114.14.165-.003.19.129.243-.111.05-.149.52.094.107.082.191.295.03.036.172.212.028.07.094.242.165.42.142.196.151.51.149.251-.037.388-.16.398-.002.723.212.293-.14.193.012.118.015.134.079.278.248.226.49.267.187.193.258-.045.204-.02.224.118.001.053.004.143-.134.317.014.076.008.049.037.21.002.015.01.007.346.253.321.18.146.09.172.105.213.415.451.158.274.382.174.17.544.23.126.052.047.055.17.198.195.059.134-.005.099-.004.372.336.783.111.6.388.234.158.345.001.48.265.167.122.088.216.125.14.005.067.007.103-.225.2.03.273-.299 1.047-.022.076-.073.257-.297.384-.21.151-.172.33-1.36 1.295-.317.175-.087.047-.265.31-.285.145-.156.362-.922.467-.676.602-.22-.004-.244.532-.682.586-.766.724-.028.034-.146.182-.111.205-.798.448-.725.408-.342.06-.2.185-.038.035-1.073.381-.376.318-.623.162-.433-.013-.329.305-.468.406-.44.14-.661.459-.362.327-.448.278-.29.023-.296.02-.316.21-.366.201-.275.05-.323-.05-.232.073-.46.049-.222.151-.11.208-.115-.061-.16-.031-.35.034-.116.053-.673-.2-.124.025-.385-.11-.067-.157-.416-.137-.279.045-.307-.127-.15.06-.174-.089-.589.26-.474.046-.368.078-.416.342-.11.09-.285.394-.233.224-.383.171-.459.243-.114.163-.08.113-.14.198-.015.021-.093.248-.026.07-.05.137-.019.048-.134.104-.049.038-.232.18-.095.074-.798.365-.571.076-.246.135-.13.072-.227.312-.182.063-.19-.008-.353.133-.15.218-.291.212-.269.45-.606.477-.133.257-.186.178-.643.26-.26-.025-.361.145-.314.172-.598.118-.215.064-.169.125-.053.04-.184.13.02.367-.236.15-.12.268-.243.007-.154.088-.329.442-.395.607-.06.234-.297.022-.11.16-.066.096-.088.126.076.244.025.403.062.645-.096.31-.212.402-.307.438-.167.133-.333.125-.193.28-.222.69-.25.257-.16.193.008.869-.15.157-.1.312-.326-.02-.158.143-.161-.137-.313.059-.1.248-.026.253-.005.01-.032.066-.143.292-.049.1-.003.008-.206.134-.02.013-.012.131-.005.059-.127.13-.127.128-.248.06-.121.094-.167.297-.077.077-.07.072-.094.094-.131.077-.173.1-.12.07-.245.056-.035.041-.152.174-.204.057-.007.002-.049.007-.11.017-.086.013-.029-.176-.033-.2.052-.33-.057-.479-.196-.262-.418-.334-.207-.069-.209-.12-.076-.197-.358-.302-.206-.034-.209-.268-.256-.053-.273-.117-.304-.007-.634-.295-.21-.051-.186-.284-.59-.34-.485-.398-.182-.059-.535-.536-.296-.004-.948-.283-.364-.109-.41-.06-.307.012-.19-.17-.31-.087-.283-.253-.59-.182-.094-.154.002-.494-.089-.272-.141-.182-.18-.22-.34-.535-.3-.323-.15-.115-.025-.113-.02-.089-.161-.599-.345-.928.06-.638-.06-.334.182-.277.142-.305.042-.256-.205-.07-.086-.196.202-.445.16-.151.015-.165.023-.242-.13-.224.114-.27.107-.785.296-.385-.091-.255-.05-.38.066-.461.158-.39-.158-.358.056-.452.164-.31.196-.68.009-.398.12-.224-.047-.223.061-.15-.081-.204.104-.303.002-.32-.141-.262.045-.281.208-.258-.006-.467-.071-.333-.182-.509-.393-1.093-.57-.914.02-.17.256-.515-.006-.008-.192-.246-.247-.244.101-.157-.045-.088-.19-.032-.122-.217-.079-.27.052-.489-.095-.167.014-.199-.274-.277.244-.328.048-.304.076-.189-.133-.16-.072-.138-.274-.076-.155.023-.02.16-.001.01-.162.002-.178-.197-.255-.003-.183-.171.101-.438-.173-.466-.268-.453-.122-.043-.004-.255.197-.248-.023-.22-.025-.242-.167-.598-.086-.255-.179.025-.02-.17.013-.221.01-.171-.13-.335-.109-.834-.246-.642-.011-.03-.015-.07-.035-.167-.035-.168-.014-.017-.16-.19-.213-.257-.06-.176.053-.161v-.002l-.038-.066-.001-.002-.184-.317v-.193l-.074-.053-.13-.093-.238.095-.068-.042-.56-.344-.115-.12-.34.01-.232-.133-.162-.29.06-.213.005-.334.143-.067.003-.025.019-.16.026-.2-.26-.166-.126-.223.041-.15-.088-.154-.142-.11-.243-.018-.033-.059-.136-.24-.006-.033-.024-.12-.022-.117-.014-.33-.007-.161-.141-.212-.179-.194-.242-.265zm-29.293-58.248l.08-.493.013-.081.014-.034.09-.21.023-.359.02-.323.09-.17.009-.017.063-.122.106-.127.005-.016.105-.361.193-.457.02-.043.07-.15.01-.026.14-.303.24-.469.037-.133.148-.528.107.134.245-.01.07-.19.111.183.16-.027.019-.034.083-.147.058-.101.002-.004.074-.05.174-.115.056-.156-.055-.087.012-.183.275-.132.37.171.376-.087.12-.008.121.059.241-.066.22-.317.438.014.054.096.181-.089.014.322.171.125.008.027.036.123.217.086.243-.049.183.095.166.2.253-.098.236.257.128.387.119.12.175-.197.09.05.113.262.139.326.11.21.215.016.255-.13.017.305-.032.418.023.403.193.115.127.263.097.217.302.203.042.028.025.367.027.148.138.119.357.174.177.395.046.234.001.01-.009.076-.005.043.196.288.096-.07.023.036.17.26.01.165.002.031.02.05.033.086.249-.113.126-.015.16.103.33.043.107.014.394.018.13-.067.458-.236.276-.173.252-.143.164-.025.133.1.327-.07.315-.13.362-.037.153-.09.008-.004.438-.045.113-.158.145-.091.202-.127.196-.276.286-.143.34-.17.288-.137.365-.011h.006l.204.006.152-.18.212-.116.168.053.15-.17.309.101.363.258.254-.071.238-.075.643-.139.14.12.18.28.072.134.089-.004.129-.005.287-.235.308.268.006-.002.09-.027.058-.159.551.1.228.238.152.12.208-.005.062.363-.03.292.172.011.186-.034.212.09.016.008.003.098.007.18.17.247.324.243.203.141.19.04.042.048.061.072-.035.101.077.101.244.154.2.242.32.13.347.27.005.276.238.112.151.063.107.124.163-.015.247-.264.121-.005.004.35.632-.067.038.145.01.04.013.047.037.32.032.276.009.07.304.118.253.423.017.164.28.098.184-.017.433-.099.334-.09.268.184.45.308.293.12.278.273.239.125.29-.005.185.1.207-.019.192.036.075.014.414.135.178.058.122.116.188.09.264.01.213.154.15.106v.027l.002.239.17.047.404.414.13.147.034.283.04.068.11.027.06-.006.04.063-.057.05-.136.031-.106.028-.04.126.08.119.037.08.087-.007.102-.061.03.06-.008.138-.094.058-.07.09.003.405-.006.039-.048.356-.075.114.117.214-.006.259-.2.264.007.4-.27.136-.149.257-.08.26-.308.332-.339.297-.189-.08-.165.124-.22.063-.145.035-.131.209-.131.075-.139.173-.16.135.02.304-.283.415-.149.1-.253.006-.424.194-.366-.064-.28-.157-.275.213-.408.247-.476.037-.305.067-.07.227-.318.24-.211.007-.19.342-.276-.029-.08.177-.148.096-.256-.288-.45-.111-.417.217-.147-.136-.174.177-.294-.071-.083-.217-.37.004-.207-.077-.643.15-.365.115-.262.123-.173.081-.212.205-.2.123-.105.064-.041.002-.149.007-.248.123-.01.006-.103.132-.12-.02-.154.101-.233.155-.006.004-.064.044-.134.093-.032-.01-.103-.03-.58.25-.214.068-.062.02-.152.193-.192.116-.406.117-.245-.033-.433-.032-.397-.029-.431.072-.15.127-.182.027-.086-.132-.326-.02-.073.146-.202.007-.133.096-.345.044-.125.088-.275.04-.239-.144-.354-.056-.42-.04-.109.011-.054.006-.091.009-.1-.184-.4.006-.087-.172.019-.115.05-.09-.051-.112v-.039l-.012-.053-.14-.12-.08-.029-.064-.068-.046.022-.072.125-.09.024-.06.087-.101-.039-.111-.069-.111-.042-.107-.063-.063-.073-.018-.05-.157-.174.025-.253.15-.222-.107-.356-.314-.413-.28-.196-.068-.164.14-.103.147-.033.037-.235.01-.008.167-.126.043-.174.023-.094-.04-.06-.065-.097.006-.014.05-.12.027-.065-.033-.278-.102-.072-.011-.613-.014-.325.017-.113.021-.138-.06-.48-.005-.04-.08-.165.066-.283-.027-.169-.037-.221-.022-.138-.129-.166-.084-.285-.126-.171-.033-.047-.118-.596-.046-.233.014-.764.002-.101-.04-.22-.032-.177-.127-.156-.013-.013-.393-.374-.045-.043-.166-.057-.321-.111-.18-.062-.044-.015-.468-.052-.296.065-.215.228-.207.135-.191.387-.097.06-.197.124-.536.067-.273-.273-.007-.004-1.035-.598-.786-.129-.351-.207-.37-.322-.261-.13-.133-.067-.226-.008-.242.112-.208-.07-.217-.243-.125-.404-.315-.34-.101-.109-.042-.045-.275-.09-.14-.171-.057-.071-.086-.158-.042-.075-.49-.539-.036-.04-.02-.021-.089-.097-.269-.164-.215-.349-.015-.067-.053-.242-.146-.106-.164-.118-.118-.131.08-.095.034-.056.064-.103-.012-.2.006-.113.022-.423-.137-.201-.145-.3-.153-.107-.088-.06zm-.214 19.01l.078-.25.209-.265.282-.2.017-.092.144-.128.168-.115.084-.104.06-.167.189-.082.351-.063.267-.143.426-.07.228-.054.171-.174.27-.209.17-.057.387-.336.115-.065.353-.166.117-.201.116-.09.534-.291.413-.196.376-.125.212-.033.316.017.156.053.122.168.4.19.177.264.489.647.01.17.037.203-.46.18.058.248-.054.378-.25.322.06.087-.095.16v.176l.152.132.325-.154.122.082.075.083.264-.02.082.303-.115.153-.22.158-.101.085.011.203-.193.195-.136-.025-.096-.148-.138-.095-.186-.043-.093.143-.147.022-.22-.057-.165.054-.11.08-.029.11-.222-.013-.212.09-.024.073-.158-.02-.17-.177-.087-.16-.476-.025-.268.134-.066-.172-.534.124-.395.17-.436.264-.152-.113-.045-.097.02-.082-.055-.087-.033-.157-.11.07-.112.164-.057.015-.095.145-.1.116-.27.089-.055.114-.132.018-.118-.146-.075.033-.096.107-.197-.148-.12.03-.13-.086-.026-.08-.134-.082.123-.185-.092-.153-.16-.057h-.138l-.13-.127-.067-.169-.082.024-.145-.14zm-16.352-18.43l.182-.414.198-.168.184-.032.577-.375.628-.171.655-.011.271-.063.37.003.292-.051.422.134.422.145.737.028.45.038.229-.06.647.174.36.018.678.237.323.16.386.36.102-.003.581.568 1.481 1.445.374.379.161.253.173.191.424.809.113.126.164.3-.02.737-.366.723-.358.425-.3.609-.068.177-.118.05-.206.272-.267.132-.225.014-.196-.034-.244.159-.429.142-.244.255-.223.139-.176.07-.167-.113-.025-.017-.05.042-.081.066.002.03.007.12-.14.213-.124-.033-.04-.18-.174-.034-.006.004-.083.071-.07.059-.143.039-.116.03-.032-.007-.137-.03-.133-.031-.156-.01-.073-.005-.141.128-.404-.07-.197.096-.149-.115-.347.032-.47.06-.152.058-.192.062-.14-.071.007-.16-.306-.421-.17-.112-.232-.3-.329-1.264-.099-.029-.029-.357.102-.194-.018-.118.01-.142.098-.033-.083-.162.087-.319.015-.509-.175-.452-.48-.828-.154-.185-.014-.117-.224-.218-.94-.46-.16.016-.094-.077-.02-.09-.099-.071-.098.04-.173-.158-.166-.008-.083-.13-.073-.14-.063-.075.015-.087-.181-.224-.128-.348zm-11.102-10.202l.258-.311.102-.297-.08-.16.098-.196.081-.242.2-.134.078-.149-.013-.2.122-.184.25-.286.267-.273.176-.062.16-.03.604-.512.248-.326-.046-.22.126-.1.066-.21-.055-.135.09-.256-.112-.536-.262-.26-.126-.12-.06-.183.127-.156.157-.083.008.004.358.15.089.072.234.09.305-.01.502.041.25-.028.161-.183.41.324.114-.088.18.144.18.323.254.213.269.029.105-.022.335.1.433-.017.205.011.03.138.086.055.14-.01.206.02.172.017.006-.106.308.012h.01l.123-.005.16-.007.382.137.133-.029.272.112h.026l.218.004.243-.044.005-.001.331.056.07.011.485.203.375.111.33.005h.062l.229.139.461.002.307-.117.37.041.425.072.444.116.06.016.12.033.224.062.128.035.012.004.258.084.42-.142.167-.18.033-.15.088-.425.018-.17.126-.051-.015-.112-.006-.05-.097-.107.093-.1.173-.141.27-.13.23.095.121.072.133.162.114.193.033.195.375.615.044.463.156.133-.01.156.25.06.206.115.28-.109.12.116.28.074.035-.033.139-.124.037.1.03.156.244.085.214.002.093.11.238-.064.186-.258.324.003.043.119.03.216.184.034.131-.237.386.074.093.153.446-.101.27-.041.082-.07.26-.045.212.115.332.02.16-.205.135.015.229-.16.402-.076.295-.107.223.093.129.22.259.023.13-.128.149-.147.21.05.129-.084.173.055.131-.12.498.084.12.007.795.049.183.228-.035.453.185.016.136.084.527-.142.362.092-.094.281-.061.432-.164.149-.316.583-.328.238-.27.484-.155.133-.185.022-.063.193-.604.501-.348.214-.389.329-.04.155-.302.008-.253.141-.172.333-.283.059-.235.186-.425.049-.252.029-.07.075-.016.017-.13.139-.228-.003-.293.162-.13.165-.348-.016-.101.063-.147.09.033-.188-.13-.11-.296.066-.127.18-.24.118-.172.003-.162.039-.066.154-.421-.083-.134-.084-.268-.027-.012-.18-.102-.135-.06.015-.182.048-.628-.116-.297-.138-.471-.05-.168-.019-.356-.106-.265-.026-.242-.135-.535-.106-.304-.135-.244.012-.149.007-.067-.149-.086-.045-.172-.09-.05-.026-.009-.005-.129-.067h-.148l-.11.001-.032.018-.085.047-.107-.072-.016-.09-.062-.019-.136-.043-.085-.035-.165-.068-.251-.104-.219-.016-.143-.099-.068-.002-.058-.003-.207-.319-.049-.013-.121-.035-.143-.04h-.016l-.33.007-.51-.182-.295-.05-.027-.005-.193.065-.434-.143-.509-.014h-.006l-.163-.072-.253.15-.035-.01-.16-.05-.334.04-.21.09-.433.045-.53.188-.358.037-.128.071-.377-.064-.52.006-.26.003-.183.065-.25-.001-.126-.035-.72.083-.615-.018-1.2.08-.333.154-.128-.141-.977-.199-.195-.01-.237-.072-.173-.018-.521-.007-.238-.091-.299-.32zm-15.877-10.997l.044-.091.106-.057.12.164-.012.115-.11.002-.139-.057zm-5.836-5.278l.051-.016.043-.054.072.017.02.13-.062.097-.108-.024-.003-.071zm-21.84-7.443l.817-.053 1.12-.13.31.094.536.014.01-.003.304-.085.333-.004.14-.001.327-.004.298.05.038.006.318.06.21-.053.212.113.173-.071.423.027.815-.158.105.058.093.052.413-.045.079-.111.147-.21.145-.083.088.11.122-.18.162-.142.068.005.064.005.005-.204-.127-.12.155-.113.156-.148.007-.007.226-.213.416-.24-.003-.17.271-.121.39-.422.163-.254.14-.016.06-.07.04-.045-.04-.098.086-.574.147-.145.078-.077.482-.474.318-.245.14-.288.218-.069.049-.172.165-.157.191-.122.07-.044.383-.24.202-.092.248-.013.162-.039.14-.18.219-.015.133.008.022.001.249-.24.125-.014.128.094.109-.078.364.03.177.206.057.136.185.064.381.453.006.006.082.168.259.398.145.228.213.14-.08.077-.054.053.027.226.136.164.266.092-.047.192-.028.11-.02.075.16.13.167.096.044.025.258-.037.04.079-.161.028-.07.254.004.343-.054.102-.079.151.049.144.01.03.295.265.029.202.017.12.187.273.299.15.108.16.086.224.051.133.248.271.112.11.044.315.073.073.105.103.189.12.14.113-.01.435v.037l-.069.17.157.176.175-.114.162-.072.025.006.381.1.229.164.169.25-.003.238.034.025.178.125.147.33.072.162.099.246-.064.484.03.388-.47.079-.153.061-.093-.026-.02.06-.077.246.146.268.099.113-.106.23.094.121.192.026.05.201-.012.09-.022.149-.09.25-.006.017.062.217.008.119.07.178.05.054.078.084.016-.006.16-.065.026-.202.161.219.233.131.114.142.26-.098.09.195.07.148.073.153.002.001.118.082.058.151.086.229-.004.028-.018.116-.015.1.192.144.217.098.065-.168H837.761l.14.176.044.141-.016.185-.002.024.082.122.103.166.017.002.154.015.014.001.092.01.252-.37.171-.368.09-.192.041-.089.022-.047.126-.185-.42-.243-.222-.04-.066-.15.067-.272.122-.079.126-.194.157.072.152-.256.105-.05-.012.043-.007.024.036.085.42.17.376.142.109-.018.107-.017.046-.066.425-.214.337.058-.018.166-.138.28-.163.16-.26.078-.02.145-.024.17-.005.33-.066.155-.086.202-.027-.01-.079-.032-.109.122.028.412.004.01.115.298.067.17.072.066.135.121.304.11.064.033.228.115.216.11.172.215.134.279.134.148v.008l-.014.205-.125.332-.022.424.102.354.147.263.169.303.09.161.123.211.033.057.133.12.11.099.134.059.123.054.217.096.34.28.182.15.012.01.027-.01.086-.029.088.094.06.062.03.15.277-.03.045-.005.097.017.013.002.025.004.01.002v.285l-.1.285-.165.039-.156.223-.482.268-.03.053-.031.055-.18.002-.148.219-.406.234-.167.328-.178-.199-.12.063-.004.215.198.148-.33.169-.34.05-.011-.001-.13-.012-.099-.112.03-.145.104-.2-.01-.14-.109-.085-.41-.323-.023-.018-.065-.051-.435-.032-.112.112-.164-.004-.245-.006-.5.166-.062.161-.128-.06-.036-.09-.222.024-.506.219-.063.075-.08.098-.066.078-.176.1-.277.155-.069.208h-.02l-.094-.004-.096-.08-.454.09-.016.004-.21-.045-.018-.004-.07-.005-.096-.006-.277-.225-.07-.214-.013-.315-.292-.26-.183-.063-.185-.165-.338-.03-.027-.003-.401-.255-.28-.177-.24-.153-.147-.093-.007-.03-.03-.12-.31-.152-.28.05-.125-.325-.077.002-.067.001h-.006l-.147.022-.281.027-.084-.002-.153-.004-.04.04-.058.056-1.834-.063-.094-.134.048-.18.06-.258-.038-.029-.005-.003-.036-.028-.131-.102-.398-.153-.199-.285-.2-.043-.025-.006-.004.072-.013.198-.363.326-.146-.002-.064.014-.333.071-.696.148-.722.154-.014.002-.27.045-.225.038-.538.052h-.001l-.27.122-.807.057-.521.057-.214.108-.087-.002-.766-.013-.243-.1-.194-.215-.252-.561-.077-.336-.02-.087-.002-.003-.013-.024-.003-.007-.027-.049-.046-.084-.004-.077-.006-.09-.005-.081-.002-.034-.003-.06-.005-.085-.075-.127-.033-.056-.027-.046-.058-.099-.062-.412-.018-.12.027-.172-.106-.326-.145-.3-.033-.069-.073-.05-.117-.083-.009-.156-.003-.063-.229-.168-.006-.011-.084-.153-.06-.107-.111-.11-.241-.235-.192-.187-.491-.147-.242-.249-.034-.035.065-.246.004-.018-.052-.637-.006-.28v-.002h-.001l-.133-.075-.242-.514-.093.01-.052.005.077-.158.005-.151-.112-.077-.24-.04-.071-.185-.05-.02-.105-.042-.034-.208-.084-.05-.004-.002-.137-.081-.258.007.051-.144-.208-.216-.09-.41-.002-.006-.06-.03-.158-.08-.26-.223.067-.613.046-1.047.036-.396-.02-.452-.076-.14-.122-.144-.716-.86-.256-.103-.686-.545-.125-.098-.306-.157zm-67.113-24.536l.08-.277.145-.57-.024-.22.089-.302-.02-.303.25-.21.338-.209.263-.295.683-.564.266-.215.071-.28.113-.09.046-.213.112-.175.024-.287.235-.332.054-.37.101-.271.124-.103.28-.38.195-.056.221-.178.344-.165.106.066.215-.221.358-.015.04-.002.601-.16.236-.035.24-.102.344-.099.263-.212.19-.12.238-.018.44-.367.156-.17.339-.191.267-.07.516-.236.044-.093.392-.21.443-.356.28-.228.17.005.153.005.063.007.121.013.154.14.331-.278.042.02.2.092.2-.007.154.114.067.051.053.175.03.101.006.02.113.09.303-.179.078.107.365.042.203.058-.03.145.117.159.205.225.013-.001.318-.016.232-.182.005-.024.05-.26-.01-.02-.009-.014-.03-.053-.095-.165.113-.144.04-.051.25-.073.047-.048.152-.157.103.011.04.005.175.02.049-.001.169-.001.15.081.066.103.154-.008.102.138.037-.01.155-.036.296-.083.229.068.207.079.254.019.17.013.137.17.116.121h.001l.117-.016.028-.158.042-.076.018-.033.02-.037.2.073.095-.007.117-.007.05-.004.323-.08.063-.2.12-.106.023-.02.061.047.103.08.03.022.097.21.212.016.045.123.309-.083-.023.16-.004.024-.001.012.045.182.3-.03.26.121.057.026.491.101.133-.04.203-.02.425.33.183.22.175.207.007.107-.1.112.07.12.152-.089.257.193.3.225.142.186.037.235-.072.256.173.282.083.125.157.236-.104.119-.005.021-.025.117-.008.034-.006.03-.017.078-.01.048-.004.015.013.013.14.142.055-.004.116-.01.058-.043.003-.003.06-.045.128.261.001.05v.034l.005.21.008.389-.013.104-.013.099-.02.148-.018.038-.163.336.085.207-.101.275-.21.241-.127.033-.054.336v.002l-.006.03-.008.05-.275.29-.142.267-.06.067-.074.08.004.22v.022l-.106.433-.06.098-.1.166-.32.188-.188.038-.133.222.01.06.002.017.022.133-.125.472-.096.403.02.365.087.313.07.307.044.192-.109.12-.016.174-.003.04.206-.078.048.12-.119.12-.093.206.001.317.08.234.049.337-.004.31-.248.23-.03.046-.06.096-.029.047-.297.475-.142.226-.33-.025-.053.239-.312-.007-.206.104-.069.158-.548.202-.26.413-.15-.007-.087.244.13.201-.024.013-.083.047-.327-.062-.32.203-.048.246-.26.162-.292.06-.015.034-.05.112-.044.139-.377.038-.109.058-.211.268-.13-.038-.04-.011-.125.082-.032.1-.175.115-.347-.218-.397-.19-.321-.15-.275-.155-.33-.018-.162-.12-.037-.028-.044-.033-.592.025-.06-.035-.12-.07-.15-.004-.148-.08-.339.044-.331.13-.212-.154-.212.002-.353-.088-.333.025-.407-.138-.387-.227-.214.051-.251-.182-.03-.003-.116-.01.006-.085-.188-.035-.09-.203-.016-.006-.184-.067-.142.079v.003l.02.244-.033.126-.27.107-.065-.056-.107-.091-.014-.115-.014-.113-.385-.127-.228-.224-.28-.133-.037-.036-.19-.18-.105-.155-.09-.152.013-.092.005-.037-.214-.2-.106-.176-.089-.148-.087-.075.004-.259-.128-.123-.35-.072-.205-.314-.045-.08-.081-.146-.249-.109-.68-.168-.129-.027-.42-.09-.258-.06-.208-.186-.13-.116-.082-.029-.68-.233-.164-.057-.603-.185-.405-.188-.267-.356-.334-.95-.285-.233-.246-.42zm-14.1-.154l.033-.116-.001-.048-.004-.108-.01-.059.015-.082.039-.07.038-.022.018.02-.005.027-.003.004-.025.043-.017.072.014.06.052.065.09.08.087.014.064-.008.065-.062.037-.073.01-.046-.007-.05.02-.015.078.045.044.054.019.047-.002.06-.012.06-.05.066-.07.077-.058.05-.06.048-.072.025-.07.031-.09-.004-.078-.008-.06-.042-.028-.002-.033-.042zm-7.02 8.741l.116-.123-.017-.375.05-.31.219-.19.372-.536.006-.3.04-.34.159-.162.036-.266.173-.226.34-.163.348-.291.38-.311.311-.4.21-.117.136-.143.088-.169.527-.118.127-.058.302-.138.053-.024.132-.26.373.01.797-.3.521-.357.185-.246.113-.326.247-.425.066-.475.157-.174-.047-.25.317-.207.179.127.344-.238.075-.21.217.14.017.24.441-.023.206-.043.093-.155.503.361.236.212.089.373-.036.26-.156.12-.21-.035-.175.036-.142.26-.133.159-.122.415-.255.179-.128.41-.239.864.128.626.167.487.076.238-.037.177-.053.093-.175.014-.184.094-.128.122-.215.046-.308.208-.096-.053-.39.275-.18-.127-.41.165-.18.01-.203.102-.51.077-.18-.04-.29.156-.407.177-.286.393-.121.3-.275.308-.057.232-.215.182-.444.664-.036.119-.173.189-.003.133-.12.19.058.153-.363.43-.08.274-.04.118.167.118-.125.091-.113.166-.186-.175-.314-.017-.124-.2-.15-.065-.1-.183-.312.025-.123-.103.043-.241-.17-.31-.21-.09-.03-.014-.065-.054.068-.094.036-.05-.054-.186-.02.006-.132.04-.036-.12.06-.491-.013-.17zm-14.131 7.371l.177.02.004.023.027.13-.07.218.085.146-.054.082-.131-.007h-.014l-.038-.103-.032-.086.046-.244-.04-.115zm-56.687-71.658l.302.112.266.014.028.123-.152.096-.312.065-.093-.143zm-181.725-52.1l.09-.032.078.241.002.262-.116.009-.022-.273zm-1.384-2.673h.126l.126.18-.037.102-.116-.03-.07-.104zm.092-3.734l.218.198.057.299-.154-.011-.095-.183-.098-.16zm-1.05-.485l.203.074-.09.121-.181-.11zm-1.837-.033l.215-.053.21-.044.028.132-.42.074-.044-.033zm-64.862-64.173l.082-.138.136-.04.07.134-.039.168-.12.033-.103-.03zM256.83 392.949l.109-.125.016-.135.13-.058.16-.013.111-.076.192.075.175.123-.049.239-.107.022-.186.453-.187.226-.173.009-.224-.04-.1-.213zm-87.933-35.35l.24.1.056.137.01.2-.067.332-.08.114-.21-.159-.037-.324-.054-.375zm-49.035-101.203l.26-.189.118.11-.093.124-.17.09-.083.02-.057-.042zm-.228.49l.112-.086.152.111-.135.102-.08.128-.137-.09zm-4.458 4.99l.18.038.163.12-.034.107-.188.004-.09-.097-.122-.069zm-1.839-.687l.271.053-.007.146-.282-.034zm-1.833.423l.367.186-.058.13-.356-.13-.037-.125zm-1.309-.034l.108.515-.245.026-.201-.487zm-85.063-55.422l.91.495.401.05.492-.351-.101.436-.239.075-.488.034-1.108-.539z"/></svg>