<svg height="1000" width="1000"><path class="americon" d="M187.985 638.837l2.951-4.787-.712-7.146 5.975-5.71 2.563-4.48 5.227-12.646 3.615-10.045 4.846-3.817 8.068-3.769 4.39-7.053 2.47-3.978 3.367-7.779-2.087-6.834 1.916-6.987 5.754-6.006.094-.155 2.878-4.736 6.316-18.79.57-1.944 1.768-6.03 8.832-17.038 8.658-16.379 3.926-6.494-5.788-9.05-.449-7.121-5.162-6.15-6.764-.715-6.418-6.19-4.723-2.074-1.035-1.5-5.358-7.778-2.24-6.997-2.51-5.05-2.111-8.901-3.518-3.363 4.65-7.525 1.23-3.769-3.454-4.006.178-7.182-2.753-6.805-5.751-7.018 2.844-7.428-.006-2.094-.018-6.178.413-9.35 3.44-77.999.162-3.65.583-13.887.595-14.18 2.051-48.913 1.436-31.994.404-8.998.469-10.468 2.23-39.214 1.485-30.783 1.15-24.895.922-20.009 23.659.873 29.217 1.018 31.685.817-1.693 65.535-.071 2.74-.567 22.577-.32 12.357-.31 12.033-.45 16.507.884 2.044.653 1.51 6.021 10.097 5.062 7.41 4.841 3.83.74 7.167 9.76 8.722-1.228 5.53 3.666 4.222-2.53 6.2.258 5.792 7.247 6.898-5.286 3.154-1.667 5.205 11.713 6.963 4.078 7.096 5.435 3.975 8.9 2.744 4.036 1.29 3.063 6.163 3.226 4.712 5.937 5.879 6.118 9.35 4.46 5.253 3.544 6.76 6.352 5.195 3.08 2.512-1.481 6.153 5.679 7.524 8.252 4.444 2.074 5.332 6.236-.173 2.028 1.122 4.586 2.533.476 7.31 2.772.744 4.029 1.078 8.626-.657 8.472-2.675 2.299 1.83 1.386 1.103-.931 9.249-1.822 9.322-4.723 1.283 1.73 11.618-3.468 3.317-.82 10.227-.875 4.951-.772 4.918.387 8.47-6.385.847-.603 5.693 5.705 3.768-1.857 8.968 3.658 5.612 3.645 3.609-.994 6.722 2.347 3.907-3.236 3.637-8.814 2.63-4.243 7.545 5.423 7.763.506 7.153-3.396 2.487-.215 5.897 1.364 2.908 1.645 3.503 4.684 2.042 8.361 6.881 8.452 1.588 2.538-7.728 6.163-1.086 9.677-7.962 6.351-6.803-.124-5.67 4.136-.653 2.215 2.405 4.717 5.113 3.567 2.714 5.192 2.825.524 10.638 4.137 5.658-.208 7.153 3.025 5.711-.174 8.076 8.335 12.094 7.447 14.237 6.17 3.736 5.736 5.384 1.514 7.046-.92 7.256-2.334 5.836 5.21 9.141 4.37.952 7.39 4.694 5.146-3.378 11.348 7.601 3.123 7.538 5.304 10.608-.93 7.102 5.485 7.848.186 6.351 5.633 7.319 6.897 4.739 5.23-3.559.47-.32-.768-4.744 8.772-8.01 2.625-.618 10.328 1.261 12.53 1.017 8.499 4.01 2.306-11.091 6.811-5.678 6.387 3.117 9.44 1.616 8.747-1.659 15.653-4.348 6.418 6.792 9.686-7.11 8.444-.04 5.263-.032 4.01-3.998 4.1-13.35 1.017-2.276 1.551-3.475 4.899-4.989.788.488 5.36 3.31 5.753 7.288 4.676 5.815 2.597 6.33 5.938 5.063 2.388 5.577 7.304 2.194.868 13.457 2.395 35.352 1.3 17.882.744 10.228 2.028 30.093 1.762 25.522 1.755 25.387 2.262 33.388.486 7.186.517 7.643 2.252 33.284 1.723 28.912 1.349 22.627 3.252 48.175-33.758 2.244-10.022.759-3.758.227h-.004l-25.063 1.449-37.017 2.099h-.002l-5.133.087-10.934.17-39.559 1.69-36.438 1.509-25.655.995-25.56.995L525.894 975l-23.144-.42-24.828.14-32.715.064-31.112-.83-14.375.082-28.498.051-32.253-.7-25.249-.446-47.8-1.404-30.288-1.071-40.505-2.018-.815-.044 2.333-52.518 2.698-59.258 1.307-29.99 3.489-78.367.638-11.542 1.081-19.597 4.094-7.672 1.023-1.92 2.107-11.859 2.485-6.242-3.59-7.804 8.167-8.833.203-.22-.522-3.458-6.043-2.26-.384-5.685-8.515-.592-5.762-5.766-4.924 2.32-4.352-4.226.536-1.075 2.137-4.288-2.198-4.403z"/></svg>