<svg height="1000" width="1000"><path class="americon" d="M186.966 940.615l1.8.082 2.748 2.49 3.036 1.206 2.777-.04 2.726.267 1.485.682 1.07-1.53-1.144-4.41-1.926-.41-6.642-1.507-.648-2.173 1.768-1.219 1.098.23 3.51-2.243.001-3.422.91-.387.718.066 1.41-.184.886-.51.683-1.183.148-2.543-1.631-4.628-.128-4.722 3.095-3.22-1.863-1.414-2.555.896-2.03-1.873 1.34-3.095 6.477.106 2.422-.904 4.186-2.658 1.218-2.67.907-2.39-.928-2.876-8.202 3.64-1.405-.36-.784-2.924.735-1.494 2.853-1.111 2.149.39 1.344-.17 1.11-.778.027-2.287.754-1.932.678-.758 1.305.05.882-.167 1.93 1.578 2.058-3.037 1.404-.47.476-1.124-.333-1.387-1.165-1.092.06-1.94-.59-1.913-4.153-3.071-2.998-3.345-1.507-2.977.004-4.422-.051-.438-.301-2.589-.229-1.94.194-1.623.112-.31.082-.227.982.342 2.163 3.228-.14.598.282.848.673.257.983-.141.445-.707-.125-1.18.56-1.598 1.937-.828.794-1.18-1.268-.96-.499-2.463 1.863-1.084 1.033-3.219 2.385-1.433 1.611-.124 1.328.92-.143 1.538-1.108 1.655-.775 1.533.276 1.416.89.496.819-.084 2.111-2.571 1.926-1.35.621-1.856.834-2.55 1.146-1.536 1.178-.463 1.076.624.473 1.088-1.204 3.682.536 2.361 1.562 1.226 1.658-.265.962-.803 1.64-3.15.39-1.444-.14-1.906-.023-4.253 2.04-5.267 3.257-3.828 4.981-1.722 6.811-9.023.2-1.321.765-5.064 1.998-1.716.13-.867-1.015-1.586-1.366-1.49-.013-2.112.803-1.737 1.674-.836 3.16-.198 3.984-1.864 2.856-2.435 2.793-1.012 1.273-.99.578-1.129.101-1.316-.35-.93-.814-4.811 1.979-3.6-.085-2.875 2.713-4.833 1.587-.313.555-.25.497-.691-.03-.716-.553-2.057 1.013-3.21.544-4.949 5.127-6.595 9.096-2.246 2.72-1.484 2.253-3.116.647-4.588 3.93-6.261-.38-3.627.56-4.987-5.557-9.629 1.105-2.007-.669-5.353-1.562-.924-2.983-1.765-.515-.92 1.19-2.92.72-4.662 3.14-2.954 1.73-3.686 1.405-7.461-3.135-4.272-9.01-4.252-.077-3.078 1.855-4.228-.912-3.535.584-5.556-4.3-5.46-2.243-.726-.911-.77-.556-1.062-.08-1.499-.323-1.055-1.154-.328-.914-.62-.334-.607-.094-.9.022-.898.142-1.053-1.968-2.41-.432-3.926.67-3.008.489-2.193 3.692-1.842 6.102-5.372 2.223-3.133.499-1.732-.773-3.503-.751-2.56-1.822-.97-1.894-2.918-.262-.404-.715-5.07 2.396-3.33-.057-.741-.378-3.221 2.21-4.954 2.025-1.51 4.425.067 1.988-2.925 2.259 1.251.53-21.21.005-.257.038-2.805.068-4 .014-.753.034-1.847v-.002l.085-3.48.008-.912.118-7.502.106-4.514.084-4.333.197-10.328.177-9.257-.015.005.053-4.475.557-27.847.08-3.452.04-1.829.022-1.672.369-17.149v-.03l.551-20.915.018-.935.034-.637.078-2.322.093-2.45.02-.538.057-2.723v-.022l.781-28.837.024-2.676.078-.89v-.023l.172-5.198.17-5.168.46-13.808-.008-.151 1.701-50.101.118-3.192.013-.289.004-.066.096-3.332.002-.08.233-10.301.012-.07 1.086-47.625v-.016l.676-27.714.074-5.98.031-.216-.013-3.207.082-.323.073-3.852.475-23.204v-.002l-.006-.054.043-3.36.47-22.762.097-4.278.05-2.251.025-1.115.024-1.292.014-.15.036-.889.011-.525.652-31.036v-.03l.364-13.544.316-5.878.329-17.09.077-3.873.001-.039.436-13.95.135-6.92.092-.96.305-13.883.034-2.321.03-.586.258-13.289.04-2.578.186-1.332.62-.361.898 1.356.696 1.82.971 1.193 5.962 4.511.476.105.693-1.027 2.566-1.667 4.376-1.284 1.577.475.845 1 1.774 1.532-3.689 4.167-3.14 1.151 1.554 1.978 1.106.773 5.037 1.414 5.064 1.904 7.174 1.66 6.43.304 1.602.615 2.965-.089 6.832-.78.348-.04 5.806-1.148 4.764-1.71.002-1.903 6.14-1.06.95 1.093 9.563-3.647 6.72-2.914 16.386-7.995.369-.324 4.172-3.678 5.92-2.514 8.897-5.135.21.002 3.354.032.498.004.152.002.017-.003 9.175.147.275-.001 18.374.215h.031l.2-.007 20.237.158.857.006 3.066-.012 41.287-.079 6.884.04h.005l1.482-.001 15.68-.165.418.006.07-.004 10.918-.025 3.765-.012 8.689.092 2.852.008h.014l15.04.007 2.417.002.517-.01 14.097-.039h.005l2.847-.047 4.294-.026.083-.001 4.448-.042 11.32-.122 1.574-.018.534-.01 2.616-.04 1.35.001.416.006 2.497-.063.134.025 15.6-.3.402.032 14.585-.287.86-.018 8.458-.17 5.06-.09 3.415-.075 2.183-.037 1.744-.057 1.708-.013 1.082-.004h.013l3.213-.012.133-.035.128-.023 6.88-.088 6.3-.095h.025l4.264-.056 8.582-.201 1.02-.011 13.594-.357.284.037 11.359-.155.218-.043 1.745-.046.123.024 4.955-.177 18.738-.535h.012l1.092-.045 2.268-.096.061 4.006.044 1.29.03 1.1.08 2.895.085 3.06.058 2.67.11 5.046.353 9.89.001.22.093 4.305.698 19.415v.032l.215 6.974.091 2.849.419 12.365.051 2.208v.02l.079 3.379.015.774-.015.016.285 9.472.657 22.72.001.045.001.033.13 4.32v.008l.489 18.497-.018.162.085 2.012.084 5.68.215 4.494.174 7.56.63 23.534v.043l.48 15.707.002.045.893 28.723.152 8.284.193 5.481.115 3.337v.004l.048 2.255.116 3.808.063 2.616.008.492.079 3.437.095 3.42.106 3.65.43 17.173v.001l.236 10.447.152 6.208-.003 8.622v.673l.214 12.079.436 13.905v.02l.304 10.104v.005l.015 1.801.216 18.701.061 6.09.006 1.346-.001.018v2.878l.043 12.135.01.477.05 4.704.177 13.847.027 3.497.03 6.927.01 2.318.246 16.168.005 1.327.02 1.153.107 6.026-.012.18.064 4.253.047 4.689v.592l.025 1.81-.005.027.086 3.876.002.512.006 2.48.028.669.057 2.772.086 3.072.006.305.38 14.039v.015l.216 10.993.054 2.682.138 3.183.099 6.43.296 14.43.026.156.018.106.006.239.077 4.343.127 6.228.032 2.603v.023l.175 8.022.223 20.452.166 19.68.009 1.028.179 8.027.059 2.329.026 2.593.03.768.02.83.044 4.096.503 16.66.02 2.043.242 10.443-1.123.343-.907.563-1.505 1.628-1.827 1.732-2.004 2.479-5.172 2.951-.907.96-.62 1.236.066 1.19.555.666 1.024 2.074 1.196 1.598.914.747 1.5 1.226 2.546 3.299 1.282 1.953.183.553.46.856 1.392 1.408.525.762.72 1.55.574 1.574.177 1.318-.466 1.915-.452.851-5.374 5.676-1.09 1.387-1.254 2.162-.256 1.025.101.648.36 1.045 1.246 1.891.096.146.446.29 1.32.322 5.66-.05 2.14.373 1.184.05 2.36.912 2.309 1.702.334.353.23.421.156 1.226-.19 1.404-.435 1.254-.48.914-.49.682-.164.165-1.573 1.579-2.556 1.822-1.132 1.045-.745 1.05-.435 1.038.047 1.255.564 1.613 2.066 3.145.513 1.215.476 1.776.003.865-.19.746-.32.393-1.254.364-1.374.013-1.31-.226-2.317-.858-1.695-.465-5.834-.917-1.12.256-1.469.782-2.463 1.628-3.284 1.659-1.505.491-1.23.115-2.805-.597-3.039-.228-2.108.265-1.102.417-.74.507-2.17 1.974-2.188 1.175-3.215 1.724-1.294 1.066-2.274 1.47-2.169.86-.821.516-1.069.998-3.477 2.152-.434.365-.668.902.018.202-2.663 2.355-2.15 2.175-1.04.793-1.517.93-1.73.8-3.052 1.064-.862-.06-1.904.23-.608-.071-2.093-.672-.551-.177-1.661-.87-1.502-1.297-.947-1.065-2.442-4.051-.724-.886-.788-1.33-2.34-1.382-1.659-.486-1.47-.28-2.588-.25-3.15.238-4.622 1.27-.419.156-1.472.552-2.02.576-2.256.317-1.587.002-5.308-1.214-1.963-.233-1.067.21-1.005.362-2.24 1.328-.682.744-.821 1.589-1.213 1.577-.596.975-.674 3.304-.167 1.57.108.977.198.714 2.047 2.858 1.18 2.572.226 2.505-.262 3.982.1 5.289.16 1.197.23.883.252.822 1.527 2.858 1.63 3.05.802 2.395.134 1.959-.028 2.186-.303 1.349-1.05 2.228-.5.694-1.326 1.146-.04.036-1.606.92-3.14 1.443-.751.445-.779.57-1.028.98-.395.537-.605 1.395-.326.917-.313 1.49-.302.648-1.57 2.673-1.383 1.577-3.387 1.707-1.92.765-1.763.556-3.156.573-4.142.195-2.351.704-3.01 2.063-.709.683-2.387 3.933.04.339-.232 1.114-1.533 3.583-.543 1.608-.922 3.708-.001.012-.08.842.127 2.577-.132 1.129-1.353 4.486-1.365 3.83-1.164 1.875-1.642 2.161-1.173 2.234-1.603 1.429-10.393 6.41-1.154.54-1.158-.157-1.925-1.117-1.055-1.221.148-.484-.04-.193-1.415-1.363-1.445-.542-2.01-.006h-.002l-.47.173-.376.293-1.228.42-2.573.506-1.436.591-1.054.926-1.025 2.11-.586 2.588.031 1.497-.3 2.755-1.083 2.304-1.12 1.72-3.23 2.734-2.205 2.094-2.728 3.62-.544 1.019-.352.95-1.719 4.647-.099 5.1.866 7.007.132 2.61-.282 3.413-1.311 3.105-.462 1.672-.248 1.12-.253 1.849-.205 3.18-.33 2.166-.19.837-.201.449-.367.82-.91 1.25-.834.946-.92.847-.677.389-.947.543-.653.375-1.301.247-3.38.275-3.916.865-.455.074-1.936.312-2.197.595-1.685.85-.562.617-.48 1.281-.046.869.373 2.624-.18 1.396-.313.708-.412.572-.794.326-.545-.056-.622-.267-1.046-1.013-1.5-1.871-.601-1.037-1.306-2.8-.63-1.485.177-.51-.27-.362-.89-.94-1.432-1.031-1.575-.915-2.366-1.078-1.918-.445-1.786-.172-2.573.137-5.002 1.365-.93-.008-1.296-.333-2.28-1.238-2.96-1.312-2.658-1.46-.982-1.295-1.438-1.457-3.225-1.576-2.154-1.667-1.07-1.065-.08-.128-1.196-2.368-.979-5.287.013-2.227 1.413-7.642-.11-1.877-3.037-4.877-3.113-2.375-2.466-1.218-2.445-1.994-.53-.432-2.832-3.006-2.4-.832-2.55 1.311-.276.602-.554 1.21.13 3.497 1.08 1.74 3.44 1.119 5.261 1.277.886 1.668-.416 2.027-.941 1.488-1.284.877-3.295.186-4.346-.531-.847.326-1.418 1.12-1.72 4.07-1.036.576-.65-.1-2.598-2.882-2.465-2.044-3.431-.276-1.395.646-.748.81-.423.457-.542 1.169-.033 1.85.445 1.358.96 1.157 4.704 2.346.747 1.967-.52 2.773-1.043 1.629-2.666 2.396-3.759 1.021-1.618.15-1.977-.031-1.769-.027-2.232.307-1.056.435-.404.335-.465.703-.61 2.526.101 2.244-.057 1.383-.2 1.39-.042 2.12.164 4.009-.069 3.294.25 1.468.627 1.875.366.64 1.138 1.18.607 1.082.442 1.468.075 1.386-.233.456-.61.654-1.577.952-1.731.851-1.125.385-1.255.027-1.487-.242-3.386-1.064-2.687-.252-1.19.202-.39.27-1.452 1.657-.45.803-.272 1.018-.055 1.341.349 4.04-.038 1.002-.213 1.372.362.796.028.319-.155.673-1.26 2.2-.872.69-1.162.611-2.027 1.343-1.634.819-.767.268-1.87.302-.86-.057-.529-.215h-.001l-.567-.4-.635-1.355-.152-1.756.25-1.406.559-1.6 1.872-4.025.774-2.12.142-.822-.013-1.009-.255-1.01-.297-.509-.571-.487-2.06-.606-2.32-.463-1.507-.036-.976.46-1.15 1.094-3.044 2.44-1.6 1.027-.446.227-.724.11-1.759-.425-.618-.55-3.078-3.976-2.646-4.775-2.802-5.84-1.5-3.965-.472-1.753-.817-2.168-3.02-2.005-.73-.376-.097-.05-.915-.134-.653.103-2.239 1.234-2.654.876-1.328.647-1.4 1.147-.716.767-.67.966-1.058 1.08-1.052.775-.7.755-1.382 2.03-1.998 2.343-.91.75-2.347 1.513-1.613.395-1.072-.008-2.158.314-3.853.232-.812-.125-1.878.613-.024.007-4.675 1.831-1.35.643-4.462 3.108-1.71 1.988-.56 1.087-.231.944.058.556.323.865.127.991.052 1.187-.168 1.028-1.071 2.664-.44 1.464-.82 4.445-.491 1.894-1.505 4.096-.484 1.064-.57.993-1.298 1.37-2.565 2-1.787.743-2.16.484-1.551-.105-1.584-.556-.396-.386-.653-1.369-.778-3.663-.818-2.174-2.148-3.964-1.011-1.347-.65-.565-.483-.264-1.138-.285-1.77.2-4.236-.656-1.938-.622-1.62-.733-6.488-4.522-1.445-1.364-1.077-1.426-.224-.296-.843-.763-5.276-3.853-.052-.029-3.3-1.802-2.231-.65-.459.002-.238.15-1.806-.906-1.444-1.23-.39-.523-.675-.567-.637-.125-.372-.333-1.627-1.892-.07-.13.133-.276-.074-.083-1.475-.89-3.966-1.443-.276-.258-3.034-.666-1.897-.051-1.595.116-2.096.384-.515.226-.139.086-2.776 1.732-4.05 3.176-.795.84-2.089 1.776-1.226.562-.77.056-1.645-1.537-2.129-.94-2.71-1.604-1.011-.69-1.509-1.422-1.209-1.672-.464-.81-.658-1.526-.39-1.796.211-1.884-.219-1.24-.589-.935-.6-.474-.904-.506-.74-.162-.594.034-.73.225-.91.535-.48.86-.288.914-.022.896.31.613-.569 2.239-.907 1.199-1.692 1.428-1.2 1.205-.678 1.614.073 1.277.381 1.297.534 1.32.555.94 2.206 2.022 1.227.774.908.828 1.028 1.285.498 4.473-.102 1.89-.556 1.04-2.993 4.286-1.143 1.143-.58.439-1.858.657-2.078.45-1.93.223-1.783-.078-2.164-.398-1.115-.433-.585-.647-.67-1.13-.261-1.049-.197-1.409.11-2.302 1.254-2.4.438-.586.843-.727.533-.629.415-.724.27-1.029.017-1-.365-1.933-.264-.557-.929-.923-.802-.61-.872-.347-.702-.073-.832.227-2.39 1.176-.046.022-1.886.77-1.403.286-1.086.095-1.833-.602-1.307-.108-4.25.794-1.702 1.08-.395.406-2.077 1.588-.536.277-.865.18-.822.085-2.454-.047-4.305-.441-.627-.214-.79-.615-.573-.636-.073-.26.014-1.04-.543-1.073-.164-.272-2.176-1.88-.27-.523-.77-2.223-.449-.788-1.292-1.477-.893-.761-1.13-.567-1.735-.46-1.07.07-1.304.596-3.36 4.023-1.066 1.466-.135.185-.86.848-.923 1.12-.315.423-.349.748-.179 1.045-.065 1.01.165 1.004.327 1.075.343.668 1.64 2.286 2.309 2.273.839 1.529.437 1.42.618 4.833-.188 1.264-.46 1.176-.836.574-1.564.688-1.626.504-.975.5-.474.58.02.824-.237.509-.538.418-1.224 3.034-.388.42-.417.263-.77.122-1.415-.402-1.897-2.153-.274-.685-.854-.84-1.498-.968-.533-.114-.755-.471-.357-.426-.752-.488-1.438-.645-1.985-.495-1.13.091-1.358.487-.226-1.069-1.117-1.471-1.691.175-2.599 1.505-2.185.184-2.656-2.492-1.363-3.337 1.426-1.337 1.834.306 2.598 1.614 2.339.348 1.474-.102 2.725-2.04-1.242-2.661-4.597-1.595-1.808-2.038-1.954-5.656-2.485-2.984-.539-.647-.499-1.914z"/></svg>