<svg height="1000" width="1000"><path class="americon" d="M54.695 255.161l16.12 1.012 1.495.09 7.535.521 1.06.041 2.92.198.338.027 21.228 1.266.151-.006 9.976.578 14.936.843.736.048.13.009 4.257.199 3.76.187 2.073.091.176.008 3.588.206.889.046 4.525.232 4.02.2 2.725.145 1.602.082 1.208.047 4.515.239 8.434.42 3.899.191 10.786.511 21.347.901.793.06 1.597.051.662.021.404.042 1.049.05 4.507.158 2.773.123 1.766.114 5.32.206.74.018 3.29.14 1.835.07 4.88.193 2.857.118 1.213.047.139.003.846.038 2.595.083.956.038 5.859.204 18.943.672.26-.003 1.683.065 2.205.092h.403l.391.01.256.016 1.239.031h.003l22.348.683.517.008 4.599.087.447.048 1.673.056 2.843.078 11.154.308 4.518.073.422-.014.944.063.882.054 1.223-.046 1.755.041 1.473.038 10.921.24h.011l.272.006.079.001 14.778.283.334.017.16.01.502.006 1.524.03 6.84.077 1.304.086 1.108.005 13.481.232.485-.003.44.029 3.465.023.436.025 4.067.052 2.248.03 1.039.017.232.01.937.013h.02l1.095.024 5.598.038 1.139.01 3.34.052 2.222.021 5.586.05.196-.008 3.178.057 2.375.017.068-.003 1.282.006.01.007 3.126.042 12.006.082 1.66.02 5.19.032.271.005 5.811.056h.01l1.901.018 2.071-.019.198-.019.139-.006 2.09.04.37-.005 1.901.031.16.005 1.41-.033 3.226.03 2.443-.003 2.168.007 1.752.038 2.081.005 2.41-.002 2.225.007 1.665.004 25.908-.029.694.003 2.18.024 6.763-.066 1.695.014.843.004 3.618-.016 5.07.012 2.827-.026.878-.013h2.23l.31.012 3.956-.03.509.008 4.543-.025 4.83-.026h.002l6.646-.063 2.251-.015 2.282.003 2.008-.034h.012l.248.005 5.057-.084.764.021.188-.005.174-.001 30.204-.377.47-.007.134.008 5.62-.12 2.228-.023 2.3-.052.91-.012h.239l5.579-.106h.011l2.179-.019.075-.008 12.575-.167.01.007 5.117-.1.253-.021 2.203-.047 4.705-.091.547-.062 10.553-.161 2.256-.056 2.588-.081 11.095-.283h.037l4.263-.102.264-.01.382-.007.149-.005 8.139-.207 21.931-.608 1.443-.001.653-.022 2.874-.102 1.195-.057 1.554-.03 2.26-.055 1.417-.074 6.837-.215.287-.02.458-.006h.009l19.024-.613.417-.016 7.395-.283h.005l1.833-.075.438-.016 7.869-.267.014.006.847-.037 2.538-.093.018-.006 4.304-.18 1.002-.053 3.55-.164 3.3-.134 1.603-.054 6.28-.246 9.04-.382 11.283-.501h.01l.413-.021 48.912-2.332 4.224-.225 3.775-.202.04.974.1.485.093.23.59.713 1.585.954 1.835.775.605.392 1.035 1.317.552.866.938.926 1.092.518.562.128.677-.015 1.298-.173.455.05.33.098 1.15.602.418.721.123.938-.108.901-.384 1.16-.043.479.038.399.067.197.491.633.322.192.68.278.515.086 1.21-.084.839-.355 1.448-.858.453-.066.774.16.447.25.29.338.183.604.036.4-.06.954.112.536.291.641.45.497.294.218.812.374 2.71.628 1.942.831.629.16.417.002 3.45-.617 1.24-.14.518-.146.659-.476.464-.526.253-.827.017-.334-.172-1.229.057-.465.088-.24.62-1.003.645-.442.558-.134.554-.003 1.27.333.382.1.399.03 1.097-.191 1.69-.675.481-.113.937.122.94.32 1.167.675.633.683.226.4.084.331.048.578-.108.62-.324.605-.824.934-.21.412-.167.533.023.698.38.709.272.32 1.459 1.237 1.155.741.853.217.818.04 1.251-.16.385.032.316.126.75.608.303.358.222.42.09.49.142 1.134.014 1.002-.458 1.526-.349.507-.72.453-.315.102-3.903.45-.472.259-.35.334-.267.51-.03.664.09.511.143.3.596.676.436.382 1.186.798.555.217.725-.056.834-.34.448-.333.025-.024.111-.1.018-.016.022-.02.009-.008 1.11-1.005.285-.186h.004l1.217-.347.181.005.312.168.243.236.28.422.328.638.247 1.458-.071.657-.246 1.04-.784 1.365-.62.682-.986.64-.895.353-.902.19-.397-.002-.911-.192-1.02-.41-1.466-.942-1.166-.902-.69-.397-.49-.161-.472-.03-.316.062-.552.445-.591.662-.548 1.122-.068.445.073.961.463 2.441.072 2.262-.075.617-.144.422-.555.824-.604.465-.305.141-1.12.268-.94.07-.912.166-.743.28-.349.24-.715.73-.338.494-1.067 2.032-.16.522-.615.862-.538 1.05-.394 1.205-.14.848.004.523.27.978.058.21.685 1.165.22.722.029.32-.056.7-.204.88-.601 1.149-.235.315-.303.243-.585.351-.57.174-.342.035-.552-.069-1.585-.577-.746.108-.397.168-.481.327-.36.418-.114.228-.546 2.34-.011.816.618 1.795.368.705.487.649 1.312 1.354 1.274 1.108.665.458 2.24 1.033.391.318.544.593.22.377.113.48.307 2.18.2.845.194.383.652.916.422.399.52.411.618.37 1.583.768 2.468.581.695.27 1.024.826.445.65.355 1.479.489.756.521.382.353.26 1.394.457.457.308.434.462.218.451.012.932.091.634.096.277.47.656.298.225.32.204.434.128 1.287.088.464-.136.396-.208.736-.441.902-.674.82-.17.383.015.356.117.503.383.547.894.245.633.063.637-.224.85-.433.573-.664.494-.707.184-.259.127-.4.347-.547.607-.232.404-.058.273-.035.664.549 3.847.444 1.816.32.874.433.93.644.902 1.065 1.15.574.461.538.312 1.337.436 1.313.55 1.357.758 1.087.886.835.915.547.971.301 1.266-.02.543-.162.685-.764 1.647.012.501.21.438.247.277 1.018.891.39.172 1.117.25 1.464-.002 1.481-.353.431.053.292.14.474.384.308.44.738 1.623.977 1.528 1.38.968 1.296.39.667.114 1.571-.07 1.142-.294 2.082-1.42 1.056-.847.83-.18 1.386.271.675.413.542 1.706-.15 1.656 1.459.455 1.312.072 1.923-.68.95-.598.846-.135.873.084.714.251.527.39.396 2.275-.269.728-.884 1.225-.58 1.032-.129.45.024.938.264 3.74.07 1.242.18 2.51.19 3.398.553 9.79.441 6.253.021.314.06.408-.008.084.55 8.343.152 2.296.012.173.013.131.06.954.064.976.082 1.227.256 3.087.122 2.6.554 10.812.01.274.022.41.821 16.198.126 1.633v.717l.11 1.768.31 4.593-.002.004.004.564.283 4.215.006.3.003.05.543 8.831.067 1.15.016.19.038.878v.005l.72 11.71.128 1.735.037.586.195 3.017.057.823.34 4.517.142 1.802.05.67.07.838.13 1.945.096 1.757.015.238.226 3.085.354 5.158.111 1.705.08 1.224.016.253.125 2.174.03.507.08 1.61.196 3.585.036 1.154.102 1.72.846 13.051.012.23.066.92v.005l.253 3.642.001.017.442 7.051.018.741.166 2.658.207 3.094.012.245.057.89.02.571.034.646.033.396.143 2.898.075 1.517.04.733.128 2.37.064 1.353.072.922.08 1.49.135 2.836.08 1.225.14 2.877.385 7.387.45 6.872.058 1.198.362 5.083.046.397.006.162.022.707.116 1.443v.003l.227 3.088v.015l.188 2.607.306 4.24-.006.156.42 5.983v.064l.077.712.093 1.544.037.609.31 4.084.081 1 .373 6.01.13 2.247.048.71.046.753.003.017.06.889.168 2.383.136 2.276.125 2.332.15 2.316.298 4.59.002.02.044.493.002.03.263 4.105.009.251.147 2.113.836 13.266.02.454.092 1.318.01.194.209 3.248-.006.07.197 2.963.057 1.213.073 1.022.171 2.325.335 4.448.027.413.16 2.65.107 1.47.09 1.164.028.48.002.029.077 1.128v.08l.134 1.734.21 2.92.163 2.6.334 5.039.113 1.617-.925.099-9.517.61-.264.016-1.401.095-3.117.224-.274.015-4.846.3-6.901.433-1.233.075-1.134.064-.434.028-18.161 1.015-1.575.098-.487.025-2.414.148-.962.06-1.489.076-3.067.193-10.439.604h-.023l-2.803.165-2.301.124-16.264.939-.703.037-.034.002-.369.017-9.76.547h-.014l-13.283.694-1.386.063-1.533.07-5.012.256-4.928.244-.486.017-1.076.053-.732.043-4.376.213-2.833.132-1.305.084-1.755.059-.576.042-.405.023-3.05.146-2.302.104-1.127.063-2.308.09-2.713.155-7.537.32-.901.034-.168.007-.242.01-4.225.183-2.295.115-1.134.046-3.488.18-4.673.237-17.962.721-.257-.015-.503.038-.328.01-.342.012-.21-.01-3.935.147-1.951.106-2.245.08-7.524.254-.347.013-14.74.545-2.705.113-10.859.447-3.237.097-23.021.646-.647.008-3.342.096-.599.025-1.095.072-5.406.125-.4.062-3.533.048-5.726.15-1.123.028-3.301.1-.183.01-1.739.037-.617.02-1.629.056-4.19.107-1.048.034-6.98.186-1.242.018-7.792.182-.464.007-2.05.048-.296.003-3.217.06-28.768.613-1.601.032-9.905.194h-.008l-1.347.016-6.97.105-2.382.042-.077-.005-2.31.04-5.38.08-3.917-.012-1.707.036-5.972.104-9.168.118-1.887-.014-.007.019-2.408.046h-.002l-29.665.3-.76.007-.698.008-8.534.076-4.543.016-3.86.04-3.922.014-1.444.032-2.333-.017-13.893.023h-1.009l-7.034-.088-1.188-.005-.248.003-15.938-.106h-.027l-21.725-.108-.507-.022-5.523-.075h-3.885l-.228.002-.479-.003-9.22-.084-1.352-.009-.073-.008-14.572-.175-.76-.01-3.717-.056-2.608.029-9.627-.154-.585-.008-15.195-.243-3.763-.061-12.532-.308-4.05.023-6.299-.101-3.601-.095-2.057-.033v-.01l-.29-.007-.183-.004-.574-.013-4.166-.072-2.17-.038-8.62-.21-2.978-.055-1.15-.122-14.925-.458-.071-.003-1.434-.05-11.44-.413-15.333-.422-.778-.033-.164-.006-.402-.015-10.72-.378-3.358-.121-9.193-.271-.618-.013-.176-.021-1.014-.025-44.784-1.362-.138-.024-4.947-.136-.01-.004-4.91-.135-.455-.004-5.404-.18-7.548-.213-2.86-.168-1.1-.018-5.198-.21-1.044-.044-5.294-.158-4.608-.202-1.612-.095-.042.027-5.232-.172h-.012l-6.516-.284-2.063-.118-5.238-.215-1.645-.071-.038-.002-18.515-.784-.183.003-18.531-.837-.24-.007-2.367-.115-4.564-.221-.146-.001-8.993-.436-4.313-.23-4.625-.24h-.003l-5.771-.288h-.154l-38.459-2.092-12.525-.727v-.003l-3.548-.207L25 730.3l.368-5.06.064-.97.018-.22.045-.353-.015-.11.74-11.424.078-.864.1-2.087h-.005l.191-2.67 1.22-18.585.449-6.296.104-1.89.429-6.877-.013-.034.303-3.534.14-2.259.204-3.3.259-3.958-.01-.02.354-5.516.382-5.823.274-4.65.076-.941.175-2.672.553-7.935.381-5.79.106-1.624.102-1.78.168-2.344.412-6.905.137-2.331.203-3.437.232-4.545.117-2.349.203-3.272.43-6.95.522-9.24.02-.312 1.113-18.62.744-10.685.082-1.903.214-2.651 1.096-17.127.113-1.961.058-1.003.001-.011.442-6.878.699-11.395.384-4.952-.021-.617.3-5.366.538-8.167.002-.021.205-2.879.191-3.158.158-2.356.231-3.608.334-5.291v-.013l.583-8.567.051-.84-.004-.044.122-1.812.015-.289.085-1.42.56-8.943.023-.186.138-2.29.127-2.108.178-2.52.135-2.192 2.236-36.743.772-12.983.028-.541.032-.609 1.541-26.062.654-11.06.277-4.683.124-2.29.052-.802.801-12.969.31-4.772.037-.35.27-4.576.054-.92.167-2.857.487-8.4.117-1.211.16-3.407L52.9 283.87l.137-2.235.097-1.586.039-.99z"/></svg>