<svg height="1000" width="1000"><path class="americon" d="M29.987 126.765l.777-22.393.622-17.913 1.026-29.566 40.975 1.299 1.73.052 14.647.424 36.289 1.155 5.469.163 20.342.584 24.858.605 7.395.17 37.452.859 3.153.066 44.217 1.272.213.005 39.877.907 50.005 1.01 27.591.225h.008l34.827.184 69.297.048 5.169.001h4.392l30.77-.057 17.685-.071 5.75 4.974 11.325 8.993.413 10.532-11.997 8.668-4.184 7.883.83 7.803 8.03 7.633 10.269 2.946-7.421 8.752 3.732 18.12 4.448 4.598 1.1 1.136.102.176 6.968 11.977-8.912 1.04 1.608 15.874 15.824 2.695-3.512 15.776 11.944 1.894-4.646 12.692-7.672 14.95-21.362 1.713 12.903 21.42.893 1.479-7.96 11.075-.23 5.787-6.592 7.95-10.95 3.12-.537 11.498-9.755 9.45-1.656 1.56-8.382 7.89-10.228-1.887-2.445 9.43 7.29 11.082.351.534-11.299 2.854-.145.036-2.555 19.137-12.515 5.258 1.218 7.096 3.745 8.941-9.586 2.653-5.03 7.812 1.343 12.888-3.999 10.584-.617 11.274 5.115 10.11-10.23 6.585-10.624-1.282-4.236 7.277 10.14 8.798-.173.37-5.643 12.017 5.077 9.855 6.452 9.089-12.612 9.739-1.615 1.245 77.062-.587 8.945-.116 21.652-.312 43.725-.757 12.513-.247 35.747-.827 3.661-.09 37.377-.997.23-.007 16.127-.498 67.527-2.335 11.489-.432 20.094-.783-.004.025-3.384 19.603-7.074 20.437-7.642 20.61 2.346 12.669.998 5.384 6.386 19.999 15.486 15.636 2.555 5.044 4.362 8.602 9.235 22.824 5.785 19.77 16.057 7.347-14.944 8.913-9.637 5.731-4.723 9.48-18.52 7.407-11.674 6.334-.029.447-.903 14.025 10.918 3.735 9.971 3.24 8.455 9.276 10.503 1.914 9.175-4.27 3.638-22.65 14.773-13.166 9.21-4.767 19.466-.426 7.12-7.425 12.827-10.095 9.317-3.579.369 18.744-4.976 15.702-2.278 15.067-.5 10.674L915 750.363l4.69 10.081-24.594-2.078-.096 19.571-11.51 7.108-6.611 4.3-.705.458-5.98-3.523-12.478 8.931 7.756 14.374-.528 11.003 7.712 12.834 9.829 5.868 19.802 2.37 13.094.265 10.929 10.834 10.983-2.162 13.376 13.784 4.025 13.053 17.534.136L975 888.122l-9.3 17.337-9.476 4.132-5.784 10.124 1.538 8.37-14.993-6.168-8.228-7.581-11.66 11.183-14.578 17.588-1.272-18.4 7.697-12.498-6.175-11.204-8.431-5.286-10.236-14.204-16.004-5.441-8.2-1.782-6.69-8.265-16.776-2.358-22.553-2.469-7.775 2.86-3.602 3.233-10.074 9.03-19.2 16.121-5.92 4.437-6.225 4.66-19.118 13.679-21.423 5.303-14.4 1.562-6.428.69-8.803-.384-31.753.95-18.565 4.294-12.441-.222-10.769-2.891-2.074-10.783-12.65-12.516-11.279-1.393-18.208-3.768-12.478-6.559-23.368-6.289-10.938-11.166 11.154-6.98 2.081-6.908-.168-.084-13.11-6.527-5.819-6.38 3.114-5.28-9.1-11.545-12.758 6.1-4.78-6.399-8.775-7.094-1.283-7.568-.91-6.272-11.204-8.047-8.364.16 3.756-15.14-8.331-10.22-13.41-.73-13.54 5.381-8.588 4.896-1.806 7.833-2.042 8.844 13.34 6.886 17.785 5.82-10.922 17.458-10.236 3.652-18.019-9.822-22.037-11.962-2.436-1.066-4.142-1.813-18.052.84-17.93 9.24-13.756 1.653-16.557-3.645-12.202-3.105-18.083-3.775-9.407-2.675-12.85-3.669-37.215-17.119-21.485-9.955-18.07-5.9-16.866-5.04-22.643-1.498-22.107 1.178-24.356.27-39.05 4.832-11.095 4.307-7.574 5.194-4.59-7.515-5.01-8.448-7.032-9.321 11.177-10.355 3.983-4.371 4.335-4.762 4.709-13.09 13.142-14.331 6.801-6.523.469-.45.661-12.812.142-13.432-1.487-11.303.555-4.086.936-6.889-9.692-12.214 3.274-14.6 1.316-1.108 6.947-5.856-.915-16.758-3.343-8.508 8.745-10.183.057-7.127 10.71-11.655 2.649-12.71 9.452-13.816 2.39-14.431.802-1.733 4.691-10.135-3.285-9.367 2.165-8.957 1.797-9.355-1.244-16.833 1.29-12.308-3.24.086-8.956.235-.343.009-1.675-16.75-11.157-9.368 1.812-16.033-5.12-11.718-9.337-9.016 4.58-7.543-11.256-5.38-8.324-13.018 3.579-7.755 2.993-16.84-8.482-22.942-4.298-8.53-5.403-10.74-12.209-7.596-9.126-11.82L25 277.491l.93-31.389.43-12.506 1.24-36.062.204-6.178 1.223-36.956z"/></svg>