<svg height="1000" width="1000"><path class="americon" d="M886.076 765.907l21.977-1.802 30.758-2.96 7.283-26.096 17.612 11.222 7.742 33.542-14.52 10.003-22.058-.349-30.939-1.932zm-150.48-12.076l20.352-4.769 18.53-27.432 22.042-15.14 13.703 10.238 15.537 9.691 8.733 1.86 4.738 23.346-34.69 2.396-31.19 2.906-19.929 14.396-13.834 19.13-3.662-23.511zM25 486.875l28.575-93.516 7.88-25.958 8.992-29.715 13.116-43.103 12.05-39.782 31.788 1.725 31.043 1.617 1.107.056 22.95 1.15 17.13.834 14.33.682 75.937 4.122 15.129.773 1.887.095 10.197.508 33.535 1.621 20.606.957 20.577.926 11.216.488 39.667 1.655 7.83.314 24.261.945 15.503.582 28.51.816 73.977 2.033 15.006.295 9.915-14.031.128-.004 2.522-.08 16.527-.528-1.312-18.773 9.351-8.871 8.566 1.158 13.653 1.834 3.907-8.816 4.41-9.96 16.713-3.73 9.165-5.648 17.184 4.799 12.278-.922 3.68 31.938 9 24.874 11.31 14.474 12.602 2.33 9.307-9.773 11.168 3.92 2.528 15.061-15.442 19.024-11.404 1.939-27.431 6.099-11.522 4.235 3.617 21.108-13.09 7.412-3.221 7.245-1.71 3.844-1.822 4.094-10.992.955-7.269.626.136 1.33 2.328 22.827-.254.538-1.835 3.886-3.76 7.958 1.296 2.935 6.979 15.79 4.882-5.111 8.023-8.409 9.548 1.636 8.11 11.378 4.027 1.18 12.457 3.639 1.914 1.844 13.666 13.151 12.45 27.474 1.65 2.343 11.074 15.711-1.29 12.73-8.826 14.557 4.637 15.91 14.532 6.792 6.446-3.452 10.113 11.633 5.983 20.555-3.766 15.415 1.26 1.442 11.57 13.21 14.101 7.16 31.538 5.223 13.863 4.884 14.756-8.132 24.88-6.383 25.553-10.966 5.314-7.72-1.102-15.62-17.054-11.069L933.402 540l-.89-6.849-2.494-19.2-17.864-4.642-10.528 2.634-14.851-15.148 14.623-7.033 13.185-4.145 23.948 9.321 15.336 22.821 4.292 18.846 1.685 7.39 11.656 40.882 3.434 41.809.01.112.056 24.672-8.201 25.857-8.086 1.952-4.2 1.012-1.058-27.096.731-18.53-12.86 2.812-27.346 5.97-29.317 12.499-13.979-4.179-20.875 9.155-11.818 5.495-7.997 12.1-22.235 4.141-25.048 11.007-3.96 2.26-17.295 9.848-14.744 14.581-17.92 7.67-24.307 6.312 3.366-16.34 34.093-15.897 21.331-16.716 7.354-5.777.45-15.577-5.58-3.992-12.396-8.884-.999-.717-10.029 14.494-4.682 6.756-8.37-1.461-1.139.293-13.767 3.54-.286.073-8.258 13.338-10.532 10.901-10.304 2.972-4.055 1.167-13.48-3.494-9.3 4.348-4.958-37.53.997-20.572-16.8-5.173-1.542-2.37-1.97-3.03-14.277-21.997-14.953-8.76-3.238-1.901-2.848-17.602-.086-21.893-11.251.152-.08-21.006-.072-11.704-.074-12.038-20.28.808-10.62.411-16.192.613-8.375.322-3.996.152-51.076 1.848-.368-5.52-22.344-.57-27.029-.734-30.367-.784-8.878-.24-16.688-.468-31.28-.929-21.238-.557-29.532-.825-5.01-.146-21.119.933-33.694-2.558-8.48 11.742-2.126.27-9.372 1.18-9.535-13.925-40.275-1.483-2.428-.145-11.796-.706-19.498-1.189-27.408-1.715-67.66-3.649-.575-1.492z"/></svg>