<svg height="1000" width="1000"><path class="americon" d="M760.689 725.062l8.454-3.208 6.073 8.746-.746 18.544-13.602-4.117zM27.377 348.16l2.916-51.247 3.71-51.673 17.682.744 72.855 2.789 24.027.937 25.81.952 17.796.624 72.078 2.423 7.909.24.05.001 51.193 1.393 4.856.12 64.562 1.598 62.923 1.334h.027l2.041.026 46.14.495 4.82.046 45.767.337 1.736.01 42.88-.159 14.996-.092 30.755-.072 31.638-.157 37.692-.308 1.303-.013h.043l20.513-.236 68.023-1.036 4.936-.09 6.19 94.216.003.042 1.752 22.104 1.091 13.73 2.262 28.396 6.897 86.065 4.323 53.53v.014l1.626 20.554.394 4.97 1.865 22.79 46.429.82 29.863-.36 33.722-.496 29.529-.925-6.875 35.333-3.678 3.636-8.023 25.445-6.729 25.26-3.314 9.52-10.059 19.36-83.282 11.106-9.688 12.241-11.693-5.476-13.383-.12-16.588 15.345-6.994.514-1.615-15.986 8.785-17.968-.393-5.918-1.254-11.304-16.077-6.201-1.401-17.399 16.98-4.075-2.55-5.182-2.934-5.968-7.685-1.232-4.519-.726-20.55-1.327 1.747 18.675 4.605 18.01 1.475 12.47-9.371-2.531-10.348-10.52 1.288-18.727-10.322-10.834-18.047-20.164-8.743-5.226 1.573-10.374-6.719-11.236-12.27-24.528 12.622-13.802-2.778-7.517 2.164-11.16 10.427-1.329 6.072.845 8.116.07-1.106-8.445-1.167-8.925-5.414.733-8.371-11.525-7.807.104-10.13 9.293-5.52-1.87 1.518-12.173-10.757-7.278 2.224-8.643 14.943-2.456 8.14-15.195 11.306 10.752 6.015-4.82-1.31-7.17-1.854-10.166.211-9.817-10.11.13-14.326 4.778-3.34 14.086-9.027 2.754 2.94-24.441 8.3-18.546 4.299-9.183 7.886 2.988 7.132 2.696-.543-20.027-2.846-7.724-6.89-7.132 7.368-18.626 6.642-15.554 7.046-7.995 3.722-10.243 10.311-10.078 10.338-4.367 4.329-1.831 7.145-5.653-1.286-10.557-5.357.198-4.924.18-17.936 13.054-16.34 14.562-15.247 14.294-6.058 7.791-5.174 6.646-9.643 4.762-6.29 7.173-8.127-.012-7.423.336-1.19 1.522-4.61 5.888 20.74 12.592 1.532 13.803.375 10.82 5.671 8.425-11.69 7.905-4.733 7.259 4.515 4.214-4.043 9.24-.978 1.359-3.556 4.938-5.592 9.292 5.82 3.401-7.904 14.275-6.795 8.475 6.93 8.775-.08 3.22-.344 13.477 3.856 13.268-1.259 21.15 5.428 15.528 9.09 11.127 12.55 14.565 1.432 7.793-2.791 11.469-.572 2.347 6.196 4.127-3.852 15.716 8.633 16.984 7.352 10.974-2.243 10.83 2.029 17.408-10.937-11.866-12.86-10.96-11.031 1.03-12.98-10.234-10.996-16.925-18.03-5.556-14.484-.22-14.326-4.727-4.582-1.674-8.092-2.962-12.543-11.767-11.534-9.999-5.577-20.66-3.159-6.544-12.83 5.697-10.386 3.822-19.102 8.146-10.432-15.342 3.15-28.296 13.704-17.1 11.82-3.685-.201-5.7-.422-10.706 10.113-8.612 1.36-1.16 5.658-.077 2.667-7.705.082-2.419.365-10.648.059-1.738 12.833-12.657 15.085-15.102-19.867-20.077-8.185-8.297-16.944 16.737-5.687-8.258-11.949-1.11-10.072-5.037.4-11.267v-.006l-13.237-7.027-4.116-1.126-6.313-1.732-21.914-4.175-3.875-8.133-8.183-4.305-.123-11.027 7.595-6.655 5.668-8.992-.039-.045-7.652-8.939-11.895-7.91-7.365-6.332-16.464-4.388-2.45-.296-8.856-1.076-5.447-8.846 1.49-13.263-11.942-20.502-2.563-6.901-2.576-6.942-.954-16.82-20.16-5.976-17.053 1.355-4.283-5.383-11.18-14.077-30.135 2.608-18.722 7.12-4.179.56-10.614 1.415-12.112 15.715-5.115 10.124-1.543-.112-25.793-1.904-13.453-4.334-10.873-3.516-6.216-14.959-6.477-8.083-17.672 22.442-20.108 19.622-3.408 10.653-16.304-9.72-6.808-.13-4.969-.098-16.717 18.902-21.2 19.55-4.724 4.345-15.244 7.978-15.638 12.962L25 386.035z"/></svg>