<svg height="1000" width="1000"><path class="americon" d="M760.247 727.23l.488-2.973.97-1.847 4.527-1.994 2.956.632 1.047 3.25 3.604.781 1.423 4.712-.381 4.54-2.705 3.883 1.335 3.967-1.074 1.915-5.917-.029h-.17l-1.696.054-.144.035-2.47-.066-.063.003-1.058.128-.779-8.328zm-10.618-30.452l1.048-1.693.323-2.733-.757-2.851.668-11.449 3.7-3.05 4.937-.125 5.886 7.084.07 1.635-2.357.817-.226 3.117.507 2.657.095.186 1.997 3.898 1.037.564 1.155-.116.16 2.636-1.852 1.458-.157 2.527 2.925 3.44.562 5.043-1.213 1.363-2.56.465-2.94-1.556-5.005-5.272 1.953-3.353 1.753-.606.53-.597-.85-1.618-1.089-.73-1.855-1.244-.92-.51-5.272 2.405-.132.529-1.067.622zm-66.99-177.807l3.798-4.875 2.134 2.651-.18 3.583 1.823 4.736-.158.497-3.861.802-1.98-3.627zM26.215 360.674l.792-13.12.36.018 2.708-48.425.106-.904.09-1.915.738.035 1.69-30.206.176-.184.099-.33.992-20.987 17.682.74 72.851 2.77 24.017.975h.007l25.801.918 17.805.601 31.006 1.167 6.195.113 1.827.16 16.028.39 4.741.247 12.259.347 7.927.218.05.002.425.019.202-.005.51.039 1.344-.025 12.962.373.015.007 5.43.173.581.01 7.54.189.326.036 21.855.563 4.856.119.427.006 41.82.922 22.312.652 5.323.136 2.224.068 1.786.086 10.422.185.478.026 28.895.605.291-.004 13.5.216h.026l2.042.026 45.401.476.736.007 4.82.039h.015l33.191.191.147-.026 2.333.066 10.078.093 1.736.015 11.415-.206 8.205.104 1.57.004 17.006-.057.589.028 4.057-.053h.036l14.994-.085.778-.001 29.954-.094h.021l10.973-.07 5.297-.025 15.366-.057.021-.027 4.856-.003 3.153-.049h.105l29.555-.239 1.303-.012h.043l20.497-.28 22.684-.35 3.058-.064 3.032.053 39.244-.687.388-.007 2.208-.03 2.355-.022.093 5.884.002.07.03 4.955.014.32.096 6.161.352 5.673.15 1.88 1.667 21.955 3.81 47.31.003.042 1.787 22.1 1.123 13.858v.006l1.381 18.703.42 3.55.465 5.901.005.065.438 6.244.097 1.478.523 5.56 4.972 61.928.062.314.426 5.604.018.302.309 3.721.074.866.006.075.16 2.107 4.112 51.427.001.014.211 2.523.1 1.331.107 1.386.027.422.504 6.25.152 1.915.532 6.724v.001l.393 4.97.41 5.715.585 7.044.09 1.13.786 8.898 6.051.223.594.028 7.013.097 7.015.147 1.082.102.817.016 1.234-.064 2.057.077 3.07.049h.156l5.511.049 2.39.03.308-.006 3.972.033.61.007 4.546.02 10.918.03.844-.003 3.02-.014 3.485-.017.264.006 4.871-.118 3.303-.054 3.148-.069h.02l17.49-.322 1.65-.018 14.568-.294 9.415-.318 15.575-.48.775-.028 2.779-.08.21-.006.773-.02-.917 10.1-1.255 7.053-2.122 9.522-2.571 8.657-.41.428-1.4-.142-1.867 3.35-2.712 10.405-5.303 15.04-3.137 10.129-3.586 15.132-3.31 9.52-4.607 9.62-5.447 9.742-34.105 4.742-6.533.829-1.558.196-41.077 5.36-.253 1.23-.43.363-.709.21-.357.32-.273.608-.93 1.44-.77.968-.6 1.73-.75.848.245 5.478-1.758.477-2.064-1.057-1.036-.371.989-1.543.402-1.371-1.907-1.457-3.137-.226-5.987-2.389-1.938.926-.115.587-1.137 1.146-2.178 1.075-2.706-1.435-1.945-.462-5.417-.44-9.925 9.618-.526 1.464-6.132 4.266-5.295 1.915-1.698-1.399-1.269-2.276.907-1.59.596-6.688-1.853-5.43 3.417-7.958 1.594-2.514-.093-4.514.455-1.709 3.407-1.275 1.533.552.13.665.45-.029 4.011-2.502 3.521-4.436-1.494-2.16-5.41-1.425-3.182 1.424-.24.442.285 1.551-2.75.395-.592-.384-1.445-4.06 3.53-7.253 4.57-3.44 1.097-.197 2.066-5.49-3.579-3.034-1.319.072-2.079 1.107-1.383 1.59-.572.149-6.942-1.768-7.936 4.814.15 3.949h-.396l-1.499-.842-.949-1.382-2.268-5.238 1.72-6.882.788-1.78.046-.699-1.044-1.494.081-.515 1.965-2.514 11.75-4.816.405.134.367.98 1.497.38 2.959-.758 3.814-2.725-1.163-4.4-2.93-3.245-1.26-1.396-.947-.284-1.909.049-1.091.854-.175.535.837 2.339-1.073.846-1.094-.136-.962-.974-1.89-3.99.016-1.495-.648-1.625-1.36-1.412 2.053-2.653 1.311-3.738-.437-3.272 2.145-3.156 2.21-5.555 2.336-.907 2.07-4.269-.168-1.26-.272-2.032-5.661 2.254-5.31 3.51-2.685 4.992-2.847 6.39.594 7.217-2.786 1.53-.73.827.124 3.072 1.266 1.115.932-.108.836.609-1.21 2.236-5.589 1.627.704-3.5-.822-2.13-2.626-3.151-.378-3.126-1.018-1.771-3.77-5.873-1.946-.773-.24-.522 1.881-.898 5.916-.88 2.597-1.424 1.08-1.155.465-2.3-.035-2.45-2.682-6.717-6.191-2.3-.996 1.191-1.031 2.678-.048.97.433 1.064-1.326 5.767-3.713 2.598-1.661.319-.85 1.087-.834 2.405-.12 1.521 4.332 4.412.69 2.164-2.398 7-1.135 1.554.058 2.129 1.869 3.056.843 3.831-5.684-2.806-2.539-3.119-1.22-3.785-5.4-.342-5.605 4.115-2.11 1.916-3.11-.605-3.44-2.263-3.759-5.02-1.496-3.125-2.312-3.798-3.934-5.347-2.75-3.874-5.994-1.35-1.75-4.431 3.32-5.942-4.408-3.359-2.661-5.1.349-2.775-.56-2.862-4.059-7.223-4.232-5.52-2.348-3.764-1.077-5.154 1.952-2.193 1.993.515 6.158-1.626 1.277-.08.402.547 3.842-.39.776-.78 2.776-4.876.594-3.636-.974-.56-1.025-.092-4.393 2.299-.878-.341-.644-1.006.761-1.586.318-1.924-.824-2.318-2.274-3.274-3.95-.689.671-.978 6.798-4.5 1.033-1.765-2.39-3.227 1.659-1.709 1.655.138 3.776-3.117 2.12-.658 1.215 4.014 4.064 1.968 2.008-1.124.095-.628 2.499-2.255 3.412-2.159 1.056-.13 1.053 5.238-.069 3.18 3.21 1.061 2.65-1.971 2.57 2.817 3.433 2.012 4.774-1.774 2.28 1.973 4.718 4.071 3.441 2.922 3.103-2.672-.583-1.496-1.247-3.2-3.961-5.05-7.07-6.039-6.477.41-2.7-3.249-4.21-.387-1.885-5.84-4.254-4.135-4.64.15-.773.584-2.716-3.04-5.658-8.482-.258-1.903.59-1.318-.381-3.006-3.53-.255-3.236 3.362-.257 3.081-.735.145-5.063-1.416-.148-.353.68-1.35-.747-.884-2.88-.89-.726.314-1.996 3.293-.465 3.856 1.317 3.91-.098 2.816-3.842 2.251-1.679-4.121 1.515-12.172-.207-5.942 1.392-5.8 2.318-1.775 2.901-4.86.213-4.548 1.695-3.552.658-.59 2.008.25 2.36-1.142-.169-1.12 1.372-4.495 1.578.041-.33 1.12 3.366 6.05.969.875 5.725 2.663 4.542-.615.99-2.033.48-2.174-1.457-3.855-.414-1.953-.687-3.242.484-5.585-1.094-2.699.209-9.816-2.208-2.45-3.908-1.381-3.868 1.095-.126 2.868.62 1.222-.346.796-1.434.585-1.251-.305-.537-1.26-.07-1.575-1.77-3.185-4.855 3.691-.73 2.791 1.21 2.308.148 2.078-3.24 1.172-2.068-3.536-1.317.048-2.56 1.45-.486 3.72.686 1.772.974 5.967-.633 1.129-1.399 1.249-2.105-.442-2.295 1.506-1.482 4.38-1.485-.912-.26-3.024 2.427-6.452-.275-9.26.78-8.729 1.656-4.98 6.573-11.704.068-1.863-.275-.709.671-3.869 1.79-3.38 2.11-1.225.192 2.213-.376 1.589 1.948 6 3.572 5.871 3.988-.357 6.33 1.616 2.232 1.916 3.536-.733 8.129-7.362.049-2.892-.87-2.25-2.325-3.658-1.306-4 1.87-3.468 1.316-1.108 2.148-.764 1.758-3.85 1.102-3.695-2.758-.292-5.512-.588-4.124 2.987-1.364 5.844-.487 6.397.922 4.484 1.702 2.815-1.793 1.257-4.862-2.293-2.359-2.84.353-2.992.805-1.581 1.23-4.271-.19-5.993-.387-2.348-4.265-11.567-1.712-2.67-3.762-.616.783-5.425 1.674-4.142 2.266-3.06 1.002-2.101 3.95-9.404 2.628-7.89 1.697-2.16 1.746-.033 3.643-4.288.87-1.773.785-1.902.174-2.126-.5-.996-1.478-.634-.141-.825.215-1.06 3.18-3.532 2.269-1.07 3.005.381 2.59-1.698-.807-1.067.409-1.83 3.911-2.746 1.2-3.12 12.863.288 3.597.84 2.125 1.485 4.342-1.594-.045-2.45-.042-2.353-7.006-.225-.931-.509-.24-1.684 1.235-2.142 3.888-1.824 2.021-1.688 1.95-4.352 3.115-1.405 1.2-2.576.019-.872-2.876-2.93-1.744.425-.87 1.924-1.464.294-.62-1.064 1.925-4.553 1.318-1.94.47-3.316 1.575-5.951 2.089-5.387 1.888-2.403-.1-3.144-.686-2.043-4.724-1.43-1.475.735-1.37 2.793-12.116 1.179-2.5 1.01-4.277 1.726-4.344 11.233.731 2.557 1.983 2.144 1.35.717 3.172-.515 2.4.741 2.412 6.227.003 1.229-4.234 3.068-.448-.436-4.003.777-3.062 2.24-1.053 1.762-5.135 4.418-2.629-.246-2.648 3.892-1.78 4.02-2.262.486-1.478 2.297-5.537 4.116-3.354-2.334-2.3-4.882 1.826-6.788 3.542-5.97-1.437-8.41-4.33 1.9.27 5.076-.858 5.265-2.998 2.443.085 3.95-3.527 5.772 4.007 3.14 2.234 4.717-4.096 4.411-1.15 6.386-3.157-.379 1.446-4.408-1.969-3.286.61-5.709-5.334-2.193 3.135-1.737.365-4.687-2.408-2.121-2.942.476-5.928-1.719-.144 1.165-.285 2.312 3.716 1.963-.296 4.233 1.682 4.493-2.567-.192-.673 3.27 4.65 4.383-1.55 2.734-5.915-1.803-3.326 3.656-.28 3.929-.681 2.295 6.038 4.094 2.723.968-1.294 2.324-4.545 3.015-5.097 1.75-4.694 3.293-1.593 3.88-3.643 2.849-4.484-2.859-3.53.238-1.868.805-2.024-.704-.559-1.252 1.037-2.696-1.532-3.53-1.992.994-1.783-3.454-1.833-.054-1.367-.04-2.002-3.222-2.916-1.312-2.63-1.183-1.295-.584-.033.015-1.883.875.009.018 1.693 3.41 4.1 4.233-1.097 2.402 1.953 2.09 4.484 1.017.012 1.722.034 4.482 1.801 3.48 3.715 2.318 1.597 2.223 3.596-.874 1.716.897.967 1.753 4 3.055 5.152 3.213-.802 1.378-.085 3.71 2.423 8.714-.249 1.989-3.347 5.908 7.258 5.338 1.578 2.905.81 3.102-5.967 6.17-5.72 1.738-.313 1.431-.872.858-4.192.535-.14 1.468.786 2.967 1.766 2.165 1.134.049 1.616 2-2.458 4.718.828 2.665-.29 1.983-2.12-.126-.027-1.074-1.35-.806-3.01.978-.82.267-.03 2.862.24 1.1.409.3.33 1.954-.275.717-6.138 5.996.55 3.296 1.646.755 2.719-1.314 1.45 2.83.006 1.129-1.904 5.848-2.384 4.5-3.128 1.722-.597.884.113 1.322-1.795 2.46-5.253 2.983.527 6.247 1.04 2.57 1.785 2.1 3.14-.213.58.376.116.726-.543 2.998-.695 3.833.054 5.876 1.711 8.932 1.973 4.57.938 3.753-1.06 7.046.307 9.513-.499 4.59.4 2.804 2.123 6.723 2.908 5.998 8.027 8.696-.039.923 1.105 1.506 3.188 2.467 4.554 5.155 2.778 5.147 2.034 1.792 1.093.461.47 1.592-.13 5.738-3.855 5.606-3.068 5.047-2.981-.434-4.096.978-3.57-2.148-.561 1.38-1.172 2.885 2.73 3.934 2.409 1.665 3.304.137 2.955-2.237 3.246-1.078 1.3-1.919 4.661 2.259 1.412 1.017.124.85-4.244 5.041-.997 3.117-.088 2.135 3.136 11.48 5.134 7.083 1.848 3.84 5.233 6.32 2.122 4.652-3.971 5.26.265 2.396 1.465 3.173.383 7.67 2.208 7.843-.557 1.894-1.09-2.377-1.28-1.331-1.884-1.028-2.477.16-1.866-1.75-2.342-5.536-4.526-6.438-2.85-1.112-1.7.035-.735.677-1.02-.432-2.03-3.687.172-1.88-2.257-3.526.947-2.138-.773-3.931-6.695 2.107 1.917 4.963-1.897 4.486.018 1.033.733 1.145.243 1.54-1.727.784-.647-.46-1.066-3.09-4.128-5.888-1.962-.968-1.308-.135-1.653.514-1.618 1.478-2.312-5.23-1.092-3.427-.446-2.852-1.237-3.191-2.915-3.115-5.31-4.337-9.126-3.145-2.476.165-6.429-2.57-9.333.334-5.15-.55-2.66 3.63-5.729-1.759-4.093-2.341-3.084-3.66-.06-.55 1.3-.043.157-.38.632-7.5-3.49-4.203-1.466-4.285-1.619-5.187-1.931-1.834 3.15-2.935-4.504-2.223-1.781-.88-1.683 4.07-1.322 3.324 2.42 1.94 1.053 2.916 1.542 3.873 1.37 3.079 1.207 4.2-.654 3.433-.948 1.969-1.072-.464-3.736-3.546-4.83-2.24-4.764-3.175-2.697-.876-.254-5.471-.313-.995-1.28-1.707-2.723-2.364-2.556-1.027-4.665-3.903-1.737-4.341-.982-8.846-2.216-3.969-.646-3.501-3.16-6.543-5.255.238-.77.44-6.804 5.022-2.377 2.738-1.026 1.987-3.36.341-.864-.827-2.757-.415-.974 2.707-1.965 2.485-10.88 7.156-4.486 1.56-2.035-.927-7.204-5.487-2.97-8.736.96-3.756.02-2.19-2.97-12.723 2.373-8.425 5.685-10.865 3.593-.894 8.16-12.49 3.052-1.68 4.53.383 4.236-2.39.97-1.488 3.05-1.923.96-2.044-5.183-.245-.42-1.714.07-.827-.85-1.55.776-6.615 2.282-3.294 3.485-3.011.691-.41.797-.078 1.557-1.314 1.182-.74 1.475-.926 1.443-.546.202.261 1.405.288 2.609-.082 1.663-1.205.694-1.154.202-1.653.104-3.693-.188-.994.035-1.433.181-7.33.173-3.317.065-1.255.13-.33.107-.146 8.112-8.19.3-.11 1.575-1.728 2.842-2.632 5.555-5.68.86-.768 6.344-6.34.193-.192 1.826-1.811.302-.313-5.49-5.648-14.37-14.39-.02-.02-1.216-1.278-1.17-1.188-.384-.414-4.405-4.367-1.003-1.06-2.854 2.856-8 7.822-1.98 2.08-.818.682-3.287 3.3-1.668-1.57-.907-2.043-1.226-2.181-1.887-2.462-.336-.22-.62-.233-3.036-.62-.342-.03-.237.19-.834-.033-2.371-.376-1.137.35-1.969.177-1.067-.311-.233-.277-1.216-.423-.472.272-2.135-.54-.737-.567-.72-1.397-.339-.403-.344-.019-.143.113-.55.873-3.184-2.667.336-1.758-.189-.386-.807-.558-.561-1.847.855-2.468 1.055-.925.504-1.453-.287-1.323-.504-.55-.004-.004-1.466-.865-2.281-.543-1.853-.617-3.896-3.45-1.679-.84-2.064-.708-.896-.064-1.973-1.202-.867-.362-1.153-.483-.06-.408-.318-.218-1.016-.346-2.142.214-2.004.014-1.673.234-1.61-.075-1.07-.427-1.191.212-2.877-.801-1.151.066-2.307-.56-1.652-.141-3.022-1.062-3.285-.551-1.142-.36-.688-.4-.246-.305-1.42-2.804-.613-1.694-.953-2.158-.89-1.475-.952-1.014-1.938-1.051-1.01-.264-3.31-1.32-.974-.654-.96-1.908-.427-2.614-.085-2.451.522-.603.824-3.45 1.058-2.686 1.261-2.068 1.177-.964 4.097-.939 1.582-.941.267-.361.515-1.212-.17-1.95.516-1.745.756-.933 2.199-1.85.21-.452.214-.46.066-.822-.09-.309-.437-.614-2.318-1.717-2.014-1.99-.804-1.234-.451-.407-2.068-.977-2.506-.468-2.364-1.294-.283-.35-.316-.167-2.532-.933-1.29-.728-.555-.554-.208-.75-.33-.519-1.09-1.208-.424-.935-1.616-1.912-.374-2.295.23-2.03-.287-.55-.71-.619-.73-.073-1.797.282-2.081.867-.959.168-1.303-.182-1.48-.517-2.135.232-4.257-1.453-.885-.14-2.262-.733-3.184-1.758-1.084-1.298-.945-.706-.271.027-.974.097-1.166 1.01-1.25.381-.949-.066-2.16-.839-1.735.223-.772-.198-1.665-.125-.736-.84-.857-.655-4.374-1.964-.795-.956-.306-.67.02-.759.146-.449.243-.309 1.913-1.1.963-1.017.468-1.836-.033-1.425-1.87-3.646-.106-.36.1-.675.255-.334.533-.221 1.901-.306.572-.21.381-.414.097-.525-.093-.829-.72-2.482-1.536-2.558-1.056-2.552-.072-.848-.33-.388-.844-.605-.965-.463-2.443.119-1.891-.75-.593-1.377.195-2.403.106-.311-.103-.503 1.255-3.449.271-.139.301-.414.005-.244-.146-.235-2.33-1.183-1.25-.963-.23-.33-.29-.901.104-.831.24-.472.262-.358 1.488-.856 1.438-.544 2.132-.53.554-.285.436-.28.332-.457.038-.376-.118-.365-.507-.573-.523-.367-.722-.126-1.53.091-.604.265-.45.392-4.529 1.658-2.719-1.053-.995-.117-1.352-.159-2.886-1.119-.405-.575-.093-.384.113-.342.543-.672 3.436-2.284.73-.663.48-1.957-.035-.502-.32-.901-.38-.358-1.323-.62-.725.112-.455.28-.321.52-.068 2.259-.28.67-1.88.804-2.002.256-.732-.207-.503-.73-.07-.653.106-1.281.243-.954.196-1.8-.016-.457-.183-.523-1.272-1.64-3.104-2.16-.507-1.106.074-.575.15-.31.393-.33 1.638-.805 1.21-.086 1.472.124 2.091-.25 2.883.132 1.243-.534.681-1.259.568-2.77.234-1.668.033-1.029-.382-2.758-.36-.508-.92-.89-1-.329-2.245-.005-.916-.227-2.275-.936-1.255-.888-2.184-.449-.406.336.006.326 1.03 1.447.163.523.007.92-.19.766-.25.326-.448.235-.72.148-5.856-1.616-.09-.036-1.35-.55-.551-.776-.544-1.725-.848-1.049-.966-.423-.94.079-.576.54.82 3.025.79 3.1-.606 2.004-1.517.605-2.058-1.81.218-2.477-.437-2.274-.938-.044-.877.328-.842.623-.828 1.082-.58.35-1.716.052-1.39-.242-2.294-.13-.923-.254-.676-.44-.279-.332-2.235-4.296-.302-.58-1.28-1.606-1.18-2.286-.59-.67-1.824-1.406-.466-.624-.399-.79-3.362-3.594-1.29-1.568-.603-.614-.982-.649-1.332-.043-.258-.131-1.49-1.811-.958-.604-1.27-.537-.838-.144-2.527-.898-1.835-.407-.52-.375-1.722-.619-2.246-.088-1.653-.892-1.929-.586-1.104-.125-1.296.202-1.789 1.28-.288.306-.945 1.902-.95 1.126-.401.322-.808.16-4.326-.147-.902.452-.342.403.01.658 1.868 2.2.045.414-.326.598-.563.555-2.218 1.232-1.876 1.953-1.583 1.236-1.777 2.586-.273 1.1-.04 1.296-.38.647-.37.115-.898-.25-2.503-.294-5.22-2.642-1.018-.41-3.941-1.491-.407-.13-3.763-1.2-.697-.044-.648.232-.274.425.143.685.65.6.378.743.03.514-.097.323-.41.389-.546.17-.869-.153-.773-.428-.357-.392-1.084-.45-1.554.257-.427.3-.226.849-.017.483.097.297.776 1.15 1.369 1.634.023.301-.212.451-.33.236-.73.104-1.134-.234-1.488-.92-1.033-1.113-3.547-1.476-1.596-.849-1.123-.177-.925.317-.664.725-.088.63.117.479.295.565 1.196 1.92 1.004 1.238 1.6 1.38 2.104 1.353 1.076.952.4.794.006.864-.467.606-.75.454-1.508.4-2.222-.755-.288-.171-.598-.675-1.087-.746-3.11-1.308-.592-.036-1.105.249-.714.316-.573.415-.2.58-.1 1.315.785 1.695.85.964 2.476 2.09 2.42 1.269.662.796.653 1.271.24.772-.144.42-.366.16-.625.108-.61-.095-.707-.793-.724.106-.214.588-.023.764-.092.635-.287.637-.422.138-.74-.699-.69-.607-.392-.012-.5.282-.108.337.054.384.02.425-.34.373-1.74.16-.437.326-.145.463.147 1.01-.002.907-.453 1.396-1.246 1.072-.539.172-.634-.057-1.35-.786-.706-.172-.35.021-.867.412-1.948-.365-.885.042-2.167-1.134-1.62-.665-1.372-.006-3.978.876-.75.057-.55-.205-.92-.067-1.876.51-.42-.139-.982-.708-1.284-1.225-1.702-.418-.735-.619-.297-.454-.185-.714-.153-.213-.362-.1-.438.104-.616.422-1.123-.275-.205-.22-1.592-.74-1.778-.584-1.17.05-.049.362-.45.191-5.325.483-.3-.112-1.37-.515-.972-.96-1.45-.106-1.4-1-1.466-.576-.413-.528-.076-.86-.163-.332-.368-.363-2.606-.804-.321-.268-.935-1.466-.301-.155-2.142-.462-.247-.998-1.116-2.168-.164-2.285-.147-.807-.956.049-.374.168-.695 1.33-.665.295-2.165-.39-.713-.426-1.485-1.513-.155-.527-.014-.6-.394-.948-.326-.423-.446-.243-.773-1.133.016-.2.28-.518 1.887-1.213 1.617-.293 1.891.078.443.392.007.557.447.247 1.726-1.036 1.155-1.118.058-.436-.496-1.708-1.376-.973-1.171-.362-1.756.838-1.405 1.065-1.34-.194-1.652-.683-.194-.264.018-.48 1.35-3.367.33-.398.64-.224.636-1.263.083-.572-.145-.662-2.005.695-3.377 1.904-1.062.235-1.317 2.634 1.085 3.674.09.96-.14 1.029-.437.541-.543-.111-.27-.442-1.58-.4-.665 2.035-.041.771-1.482 1.957-1.242-.008-.271.375-.19 3.14 1.309.334 1.002 1.388.301 1.006-.745 1.623-.99.258-1.034-.578-.793-.786-1.72-.596-2.74 1.918-.022 1.61-.215.593-3.778 5.161-.023.307-1.31 2.349-.45.356-.48-.006-1.444-.432-1.135.966-.938 1.831-2.991 4.102-1.747 2.715-.356.175-1.858-.385-1.406.171-1.11.628-.778.722-.083.373.202.76.482.458.05.321-.7 1.108-1.019 1.007-1.448.628-.682 5.83-.29.54-1.865.424-.403-.386-.524-.986-1.783-1.537-3.762-1.871-2.711-1.777-1.425-1.682-.717-.035-1.63.466-.458-.112-.722-.675-.346-.993.04-.55-.234-.955-1.9-1.997-.903.1-.416.254-.327.595-.312 1.905-.36.556-2.505-1.062-3.128.73-1.69-.35-.703-.262-.388.109-.334.185-.18.166-.052.321.152.504.408.812.12.826-2.019 3.806-.815.681-1.325.61-.518.757-.071.661-.102.619-.227.367-.331.33-.454.083-.519-.136-1.101.958-.11.791.06.924-.224.916-.521.424-.96.132-.858.237-.292.64-.202 1.02-.262.538-.352.191-.424-.018-.45-.019-.411-.292-.385-.908-.756-.307-.423-.018-.463.29-1.22 2.966.148 1.036-.39 1.047-.707.307-.86-.237-.51.15-.544 1.015-2.165.412-.8-.439-.47.03-.527.432-1.157 2.216-2.482 3.335-1.38.533-1.876-.22-1.463 1.3-3.496.401-.382.69-.197 4.62-.316.355-3.04 1.276-.64.457-2.14 1.528-.521 3.656-1.508 2.764-.532.14-2.025-.318-2.58-1.442-3.79 1.052-2.616 1.633-.314 1.03.386.727-.05.286-2.212 2.11-1.65.78-3.164.339-2.403 1.979-5.632 6.6-1.783.373-1.067 1.376.065 1.518-3.418 2.887-2.8 1.337-3.557 1.043-1.509.91-2.27-.724H25l.995-16.144-.064-.02-.229-.076.286-3.541-.17-.498z"/></svg>