<svg height="1000" width="1000"><path class="americon" d="M663.584 361.485l9.963 9.312 9.891 3.957 6.447 3.894-3.692 6.426-9.04-.288-10.527-10.75-6.425-7.446zm-108.507 23.164l5.011-.98 12.804-12.392 16.35 1.776-1.618 6.969-13.294 24.777-5.28 3.474-6.143-2.01-7.368-16.026zm-45.121 99.393l9.765-16.702 5.585 1.294 3.554 4.628-2.419 8.15-10.806 10.357-7.47-1.879zm-68.1 468.783l10.843-12.066 11.192-24.443 4.01-7.314 11.277-15.894 1.144-1.617 8.217-20.64.875-3.646 4.255-17.77 1.509-13.195.259-2.27 2.257-17.351-.014-.702-.34-17.098-1.07-15.433-2.822-14.034-1.985-5.171-4.343-11.348-9.4-21.205-4.09-13.798-1.453-5.936-1.547-6.33-5.088-11.543-1.034-7.502 3.389-7.83 7.098-10.515 1.153-6.969.512-3.099-1.537-11.323-1.445-7.743-.007-.013-3.89-7.494-1.247-5.303 6.048-5.875 3.006-2.926 4.168-7.772.385-.718 3.91-7.314 8.92-16.701 1.875-8.058.503-11.904 1.312-5.102 1.798-7.002-3.246-11.847.683-7.376 9.143-4.084 7.34-1.827 1.17-5.332 1.365-6.223.89-12.938 8.048.8 5.072-9.006 7.866 4.505 7.603-5.691 3.547-10.567 6.702-5.948 4.943-11.265 8.366-5.716 1.98 4.839-3.593 19.28 1.114 2.402 3.565 7.676 4.589-2.456 4.48-3.693 5.184-4.284 1.418-7.983-1.398-11.444.268-3.854.632-9.122 7.777-6.577 9.926-6.399 10.187-.396 4.175-.168 9.673-1.778 4.63-4.907-6.896-2.768-6.068-1.013-6.962-12.185-1.09-6.814 5.806-10.165 9.048-6.79-4.443-10.598 14.79 1.068 9.381-5.443 4.072 1.218 1.34.4 16.752 11.124 9.305 6.485 4.782-2.529 8.458.57 12.03 5.24 1.508.653 7.201 9.166 3.285 8.46 9.86.643 8.984.539 7.056 7.077 14.738 5.19 10.116 5.974 11.16-.853 10.923 11.389-1.864 6.855 2.207 2.814 7.404 9.414 5.723 16.13-7.667-1.832-6.169-3.938-4.262 2.944.898 7.347-.005 8.558 9.094 7.58 3.34.684.554 3.161 2.532 14.401 2.456 9.928-3.434 11.826.282 14.067.074 3.726-1.167 22.301-6.57 4.766-4.065 5.453-8.524.851-3.668 14.396-.286 1.12-1.228 14.488-9.907 3.291-1.203 6.978-9.908.81-8.45 3.824-3.141 7.717-.915 2.244-1.518 17-1.773 6.174 4.286 9.029 9.676-.442 9.408 7.096 3.441 3.074 1.752 1.563 15.634-19.335 1.753-2.178.602-1.692 2.548-7.172 4.465-13.545 2.492-5.132 13.004-3.149 1.978-5.256 13.158-3.394 9.11-3.677 2.114-4.389 9.854-3.968 14.505 6.054 9.264 10.498 8.855 16.646 2.935 13.221.976 7.168 2.16 15.841 6.924 22.959 3.32 28.75 2.262 8.19 2.661 9.615 8.293 13.815-.928 7.94-3.928 9.725 1.263 18.45-3.605 18.596-7.388 12.695-10.09 5.224-3.021-9.316-2.4 1.011-3.842 1.616-2.278.957-8.195 3.776-.006.16-.561 13.282-.003.051-5.172 14.868-2.755 1.281-4.177 1.94-11.525 6.77-.12.616-1.607 8.219-1.649 8.414.584 12.826-5.502 5.558-.917 2.865-2.154 6.72-5.512 7.578-6.157 2.333-1.46 6.748-5.896 4.237-4.79 6.77 2.319 10.024-3.259 1.323-14.6 1.086-19.68 1.407h-.013l-13.005.88-28.189 1.806-25.092 1.422-4.345.235-4.278.229L651.143 975l-.08-9.545-2.136.025-41.252.334-4.003.017-6.587.027-40.801.004-14.607-.067h-.003l-30.1-.398-18.147-.314h-.003l-30.596-.495-2.49-.055-12.853-.305-.142-.003-20.359-.6zM224.206 62.902l4.241-3.52 15.701-7.07 7.536-3.334 4.576-1.851 7.497-2.67 8.647-5.81 9.428-5.985 8.177-3.276L301.713 25l-.547 6.16-12.063 8.444-3.199 8.477-13.502 5.645-12.92 3.417-4.92 8.825-14.154 5.435-11.01 3.749-3.913-3.981-4.79-3.993zM94.037 243.306l9.367-5.107 8.987-1.59 19.265-4.589 13.211-9.187 3.661-3.339 5.485-5.013 11.138-2.87 7.515 1.313 7.102-.384 6.969-.865 8.169.27 18.859-8.482 8.965-9.625 11.149-1.567 6.79-.601 2.748-3.396.936-1.158 3.944-8.061 7.529-5.332 11.641-8.305 11.351-4.66 7.271-5.797 1.228-.98 8.49-10.554 13.174-6.555 6.64-3.39 12.821-2.224 14.979-.672 12.212 1.32 11.478 2.99 8.296 4.814-1.468 4.974-18.725-1.289-13.556-.318-.524 7.662-7.218 3.864-8.032 5.988-9.737 6.912-.67 1.32-4.241 8.348-10.108 7.847-4.989 10.539-5.696 8.589-1.703 2.563-2.767 10.21 10.395-2.518 12.88-7.48 10.035-4.762 7.272 7.209 1.998.255 13.94 1.763 11.776 5.22 8.514 5.347 8.597 8.73 1.799 8.978 6.446 10.66 11.519 10.054 1.082 10.426 18.772 2.04 5.804-1.042 13.771-2.498 6.946 8.828 9.058 2.597 6.085-4.05 5.616-10.7 6.626 3.197 6.694 6.754 9.79-9.004 26.888-14.098 4.903-2.628 14.01.07 12.772-1.71 2.305-.312 35.089 1.386 22-10.398 1.853-.336 6.322-1.15 20.322-1.426-6.119 13.965.201 17.307 5.764 11.015 11.79 2.19 16.8-4.107 6.989 4.324 11.303 2.176 3.044-3.799 4-4.995 12.523.947 9.609-6.924 7.51 3.016-.541 6.79-1.049 14.012 4.442 16.442-.97 2.208-.456 9.616 8.908 5.867 5.393 7.039 9.261 5.412 6.336-9.7 9.561.793 12.076 1.189 12.176 13.052-4.172 11.263-5.64.578-7.573-3.995-14.255 1.56-11.051-3.712-16.875-.32-3.43.499-13.945 2.002-12.041 3.691-10.48-6.385-8.606 4.445-6.522-.381-10.007 6.434 2.86 8.34-8.65-1.34-12.549-10.205-8.662-10.751-14.801-6.308-11.375-2.121-11.43-2.318-15.842.33-10.769 13.695-4.862 3.348-11.263-2.933-5.559 4.615-4.817 3.989-15.708-6.754-20.574 3.036-7.364 15.353-9.255 10.38-2.054 1.46-8.299 5.88-7.861 12.409-2.263 11.244-7.356-10.084.997-11.471 5.945-5.853-12.336-11.613-6.888 12.614-12.79 6.765-10.45-6.927-10.471 7.858-8.702 15.772-3.795 6.851-6.75 13.28-12.292 18.92-8.96 11.45-4.754 13.721-5.838-1.844-4.5-6.568-4.462-6.911 3.376-6.809 4.9-10.055 1.334-7.5-4.904-2.38-4.643 3.951-5.019-.015-6.377-.202.935-5.737 1.282-7.302 4.388-3.976.488-7.401 2.02-7.142 1.185-4.884-4.44-6.527 4.513-2.78-2.225-4.359-2.68-2.88-4.473-4.815-8.659-1.722-2.676-4.641-5.351 1.592-.833-.39-4.75-2.226-2.788-3.424 6.485-7.418-3.795-6.882-.146-.093-5.913-3.787-6.679-2.624-6.316.184-6.777-5-3.044 1.548-11.275-6.539-6.72.426-2.113 3.392-4.453-.073-1.915-3.595-.399-.157-5.523-2.18-7.193.371-11.523-7.981-5.563-3.87-9.537-6.657-52.896-18.95-27.98-10.297-18.365-6.853-2.67-12.217-4.552-11.78-6.687-3.3-4.071-5.295-5.658 2.294z"/></svg>