<svg height="1000" width="1000"><path class="americon" d="M92.101 83.015l.177-1.012.027-1.182.138-.477.347-.498.37-.35.061-.322-.09-.42.02-.192.273-.535 30.819 1.683 54.37 2.36 44.506 1.541 62.807 1.775 1.334.025 1.538.03 1.866.03.316.006 17.21.273.498-29.334.148-10.26.146-8.767.006-.325v-.114l.003-.133.088-5.372-.005-.04.02-1.69.036-1.808.011-.284V27.4l.029-2.199.006-.201.312.224.045.379.449.366.359.002 1.55 1.419 1.08.476.648.042.456.22.227.224 1.328.404 3.202 1.296.925.03 3.592-.48 2.64-1.932 1.496.2 1.729-.364.546.244 4.358 2.963.227.265 2.906 2.443 2.47 1.449 1.782.03 2.115.506-.846 1.906-.112 2.29 2.754 12.631-.053 2.6 2.301 11.497.098.673 2.347 3.328-.128 15.744 3.24.025 3.587 18.358-.007.087-.125 1.734-.868.539.226.83.005.054-.302 1.574.751 2.103-1.188.686-.516.62-.25 1.184.952 2.39-.115 1.491.162 1.649.344 1.787.002.003.302.343 1.57 1.051.591.51.729.927.86.697.683.944h-.114l.115.156.002.767.443.472 2.27.615.88.872.951.565.574.657.5.75.403.302 1.96.339 1.308-.102.705.249.37.392.739 1.482.554.252.883-.043 1.643.195.903.35 1.431.024 1.416.195.883.216 1.268.488.598-.071.827-.313.88-.957.638-.695.293-.538.26-.223.285-.123 1.031.068 1.824-.22.483.023.627.243 1.005.609 1.622.366 1.075.12 1.496-.174 2.087-.91 1.85.394.933.394.778.85 1.032.151.41.402.253.719.563.871.166.445.057.835-.418 2.272.008.398.427.746.032.053.35.332.257.123 1.131.174.974.443 1.027.022 1.562-.259 1.144.092 2.182.359 1.082.367 1.957.003 1.292.196 1.705.035 1.06-.269.906.344 1.523-.09.556-.271.583-.036.162.378.417.093.816-.147.97.091.794.376.64.022 2.359-.382.655.062 1.11.475 1.42.334 1.377.059.288.102.653.431 1.068.223 1.803.157 1.082-.155.12-.082.118-.263.295-.058 2.578.598 3.696.076.798.106.341.132.354.226.324.337.683 1.887.402.357.16.26.277.84.174 1.335.694 1.636.431.732.132.424.167 1.157-.007.302-.135 1.05-.225.933-.32.832-.017.247.108.564.015.5-.105.298-.554.746-.082.221-.048.282.067.415.327.558.32.27 1.122.66.432.344.317.367 1.029.075 1.355-.066.899-.056.704.112.372.036 1.161-.365 1.018-.114.889.096 1.524-.127.615.133.91.366.396.025 1.712-.29 1.882.067 1.178-.26.24-.163.172-.152.333-.526.276-.823.326-.383.36-.181.255.032.44.704.427.397.579.325.234.03.496-.134.22-.138.574-.614.4-.265.673-.023.765.34.25.02 1.702-.4 1.56.013.714-.2.863-.42 1.402-.264.338-.131 1.59-1.04 1.955-.337 1.459-.42.219-.163.472-.623.256-.755.149-1.039-.053-.85-.507-1.073-.481-2.094.076-.534.091-.181 2.7-.294.451-.286.597-.744.294-.246 1.189-.701.565-.455.342-.153.111-.003.062.278.5.576.416.088 1.169-.312 1.325-.012.36-.313.063-.201.497-.888.605.315.105.027.132-.122.09-.164.005-.37.397-1.467.091-.236.068-.034 9.648-2.738 4.964-.049 2.483 2.182.44.537.204.248 3.728-.33 5.639-.547 10.84.36 3.117-1.306.502.157.117 3.506 2.122.167 2.102 1.62 1.603.18 17.703 8.328 7.324-1.323 2.422.463.846 3.257.239.623.024.1-.1.507.033.119.13.086-.023.022-.58.757v.028l-.029.205.253.228.207.298-.345.402-.628.255-1.096-.042-.735-.252-.75.828-2.467-.093-1.453.474-.211 1.64-.783 1.847.078.432-.378 1.175 2.672 2.954 2.617.51.778.527 8.433-.916 4.005-1.22 2.34-.173.803.043 1.674 2.192.321.526.543.108.214.13.141.326-.026.196.62 1.02 2.051.658.064 2.072-1.986 4.73.824 3.135 1.834 3.482 1.383 2.162.397.901.64.737.322-.124.307.193 1.083 1.396 1.1 2.521 1.034 2.157.436.777.514 1.133.26.634-.097.406.11.334.081.063.265-.09-.041.285.016.348.14.37.462.394.075.378.003.41.064.183.573.92.403.534.734-.44.9-1.217.417-.186.837-.201.176-.334.27-.144.153.024.192.2.148-.002.716-.528.374-.057.73-.539 3.565-.726 1.137-.674-.47-1.334-1.811-1.328-.476-.94.134-.775-.218-.021-.074-.24-.672-1.642.626-2.858-1.302-1.538.147-1.044.959-.19.564-3.044 2.744-2 4.193.751.34.158.3.467 1.07-.118-.03-.204-.082-.143.4-.69.94.227.082.262.065.016 1.577-.58-.072-.538.15-.315 1.563-1.022 1.788-.448.214 1.505 5.417.02.926.082.556-.72 1.223-.264 1.165.013.761 1.613.314.14.075.333-.25.33.174 1.426.943.208.77 1.137 3.271.572-1.194 3.857.164 1.601.555 1.07.172 2.371 1.833.75 1.011 1.93.345.09.012.126-.02.1.094.17.116.009.48-.519.061-.271-.238-.155.065-.413.158-.105 1.128-.041.555.273.007.076.075.28.196.355.007.435-.566.296.01.507-.123.513.167.519.465-.019.225.043.664.322.35-.04.109-.23.339-.364.867-.296.865-.183.516-.36.87.07.069.063.107.097.236.004 1.083-.153 1.001 1.605 1.836 1.226.456 1.897 1.951-.343.665-.19.534-.05.26.068 1.696-.467.16.483.594.394 1.164.448.016.007.668.02.34.93.304.007.495-.662 1.745-.106.145-.152.225-.534.447-.058.313.593.532.35.437.04.317-.12-.08-.85.367.033 2.568.68.507.807-.08.767-.074.258-.895 1.195-.109.311-.154 1.229.148.214.588-.431.857-.187.445.287.106 1.755-.181.972-.127.158.58 1.136.204.088.25-.005.101.144.046.34-.117 1.565-.388 1.124-.405.324-.39.99-.02.186.061.157.906.142 1.11-.501.132-.207-.103-.267.987-.492-.067.702-.36.977.74.535.434.114.56-.202.423-.02.256.202.21-.305.027-.42.975-.468.115.06.069.153-.182.514 1.52 1.937 2.603-.921 2.786-.18 1.355-.76 1.743-.368.712.8-1.702 1.625-.391 4.327.333 1.416-.214 1.365.934.76 2.55-1.65 5.597-2.644 2.467.077 1.592-.408.41.204-.022.67 1.051 1.71-.065.342.144.109.848.057 1.634-.87 2.382-.694 1.168-1.372.876-.702.629.354 1.51-.832 1.086-.307.386.353.026.199.425.024.267-.091.131-.131.083-.132.319-.21 1.063-.19.308.06.976-.07 1.308-.217 1.472-.806 1.014-.093 1.677-.95 1.503-1.97.892-.647 1.218-.59 2.34-3.628.792.377.712-.61 1.99-2.45 1.865-1.49-.078-.293-.023-.068-.113-.268-.014-.247.076-.18 1.919-.84.204-.277.292-.65.61-.415 1.137-.5.577-.344.336-.696.6-.577.17.044.09.176.502-.019 1.05-.383.24-.65.65-.414 1.353-.335.818-.093.032-.005.084.075.326.056.018.003.765-.304.14-.39 1.03-.952.937-.395-.118-.382 2.72-2.843 5.373-1.994 1.061-.179.793-1.121 2.169-1.48.478.817.696.381.844-.116 2.018-1.125.402.112.51.614.198.751-.151 1.031.027.093.214.175.05.139.498 3.701.21 2.135-.108 1.869.426.482.648-.58.034-.653-.056-.368.475-.212.212.306.202.486.746-.063.698.246.52 2.29.474.584 1.118-.316.232-.499.216-.134.363.119.193.286-.077.837.028 1.268-.787.564-1.105 1.024-.096.425.296.199.155-.018.37-.059.242.097.093.135.006.084-.02.128-.218.487.319.329.395.105.733.395.089.253.02.039.219.517.007.05.137.159.421.121.224.987.747 1.57.012.294 1.137 1.091 1.031-.644 3.991-.49 1.762-.835 4.736-.798 1.468-1.426.691-.055.438-.125.995-.621 1.564-.359.07-.358.84-.698.245-.039.328.4.127.049.567-.134.45-.21.733.1.415.706-1.362 1.706.304.898.36.359.824.383 4.173-.83.68.272.268-.313.277-.084.998.067.047-.109.021-.056.153-.255.44.337.296-.032.38-.231.305-.298.243-.553.694-.147.32-.46.236.009.256.189 1.21.288.51.215.447.423.552.252 2.903-1.212.754-.065 1.086.68.354.021.418.265.113.37.123.189.261.206.843.296.156-.055.055-.39.476-.184 1.472-.177.754.09.256-.073.072-.104.052-.088.469-.132.092-.575.724-.472 1.34-.32.495-.277.717-.024.828.354.545.498.424-.01 1.506-.791 1.02-.083 1.19.08 2.066-.925.95-.243.897.194.53-.003 1.703-.465.684.018 1.223-.81 1.342.33 1.422-.195.565-.262.143-.17.807.018.38.03.463.494.385.088.133.08.156.232.687.154 2.601-.254 1.923.407 1.776.621.971.67.368.023 1.736.464.674.406.663 1.969.46.736.436-.151.078-.156.172.06 1.258 1.626.535 1.32-.137 1.187.004.998.272.721.203.356.475.399.172.015.211-.134.096.014.79.348.438.468.623.886.504-.066.982.42.37-.73 1.71-.094.19.379.076.434.227.339 1.072 1.233.732.742.454.218.695.104.149.083.383.432.315.16 1.172.111.616-.066.8.092.21-.102.277-.653 2.15-.583.137-.055.314-.777-.037-.627-.014-.09-.006-.071.042-.065.053-.024.325.082.528.387h.237l.141-.153.689-1.726.172-.64.067-.075 1.282-.446.193.494.119.03.752-.179.157-.071.075-.37.098-.089.245-.108.976-.023.34-.112.536-.577 1.04-.29 1.549-.187.556.134.153.341.052.018.357-.118.229-.17.61.2.027.151.751-.097.048-.03-.072-.16.098-.053.105.042.154.338-.05.078-.155.005-.123.18.067.443.282-.144.19-.322.217-.15.114.107.051.983.068.155.278-.148.532-.067.12.092.13.233.397.232.118.008 1.27-.837h.254l.065.13.112-.014.538-.119.294-.178.325-.071.21.073.039.12.263.273.25.12.239-.096.133-.445.662.049.166.372.314.44.24.136.21-.054.113-.214.238-.192.426.011.2.293.197.012.071-.057v-.135l-.074-.267-.14-.229.154-.195 1.251-.461.502.08.271-.056.164-.24.166-.514.235-.345.138-.052.116.164.152.658-.087.5.241.43.678.23.738.004.645.345.344.279.461.53.124.055 1.066-.432.608-.837 7.792-2.54-.135 1.499-.342.486-4.76 1.941-.987.97-.056 1.055-.138.951-1.73 1.367-1.674.312-.88-.697-1.78-1.391-1.427-.263-.728.56-.46 1.09-.255.905.141 1.282.241.865-.124.12-2.204.57-3.795 1.91-3.195 2.833-.735 1.19-2.1 1.964-3.496 2.79-6.2 3.288-1.878.123-5.386 2.377-.71.75.443 1.067-.627.7-4.097 2.925-4.088 1.787-3.047.85-3.04 1.27.019.54-.299.73-.729.006-.612.14-2.96 1.455-1.635.072-3.029.698-1.84 1.163-.847 1.388-4.409.643-2.057.704-4.875 2.555-1.081.468-.815.051-.98.538-.693.51-.208.736-5.662 1.259-.78.508-2.911.71-1.705.687-.39.86-1.703.922-8.221 3.511-1.377 2.14-3.501 1.766-6.472 4.369-3.998 2.281-5.111 3.419-13.52 11.664-3.977 4.097-.256.447.075.63-.443.6-.523.49-.918.18-1.15.789-8.57 8.462-.994 1.137-1.353.356-3.194 4.636-2.002 2.502-.914.388-2.252 2.085-.282.986-1.583 2.031-1.008.483-1.345 2.09-1.785 4.298-1.79 1.85-3.29 4.067-1.115 2.385-1.237 1.865-.374-.009-.494.404-1.828 1.894-3.833 4.537-2.79 4.372-.378.974-1.702 1.527-1.303 1.756-1.214.607-2.111 2.001-3.385 4.511-.486.99-2.106 2.275-2.212.611-.957.706-1.198 1.726-5.848 3.222-1.757 3.497-.99.894-.433.04-.864.705-1.416 1.554-1.053 1.582-.697 2.273-1.656 1.238-.642.833-4.1 1.653-3.375 3.76-4.162 5.186-.325.966-1.416 1.063-1.359 1.02-2.056 1.144-.961.054-.698.34-3.156 2.855-1.291.48-2.444 2.439-.88 1.229-4.049 2.879-3.402 2.946-1.34 1.81-1.66.877-4.835 4.03-.312.962-2.574 1.667-.837 1.08.732 2.255 2.807 4.421 4.496 5.38 1.187.654-.534.414-1.544-.724-6.383-6.22-2.058.1-.921.118-2.286 1.557-.563.811.03 1.045.251.457-.49 1.517-.26.139-.721-.1-1.36-.59-.753.465-.504.1-1.129-.084-.256.22-.167.81-.43.597-.451.292-.33.318-.101.246.081.673.753.324 1.704.078.595.524.164.251.069.626-.147.472-.399.531-.675.236-.527.375-.731 1.076-.487.55-.14.36.4.918.08.367-.066.26-.51.52-.573.344-.441.034-.802-.42-.553-.027-.766.497-.757.158-1.615-1.469-.332.27-.658 1.008-.506.068-.256-.329-.204-.733-.46-.176-.575-.01-.285-.232-.115-.398-.06-.722-.435-.113-.087.342.017.438v.012l.296 6.158.117 3.264.571 16.202.007 1.357.086 2.71.259 7.535.054 1.792.02.589.561 15.368.04.416.026.755-.003.142.044 1.072.017.45.02 1.022.01.46.248 8.246.125 3.142.236 7.186.093 2.137.062 1.537.284 7.026.154 5.736.029.641-.508.244-.907.127-1.391.557-.94.538-.211.164-.333.42-.253.54-.282 1.187-.028.331-.273.77-.23.402-.005.335.17 1.026-.112.979-.05.179-.224.332-.319.304-.07.284-.019.471.05.322-.192.217-.684.393-.467.067-1.194-.134-1.026-.422-1.247-.362-1.79-1.084-.272-.092-1.126.119-.868.44-.777.514-.716.844-.211.72.022.422-.561 1.139-.214.3-.134.436-.068.263.048.526-.336.444-.66.41-.213.463.053.422.089.145.265.2-.01.128-.344.524-.535.416-.378.152-.761-.142-.59-.285-.714.075-1.321-.674-1.928-.57-.287-.037-.56.174-.382.227-.787.69-.855 1.276-.307.182-.146.178-.059 1.173.112.599-.124.781-.081.098-1.046.14-.942.493-.577.026-.629.32-1.054.76-1.382.199-.647.458-.655.602-.95-.077-.55.423-.172.05-.806-.336-.28.085-.122.105-.014.173.217 1.047-.065.232-1.915.077-.378.256-1.183 1.12-.635.696-.066.187.137.556-.092.182-.813.419-1.66 1.263-.481.063-.494.218-.526.534-.934 1.308-1.381 2.585-.253.778.061.683-.302 1.882-.074.212-.605.8-.406.132-1.135.905-.247.247-.37.607-.048.477.099.385.373 1.114.222.391.255.684.036.751-.122.427-.307.448-.73.548-.398.462-.476.86-.319 1.218-.154 1.546-.327 1.448-1.538 1.754-.443.3-.142.341-.145.38-.493.552-.344.247-.407.12-1.046.904-.323.485-.19.102-.59.068-.57.467-.225.145-.652.085-.169.195-.003.52-.042.09-.277.117-1.037.176-.343.272-.384.506-.045.395.107.509-.277 1.99.21.401-.012.084-.572 1.273-.1 2.231-.189 1.578-.378 1.006-.149.751-.157 1.442-.146.308-.075.837.119.359.03.547-.125.82.024.555.178.84.446.966.065.57-.247.855-.148 1.03.019.618.38.81-.144 1.794.151.538.306.329 1.169.916 2.806.097.305.054 1.108.463 1.243.317 1.276-.066 1.195-.315 1.273-.696.496-.172 1.107-.128.294.031.368.2.658.525.9.965 1.31.69 2.275 1.87.162.4.022.304-.33 1.813.064 1.11.143.704.277.356.997.872.463.539 1.151 1.63.849 1.628.442 1.062.57.634.787 1.265.35.23 1.858.69.88.45.1.13.76 2.074v.603l-.23 1.36-.074 1.704.105.446.299.34.036.167-.14.95-.255.677.041.78-.908.427-.628.467-.596.702-.807 1.486-.186.646.074.42-.107.15-1.933 1.553-.686.845-.102.352-.027.435.573 1.814.084.495.01.487-.1.436-.52 1.187-.566.868-1.976 2.016-.531.84-.5.629-.947.78-.587.483-.894.355-.255.323-.088.33.01.339.172.99.316.644.639.838.133.592.014.692-.377.815-.41.554-.135.624.368 1.83.042 1.268.22.74.221.49.208.296.067.387-.236.969-.444.535-.46.404-.195.381-.301 1.6-.032.807.091.764.235.426 1.475 1.409-.006.35-.47 1.09-.078.761.032.824.12.584.914 2.217.501 2.434.006.008.328.503.273.231.134.313-.002.15-.096.362-.485.844-.202.211-.861.663-1.256 1.247-.937 1.103-1.974 1.606-1.027 1.69-.142.317-.077.354.001.723.135.576.605 1.09.454.553.636.58 1.068.654 1.001.873.688.803.314.717.027.302-.063.315-.59 1.885-.324 1.274.08 1.182.234.963-.127.799.026.712.131 1.11.115.374.162.283.767.485.749 1.484.507 2.306.038.697-.675 4.284-.122.37-.093.185-.202.162-1.335.944-.1.213-.055.329-.014.865.124.454.536 1.134.667 1.136.093.282-.025.334-.368.888-.21.758.001.023v.005l.097 1.245.445 2.163.018.635-.085.366-.364.528-.318.624-.038.28.104.533-.081.271-.86 1.47-.108.524-.118 1.85-.233.96-.393.75-.816.962-.475.78-.536 1.491-.197 1.553-.039 1.22.083.178.39.305.143.256.039.171.023.103 1.721 1.217 2.578 1.208 1.08.915.33.164.469.093 1.529.768.623.552 2.254 1.995 1.461 1.158.54.69 1.198 1.167 2.634 2.986.445.396.618.447 2.807 1.39 1.26 1.606.253.777.027.816-.297.943-.076.462.035.407.215.52.412.338.409.174.862-.143.658.042 1.32.96.218.688.31.254.176.032.36-.176.302-.515.193-.189.493.05.415.17.267.28.787 1.092 1.36 2.223.077.56-.039.28-.16.424-.029.303.196.423.228.19.438.117.441-.06 1.508-1.083.745-.295.294-.007.695.532.453.226 1.769.64.389-.037.658-.328.436-.05 1.278.488 1.781.455 1.671-.214.86-.468.25-.055.628.172.607.398.665.253 1.858.272 1.2.055 2.412-.331.793.011 1.64.233 1.356.466.849.478 1.096.937.316.386.142.249.27.474.436 1.503.361.69.547.742.063.191.081.351.022 2.115.108.538.642 1.218.761 1.165 1.06 1.233.678.64 1.728 1.33 1.604.862.507.42.353.412.58.772.593.631 1.367.776.705.281 2.348.681 2.974.735.926.19 2.697.308 1.781.347.41.237.711.712.508.326 1.619.34 1.21.38.433.255.606.355.75.109 1.244-.07.614.203.353.208.9 1.108.994.889 2.262 1.138 1.269.207.288.119.404.263.329.34.747.487.805.406.394.093.634-.015.434.121.558.251.81.578.497.423.834 1.019.408.67 1.03 1.24 1.577.835.323.302.898 1.748.32.739.362 1.086.002.164-.076.36-.73 1.21-.332.67-.086.378.065.49.312.646.236.205 1.74.725.867.692.29.395.1.272-.075 1.248.108.419.86 1.082.168.303.11.39-.061.887-.511 1.875.061.663.378.776 1.195 1.548.361.582.152.544.087 1.123.122.35.34.215.96.383.733.555 1.669 1.26 1.481.684.406.304 1.507 2.254 1.128.766 1.383.747 2.67.992.728.63 1.452 1.034.603.304 2.504.19 1.094.368.302.23 1.07 1.328.156.473.219 1.083.031.945.095.206 1.482.807.481.094.65-.125.506.143 1.8 1.63.222.307.25.669.519 1.08.32.444.584.429.555.718.384.2.156.003.33-.176.29.05.586.453.684.717.5.255 1.016.362.597.347.388.302.48.582.774 1.398.687.558 1.154.599.31.06.796-.038 1.703.173 1.444.435 1.574.048 1.12-.058 2.056.296.605.318.886.666 1.71.634.282.003 1.173-.302.59.041.751.412 2.037.682.387.233.603.485.34.466.421.867.154.55.065.127.14.272 1.462 1.442.252.402.426.925.175.192 1.336.672 1.149.79 1.352 1.569 1.07 1.068.25.412.253 1.36.775 1.498.088.105.618.3.492.398.192.302.535 1.188.544.801 1.226.63.94.764.691 1.065.326.981.322 1.366 1.224 1.23.323.472.26.215.704.362.87.887.298.698.555.794.354 2.108.38 1.02.165.784.639 1.551.392.606.316 1.338 2.345 2.759.037.266-1.098 4.724.171 1.867-.087.615-.18.703-.095.375-.268.667-.57.95-.19.694.214 2.333-.41 3.177.034 1.651.29 1.92.135.298.72.611.157.236.23.964-.059.593-.527 1.828.08 1.984.488.861.45.604.427.421.669.479 1.754 1.655.592.667.234.317.117.277.105 1.025-.055 1.786-.164.517-.68 1.164-.265.724-.058.267.001.582.16.871.845 1.175.54 1.454.372.372.924.56.551.541.132.317-.02.726.093 1.248-3.478.213-1.811.02-12.894.76-.275-.004-.636.112-2.447.068-5.328.367-.499.002-1.856.091-.438.03-3.117.153-5.128.294-.889.054-1.176.057-4.804.25-2.37.123h-.008l-.527.024-.193-.01h-.062l-.405.022-.58.021-1.033.094-.03.008-.136.003-.498.007-.618.039-.775.051-.841.03-1.496.078-3.585.167-3.536.157h-.017l-.356.028-.387.029-.226.017-2.757.115-1.953.081-.193-.006-3.075.161-.267.024-2.123.095-14.037.666-.964.055-15.593.65-.019.001-1.202.045-1.67.061-9 .373-2.39.127-9.439.38-.198.013-10.784.402-2.328.08-2.14.08-.325-.012-4.815.204-1.868.078-10.64.37h-.004l-11.53.414-.495.015-2.313.072-1.976.06-.45.013-1.745.052-5.377.158-4.588.22-9.603.271-16.525.419-1.98.054h-.01l-2.973.072-21.582.477-5.157.139-15.285.26-3.54.06-4.813.08-.509.02-1.106.003-.75.023-1.093.01h-.006l-3.734.054-.444.006-3.178.038-2.174.03-4.854.06-3.773.047-6.105.07-.67.01-.462.005-.895.01-9.38.102-.18.005-21.023.154-14.675-.04-.173.001-1.65.007-.217.004-16.592.031-15.56-.01-1.577-.017-6.276-.033h-.002l-.504-.01-2.809.041-10.863-.05-.58.006-6.038-.069-28.671-.245-.398-.005-.28.009-1.505-.02h-.181l-1.57-.008-3.27-.028h-.053l-2.363-.035-2.385-.025-2.388-.037-2.415-.034-2.376-.09-2.374-.021-2.343-.026-.094-.017-7.279-.075-.932-.03-3.881-.01-1.484-.077-.071-.02-1.506-.007-4.146-.089-3.592-.114-.713.118-.025-.01-14.867-.26-.064-.002-1.504-.017h-.008l-5.567-.13-.011-.007-2.418-.1-.033-.001v.014l-2.447-.016-1.402-.021-.008.004-3.36-.013-27.15-.686-.09-.002-9.572-.28-1.579-.046-3.185-.093-.025-.001-23.055-.758-17.447-.629-.034.003-1.205-.057-14.796-.555-2.28-.075-12.268-.498.573-14.332.004-.19.134-3.2.012-.397.436-10.751.101-2.417.696-16.805.115-2.258.277-7.321v-.017l.176-4.523.014-.256.015-.01.452-11.616.02-.279.12-2.59-.012-.106.062-1.793.03-.364.076-2.075.016-.305.103-2 .021-.331.061-2.448.008-.275.084-1.814.028-.315 1.107-26.06v-.02l.397-9.48.035-.112.097-2.25.02-.493.042-1.764.034-.49.095-1.858.022-.27.074-2.204.023-.211.07-2.074.02-.345.091-2.06.022-.259.003-.511.066-1.564.043-.868.166-3.861.047-.986.362-8.507.138-3.091.023-1.72.025-.355.242-5.541.063-1.652.04-1.63.135-2.73.004-.017.015-.068.594-14.192-.002-.08.001-.025.5-11.748.138-2.492.238-6.893.031-.208.068-2.357.07-2.335.005-.3.042-.88.083-1.27v-.017l.506-13.811.128-2.71.004-.657.308-8.498.127-2.404v-.003l.41-10.582.059-1.278.006-.232.276-6.887.031-.21.136-4.492.017-.227.363-8.879.178-3.997.013-.284.008-.674.32-9.762.002-.022.118-2.477.059-2.253-.095-.563-.312-.356-.07-.647-.432-1.04-.52-.556-.148-.243-.07-.32-.028-.714-.12-.277-.935-2.162-.326-1.094-.672-1.786-1.422-1.427-.684-.413-1.508-1.335-1.026-.507-.99-.342-.71-.145-1.811-.898-1.027-.66-.841-.43-.649-.583-1.821-1.296-1.854-.88-1.53-.253-1.075-.045-.822-.182-1.648.109-.907-.29-.59.027-.568-.071-.37-.189-.96-.984-1.014-1.497-.924-1.78-1.427-2.434-.774-.937-.14-.286-.408-1.327-.133-1.1-.424-.87-.097-.318.006-.617-.174-.703-.74-2.223-.784-2.108-.485-1.083-1.682-2.446-.395-.885-.95-1.577-.571-.596-.319-.209-3.567-5.163-.905-1.323-.04-.063-.544-.769-.451-.568-.438-.615.148-.494.53-.917.122-.738.996-3.23.437-.908.598-.68.368-.318.603-.191.153-.171 3.055-2.163 4.594-2.9.444-.539.83-1.233.617-.426 3.958-2.416 2.769-1.236 1.693-.964 1.185-.978 1.23-1.266 1.256-2.065.294-.885.142-.768.26-.562.746-1.178.144-.49.2-.32.287-.26.83-.474.666-.52.584-.726.701-1.15.62-.859.409-.318.709-.387.477-.56.417-.923.305-1.17.028-.78.125-.322.25-.501.3-2.989-.137-.558-.016-.294.35-.8-.057-.754.216-1.645.3-.214.078-.504.077-1.212-.001-.682.135-.398.348-.637-.116-.243-.105-.165-.03-.619.061-.2.307-.413-.026-.246.013-.84.157-1.45.142-.293.192-1.38-.076-.338-.282-.438-.533-2.17-.115-2.7.053-1.511-.039-2.065-.037-.345-.178-.585.239-1.375-.223-.868-.072-.28-.047-.539.558-1.764.917-2.148.627-.62.207-.455.31-1.048.06-.66-.146-.368.003-.152.482-1.903-.186-.478.033-1.674-.108-.848-.118-.422-.429-.5-.258-.652-.115-.456.47-.223-.004-.528-.752-.719-.145-.324.16-.206.138-1.07-.553-1.554-.279-.304-.213-.438-.082-.59.38-1.855-.005-.493-.06-.373-.206-.18-.244-.288-.089-.433.055-.093-.11-.485-.128-.036-.122-.004-.069-.142-.016-.125.008-.185.029-.184.032-.246-.026-.14-.106-.267.027-.72.11-.342.028-.553.322-.305.08-.13.097-.48-.067-.505-.057-.039-.169-.901-.49-1.358-.438-.288-.155-1.282-.027-2.247.07-.237.448-.339.213-.112.157-.178.079-.105.037-.122-.026-.14-.06-.11-.166-.1-.185-.163-.031-.263.107-.258.022-.277-.095-.267-.138-.268-.325-.137-.086-.236.082-.251.282-.669.252-1.156-.045-.253-.298-.561-.033-.218.075-.274.255-.468.033-.715-.09-.215-.258-.179-.096-.251.204-.531-.043-.234-.116-.202-.096-.606.407-1.345-.005-.31-.26-.83.218-1.741-.138-.128-.773-.265-.701-.812-.573-.464-.043-.197.278-.464-.272-.547-.846-.354-.089-.158.034-.342-.257-.189-.98.308-.451-.072-.17-.27-.113-.807.123-.395-.01-.248-.458-.204-.482-.394-.28-.747-.027-.466-.836-.227-.123-.15-.224-1.492.112-.866-.937-2.428-.224-.423-.143-.08-.32.117-.355-.154-.073-.25.07-.245-.054-.356-.586-.21-.245-.227-.023-.202.064-.26-.042-.248-.111-.113-.383-.001-.091-.343.008-.185.147-.425-.038-.341-.153-.146-.337-.061-.092-.081-.035-.403-.162-.423-.29-.152-.414-.018-.271-.352-.051-.28.09-.326.188-.402-.003-.43-.047-.141-.112-.098-.068-.388.049-.137.342-.3.12-.844-.048-.664-.201-.209-.303-.584-.081-.327.053-.229-.07-.11-.09-.113-.251-.073-.216-.164-.005-.373-.892-.438-.129-.206.02-.2.156-.393-.045-.171-.173-.178-.081-.311.035-.307.39-.703.128-.473-.204-.124-.223-.468.231-.667.01-.215-.274-.506.298-.65-.11-.675-.058-1.318-.37-.54-.227-.65.012-.262.248-.343.002-.277-.282-.32-.005-.109.014-.091.232-.19.026-.107-.076-.203-.296-.245.25-.605-.012-.2-.227-.611-.138-.222-.061-.28.087-.273.175-.131.281-.834-.162-1.316-.178-.286-.376-.11-.118-.19-.021-.231.13-.518-.07-.095-.296-.03-.164-.114.049-.368-.14-.175-.41-.28-.055-.203.087-.52-.077-.157-.137-.111-.277-.555-.4-.049-.23-.33.009-.219.014-.358.09-.322-.028-.094-.287-.198-.081-.296.198-.637-.085-.22-.38-.263-.04-.28.096-.226-.084-.25-.532-.148-.035-.617.088-.304-.022-.216-.068-.126-.002-.002-.552-.362-.114-.267.09-.596.122-.35.038-.41-.084-1.208-.642-.714-.191-.767.105-1.162.52-.604.169-.47-.106-.45.056-.305.047-.09.45-.134.136-.224-.024-.333.445-.491.027-.275-.088-.144-.203-.103-.072-.48.117-.257.044-.49-.093-.742-.323-.422-.027-.126.62-1.436.215-1.222.553-.364.104-.722-.06-.28-.172-.162-.28-.477.324-.662.072-.6-.357-.363-.05-.51.095-.385.135-.265v-.446l-.394-.602.013-.276.166-.392.17-.054.115-.194-.197-.302.002-.276.154-.131.004-.092-.064-.203-.381-.417-.037-.34.126-.456-.063-.218-.352-.139-.038-.094-.008-.277.19-.483-.026-.324-.164-.33-.324-.366-.075-.276.257-2.598-.074-.15-.532-.297-.112-.186.065-.149.19-.157.126-.306-.059-.683.262-.422.744-.85.236.08.192-.053.051-.197-.238-.534.038-.136.447-.118.213-.297.043-.244-.073-.234.03-.214.057-.09.328-.045.123-.148.01-.246-.08-.28.066-.304.216-.359.008-.184-.119-.159-.194-.101-.118-.19.033-.49.094-.21.02-.215-.021-.216-.152-.345.015-.321.251-.402.201-.881.029-.524-.113-.182-.092-.374.115-.123.52.184.458.295.166-.009.157-.314.15-.652-.068-.18-.186-.009-.236.102-.181-.12-.249-1.765.387-1.252.364-.498.317.272.196.025.263-.695-.024-.49.153-.697.408-.197-.001-.214-.158-.223-.042-.216.054-.259.17-.3-.229-.255-.024-.17.007-.153.209-.436.01-.214-.152-.209-.16-.071-1.335.614-.578.39-.334.432-.217-.056-.165-.514-.384-.094-.07-.08-.052-.218.03-.489.189-.537-.114-1.098-.132-.256-.53-.086-.17-.161.107-.9-.083-.218.003-.789.152-.502-.05-.279-.206-.3-.156-.008-.789.29-1.04-.62-.236-.319-.008-.276.282-.994-.196-2.063-.198-.518.035-.458.154-.29.016-.311-.316-.325-.143.039-.45-.462-.248-.384-.034-.17.02-.183.118-.194.17-.807-.074-.14.428-.864.356-.25.77-.24.17-.252-.054-.202-.276-.366-.03-.247.031-.213.292-.2.04-.214-.004-.337-.184-.316-.017-.307.261-.893-.009-.936-.332-.49-.18-.622.056-.29.212-.081.1-.134-.04-.231-.173-.257-.03-.765.049-.166.282-.217.046-.105-.064-.402.246-.29.066-.474-.117-.16-.036-.243.206-.625-.15-.36.064-.257.202-.297.013-.735-.135-.237.001-.245.223-.526.034-.29-.085-.188-.29-.222-.11-.192.07-.327.186-.318-.047-.324-.638-.74-.031-.216.12-.214.143-.074.08-.255.053-.354-.326-.387-.11-.327.15-.514.013-.29-.08-.522-.305-.37-.081-.28.272-.477.013-.275-.096-.158-.008-.17-.002-.06.376-.473.595-.337.037-.108-.027-.122-.203-.226-.015-.123.072-.211.22-.25.048-.366-.245-.333.05-.61-.083-.234-.468-.451-.011-.215.049-.151.291-.446.042-.228-.022-.2-.136-.19-.224-.118-.107-.158-.09-.31-.004-.139.164-.39-.003-.154-.183-.3-.395-.247-.145-.222-.051-.247.033-.274.116-.24.55-.418.08-.15-.133-.266-.18-.162-.024-.154.212-.312.04-.166-.011-.215-.297-.55.117-.5-.018-.277-.252-.18-.09-.295.06-.18.355-.23.005-.106-.172-.335-.001-.408.182-.344.298-.154.082-.18-.017-.224-.067-.075-.42-.475-.056-.156.008-.168.114-.209.276-.34.034-.273-.056-.37-.498-.452-.036-.124.085-.257-.016-.108-.161-.328.08-.165.047-.32-.053-.201-.132-.067-.002-.184.072-.211.244-.096.106-.27-.075-.172-.295-.137-.065-.156.125-.453.221-.333.026-.237-.082-1.135-.24-.963.041-.485 1.283-1.778.02-.412-.281-.618-.138-.094-.428-.047-.159-.145.096-.715.088-.102.464-.178.113-.193.028-.152-.06-.477.172-.359.017-.367-.084-.187-.239-.225-.01-.215.316-.551-.062-.447-.414-.383-.331-.853-.1-.525.223-.784-.08-.264-.274-.136-.125-.204-.11-.296.008-.611-.301-.428.029-.166.296-.14.113-.208-.026-.159-.328-.225-.175-.253.129-.245.408-.043.228-.234.18-.74.505-.39.095-.913v-.23l-.105-.188-.39-.293-.026-.323.13-.575-.015-.107-.3-.443-.484-.463.022-.277-.062-.202-.505-.252-.374-.662-.02-.132.12-.298-.009-.121-.247-.166-.067-.126.011-.229.155-.206.374-.258.109-.33-.195-.255-.031-.215.03-.197.271-.492-.148-.374.043-.242.272-.507.009-.183-.192-.659.077-.94.12-.28.02-.183-.154-.252-.02-.215.05-.212.24-.233.094-.47-.269-.6-.003-.65.097-.3.372-.442.143-.406-.02-.214-.325-.337-.035-.139.01-.229.068-.119.203-.127.064-.273-.013-.168-.276-.273.007-.152.074-.257.11-.147.605-.552-.003-.265v-.102l-.145-.316.023-.408.047-.47.149-.162.05-.181-.034-.17-.144-.22-.013-.383-.075-.092-.454-.106-.313-.171-.186-.232-.01-.486-.268-.747.008-.167.188-.266.265-.21.203-.068.675-.997-.03-.215-.136-.19-.017-.291.245-.4.055-.288-.015-.108-.204-.27-.012-.183.048-.135.217-.234.077-.317-.129-.342-.298-.33-.098-.327-.002-.184.2-.297.074-.257-.035-.125-.151-.083-.038-.293.05-.167.23-.065.338-.383-.029-.261-.186-.224-.033-.384.362-.58.286-1.55-.055-.355-.275-.534.043-.243.148-.085.04-.167-.09-.31-.189-.182-.127-.236.255-.627-.047-.39-.167-.328-.327-.242-1.43-.304-.036-.18.346-.313.049-.115-.026-.077-.58-.21-.327-.238-.213-2.074-.626-.822.053-.202.4-.145.185-.144.108-1.163-.046-.185-.417-.48-.024-.928.224-.42.03-.301-.145-.475-.252-.366.005-.328-.13-.247-.086-.165-.356-.083-.147-.197-.17-2.358-.087-.212-.15-.143-.135.001-.264.36-.217.11-.18-.046-.099-.132-.012-.275.33-.421-.027-.184-.216-.361-.164-.519-.132-.203-.1.04-.152-.152.01-.184.099-.201-.032-.351-.061-.157-.477-.409-.006-.321.07-.307-.046-.352-.325-.283.02-.256.45-.41.109-.21-.055-.141-.605-.72-.547-.872-.218-.456-.042-.253.042-.195.42-.465.101-.298.025-.502-.041-.368-.533-.358-.026-.088.039-.247.173-.12.008-.237-.296-.249-.232-.317-.044-.356.18-.33-.213-.627-1.06-1.142-.748-.19.043-.574-.553-.585-.267.034-.094-.08.007-.234.214-.365.222-.215.468-.207.014-.13-.061-.171-.585-.44-.252-.443-.594-.182-.205.049-.162-.079-.092-.204.006-.313-.439-.671-.053-.191.035-.245.232-.235.115-.271-.23-.657.002-.757.071-.161.09-.054.021-.434-.242-.212-.056-.143.088-.595-.473-1.174-.668-.077-.54-.635.055-.227.173-.188.031-1.595-.106-.72-.22-.334-.147-.064-.384-.451-.022-.209.272-.082.204-.229-.086-.211-.297-.254-1.27-.287-.408-.18-.191-.233.008-.16.463-.279.12-.25-.136-.293-.412-.308-.196-.36.064-.412.642-.43.031-.206-.608-.652.131-.488.424-.36.003-.272-.39-.514-.063-.465.152-.04.324.35.325.129.247-.227-.008-.495-.18-.455-.67-.48.625-.32.045-.268-1.205-1.304-.63-.446-.145-.502.218-.515-.03-.448-.322-.191-.613-.127-.63-.399-.35-.48-.084-.45.056-.268.31-.622.03-.38-.15-.407-.513-.408-.244-.252-.035-.145.043-.221.42-.473.086-.234-.206-.568.033-.222.326-.808.373-1.159.066-.364-.039-.218-.137-.216-.753-.52-.195-.418-.174-1.77.158-.275.27-.28-.015-.288-.168-.115-.46-.106-.139-.126-.15-.356.053-.362.35-.758.041-.225-.066-2.245-.145-1.01-.161-.51-.16-.249-.746-.527-.414-.408-1.04-2.1-.555-.123-.146-.128-.017-.107.07-.233.382-.438.18-.731-.007-.602-.225-.527-.314-.226-.034-.149.027-.224.184-.267.006-.265-.084-.27-.361-.333-.077-.784-.196-.2-.18-.052-.704.092-.354-.22-.037-.218.068-.234.245-.43.057-.17.002-.258-.078-.313-.498-1.196-.127-.47-.075-.95-.266-.443-.021-.29.075-.301-.229-.373-.737-.319-.066-.224.01-.49.233-.439.103-.346.08-.346.021-.395-.066-.213-.235-.186-.224-.375-.214-.977.032-.464.117-.27.055-.129.327-.39.088-.182.026-.208-.017-.42-.108-.158-.174-.09-.136-.229-.01-.233.552-1 .039-.17.374-.614-.075-.836.054-.289.12-.238.329-.192.063-.463-.261-.348-.02-.432.252-.304.013-.304-.029-.28-.195-.138-.055-.224.066-.318.155-.16.048-.3-.025-.144-.307-.208-.144-.3-.024-.421.165-.19.439-.244.027-.22-.289-.562.006-.407.088-.194.515-.551.433-.066.158-.158.088-.29-.025-.17-.156-.328-.02-.226.024-.153.253-.319.017-.32-.133-.313-.25-.086-.095-.123.02-.248.18-.264.53-.154.14-.12.862-1.292-.003-.252-.088-.361-.413-1.066-.322-.302-.199-.006-.163-.176v-.463l.063-.293.149-.123.418-.002.092-.102.06-.245-.02-.085-.39-.387.046-.864-.094-.17-.39-.246-.092-.183-.032-.44.102-.445.057-.191.158-.146.257-.432.038-.378-.026-.172-.355-.202h-.267l-.1-.137.012-.418.339-.65.122-.662-.05-.225-.622-.583-.037-.46.13-.49-.023-.224-.202-.237-.413-.193-.365-.877.06-1.117.055-.278.116-.243.235-.143.251-.454.258-.982.015-.28-.068-.283-.27-.356-.143-.443.003-.84.052-.215.158-.241.409-.321.494-.752.103-.4-.02-.81-.254-.666-.426-.146-.018-.437.09-.15.549-.221.163-.365.018-.341-.22-.255-.122-.399-.001-.235.346-.394.144-.267.106-.544-.07-.396-.223-.208-.033-.12.027-.528.077-.231.39-.49.139-.66.015-.548-.145-.204-.768-.491-.124-.36-.08-.475.076-.702.19-.147.078-.25-.128-.282-.186-.167-.018-.412.128-.21.39-.263.12-.246.11-1.272-.135-.4-.599-.482-.127-.3-.037-.297-.345-3.312.158-.796.323-.473.043-.311-.147-.42-.344-.37-.584-.386-.156-.193-.18-.224.002-.017.063-.441.076-.212.138-.169.548-.278.245.006.113-.17.04-.253-.164-.342-.25-.19-.18-.264-.041-.217.046-.625.144-.287.618-.238.23-.344.082-.33.039-.487-.063-.297.009-.411.15-.232.37-.048.14-.137.089-.213.198-1.113-.054-.285-.16-.325.046-.39.101-.21.22-.243.306-.65.116-.484-.074-.317.102-.465.15-.15.337-.001.16-.09.1-.406-.045-.394.147-.326.463.064.095-.093.092-.27.002-.336-.166-.26.018-.332.07-.095.475-.19.594.226.367-.052.224-.176.119-.185.034-.274-.107-.717-.204-.65.09-.25.378-.488.239-.765.155-.274.305-.282.148-.36.014-.528-.183-.46.132-.307.17-.174.048-.544-.023-1.308.079-.27.266-.398.048-.193-.016-.177-.106-.202-1.007-.677-.93-1.488-.055-.434.233-.262.113-.68-.494-.697-.275-.897-.2-.317-.782-.685-.132-.202-.04-.218.12-.307.054-.564-.04-.198-.364-.35-.052-.237.082-1.34-.348-.699-.685-.639-.095-.16-.011-.274.449-.969.019-.369-.478-1.065-.128-.115-.092-.2-.03-.157.049-.192.11-.15.092-.52-.083-.14-.297-.21-.068-.16.03-.565.093-.366-.096-.182-.32-.117-.17-.192-.042-.34.02-.703-.196-.688.012-.233.125-.288.009-.177-.067-.221-.287-.233-.567-.205-.295-.334-.149-.28-.125-.42.29-.992-.302-.677.018-.592.091-.252.497-.258.16-.166.057-.163-.02-.683-.268-.625.036-.196.16-.328.028-.512-.327-.613-.07-.753-.215-.347-.315-.195-.158-.206-.013-.238.207-.72-.042-.2-.146-.185-.277-.173-.738-.79-.075-.3.113-.41.03-.315-.185-.681.219-.443.05-.69-.079-.24-.892-.49-.28-.294-.194-.604.03-.27.216-.635-.014-.428-.171-.228-.51-.297-.095-.375.014-.44.202-.431.01-.353-.1-.304-.585-.398-.157-.728-.003-.774-.087-.371-.419-.512-.004-.244.216-1.21.023-.42-.05-.247-.093-.236-.51-.256-.13-.202z"/></svg>