<svg height="1000" width="1000"><path class="americon" d="M745.423 964.445l3.163-.503 4.714 2.108 2.123.31 1.755-.39 2.528-1.375 3.419-.866.737 2.517-4.24 2.76-4.217.793-7.082-1.356-2.503-1.714zm-45.394-4.928l6.068-1.6 3.773-.853 4.602 1.334 5.672 2.018 8.219 1.354 3.746 2.5-4.133.503-5.74-.604-4.767-.447-7.536-2.783-4.567.954-2.73.042-1.95-.675zm-37.474 6.366l5.348-.888 3.706-.251 6.748-4 2.656-1.684 1.658.802-.798 1.865-2.854 2.304-9.226 3.827-4.11 1.08-3.933-1.397zm-29.713-4.234l12.979.086 2.43-4.144 2.49 1.828-.99 3.925-2.024 3.523-2.457.445-3.508.85-3.322-2.648-7.434-1.79zM207.224 754.086l.193-.777.476-.734.477-.523 1.29-.887.613-.131 2.77.065 2.48.462 3.19.768 2.243.325 1.75-.012 1.756-.225 2.772-.77 3.301-1.47.521-.566.636-1.166.594-1.465.121-.828.16-3.396-.102-.438-.225-.343-1.394-1.337-2.177-1.751-.254-.291-.451-1.033-1.586-1.125-.546-.711.055-1.338-.293-1.315-.003-.61.264-2.508.591-.951.076-.252-1.034-.664-.546-.168-.832.342-.352.255-1.12 1.074-.34-1.408-.418-1.25-.693-1.646.046-.95.377-1.306 1.103-1.749.856-.758 1.788-.96.361-.41.738-.369.586-.052.565.28.16.193.552 1.327.017.194-.457 1.033-.016.772 1.057 4.748.853 1.897.83 1.155.963 1 1.314.838.655.283 4.285.131 1.124-1.23.265-1.103-.12-1.041.03-1.844.041-.89-.811-.397-.52-1.325-1.61-1.703-1.646-1.6-1.011-2.203-.62-1.501-.475-1.1-.269-.963-.245-2.264-.053-4.547.263-2.95.366-.978.082-1.332-.3-.339-.637-.304-.36-.862.006-.465.078-.442.196-.357.995-1.354.32-.226.466-.09.762-.046 1.112.104 1.783-.273.953.367.427.39.268.067 5.072-1.69 1.046-.524 1.086-.7 1.94-1.608 1.986-1.448 1.224-1.392.234-.508.229-.886.33-2.626-1.502-1.154-.687-.198-.94-.187-1.352.079-.954.269-3.62 1.357-1.493.253-2.214.051-.974-.169-.566-.275-.91-.563-1.428-1.146-1.656-2.263-.57-.995-.102-.329-.084-1.03.267-1.713.22-.595.554-.845.874-.834 1.387-1.064.276-.133.535.087.287.155.439.663.399.792.792 1.114.456.529.905.74 1.74 1.044 4.523 1.662 1.19.293 1.434.003.788-.287 2.652-1.355.49-1.155.446-2.563.095-.967-.28-3.673-.206-5.056.073-1.919.42-2.264.146-.392 2.846-4.094.143-.055 4.244-1.624 3.458-.395 2.712-.17.336.01 4.18.125 2.722.024 2.09-1.715.674-1.332-.547-1.144-1.798-.876-2.041-.23-2.596.98-3.51-.286-4.437.244-2.685-.968.22-1.976.813-3.736 2.561-8.53.476-.778.796-.847.784-.374 1.167-.303 5.433-.937.217.066.616 2.646-.21 2.605.095.99.244.897.456 1.16.434.724.327.325.578.372 1.248.469 1.211-.007 1.092-.624.951-.983.485-.89.437-1.792-.087-.342-2.537-2.63-.891-1.02-.242-.382-.106-.418-.015-.693.24-.784.21-.31.358-.228 2.753-.794 2.258-1.327 1.376-1.593 3.122-2.953.64-.714.404-.74.308-.23.584.114.625-.162.204-.113.316-.545.275-.25 1.015-.35.445-.344-.073-.417-.618-.747.248-1.85-.158-.38-1.077.15-.297-.165-.047-.14.674-2.096.152-1.34-.028-.85.151-.687.61-.893 1.277-1.488 1.235-1.114.988-.666 7.89-.693 2.242-.597 1.36-.856 1.03-1.022 2.454-3.233-.665-.31-.123-1.017-.277-1.033-.288-.56-.604-.606-1.224-.621-4.924-1.186-3.326-.812-1.04-.56-.802-.69-.435-.662-.365-.76-.105-.515.015-.592.08-.471.23-.508.777-1.006 1.192-.878.624-.221.971-.055.729.294 1.034.776.729.945 1.572 2.722 1.734 1.62.827.396 2.738.223.355-.15.193-.37-.315-5.039.043-.393.257-.27 2.256-1.166 4.748-2.438.665-.537.733-1.384-.005-1.22-.006-1.226.019-.002.635-.082 1.18-.466.408-.306.995-1.16.94-1.715.247-.566.165-.647-.3-2.137-1.72-.807-1.394-.367-1.127-1.07-1.621-1.359-1.383-.8-1.246.187-.238 1.197.5 1.49.97 1.285.168 1.423-.306.96-.172.212-.42 3.918-1.387-.56-1.235-.93-1.32-.428-.763-.117-1.675.036-1.601.449-.425.212-1.293.95-.426-.148-2.925-.167-.856-.25-1.293-.627-1.767-.41-1.296-.121-.431-.326-.993-1.989-.276-.945-.146-1.181.194-1.82.498-2.411.546-1.979.702-2.003.362-.414.687-.559 4.129-2.159.566-.032.281.105.732.425 1.108.901.53.007.18.034.757-.297 1.396-1.878 1.411-1.148 1.412-.479 1.435-.084.662.213 1.582 1.495 1.078-1.177.348-.622.246-1.275.266-.683.648-.616 1.254-.207.78.175 1.27.581.837.532 1.938 2.014.574.426.21.596.36 1.04.21.131.274.107.358.16.51.036.515-.165.431-.217.456-.393.441-.67.05-.963.044-1.018.527-2.398.71-.869 1.036-.684.106-.163-.301-1.035-1.352-1.51-.221-.296-.31-.708-.14-1.906.604-2.243.221-.446.557-.53.27-.125.493-.063 1.244.15.176.12.304.596.93 1.408.389.441.272.172.587-.043 2.332-1.3 1.991-1.592 1.031-.952 1.877-2.307.451-.795 1.516-1.644 3.037-5.776.137-2.886-.434-.425-1.775.22-.528.514-1.014 3.171-1.705 2.08-.783.802-1.453-.546-2.27-.618-1.339-.223-1.929-.022-5.307-1.278-1.146-.476-1.06-.741-.546-.889-.155-.514.015-.67.708-2.64.754-1.246.276-.823.17-.882-.019-1.394 2.237-.812 1.055-.716.563-.506.575-.704.263-.535.061-.742-.04-1.783-.06-.322-.27-.515-.165-.28-1.453-1.515-.8-.42-1.724-.387-.85.116-.987.848-1.965 1.017-1.653 1.123-.551.164-3.844-1.052-2.839-1.384-1.899-1.087-2.2-1.685-2.175-2.668-.528-.818-.613-1.392-.158-2.343.123-1 1.682-2.867.991-2.072 2.904-.18 3.79 2.941 1.536 2.438.824.924 1.253 1.03.688.39 1.61.686 1.153.321 2.13.363.829-.075.476-.247.959-.73.417-.668.087-.587-.046-.514-.259-.663-.744-1.233-1.787-1.517-.95-.562-6.543-2.96-1.716-1.132-2.218-2.07-.787-1.93 1.786-1.205.073-.049 3.365-1.998.981-.497 1.22-.617.874-.725 1.369-1.638 1.133-.977.421-.279.593-.675.966-1.52.286-.956.04-1.546-.078-.451-.52-1.272-1.193-1.837-.783-.678-1.087-.56-.74.478-1.396 1.461-.345.762-.207 1.446-.32.848-.964 1.396-.178 1.246-1.919.312-3.023.85-1.386.676-2.993 1.145-1.17.107-.997.967-.202.063-.867-.098-.458-.268-1.193-1.042-.944-1.115-.467-.68-.335-.702-.788-2.332-.32-2.023-.019-1.002.032-.774.2-1.081.106-.145.397-.487.912-.76.388-.234.552-.086.181-.162 1.149-1.59.56-1.258 1.605-1.674 2.32-1.585.952-.537 2.935-1.075.852-.495 2.041-1.753 1.184-1.865.409-1.296.058-.593-.4-.661-.613-.39-2.683-1.052-2.193-.751-3.788-.85-1.553-.593-1.406-.095-3.066.183-.693-.126-.678-.235-.77-.717-.3-.85-.047-1.284.16-.808 1.28-2.723.137-.842-.271-.154-.935-.95.562-2.767.019-2.443.597-1.913.202-.293.833-.538.43-.88.83-2.263.246-.36.954-.807 1.675-1.151.519.051 1.424-.118 1.734-.498 3.187-2.862 2.715-2.926.412-.631.657-1.774.117-.516.033-.519-.146-1.993.19-1.204-.136-.742-.9-1.895-.242-.358-1.348-1.084-.236-.311-.178-.62.203-.294.23-.129.272-.325-.187-2.154-.996-2.66-.648-.977-.54-.639-.427-.41-1.572-.532-.852.093-2.208.669-1.547.771-.185.167-.544 1.613.166.357.72.606.332.542.03.306-.093.258-.352.358-.549.32-.092.16-.133.734.355 1.3.615 3.17-.017.613-.152.74-.342 1.058-1.873 2.34-1.104.67-1.372.368-1.689.053-.846-.14-1.016-.31-2.464-1.108-.483-.35-1.36-1.376-.527-.85-.19-.49-.161-1.002.006-.612.228-1.121.366-.729.56-.876 1.357-1.516-.278-.53-.126-.463.05-.758.373-.45.37-.237 1.772-2.182.804-.458 1.489-1.42.74-1.165.506-1.965.03-.365v-1.414l.684-1.617 1.037-.737 1.063-.508 1.207-.15.824-.274 1.392-.909.586-.91.402-1.613.54-1.543.02-.272-.132-.638-.54-.983-4.041-3.518-1.755-.825-.859-.134-.908-.345-.326-.301-.18-.459-.968-1.34-2.444-1.273-.678-.481-.15-.25-.049-.285-.044-2.271.07-.755 1.11-1.85.356-.383.745-.583.836-.346 2.337-.126 1.264.2.218.115 1.162 1.226.174.648.239.222 1.145.207 1.907.18 2.879-.073 1.607-.306 1.842-.958.56-.56.398-1.07.38-2.071.139-1.165.173-3.72-.342-3.457-.427-2.294-.245-2.08.94-.14.506.017.537-.3.07-.129.012-.51.258-.186.58.143.559-.08-.05-.547.4-.546.503.003.3-.847 1.638-1.67.63-.982.49-1.704.426-1.048.217-.86.08-.936-.228-.86-.474-.749-.676-.527-1.03-.314-1.354-.086-.908.231-.985.48-.452.391-.412.517-.422.947-.762 3.17-.198.481-.553.834-.397 1.723-.37.666-.164.006-.97-.741-.701-.824-.581-1.386-.437-1.52-.154-.274-1.58-1.295.446-1.205.024-1.078-2.29-3.25-.24-.577.095-2.883-.29-2.755.062-.413.25-.47.167-.685-.144-2.442.075-.21.267-.262 2.499-1.626.783-.705 2.304-3.325.892-1.159 1.766-1.633 2.579-1.926 2.187-2.927.705-1.44.162-3.24-.337-.966-.776-.704-.469-.27-1.123-.164-.531.02-.66.268-.77.491-.849 1.005-.458.7-.42.978-.15.753v.388l.32 1.188-.019 1.597-.704 1.786-1.328 1.756-1.1 1.135-1.632 1.052-2.852 1.305-2.137.252-1.997-.205-.915-.28-.801-.374-2.276-1.383-2.172-1.848-.53-.634-.142-.321-.017-.519.097-.471.585-1.06.451-.496.533-.276 1.197.146 1.237-.33.811.494.502.047 2.122-.957 2.582-.914.456-.092.928.169 1.196-.577.224-.352.008-.266.334-.58 1.252-1.39.45-1.071.107-.912-.245-1.258-.824-2.48-1.836-1.697-3.301-2.343-.45-.382-.616-.526-.546-.18-.789.294-.56 1.14-.293.889-.01 1.417.185 1.396.577 1.85.349 1.903-1.334 1.72-.745.538-.855.405-1.26.403-1.988.439-.564-.005-1.15-.206-2.874-.908-.113-.322.272-.323.153-.335.186-1.929.167-.608 1.382-1.068.512-.042.77-.318 1.153-.716.298-.324.194-.628 1.033-1.839.67-1.024 1.04-.858.623-.645.428-.421.046-.733-.253-.978-.432-.632-4.5-3.792-.574-.588-1.096-1.75-.54-1.154-.37-1.128-.015-.909.198-.606.095-.15.4-.63.723-.508.434-.144 2.984-.428.795-.233 1.536-.772 1.303-.998.467-.2.365-.061 2.46.376.54.01.863-.242 2.265-1.536.727-.681.27-.48.151-.476.217-1.277-.05-.952-.525-1.686-.752-1.215-1.793-1.476-2.171-2.052-1.105-.901-1.14-.68-1.144-.514-4.158-1.065-1.242-.611-.623-.657-.553-.768-.26-.524-.096-1.213.216-1.07.44-.898.789-.987 1.4-1 1.097-.471.758-.12 1.716-.02 2.333-.185 1.608-.352.556-.318.26-.044 2.613 3.47 1.682 2.533.469.453 4.704 2.833 1.114.454.94.21.66.029.914-.166 1.865-.813 1.3-.692 1.41-.291.666-.025 1.563-.557.376-.322.525-.986.198-.672.016-1.195-.475-.207-.444-.076-.15-.742-.287-.724-.347-.657-.863-1.261-1.393-1.233-.69-.47-.62-.223-.73-.131-1.158.376-2.375 1.313-1.827.415-1.06.038-1.629-.168-1.244-.699-1.076-1.09-1.944-2.49-.16-.416-.117-.69.034-.787.574-2.054-.191-.432.005-.441.509-.834.147-.73-.084-.217-.37-.254-.181-.374-.033-.651.533-1.247.361-.632.42-.535.579-.548.272-.111.64.01.762.28.895.62 1.003.89.656.785 2.984-.937.566-.105 4.04-.144 1.078-.181 4.31 3.027.563.139 1.706-.29 2.066-.826 1.03-.84.438-.61.303-.73.175-.764-.12-.68-.375-.9-1.32-1.38-1.223-.618-1.983-.406-.813-.31-2.757-1.405-.7-.504-.441-.664-.482-1.071-.604-.938-1.3-1.622-.393-.654-.553-1.78-.257-1.543.057-.96.328-.83 1.603-2.06.982-1.051 3.072-2.94 1.7-1.796 1.482-2.122 1.1-1.232.133-.279-.034-.457-.419-.577-1.122-.967-2.525-1.345-1.716-.747-5.084-1.41-.891-.433-.42-.416-.297-.602-.154-.91.022-.72.116-.567.205-.516.782-.86.643-.42.63-.273.676-.156 1.44-.085 2.236.053.91-.315.52-.471.964-1.147 2.426-1.465.811 1.698 1.312 3.423.295 1.192.444.879.83.66 1.15.477.688.133 1.047-.038.972-.244.525-.271.403-.406.245-.427.438-1.633-.037-.738-1.462-2.349-1.032-.928-.38-.698-1.206-3.7.843-.259.94-.147.996-.034 1.967.308 1.299.5 1.23-.019 1.254-.208 1.808-.715.278-.008 1.18.283 2.447-.32 1.145-.572.568-.556.259-.522.078-.5-.046-.923-.242-1.27.093-1.172.139-.576.251-.608.701-1.021 1.249-1.553.434-.83.243-.8.02-.431-.22-.763-.727-1.229-.364-.33-.588-.407-.872-.25-.873-.014-1.233.58-2.084.328-.693-.072-.458-.185-3.957-3.072-.344-.375-1.01-1.515-.15-.227-.38-.973-.114-1.02.839-1.56 2.646-1.932 4.565-3.151 1.026.249 1.46.684 1.776 1.868.987.674 1.412 1.188.523.319 1.77.625 1.008.141 1.78-.157.939-.357.742-.412.507-.386 1.099-1.108.822-1.152.513-1.07.126-1.157-.212-1.635-.204-.5-.37-.459-.664-.45-1.886-.377-1.577.16-1.418-.464-1.357-.187-.56.103-.888.449-.818.161-.669-.063-.574-.479-.843.229-.84.445-.627-.553-3.156-1.834-.669-.599-2.59-3.523-.39-.827-.25-1.553.003-1.369.13-.498.477-.672.737-.822.947-.365 1.718.152.845.296.18.19.254.503.627 2.209.278.464.585.569 2.437 1.779 1.917.68 1.656.138.624.437.782.572.495-.856.45-1.13.367-1.193.092-.604-.085-.757.047-1.163.534-2.7.796-3.35.3-.721.385-.458.616-.49.575-.299 1.3-.284 1.594-.556.856.029 4.038.55 1.137-.09 1.605-1.196.422-.46 1.58-2.486.365-.823.069-1.34-.31-1.32-.306-.898-.654-1.206-2.552-2.324-.3-.48-.094-.312-.09-1.278.245-1.312.213-.351.597-.501.949-.467.974-.11 1.353.158 1.983.62.672.117 2.047.008 1.913-.364 1.55-.505 1.162-.021.199.548.213.675-.208 1.857-1.633 2.738-.37 1.723.065 1.377.486.78.63.555 1.254.551 1.4.026 1.277-.439.646-1.312.035-.977-.457-1.648-.99-2.494.035-1.403 1.878-3.069-.498-.755 2.762-1.534 1.038-.465.538-.152 2.096-.271.73-.367 5.366-3.752.866-.876.683-.989.451-.86.316-.909.122-.936-.222-1.164-1.023-2.237-.46-.486-1.075-.882-.273-.471-.43-1.807-.209-2.754.175-1.215.412-1.735.488-.762.419-1.68.419-.666 1.48-1.634 2.257-1.153 1.538-1.28.341-.502.388-.951.095-.53-.027-.536-.75-2.406-.52-.944-1.314-1.724-1.128-1.112-.823-.95-.717-1.514-1.071-1.751-.845-2.234-.131-2.103.808-2.84.07-.247-.008-.18-.298-.673-.194-.894-.116-2.649-.183-.628.026-.447 1.044-1.773.528-.688.902-.484 3.24-.328 2.062 3.401-1.727 1.414-.405.715-.223.902-.206 1.692.14 1.037.363.852.645.942.616.414 1.032.36.79.066 1.227-.179 1.168-.451 1.455-1.09.811-.782 1.04-1.4 1.406-1.286 1.31-.957 1.595-1.812.613-.933.536-1.876.051-.675-.178-.681-.517-.885-.645-.669-.63-.348-.768-.143-1.098-.008-1.522.153-2.116.467-1.944.242-1.13-.057-1.542-.401-1.114-.652-3.052-3.705-.284-.437-.09-.292-.008-.498.165-1.17.295-.589.306-.407.584-.4.57-.136.496-.064.463-.166.429-.295.287-.297.328-.64.186-.644.043-2.269-.544-1.752-.242-1.112-.042-.52.096-.52.58-1.258.621-.88.595-.531.826-.376 1.34-.305 1.294.114.293 1.022 1.394 3.172.327 1.034.074.697-.056.241-.674 1.025-1.764 1.178-.652.944-.227.946-.013.95.128.952.41 1.128.56.613 2.056 1.074 2.028.125 1.454-.185 1.56-.41 1.909-1.116.48-.497.405-.832.205-.882.022-.637-.282-1.076-.898-2.117-1.783-3.226-.473-1.54-.157-.844.126-1 .264-.78.28-.493.834-1.06 1.014-.728.373-1.143-.02-.576-1.056-2.237-1.64-2.83-1.172-1.617-.295-.684-.162-1.528.09-1.124.1-.4.662-1.164.67-.577 1.517-.881 1.004-.171.93.17 1.431.622.557.33.46.34.273.36.993 2.232.167.78-.027.401-.427 1.185-.012.743.13 1.171.308 1.465.755 1.32.239.181 1.18.368.664-.027.426-.182 1.01-.432 3.472-2.006 4.39-1.349.63-.362 1.25-.996 1.26 1.522 1.447 1.199.609.302 1.245.135.625-.373.553-.827.21-.74.027-.404-.18-.625-.112-.172-1.408-2.155.555-.649 1.282-.941 3.59-1.894 4.656-3.274.286-.464.287-.85.3-1.318.07-3.19-.246-1.296-.265-.695-.344-.635-.61-.736-.894-.549-2.916-1.431-.625-.504-.78-.945-.917-.403-.523-.347-.943-1.112-.302-.555-.746-2.077 65.562.73 1.582.024 5.498.031 8.403.003 5.609-.105 2.81-.054h2.753l12.619-.013 20.988.073 2.745.068 1.08.071 8.188.015 12.97-.13 21.321-.252 3.019.025 6.537.054 2.788-.098.022-.004 17.727-.292 1.483-.014 14.485-.148 6.03-.273 5.667.075 4.411-.074 5.744-.1 49.92-1.012.013-.004 14.074-.205 2.676-.053 16.615-.35.675-.033 8.472-.218.218.85 1.87 3.089 1.212 1.403.633.937.666 1.39 1.762 4.146 1.155 2.101 1.346 1.51 1.067.888.488.38 1.866.986 3.994 1.463.343.356-1.125 15.557-1.077 12.625-.206 4.25-2.013 19.667-.543 6.472-.077.276-.088 1.179-2.016 22.946-1.101 15.52-.034.422-.944 11.609-.266 3.662-.124 1.612-1.215 14.148-.075 3.135-.42 2.85-.162 2.866-1.012 11.54-.436 5.71-.42 5.483-.427 5.662-1.979 22.627-.008.236v.022l-1.147 12.527-.568 7.073-.41 2.964-.115 2.726-.605 7.15-.42 4.951-.259 4.05-.015.585-.185 2.518-.03.157-1.326 17.127-.013.436-.132 1.356-.112 1.582-.056.788-.074.405-.575 7.184-.275 3.425-.082.787-3.388 43.79-1.026 13.184-.363 3.447-.226 3.756-1.77 21.74-1.2 16.056-.948 12.183-.826 10.585-1.768 25.027-.67 7.044-1.233 16.684-.008.054-.757 9.553-1.45 18.248-.486 6.997v.022l-1.155 13.744-.194 1.205-1 12.863-.895 11.547-.41 4.44-1.002 10.83-.007.144-1.974 23.517-.208 2.466-.01.169-1.853 21.076-.025.575-.584 7.206.172 3.693.334 4.691.02.086.65 11.897.872 13.518.213 4.818v.014l1.09 14.608.05.465 1.584 24.049.319 3.688.18 4.378.345 4.678.213 2.885-.002.077.854 12.87.005.023 1.51 20.473-.01 1.145.196 3.106.023.237 1.516 22.996 1.53 22.505.017.187.023.374 1.556 24.511.196 1.723 1.612 26.101.048.764.016.274.187 3.48.064 1.321.464 7.504.394 6.34.127 1.06.034 1.783.93 15.516.021.34.11 2.05.313 4.447 1.863 28.286-.375.356-.286 1.398.368 1.186.517.449.043.637-1.223 1.014-1.503.487-1.587-2.331-2.61-.094-2.15 1.428.019 2.02-1.21 1.639-3.085 1.989-1.42.364-4.283-.541-.25-.18-.038-1.003-2.845-2.489-2.386-.597-5.405 2.858-2.455-.257-3.22-5.055-2.238.563-4.29-1.103-4.524-.373-6.296 3.795-4.893.283-3.137-.943-4.343-3.496-6.95-3.806-.439 1.844-.726 3.046-10.748-5.063-.571-.508-.187-.563-1.577-.26-4.856-.018-8.495.705-7.778 1.472-11.532 3.287-17.85 7.557-5.801 1.79-8.87 3.473-2.405.495-.987-.033-.525-.859.424-4.113.685-1.026 1.088.236.279-3.571-2.213-3.162-3.914-1.934-3.607.3-.864.23-1.467.388-.655.444-1.821 2.295-.387 1.049 3.5 1.704 1.226.11 1.096 1.016 1.787 3.718-.03.882-1.267 2.413-2.551 1.96-2.385.875-1.243.809-2.376 2.92-.725.525-6.156 2.73-.907 1.796.028 1.263-1.016 3.19-2.94 3.647-.063 3.964-2.311 2.138-.402.162-1.077-.465-1.057-3.065-.763-.437-1.712 1.225-2.275.935-3.399.004-.292.467-.602-1.593-.435-.702-.505-.52-.92-.2-.485.082-.953.464-.364.302-.311.482-.659.684-1.317.685-1.37.424-.747-.28-1.095-.902-.869-1.183-.278-.622-.262-1.023-1.356-2.306-.798-.862-1.11-.2-.52-.2-.33-.28-.574-.742-.19-.482-.019-.381.207-1.565.311-1.245-.018-.621-.347-.562-1.335-.5-.531-.371-.844-1.039-.076-.644.175-.314.098-.077.153-1.025-.133-1.879-.155-.621-1.08-1.077-1.004-.53.3-3.233.225-.593.091-.105.98-.196.445-.216.938-.988-.067-.24-.567-1.115-.092-2.389.116-1.273-1.138-.938-1.54-.833-.072-.639-.188-.237-1.036-.608-.778-.196-.533-1.398-.334-1.559-1.371-2.236-.454-1.372-1.104-2.147-.783-1.178-.074-1.357.31-.07.2.301.178.019.28-.523-.345-2.987-.247-1.032-.272-.177-.223-.912.343-1.26-.1-1.199-1.099-1.499-.055-.076-.994-.724-1.024-.37-.645-1.449-.691-1.102-.106-.09-.402.159-.585-.058-.649-1.076-.263-1.09-.591-.659-.266-.132-1.458-.435-1.342-.52-.072-.278-.623-.784-1.12.023-.896-.584-.076-.107-.048-1.425-.293-.541-1.304.146-.319-1.376-.127-1.186-.154-.486-.636-1.722-.724-1.1-.117-.054-.646.106-.783-.08-.432-.117-.477-.179-.26-.126-.01-.178.028-.136.214-.03.35-.1.052-.547-.492-1.008-1.422-.273-.179-.197-.009-.339.183-.459.23-.164.21.002.616.397.736-.273.406-.448.066-.25-.107-.188-.718-.428-.94.059-.655.239-.419.12-.317-.092-.027-.16.233-.648-.493-2.536.34-.221.112-.302-.857-.83-.738-.036-.366-.21-.224-.53.025-.289.431-.82.457-1.05.112-.314-.251-.17-.263-.011-.754.296-.342-.22.156-1.246.264-.758-.095-.312-.315-.598.897-2.24-.646-2.002-.533-1.08-1.418-1.621-.48.042-.848-.246-1.873-.542-.063-.347.296-.368.287-.083.047-.154.245-.812.387-.928 1.413-3.17.227-.117-.06-1.676-.377-.896-.214-.022-.417.284-.322.04-.397-.33-.11-.41.133-.221 1.644-1.767.737.162.327-.184.348-1.738-.858-.35-.56-.09-.105-.2.017-1.29.246-.32.279-.14 1.311.079.797-.003.696-.135.169-.128.073-.283-.117-.142-.478-.12-.677-.066-.439-.267.051-.995-.356-2.22-.622-1.837 1.232-2.396.565-1.79-.06-.515.07-.267.33-.54.276-.163h.195l.423.455.07.349.157.431.087.288.247.082.668-.206.285-.305.07-.205-.034-.184-.229-.165-.142-.107-.262-.202-.387-.493-.105-.123.053-.185.177-.184.337-.142.609-.387.097-.147.628-1.431.13-.947-.062-.78.24-.354.2-.124.146-.033.838.253 1 .885.6-.4.212-.428-.48-1.45-.487-.651-.444.033-.172-.103-.063-.229.12-1.167.45-1.222.832-.228.351-.048.064-.145-.122-.46-.486-.717-.106-.322.059-.304.118-.15.299-.118.494.164.687.509.368-.08.149-.203.648-1.83.03-.343-.077-.163-1.67-1.403-.203-.354.106-.741.253-.436.283-.08.93-.15-.337-1.593-.261-1.321.078-.294.19-.157.294-.052.884.494.752.124.34-.202.29-.324.061-.423-.534-1.027-.306-.075-.347-.228-.14-.508.042-.325.275-.364.547-.278.34.029.57.438.686-.025.574-.573.33-.623.06-.327-.122-.367-.52-.191-.318-1.285.21-.598-.008-.214-.2-.374-.984-.755-.122-.48.038-.308.88-1.582 1.302-1.402.079-.3 1.274-1.31.3-.069.433.158.353-.022.22-.055.166-.174-.002-.461-.221-.286-1.316-.66-.18-.326.045-.207.166-.148.64-.044.285-.322.098-.475.383-2.239-.147-.212-.593-.004-.374-.238-.223-.82.946-.005.32-.24-.003-.268v-.026l-.251-.298-.493-.18-1.591.274-.58.236-.344.412-.335.125-.392-.028-.11-.098-.087-.333-10.892-.068-1.398.001-1.865-.005h-.063l-3.577-.014-6.121.042-.821-.034-4.372.075-.69-.002-7.793-.028-.449-.062-5.106.037-2.877-.004-1.262.014-3.608-.027-13.268-.062-.51.02-5.615-.065-.068.008-16.2-.085-14.762-.1-.208-.002h-.002l-3.779-.04-1.907.07-7.1-.076-.808-.004-1.793-.014-.747-.01h-.129l-5.397-.087-.314.007-.231.002-1.467-.025-.15.007-10.391-.155-3.343-.053-2.787-.036-.159-.002-.5.01-.222-.012-10.251-.132-.422-.012-14.22-.188-.013-.002-4.134-.147-1.803.008-1.135-.045-.662-.005-.663-.011-7.185-.121h-.034l-11.727-.291-28.252-.492-1.375-.026-2.142-.05-4.66-.101-.03-.006-11.58-.342h-.012l-8.168-.22-.132-.003-3.694-.156-30.234-.757-.363-.015-12.226-.371-.467.048-6.585-.345-14.743-.434-2.016-.117 2.057-1.119 3.216-1.058 2.774-1.116 2.099-1.278 1.182-1.108 1.304-1.788.586-1.427.168-.649.108-.915-.191-1.358-.451-1.194-.575-.687-4.47-4.378-2.46-2.094-.874-.586-.629-.613-.486-.599-.715-1.345-.067-.446.194-1.912.12-.616.166-.363.454-.61 3.09-3.416.791-.979.48-.76 1.008-1.883.453-1.073.075-.483.01-1.578-.073-.436-.085-.51-.793-1.673-1.076-1.348-3.88-3.608-3.212-1.766-1.246-1.688-.44-1.503z"/></svg>