<svg height="1000" width="1000"><path class="americon" d="M943.724 396.398l.87-.561 1.367-.046 1.516.227.539.484 1.205.44.24.156 1.497.971-.33.466.016.12.053.37.046.326.062.435.917.182.504-.333.057.02.312.113 1.014 1.413 1.019 1.42 1.37 3.422-.206 1.013-.03.145.56 2.752.282 1.378-.59.877-.402.008-1.638-1.106-3.099-.443-.813-.821 1.513-1.198-.019-.233-.148-1.825-.087-1.06-.352-.932-1.106-1.577-.328-.052-.591-.093-1.864-2.194.02-1.037-.163-.195-.445-.535-2.365-1.178-.432-1.027zm2.996 97.778l-.016-.242.463-.185 1.284-.513.371-.203.277-.477.651-.22.871.021.652-.604.46-.412.544-.29.2-.362.167-.301-.022-.356.263-.26.218-.213.048-.047.175-.471.538-.776.54-.341.019.087.092.443V488.863l.163.292.098.177.048.125.096.249.01.025.089-.025.034-.01.418-.118.162-.045.02.015.247.172.943-.444.78-.587.565-.369.283-.032.224-.026.026-.022.423-.353.279-.234.135-.177.501-.657.654-.553.033-.074.212-.479 1.301-.825.878-.645.194-.55-.126-.757.056-.31.92.399.812.304.912-.11.437-.361.553-.103.506-.095.01-.004.424-.157.489-.18.624-.22.436-.362.485.018.257.01.419.162.368.143.087-.122.123-.173-.17-.627.07-.49.45-1.69.108-1.054-.263-1.258.132-.698.072-.803.001-.019-.318-.565-.139-1.318.103-.746.168-.547-.093-1.396.337-.685.181-.247.243-.328.09-.123.016-.028.371-.66.297-1.269.163-1.005-.15-.703-.137-.526.136-.646.075-.769.159-.673-.105-1.19.011-1.35.302-1.572.063-1.71-.026-1.905-.091-.605.043-.486.145-.493-.13-1.186-.305-1.124-.126-.754-.176-.344.102-1.506.268-.932.693-.657-.032-.476-.014-.206.174-.8.01-.124.026-.352.031-.417-.126-.39-.002-.007-.07-.73-.012-.13-.005-.048.16-.566.104-.365.044-.156v-.049l.002-.658V441.206l.005-.751.002-.266-.15-.4-.182-.484-.04-.106-.033-.498-.004-.058.003-1.471-.228-.746.073-.79-.56-1.18-.59-.848-.535-1.18-.17-.406-.34-.807-.184-.438-.212-.898-.457-.78-.016-.607-.454-1.488-.036-.404-.057-.643-.008-.086-.608-.77-.35-.33-.392-.936-.018-.059-.138-.45-.103-.334-.1-.492-.083-.402-.042-.204-.074-.146-.283-.556-.079-.154-.122-1.08-.166-.494-.152-.452-.155-.463-.237-.516-.1-.243-.133-.327-.159-.39-.292-.587.208-.291.353-.024.508.554 1.02 1.732.715 1.408 1.49 3.39.899 2.446.797 2.453.66 2.286.812 3.417.661 3.023.134.604.414 1.87.273 2.043.006.532.02 1.498.006.527-.34 2.868-.05.426-.012.094-.37 2.827-.024.188-.393 3.408-.041 2.647v.187l.012 3.537.002.577.054 3.915-.441 3-.149.923-.353 2.195-.025.158-.528 3.759-.007.082-.03.315-.294 3.183-.34 3.517-.007.062-.024.438-.074 1.361-.046.175-.094.356-.415 1.31-.13 1.9.015.714.009.41-.675-.544-.577-.376-.315-.205-1.68-.386-.101-.024h-2.098l-.037.008-2.573.514-.224.071-.04.013-1.762.563-.094.03-.212.068-1.808.633-.801.28-1.897.95-.23.114-2.202 1.073-1.195.546-.902.412-1.754.98-1.38.718-.979.445-.023.01-.611.039zm-26.882 17.287l.445-.718.369-.278.748-.352.101-.157.146-.227.317-.494.555-1.033.157-.274.145-.256-.042-.114-.122-.334-.02-.053-.085-.077-.238-.212.18-.42-.1-.84-.02-.332.624-.567.008-.008.234-.025.275-.03.446.178.047.024.455.228.01-.003.471-.19.044-.017.19.103.39.213.056.031 1.144-.58 1.219-1.046.42-.36.189-.162.45-.13.33-.096.25-.164.717-.468.068-.045.15-.086.065-.038.273-.158.313-.18.205-.118.133-.077.64-.39.171-.103.291-.177.207-.126.05-.03.508-.307.448-.27.138-.084.13-.078.233-.14.405-.132.145-.047.124-.04.104-.034 1.321-.598.05-.023.323-.353.372-.406.393-.166.226-.096.207-.087.385-.163.263-.111.223-.094.19-.082.702-.3.112-.048.392-.168.732-.493.103-.07.385-.408.205.022.4.041.013.002 1.467-.68.513-.8.026-.41.192.063.33.11.102.006.31.019.075.13.067.117-.232.372-.35.505-.002.003-.725.276-.315.13-1.207.501-2.231 1.161-2.967 1.718-2.253 1.263-2.196 1.362-3.11 1.953-2.649 1.977-1.98 1.603-1.918 1.83-1.284 1.28-.553.622-.063.67-.65.294-.317-.22-.057-.04zm-30.36-30.784l-.108-.25.241-.246.188-.457.005-.319-.148-.172-.068-.294.2-.021.384.032.09.282.32.217.252.156.12.238.105.377.14.258.187.298.162.247-.232.235-.218.097-.275.217-.193-.033-.597-.223-.445-.178-.2-.16zm-1.957 61.955l.152-.255.278.006.273.099.245-.24.01-.382.323-.15.187-.556.268-.18.307-.232.15-.286.26-.138.172-.246.307-.242.081-.21.351-.37.114-.572.157-.533.24-.703.267-.405.222-.094.164.186-.063.364.09.14.255.16.381-.195.023-.016.344-.25.24-.528.45-.415.388-.443.088-.283.213-.258.331-.142.256-.22.23-.135.067-.282-.02-.163.195-.206.277-.22.294-.079.278-.375.34-.378.261-.292.28-.355.421-.373.224-.238.218-.146.261-.497.132-.234.263-.271.233-.435.482-.591.244-.23.208-.34.351-.153.228-.352.243-.26-.017-.297.28-.345.068-.24.137-.316.297-.222.217-.35.275-.221.316-.429.348-.204.17-.266.275-.057.179-.112-.098-.272.135-.347.194-.216.16-.276.26.068.292-.11.05-.392.258-.169h.36l.252-.065.3.035.312-.315-.089-.293-.053-.398.084-.333.22-.29.314-.264.26-.323-.007-.307.258-.343.248-.158.302-.479.353-.297.33-.142.138-.12.472-.366.286-.2.269-.519.445-.117.071-.374.191-.257.007-.596.246-.373.464-.334.532-.03.141-.398.284-.242.187-.319.39-.186.275-.395.08-.405-.218-.213.126-.315.108-.273.109-.252.232-.24.111-.21.214-.208.216-.35-.124-.188.077-.282.393-.289.405-.095.374-.103.47.137.286-.006.422.027.6.263.75.572.46.312.129.28-.062.363-.025.023-.422.402-.015.011-.89.657-.906.483-.06.044-.423.307-1.06.661-.706.584-1.585 1.558-1.484 1.532-1.863 1.932-2.96 3.114-2.8 2.88-1.441 1.641-1.462 1.664-1.789 2.093-1.104 1.274-1.55 1.576-1.85 1.798-.225.225-.918.917-1.382 1.31-1.314 1.45-.985 1.04-.462.427-.182.061-.168-.063zm-22.613 19.29l.22-.243.776.014.445.133.858.113.49-.024.274.322-.128.549-.077.224-.104.301-.17.009-.165.008-.389-.033-.652-.123-.441-.055-.49.024-.327-.346-.015-.31zm-.093 11.57l-.06-.63.21-.34.149-.07v.001l.034.454-.01.446-.108.523.16.54.357.293.763-.058.368.117-.113.233.164.178.491-.127.275-.521.124-.41-.035-.516.377-.329.246-.457.13-.524.573-.95.372-.845.28-.625.21-.972.474-.665.062-.406.29-.397-.257-.401-.358-.323.057-.167.043-.128.506-.211.353-.38.212-.93.234-.498.348-.265.224-.683.47-.52.254-.095.118-.326.332-.389-.288-.378.036-.312.464-.23.352-.4.161-.483.29-.407.354-.132.41-.289.32.015.274-.303.059-.261.302-.356.378-.288-.046-.287-.013-.464.165-.215.237-.198-.154-.405-.196-.196.144-.42.043-.153.097-.34-.135-.426-.112-.16.156-.38.506-.2.097-.336.266-.044.542.106.298.191.407.072.21-.34.304-.088.096-.356-.12-.314-.097-.284.18-.329-.124-.396-.07-.172.113-.201.492-.449.566-.029-.029-.37.026-.29-.005-.11-.012-.22.318-.242.212.113.899.025.204-.227.431-.249.323-.543.358-.637.295-.49.09-.448.305-.273.306-.274.09-.128.169-.236-.071-.378.059-.446.511-.274.443-.198.203-.269.52-.099.118-.315.336-.276.296-.448.293-.304.035.277-.267.415-.519.718-.775 1.133-.86 1.176-.459.625-1.225 1.621-1.293 1.773-.161.22-.711 1.028-2.164 3.396-.1.157-1.281 1.8-1.645 2.593-1.311 2.06-1.358 2.188-1.08 1.77-.284.487-.573.983-.619 1.282-.65 1.688-.805 1.716-.659 1.337-.365.99-.255.697-.177.826-.233.737-.66-.983-.893-1.126-.497-.845-.228-.63zm-4.128-11.803l.772-.063.652.149.489-.05.895.344-.082.443-.347.301.092.306.6.174.16.047.211.093.018.36.256-.037.878-.018.752.067 1.341.476.1.435-.03.44-.25.194-.534-.362-.682-.199-.809-.167-1.361-.372-.113-.027-.698-.167-.914-.213-.786-.22-.352-.345-.16-.613-.187-.688zm-8.433 3.6l.256.054.404-.139.013-.005.01.001.488.038.22.052.217.02.25.268.159.065.297-.056.845.177.175-.018.628.166.657.341.611.24.337.128.394.24.59.23.814.157.3.234.427.042.286-.283.16.096.282.276.24.277.342.222.585.116.371.189.678.329.103.212.274.09.491.328.623.26.405.02.773.17.15.303.297.16.434.186.382.199-.042.623.068.338.205.373.002.248-.136.193-.228-.02-.37-.158-.352-.417-.447-.682-.57-.665-.655-.485-.883-.505-1.062-.569-1.677-.663-1.491-.477-.953-.254-1.33-.36-1.18-.254-1.44-.252-.731-.183-.608-.395-.523-.347-.499-.277zm-46.752 7.666l.006-.012.08-.157.234-.092.012-.217-.055-.34.1-.117.048.03.142.087.155-.007.312-.219.023-.187.285-.114.256-.062.178-.224.386-.17.274-.125.57-.21.23-.215.268-.01.266-.074.054-.023.454-.193 1.052-.311.293-.167.664-.21.459-.146.218-.044.49-.098.406-.161.674-.214.416-.192.178.065.048.127.021.056.198.222.052.057.207.012.345-.148.304.09.242-.144.235-.071.372.005.269.01.487-.217.062.002.197.008.306-.106.35-.045.16-.08.264-.134.258-.01h.476l.376-.16.43-.07.516-.032.482-.093.403.004.223-.112.46-.103.566-.124.305-.067.2-.153.19-.025.16-.021.507-.05.213-.022 1.054-.241.151-.038.248-.062.415-.214.47-.361.169-.162.275-.074.368-.099.12.008.067.005.304.1.438.095.245-.062.132-.047.043-.007.204-.035.361-.243.405-.193.182-.1.233.029.192.024.37-.047.012.002.28.047.316-.096.053-.014.08-.02.061-.016.372.005.062-.046.096-.07.053-.038.484-.022.322-.2.103-.053.291-.15.383-.223.248-.225.1-.09.31-.22.276-.072.01-.003.295-.116.302.069.272.07.12-.001.23-.004h.466l.47-.093.37.02.055.002.382-.017.54-.148.333.047.52.037.02.001.335-.108.543.11.018.002.407.041.068-.01.26-.036.067.074.271.304.045-.018.371-.146.57-.212.585-.057.49.07.146-.118.042-.035-.08-.874.027-.185v-.009l.02-.128.38-.049.083.026.294.091.1.02.097.02.011.002.207.242.023.027.167.282.138.303-.013.134-.015.146.205.16.02.016.334-.14.098-.074.192-.145.308-.008h.008l.159-.004.211-.071.246-.084.395.006h.023l.1.001.377.127.249.247.295.122.042.018.072-.132.061-.112-.223-.362-.073-.461.167-.421.322-.18.222.124.405.487.612.715.273.308.337.15.155-.235.365.076.205.187.043.266-.053.178-.15.1-.56-.015-.566.047-.598.028-.505-.015-.299-.042-.547-.077-.776-.057-.829-.044-.477-.034-.332-.004-.59-.007-1.051.01-2.025.124-.117.007-1.784.17-.296.036-1.723.21-1.354.197-.485.07-2.041.353-1.436.247-1.027.204-1.05.201-1.032.197-.183.035-1.936.411-.018.004-1.554.36-.985.227-.127.029-1.393.316-.169.038-.041.01-1.83.441-1.009.229-.776.187-2.668.692-.134.038-1.65.466-.382.108-2.078.659-.026.008-2.35.789-.36.13-1.686.604-.694.263-.584.247-.035.017-.626.3-.483.06-.152-.181zm-7.802 3.126l.21-.173.221-.174.598-.323 1.436-.862 1.067-.496.315-.147.438-.162.352-.272.256-.051.138-.181.054-.199.109-.05.135-.063.484.074.057.008.502.157.149.087-.166.255-.316.245-.02.014-.173.116-.196.277-.78.243-1.021.35-1.241.545-1.066.537-.964.482-.335.189-.216.029-.14-.14zm-6.272 3.838l.233-.133.418-.17.318-.354.685-.502.828-.559.475-.297.514-.092.6-.302.157-.105.498-.333.476-.288.207.024.028.174-.2.174-.751.39-.862.478-.71.389-.728.451-.717.483-.644.49-.455.296-.26-.032zM25.844 505.599l.005-.022 1.279-6.572.16-.822.31-1.799v-.006l.02-.053.702-3.675.006-.03 1.24-5.93.027-.114.437-1.822.582-3.146.433-2.454.056.123.173.042.533-.233.089-.163.836-.839 1.693-.792.325-.54.56-.387 1.088-.396.321-.237 1.004-1.18.461-.37.451-.12.779.21.46.29.603.893.006.185.233.35.037 1.056.137.42.096.14.73.14.373.44 1.066-.004.179-.21.742-.386.193.016.755.366.1-.044.183-.249.391-.046 1.307.055.357.122.338.212.389.388.284.063.196.108.163-.026.09-.177-.078-.494.16-.37.08-.052.138.023.273-.096.125-.166.131-.029.238.132.131.141.018.09.06.095.117.023.234-.059.116-.107.114.12.07-.088.2-.139.143.182.11.014.098.193.086.094.167-.019.272.175.656-.312 1.07-.848.03-.235.205-.282.706-.21.445-.043.768-.32.87-.127.351-.209 1.147-1.014.824-1.29.774-.397.135-.07.501-.354.284-.715-.462-1.077-.223-.163-.656-.264-.065-.124.073-.639.403-.96.016-.158.047-.266.212-.233.14-.347-.169-.44-.12-.063-.392-.14.004-.196.103-.298.184-.154-.412-.697.025-.049.158-.313.168-.008.108-.006.174-.112.043-.087.368-.097.468-.007.142-.031.383-.402.128-.262.49-.658.867-.816.008-.008v-.125l-.001-.825-.097-.412-.023-.098-.132-.234.083-.23.293-.437.007-.092-.551-1.018-.11-.1-.303-.104-.067-.098-.241-.598.004-.425-.117-.308.032-.26.196-.037.374.148.317-.08.355-.418.74-.665.343-.191.277-.327.08-.117.165-.598.195-.376.476-.528 1.039-.48.583-.674.569-.1.026-.479.21-.32.173-.025.335.092.156-.048.45-.503.072-.433.009-.118.004-.053.345.018.248.12.24.39.008-.001.37-.04.722-.458.11-.276.592-.513.793-.177.521-.032.43.086.132.026.297-.009.56-.273.304-.461.179-.602.306-.589.454-.223.148-.26.026-.142-.117-.152.015-.167.662-.646.285-.029.11-.101.93-1.198.225-.564.28-.184.817-.252.658.082.77-.064.562.148.556.28.906-.233.915-.35.474.05.187.123 1.784-1.24.137-.266.719-.624 1.717-.607.741-.362.818-.867.19-.597.752.133.534-.085.304-.123.722.378 1.554-.449.266.323.996.242.298-.17 1.495-.57.355.034.178.124.152.013.309-.073 1.457.044.852-.126.325.197h.728l.35.058.207.138.328-.108.498.156.792.384.532.007.362-.108.154-.13.378-.093.267.178 1.591-.69.735-.658.432.046.303.169.755.753.628.827.045.39.155.153.38.061.613-.13.43-.166.678-.014.714.21.75.113 1.218-.09.698.185 1.465-.017.283.379 2.045.131.747-.457.663-.128.6-1.064.246-.32-.051-.472.03-.07.408-.163.278-.195.024-.017.025-.336.15-.144.944-.235.789-.659.394-.612.615-.71.17-.4.49.042.928.301 1.15-.083.069-.049.08-.24.936-.387.644-.384.275-.129.75-.132.444-.281.495-.918-.001-.162.91-.084.238.044.146-.271.347-.278.167-.037.182.157.234.017.134-.06 1.004-1.053.237-.343.11-.297.002-.3.213-.36.256-.294.254-.113.208.064 1.04-.27.31-.293 1.446.447.306.52.508.586.238.063.885-.152.56-.183.405-.52.322-.662.09-.716.178-.233.876-.373.62-.176.452-.234.257-.497.431-.251.453-.183.357-.338.302-.523.099-.705-.083-.33.134-.402.114-.305-.002-.378-.084-.348.026-.163.467-.452.844-.287.154-.134.183-.397.908.147.998.061.284-.042.312.132.25.19 1.158-.201.374.184.198-.008 1.086-.493.285.007.428-.706.163-.434.397-.633.614-.23.18-.006.646-1.073-.035-.537.065-.162.387-.42.26-.183.537.115.636.04.124-.101 2.065-.255.781.294.724-.474.258-.053.007-.001.077-.016.623-.296.03-.097.247-.094.218.057-.01-.009.011.006.086-.039h.003l.157-.072.086-.038 1.243-.911.108-.277.715-.436.503-.04.177.236.859.273h.262l.348-.17.61-.133.424.268.22.257.228.08.153.002.346-.157.354-.06 1.166.544 1.295.605.657.226.448.638.595.119.404-.082.89-.477.625-.564.452-.52.533-.343.591-.005.15-.236.072-.113-.048-.314.161-.693.317-.351.335-.576.056-.249.445-.808.757-1.064.186-.116.68-.176.01-.002.49-.703.173-.439.471-.264.451-.062.737-.23-.004-.014-.125-.495-.262-.785.245-1.222-.168-.443.1-.602.883.046 1.191-.459.183-.252.285-.412.12-.31-.385-.144-.38.088-.284-.503.327-.442.217-.334.021-.347-.253-.55-.1-.816-.245-.26.177-.293-.314-.696-.425-.364.309-.19-.012-.161-.023-.307-.111-.237.031-.265-.368-.028-.352-.423.05-.154.604-.128.377.383.603.145.349-.146.15-.209.15-.165-.053-.297-.175-.676.397-.943.16.072.458-.045.952-.467 1.06-.395.362.115.131.194.882.463.875-.164.276.189.859.843.121.21.67.717.317.284.125.012.28.437.31.96.07.094.622-.244.556-.335.218-.045.426.035.236-.228.022-.144-.277-.695-.03-.21.042-.133.62-.776 1.32-.89.09-.06.02-.014.294-.907.008-.43.097-.175.16-.131.578-.219.34-.643-.147-.258-.225-.131-.181.045-.156-.035-.37-.445.098-1.206.01-.112.654-.561.12-.58.15-.228.146-.16 1.143-.313.663-.118.496.016.477-.195 2.005-1.4.429-.093.293.056.993-.544.074-.185-.001-.346.055-.22.558-.1.264-.048.47-.274.237-.248 1.316-.473.373-.423.107-.386.134-.136 1.149-.497.503-.298.615-.24.583-.18.253.068.501-.178.32-.267.412-.345.696-.353.515.042.384.492.978.839.134.256-.106.386-.041.546.48.105.4.219.34.528.338.172.115.246-.026.26.182-.028.426-.017.423.14.09.28.009.223-.45.277-.586.476-.178.173-.254.378.091.45-.05.07-.393.114-.145.122-.144.502.181.167-.108.242-.374.254-.222.184-.061.153-.098.413.17.834.04.07.587.205.25.648-.284.36-.51 1.28-.098.39.046.526.046.029.104.064.17.106.77.226.587-.062.311-.119 1.152.173.337.196.074.65.153.123.789.414 1.004.27.543-.85.396-.454.788-.444.326-.12.019-.007.481-.075.383-.28.915-.114.224-.144.454-.149.404.06.596-.204.18-.017.58-.607 1.408-1.1.005-.01.171-.083.126-.06.114-.127.034-.314.138-.194.87-.252 1.06-.78.42-.148.008-.011 5.074-8.207.833-1.348.555-.52 1.589-1.132.227-.058.79-.203.202-.446.355-.347.445-.08.515-.137.614-.356.002-.003.064-.123.574-.493.557-.168.154.162.16.103 1.06.093.484-.24.33-.047.39-.207.045-.024.393-.005.355-.159 1.036-.679.16-.253.482-.341.561-.259.016-.004.861-.24.103.045.81.903.176.048.49-.093.314.25.228.086.326-.059.262-.313.339-.453.426-.007.32.044.138.203.447.198.193-.135.141-.098.127-.194.207-.356.415-.25.144-.09.103-.102.077-.123.192-.162.525-.442.383-.424.201-.612.138-.272.384-.101.492-.143.273.026.658.286.308.29.255.306.393.371.35.174.185-.16.297-.115.062.145-.006.117.136.254.062.238.11.136.11.097.233-.015.153.088.205.151.24-.171.095-.217.185-.135.307-.011.879.05.529-.179.783-.13.067-.012.367.71.28.999.017.059.406.985-.031.664-.176.533.69 1.75.061.049.295.23 1.254.033.517-.243.14-.066.396-.099.388.267.323.08 1.329.023.592.066.016.002.047-.103 1.36-.655.617-.115.604-.964.019-.417.207-.35.01-.019.316.07.75.162.605.59.432.098.069.016.486-.487.282-.627-.026-.132.836-1.37.318-.522 1.944-3.191 1.108-1.82 1.552-2.551.036-.06.559-.918 1.216-2.002 2.387-3.537.67-1.12 1.688-2.823 1.13-1.893 1.125-.66.327.049.78-.228.85-.56.348-.285.21-.397 1.234-1.383.055-.049.58-.52.69-.325.566-.348.475-.366.867-.487 1.13-.145 1.016-.25.504-.377.8-.48.386-.063.072-.14.097-.187.224-.117.034.575.224.256-.005.294.004.209.003.157.105.355.078.012.475.073.29.015.256-.118.405.559.191.152.135-.02.273.179-.004.161.412.326.311-.185.276.03.264.153.241.259.33-.006.114-.082.247.076.357-.04.44-.197.09-.04.388-.405.512.255.304-.02.22.149.134.064.106.13.267.05.27.348.118-.01.413.033.603.138.019-.085.04-.184.113-.157.087-.434-.239-.55-.09-.056-.477-.052-.431-.164-.407-.457-.165-.476-.1-.394.045-.407.018-.441-.189-.607-.506-.694-.11-.508-.22-.223.12-.316.303-.106.163-.34-.079-.11.004-.31.182-.31-.239-.357-.299-.098-.505-.05-.031-.455.071-.378-.101-.055-.105-.023-.007-.102-.06-.087.009-.146.087-.071.06-.42-.18-.378.152-.278.353-.044.188.175.12-.033.003-.097.104-.197.366-.055.091-.289.178-.084.043-.2.335-.062.067-.223.284-.028.073-.177.252-.62.049-.21-.365-.478.713-.383-.083-.193.145-.37-.3-.33-.02-.165.397-.239-.036-.504-.072-.312v-.002l.04-.5.72-.621.76-.23.193.041.134-.096.287-.39.008-.01.109-.696-.025-.154-.146-.14-.057-1.205.18-.883-.088-.24-.03-.358-.017-.025-.083-.12-.17-.11-.019-.32.035-.05.22-.407.076-.105-.043-.347.014-.117-.162-.404-.009-.18-.045-.168-.042-.135-.181-.675-.42-.654-.075-.118-.04-.784.052-.53.838-.047.015-.375.277-.593.41-.598.413-.383.115-.484-.087-.489-.196-.404-.02-.398.252-.376.393.12.68-.065.314-.26-.002-.48-.164-.593-.025-.265-.056-.596.284-.327 6.219.354 1.76.1 6.826.952 1.471.204 2.207.172.29.038.796.105 1.357-.132 1.89.317 1.66.278.763.057 6.255.468 2.242.07h.016l3.086.08 1.677.041 4.71.298 1.3.133 4.776.258.2.01 2.642.142.57.134 1.833.173h.005l1.223.116 1.772.093 2.23.193 2.103.182 1.463.07.73.034.032.001.315.015 4.94.472.79.126 1.924.072 4.106.15.171.023h.012l4.418.288h.012l.34.027 6.305.485.033.002.058-.003 1.47-.055 1.996-.074.449.02 2.707.122 2.99-.104 1.536-.054 2.662.065.915.09 2.52.246.85.083 1.076.104h.003l1.883.108.246.015h.003l.846.048 1.328.098h.002l4.277.314.746.055h.002l3.619.263.273.02 1.623.117 3.175.228.032.002 4.18.298.779.057.106.012 5.589.418 4.278.317 4.355.32h.047l1.905.034 5.041.086.298.02h.008l4.334.115 1.135.03.137.003.205.007h.014l4.943.136 2.66.04 4.516.063 2.735.037 4.084.044 2.156.022.055.004 3.513.037 1.368.014.993.01.633.007 1.368-.027.45-.009 2.261.033 2.536.037 1.268.017 2.255.031 3.38.045.387.005 3.68.046.455.006 1.782.021 4.963.058h.05l3.952.051 2.397.03 9.213.106.715.008h.032l1.496-.01 2.744-.019.44-.003h.018l2.058-.015.028-.003 4.69.007h1.197l4.854.003h.016l8.312-.006 1.394-.002 3.248-.053.588-.01.368-.006.083.002h.187l6.277-.04.924-.007 1.239.022.14-.005 15.198-.152.77-.009.13-.005.63-.002h.124l2.203-.009.026-.005 2.276-.002h.5l.092-.001 1.34-.007 5.59-.032 5.418-.037 1.174-.012.779-.008 1.095-.012.175-.002.735-.024 2.534-.034 5.432-.076 1.258-.018.703-.005.883.006 3.02.022 2.156.014.968-.011 5.939-.073.642-.008.344-.002 2.062-.041 3.467-.19.597-.033.024-.002 1.443-.043 1.646-.053.508-.006 5.496-.16 6.24-.188 6.209-.168 1.852-.051.127-.012 1.127-.015 3.793-.051 6.788-.098.044.003.336-.008 2.542-.068 6.171-.169h.001l.708-.02.05.002 3.24-.09 11.185-.32.1-.003 1.818-.056h.025l.714-.021.762-.026.973-.032 3.076-.104 5.94-.206.536-.018 1.817-.064 1.141-.03 9.73-.26 6.102-.17 1.115-.032h.028l8.08-.238 2.532-.076 10.614-.333 7.917-.26 4.556-.154 2.566-.088 2.448-.085 1.555-.264 2.135-.23.543.108 1.243.245 2.91-.1 2.27-.148.83-.055 2.693-.09 15.405-.542.58-.021-.145-.284.01-.611.106-.18 11.356-.297 2.685-.125h.004l2.713-.092.585-.02 1.18-.132 2.425-.105 8.573-.382 5.98-.273h.002l1.826-.059 1.702-.055.03-.002 5.201-.31 2.731-.163 9.235-.438 6.618-.322h.002l8.339-.448 2.933-.16 1.237-.068 4.275-.237 3.104-.174 9.13-.52.834-.035 7.2-.418.198-.011.24-.014.062-.004 3.208-.203 1.104-.065.25-.015.231-.014.218-.013.135-.008.248-.018.72-.052.095.007.134-.021.563-.034.062-.003.553-.034.093-.005 1.323-.08 1.281 5.73.172.77 1.674 5.73.367 1.258.857 2.931.001.004.214.808 1.583 5.97.415 1.564.21.631 1.812 5.419.85 2.54.631 1.64.375.971.333.865L936 357.1l.063.162.36.932.006.018.103.266.912 1.843.638 1.29 2.635 6.419.007.013.192.405.896 1.887.124.262 1.227 2.584.852 1.517.012.021.055.098 1.646 2.93 1.5 2.396.21.335 1.822 2.907.963 1.535 1.732 3.228 2.01 3.741 2.833 5.267 4.113 7.633.86 2.048 1.284 3.058.058.136.63 1.202.825 1.57.17.325.022.04.693 1.268.157 1.21-.136.178-.167.22-.192-.055-.452-.13-.322-.417-.245.032-.213-.087-.075-1.289-.432-.528-.584-.092-.621-.384-.272-1.065-.4-.017-.195-.113-.035-.311.104-.482-.422-.361-.271-.512-.08-.157.187-.375.35-.346-.119-.356-.444-.314-1.524-1.368-.663-1.058-.64-1.835-.353-.86-.745-.446-1.006-1.362-.59-.385.008-.779.002-.174.034-.062.057-.098.885-.622.035-.025-.012-.03-.314-.8-.06-.612-.128-1.283-.001-.013-.685-.998-.584-.85-.414-.604-.002-.002-.016-.022-.317-.426-.45-.605-.85-1.142-.075-.102-.163-.055-1.535-.516-.142-.035-.103-.026-.491-.123-.185-.22.011-.556.007-.33v-.01l-.32-.51-.014-.021-.292-.462-.023-.038-.002-.001-.29-.283-.015-.014-.04-.037-.645-.603-.333-.05-.202-.031-.992.392-.964-.53-.638-.551-1.705.082-.27-.486.264-.438-.12-1.494.441-.367 1.294-.22-.1-.785.426-1.007-.676-.764-.316-.356-.009-.01-.051.038-.357.264-.284.045-.454.072-.045.008-.264.192-.272.491-.514.016-.104-.634-.084-.515-.013-.079-.001-.008-.38-.765.055-.624.065-.752-.096-1.095-.188-.925-.254-1.252-.007-.036-.02-.064-1.198-3.774.025-.603.164-.186.097-.098.34-.343-.063-.62-.075-.738-.027-.274-.395-.9-.146-.332-.85-1.66-.068-.413-.065-1.035-.634-1.74-.581-1.704-.423-1.06-.215-.54-1.048-.36-.33.52-.954-1.042-.164-.214-.353-.459-.454-1.494-.987-.802-.091.185.022-.894.27-.67.386-1.083-.45-2.222-.713-.844-.75-.016-1.419-.101-.939-.887-.37-.597-.688-1.792-.135-.579.543-1.131.767.103 1.7 1.057.07-.716-.244-1.533-.095-.942-.94-1.104-.009-.548.268-.727-.583-.763-1.481-.77-.1-.22.625-.586.079-.952-.02-.747-.966-.303.296-1.489.075-.383.144-.739-1.338-.492-.784-.8-.277-.88-.653-.085-.602.347-.636-.145-.58-.468.04-.948-.62-1.594-.598-.45-.345-2.198-.172-.093-.626-.339-.608-.032-.435.094-.686.52-.34-.07-.909-.96-2.003.007-1.895-.308-.218 1.203-.793-.8-.783-.203.691-1.384.095-.925-.653-1.827-1.06-.262-.32-.802-.416-.324-2.082-.038-.854-.016-.077.825.389.698.272.407.029.943-.894.45-.747.415.29.73.006.026.129.588.334.627.31.63.246.978 1.402 3.029.907 1.4.921.677 1.505.57 1.036.116.385-.669.446.398.694 1.205.469 1.323.435 1.211.318.883.295.088.821.245-.003-1.745.38-1.023.409-.576.039-.842.813.276.469.135.464 2.123-.202 1.238.773 1.37-.012.762-.567 2.037.064.77.647 1.04.264.148.638 1.121.516 1.196 1.197 1.809.944 3.36.703 1.098 1.003.188.39-.199.421-.216.484.146.462.196.077 3.344-.693.119-.691.567.196.763.532.118.09 1.25.279.304.394 1.339 1.083.725.164.277.381-.762.535.969 1.046 1.964.26.986-.326-.006-.745-1.131-.466.153.13.461.015.122.253 2.042.832 1.064.903.49.28.083.122.343-.307.36.244 1.602 1.316 1.32.86 2.048.529.149.03.5-.278.77.055.9-.002.376.667.636.776 1.62.088.184-.214.19-.32.12-.153.36.242.306-.619-.083-3.72-2.356-1.563-1.156-2.216-3.256-.044-1.757.213-1.262.007-1.128-1.155-1.694-.485-1.413-1.392-1.015-2.395-2.413-.732-2.66-.74-1.424-2.99-1.617-.983.348-.54.19.442.42.4.667.822 1.228.6 1.723-.932 3.24 2.188 2.114 2.085.954.626.61.1.415-.964.004-.476.193-1.527-.16-5.992-1.289-2.351-.946-.22-.242-.628-.926-.233-.811-1.763-1.076-.437-.716-.085-.53-.528-1.346-.513-.191-.534-.2-2.212-.284-.356-1.32-1.003-.494-1.012-.773-.362-1-.24-.711-.634-.164-.257-.56-1.338-.864-.551-.207-.313-.117-.018-.007-1.844-.004-.835-.214-.407-.13-.115-.705-.775-.457-1.292.121-.772.492.254.74.191.56.007.043.012.084.102.682.07.068.463.459.106.105.02.02.086.085.056.069.688.845.357.58 1.733-.237 1.221.59.867.854.381 1.536.878.952.605 1.417.151.346.308.704 1.09.24 2.906 1.372.357.824.339 1.305.708 1.888.974 1.699.181.686-.48.747-.756.512-2.163.695-2.444.577-1.011.238-2.167.25-2.078.942-.874.074-.488-.224-.85.046-1.001-.845-1.118-.616-.898-.98-.212-.691-1.278-.937-.566-.846.125-.354-.381-.326-.197-.168-1.168-.363-.208-.333.011-.934-.591-.293-.63-.094-.567.183-.423-.428-.393.008-.383.008-.155.384.213.387.013.552.25.06.51.125.143.794.468.26.583.66.897.378.574.42.175.467.92 1.11.103 1.115.837.854.149.697.95.876.919.301 1.096.793.924.176-.51.504-1.01.33-.713.742-1.162-.08-.466-.334-.493.295-.53-.065-.342-.432-.794-.308-.236.288-.702-.464-.57.106-2.281-1.018-.466-.64-.898-.38-1.324-.182-.589-.444-.476-.476-.467-.301-.596.106-.759-.135-.348-.254-.069-.05-.8.016-.758-.11-.504-.05-.61.332-.87-.017-.642-.578-.39-.81-.568-.816-.32-.867-.393-.227-.748-.43-.471-.513-1.26-.637-.473-.451-.672.084-.86-1.158-.337-.233-.697.06-.561-.197-.324.065-.109.022-.063.013-.122.402-.155.51-.023.079.014.014.119.12.041.041.34.34.008.008.453.454.717.315.003.003.078.079.552.562.172.918.586.196.49-.042 2.49 1.995.725.675.17.632.62.104.703.708.127.593 1.11.62.686-.312.517-.177 1.439-.074.16.918.505.074.127.52.38.056.802.484 1.375.405.7-.062.705.063-.11.758-.747.514-.677.088-.557.38-.003.383-.88.184-.325-.179-.197-.39-1.103.008-.831.345-1.498.228-1.523.63-2.105.407-.331-.094-.414-.117-.03.697-.015.384.455.554-.66.523-.538.116-1.127 1.036-.767 1.219-.488.275-.792.835-.461.71-.244.77-.136.513-3.246 1.058-1.54.855-.729.629-.043.037-3.332-.314-1.885-.01-.993.25-.81-.112-.9-.962-.542-.587-.003-.003-.003-.363-1.112-1.203-.3-1.542-.193-.895-.348-.124-.086-.03-.017.004-.553.148-.372.62-.319.693-.51.35-.72.712-.444.172-1.302.145-.967-.359-.223-.448-1.417-.16-.808-1.26-.646-1.008-.307-.612-.16-1.171.41-.497-.237-.767-.237-.791.42-.697-.09-1.4-.225-.304-.096-.132-.39.243-1.033-.103-.553-1.373-.206-.973.01-.853-.632-1.248-.579-.417-.165-1.603.121-1.66.099-2.306-.061-.81-.042-.553.4-1.883.332-1.06.586-.853.456-.606.447-.345.124-.096.266-1.287 1.555-2.657.315-.679-.301-.56-.849.014-1.174-.676-.673-.388-.14.231.361.783.094.761-.798.77-.28 1.453-1.294 1.293-.03.225-.218 1.666-.27-.092-.416-.331-.356-.134-.243.136-.032.402-.385.342-.316 1.865-.478.497-.057.953.364.86-.422.62-.03 1.126-.025.978.24.89-.223.612-.018 1.277.09.95.007.073.329 1.188.264.865.582.675.423 1.034.546 1.003.213.817.438.256.467.709-.053.677-.215 1.339.09.322-.204.486.232.692.212.793.226.542.567.878.274.514 1.344.65-.233.58.29.84.124.522.15 1.073.053 1.153.312.029.42.038 1.173.398.256.766.272 1.396-.292.215-.25.467-.742.91-.528.553-.666.282-1.333 1.092-.525 1.156-.104 1.59.446.1.503.113.449.1.625-.632 1.047.329.425-.062.075-.011.991.245.5.465.558.159.678.175.55.162.89-.343 1.416-.369 3.41-.158.425-.433.055-.012 1.711-.348 1.395-.13.594.02.841.03.02.004.485.1.181.039 2.643-.637 1.258-.498.929-.367 1.078-.742.693-.647.62.17 1.095-.4.518-.384 1.051-.606 3.62-1.429 1.783-.63.724-.112.771.338.93.958.035.677.31.454.812 1.004-.426.343-.439.274.065.273.345.36.489.201.219.341.168.578.077.265.376-.02.104-.054.215-.113.394-.171.399-.071.317-.193-.016-.301.517-.228.336.183 1.091.17.618-.063.414.06.505-.438.578-.5.102-.459 2.623-2.252.511-.362.871-.14.248-.54 1.248-.168 1.505-.559.105-.382.806.032 1.385-.427.282-.368 1.554-.498.712.098.871-.173.497-.103.527-.029.35-.472.671-.43.653.035.895.047.791-.245 1.694.61.52-.13.843-.223 1.903-.132 1.951.133.65.071.245-.29.698.06.574-.082.93.425 2.087 1.314 1.1.766.918.876.629 1.073-.387.155-.145 1.01-.257 1.725.594.696.288.638-.483.355-.296.546-.463.254-.33.396.149.775-.532.457-.728.923-.476 1.363.042 1.862-.681.62-.552.485-.458 1.197.172.612.007.83-.1.434-.163.69.074.167.244.547-.044.558.256.515.62.697.13.497.498.476-.072.358.133.32-.263.495.145 2.972-.118 1.017-.048.938.505.88.335.993.134 1.103-.29.574-.058.762-.396 1.034-.435.354.24.669-.104.385.289.186.31.564.44-.278.305.463.483.049.183.546.1.424.316.106.248.444-.412 1.913-.27.328-.074.784-.084.874-.08.812.418.66.646.216.55-.108.432-.43.499-.13.504-.485.577-.97-.08-1.08-.009-.127.353-.784.339-.272.07-.536-.013-1.088.475-.533-.101-.88-.218-.696.296-.574-.111-.6-.325-.411.07-.915.489-.736.12-.968.398-.554.073-.914-.032-1.059.246-1.414.287-.64-.378-1.303.164-.629-.324-.815-.398-.304-.557-2.097.289-.766.375-.501-.003-.48.602-.918.456-.834-.35-.812-.649-1.172-.46-.982-.01-.453.505-.13.244-.57-.167-1.124-.56-1.284.806-1.118 1.208-.347.373-.297 1.411-2.563 1.067-.86.625-.095.959-1.24-.414-.605-.946-1.102-.47-.142-.504-.58-.514-.217-.05-.31 1.093-.738 2.694-1.286 1.331-.412h1.66l.742-.22.387-.265.665.08.398.047.92.221 1.736.48 2.93 1.285.486.66.016 1.035 1.123.543.353.524 1.063.438.042.674.181.495-.09.636.231.335.268.39.067.004.612.047.054.004.336.13v.363l.001.144-.172.386.035.096.139.381.231.253.211.23.051.057.058.55.005.05.006.008.342.43.597.098.047.008.632.44.06.307.014.066-.202.29-.084.123-.001.013-.049.788-.006.099.544 1.12-.03.179-.228 1.35.958.798.963.874.818 1.627-.56.476.093.676.356.432-.047.458.075.399-.149.438-.45.483.002.834.357.861-.08.738-.3.303-.409.474.167.647.653.742.12.7-.147.49-.212.24.03.479.518.6.875.652-.028.356-.252.825.363 1.343.17.698.853.68.145 1.104.081.881-.497.538-.367.605-.7.55-.785-.001.266-1.004-.143-.675-.52-.625-1.02-.518-.645-.213-1.006.113-.312 1.082-.265.22-.446.559-.12.918.671.617 1.36.295-.567.238-.298.905.138.599.435.48.367.61.584.42.504.373.515.12.504-.437.431.77.147.765.323.714.212.545-.074.435-.928.565-.366.631-.268.575.098.755-1.243.407-.601.519-.188.24-.665-.086-.445.18-.405.431.17 1.106.908 1.003-2.29.806-2.702.675-1.516.026-1.652-1.634-.625-.267-.033-.962-.425-.735-.995-.523-.956.168-1.252.219-.326.907.478.352.46.91.35.335.077.426.209.52-.773.19-.54-.085-.385.353-.587.365-.062.663-1.026.24-.641.317-.138.668.154.447.656-.064.581.016-.428.432.04.657-.533.438-1.233.607-1.457.264-.829.582-.454.484-.107.337.256.467-.619.969-.644-.412-.455.027-.279.448-.385.353-.164.67.402-.075.645.166.295.375.505.341.194.546-.098.375-1.03.404-1.208.655-.44.28-.654 1.292-.162.865.167.677-.232.827-.32.604-.281.423-.657.522-.397.608.16.576.195 1.159-.096.973-.55.617-.166.213.104.478-.806.148-.423-.28-.165-.653.1-.49-.338-.54-.408-.027-.186-.575-.8-.183-.472-.253-.652.165.032.558.132.527.64.497-.559.032-.55.185-.26.32.515.556-.31.374-.751.221-.08.386.36.514.01.611-.578.135-.584.033-.126.466-.237.319.277.391.328.06.231.367.526-.157.76-.07.246.292-.106.252-.381.133-.383 1.321-.851-.18-1.325.457-.444 1.146-.715-.01-.69.395-.312.492-1.002.168-.967-.43-.662.012-.587.44.144.757.597.655-.342.37-.769.278-.4.608.367.618-.585.032-.384.43-.872-.168.759-.49.162-.748-.622-.653-1.377-.46-.988.106-.397.66-1.042.056-.288.322-.343.248-.269-.24.058-.819-.763.042-.442.304-.485.46-.221-.32-.05-.455-.733-.827-.245-.751-.768-.545-.532-.404-.72-.114-.642.217-.433.147.003.068.043.795.616.553.19.56-.44.763-.634.254-.463.382-1.165-.32-1.338-.78-1.145-.388-.472-.255.014-.689-.447-1.224-.755.167-.543-.15-.27-.291.021-1.046-.422-.767-.698-.192-1.35-.515-.54.384-.177.519-.569.335.191.729.322.314.187.169.468 1.147.463 1.071.052.991.302.902-.948.381-1.13-.17-.99.586-.571.285-.423-.769.14-2.224-.563-.047-.746-.14-.286.455-.115.661-.577.442-.965.3-.377.096-.054-.558.005-1.402-1.153-.12-.247-.297.344-.803.05-.512.757-.14.647.196 2.681.626.766.521.78.316.462-.431-.215-.702.379-.555-.774-.673.03-.409-.859-.363-.513-.075-.47.279-.298-1.334-.983-.815-.065-.76.831-.17.282-.957-.453-1.376-.75-.75-.814.24-.64.19-.862.554-.155.949-.405.555-.448.684-.432.531-.523.23-.044.639.37.745-.327.602-.603-.86-.705.163.08.581-.569-.175-.267-.75.03-.41-.482-.484-.353.069-.127.515-.64-.579-.458-.002-.558.028-.188.315.595.708.278.979.521 1.247.194.73-.268.323-1.215-.352-.757-.37-.662-.501-.6-.81-.35-.365-.65-.808-.526.178-.18.277-1.655-.848-.928-1.19.625-1.52.007-1.355-.559-.397-.351.094-1.188-.194-1.467-1.584.75-.8.552-.128.303-.04.427-.631-.65-.299-.517-.466-.749-.998.084-1.426-.11-.706-.534-.508-1.491-.617-.748-1.053 1.193-.007.597-.257.684-.035.779.345 1.186-.16.979-.225 1.2.152 1.016.501.89.007.89-.157.32-.151.555.068.57-.308.887-.717.468-.62.258-.42-.169-.829.36-.884-.27-.364.176-.542.649-.919.405-.326.023-.56-.906-.36-.094-.35-.373.097-.24.063-.168.364-.435.018-.377.577-.284 1.435-.244.375-.981.486-.675-.284-.69-.093-.588.435-.53.56-.83-.34-.78.114-.282.47-.605-.427-.845-.161-.617.655-.58-.724-.936-.462-1.23-.246-.744.133-.036.006-1.062.077-.495.252-.11.2-.264.477-.073.01-.533.07-.436.41-.17.16-.39.366-.643.893-.447.463-.4.415.46.613.646.224.787 1.054.191.83.558.507 1.264.397.612.234-.223.458-.262.902.124.477-.097.615-.12.692-.287.37.43 1.555 1.21.833-.228.545.406.514.36.266-.04.584-.12.667.197.398.326-.092.45.894.111.708.103.555.48.46.187.704-.296.157-.85-.178-1.117.079-1.097-.584-.8-.242-.766-.04-1.111-.354-1.877-.395-.755-.372-.674-.808v-.535l-.193-.321.181-.467-.294-.317-.258.1-.192.074.05.506-.27.217-.52.33-.658.111-1.545-.442-.83-.369-.898-.696-1.3.381-.718-.01-.993-.03-.507.048-.161.364-.777.264-.673.485-1.105-.99-.947-.136-.08-.07-.608-.535-.89-.289-.07-.023-.903-.293-.462-.15-.359-.117-.444-.407-.06-.054-.027-.062-.244-.539-.179-.396-.415-.05-.198-.025-.83.67-1.636-.212-1.42-.39-1.14-.484-1.154-.23-1.43.007-.577.003-.73.158-1.79-.864-.997-.72-.52-.284-.319.268-.75-.211-.52-.396-.53-.47-.209-.185-.5.198-.232.03-.349.045-.62-.279-.604.051-.383-.544-.588-.712-.23-.17-.076-.056-.058-.043-.957-.708-.031-.028-.203-.187-.397-.364-.254-.233-.054-.184-.084-.286-.098-.332-1.622-1.204-.601-.48-.297-.238-.296-.237-.406-.325-.063-.055-.094-.081-.29-.252-.108-.003-.603-.02-.184.134-.186.135-.081.51v.001l.586.687.665.151.245.396.708.58 1.299 1.345.168 1.008-1.036-.49-1.218-.612-.2.084-.067.307-.04.18.267.24.45.544.454.54.779.426.675.296.78.534 1.051.846 1.971.351 1.328 1.738.283 1.002.21.743.006.018.29.961.027.056.222.443.819-.492 1.913-1.047 1.582-.587.645.926 1.23.698.02.012 1.622.465.995.669.796.17.81-.112.864-.012.961-.118.798.22 2.367 1.928.123.328.085.76.25.06.41.096.918.436.76.5 1.072.055 1.849-.21.076.557.257.194.12.272 1.931.473 1.446.444 1.981-.116.776.805 1.072.613.93.096 1.442 1.628 1.17.48.718-.041.578.516.823.166.56-.452 2.55-.052.61-.029.595.922.507.784.927-.325 2.473.009 1.85.292 1.433.11 2.227.706 3.54.411.775.216.28.496-.206.47-.901-.16-.496.28-.142 1.257.695.629-.408 1.041.724.704 1.138-.21-.226-.958.556-.105.83.693-.014.313-.698.34.307 1.032.52.204.14.764-.598-.23-.942-.464-.337.91.178 1.012.57.661-.762.09-.76.14-.462.457-.572.309.578.84.615 1.068.227.645-.476.517-1.03-.69-1.496-.284-1.108-.712-1.664-.071-1.233-.145-.99.662.598.737 1.079.126 1.195.402 1.138 1.324.905.21.28.498-.45 1.224-.304 1.114-.84.067-.302-.42-.08-.584-.718-.138-.413.526-1.685-.57-1.217-.746-1.257-.093-.784.166-.442.379-.351.144.006.665.334.571-.488-.053-.273.167.096.404-.321.246-.261-.116-.208.47-.63.184-.343.323-.73.265-.558.078.049.642.087 1.142.77.065 1.359-.474 1.061.257.448.797.508-.076.947.006.273-.704-.05-.484-.302-.445-.166-.248.835-.731.804.242.348-.221.414.108.201.45-.06.361.397.262 1.21 1.195.366.699.343-.324.44-.431.373.602-.594.637-.37.837-.523.793-.584 1.155-.163 1.391-.614.542-.103 1.03-.281.55-.789.116-1.265.317-.666.545.33.445.004.65-.217.795-.233.498-.639.569-.622.389-.886.221-1.277.65-.771.499-.368.35-.007.385-1.103.863-.684.4-.374.552-.058.085-.284.336-.348.411-.627.467-.087.007-.493.044-.358.017-.615.567-.553.328-.246.145-.226.186-.056.047-.303.25-.16.581-.21.494-.397.275-.127.596-.867.117-1.09.307-.717.597-1.201.671-.94.115-.056.007-.675 1.04-.34.341-.367.747-2.095.493-.517.345-.51.341-.045.03-.254.653-.249-.365-.108-.158-.187.002-.323.003-.995-.35-1.657-1.217-.139-.102-.383-.39-.404-.41-.51-.369-.391-.281-.61-.44-1.078-.606-.186-.02-.253-.027-.413-.06-.935-.857-.723-.687-.899-.629-.412-.649-.84-.4-.56.075-.033.412-.61-.487-.537-.034-1.024-.614.09-.162.393-.401-.122-.457-.597-.23-.45-.175-.088.222-.545-.156-.122-.457-.464-.73-.25-.393-.062.013-.3.063-.095.02-.516-.107-.208-.043-.002.001-.415.109-.166.043-.355.092-.558-.464-1.104-.672.006-.487-.529-.31-.637-.616-.398-1.078-.948-1.42-.141-.669-.37-.266-.559.1.033-.25.004-.031.06-.466.018-.2.017-.211-.237-.49-.042-.088-.307-.576-.054-.1-.478-.442-.149-.505-.063-.144-.19-.435-.296-.346-.385-.036-.274-.45-.449-.34-.648-.203-.553-.413-.61.101-.022.042-.168.324.063.189.02.056.062.184.535.463.394.34.118.434-.158.519.154.054.105.038.792.582.189.262.788 1.094.064.983-.185.176-.012.011-.137.415.015.03.07.143.2.403.079.161.046.093.036.074.36.22.034.02.34.519.176.267.058.088.988.37.152.583.008.082.085.939.707.66 1.078 1.01.605 1 .476.417.477 2.16.56 1.364.072.465.08.527.3.544.79.976 1.552.931.017.01.511.307 1.118.936.08.066.597.77.932.352.112.041 1.325.574 2.024.876.227.504-.033.25-.025.19.603.282 2.26-.02.7.324.873.404.023.159.024.165.027.186.179.044.444.109 1.625-.457.553-.281.955.164.8.015.767.565 1.834.68 2.976 1.59.387-.144.397-.148.078-.544.767-.086.155-.547-.228-.504.504-.202.416.083.405.445.74-.111.875-1.12 1.018-2.437.805-.37 1.464-.017.289.118.444.182.145-.302.183-.382.043-.721-.192-.274.04-.305 1.125-.74.417-.826.472-.33 1.272-.265 1.533-.69 1.337.04 1.377.345 1.814.863 1.212.12.373-.967-.625-.535.036-.31.648-.416.753-.345.164-.405.908-.263 1.344-.322 1.69-.166 1.47-.324.27-.091.215 1.094.591.536.792.936.714-.087.31-.163.44-.234.08-.466-.703-.244-.302-.861-.306-.472-.334-.523.15-.466.752-.503.195-.702-.666.007-.145-.326.32-1.069.438-1.267.357-.516.307-.015.297.806.576-.773.697-.42-.375-.827-.341-.675-.742.037.44-1.458.213-.856.739-.13 1.041.86.375.315.052.535.516.564.63-.212.49.214.403 1.15-.216.859.266 1.192 1.002.539.17.3-.855-.163-.321.248-.422.278.205.502-.446.819.445 1.183.132.584.474.233.65-.354.316 1.665.18 1.018v.488l-.763 1.17.348.908.54 1.41.805-.35.632-1.214.606-.211.347.753.286 1.579.588-.415.553-.39.224-1.142.415-1.409-.31-1.037.121-.134.363.054.264.613.65.165.738.373.13-.957.752.628.896-.116.315.182.412.517.583-.159-.023-.435.306-.058.3.822.591.509.5-.746-.194-1.249-.822-.73-.218-.723-.512-.7-.725-.603-1.252-2.347-1.147-1.311-.751-.643-.152-.454.473-.281 1.3.396 1.862.723.691.45 1.165.27 2.754 1.306 4.842.923.613.465-.265 1.273-.367.816-.61.598-.602.263-1.365-1.493-1.549-1.124-1.01.31-.85.43.696.928.519 1.166.715.886 1.282.908.175.864-.177.55-.258.45.216.683-.668.473-.691.062-.567.467.238.605-.137.828-1.738-.317-1.463-.926-.6-.174-.423.28-.509.103.006.803.002.328.792.396-.594.443.393 1.11.778.114 1.315.06.383.156-.575 1.163-.624.782-.088.166-.02.04-.364.684-.046.086-.033.022-.404.26-.306.198-.315.377-.354.121-.173.627-.996.079-1.047.082-.275.022-.922.751-.235.67-.353.22.115.532-.452.23-.734-.246-.305-.422-.367-.625.251-.63.438-.487-.006-.617-.575-.665-.634-.328-.028.04-.308.44.094.82-.216.808-.193 1.246.174.892-.211 1.776-.346.416.349.781-.304.608-.353.147-.63-.74-.378.173-.394.355-.27.787-.253.58-.752.424-.06.017-.525.142-.02.118-.14.792-.705 1.964-.343.954-.033.091-.027.076-.29.628-.511.433-.095.08-.086.982-.674.837-.525.336-.037.801-.285-.011-.02-.412-.312-.552-.578-.1-.228-.04-.151.6-.484.128-.324.222-.729.398.236.369.245.484.236.108.53.241.283.502-.054.468.37.678-.137.365-.31-.007-.318.04-.016.003-.083.417-.368.38-.237.424-.33.12-.433.125-.018-.024-.203-.275-.186-.005-.078-.003-.073-.001-.416-.036-.154-.014-.39-.16-.058-.024-.031.043-.26.358-.354.213-.095-.052-.686-.38-.144-.08-.506-.31-.004.002-.13.083-.216.138-.558.208-.515.025-.998.204-.756-1.229.056-.441.36-.044.277-.658-.237-.574-1.03-1.61.163-.493.715-.04-.066-.822.22-.243-.363-.576-.586.155-.141.267-.887-.19-.455-.71-.239-.855-.528-.704-.05-.067-.701.165h-.004l-.253.06-.42.098.003.032.039.663.286.76-.228 1.171-.08 1.01.148.948-.385.586-.268.322.24 1.171-.238.507.048.107.27.6-.518.516.003.038.056.656 1.294 1.152-.37.808-1.761-.255-.74-.107-.566-.122-.217-.047-.648-.047-1.579-.081-.315-.418-.025-.033-.465.012-.138.004-.25.3.036.515.116.19.034.055-.143.08-.004.003-.233-.128-.494-.33-.313-.514-.076-.273-.25.025-.214.021-.939.12-.036-.028-.297-.22-.019-.013-.677.21-.121.037-.214-.087-.04-.132-.049-.154-.015.003-.234.046-.123.04-.086.027-1.479-.354-.098-.003-.654-.02-.482-.015-.09-.003-1.008-.03-.459.147-.921-.336-.527.037-.744-.03-.073-.014-.194-.037-.413.056-.809-.077-.75.135-.221.01-.373.016-.084.004-.431-.082-.857-.025-1.1-.127-.756-.005-.662-.16-.424.116-.073.02-.572.175-.554-.013-.49.034-.826.099-.648.14-.227-.002-.469-.08-.439.031-.682.23-.39.018-.46-.17-.153.032-.16.032-.086.098-.138.153-.256.286-.405.2-.434.121-.015.005-.013.001-.47.046-.33.15-.066.03-.549.249-.408.156-.434-.12-.232.119-.064.032-.136.333-.501.36-.592.013-.341.253-.663.104-.18.221-.613.089-.302-.29-.158-.018h-.006l-.082.167-.273.389-.254.262-.355.229-.575.1-.416.294-.574.299-.348.255-.311.088-.218.21-.135.07-.358-.112-.072-.211.017-.215-.145.028-.163.03-.03.006-.26.145-.296.105.014.339.124.272-.077.28-.13.068-.2-.13-.257-.128-.198.071-.16.095-.155.233-.116.231-.038.317-.186.095-.361.065-.305-.109-.213-.537-.23-.394-.083-.007-.12-.01-.11.395-.018.02-.153.156-.046.047-.298.17-.14-.09-.21-.205-.245-.167-.288.05-.045.14.314.592-.084.104-.417.094-.058.013-.21.122-.328-.03-.063-.005-.231.08-.249.087-.037.013-.017.006-.41.063-.028.004-.15.092-.297.182-.35-.028-.249.086.047.212-.005.112-.002.04-.33.025-.687.053-.247-.047-.578-.11-.522-.13-.463-.247-.436-.5.02-.139-.09-.105-.398-.468-.26.111-.348.14-.34.013-.032.06-.05.094-.381.217-.168.317-.04.005-.295.037-.117.232-.055.203.186.245.174.27-.44.345-.388.078-.628.037-.657.223-.14.047-.092.218.246.167.167.07.018.162-.166.258-.191.176-.417.415-.449.446-.674.492-.455.294-.552.524-.971.543-.532.26-.897.626-.297.15-.066.124-.24.455-.402.72-1.456 1.544-.95 1.083-.858.863.123.248.199.245.304.052.366-.354.2-.033-.085.6-.197.142-.662.48-2.15 1.629-.625.472-4.558 3.961-1.634 1.028-1.057.767-.256.186-.015.012-.713.564-7.095 4.076-5.526 3.504-3.083 2.121-.302.234-1.628 1.26-.858.665-4.156 3.214-.383.325-.226.192-2.093 1.781-5.593 5.597-1.66 1.63-.005.005-.345.34-.477.322-.651.44-.294.198-2.322 2.436-2.558 3.448-.275.295-2.576 2.749-1.142 1.652-1.044 1.51-.33.477-.064.09-.003.004-.136.19-.579.808-.265.37-.147.206-1.503 2.538-.476.804-1.845 3.112-.082.138-1.642 2.767-.106.179-1.304 2.939-.342.849-1.335 3.313-1.424 3.53-.142.581-.112.459-.389 1.034-.249.848-.414 1.41-.152.519-.52 1.77-.108.368-.224.765-.475 1.615-.678 2.306-.9 3.063-.067.226-.448.565-.034.117-.289.978-.55 1.863-.949 2.227-.791 1.857-.164.384-.173.556-.21.672-.311 1-.323 2.33-.008.055-.245 2.827-.002.013-.037.425v1.353l-.253.118-.97-.64-2.768-.941-1.028-.675-.476-.676-.073-.31.081-.066.383-.313.5-1.036.256-.295-.62-.253-1.214-.498-.402-.164-.736-.204-.307-.086-1.24-.343-.395-.11-1.14-.316-.543-.151-.229-.08-.99-.35-.283-.101-.566-.112-1.018-.202-.025-.005-.943-.187-.102-.02-.954-.237-.037-.009-.6-.149-.553-.059-1.247-.134-1.21-.13-2.674-.108-1.832-.075-4.229.21-.018.002-.9.09-.62.062-.163-.07-.419-.18-.25-.092-.007-.003-.218-.08-.916.15-1.374.168-1.744.213-1.678.172-.656.067-1.986.203-3.151.484-.662.102-.031.005-.702.19-.526.142-.342.093-.943.063-.79-.112-.065.017-.417.108-.006.001-.27.07-.44.402-1.233.445-2.215.684-.468.144-1.037.379-5.334 1.942-.011.004-.35.128-2.343.851-.137.075-1.161.633-2.187 1.191-.092.05-.58-.585h-.001l-1.306-1.316-1.617-1.63-.09-.09-.705-.71-.725-.732-.01-.01-.61-.616-.092-.093-2.541-2.565-.002-.002-.608-.598-.916-.9-.006-.005-2.311-2.273-.01-.009-.14-.138-1.217-1.198-4.492-4.566-.82-.711-.231-.27-3.088-3.085-3.291-3.292-2.758-2.762-.399-.4-1.538-1.542-1.739-1.744-.006-.006-3.104-3.117-1.944-1.954-.203-.204-.159-.158-1.49-1.485-.277-.277-1.966-1.962-.575-.574-.733-.732-4.644-4.642-1.118-1.12-.834-.833-1.59-1.593-5.164-5.18-3.148-3.163-4.144-4.175-3.75-3.786-.03-.03-.905-.916-4.306-4.356-.143-.17-.013-.012-.748-.735-.267-.273-1.52-1.555-.077-.078-2.147-2.197-1.016-1.04-.533-.546-2.768-2.978-1.271-1.368-2.18-2.348-.093-.097-.993-1.03-.724-.75-.176-.219-.706-.738-.579-.611-2.363-2.495-.808-.809-.006-.006-5.264-5.279-.567-.568-3.334-3.35-1.056-1.058-.169-.145-.047-.04-.757-.648-.312-.249-.834-.981-.003-.003-1.182-1.216-1.596-1.588-1.53-1.524-.133-.133-1.322-1.325-2.38-2.39-.03-.028-.754-.718-3.809-3.796-1.393-1.39-1.242-1.24-1.109-1.108-.285-.288-1.054-1.064-3.377-3.41-1.385-.028-.23-.006-.297-.007-2.098-.046-3.445-.076-.088-.006-1.961-.035-1.062-.02-.084.002h-.015l-4.175-.001-6.33-.008-2.021-.069-.226-.007-3.918-.135-4.47-.164-1.755-.064-.967-.036-.706-.027-1.379-.052-1.537-.057-1.657-.068-.039-.002h-.001l-3.225-.122-.467-.003-2.252-.084h-.02l-.085-.002-3.485-.132-1.896-.073-1.145-.044-3.241-.127-4.387-.174-.461-.018-5.378-.17-1.078-.034-1.203-.039-1.701-.055-3.213-.106-5.392-.18-1.856-.084-.015-.002-.138-.016-.125.004-.684-.043-.968-.039-1.18-.06-.327-.016-.313-.014-3.635-.113-.712-.023-.863-.078-2.907-.07-3.792-.093h-.002l-3.129-.11-3.318-.118-.516-.02-.009.003-.023-.001-1.988-.09-.21-.007-1.946-.063-.706-.023-1.405-.047-.929-.03-3.713-.125-4.854-.165-.64-.022-2.148-.065.073-.538.088-.654.162-1.203 1.136-8.442.322-2.393.007-.05.238-1.774.026-.195-.652-.93-.704-1.005-.278-.397-.559-.796-.356-.509-.033-.048-.744-1.063-.055-.08-.252-.36-.223-.32-.252-.36-.015-.022-1.035-1.555-.923-1.386-1.139-1.712-.002-.004-1.351-2.031-.641-.965-1.128-1.699-.358-.538-.002-.003-1.37-1.899-.842-1.166-.027-.037-.002-.004-.012-.016-1.392-1.941-1.154-1.61-.403-.563-1.327.989-1.193.887-2.248 1.485-.637.42-.548.361-.002.002-2.627 1.732-3.12 2.054-.88-1.414-.592-.66-.17-.262-.031-.048v-1.416l.135-1.7.062-.138.532-1.18.225-.329.39-.225.686-.156.306-.069.265-.198.247-.512.043-.26-.043-.49-.37-1.17-.224-.5-1.214-.66-.064-.081-.012-.21.006-.02.397-1.35.085-.184.3-.354.108-.06.061-.11-.079-.086-1.409-.152-2.197-.238-1.658-.18-.008-.002-1.77-.193-.166-.014-2.037-.174-.9-.077-4.554-.392-.009-.001-3.114-.27-.557-.049-2.619-.229-.25-.022-2.527-.201-.027-.003-.112-.009-.106-.008-.206-.017-2.278-.182-4.009-.324-4.137-.336-.01-.001-7.7-.645-.049-.004-.408-.035-.31-.026-.529-.045-.196-.017-.967-.082-.585-.05-.34-.03-2.505-.215-.093.005-2.43-.199-2.277-.187-.75-.062-2.964-.245-.954-.079-2.987-.272-.571-.052-1.062-.097-2.35-.216-3.654-.337-3.8-.353-2.384-.184-2.672-.207-.498-.039-.46-.036-.3-.023-2.888-.226-4.496-.398-1.478-.131-1.778-.16-4.75-.365-.737-.057-4.682-.435-3.438-.322-.67-.051-1.078-.083-2.35-.18-.938-.072-4.413-.341-1.771-.19-3.511-.38h-.001l-3.079-.224-.018-.001h-.001l-.967-.059-.923-.119-1.066-.13-.452-.052-1.766-.2-.455-.051-.322-.036-.287-.032-.466-.052-.042-.005-.806-.109-.48-.065-1.556-.21-1.282-.195-.576-.088-.66-.01-.156-.003-.646.133-.467.27-.297.17-1.28.193-.694.174-.145.036-.11.048-.234.36-.609.373-.38-.055-.38-.244-.009-.299-.224-.224-.103-.007-.449.194-.16.002-.066-.037-.098-.31-.35-.23-.595.003-.372.061-.863.142-.2.147-.043.213-.004.235-.098.191-.524.365-.25.027-.2-.11-.37-.312-.296-.339-.25-.37-.02-.382.14-.188.248-.24.063-.28-.163-.565-.312-.723-.007-.382-.654-.673-.267-.014-.312.271-.88 1.105-.867.216-.692.273-.24.187-.545.698-.448 1.276.227.162-.023.136-.106.274-.166.015-.252.044-.123.242.016.337-.06.147-.208.11-.165.237.04.22-.113.068-.213-.021-.22.242-.43-.054-.484.09-.25-.131-.73.246-.035-.382.324-.41.364-.325-.065-.131-.006-.012-.063-.126-.123-.365-.139-.01-.476-.119-.872.415-.464-.023-.404-.135-.85.176-.376.152-.385.345-.493.658-.381.185-.54-.42-.136.018-.141.234-.202.185-.383-.135-.167.014-.315-.063-.096.05-.043.048-.173.046-.045.153-.09.25-.161.025-.501.25-.442.124-.225-.063-.331.145-.148-.01-.083-.192.165-.315-.022-.08-.051-.112-.403-.178-.108-.11-.364-.052-.132-.194-.124.163-.27.098-.361-.03-.284.289-.055.195.116.428.157.16-.317.214-.266.091-.233-.107-.318-.008-.271.177-.157.31-.278.304-.473.188-.452.178-.257.033-.12-.087-.444-.128-.23.015-.487.49-.623.133-.443-.197-.789-.045-.3.09-.158.084-.063.105-.397.166-.347.065-.424.53-.19.322-.291.214-.383.02-.396.023.059-.276-.086-.23.037-.134-.28.013-.118.006-.078-.305-.257.234-.24.464-.366-.015-.38.073.026.355-.199.173-.486.312-.495.139-.596-.122-.102-.247-.104.095-.373.291-.12-.138.142-.325.021-.313-.12-.408-.206-.06-.252-.086-.264-.09-.25.26-.377.073.038.436-.041.265-.1.06-.522.052-.132.228-.131.275.134.23.262.22.362.13.002.179.065.154-.226.227-.084.168-.06.118-.608.71-.319.342-.118-.006-.036-.17-.11-.503-.191.207-.362.122-.195.184-.903.422-.55-.074-.316-.16-.383.004-.226.272-.07.179-.082.3-.233.183-.207.161-.225.352-.291.411-.53.07-.586-.351-.325.14-.076.39.085.457-.34.485-.394.19-.725-.064-.621.32-.527.085-.272.043-.473-.38.17-.283.078-.18.013-.232.099-.188.171-.337.038-.073.147-.58-.23-.307-.251-.136-.007-.012-.224-.147-.497.046-2.402.685-9.612 2.417-11.222 2.743-.962.25-1.133.296-.48.125-3.614.94-5.756 1.49-8.814-.417-10.624-.36-.852-.03-2.798-.098h-.015l-1.528-.077-1.533-.078-.283-.014-.117-.006-.061-.003-1.31-.067-1.474-.075-.038-.002-.06-.003-10.819-.563h-.013l-7.16-.384-.893-.058-6.727-.445-.032.724-10.59-.899-3.372-.29-4.408-.309h-.003l-.996-.07-3.33-.237-2.927-.233-3.663-.294-3.224-.26-1.508-.123-.025-.002-2.868-.226-4.53-.358-1.71-.136-.924-.06-7.177-.6-.035-.003-3.482-.294h-.01l-5.243-.466-.293-.026-3.747-.335-4.879-.44-6.494-.59z"/></svg>