<svg height="1000" width="1000"><path class="americon" d="M31.304 479.563l.602-2.692 6.843-5 4.505 4.133 8.73-.134 7.798-5.235.638-.429-.977-7.005 3.505-2.773-1.121-4.8 5.665-5.468 1.578-.57.637-.231 4.008-1.452 7.746-5.37 8.602-4.944 11.617.164 1.038.013 6.925.708 9.467 1.236 5.262-4.853 3.354-.839 8.351-5.861 5.288.735 3.868-5.693 1.003-1.479.1-.146 6.13-.787 4.23-4.672 6.923-1.193 5.25-1.172 7.376 1.155 1.366-1.606 3.348-3.943 4.384-5.908-.712-6.894 1.824-.783 3.609-1.552 4.512 3.352 3.253-3.483 1.177-5.203 5.93-2.994 10.526-5.104 2.19 3.38.99 1.524-2.015 6.623 5.434 3.004 5.486-3.369 4.747-2.921 5.5-8.373.865-1.318 6.813-3.777 5.302-2.103 3.32.947 4.955-3.159.982-.627 7.248 3.349 1.23 4.213 4.915.079h.04l5.527-2.154 7.866-13.164 2.926-4.63 1.808-2.865 1.17-1.857 8.122-5.53 6.689 1.122 6.584.62-1.729-6.702-.813-3.155 4.385-6.912-.099-8.969 2.625-6.555 18.472 1.842 15.272 1.054 18.372 1.218 11.953 1.035 16.67 1.2h.01l6.417.164 14.123.335 9.65.778 17.934 1.405.886.068 14.215 1.1 25.235.604 2.733.059 14.165.25 18.448.274 21.286.248h.033l4.228.01 13.308.012 12.951-.017 8.425-.026 20.456-.11 15.213-.036 6.491-.027 23.402-.153 5.484-.116 13.965-.316 19.906-.505 9.05-.22 15.28-.402 13.844-.397 1.816-.054 47.05-1.405 11.328-.393 2.693-.091 25.769-.933.13-.01.035-.002 18.474-1.383 20.513-.869 5.225-.232 18.583-.863h.002l19.889-1.012 9.962-.532 16.638-.95 3.843 14.861 5.48 18.52 3.143 7.416 6.407 15.076 7.02 11.761 10.62 19.9 6.142 11.953 2.764 5.14L975 439.717l-1.277 26.997-3.631 22.042-10.866 1.409-11.95 5.28-.877.387-16.158 9.294-10.342 8.183-12.836 10.444-9.77 11.372-7.975 7.418-7.844 9.327-6.45 9.573-8.505 17.038-2.18-5.148-7.308-5.527-11.88-2.674-19.374 2.626-22.217 6.748-2.57.774-11.112 6.39-8.646 7.153-15.032 8.965-5.572 4.66-12.797 10.665-8.344 9.404-5.383 6.05-6.884 11.18-7.006 20.096-1.912 5.464-1.979 6.849-2.606 9.001-5.162-.61-1.397-3.908-13.115-2.926-15.361.235-11.88 1.562-17.269 6.98-8.355-8.483-3.894-3.892-17.854-17.923-28.592-28.833-31.337-32.6-9.97-9.985-1.264-1.27-22.996-23.204-1.912-.045-25.055-.65-.356-.01-16.201-.475-26.326-.978-26.107-1.08h-.002l-6.934-.4-18.516-1.104 2.028-14.702-6.07-8.827-6.792-9.906-2.962-4.331-11.726 7.889-1.66-3.805 2.498-6.417-.49-3.181-.054-.35-30.585-2.775-4.236-.396-13.573-1.29-29.343-2.536-11.357-1.019-10.197-.933-7.528-.7-.936-.07-17.982-1.395-8.472-.675-6.157-.827-6.221-.841-4.937 3.02-8.419 2.389-4.915.917-11.799 2.184-6.85 5.565-1.657-.464-2.25-.631-12.518 3.106-12.175 3.04-11.005 2.727-23.078-.982-17.247-.602-7.168-.264-7.635-.29-34.001-2.827-.025-.002-7.397-.636-13.31-1.166L25 507.687z"/></svg>