<svg height="1000" width="1000"><path class="americon" d="M61.548 217.447l78.427 4.903 50.915 2.478 10.3.451 73.89 2.999 22.855.667 46.187 1.092 15.023.31 43.347.694 81 .415 29.069-.056 31.398-.211 45.306-.668 17.467-.344 43.914-1.156 15.26-.473 107.18-4.153 20.339-.995 63.713-3.532.724 9.73 5.574 13.621 5.108 16.643 4.328 10.272 3.005 7.973-4.116 15.31-.127 7.135-.01.563-.028 1.512 2.302 18.076L875 336.032l1.959 15.434-.76 11.562-.242 3.677-.056.841 5.772 13.5 5.117 11.371 4.855 16.408 5.954 15.609 9.346 17.307 5.098 12.774 1.622 4.057 4.36 13.598.658 13.104.531 10.569 4.104 29.277.993 6.989 2.234 15.68 1.777 12.45-.896 12.94 9.787 17.033-1.374 24.604 1.307 15.32.246 10.157.105.2.575 1.08 5.952 11.167 6.084 23.377 8.731 13.381 6.31 6.649 2 18.06 7.004 24.322-1.462 11.469-.126.988L975 765.692l-65.718 4.428-18.538 1.197-39.867 2.4-29.753 1.557-25.612 1.157-3.724.16-7.925.333-43.684 1.78-26.793.672-12.577.345-35.739.851h-.014l-11.07.253-32.03.735-18.464.355-15.368.132-13.586.24-20.589.12-.03.001-34.543.145-18.054-.06-26.083-.033-1.581-.005h-.02l-31.794-.124-43.808-.429-32.844-.499-24.395-.461-30.152-.746-25.916-.728-.262-.007-11.034-.341-30.566-1.047-28.28-1.096-19.54-.81-22.263-.981-7.846-.368-6.802-.327-28.262-1.431-27.459-1.504-28.653-1.664L25 766.748l4.128-60.94.545-8.058 2.328-33.614.372-5.647 1.199-18.225.862-13.106 2.689-39.782 2.447-34.926 2.395-36.526.022-.329.829-11.715 2.62-37.05 2.592-35.88 1.834-30.156.276-4.402v-.002l2.746-43.874 1.637-26.407 1.159-18.7 1.603-24.92 2.44-37.96z"/></svg>