<svg height="1000" width="1000"><path class="americon" d="M26.682 538.13l1.382-16.698.04-.39.015-.026.404-5.376.061-.673.019-.024.064-1.336.727-8.854.001-.013.17-2.028.092-1.444 1.054-13.829.072-.93.16-2.37.022-.288.137-1.621.006-.01.125-1.63.271-3.952.247-3.022.075-1.307.169-2.15.08-.99.583-7.439.39-4.996 1.626-21.419.234-2.91.09-1.243.655-8.162.02-.416.204-2.621.011-.051.047-.52.032-.43.156-2.052.043-.767.567-7.484.153-1.977.425-5.039.081-1.238.01-.491.367-4.146.015-.49.823-11.188.034.003.091-1.159 2.57-33.886 1.225-15.511.009-.109.002-.024.225-2.678.017-.43.188-2.247 1.049-13.967.043-.644 2.605-34.342 6.34.327 2.53.188 4.21.425 11.158.768.167-.002 10.082.775 6.348.384 3.522.346 4.222.28.066-.005 7.12.485.042.003.095.006.012.001 10.26.68 6.51.399 21.224 1.327.124.007 13.36.83 21.324 1.257 31.14 1.652 4.782.222 36.594 1.658h.007l23.773.931 13.937.877 9.015.357 12.79.284 27.634.67.115.009H335.445l18.76.444 4.37.156 3.708.03.596.025 5.285.092 1.926.042 2.09-.013 24.124.438.647-.06 7.398.087.933.002.99-.018 6.305.043 12.007.207.6.009 6.737.06.606.018 8.122.083h.002l7.32.024h.047l.73.008 8.69.081.673.003 2.36.014 4.457.023 1.053.01h.052l2.33.03.946.01 4.166.003h.8l1.017.02 1.014-.028 2.883.027 1.279-.025.619.016.309.013 1.234-.006 2.019-.016 2.598.028 1.674.001.779-.002 1.814-.016.227.016 13.3-.055 3.47-.021.136-.001 4.07-.031.357-.006h1.665l.325.014 7.756-.08 2.18.002.322-.009.255-.008 2.185-.028 6.063-.043 2.592-.036.845.005h.017l2.03-.04 4.018-.017 3.46-.089 1.048.005 1.238-.037.316.025 5.535-.066.19-.012 5.907-.063.04-.018 2.204-.018 3.919-.06 4.384-.06h.01l1.636-.036.329.021 7.772-.157 2.321-.03 3.779-.081 2.25-.045 7.855-.18.195.008 9.697-.218.396.01 6.806-.177.321 1.466.572 1.399 1.231 1.988 1.238 2.209.592.424.327.14.662.681.408.265.133.18.137.627.18.189.455.135.252-.034.282-.123.358-.328.474-.095.569.01 1.345.832.886.438 1.331.535 1.156.71 1.795.74 1.229.636.399.256.464.42.228.29.256.57.114.141.29.281.397.262.66.257 1.006.25 1.272.317 1.81.66 1.199.086 1.034-.062.67.201.207.132.32.474 1.559.973.569.46.243.305.461.318 1.598.84 1.535.686 1.934.577.37.016.436-.044 1.038-.3.511-.148.117.023.956.967.96 1.583.163.15 2.075 1.268.316.293 1.08 1.252.71.472.524.187 1.624 1.294.476.495.185.438.168.722.339.269.523.265.717.082.278.091.511.207.221.206 1.84.193.43.002.744-.286.334.116.225-.006.798-.286 1.512-.724 1.605.118.878-.076.341-.092 1.353-.906.375-.356 1.137-1.462.557-.236.692-.726.39-.569 1.03-1.831.41-.495.162-.305.336-1.271.468-1.301.053-1.162.302-.579.007-.362-.138-.325-.02-.242.15-.612.97-.614.783-.34 1.288-.415 1.134-.189.582-.02.283.167.924.773 1.633.471 1.345.6 1.456.453 1.002.058 1.122-.029.352-.08 3.08.174 2.012.435 1.498.134 1.866-.155 1.064-.264 1.126-.46 1.14-.584 1.525-.781.859-.282.826-.027.473.276.767.305 1.805.514 1.308.243 1.48-.127 1.59-.355 1.613-.578 1.111-.708.47.157.14.278.305.263.496.205.68.148 1.477-.074.917.14.302.108.253.183.437.107 1.015-.068.32-.138.708-.651.627-.744.038-.22.177-.421.6-.692.365-.217.518-.16.4.065.545.385.55.059 1.767-.21.152.303.715.61.724.43.229.033 1.88-.232.51-.151.544-.25.223-.163.21-.26.19-.108.648-.203.7-.393.22-.218.22-.051.485.25 1.317 1.366 2.266.306 1.14-.238.502-.236.33-.009 1.11.265.62.224 1.38.706.16.319.003 1.957.057.25.316.656.131.392.136.994.162.319.166.187.573.365.448.122 1.322.03.946.18.66.012.53.092.326.101.37.196 1.012.537.67.733.7.905.139.339.006.285.301.608.339.344 2.043.258 1.062-.095.53.025 1.092-.155.618-.219.765-.163.644-.015 1.392.212 1.978.503.327.291.558.153.934.07 2.38.177 1.083-.205.32.049.401.228.693.532.884 1.872.048.213-.025.355-.4 1.35.034.359.108.286.14.247.208.102.592.063.714-.077.787-.336.433-.283.65-.457.598-.576.368-.174 1.392-.405 2.115 1.094 1.454.082 1.295.395 1.121.75.695.386 1.453.425 1.045.038.659.158.73.276.51.728.168.877.091 1.136-.113 1.707.142.34.242.2.584.28 1.574.34 1.462.063 1.303-.405.182-.203.245-.082 1.176-.197.769-.003 3.19.91.679.376.394.41.07.141.027.323-.053.536-.118.275-.347.306-.403.647-.98 1.78-.2.487-.153.65-.004.368.109.925.208.604.332.591 1.01 1.21 1.29 1.68.48.46.581.373 1.817.625 1.14.716.495.432.62.759.313.59.267 1.029.063 1.154.072.417.18.646.402 1.012.256.462 1.556.965.277.106.566.074.771-.067.497-.14.681-.38 1.16-1.179.459-.328 1.025-.412.927-.077 1.132.273.687.376.312.249.398.404.506.74.233.539.156.544.194.36.818 1.017.315.259.47.25 1.244.297h1.111l.33-.076.998-.495.592-.445 1.43-.732 2.249.096 1.51.103 1.405.407 1.127 1.282.074.192.523 1.573.212 1.423-.018.719-.294 1.3-.3.694-2.321 3.184-.161.432-.132 1.078.113.958.707 1.64.12.754-.489 1.461-.283.65-.062.39.008.566.068.451.472 1.107.663.803.552.424.722.42 1.3.623.984 1.002.402.562.217.451.1.35.115.66.108 1.653.328.821.571.812.486.446.002.001 1.617.938.604.57.533.725.294.644.166.658-.059 1.148-.094.24.8.879.024.305-.08.227-.793 1.221-.421.402-.28.135-.617.123-1.18.399-.006.007-.146.157-.15.509.106.38.853.98.272.439.137.345.156 1.123-.24 1.324.114.755.247.724.614.853.489.434 1.312.724.704.639.296.472.39.94.423.512.462.352.523.219 1.623.24.694.257.462.352.303.317.398.654.195.457.138.98-.045 1.003-.365 1.08-.222.404-.233.653-.177 1.055.006.53.183 1.383.378 1.166.318.643.003.006.172.307.315.358.519.314.296.106.535.092.149-.204.786-.355.887.017.673.231.711.51.21.25.234.52.049.471-.165.513-.408.592-1.092.966-.273.773-.01.576.054.277.152.211.469.383.724.239.444-.075.158-.112.2-.285.378-.94.226-.417.933-.423 1.211.007.7.285.392.496.137.365-.004.315-.082.33-.438.898-.23.701.084.338.11.178.485.436.218.088.74.004.315-.097.617-.342.763-.208.433-.032 1.622.186.941.424.345.395.081.27.013.648-.345 1.353-.184.508-.696.94-.092.203-.075.424.153.578.816 1.392.084.509-.039.385-.268.582-.26.223-1.234.5-.48.366-.157.295-.105.36.059.524.415.63.68.675.388.534.185.458.13 1.02.094.355.198.43.283.405.343.34.423.42.508.295.798.263.771.474.252.233.43.573.274.612.05.572-.224 1.362.035.373.195.615.213.417.437.472.604.376.479.17 1.37.281.598.29.66.565.272.39.3.603.066.452-.158.59-.657.88-.408.762-.085.923.16 1.37-.135.534-.457.68-.71.458-.601.23-.528.424-.175.313-.13.904.042.465.106.41.347.491 1.635.717.874.54.522.63.212.353.11.259.037.272-.06.267-.273.492-.65.54-.85.161-1.556-.249-.702.35-.576.543-.224.45-.107.38.02.782v.036l.124.683.335.469.36.426.395.353 1.298.979.223.318.322.821.09.756-.21 1.11-.275.604-1.31 1.723-.197.354-.142.607.02.546.09.49.223.587.244.478.52.732.555.488.329.203 1.392.483.324.23.272.323.194.403.102.436.026.426-.1.438-.22.497-.68 1.003-.162.41-.167 1.06v.524l.297 1.105.533 1.027.17.157.84.283.815.392.632.626.451.563.648.62.475.34.605.185.786-.026.267-.148.148-.16.207-.554.253-2.067.11-1.757.107-.216.402-.493.357-.22.336-.072.687.032.538.18.442.375.196.337.745 2.116.19.856.037.44-.004.308-.095.325-.21.412-.161.32-.929 1.08-.867.765-.31.499-.051.183.043.198.383.692.542.722.33.286.454.21 1.47.178.858.026 1.032.278.881.48.341.075.563-.04 1.085-.551.475-.047.558.113.425.168.807.57.373.488.28.577.08.512-.04.517-.11.326-.197.344-.662.877-.138.291-.08.359.166 1.026.324.968.056.54-.061.736-.552 1.43-.03.47.08.295.25.919.72 1.3.1.675-.18.78-.437.614-.553.48-1.15.648-.27.26-.176.383.047.523.437.766.717.774.859.68 1.512.847.393.128.891.066 1.532-.25 1.147.217.62.297.563.558.426.737.454 1.576-.085.902-.381.653-.548.565-.795.496-1.004-.719-.652-1.324-.061-.864-.183-.172-1.534.08-.738.436-.163.879.071 1.02.133.516.463.939.428 1.389.124.86 1.259 2.828.093.563.022.312-.133.692-.227.586-.926 1.745-.188 1.294.225.91.342.638.003.007.566.572.41.2.53.062 4.748-.893.866.11.727.275.693.548.355.772-.024.557-.414.657-.69.234-1.336-.247-.251-.114-.246.004-.235.117-.437.455-.447.727-.034.055-.184.725.05.566.21.968.4.812 1.225 1.822.367.943.216 2.355.309 1.047.127.755-.084.704-.142.457-.5.768-.743.857-.305.647-.063.688.092.45.293.536 1.117 1.076.917.757.157.208.109.305.1.577-.024.885-.557 1.181-.22.686-.085.477.066.488.249.603.45.575.382.272.847.439.9.251.614.39.615.501.391.59.158.365.114.464-.073 1.221-.736 1.943-.14 1.533.13 1.013.294 1.13.175.426.41.599.274.3 1.37 1.069.513.517.104.17.315.518.144.34.076.597-.086.656-.122.358-.368.654-.368.37-.555.388-1.448.506-.387.303-.157.156-.272.52-.076.208-.053.47.036.348.196.62.708 1.172.548 1.426.03.596-.088.719-.485 1.247-.076.346-.012.57.249 1.06.988 1.808.168.395.074.566.015.108-.077.558-.152.394-.193.29-.39.521-.383.381-.633.473-.932.461-.86.523-.34.314-.568.689-.444.782-.27.838-.158.842.022.633.493 1.504.27.483.698.421.188.01.535.197 1.242.544.789.772.343.564.245.547.323 1.635.158.38.243.322 1.212.813 1.04.491.964.17 1.07.02.977.287.68.379.337.28.544.53.672.783.42.68.196.43.138.577.152 1.543.158.441.254.337.278.222.723.423.781.616.195.303.151.488.01.484-.098.425-.29.624-.581.596-.691.59-.292.295-.49.765-.076.67.394 1.036.826 1.258.162.425.083.435-.002.358-.09.375-.345.796-.056.532.09.359.22.348.473.423.647.293.931.177 1.242-.042.641-.263.622-.381.296-.072.893.064.503.451.174.31 1.159-1.08.184-.679-.282-.532-.021-1.166.134-.81.013-.892.722-.587.888-.338.753-.066.742.795.439.93.712.426.315.652.165.53-.213 2.1-.584.94-.657.386-2.538 1.169-.364.265-.46.206.502.854.19.767.019 1.004-.056.646-.025.47.073.417.234.62.186.28 1.016.789.814.398.626.45.746.734.884 1.267.354.998-.007.857-.174.619-.2.832-.05.419.331 1.016 1.19 1.709.697 1.281.287 1.213-.023.467.085.735.188.478.493.686.643.532.523.608.29.492.147.369.173.806-.025.36-.175.598-.48.51-.402.274-1.496.65-.6.473-.28.468-.085.534.005.443.096.258.362.396.316.151.683.091.33-.073.63-.284 1.374-.793.561-.224.48-.109.333.013.596.157.732.338.997.873.32.198.631.248 1.491-.05.67.203.391.197.643.613.21.342.101.382-.002.702-.408 1.511.028.436.2.451.066.148.218.198.61.36 2.857 1.156.716.083 1.643-.29 1.09.01.485.125.368.194.615.462.615.906.299.732.102.41.034.917-.098.608-.183.568-.434.73-.387 1.176-.01.478.08.722.209.524.232.394.356.499.63.68 1.213 1.016.666.32 1.359.37.243.121.515.471.198.373.144.432.126.97.19.717.155.364.28.385.466.367.637.263 1.066-.009.568.104.655.32.402.487.263.497.093.47.03.676-.092.427-.285.466-.305.304-.755.81-.26.956.238 1.04.144.71-.098.704-.482.686-.358.505-.206.58-.068.53.375 1.482.332.723.41.66.754.704.532.324.775.302.486.102.477.003.46-.087 2.028-.795.778-.067.913.246.253.127 1.239 1.22.888.423 1.177.255.314.14.367.355.134.218.36.778.046.313-3.464.283-3.875.315-44.883 3.393-.379.03h-.01l-10.355.748-8.296.58-5.765.385-1.473.09-3.028.207-3.259.24-.919.075-3.95.273-.017.007-2.33.149-.777.056-.013-.006-7.224.444-.403.025-1.682.115h-.004l-6.79.447-.382.024-17.468 1.041h-.008l-.42.016-.264.026-6.277.37-1.301.103-2.075.106-1.428.067-1.097.082-2.638.165-.6.037-1.326.037-20.14 1.104-7.475.392-.137.008-.35.016-.243.015-3.915.2-.034.001-10.19.534-2.377.138-2.072.107-9.695.408-.501.07-4.322.2-2.024.096-.232.027-4.7.217-.01-.006-11.554.46-.068.01-2.002.07-.01.001-5.126.233-.22.007-.836.033-2.112.104-2.048.074-5.162.249-.124-.005-.431.018-27.753 1.079-.16.006-.173.009-.702-.002-4.647.2-.228.002h-.01l-1.846.08-2.097.052-2.069.067-6.108.219h-.002l-4.438.14-4.176.132-.468.005-3.635.123-.285-.004-2.05.054-.807.033-2.598.091-4.66.11-3.326.102-.775.017-1.56.027-6.215.222-2.003.03-.638.014-23.815.643-1.532.035-2.045.047-2.215.058-1.913.045-1.611.007-1.994.044-2.245.06-2.966.05-1.296.063h-.147l-1.749.015-.34.014-1.922.013-.127.008-.182.023-1.903.066-1.749.028h-.008l-5.344.086-.249.001-4.773.093-1.526.02-11.038.207-2.875.035-.01-.007-1.179.025-.062.004-2.184.04-2.923.022-.18.013-5.136.084-2.044.032-3.071.03-1.048.017-5.147.096-1.007.004h-.019l-.861.01-.214-.005-.956.01-2.067.024-3.74.047-.4-.013-3.187.058-.406-.016-.445.014-12.4.099-1.018.022-1.202-.05-6.29.087-1.402.008-.461.006-.148-.005-.307-.009-13.593.08-.073.001h-.26l-10.046.031h-1.356l-1.614.002-1.123.07-.812-.03-.87-.036-.387.023-4.156.035-10.262-.028-2.616-.006-1.54-.014-.412-.034-4.23.024-.475.005-20.563-.121h-.003l-1.14-.001-.236-.008h-.36l-.37.008-2.03-.035-1.548-.021-.24.008-17.432-.191-5.392-.056-.88-.014-2.387-.018-.78-.016h-.127l-1.116-.016-2.63-.044-4.492-.067-1.689-.024-3.028-.056h-.68l-4.897-.07-1.626-.066-2.553-.052-4.147-.045-.966-.022-.373-.03-.608-.004-1.47-.01-.73-.039-19.65-.355-9.929-.231-3.589-.09-7.765-.201-4.157-.12-1.111-.017-1.476-.041-2.509-.074-3.7-.095-4.167-.115-.817-.022-3.304-.111-.163-.003-1.908-.039-3.461-.09-3.92-.09-.12-.005-.677-.029-13.753-.45-9.186-.315-.14.009-19.548-.705-.31-.018-2.69-.12-.975-.014-6.941-.318-1.377-.05-14.846-.585.83-20.835.095-2.051.395-9.529.033-.88.674-14.746.037-1.55.037-1.554.22-4.72-.01-.476.297-6.233.464-11.442.082-2.536.972-22.788.316-7.42 1.442-35.991h-.011l-2.026-.09-5.836-.232-7.108-.304-1.947-.102-.305-.016-2.118-.074-3.85-.18h-.46l-2.067-.089-.129-.006-.007-.003-.023.002-7.643-.347-1.665-.096-9.615-.477h-.142l-1.868-.101-7.385-.334-.994-.047-1.013-.051-.026-.011-.317-.02-4.539-.274-3.48-.143-9.242-.472-1.607-.105-1.299-.058-.73-.06-5.765-.276-.323-.047-1.732-.082-.301-.023-1.774-.054-.217-.04-1.922-.1-.178-.017-1.865-.11-.187-.02-1.875-.087-.164-.03-1.883-.074-.182-.046-1.588-.062-.116-.001-.195-.013-.122-.024-1.91-.1-.13-.013-1.865-.143-.205-.025-3.934-.197-.508-.043-1.56-.096-.165-.01-1.823-.092-.136-.014-30.569-1.839-.25-.016-1.837-.175-1.55-.148-2.678-.092-.005-.005-6.935-.449-1.155-.037-8.176-.569-.08-.005-18.846-1.373-11.564-.79-2.09-.154-1.952-.156-1.087-.03-5.051-.41-1.912-.134-.135-.023-4.88-.373-.549-.08-1.701-.077-1.501-.102.179-2.184.02-.175.778-10.163.023-.076.155-2.085.097-1.343z"/></svg>