<svg height="1000" width="1000"><path class="americon" d="M251.006 910.551l6.844-11.532.175-20.944 10.721-4.483L281.76 860.3l-1.781-5.941-2.619-8.743 7.504-15.446-4.057-24.596.425-2.85 2.94-19.745 1.946-6.396 3.397-11.18 5.398-20.775-2.65-15.551 4.742-24.149.005-.03 4.6-23.483.82-29.478 12.342-11.386 1.042-.963 12.355-40.716 16.714-14.195 2.84-4.777 7.56-12.737 3.823-23.744 17.054-27.493-2.687-15.533 9.755-13.756.104-.146 1.078-1.522 10.308-24.834-4.246-20.653-1.878-9.152 2.11-22.501 2.14-16.346 11.526-11.847 14.872-4.566 17.99.245 9.937-3.736 4.892-1.842 10.5-16.961 4.257-1.44 18.49-6.271 11.514-17.256 17.226-11.92-2.091-16.696 11.135-11.388-1.763-17.498-8.464-13.666-10.873-29.63 14.513-20.988 12.286-27.308 7.149-11.218-9.537-23.167 7.774-13.493.656-20.298 12.634-14.225 7.474-22.188 3.379-9.976-8.395-14.7 19.712-11.17 19.448-11.665 9.998 12.128 15.763 9.645 10.94-.763 7.51-14.205 6.366-8.42 7.645 110.029 6.343 95.176 4.394 85.576 1.133 21.613 1.898 36.096.746 14.162.326 6.196.496 9.42 2.555 60.273 3.986 92.34.886 16.859 1.766 33.551 2.968 47.7 2.486 10.946 2.522 11.093-1.451 13.076-1.825 16.41-4.031 19.496 16.29 18.616 13.942 19.83 16.134 19.168-2.922 13.785-.006.029-.625 18.566 2.319 2.116 17.147 15.617 14.21 7.178-8.217 17.615-7.782 13.655-8.708 18.89-3.259 13.158-1.493 6.023-12.775.922-17.859-5.045-9.55 5.847-17.397 3.827-4.618 10.347-4.092 9.158-14.196-1.952-8.906-1.231-9.755 9.198 1.304 19.532-17.192.497-2.625.074-.133.004L591.381 975l-15.608-.355-76.947-2.358-29.654-.944-16.124-.658-25.236-1.066-8.142-.353-41.257-1.86-11.666-.546-21.401-1.036-21.432-1.068-34.877-1.806-10.606-.565-1.962-.106-4.954-12.741-16.46-16.323-3.512-19.653z"/></svg>