<svg height="1000" width="1000"><path class="americon" d="M182.628 378.98l1.215-17.168.885-12.514 1.653-24.46 2.1-31.142 1.401-22.564 1.642-25.846 3.015-52.904.97-19.142 2.431-41.918 3.549-57.11 1.892-33.56.937-15.652 26.589 1.28 35.526 2.107 3.5.195 11.268.614 20.164.796 21.9 1.013 26.76.582 29.575.69 31.515.602 24.313.46 21.432.224 20.04.093 16.707.205.77.012 38.202.45 28.55-.063 45.042-.352 23.781-.454 30.381-.447 26.82-1.018 13.527-.562 29.309-.262 30.787-1.147 23.361-.949 1.61 31.422 1.537 34.402 1.586 37.355 1.183 27.396v.004l1.517 36.14 1.189 30.513.531 12.923 1.692 37.35.115 2.53 1.081 25.517.632 14.912 1.603 33.537.274 5.716 2.839 66.207.895 17.02 1.104 27.074.574 14.057v.007l1.053 22.697.963 20.865.658 13.675v.022l1.703 36.174.63 18.37.81 19.18.686 15.33 1.392 28.25 1.268 26.745.686 12.02 1.05 21.501 1.603 32.752 2 38.239.294 7.803.637 10.29-5.436 10.25-3.84 9.636-1.33 4.013-6.859 1.542-6.475-2.499-5.23-3.562-2.617-6.094-4.078-4.677-5.006-.162-3.423 2.808-4.289-.244-2.863-2.866-6.715.165-6.16 1.69-4.19 3.418-7.694 2.06-.64 4.695.027.634.322 7.722 1.613 9.076 3.658 5.702 3.604 4.949-3.567 7.117 1.112 11.167 1.29 11.36 4.254 5.484-.664 12.003.216 10.41 4.427 5.399 5.289 20.275 2.279 17.141-2.911 2.573-2.37.007-.318 7.424-.62 9.32-20.143-18.523-28.054-25.907-13.526-12.432-16.643-15.42-11.625-10.747-27.878-26.01-.04-.036-22.534-20.929-5.308-4.959-22.632-21.252-31.577-29.643-12.484-11.862-56.354-53.463-17.941-17.062-8.54-8.167-46.738-44.843-16.242-15.536L382.14 619l-42.436-41.128-7.567-7.414-46.15-45.084-21.122-20.589-12.351-12.127-4.99-4.89-25.777-25.43-.227-.225-31.497-31.203-9.556-9.483.448-9.109.298-6.057.349-7.093.827-16.82z"/></svg>