<svg height="1000" width="1000"><path class="americon" d="M181.866 390.798l.566-8.367.15-2.955.004-.067.03-.334v-.013l.176-1.872.386-5.934.698-9.36.001-.009.893-12.502 1.511-24.468.543-7.657-.004-.11.652-9.395 1.05-13.965.952-15.318.055-.722.107-1.905.287-4.616 1.174-18.05.009-.142.459-7.65.005-.079 1.429-23.579 1.58-29.24.133-3.823.837-15.315.012-.206.032-.745 2.387-40.962 2.506-41.515 1.042-15.587-.009-.807 1.027-16.379.873-16.37.938-15.65.002-.038 1.203-.092 9.764.384 1.377.078 2.275.155 5.718.286 6.246.507 27.322 1.526 8.202.543 3.499.19 7.11.38 1.866.037 2.288.24 20.162.795 19.974.98 1.79.03.133.003 7.726.404 9.215.05 9.815.129 29.57.69 31.512.6 24.09.504.219-.044 17.59.123 3.839.102 18.114.138 1.923-.045 12.576.156 1.286.028 1.412.01 1.432.01.768.076.88.167 3.904-.089 33.334.26.08.049h3.798l.46-.062 5.54.029 1.447.057.848-.033.192.078 1.358-.02.266-.003 1.905.039h9.255l3.476-.149 16.438-.146.301.004 11.9-.105.004.006.76-.006v.002l1.148-.062.002.005.654-.05v.002l2.466-.093 9.665-.054.78.01.92.136 23.777-.454h3.804l26.573-.448 5.794-.218.346.065 20.686-.521.63-.017 11.428-.845 1.458-.044 2.264-.254 4.355-.252 2.404-.027 8.35.197 11.931.074 9.73-.367.001-.005 2.979-.225 18.073-.55 16.967-.693.017.017 4.424-.213v.019l1.314-.062.002.012.634-.028.851 14.247.062 4.491-.004-.003.7 12.682.765 16.903.01 1.254.643 15.162.12 1.078 1.517 35.743-.06 1.195.128.413 1.183 27.392v.004l1.276 30.135.013 1.65v.072l.229 4.278 1.153 29.08.035 1.429.014.175.42 8.504-.028.726.125 3.515 1.014 22.066.647 15.28.071 1.689.075.84.368 9.01.231 4.419.496 12.084v.009l.512 11.32.106 3.582.265 4.628 1.282 28.907.33 5.713 2.838 66.197.895 17.018-.033.337-.091.172.806 16.797.068 2.792.308 6.974.62 14.053v.008l.188 3.387.027.535.205 5.909.635 12.844-.002.018.947 18.869.016 1.994.658 13.673v.022l.877 20.11.826 16.06.153 3.912.208 3.912.216 1.863.124 6.012-.07 1.27v1.266l-.009.097.008.034.81 19.177.022 1.632.502 10.183.001.081.097 2.006.064 1.428.41 8.239.158 1.814.282 6.446.002.038.501 10.475.003.069.035 1.163.005.09.378 6.812.361 8.386.106 3.448.115 1.748.088 4.144.192 1.767.024.347.685 12.018.338 5.822.663 15.68v.001l1.2 25.592.244 4.287.08.527.908 16.613.39 3.633.269 4.182.336 7.13.225 9.013.137 1.389-.008 3.564.165 2.85.242 2.509.075.734.32 7.045-1.466.718-.803 1.238-2.095 5.104-1.07 3.188-.365.22-.865.082-1.063.777-.235.428-.06.701.094.24.666.502.391.522-.03.246-2.267 5.041-.106.876.153.874-.079.764-1.031 1.88-.373.494-.264.109-1.4-.473-1.155.063-1.694.996-2.345.847-2.179.278-.616-.01-1.58-.71-1.205-.742-.418-.439-.476-.875-1.129-1.422-3.84-1.468-.178-.176-.083-.496.192-.493.678-.674.218-.505-.344-1.03-2.4-3.083-.96-.308-3.004-2.944-1.074-1.733-3.737-.435-.767.047-.501.226-1.085 1.349-2.107 1.51-.23-.051-.544-.574-.604-1.062-.592-.13-.72.152-1.83 1.37-1.002.252-.68-.104-.257-.12-.156-.23-.06-.441.07-.394.037-.68.003-.444-.245-.356-.572-.348-3.797-.033-2.917.197-2.754 1.415-1.189 1.169-.919.565-.588-.26-.709-1.2-.436-.162-3.053 2.617-.307.592-.394.372-4.768 1.493-.838.037-2.087.53-1.18 1.057-.702.894-.204.496.04.767.166.293 1.24 1.187.334.643.514.994-.034.57-.382.717.027.769-.015.369.15.43.579.282.453.587.097.432-.133.876-1.004 1.212-.236.474-.036.476.045 2.96.397 1.292 1.255 1.819.21.807-.259 1.72.214.339 1.56.873.945.886-.035 2.18.974 1.424 3.835 3.597-.232 1.351-1.371.298-1.724 1.229-.202.903.025.703.431 1.3.094.437-.819 2.246-.674.633-.227.561 1.558 2.161-.178 2.929.704 1.79-.072 3.092-.791 3.09.005.457.506.966.828.803 1.254.76.311.529-.144 1.017-.811 1.9.132 1.837 1.434 1.325 2.239 3.027.582 1.13-.036 1.833-.547 1.421-.646 1.003-.046.398.427 1.911.203 2.52.234.852.33.39.067.276-.105.545-.545.852-1.175.959-.362.624-.16 1.88.227 1.416.576 1.095.81 2.034.299 2.401.295.72 1.22 2.051 2.911 2.627 1.984 5.551.886 2.12 1.095 3.903-.032 3.936 1.356 4.762.582 3.36-.008 1.137.514 2.806.602.5.336.726.417 2.368.07 2.844-.235 3.399-.605 1.413-1.023.738-1.282.422-2.37.006-1.125.51-1.58 1.781-.253.572.474.731 2.355 1.002 1.098.741 1 1.117.24.861-.059.61-.323.75-2.257 2.067-.569 1.016-.462 1.303-.09 1.094.214 1.632.399.955-20.14-18.52-.091-.08-14.121-13.023-.011-.002-1.957-1.741-11.87-11.058-6.312-5.797-.568-.593-2.665-2.369-2.325-2.194-.112-.064-1.542-1.413-.06-.024-12.836-11.94-3.745-3.454-10.126-9.346-.284-.28-1.213-1.12-.177-.135-.789-.866-10.1-9.266-14.313-13.383-.179-.25-2.262-2.056-.054-.05-.039-.036-2.395-2.295-2.314-2.103-7.005-6.425-10.805-10.194-.785-.742-4.536-4.125-2.25-2.096-20.379-19.153-.406-.347-17.222-16.21-13.944-13.082-.497-.327-11.986-11.533-1.402-1.252-4.552-4.353-50.393-47.851-7.165-6.718-7.085-6.827-3.688-3.517-8.539-8.164-2.284-2.032-11.84-11.348-13.331-12.971-.087.012-4.279-4.117-4.335-4.031-10.576-10.35-3.384-3-12.772-12.53-4.571-4.506-3.042-2.598-7.505-7.454-6.75-6.421.005-.004-1.301-1.347-20.834-20.106-18.42-17.896-7.588-7.413-7.347-7.157-5.13-4.853-9.545-9.538-3.321-3.206-2.601-2.394-8.938-8.873-6.486-6.369-2.775-2.688-5.24-4.92-2.96-3.035-5.322-5.11-1.498-1.633-2.926-2.877-3.146-3.056-7.9-7.694-1.616-1.667-2.86-2.72-4.957-4.944-.505-.504-3.701-3.55-.596-.502-7.496-7.55.002.001-4.36-4.238-.016-.016-9.137-9.02-.163-.162-.062-.055-31.492-31.199-9.555-9.481.397-9.11.267-6.06.312-7.09.351-7.984z"/></svg>