<svg height="1000" width="1000"><path class="americon" d="M953.127 723.543l10.965-3.3 1.563 6.161-14.036 3.583zM28.309 557.609l16.503-7.507 21.47-12.243 9.035-8.196 12.058-6.301 10.937-4.785 6.598-2.524.357-.729 3.342-6.83 5.892-4.622 2.2-6.938 9.197-3.687 8.177-4.288 6.68-6.858-.512-2.187-.812-3.468-1.569-6.545-3.284-3.276.845-7.379-1.986-3.252-3.872-1.013-6.371-6.292 2.315-9.783-1.39-1.486-.152-.054-6.227-2.24 2.131-7.32.665-1.39 1.432-2.994-.252-10.94-1.61-6.516 27.734-6.992 33.41-6.296 9.41.302 15.658.47 21.173.682 17.113 2.417.086.012 20.346 4.33.949.095 5.51.554 11.125 9.663 12.315 7.96 5.863-2.098 14.525-3.238 4.064-.912 8.846.813 15.453-.833 15.003 2.674 5.475.269 12.873-5.17 8.416-1.868 5.483-2.905 4.327-2.297 6.42-9.466 1.58-1.047 11.79-7.832 11.41-7.729 5.355-.599.24-.027 5.6 2.227 9.648-2.547 3.8-7.176.937-11.8-.497-4.825-1.189-11.57-1.724-8.007-7.559-8.451-7.266-2.553-9.15-1.77 3.485-6.687 15.17-7.136-3.091-8.359-7.666-1.102 1.654-6.454-.934-4.385 1.777-5.124 2.456-4.945 5.503-6.023 9.007-1.57 4.834-3.878.351-6.463 7.282-2.865 10.895-7.426 5.778-.2 9.964-8.725 3.059-2.686 2.994-7.7 4.682-6.907 22.247-22.312 15.955-15.278 9.995-7.85 8.643-8.049 12.428-6.723 8.453-4.738 6.716-4.465 1.343-2.987 9.356-1.016 8.034-4.983 9.986 3.635 2.076-.218 8.938-.95 3.714-.398 19.227.133 22.398.157 22.793-1.38 16.848-1.075 25.9-1.167 32.669-2.34.067 6.305.958 8.213-4.15 9.642 1.75 4.717 2.734 2.769.876.886-2.265 8.097-.57 7.963-2.23 12.723 2.843 8.053.543.777 1.74 2.486 4.159 5.94 2.569 10.36-2.7 9.195-1.374 4.104 1.457 7.302 1.05 7.265.13.9-3.572 4.449-4.737 10.16-.418 2.284-1.538 8.408-1.985 9.022 3.679 4.757-.382 5.668.671 7.177 4.15 8.404-1.493 9.235.94 1.417 3.85 5.798-1.078 2.761-3.386 8.662-2.128 6.555-.836 9.422 3.525 4.716 7.423-9.429 4.327 6.371 6.046 7.593-.125 27.136.027 7.726.14 44.218.007.827.119 13.831.15 17.522-1.227 5.06 3.393 8.773-4.184 18.217-4.56 19.74-3.121 13.607-2.737 11.888-9.942 42.837 2.385 5.114.304.652-.774 36.247-.622 25.25-.102 4.107-.493 18.363-.376 13.872-.371 10.377-.002.06-.008.208-.05 1.419-.412 11.446 8.757 13.017-25.334 16.64-3.794 2.478 8.755 13.097.097 2.232.344 2.982.006.057-4.71 7.532-7.039 4.6-.997 5.132 3.094.749 3.397.82 7.208-1.554 4.389-3.34 14.254-3.794.286-.823 1.324-3.806 6.015 1.634 5.22-3.503 7.67 3.856 11.819 3.223.81.22 9.64-4.262.337-4.376 4.07-2.784 8.58.82 22.012-1.297 18.403-2.83 14.785-3.975 9.458-7.919 6.794-7.3 6.53-3.961 4.036-5.35 7.493-3.014 11.99-6.812 1.015 2.395L926.2 751.6l-3.034 7.133 8.241 3.915 6.511-2.434 3.777-10.256 5.296 1.87-.914 7.742 5.666 5.065 10.694-8.902 4.785-1.817 7.778 1.085-9.124 11.043-19.034 8.88-24 10.495-11.514 6.586-43.306 18.928-19.948 9.27-10.709 5.96-16.164 6.12-7.558 2.846-11.98 2.143-5.607-1.356-8.81 3.146-7.405 2.634-2.733.969-16.387 2.305-13.548-.602-3-.136-6.155 2.565-14.024 5.821-4.176-2.796-2.207-1.48-5.654-2.87-.176-.09-2.418-1.229-6.598 8.282-10.63 6.091-7.455 1.685 1.247-6.952 3.94-2.293 1.488-5.567.028-6.202.258-.163 3.578-2.264 1.284-.16 8.998-1.125 1.884-2.582.383-.525 2.42-3.322.04-.112.664-1.877 1.168-3.303.622-1.763.225-.637 1.106-3.134 3.38-6.7 1.57-3.114.362-.72.257-.663 2.093-5.409 1.071-2.77.353-1.298 1.422-5.236.171-.63 1.455-5.365 1.405-7.433-18.206-9.49-21.276-11.521-2.595-1.413-8.313-4.607-7.938-4.888-11.194-6.92-29.036-17.109-4.99-10.944-2.585-.256-5.232-.52-11.005-3.736-11.175-6.505-7.509-12.58-.317-4.608-.422-6.12-.645-17.771-2.576-7.95-4.704-6.142-3.989-1.485-5.213-1.945-8.711-3.59-3.471-9.921-5.906-7.299-2.23-.14-13.964-.895-.715.002-8.328.014-37.803-.071-27.992-.255-4.723-.055-37.688-.566-1.294-.045-10.064-.36-.059-.002-43.875-1.092-4.626-.132-4.986-.146-71.666-2.108-16.64-.603-9.765-.374-23.67-1.2-20.856-.95-7.679-.368-4.387-.241-34.276-1.99-38.278-2.167-7.626-.46-9.286-.583-48.812-3.287-16.412-1.262L25 600.817l1.56-21.13z"/></svg>