<svg height="1000" width="1000"><path class="americon" d="M951.38 726.143l.588-1.27.646-1.318.51-.537 1.464.008 1.822-1.386 1.347.08 3.236-.988 1.107-.327 1.989-.688-.92 1.602-1.286.775-1.917.988-1.911 1.088-1.82 1.5-.899.637-4.126.762zM939.9 752.35l.236-.504.998-.637.432-.632.13-1.142 5.296 1.87.446 1.198-.342 5.788-1.018.756-.19-.128-.205-3.378-.839-1.669-.418-.361-1.763-.583-2.26.257-.346-.289zm-9.477-13.16l2.918-1.912 3.707-.807-.251 1.382-2.442 1.82-.632 1.484-1.352 1.529-2.114-1.462zM684.94 859.086l.808-1.84.622-1.137-.326-1.401-.098-1.952 1.2-1.44 1.44-.728 1.3-.125.615-1.873.44-2.069.432-1.625.498-1.179-.561-1.078.124-1.617-.163-1.376.13-.952.215-.281 1.514-1.988.775-.318 1.331.16 1.14.143 2.238.281 1.851-.331 1.93-.625 1.485-.152 1.638-.602.64-1.265 1.363-.286-.645 2.082.79 1.096.334 2.806.633 1.272 1.237 1.954-1.073 2.21-2.822 3.316-3.191 3.764-1.774 1.582-1.194 1.34-.908-.802-1.325.824-1.826 1.263-1.445.386-2.157 1.5-1.293.401-1.123 1.139-1.656.251-1.64.883-.767-.305-.976-.684zm-252.593-537.72l3.128-4.058 3.142-2.65 2.058.064-.73 1.94-3.106 4.177-3.051.896zm-9.039-2.636l4.813-5.45 3.867.77-1.242 2.037-3.65 2.152-2.46 1.728zM28.093 560.123l.232-2.946 5.381-1.96 8.909-4.267 6.356-3.683 5.871-3.046 4.368-2.71 4.509-3.176 2.576-.91 3.065-2.533 3.061-3.761 2.909-1.904 2.478-2.014 1.287-1.303 1.142-.039.828.273.436-.09 1.049-.84.682-.766 4.155-1.523 2.327-1.745 2.64-1.191 2.353-.531 3.615-1.319 5.295-.888 1.303-1.635.272-.818 1.042-3.143.406-.151.543-.49 1.083-1.805.353-1.152 4.09-3.991.64.058 1.16-.69.42-3.737 1.78-3.201 3.627-1.743 1.513-.381 1.758-.015 5.75-3.876 3.085-.65 6.105-4.88 1.893-2.067.32-1.222-.51-1.385-.335-.085-.143-.757-.236-1.24-.1-2.189.688-1.287.176-.984-.606-1.789-.763-.197-1.064-2.287-.885-2.854-2.4-.422.911-2.076.242-3.708-.308-1.594-.991-2.225-1.477-1.524-3.39-.516-1.432-1.84-4.063-2.883-.877-1.567.088-3.1 1.21-2.255.946-2.816.07-1.613-.515-1.17-1.027-.37-6.227-2.24.03-.838.633-.787.618-.73.639-1.846-.068-.96-.021-.678-.014-.767.314-.713.418-.3.593-.794.334-.448.654-.434.254-.873-.002-.874-.154-.661-.138-1.454-.196-.378-.438-1.457.16-1.578.351-2.162-.146-1.962.154-1.948-.177-2.63-.504-2.063-.931-1.823 5.938-1.398 5.595-.844 4.846-1.598 8.382-2.289 2.728-1.023.244.158 6.56-1.111 3.587-.976 5.841-.72 7.33-2.171 10.09-1.32 6.768-.456.724.093 1.051.629.876-.02 10.985-.251 1.301.466 12.387 1.127 1.942.382 10.206-.521 4.674.204 9.227 1.865 3.21.35.087.008 2.142-.52 1.28.231 1.38.79 3.426 1.182 2.057.09 3.341 1.302 6.72 1.253.871.271 1.307.407 1.405.153 2.876-.183.355.617 2.979 1.262 1.856 1.12 1.364 2.48 4.57 4.184.739.585 2.88 1.409 5.72 4.663 2.977 1.3 1.935.262 3.927-2.36 2.823-.557 4.652-1.606 2.592-.474 2.747-1.03 1.732-.145 4.043-.34 3.052.043 1.211.496 4.583.274 5.808-.886 4.709.557 3.447-.855 1.488.35 2.15-.303 5.103 1.257 3.808 1.647 3.942.071 1.31-.446 3.443.804.721-.09 3.497-2.176 2.109-1.025 2.01-.278 1.092.18 2.605-.809 1.56-1.063 5.425-.541 2.99-1.327 2.575-2.004 1.888-1.849.983-.02 2.78-.057 1.583-1.273 1.799-2.152 3.214-5.426 1.406-1.888 1.589-.883 1.164-.647 5.16-3.879 3.596-1.792 1.15-1.294.709-.385 1.03.336 2.3-.942 1.707-2.726 4.06-2.528 2.312-1.87.8-.282 4.558-.327.237-.017 2.647 1.998 1.667.256 3.877-.084 4.295-1.814 2.762-.678.825-.579 1.255-1.907.959-2.354.76-2.336.547-4.017.388-7.782-.385-4.815-.486-6.085-.815-5.495-1.726-8.006-7.863-5.527.304-2.923 1.247-1.717 2.95-2.133 3.647-.702 1.674-2.12.53 1.53-1.366 4.098 2.022.27 5.675-4.28.865.298 2.086-1.427-.07-2.977-.929-2.816-1.193-1.089-2.491-2.753-3.46-1.495-.844-1.172-5.314 1.362-1.988.83-1.315-.314.511-1.538 1.235-2.316-.08-2.184-1.37-1.283-1.649.085-.6-.788-.628-1.873-1.527-.955-4.572-.35-1.566.204-.865-.93.245-1.53 1.29-.754.983-3.24.154-2.346-1.088-2.039 1.777-5.124.38-.618 4.626-9.649 2.95-.7 4.156-.006.47.085 4.381-1.651 1.753-1.031 3.081-2.847.35-6.463 3.508-2.45.482.328.948-.032.703-.492 1.64-.22 5.907-4.991 4.156-1.865.832-.57 2.088.039.46.086.386.114.197.4.321.128 2.325-.968 1.116-.975 1.15-.652.817-.947 1.042-.37 4.682-4.165 1.29-1.316 4.423-4.517 1.495-6.17 4.681-6.906 4.395-4.206 3.416-3.869 3.829-3.803 4.918-4.327 4.18-4.515 8.355-8.848 3.142-2.37 5.962-5.655 1.114-1.967 1.873-.72 1.067-1.028 1.667-.485.662-.997 2.194-2.522 1.418-.132 3.012-3.1-.133-1.668 2.708-1.94 1.645-.938 1.41-.402 1.567-1.462 1.402-.154 1.111-1.2 1.72-.323.747-.601.878-.295 2.554-1.594 2.447-1.095.981-1.82 1.567-.946 1.61-.537.934-.925 3.36-.51.689-.693 3.615-1.904 2.412-1.87.597-1.18.034-.893.711-.914 2.232-.95 2.845-.226 4.279.16.781-1.476 1.411-1.154 1.169-.219.946.003.74-.242.822-.419.903-.776 1.261-.7.89-.194.772.455.702-.113.87.386.665.283.703.691 2.694.083.961 1.384 1.729.658 1.473.004.55-.701.396-.505 2.257-.854 2 .538.612-.065.591-.149.629-.12.651.312 12.415-.063 10.103.077 13.52.529 11.153-.285 9.64-.128 13.164-1.004 16.835-1.326 12.304-.69 9.657-.26 3.939-.22 22.285-1.688 10.382-.654-.679 2.61-.332.66-.116.443.078.511.156.528.321.679.64.874.69.689.062.175.063.655-.083 2.686.242 3-.015 1.007-.217.485-.724.548-.619.643-.266.457-.186.502-.224.648-.175.91-.369 2.581-.242 1.317-.291.678-.404.277-.433.597-.125 1.292.027.59.253 1.087.086.1.38.149.478.852.196.244.456.402.86.458.359.269.17.168.387.61 1.707 1.777.127.373.074.464.15 1.628-.046.56-.196.494-.912.944-.293.527-.15.748-.55 2.048-.342.683-.644.927-.176.55.153 2.52.1 3.966.5.752.007.132-.401 1.109-.523.442.058.169.267.376.04.433-.426.17-.08.094-.048 1.289.312.405.06.404-.097.154-.277-.02-.117.063-.515.893.02.248.115.205.01.145-.534 1.14.538.652-.126.18-.759.654-.038.131.169.698-.042.647-.075.513-.267.645-.022.2.052.177.798.756.287 1.078.466.866.072.37-.042.278-.112.256-.397.527-.016.2.477.637.256.475.182 1.025.842 1.207.67.605.161.146.397.71.184.15.585.216.813.515.49.586.021.188-.06.373.041.183.871 1.122.089.256.054.505.137.282.11.11.52.192.224.278.136.847-.013.534.082.44.186.254.744.71.731 1.055.25 1.264.097 1.011.563 1.403.14.834.07 1.15-.098 1.454.604 1.361.212.827-.008.472-.185 1.454-1.458 4.098-.166 1.245-.253.983-.21.407-.418.536-1.014 1.09-.336.593-.105 1.236.081 1.185.896 1.929.284.905.156.73.07 1.321-.04.971.092 1.446.273 1.324.696 2.147.557 1.181.18.902-.15 1.404-.057.182-.319 1.024-.307 1.304-.39.904-.121.049-.527-.12-.131.045-.378.531-.299.234-.716.266.125.548-.827.688-.076.697-.429.385-.052.117.018.52-.276.54-.366.929-.049.29-.95.665-.18.381-.311.374-.268.075-.5.377-.17.639-.148.094-.356.057-.225.234-.014.286.176 1.224-.071.28-.595.604-.104.31-.042.355.098.43.154.298-.01.123-.337.623-.06 1.09-.253 1.5-.091.25-.517.793-.397.259-.426.802.006.205.261.848.28 1.332.075.76-.485 2.106-1.34 3.2-.063 1.214-.153 1.307-.54 2.923.112.378.713.577.32.151.58.758.34.106.67.364.42.39.377.873.228.792.03.746-.441 3.999-.133.553.013.432.18.683.551 1.283.258 2.906-.251 2.512.114.476.85 1.99.485 1.776.172.407 1.478 1.849.88 1.646.285.735-.003.22-.53 1.522-.213.861-.036.668.134.37.853.746.154.219.03.145-.147.436-.31.525-.586.345-.711.802-.187.486-.247 1.14.038.222.27.528.825.608.293.361.183.383.006.014.13.373.15.85.11.28.963.818.666.468.59.652.274 1.168.1.271.503.735-.004.233-.403 1.01-.883 1.768-.717 1.434-.052.318-.008 1.058.133 1.065-.058.549-.767 1.232-.571.6-.316.441-.626 1.264-.194.684-.19.381-.308.36-.417.256-.286.468-.047.293.224.572-.054.532-.363 1.407-.014.487-.672 1.799-.076.912-.343.735-.532.369-.184.226-.132.272-.206.964.09.331 1.162 1.71.084.256-.012.174-.622 1.324-.004.216.216.7.083.548-.359.685-.562 1.324-.09.358.04.196.282.47.232.153.727.207.413.578 1.336.985.624.338.253.12.27-.013.424-.306.854-.918.086-.202.08-.386-.135-.87-.076-1.9.634-.48.47-.593.101-.25.004-.184-.459-1.023.157-.335.5-.717.004-.098-.317-.468.057-.276.34-.049.205.164.184.022.73-.212.056-.076 1.269.355.599-.587 1.654-.04.424-.288.725.014.56.413.255.067.312-.547.162-.09.247.143.189.205.062.21.29 2.13.265.113.52.742.188.411.032.693-.041.681-.042.208-.388.843.535.329.033.093-.253.328-.09.361.091.196.127.067.981-.16.425.251.053.341.148.179 1.197.31.624.462.65.596.743 1.25.472.454.034.2-.214.35.077 1.103.27.086.146.145.565 1.073.052-.01.04.414-.039.465-.157.274-.383.323-.084.416.034.62.106.054-.013.626.136 7.03.167 15.735-.006.113.026 1.074.028 1.39.096 6.339.132 8.777-.066 4.656.076 21.202-.095 9.578.074 14.657-.004.186.005.337.124 6.849.08 10.15-.667-.218-.12.141-.105 2.225.427.98-.264.939-.498.993 2.056 8.815 1.338-.042-8.74 37.955-15.793 68.332 1.553 5.801 1.137-.036.02 7.938-.153 6.668-.209 5.803-.035 4.793-.239 5.43-.15 5.532-.005.082-.328 10.452-.01 2.86-.268 8.584-.051 3.353-.064 4.107.003 3.445-.541 14.914-.192 7.653-.006.117-.006.147-.008.185.003.083-.009.08-.06 3.02-.001.234V703.744l-.049 1.65-.03.84-.013.32-.258 4.506-.101 4.715v.022l-.098 1.655-.28 6.47-.012 1.673.126 1.339-.175 1.97 4.172 6.091 4.586 6.925-3.176 2.046-.608.407-5.97 3.973-7.99 5.166-.894.584-6.696 4.437-3.791 2.507.67 1.125.725.946 2.903 4.476.911 1.36.925 1.407 1.222 1.85 1.003 1.518.932 1.214.091.174-.087.65-.418 1.34.106.967-.079.907.264.38.036.052.197.895-.426 1.826-.244.364-.298-.151-1.636.767-.559 2.252-.37.627-1.373.952-2.862 1.319-1.188 1.178-2.989 2.104-2.166 3.4.606.568.427.326.137.837-.086.7-.33 2.676.533.47.163.496-.062 1.503-.441.063-.724-.268-.58.326-.08.92-.162.214-.154.136-.193-.19-.367-.641-.368-.72.162-.789-.358-.706-.186.045-.407.561-.259.683-.91-.21-.707.47-.28 1.889.066.654.435.912.938 1.075.895.45 1.409 2.245.653 1.04.652-.08.817-.823.101-.101 1.643-3.317-.076-.952 3.06-4.321.174-.638-.535-1.374.129-.183 1.926-.646 4.731 1.962 2.372-1.198.104-2.319 1.546-2.384.861-.936.824-.223 1.158.202 1.89-.86.793-.756 3.032-1.419.462-.081 2.253 1.068 3.485-1.034.53.22 1.808-.932.324-.763.047-.11.483-3.032.755-.724.88.63 1.817.676 3.318.327.862.792.177 1.335 2.788.098.35-.8-.17-2.761.244-1.919.127-.2.84-.048 2.359 2.772 1.075.912 1.644.744.888.191.158-.33 1.548-.434 4.465.644 7.213 2.472.95.325 9.64-4.262.292-1.013.044-3.363.402-1.69 3.668-1.094 3.501-.337 4.7 1.547.38-.392 5.412-.573 4.974-.176 5.068.355 3.115-.231 7.528-1.475 6.37.406 3.442-.681 4.503-1.754 2.698-.535 2.692-.042 3.41-.55 5.984-2.85 2.322-2.055.487-.987 1.315-.784 3.286-3.061 5.25-2.648 1.876-2.5 1.714-3.186 3.3-.485 1.778-1.553 5.487-7.273 2.789-1.307 2.15-.284 2.553-1.424 1.467-.547.738.556.602.103 2.69-1.304.882.226.088.488-1.734 3.224-1.318 1.478-4.122 2.867-.15-3.19-.823-.886-.778-.068-.643.266-.982.862-.936 1.977.137 2.151 2.352 2.814 2.444 1.088 2.113-.022.48.566-.69 1.473 1.305 2.565 1.689 1.43 2.316-.576 1.45-.02 1.482.515 1.98 1.228 1.371-.133.858-.545.431-.482.484-1.278 1.386-1.225.301-.122.812.268 2.135 1.838.347 1.338-.202 1.206 2.803 3.728.954.864.86.363.817-.025 1.46-.92.304-1.148.06-.49.341-.452 1.788-.17.476.722.103-.023.226-.07.426-.222.217-.541-.308-.959-.096-.765.522-.367 1.438.2 2.449-1.386 1.797-1.949 3.83-1.56.657-1.096.028-.909-.19-.658.162-1.178 2.527-1.165 2.258-.652 2.44-.214.494.526.741.222 2.434-.057.598-.343.883.484.188.466-1.95 3.096-3.495 2.195-3.82 1.222-11.032 6.267-10.073 5.146-33.296 19.082-8.84 4.38-12.386 5.465-20.633 8.573-.939.618-.504-.104-1.322.52-11.414 5.21-7.21 3.542-10.709 5.96-5.111 2.39-10.945 3.877-7.665 2.702-3.735 1.097-2.8.705-5.443.341-2.525-1.9-3.082.545-7.977 3.458-.791.239-7.445 2.235-2.734.819-6.307 2.079-1.365-.274-5.044-.42-3.67.92-12.557-.22-.96-.413-.813-.35-2.219.247-7.256 2.43-8.614 3.64-4.306 2.319.692-3.902.265-1.495-7.34 1.121-2.567-.606 1.181-1.363.197-.227-.397-1.883-3.68-1.305-.867-1.358-.4-1.923.447-1.996.289-.61.441-.935 1.64-2.08-.357-3.193-.203-.275-.433-.587-2.355-.626-.237-.112-.123-.206.75-1.585 1.963-1.565.34-2.924.77-4.752.533-1.149 2.833-5.563 1.58-3.104.365-.718.571-1.02 1.028-3.447.65-1.702 1.171-2.673.537-1.21.503-1.23 1.023-3.897.002-.01.138-.642.06-.018.02-.31.23-.882.887-4.33 1.173-4.92.23-2.513-1.061.016-.286-.04-.253-.135-.602-.438-16.003-8.89-6.36-3.516-.531-.293-10.568-5.838-3.796-1.943-2.617-1.341-8.313-4.607-2.342-1.53-5.626-3.27-1.494-.87-9.67-6.135-5.152-2.986-13.191-7.898-4.178-2.367-6.516-3.854-.18.016.637-.493.155-.199.025-.368-.204-.558-.471-.494-1.016-.736-.635-.604-.241-.512-.383-1.236-.317-.442-.598-.33-1.15-.14-.396-.206-.3-.225-.303-.446-.3-.628-.097-.443.068-.57.285-.335.456-1.493-.026-.502-.08-.264-.145-.282-.216-.225-.3-.079-.348.09-.822.438-.438.463-.042.025-.464.281-.618-.043-.845-.41-.313-.016-.575.209-.756.446-.732.128-.418-.157-.188-.208-.517-1.17-.069-.22-.04-.547-.107-.327-.543-.637-.235-.118-.548-.014-.703.408-.582.605-.37.818-.307.171-.25.035-.48-.041-.277-.13-1.056-.946-.371-.414-.681-.473-.531-.196-.737.078-1.445.606-1.44.351-.632-.1-.257-.168-.049-.352.17-.633.697-.837-.007-.207-.155-.448-.215-.26-.358-.194-1.105-.248-.326-.21-.153-.563-.01-.56-.134-.693-.408-.506-.577-.225-.82-.006-.334-.188-.7-.636-1.112-.184-.462.057-.29.42-.999.636-.222.057-1.404-.154-1.422-.39-.205-.15-.205-.45-.075-.347.037-.523.324-1.187.033-.325-.03-.401-.249-.904-.156-.21-.241-.128-.753.004-.687.225-.427-.109-.068-.191-.004-.294.13-.555.194-.497v-.266l-.048-.218-.312-.544-.694-.703-.65-.467-.206-.112-.772-.16-.144-.139-.068-.173-.012-.757.235-.268.624-.211.177-.245-.026-.362-.272-.85-1.078-1.879-.226-.174-.476-.069-.463-.31-.425-.421-.415-.866-.358-1.31-.74-.72-.864-.481-.445-.628-.4-.75-.335-.361-.594-.642-.005-.352.354-.26.464-.107.611.076.358-.19-.03-.241-.21-.506.012-.155.175-.17.749-.196.24.079.42.345.131.03.215-.068.151-.286.072-.911-.568-1.34-.058-.285-.086-1.298.053-2.323-.157-1-.496-.903-.393-.115-.142-.115-.112-.427.065-.337.728-.652.162-.247.003-.398-.188-.954-.49-1.17-.376-.642-.9-.911-.19-.436.02-.32.238-.394.653-.06 1.075.238.184-.094.097-.216.017-.287-.475-1.932-.165-1.286.228-1.536-.085-1.254-.894-1.935-.499-.324-.44-.095-.492-.238-.19-.273-.205-.16-.423.054-1.593.47h-.316l-.664-.115-.302-.338-.102-.233-.039-.242.122-1.253.14-.723.102-.231 1.017-1.363.543-.189.828.162.375-.16.164-.169.291-.593.261-.987.045-.574-.052-.293-.27-.215h-.437l-.21.049-.71.517-.44.011-.488-.285-.781-.792-1.597-.7-.183-.461-.039-.26.014-.483.18-.963.003-.706-.126-.462-.145-.168-.383-.187-1.089.155-.367-.037-1.113-1.104-.428.058-.313.136-.768.38-.431.04-.603-.238-.315-.278-.248-.364-.305-.863.073-1.25-.133-.52-.172-.21-.48-.165-.245.048-.296.392-.159.683-.208.56-.198.271-.156.095-.208-.028-.228-.184-.158-.19-.15-.417-.354-.355-.413-.241-.738-.166-.684.103-.623.292-.61 1.112-.429.496-.237-.003-.705-.313-.355-.337-.502-.66-.287-.226-.263.04-.559.576-.375.204-.792-.014-.324-.263-.274-.386-.105-.302-.019-.426.276-.405.363-.292.103-.324-.37-1.07-.285-.21-.572-.138-.42-.219-.157-.93-.026-.633.594-.781.021-.815-.262-.69-.678-1.312-.143-.423.003-.716-.093-1.109-.224-.851-1.23-.632-.19-.344-.095-.328.036-.863-.274-.338-.58.013-.217.105-.14.17.045.627-.051.084-.275.027-.762-.125-.294-.186-.64-.647-.226-1.062-.28-.132-.83-1.045-.77-.33-.443-.075-.324-.333-.031-.23.55-1.616.022-.371-.422-.971-.65-.407-.826-.284-.724-.372-5.077.02-3.539.01-.507.003-4.871-.004-.715.024-.07.002-8.254.024-6.813.011-15.702.127-15.29-.239-13.043-.133-.337-.003-14.612-.116-2.125-.039-.893-.01-1.705-.013-23.591-.23-.735-.02-13.36-.305-.52-.024-.773-.027-10.064-.353-.06-.002-22.789-.726-7.877-.182-2.284-.072-10.197-.257-.132.013-.618-.016-1.19-.032h-.655l-2.75-.026h-.005l-4.976-.062-.012-.005-6.669-.126-7.264-.04-45.271-1.613-12.458-.381-16.641-.547-8.666-.326-1.098-.043-19.672-.908-3.973-.285-.025-.005-11.113-.691-9.738-.343-7.682-.281-4.385-.296-34.278-1.93-18.203-.777-14.852-.815-5.23-.417-7.617-.614-9.281-.65-13.923-.957-8.459-.473-26.433-1.786-7.824-.619-1.534-.136-7.048-.58-1.715-.143.001.01-5.315-.458-10.82-.753-.021-.203.216-3.03 1.258-15.938.104-1.958.274-3.1.161-1.905.113-1.697.079-1.016.06-.626.703-9.467z"/></svg>