<svg height="1000" width="1000"><path class="americon" d="M469.152 107.583l7.308-7.563 8.345 7.49-1.194 13.252-10.349 3.827zM65.829 748.088l1.019-20.663v-.006l1.13-22.945 1.521-34.48.534-12.105 1.848-41.986.001-.016 2.373-50.22 1.097-23.234 1.267-26.902 2.69-53.351.563-11.209.001-.021 1.302-29.55.421-9.558.691-18.47 1.528-40.869v-.004l1.718-50.882.59-17.465 1.163-34.491 1.147-34.22.163-4.876 1.196-35.71.142-4.625.833-27.096 1.327-43.151 71.467.032 7.48-.048 7.598-.055 43.884-.419 49.319-.824 22.758-.456h.022l34.45-.819 25.559-.678 8.475 10.86 16.082-2.518 18.356 15.07 13.152 5.32 18.872 7.599 7.453 10.361 18.226 10.814 14.61-16.119 4.953-2.914 22.638 11.876 5.344 11.767.518 1.14 13.898 16.611 16.407 9.648 14.207 1.187 19.244-10.643 2.688-.183 15.531-1.067 16.857-10.8 21.47-6.84 14.872-4.767 5.126 2.68 1.603.838 4.417 2.306 22.484-1.36 2.289-.142 8.246.935 5.831.658 20.221-13.919 27.67-25.077 4.312-3.921 14.66-15.442 19.362-14.308 19.673-7.416 25.218-14.494 9.52-2.798 19.53-5.769 18.858-11.228 41.757-14.02L921.091 25l1.349 33.177 1.9 46.675 1.826 44.154.118 2.84 1.677 40.486 1.09 26.31.993 25.87.083 2.165 1.38 35.963.81 21.103.048 1.101.024.556.554 12.81 2.41 55.643-12.614 6.62-8.709-.818-7.74 10.128 9.746 15.91 4.212 19.242-3.963 13.697-.748 2.582 5.844 21.245-7.084 14.126-7.302 17.206-3.404 8.003-.633 1.486-5.502 19.063.168 12.269.227 16.553-4.723 5.598-7.57 8.59-3.411 18.28-.143.764.29 12.167-8.778 10.233 7.4 11.461 1.24 1.918-6.829 13.23-15.426 15.307-18.496 18.846-7.645 7.766-8.844 14.046-1.419 2.25-11.603 5.287-12.623 11.166-19.872 12.272-4.7-.656-4.821-.675-4.163-11.282-8.994-3.667-9.413 9.783-11.323 11.528-.827 14.514-9.992.44-13.232.695-6.559 14.614-1.982 2.235-6.307 7.106.112.965 2.3 19.752-1.495.706-11.786 5.55 3.213 11.55 3.923 15.797-10.518 9.466-14.657 4.588-9.244-16.815-13.632-9.455-7.089 3.212-9.678 11.282-1.978 4.046-7.257 14.818-5.309 21.636-9.848 5.965 1.732 11.264 3.619 26.86 2.321 13.623-9.095 4.587-11.554-.42-1.607 3.709-2.279 5.253-2.136 17.122-4.031 12.618-12.076 3.972-13.673 2.182-12.957 3.377L531.58 975l-6.94-4.648-5.247-14.771-9.577-8.164-2.433-2.077-10.29-11.235-15.73-1.483-2.389-2.455-8.3-8.546-3.79-19.725-.318-10.73-2.301-6.205-1.43-3.86-11.234 3.39-14.303 3.48-3.87 3.505-2.51 2.27-14.641 9.705-3.511 8.378-9.147 5.277-13.936-2.33-5.206 4.09-4.67 3.666-7.042-6.335-11.529-10.467-13.339-2.254-19.254-8.983-19.582 5.787-3.497 9.59-.823.367-6.843 3.049-5.468-2.227-13.732-5.606-2.21-10.049-10.395-5.627-3.58-9.522-10.793-4.44-4.967-2.048-10.397-3.558-15.23 3.854-.208-.063-17.023-5.167-16.06-4.728-2.587-6.486-1.385-3.474.42-8.53.077-1.537-11.077-20.359-1.637-9.073-4.727-8.355-1.05-1.86-15.228-5.461-6.313-10.19-2.297-8.182-3.406-2.044-3.937 1.21-2.755 3.72-1.126.045-1.515.059-9.162.353-12.001 6.564-2.917-1.475-11.162-5.653-7.273-9.4-7.425-4.17-14.704 10.611z"/></svg>