<svg height="1000" width="1000"><path class="americon" d="M493.97 131.038l3.283-4.235 2.234.002.754.486.63 1.441 1.767.22 2.13-1.99.463.254-.55 6.082-1.04 1.918-.528.352-2.584.124-4.635-2.533-1.935-1.502zm-20.977-11.35l1.66-16.106 1.826-3.596 1.03-.451 1.925 1.047 5.387 6.893-2.009 7.62-6.597 8.056-2.934 1.396zM66.192 743.314l.036-.92.02-.853.15-2.873.097-2.582.36-8.9.063-1.139 1.186-21.798 1.174-22.657.365-8.892v-.027l.147-2.882.292-6.905.216-4.813.01-.265-.012-.118-.019-.174.675-15.997.337-7.123.068-3.534.127-2.973.524-12.184.001-.017.554-15.568.014-.338.118-3.407.13-3.072.015-.744.166-2.744.032-.567.175-4.298.007-.03.098-2.004.041-.656.273-5.194.224-4.712.025-.199.301-6.678.057-1.278.087-1.47.848-17.914.15-2.567.446-7.67.214-3.873.763-15.341.27-5.21.021-.529.793-13.436.2-3.187.002-.02.087-1.49.354-6.745 1.055-20.716.108-1.995v-.006l.364-11.205v-.023l.48-15.422.598-13.387.046-.744.6-9.544.26-6.882.461-11.58v-.002l.71-19.04.135-4.046.131-3.793.15-3.81.025-.545.11-2.9.135-4.224.103-2.498v-.005l.104-3.702.164-6.08.403-9.18.994-31.856.001-.05.551-17.419.002-.048.925-26.092.329-8.38.071-4.99.298-6.293.045-2.233.03-.178.732-20.507v-.008l.155-4.792.001-.036.002-.05.836-25.193.336-10.504.018-.017.037-.857.145-3.746.001-.022.095-2.447.387-13.716.095-3.159.242-7.734v-.01l.002-.026.56-21.537.194-4.77.014-.245.288-10.97.226-5.593 10.904-.176 60.541.21 7.478-.033.582-.002 6.987.018h.025l43.872-.504 22.333-.461 3.981.046 19.232-.42 3.73.041.029-.001 4.048-.224 18.703-.259h.022l10.498-.24 4.582-.264 3.763-.07 5.104-.13.582-.018 8.032-.22.272.004 1.608-.027.06-.001 15.695-.362.174.002.718-.017.388-.047 8.515-.104-.364 1.347 1.234 4.362.565 1.012 7.037 4.135 3.282-.147 3.266 1.412 3.625-.253 2.975-1.466.757-1.335.014-1.23 2.159.502 6.336 5.443.62 1.059 2.364 1.247 7.775 5.5 1.255 1.818 7.192 3.489 5.587 2.057 3.845 1.414 8.153 1.178 3.47 1.808 3.767 2.969 4.543 7.144 2.908 3.215 5.466 4.477 5.886 3.743 6.868 2.59 7.144-1.256 1.859-.847 2.53-1.864 1.133-1.112 2.47-3.719.31-4.125-.84-3.19 1.281-1.808 1.032-.6 2.639-.505 2.701 4.404 5.039 6.293 1.72 1.512 2.626.024 4.305-1.535 6.24 1.175 1.354 1.372-.132 2.46-2 2.742.412 1.66 1.155 2.237.76 1.068 2.984.944 1.327.42 5.795 7.916 7.94 7.803.158.888 11.53 7.361 8.67 4.064 2.883.693 3.498.033 4.023-1.32 5.708-2.784 6.463-4.494 7.067-3.36 2.674-.487 2.71-.494 8.325.398 4.506-.667 2.686-.963 11.887-7.96.873-.936.507-1.397.272-.16.626.62 3.158-.765 13.824-5.528 15.954-5.574 3.396.264 5.183 2.013.63.244.455 1.062.83.69 4.044 1.814 11.832 1.896 3.333-.158 9.601-3.239 3.232-.317 2.323.114 2.634 1.098.055.013 4.666 1.071 1.163-.386 5.355-3.54.777-1.088 8.055-6.818 6.028-2.468 6.492-5.392 7.03-7.152 6.28-7.164 5.643-2.444 2.246-2.107 4.282-4.73 4.393-6.374 10.264-9.063 6.73-5.525 9.845-6.183 2.781-2.595 1.358.04 3.054.386 2.99-.9 12.266-6.939 13.596-8.425 3.858-1.524 7.756-4.54 5.24-1.96 2.65-2.03 1.61-.296 12.665-2.345 6.878-1.933 16.231-8.032 1.17-1.057 1.45-2.136 3.092-.6.553 1.25 4.588-1.91 7.102-1.919 26.41-10.835 5.3-2.858L920.979 25l.018.353.357 8.334.147 3.842.846 20.637.897 21.901.108 3.285.13 3.407.406 9.836.308 7.854.029.38 1.378 33.903.146 2.736.291 7.502.119 2.838.287 6.875.32 7.057.201 4.95h-.006l.353 9.768.079 1.8.11 2.858.196 5.284.006.155.015.127.007.157h-.004l.026.49v.007l.013.309.029.638v.003l.25 5.492.138 1.794.354 9.697.002.038.052.78.212 4.247.133 4.25.14 3.441.12 2.644.34 9.914.279 6.699.118 3.165v.012l.118 2.145v.006l.001.01h-.009l.11 2.373.073 2.768.061 1.184.114 2.651.092 2.24.093 1.843.04.821.017.238.093 2.456.497 12.052.2 5.208.083 2.107.687 17.329-.004 3.77.059 1.103.023.439.007.114.008.122.388 5.827.276 6.852.013.331-.002.24.528 12.538.082 2.336 1.65 40.187-.562.498-.734.272-.884-.013-.518.196-1.316.963-1.238.685-1.031.266-1.854 1.43-1.352 1.663-.793.582-.942.36-.621.004-.764-.289-1.747-1.762-.413-.29-.95-.382-1.016.092-2.377.977-2.203.548-1.39 1.062-.951 1.3-1.034 2.043-1.285 1.6-.436.348-.243-.008-1.418 1.353-.624 1.04-.359 1.387.08 1.152.216 1.156.873.882 1.522 1.252.6.67 2.345 3.62 1.748 2.483.53.186.615.535 1.215 3.97.346 2.151.679 2.655 1.913 3.221 1.373 1.334.667.41.813 1.886.18 1.018-.176 2.109-.388 1.33-1.13 2.304-.067.817-1.167 2.386-.19.77-.083 1.448.25 2.83.032 2.865.22.99-.068.318-.571.759-2.539 1.15-.312.24-.485.37-.248.851.451 1.297.177.143 2.341.733.991.75.98.961.475 1.402-.141 2.004-.551 1.81-.123 1.978.47 1.77 1.717 3.354.55 1.741.156.915-.492 2.809-.708.87-1.541 3.192-.312 1.776.254 3.412-.55 1.89-.606.919-2.853 2.085-.028-.21-1.446 1.057-1.441 1.715-1.743 4.062-.447 2.816-.272 3.407-.295 1.75-.83 1.955-1.347 1.631-.437.229-.039.02-.328.35-.463.704-3.133 6.534-.313.653-.249.861-.202 1.745-.48 1.78.025 3.436.421 1.878.15.214.262 1.04.084.63-.147 1.455-.244 1.037-.202.509-.538.732-3.463 2.87-1.167 1.731-.32 1.172.062 1.105.345 1.702.616 1.375.25.228.538 2.512.024.658-.03 2.428-.316 1.097-.007.023-.572.903-.197.623.055 1.218-.072.585-.492 1.479-.21 1.933-.006.603.279 2.308.238.764.354 2.313-.145 3.785-.598.465-.599.782-1.745 1.298-.663.636-.925 1.546-.191.868.028.962.815 4.592.998 2.21.21 1.057-.074.696-.345.938-.192.26-.27.158-.39.015-1.157-.153-.9-.406-2.12-1.47-2.626-.572-.972.102-.573.198-.515.45-.303.589-.293 1.231-.042 1.113.163.755.63 1.54.83 1.475 1.308 1.56.466.707.876 2.751-.075 1.316-.447.948-1.324 1.326-3.294 1.671-.953.84-.58.767-.348.784-.146.687.204 1.54.726 2.172.135.66.185 3.498-.466 2.822-.202.67-1.8 2.15-5.484 4.288-.634.936-.511 1.439-.145.748.533 1.684.494 1.004 2.255 2.74.416.396 1.38.806 2.057 3.6.435.605.231.195.401.34.422 1.422.013.582-.37 1.649-.39.585-1.04.688-1.125.461-1.472.284-.518.306-1.412 1.067-.385.517-.38 1.4-.077.88-.026 1.239.367 4.151-.125 2.687-.59 1.534-.16 1.067.07.294-.085.745-.906 3.175-.83 1.717-2.377 1.128-.877.03-1.997-.375-2.32.006-1.662.402-1.495.735-.717.605-1.35 1.552-5.285 4.622-1.62 1.804-1.795 1.715-1.165 1.629-.615.585-2.364 1.75-2.262 2.03-.758.844-.532 1.015-.688.905-1.699 1.422-1.233 1.032-.994 1.199-.393.696-1.66 1.792-2.03 1.852-1.041 1.71-3.06 3.456-1.84 2.653-2.612 5.62-.143.003-1.228 2.296-.632 1.18-.746 1.083-.793.846-.38.33-.746.366-2.94.247-2.233.593-1.44.575-1.87 1.13-.474.434-.723.764-.92 1.928-1.923 2.245-.95 1.226-.589.981-.505.965-.111.41.152 1.3-.13 1.1-.27.624-.848.837-.82.4-.452.042-3.772-1.012-1.482.117-2.168.934-2.233.27-1 .591-1.141 1.233-3.266 1.383-1.465 1.058-2.968 2.533-1.326.858-1.894 1.48-1.407 1.299-.998.628-1.898.738-2.937.372-.96.12-.764-.081-1.01-.338-1.409-1.387-.541-.754-.454-1.01-1.088-3.598-.466-2.029-.877-2.942-1.276-1.7-1.65-1.486-1.684-1.284-1.454-.786-2.244-.449-1.959.34-2.34 1.514-1.093.982-1.923 2.829-1.224 1.514-2.83 2.94-2.075 1.69-2.184 1.493-2.062.943-1.583 1.458-3.033 3.809-.384 2.131-.026 3.424-.864 6.39.063 4.696-.4 1.47-.578.808-3.152-.215-.627-.262-1.372-.926-1.695-.533-1.041-.114-1.124.211-1.512.483-4.513-.849-2.663.013-2.878.428-1.662.62-1.073.769-1.177 1.323-.514.758-.855 1.661-.082 2.203.086.695.205.862.76 1.782.265 1.576-.045.583-.209.404-.442.629-1.28.892-2.196.472-2.606.773-.247.184-.282.209-.596.857-.67 1.611-.456 2.559-.25.65-.895 1.144-1.697.858-.588.493-.6.994-.01.12-.074.865.441 1.533 2.1 6.089.25 1.717-.182.829-.025 2.108.076 1.084.549 2.658-.113 2.714-.165 1.12-.308 1.15-.358.724-1.025 1.482-1.704 1.574-.836.574-2.19.998-1.216.102-.849-.117-1.079-.3-1.542-.796-1.016-.248-.99-.01-.575.197-.346.326-.296.75-.035 1.543.201 2.017.381 1.67.578 1.16 1.192 1.973.633.707 1.478 1.204 1.413.978 2.881 2.714 1.188 1.628.643 1.239.043 2.314-.166 1.068-.408.663-.974.888-.416.85-.29.956-.218 1.326.068.822.158.346-.82 2.135-.362 2.094.253 1.582.407.813 1.031 1.112.896.765 2.692 3.027.193.957-.464 1.5-.298.57-.543.464-.733.327-.73.07-.902-.045-1.488-.463-.918-.353-1.62-1.039-.632-.599-2.068-2.523-1.695-1.05-1.134-.206-1.102.13-.479.196-.851.6-1.326 1.771-1.291 2.256-.257 4.147.171.824-.653 2.323-1.477 2.336-.6.688-3.263 2.456-2.951 1.886-.746.121-1.186-.17-2.111-1-.35-.216-1.179-1.307-2.325-1.917-.222-.5-.081-.499.324-1.587 1.538-1.97.27-.534 1.185-1.34.737-.501 1.51-1.871.193-.288.289-1.122-.475-2.141-1.276-2-1.248-2.399-1.246-3.242-1.773-2.877-1.412-2.68-.765-.72-1.046-.751-2-.698-1.613.239-.32.258-1.43.373-1.26.163-.742-.06-.398-.131-.375-.303-.186-.355-.175-1.67-.22-.927-.708-1.72-.913-1.69-.76-1.08-1.53-1.414-.998-.438-2.171-.102-1.998.48-1.788.796-.568.753-.561 1.284-.797 3.763-.7 1.74-.486.778-1.474 1.164-2.071 1.411-2.159 1.04-1.99 1.382-.51.593-.32.748-.331 1.709-.809 1.676-.341.708-1.726 2.71-.356 1.389.08 1.357-.22.721-1.889 3.086-1.6 2.975-1.21 1.187-1.717 2.018-.27 1.708-.12 2.185.664 1.697.473 1.789.175 1.417-.453 3.636-.64 2.916-.571.94-2.848 3.323-.892.596-2.805 1.38-2.422.624-1.665 1.737-2.062 1.626-1.07 1.072-.568.809-.87 2.273.03 1.967.24 1.616.812 1.429 1.982 1.154 1.175.94.56.7.696 1.402.52 2.997.76 1.006.3.877.388 3.09.436 1.756.458 1.89-.074.88-.439 1.687-1.028 3.16-.125 1.87.69 2.047.35 1.57.125 1.921 1.387 2.841.498 1.623.55 2.557.344.93.136.987.02 1.789-.614 2.891-.424 1.26-.968 1.186-1.407 1.19-1.05.517-2.364.393-2.88.04-.668.087-4.987-1.846-1.357-.067-2.003.18-1.955.767-.58.46-2.651 2.988-.862.97-.45.966-.078.722.156 3.312-.45 5.829-.426 1.394-.513 1.046-.529 1.662-.217 1.472.22 3.553-.222 2.161-.431 1.505-.88 2.019-.375 1.89-.28 2.15-.85 2.737-1.214 2.313-1.316 1.286-2.151.968-4.081.662-4.524 1.055-1.67.127-3.18-1.313-6.163 2.52-2.656.847-2.637.631-5.627 1.799-4.413 1.976-4.584 1.522-2.225.416-2.012.133-2.28-.294-1.827-.506-1.64-.666-.588-.361-1.74-1.427-1.143-1.687-.685-1.307-.815-2.865-.718-5.993-.869-2.192-.475-.91-.703-.819-.98-.68-1.181-.695-2.85-1.262-2.241-1.576-1.816-1.72-1.77-2.38-.013-.019-2.135-2.587-2.988-5.45-1.395-1.652-.716-.593-2.949-1.654-1.154-.832-1.085-1.05-1.277-.444-1.802.075-5.038-.372-3.296.369-2.153-.248-2.16-.863-3.32-2.018-.866-.527-4.045-3.597-.994-1.257-.6-1.15-.86-2.45-.618-2.436-.312-1.965-.204-3.222.108-3.524-.641-3.818-.81-2.376-1.31-2.377-1.103-1.243-.56-1.962.15-1.921.336-2.028.858-3.574.168-.986.107-1.628-.288-2.987-.269-.854-.362-.757-.24-.498-.83-1.121-2.015-1.23-1.04-.135-6.14 1.72-4.05 1.803-3.283 2.205-2.044 1.648-2.23.74-1.394-.085-1.642-.62-1.102-.217-2.605-.192-2.069.33-1.285.434-.58.377-.04.042-.444.467-.618.972-.52 1.005-.821 2.146-.502.738-1.755 2.584-2.345 1.818-4.157 2.083-3.864.987-.98.553-1.035.938-1.152 1.491-.988 1.829-.807 3.72-.563 1.336-1.28 2.265-.741.912-.895.851-2.947 1.19-1.632.118-1.649-.06-3.917.68-2.307.155-1.786-.446-2.502-1.51-1.939-.926-1.48-.284-1.266.164-1.157.448-.727.747-1.372.17-.604.312-.746.844-.03.035-.177.83-3.795 4.204-.498.333-1.11.36-1.616-.439-1.221-.718-.749-.672-1.256-1.595-.318-.801-.199-1.02-.073-1.782-.366-2.113-1.078-1.846-2.557-2.21-3.406-2.26-2.117-1.23-2-.805-1.758-.472-5.676-.95-1.694-.534-4.208-.297-1.37-.225-2.085-1.045-.575.086-1.713-.516-.845-.718-.874-1.115-2.069-2.118-1.416-1.109-2.278-1.381-1.7-.679-1.74-.377-2.583.216-3.335.84-2.63.876-1.515.654-1.258.274.08-.245-8.569 2.15-2.349 1.236-1.503 1.588-.467.731-.255.705-.456 2.331-.144 1.787-.671 2.445-.635 1.663-.815 1.124-.671.563-.527.224-.814.292-.964.162-.875-.05-2.363-.564-1.251-.515-3.82-2.154-.273-.015-.594-.031-1.085-.485-.727-.564-.197-.428-.59-.398-3.628-.39-2.434-.49-2.6-.71-.547-.218-.876-.64-.573-.792-.71-2.308-.266-1.194-.522-3.667-.71-2.878-.71-1.04-.73-.596-1.626-.828-1.607-.548-1.57-.251-1.65-.6-2.499-1.762-.548-.504-.791-1.097-.216-.632-.156-.738-.032-.893-.367-1.894-.294-1.3-.5-1.313-.676-1.148-1.416-1.457-1.542-.939-1.369-.618-2.88-.905-3.481-.75-.011-.003-1.852-.464-.894.008-2.02-.548-.33-.177.042-.634-3.177-2.475-1.973-.723-1.776-.36h-3.469l-3.486 1.31-2.224.42-3.565 1.28-4.469 1.097-1.482-.254h-.217l-2.23.01-1.684.141-4.717-1.382-2.989-1.138-1.394-.96-3.994-1.9-4.29-1.551-8.776-1.823-1.491-.482-1.497-.87-1.846-2.193-.646-1.06-.951-2.393-.045-.234-.161-.839-.323-3.239-.02-2.907.526-5.128-.002-.532-.007-1.497-.017-1.024-.375-2.381-1.128-2.077-.51-.62-.585-1.04-2.24-4.367-.76-.922-2.817-4.048-1.01-1.001-1.63-2.872-1.34-3.366-.165-4.534-.131-1.171-.39-1.686-1.028-2.814-1.779-2.85-1.255-1.392-1.325-1.47-1.984-1.491-1.973-1.146-2.94-1.254-5.423-1.166-1.507-.07-1.395-.333-.336.177-.909-.027-2.958-1.49-.863-.59-.436-.52-.372-.888-.443-2.487-.122-1.44.145-1.406-.017-1.516-.328-.781.188-1.484.241-.472-.493-2.142-.994-1.997-.91-1.304-.912-.903-1.123-.726-1.37-.414-1.754.027-1.193.575-.989.608-1.45 1.552-1.304 2.167-.446.424-.15.143-1.167.926-.842.39-.767.353-2.034.363-1.051-.06-3.386-1.968-.449-.147-1.508.032-.756.428-.663.724-1.384 1.95-1.736 1.355-4.214.92-1.948.993-1.296.191-2.512-.14-.738-.283-1.777-.68-3.56-4.082-1.389-1.057-1.813-.726-2.286-.158-1.547-.637-.976-1.018-2.38-4.018-2.367-3.724-.887-1.201-1.52-1.356-1.192-.706-2.464-.884-1.36-.021-.768.158-2.61 2.061-3.747 5.317-.786.707-1.288.58-3.527.882-.326.53-.32.151-1.328.221.46-11.578.12-2.264.603-18.478z"/></svg>