<svg height="1000" width="1000"><path class="americon" d="M27.229 302.162l3.053-31.61 1.128-12.197 17.225 1.674 15.423 2 36.9 3.275 33.704 2.914 1.513.11 13.558.964 37.439 2.505 7.543.477 29.547 1.748 15.651.895 13.058.717 9.696.515 24.005 1.128 8.708.387 50.018 2.322 9.387.392.796.033 36.454 1.651 12.59.493 9.174.344 5.315.193 29.995.933 13.959.384 22.522.555 26.73.637 20.604.413.749.01 25.427.283 7.206.061 26.279.143 3.634.011 33.127.06 8.372-.014 25.649-.117 5.09-.036 37.931-.368 24.247-.314 2.735-.041 30.562-.653 23.43-.573 3.95-.106 3.907-.106 15.278-.432 23.036-.722 5.53-.186 12.404-.434 9.19-.337 26.904-1.077 7.116-.304 1.332-.057 30.516-1.282 10.236-.511 1.514 31.443.694 13.365.39 7.5.747 15.36 4.816 26.925 3.57 18.644 1.551 8.078 2.978 15.475 5.689 29.747.232 1.24 3.067 16.37 3.623 19.268 2.4 14.094.159.929.39 2.284.254 12.87.695 29.342.417 17.7.14 5.985.57 22.29.332 12.983.51 17.62.59 20.467.696 23.514.696 23.623.301 10.942.581 21.132.637 21.052-4.875 2.491-5.436-6.427-6.71-.152-9.993-4.233-2.067-1.793-4.14-3.595-8.677 1.606-7.249-4.807-4.523-4.566-5.118-5.594-7.556-1.106-5.836-5.636-6.46-4.12-.755-.268-8.254-2.935-2.962 4.602-3.16 7.356-3.097.662-4.804 1.024-10.977.253-9.08-1.999-3.841-5.65-5.392.155-7.555 3.216-7.75 1.616-5.92 3.454-3.518 2.048-2.813-.19-4.935-.339-5.568-1.411-14.735 5.057-10.105 1.578-2.373 4.426-6.317 7.461-5.651-2.903-3.387 4.91-6.346 5.814-1.973-2.933-2.846-4.232-3.902-4.63-7.604 1.054-2.603-6.175-5.678-.044-2.337-1.608.216-6.928-.532-.32-7.6-4.566-2.485 5.604-3.417 6.313-7.458-1.343-2.07-3.72-6.473 3.093-5.468-7.699-.993-6.147-3.354.26-1.184.092-.887.069-4.171 3.67.406 4.44-8.084 4.351-2.586 6.003-1.034 5.391-.334 5.434-6.747 1.876-6.582-12.202 4.485-5.243-4.615-9.294-4.613 1.96-8.307 4.932-6.307 6.373-8.242-.59-.847-6.562-3.776-5.976-.273-.432-8.287 2.764-.343-.273-4.026-3.212-1.48-6.398-7.218-3.255-10.192 9.16-5.07 6.239-7.224 4.243-9.845-4.111-.066-1.782-.17-4.613.78-9.266-6.69-.739-8.883-.981-1.805-6.443.054-7.73-2.688-7.005-1.756 1.832-3.564 3.712-6.432-1.894-10.703-2.807-5.178-1.56-4.015 3.916-1.933 5.994-1.054.417-5.969 2.357-6.037-4.369-5.485-7.6-3.795-1.078-4.309-1.228-4.912 4.243-5.424.186-7.914-3.634-7.496-.807-7.655-6.19-1.385-.17-5.788-.72-6.437.872-8.312-1.355-6.625-.88-2.12-13.886-1.098-1.614-5.884-8.664-8.35-7.257-5.06-.86-3.192 8.432-5.697-2.41-.46-.072-12.445-1.937-1.942 4.5-10.982-1.29-7.518-7.806-5.787-7.512-2.613-2.75-9.532-10.053-7.86 1.819-.316.073 1.115-25.65 1.698-39.114.908-20.937 1.424-32.884 1.166-26.946 1.546-35.787 1.03-23.837 2.603-60.415-.366-.015-33.538-1.533-25.66-1.27-5.07-.262-31.803-1.803-7.633-.428-14.288-.827-58.721-3.936-22.075-1.624-22.406-1.765-14.164-1.157L25 325.778l1.337-13.825z"/></svg>