<svg height="1000" width="1000"><path class="americon" d="M25 696.348l10.014-17.723.2-.564 6.639-18.857 4.037-14.413 2.65-10.44 2.121-7.522-1.782-5.424 6.12-6.288 9.028-14.88 7.733-19.465 2.298-8.638 4.125-15.544 5.66-25.6 1.696-7.694 5.375-31.53 2.731-21.304.05-6.772.013-1.673 4.973-20.88.996-13.963 3.544-21.304.926-11.513-.24-15.55 1.65-5.981 5.723-18.348 2.555-15.362.064-.383 4.941-15.712 1.01-11.563 1.786-10.224-1.237-11.07 3.019-13.33-1.223-9.665 4.043-11.965 1.937-15.644.416-7.584-2.803-8 .522-4.22 1.07-8.67.024-11.46-2.54-6.417 6.617-4.591 1.552-10.376-2.35-16.277-8.576-9.592 5.18-5.761 8.99 9.587 8.333-1.561 9.252-2.816 4.174 4.122 6.638-4.037 8.432-1.527 4.562-4.672 7.66-1.208 5.458 6.713-.758 7.64 6.339 6.058.87.066 9.314.693 7.765-3.865 5.282-2.636 5.61.861 12.098 8.864 4.441 4.884 6.408 3.685 4.902 11.41 4.375 8.835-.04 7.81 2.685 7.401-.454 2.685-1.117 6.599 3.522 8.382-.77 4.91-1.218 7.776 1.927 3 1.958 3.044 10.459 5.988 17.042 4.918 5.971 3.404 6.693-1.78 5.394 4.673 7.803.883 1.59-.894 7.537-4.248 9.336-.675 11.259-4.954 6-4.553 3.196-1.433 2.648-1.189 3.936-4.975 6.373-2.038 8.578 2.252 7.59-1.633 15.368-3.188 1.162.52 9.238 4.116 1.904.846 9.74-1.632 13.741 5.644 3.5 10.549 7.01-1.486 4.277-5.12 15.987-1.255 3.389 1.379 2.083.846 4.548-4.611 18.856-7.11 4.176-3.284 1.986-1.566 4.953-.108 9.653 7.532 2.01.02 9.525.087 13.77-3.62 8.074-.809 7.792-7.702 8.027-2.011 7.934-4.373 3.79-2.094 10.987-2.375 7.361-1.602 14.946-1.737 7.637-10.279 3.243-1.008 9.484 2.92 6.253-1.243 7.587-1.519 11.996-3.237 14.765.775 7.158-4.345 8.163-6.914 34.709-1.267 7.978-.267 26.821-.973 41.612-1.733 2.149-.097 29.151-1.39 12.87-.501 13.803-.566 14.161-.614 49.088-2.91 3.662 5.716 3.592 8.081 7.425 8.61 1.434 1.66 5.922 1.865 8.485 6.572 8.187-.026 6.979 6.685 1.464 8.461L975 241.447l-3.85 8.282-8.22 20.725-8.343 21.538-1.327 7.446-.428 2.4-5.1 23.307-2.823 6.043-.093.198-6.099 7.939-1.377 8.61 3.391 7.903-3.008 9.747-2.435 5.083-4.328 9.014-9.158 5.567-5.298 5.202-3.008 12.493-4.595 15.817-2.478 5.696-6.399 7.617 1.79 8.456-2.902 6.116 3.36 4.851 3.209 4.98-1.994 5.412-.5 1.356 5.763 4.484 5.586-3.423 7.652 6.141 10.265-.412 1.207 6.752 7.526 1.908 1.079 4.068-.214.29-8.608 11.64 5.322 8.864-2.15 7.794-.96 14.462-.97 2.433-3.887 9.716 1.29 23.586.76 13.89 6.184 94.197 2.41 36.04 4.637 71.226 4.197 63.113-21.301 1.287-25.537 1.734-27.325 1.69-31.019 1.647-40.213 2.116-37.752 1.816-34.16 1.684-28.006.689-25.776.802-14.42.231-4.48.066-45.482.494-34.017.737-22.695.191-39.757.299-23.786.003-23.302-.065-19.376-.115-26.856-1.001-23.453-.26-.986-.034-28.329-1.056-21.303-.93-31.723-1.285-23.314-1.043-26.3-1.013-37.18-.71-30.473-1.167-12.461-1.626-10.565.198-14.561.245-10.81-.994-10.496-.155-17.16-.29-20.414-1.289-22.306-1.48-26.085-2.11-6.76-8.359-5.17-4.1-3.883-10.65-.571-8.575-2.244-7.93-3.094-4.134.73-9.465-1.315-7.527-.117-14.764 5.602-16.259.454-9.577-.774-10.131-4.376-3.293.452-2.32-6.963-7.978z"/></svg>