<svg height="1000" width="1000"><path class="americon" d="M37.326 509.291l.277-3.042.703-14.037.085-1.706.217-4.219.473-9.763.102-1.99.005-.192.026-.666.06-1.494.087-1.815.1-2.148.037-.96.141-2.239.084-1.924h.007v-.012l.061-1.74v-.01l.135-2.563.26-5.426.444-8.027.095-2.142.136-2.788.2-3.44.137-3.442.015-.634.001-.031.416-7.852.018-1.458.197-4.45v-.003l.022-.517.013-.25v-.007l.015-.396h.002l.007-.127-.003-.104.006-.125.224-4.28.119-2.314.066-1.458.422-7.91h.005l.196-4.008.252-5.72.266-5.569.11-2.299.307-6.076.08-2.218 1.339-27.462.004-.308.319-6.362.383-7.967.141-2.76.15-2.658.857-17.74.808-16.716.158-3.11.313-6.752.011-.287 13.378-5.264 4.061-1.064 5.844-2.361.185.037 1.381-.779 2.216-.376 3.047-1.106 5.297-2.475 10.586-5.601 6.746-3.134 3.558-2.285 1.914-1.788 3.088-7.259.955-1.302 2.116-2.014 4.542-1.249 1.711.473.6.572-1.075 1.012 1.18 1.784-1.09.775.357.77.653.405 1.684.32 4.501-2.478 6.938-3.825 9.225-5.874 1.155-.125 3.622-1.784 2.371-1.639 2.872-1.166 3.652-.806 7.322-4.026 5.76-2.715-.137 3.876-.09 1.738-.388 12.455-.044.824-.046 1.336-.053 2.233-.104 2.507-.184 4.08-.026 2.573-.751 20.97-.112 3.985.038.265 14.23.378 6.995.301-.002-.014 2.256.09 9.275.364 2.018.093 10.293.372 34.757.856 11.116.145 18.308.475 12.204.332 10.02.38 6.88.254 19.516.239 23.907.003 45.041.624 5.764.144 10.087-.058 12.784-.09 14.604.29.034.005 5.223.154 25.836.102 1.441-.004 11.377-.052 21.843-.201 16.35-.187 59.422-.373 9.523-.345 8.747-.2.016.005 6.525-.19h.006l3.606-.118.858-.034 1.56-.024.813-.013.17-.024 13.38-.22 2.997-.032 10.333-.191 29.906-.291h.077l13.208-.085 1.013-.008.685.003 17.523-.327.965-.012 30.928-.98 2.234-.075 1.17-.035 2.788-.064 19.153-.64.442-.014 17.098-.53 20.048-.514 20.567-1.013 8.928-.381 10.813-.475.092-.007.935-.07 6.384-.257.663-.03 4.637-.205 6.65-.298.97.448 1.098.328.872.498.606 1.25-.008.487-.635 2.148.053.299.443.419.584.073 1.027.393 1.143 1.324.373.158.355 1.378.873.814.395.229 1.005.122.358-.05.062-.112-.093-.819.175-.23.28-.15.759-.05.376.429v1.133l.143.425.267.44 1.645.762.34 1.103.18 1.448.035.939.21.547.958 1.682.381.89.016 1.068-.736 1.056.068.827.257 1.21.56.265.757.15.385.261.542 1.38-.117.431-.46.402-.34.546.048.556.154.391.38.49.438.327 1.038-.023.48-.287.701-.785.344-.067.388.281.693.838.483.422.94.373.312-.01.534-.672.74-1.49.8-.416.891-.172.975.178.555.294.482.446.22.539.217.24.308.229.274.025.2-.133.244-.366.243-.744.171-.904.367-.53.32-.076.637.192.236.266.202.674-.03 1.64.448 1.115.343.463.429.348.802.28.563-.077.986-.538.402-.196.557-.098 1.518 1.387.483.028 1.419-.26.511.223.198.213.19.598.034.925-.183 1.272.007.634.065.337.265.596 2.129.83 1.066.996.653.347.579-.038.902-.716.272-.076.572-.023.364.268.085.382-.028.754-.289 1.306-.35.793-.206.23-.482.23-1.094-.168-.7.276-1.26 1.84-.121.309-.146.954-.092 1.649.064.315.147.3.413.425.876.117.414-.02 2.061-.699.552-.093.278.197.263.348.658.286.581.1.67.399 1.275 2.487.179 1.638-.217 2.024.286 1.676.726 2.506-.007.376-.116.288-.236.133-1.42-.255-.853.115-.29.53-.01.418.272.562 1.229 1.145.525.82.706 1.506.297 1.241.018.522-.199.331-.918.894-.068.444.17.554.192.143.52.13.698 1.155.26 1.302.056 3.046.182 1.696.09.369.817 1.725-.045 1.197-.184.384-.277.1-.173-.032-.569-.43-.319-.09-.97.296-.22.233-.008.203.303.652.052.315-.459.268-.804-.067-.603.165-.449.359.025.461.812.809.458.455.564.961.618.798 1.158.585 1.007.903.539 1.696.59 1.112.579.528.623.382.627.065.306.216 1.513 2.403.402 1.099.052.473-.217.33-.807.31-.293.364.056.99.098.223.197.174 1.02.168.275.137.877.576.946.884.438.696.075.283.014.348-.229.662-.139.734.021.384.099.247.565.12.888-.331.986-.047.323.155.216.267.373 1.17.061.524-.025.428-.36 1.571-.021.688.116.45.293.579.276.186 1.884.434 1.847.126.288-.086 1.273-.887.358-.565.602-.1 1.467.181.951.796.446.228 1.076-.036.768.264.561.64.213.902.043.732.23.73.439.256 1.46.266.48.235.295.33.227.577.02.272-.868 1.132-.189.839.084.458.345.206.832.098 1.868-.537 1.86-.87.96-.143.706.23.918.582.508.523 1.434 1.181.37.156.63.028.326-.059.393-.24.44-1.092.73-.824.9-.571.719-.01.312.14.746.806.158.422.082.714.102.284.74 1.505.257.263.555.184.952-.207.967-.625.742-.304.41.003 1.129.492.812.024.593-.393.053-.035.549-.63 1.053-.618.45-.136.397.088.296.283.205.361.118.342.062.655-.518 1.981-.355.453-.06.75.152.575.426.807.42.568.406.278.53.25 1.513.12.801.401.438.562.568 1.599.344.658.863.757 1.37.91.644.62.296.72-.013.484-.192.268-.807.68.234-.03-.866.654-.6.142-.632.312-1.901 1.237-1.48.378-.837-.067-2.784.237-.42.27-.635 1.014-.402 1.874-.474.662-.732.776-.514.187-1.06.079-1.179.264-.469.198-.44.46-.102.405.596.904.09.514-.079.218-2.18 1.698-.764 1.099-.56.454-.953.54-1.22 1.47-.568 1.32-.639.843-.368 1.354-.734 1.712-.012.318.273.73-.1.664-.148.353-.303.466-.894.191-.207.1-.17.245-.635 1.6-.015.84-.595 1.191-.145.931.1.187 1.003.91.26.369-.032.304-.104.35-.997 1.894-.958 2.213-.584 1.736-.002.632-.505 1.44-1.078 1.588-1.553 1.653-.208.5-.07.528-.49 1.239-2.657 3.85-1.216 1.07-2.17 1.031-.39.605.08.388-.083.19-2.507 2.105-.313.136-.482-.018-.568.144-1.077.67-.349.48-1.343 3.45.018.667.134.11.442.053.551-.096.538-.306.914-.94.503-.34.41-.13.321.142.062.185.07.211-.198 1.203-.387.55-1.783 1.389-1.066.235-.86.417-.732.59-1.01 1.407-.757.044-.216.274-.377 1.092-.063.64-.19.586-.284.55-.97 1.423-.086.437.19.782-.046.194-.77.333-.589.381-.932 1.107-4.628 3.014-.698.35-.97.11-1.363.552-.071.267-.792.978-.796.497-1.32.618-.216.42-1.987 1.377-.58.49-.51.631-.145.472.055.843-.068.501-.133.513-.355.72.03.647.308.587.403.34.37.046 1.021-.299.352.362.014.013.124.374-.115.532.068.294.077.205.213 1.11.216.698 1.022.993.971 1.744.136.71 1.347 1.975.377.518 2.705 2.045.414.831.168.594.216 1.452-.077.95.115.32.248.41 1.426 1.308.562.693.608.954.84.806.382.71.13.452-.005.511-.303 1.239-1.08 1.514-.567 1.022-.262.172-.77.08-.45-.306-.514-.174-2.28.258-.752.484-.205.522-.042.348.024.44.107.34.355.457 1.583 1.414.295.47.018.707-.208.54-.76 1.325-.865.829-.322.424-.292.59-.053.446.118.523v.388l-.069.296-1.147 1.905-.34.211-.103.065-.877.158-.976.6-.418.599-.816 1.755-.276.402-.173.084-.754.07-1.66-.171-2.329-.654-.943.026-.324.17-.267.356-.332.697-.157.9-.054.959-.228.505-.616.572-1.372.811-.72.927-.037.327.116.624.173.346 1.62 1.668.514.744.137.446-.05.342-.563 1.292-.43 1.296-.493.469-.272.407-.605 1.883-.699 2.967.543 1.25.685.86 1.04.36.067-.012.902-.16.643.1.495.323.146.422-.079.667-.781 1.446-.813.498-.45.42-.87 1.49-.549 1.282.02.492 1.17.929.21.303.225.592.533 2.814-.082.671-.211.337-1.154.187-.445.228-.166.257.1.54.49.644.303.605.16.374.627.846.42 2.328.049.271-.07.753-.574 1.07-.051.48.05.232.157.49.293.412.954.987.6.409 1.289.44 1.09.137.926-.04.702-.287 1.707-1.756.86-.493.827-.137 3.164.383 1.057.49 1.736.524.782.688 2.942 3.285 1.66 1.211.247.55.17.642.32 2.195-.053 1.42.069 1.866.18 1.276.606 2.738.126 1.129.005 1.059-.29.993-.517.871v.906l.16.764-.438 1.856.012.251.58 1.43.885 3.135.344 2.234.478.996.465.403 1.583.406.574.438.248.352.849.618 1.375.552.578.063 1.21-.313 2.212-.797.737-.515.363-.111 1.23.311.587.576.458.297 2.179.883.688.483.268.432 1.878 3.99.93 2.366.522 1.564.259 2.115.265 1.003.143.19.566.746 1.125.987 1.063.734 1.602 1.41 1.538 1.094.826.234 1.125.048.802.406.76.536 1.108.944 2.13 2.107.622.933.751 1.262.729 1.493.64 1.61 1.179 2.264.793 1.73 1.024.863 2.07.892.75.6 4.038 1.725 2.384 1.558 1.673 1.213.165.181.65 1.417 1.127 1.818.713 1.99.243.564.23.308.404.346.041.035 1.264.422 1.163.662.59.63 2.037 2.857.157.461.038.981-.118.819-.217.589-.024.065-.203.336-2.313 2.327-.365.19-.487.07-1.537-.022-.575.176-.631.354-1.04.784-1.959 1.889-.483.133-.588.01-1.968-.405-2.035-.767-.579-.118-.439.045-.528.2-.555.628-.366.79-.619 1.871-.286 1.683-.438.665-.844.73-1.224.664-.518.412-.322.402-.25.548-.216.846-.166.265-.456.345-2.637.867-1.207.705-3.397 1.377-.47.088-1.466-.18-.73.124-1.1.549-1.935 1.212-4.726 3.304-.062.044-1.437 1.356-.922 1.203-2.787 3.179-.504.41-.7.42-2.317.96-1.503.623-1.215.938-.64.973-1.148 2.625-.15.199-1.85 2.447-2.66 1.286-.826.212-2.313.99-1.766 1.135-1.215.98-.5.538-.512.945-.284 1.576.07 2.823.248 1.4.42 1.2.49.962.414 1.093-.356 2.501-.384.876-1 1.707-.033.056-.342.402-.47.494-.853.362-5.29.402-1.02.327-.947.837-2.365 2.49-.072.047-1.619 1.06-2.253 1.069-1.359.495-4.5 1.312-3.64.307-2.688-.177-2.222.178-1.174.224-1.833.71-2.015 1.41-2.747 2.758-2.834 2.651-.122.114-2.096 1.763-1.81 1.277-2.197-1.471-4.323-2.2-1.608-.685-2.987-1.014-2.928-.781-3.246-.512-3.45-.27-5.118.03-1.538.163-2.26.317-.201.045-.14.032-3.506.811-2.836.93-1.105.427-3.443 1.675-3.728 2.302-2.435 1.9-2.51 2.365-1.596 1.745-1.489 1.847-1.24 1.739-1.349 2.24-1.119 2.27-.869 2.05-1.113 3.467-2.44.09-1.845.052-1.73.058-.305.011-30.753 1.131-2.378.004-2.396.096-17.777.616-16.064.527h-.034l-1.021.03-23.166.63-.083.001-2.47.085-3.807.076-.016.021-12.046.274-4.152.098-8.601.22h-.017l-23.482.518-.61.012-11.753.29h-.028l-3.18.1-.462-.012-13.332.296-1.23.02-6.435.04-8.946.33-1.36.013-7.903.076-1.83-.018-.116.023-26.025.338h-.012l-3.779.04-.577.006-35.602.29-1.6.01h-.022l-10.587.026-.228.008-22.664-.054-.374-.014-8.175.006-1.401-.041-1.745-.022-4.176-.029-17.502-.189-32.803-.12-.335.001-3.81-.024-17.143-.127-.256-.024-5.914-.04h-.457l-4.26-.058-.011-.005-10.168-.107-1.055.039-.4-.024-.158.007-.333-.009h-.04l-6.219-.058-9.616-.097-3.721-.127-12.573-.077-1.435-.1h-4.859L320.804 771l-13.969-.22-20.244-.356h-.006l-18.845-.427-57.164-1.153-13.875-.334-11.83-.304-9.843-.398-.394-.032-25.231-.764-14.681-.522-.037-.001-10.381-.432-20.67-.894-5.638-.252-38.315-1.65-.133-.002-18.427-.842L25 761.59l.882-18.135.98-18.118.427-9.83.045-.473.174-3.73.024-.586.028-.599.002-.048.012-.204.572-11.32.655-12.927.02-.231.833-17.397.145-2.786v-.005l1.777-36.061.441-5.496.323-6.573.009-.165.704-13.356-.093-2.391.038-.786.414-8.62.754-15.346-.005.002.273-5.567.008-.001.241-4.757 1.588-32.558.103-1.89.484-10.159.02-.193.012-.268.275-5.551.11-4.732.003-.099.002-.092.013-.356z"/></svg>