<svg height="1000" width="1000"><path class="americon" d="M933.082 449.043l29.875.684L975 457.255l-6.705 7.377-14.449 7.862-18.956-9.968zm-80.315 89.611l24.44-18.378 37.407-3.853 38.38 4.398-.876 16.346-28.959-1.226-26.657 8.416-31.538 2.217zm-577.2-98.53l4.308-1.567 23.199-13.402.195-.114-3.076-18.436 15.155-16.4 9.805.101 19.029.187 29.683 6.675 11.132 2.494 7.794-.314 22.483-.92 12.896-.535 11.66 3.692 10.914 3.45 37.862-7.45 13.266 2.306 17.986 3.114 22.13 3.813 10.846-4.532 6.236-2.61 24.712 3.415 11.776 1.618.157-.007 19.724-.836 21.507 2.213 3.17.325 16.868-1.586 3.013.613 31.117 6.311 1.77-.24 14.358-1.948.697-.095 29.72 3.256 25.52 8.58 1.299.459 19.47 6.864 10.385 2.855 8.052 2.211 19.849.838 12.94.537 13.064-2.42 7.182 12.71.502 12.155L835.2 463l3.859 6.114 9.064 14.35-3.552 15.141-12.525 4.894-8.527 3.167-12.436 4.614-12.982 5.09-8.785 3.44-6.46 10.073-8.615 21.328-2.135 5.28-8.24 12.01-6.154 4.54-11.782 8.684-9.332 1.957-25.333 5.294-11.656-1.939-2.109-.351-6.084 15.045-9.227-3.858-10.666-4.464-19.743 10.546-22.706 4.335-7.915 1.506-19.029-16.585-14.115-6.277-.088-.039-16.251 13.748-21.073-14.785-2.723-.276-19.81-2.016-10.596 3.706-14.89 5.2-21.74-7.022-6.544 4.38-11.362-5.06-6.932-3.09-10.206-.041-4.25-1.788-5.904 3.913-3.353 2.222-18.746 10.314-6.737-.446-.142-.01-8.754-.582-15.339 9.308-9.864-1.782-7.996-9.489-1.212-1.438-11.322-2.75-13.827-1.832-12.397 7.865-6.269-.13-9.037-.192-17.41 7.45-9.71-22.768.888-15.539 3.89-20.353 6.714-28.08.024-.052 8.079-17.666-11.353-18.402-6.397-10.38-5.288-1.156-3.426-.749-12.306-22.926zM30.47 526.565l15.692-3.299 17.343 3.714 8.504 15.851L61.4 556.706l-12.224 3.35L25 545.742z"/></svg>