<svg height="1000" width="1000"><path class="americon" d="M25.043 400.346l.391-.458.565-.375.575-.138.197-.13-.275-.85-.047-.257.351-.255.248-.38.047-.144.025-.359-.044-.401.135-.613-.148-.157v-.251l.125-.29-.056-.828-.254-.08-.519-.536-.06-.308.271-.425.42-.297.554-.035.332-.278.127-.475 1.383.147.033.002.235.026.524.066 1.56.187.066.01 10.98 1.252 1.196.128 1.217.168.022.003 4.531.498 7.656.859.372.04 1.346.131 4.019.414 9.09 1.032 6.944.781 1.029.123 2.292.217 7.385.804 1.361.2 21.552 2.317.05.003.11.008 2.616.266 16.883 1.672.263.025.148.016 1.095.102.11.01.952.095 2.818.265.111.007 11.345 1.073 5.04.465 14.6 1.313.186.02 7.793.687.012.017 36.291 2.984 3.175.236 7.498.535 9.103.706 1.824.132 28.392 1.96 3.438.222.583.046.192.012.006-.012 3.726.238 9.097.581.203.012 1.538.09.458-7.31.187-3.04.11-1.854 1.944-31.791.337-5.535.062-1.044.01-.123.114-1.907.126-1.839.171-3.046.047-.681.093-1.507.091-1.507.264-4.256.04-.528.004-.084.223-3.604.007-.079.093-1.754.039-.663.01-.036.05-.894.07-.923.115-1.733.3-4.955.025-.443.187-2.977.066-.87.18-2.379.022-.281 1.18-14.817.216-3.097.055-.342.379-4.581.098-1.19.36-4.922v-.001l1.215-15.192.366-4.908.084-1.037.032-.713.07-.64.111-1.183.178-2.463.22-2.98.078-.706.52-6.523.161-2.131.348-4.26.02-.396.255-3.267.212-2.41.17-2.41.08-1.195.072-1.222.01-.382.02-.352.007-.065.003-.102.034-.535.07-1.088.095-1.354.04-.712.125-2.068.724-11.961.16-2.7.05-1.091.001-.003.048-.84v-.002l.34-5.538v-.008l.008-.104.03-.22.01-.092.002-.023.019-.307.008-.147.019-.27.015-.282.02-.296.027-.396.25-4.16.02-.332v-.009l.015-.239.827-13.006.153-2.757.122-1.495.386-6.298.225-3.708.29-4.793.266-4.07.27-4.503.774-12.852.034-1.251.103-.866.03-.59.003-.163.082-1.202.108-1.585.02-.276.003-.071.001-.03.136-2.366.128-2.42.071-.725 1.909-30.621.599-9.585.267-4.29-.027-.401.1-1.445.025-.916.12-1.02 1.109-17.818 1.238-21.453v-.06l.884-14.873 2.59.159 49.34 2.644.36-.01 5.417.283 2.43.112.223-.02 5.89.27 6.703.295 6.804.353.004.01 2.522.09.312.01.09.003.09.002.077.003 4.605.182.698.044 2.953.107.246.01 1.71.067 35.39 1.189 2.15.035.466.015 4.484.118 1.507.04 1.189.03 1.153.03 2.256.052h.006l1.605.04.579.013 1.748.05h.001l1.185.024v.003l.215.007h.002l2.699.064v.003l2.46.056v.002l1.034.024v.003l3.342.076.62.013v.002l3.661.077h.004v.003l.593.008.01.004.346.005v.002l2.1.05.982.02v.004l.048.005.011-.01.531.016 5.334.084v.002l.467.01.83.015.002-.003.504.012.005-.002 2.295.036.003.006 1.757.026v.002l1.143.023.001-.002.677-.008.848.017.015-.004.025.004 8.505.128 5.994.08 5.67.06.22.003-.4 36.362-.158 14.342-.237 21.525-.179 16.203-.218 19.77-.14 12.582-.26 23.495v.009l-.17 15.406.196.01.797.037.758-.095.22-.069.409-.3.463-.445.094-.118v-.121l.06-.195.148-.137.605-.083 1.117.223.416.184.093.357.409.359 1.141.855.2.024.153.11.448.434.862 1 .077.145.06.27.228.375 1.075 1.339.572.404.799.564.517.21.481.813-.04.238.298.73 1.397 1.864.727.797.495.015.691.565.052.088-.004.097-.192.281.028.113.884.772.91.548.722.297.688.416.262.29.09.172.057.244-.043.274.146.3.326.283.78.545 1.246.11.473.177.367.295.226.043.23-.058.355-.175.312-.278 1.284.33.46.204 1.657-.085.255-.202.602-.723.149-.252.063-.19-.05-.575.06-.793.305-.745.39-.134.321-.01.513.094.425.224.462.162 1.333.11.42-.062.414-.189.229.04.986.37.19.156.204.248.251.421.22.145.662.135.166-.003.285-.006 1.254.686.522.696.291.48.67.06.725-.585.793.64.116.015.288-.073.23-.132.162-.232.398-2.306-.166-.8-.175-.169-.029-.116-.006-.441.142-1.503.956-1.23.387-.159.394.013.74.236.282.332-.011.183-.133.259-.022.135.026.23.432.42.62.5.5.294.368.428.305.658.316.464.086.048.136.007.555-.15.629-.35.305-.095.323.053 1.766.794.195.137.162 1.018-.152.141-.227.122-.648.044-.095.08.029.14.25.275.864.744.272.02.227-.223.167-.076.414.275.393.827.205.769.068.777.047.143.179.153.264.067.286-.025.152-.113.167-.012.288.095.167.338.07.945-.128.911-.128.275.128 1.532.132.49.15.235.267.131.238.064.272-.026.045.051.073.7-.16.956-.013 1.383.11.353.305.641.07.223.007.206-.14.415-.04.28.04.178.179.198 2.099.446 1.032-.492.396-.367.523-.022.145.053.066.065.065.22-.062.13-.176.132-.1.237-.022.164.144.247.223.116.507.103.718-.14 1.138-.496.87-.187.245.024.655.231.423.302.082.152.025.139.05.057.64.193.366-.001.172-.22.133-.319.106-.15.081-.038 1.598.3.5-.288.197-.178-.038-.473.182-.265.68-.336.245.033.41.3.187.611.146.327.17.226.354.186.186-.003.262-.28.026-.143-.018-.41.104-.143.159-.07.41.098.011.006.135.074.705.66.836.91.049.128.3.429.169.21.164.133.62.356 2.515.89.096.13.024.167-.069.214-.185.286.006.114.112.17.357.328.384.04.166-.067.116-.236.032-.574.038-.122.12-.045 1.685-.058 1.253.299.425.208 1.027 1.004 1.828.596.261.214.087.115.076.291-.01.164.182.188.535.028.503-.112.172-.157.15-.3.027-.2.091-.153.081-.046 1.154-.07.099.042 1.351.188.445.026 2.348-2.115.345-.407.172-.113.334-.011.519.237.972.357.34.06.338-.015.115-.046.09-.036.332-.231.288-.03 1.572.947.327.318.857.98.115.41.538.736 1.023.985.397.62.172.404 1.681 1.859 1.243.797.296.024.479-.174 1.785-.79.18-.167.04-.117.01-.206.126-.24.062-.083.186-.1.547-.117.252.005.225.057.147.102.06.042.157.043.15-.047.23-.174.992-1.256.09-.383-.005-1.402-.162-.03-.033-.037.167-.52.946-1.501.212-.265.938-.575.238-.08 2.664.464.2.105.268.27 1.293.965.437.122.939.173 1.645.078.585-.113.474-.207 1.093.468.12.177.496.263.885.33.252.07.595.074 1.542.103.797-.54.207-.192.777-1.15.252-.458.147-.268.4-.469.507-.343.61-.028.348.045.168.128.363.467.834 1.37.036.163-.052.52-.113.424-.176.48-.279.58-.333.514-1.02 1.163-.106.27.072.76.159.418.245.394 1.092 1.114.208.33-.02.305-.046.168-.05.062-.275.082-.137.093-.097.2.005.213.132.172 1.104 1.955.207.181.168.067 1.92.509.978.178.928-.011.565-.05.95-.2 1.256-.349.313-.184.309-.293.278-.117.176.103.239.404.378.516.331.275.173.055.218-.003.352-.086.076.025.053.073-.012.121-.702 2.508-.225.553-.364.386-.474.25-.101.143.012.212.113.196.093.063.362.07.175-.007.544-.175.073.033.076.109.063.579-.06.427-.222.833-.232.347-.26.252-.372.125-.23-.163-.273-.372-.127.003-.08.097-.233.622-.062.277v.136l.06.155.422.597.003.004.258.264.45.342.653.257.502.051.328-.045.256-.086.272-.01.144.054 2.195 1.257.616.449 1.355.615.414.093.393-.042 2.16-.743 1.962-1.675.129-.255.12-.416 1.16-.488.27-.415.057-.311-.058-.465-.245-.472.756-.338.501.059.115-.062.239-.253.053-.137-.043-.532-.208-.464-.015-.296.673-.239 1-.056.135.067.196.01.1-.028.473-.375.575-.567.474-.624.363-.705.4-1.177.318-.54.345-.251 1.112-.427.712.026.367.101 1.569.643 1.736 1.05 1.38 1.173.058.138-.13 1.979-.234.444-.072.073-.053.158-.004.197.067.34.51.807.129.117.329.131 1.5.229.202.03.225-.022.238-.062.566-.295.715-.462.503-.447.417-.17 1.245-.537.423.02.583.17.174.098 1.667.935.165.188.518.839.017 1.707-.385 1.33-.13.156-.124.317-.075.652.28.592.432.491.627.379 1.237.327 1.118.011 2.593-.133.285-.177.218-.198.468-.538.668-1.178.47-1.38.085-.62.184-.44.244-.143.26-.008.114.041.078.102.179.548.127.085.285-.024.16-.065.1-.1.448-.95.342-.176.223-.007.358.302.592.638.487.315.264.103.266.046 1.03-.095.068-.037.092-.138.32-.827.138-2.111.078-.232.188-.272 1.053-.734 1.075-.156.336.137 1.47 1.082.335.447.094.243 1.03 3.715.007.577-.318.433-.663.354-.337.052-.516-.016-.147.047-.111.088-.147.211-.248.468-.094.25-.02.756.04.695.164.34.62.98.317.34.214.948.453 1.14.723 1.505.652.665.575.387.401.192.834.247.798.115.347-.032.539-.156.296-.135.299-.204.496-.453.203-.273.196-.352.312-.748.076-.772-.015-.572-.06-.459-.208-.71-.466-1.231-.107-.42.019-.369.167-.47.271-.399.64-.358.73-.17 1.364-.3-.075-.644-.648-.754-1.793-.43-.5-.347.198-.726 1.306-.633.861.362.367.752.7.71.163-.049 1.017-.534.4-.51 2.12-3.117.092-.468-.108-1.063-.306-1.123-.397-.862-.08-.252-.111-.804.038-.466.07-.162.227-.3.197-.172.447-.16.133.012.008.087-.08.28-.017.222.108.628.211.336.223.138.088-.011 1.37-.786.516-.407.662-.455.171-.117.54-.31.148-.042.243.045.164.088.356.306.286.317.156.228.212.425.234.683.273 1.692-.016.865.123.541.974 2.331.56.605.637.589.735.442.382.008.319-.16.285-.339.017-.898.056-.399.153-.252.352-.306 1.348.128 1.293.26.766.415.213.278.076.178.199.807.051.515.465 1.012.097.175.225.16.326.073.521-.043.55-.11 2.308-.593.291-.132.248-.174.324-.35.574-.936.158-.395.21-.702.134-.921-.002-.231-.122-.627.131-1.006.344-1.093.117-.269.186-.228.23-.179.19-.035.315.036 1.134.844 1.002.835.13.074 1.432-.085 1.007-.119.31.048.04.006.185.284.015.194-.13.398-.168.307-.48.486-.291.203-.698.349-.883 1.08-.232.356-.048.13-.007.279.058.168.44.315 1.542.53.59.258.416.224 1.012.699.462.028 1.041-.099 1.257-.38.254.061.184.095.204.223.3.551.26.671.06.351.046.929.302.514.698.637.143.067.983-.081 1.856-.272.198-.077.38-.398.169-.045.807.044.438.096.535.193.198.242.182.325.11.24.223.69.368.528.363.392 1.41 1.282.344.345.717.718.206.458.297.836.036.57.075.196.453.368.533.039.39-.069 1.463-.751.155-.146.119-.193.435-.983.164-.802.003-.568-.089-.683.065-.504.173-.834.079-.245.428-.942.159-.145 1.04-.329.517.085 1.54.71 1.378.847.592.023 1.41-.467.906-.403.571-.375.224-.278.331-.554.384-1.578.012-.616-.334-.13-.251-.11-.19-.09-.152-.108-.165-.256-.136-.447.127-.289.068-.061.798-.24.931-.047.127-.191-.251-1.052.085-.331.136-.17.628-.146 1.1-.125.34.156.59.428.417.117.327.004.123-.194-.037-.434-.124-.367-.12-.146-.046-.122-.013-.081.09-.11 1.075.052 1.455.352.607.24.46.125.784-.441.367-.815.117-.143.297.011.21.085.031.15-.028.25.043.243.052.107.13.103.968-.465.455-.488.04-.097.005-.28-.047-.45.053-.291.207-.163.145-.062.182-.01.33.188.25.411.623.212 1.418-.132.493-.261.2-.162.28-.767.07-.378-.016-.302-.03-.136-.092-.163-.037-.187.064-.186.064-.026.878.23.479.192.76.418.866.575.422.336.444.245 1.547.595.7.587.313.331.137.145.272.19.176.06.388.019.252-.09.364-.246.13-.158.088-.191.019-.14-.057-.33-.09-.188-.092-.387-.005-.099.065-.157 1.054-.297.298-.01.776.25.143.104.859.885.212.098.084-.004.564-.378.377-.2.237-.34.044-.21-.33-.94-.245-.233-.081-.165-.057-.116v-.754l.213-.615.126-.175.61-.297.677-.058.637.152 1.072.653.187.037.958-.112.813-.468.512-.615.437-.745.309-.21.376-.102.882.207.708-.096 2.197-1.852.239-.603.946-.077 1.566.094.17.043.118.108.188.252.462 1.012.173.541.01.554-.161.586.048.498.289.456.228.19.376.01.443-.132.528-.395.338-.341.325-.172.367.061.284.302.022.643.04.182.27.12.71-.05.905-.432.56-.603.344-.073.144.059.109.178-.133.87.065.084 1.122.219 2.748.037 2.24-.306 1.584-.065.907-.15.251-.681-.025-.747.07-.046.548.013 1.143.376 1.04.342.48.006.29-.254.094-.437-.016-.392.031-.766.028-.198.123-.156.168-.085.191-.038.616.193.189-.074.35-.27.169-.22.11-.647-.012-.331-.08-.586-.134-.248-.055-.203.028-.331 1.395-2.358.276-.118h.487l2.496.768 1.106.655.153.147.397.15.363.023.447.028 1.267-.136.45.157.263.263-.036.804.027.256.182.222.637.192.523-.092.185.11.17.179.27.407.013.459.112.272.256.207.445-.031.322-.449.51-.304.409.14.33.335.204.695.81 1.842.178.115.66.147 1.03-.036.399-.16.528-.43.584.259.354.398.227.4.297.1.356-.054.109-.085.331-.656.182-.17.134-.043.183.088.282 1.024.17.941.477.135.618.733.102.635.34.468.338.112.26-.005.234-.071.262-.156.27-.033.187.069.179.123.122.115.092.335.007.26-.136.624-.007.384.054.27.614.618.36-.01.285.138 1.017.683.164.21.325-.104.158.042.246.329.069.437-.09.28.186.242.391.247 1.423.421.531-.026.746-.108.19-.12.117-.222.055-.457.188-.148.301-.128.377-.002.214.198.757.344.607-.179.958-.817.29.031.205.065.126.204.04.237-.099.46.054.423.366.452.279.166.419-.032.743.158.249.355.172.52-.073.512.127.335.04.106.358.346.291.031.159-.252.09-.273.144-.144.193-.095.293.058.274.113.149.495-.067.298.028.372.067.288.162.094 1.614.09 1.725-.784.486.06.201.23.104.286.066.338.005.589.188.329.23.056.518-.163.302-.317.175-.382.425-.302.314.098.396.362.3.197.31.05.427-.033.206-.237.2-.31.255-.142.495.074.211.337.307.27.226.277.06.241-.159.331-.003.222.115.162.144.014.277-.12.522-.114.366.24.082.264.029.475-.138.221.085.312.26.176.365-.028.332-.198.388-.006.305.246.092.386-.087.203.098.458.2.206.403.189 1.09-.431.88-.441.251-.34.055-.753.31-.104 1.49-.649.652 2.154-.273 1.744 1.555.217 1.304 1.318 2.267-.574.616.56-.653.815-.217 1.223 2.386.47.32-1.484.944-.62.642 1.154 1.465-.035.608-2.108 1.243.007.747.788 1.114-1.884 1.022.705-.647 1.727 1.679.183.9-1.825 1.807-1.697 1.489.15 1.413.818 1.509 2.02 1.307-1.642 2.103-.338 1.185.315.525 1.311.287-.045.173-.093.008.069.07.758.38 4.101-.004.169.156 1.724.263 2.873.035.4.085.9.296 3.544.06.545.072 1.036.052.555.034.396.122 1.405.238 2.706.197 2.237v.001l.07.862.082.899.079.691.182 2.222.09 1.048.022.24.298 3.297.089 1.407.046.443.036.357.308 3.438.085 1.107.442 5.038.454 5.321.13 1.48.201 2.333.096.929.046.514.083.978.001.01-.006.044.082.749.522 6.199.096.878.007.142.027.396.02.31.07.743.533 6.284.293 3.176.095.978.02.265.126 1.535.027.315.06.68.324 3.851.03.4.34 3.852.076.71.088 1.032.033.53.018.19.038.338.014.19.043.427.014.13.005.082.223 2.561.026.37.261 2.927.004.062.058.642.148 1.592.074.821.688 7.894v.006l.383 4.331.166 1.864.218 2.45.002.006.06.735.142 1.697.089 1.078.068.44.444 5.386.416 4.784.114.574.245-.025.627-.346.797.357.487.737 2.94 4.437.457.473 1.374.713.732.105.409.104.238.246.244.678.374.31.28.116.305-.104.244-.201.456-.065.363.184.292.368-.006.502.402.533.6.43.158.903.36.76.373.275.346.255.149 1.599.312.382 1.345.847.543.244.474.248.255.355.041.458.201.444.272.238.288.185.308.197.072.124-.231 1.23-.162.425.029.742.523.924.44.432.32.807.042.604.124.37.323.137.228.085.304.275.074.24.053.387-.087.65-.827 1.227-.347-.124-.263.625.103.493.65 1.06.282 2.138-.074.685-.376.062-.297-.17-.66.891-.036.662.42 1.059 1.001 1.451.235.824.183.273 1.64 1.623.801.498.51.12 1.51-.014.436-.16.14-.036.14-.065.222-.003.255.046.153.21.05.206.08.25.09.165.438.116.496.092.118.63-.148.637-.125.41-.386.676-.332.124-.257.157-.153.1-.13.186.028.31.08.554 3.095 1.907.654.384.315.772-.436.853.048.68.249.11.415-.044 1.665.845.213.35.154.512.182.652.062.358-.086.289.099.453.3.187.099.156.03.162-.052.204-.064.22-.172.202-.46 1.97-.602 1.821.107.39.233.268.628.004.496.215.993 1.296 1.148.938 1.595-.28.557.943.037.66-.09.61.108.9.482.322.195.188.181.247.095.279.045.467-.136.859.536 1.906.206.527.12.115.822.701.66-.22.618-.929.586-.476.577-.32.008-.003.254-.11 1.012-.013.14.086.142.298-.188 1.919-.232.197-.244.328-.03.36.047.485.073.614.378.565.105.591-.06.72-.538.767-.079.685.098.517.385.66.515.377.688.217.395.298.266.449-.13.41-.261.285-.186.216.091.298.693 1.12.502.402.064.254.01.504-1.52 1.447-1.133.5-.53-.126-.235.145-.119.271-.09.422-.082.788.365.792.596.517.813.28 1.395 1.274.552.915.084.797-.304.501-.806.461-.192-.048-.14-.044-.169.06-.177.219-.21.657.018.837-.514.6-.203.597.104.83.182.344.537.368.006.051.267 2.452.371.38.052.87-.416 1.518-.103.14-.416.32-.657.141-.386.5-.293.885.035.763-.103 1.194-1.041.643-.706 1.412.134.29.659.737.062.513-.08.445-.332.382-.257.872.05.766-.524 1.358-.553.644-1.206.361-1.03 1.142-.796 1.56-.024 1.342.264 1.451.23.413.098.27-.074.32-.199.322-.209.104-.174-.083-.258-.115-1.391.638-1.016 1.335.067.646.215.798-.15 1.06-.77.525.625.769.407.331 1.042.515.406 1.01-.384 1.103 1.087 3.022.702 1.132.028.278-.273.942-1.374.923-1.175 1.701-.333.483-.444.105-.412.544-.04.292.326 1.38.082 1.247-.518 2.018.14.254h.292l1.805 2.085 1.138.642.41-.028.328.032.26.227.207.244.208.596.002.49-.114.328.313 1.86.176.48.044.12-.472 1.554-.38.616-.058.756.394 1.38.615 1.045.55.53.614 1.756.8.925-.296.56-.156.017-.271-.27-.211.126.11 2.12-1.431 1.741-.605.508-.097.25.223.398 1.225.937 1.084.213.134.144.123.37-.082.265-.215.192-1.242.224-.132.175-.976 1.292-.09.41.026.746-.08.216-3.16 2.974-.163.255-1.103 2.98-.287 1.708-.096 1.255-.135.523-.686 1.835-.505 1.043-1.048 1.643-.053.082-.573.652-.618.535-1.293.853-.7.6-1.072 1.136-.429.572-.32.824-.039.583.076.502.23.63.34.361 1.891.997.378.337.27.462-.157.764.23.708.229.186 1.146.283.31.17.6.936 2.147 2.704-.16.436.27.56-1.761.162-2.124.054-3.164.1-5.207.578-4.041 1.253-2.856 1.174-2.74 1.386-15.889 8.745-1.205.66-9.4 5.133-6.807 3.797-2.612 1.634-2.816 2.017-1.687 1.448-.993 1.17-1.034 1.799-.44 1.262-1.038.078-1.207.725-1.293.133-.294-.22-.133-.978 1.109-1.636.91-.722 2.11-2.381 1.244-.988 1.303-2.681.332-.45.65-.524.482-.173.687-.022.84.305 1.317-.296 1.427-.751 1.018-.843-.198-1.334.26-.558.758-1.053.975-.659.969.134.56.405 1.146.48 1.586-.289 1.165-.56-.757-1.521-.45.093-.123-.023-.97-.184-.241-.558-1.328-1.314-.31-.24-.583-.112-1.19.238-.581.476-1.108.605-2.37.926-4.833 1.68-1.973.52-1.632.794-1.268.204-.832-.027-.956-.399-.84-1.438.832-.156.636.041 1.093-1.328 1.405-1.952 1.668-3.7.706-6.057-.007-.793-.345-1.658-.283-2.967-.902.083-1.003-.713-1.128.496-1.645-1.575-1.072.735-1.507.673-1.713 1.058-2.391 3.24-.873 2.321-.076 1.442-.334.677-1.477.968-1.64.53-.453-.101-.836-1.3-.256-.397-.233-1.198-.525-.401-1.76-.093-.404 1.369-2.293 2.376-.412.859-.232.913.224.874 1.966 1.514.517.721-.408.914-1.296 1.559-.574 1.41-.1.32.007.025.318 1.243 1.288 1.547 1.39.763 1.802.4 3.732.436-.233.85-.826 1.641-.255 1.63.878.15 2.245 1.102.38 1.561.371 4.209-.398 2.497.21 2.578-1.912 2.457-2.389-.57-4.902 5.614-2.566 2.49-2.879 2.787-1.168-1.845-1.9.206-1.52.603.48 3.245-.468 1.612-.065 1.726 1.683 1.863 2.774-3 .497-.537 6.817-5.337.831-1.51 7.943-7.955 1.012-.783 1.14-.378 1.813-.89.078-1.386-.128-1.936.815-.86 2.061 1.4.374.024.208-.179 2.394.042.03-.192 1.015-.222.707.521-.647.017-2.733 2.548-1.144 1.322-1.252 1.096-15.975 12.597-3.977 3.494-2.034 2.147-.602.947-.223.351-.157.593-4.757 4.187-3.401 3.238-2.372 2.525-1.73 2.514-.92.569-3.151 2.839-1.663 2.03-.356.88-2.532.765-1.78.157-3.465 2.21-1.502 1.027-5.981 4.086-5.22 3.127-1.786 1.599-9.45 6.607-5.307 3.094-8.708 4.419-5.76 3.083-8.683 5.227-1.946 1-1.794 1.574-1.91 1.248-2.431 1.88-1.336 1.533-.551.158-.956.602-2.71 2.482-.885.81-.67 2.196-3.095 3.611-3.264 1.838-10.93 7.147-6.538 5.403-5.403 4.985-4.449 4.64-2.558 2.663-4.525 5.441-4.11 5.674-2.891 6.431-.084.186-3.408 4.409-3.678 6.237-5.222 10.8-.744 1.775-2.48 5.914-2.78 7.474-2.817 9.77-.725 3.554-.787 3.849-.805 7.275-.277 8.256.397 7.846 1.049 7.604 1.743 7.92 2.305 8.303 2.37 7.4.567 1.537 3.164 8.56 2.57 8.092.33 1.035 2.272 8.317 2.533 12.77 1.256 7.08-.83.473-1.253-4.037-1.878-11.254-2.208-8.403-1.775-5.923-.706-2.36-2.866-9.221-6.708-1.005 4.87-2.235-.775-1.814-1.9-4.441-1.828-6.586-2.768-6.59-1.206-8.07-.061-10.54-.49-9.281.66-8.122.623-6.361.017-.174 1.03-6.408 2.19-7.372 1.833-6.498 2.604-6.153.44-1.042 1.966-4.206 3.577-5.402 2.55-6.649 2.262-2.733-.892-2.078.058-1.485 1.977-3.561 1.466-3.06.333-.204 4.625-2.845 2.412-3.492.969-2.51 1.164-2.114 1.55-1.823.32-2.326.614-1.01 2.408-1.01.03-1.088.524-1.117 2.017.68 2.2-1.809.416-.343-.242-2.188 2.295-1.9 4.305-.35 2.379-2.193 3.562-2.951 2.11-2.088 1.264-1.107.756-1.106 1.773-.742 1.668-.243.896-1.243 1.227-.636 3.256-.778 2.448-.787.728-.494.443-1.836-.888-.535-.654-.839.166-.732 2.208-1.5-.008-1.098-2.538-.032-4.357 3.303-2.299 1.116-2.956 1.76-2.883 3.13-.905.078-2.49.91-1.495-.359-.326-1.183-1.416-1.75.311-1.843-.548-2.652-.378-.563-.947-.136-2.035.088-1.03-.223-.357.119-.106.035-.57.425-1.015 1.96-.28 1.707.096 1.334.369 2.215-.014.42-.021.608-1.041 1.383-.25.59.304.702.552.803.999 1.452.02.49-.924 2.317-.716.648-2.393 2.163-2.296 1.614-1.882 2.132-.924.53-1.806 2.128-2.163.131-2.961-1.134-.546.155-1.548-1.022.32-3.146-.505-.032-.712-.046-8.84 4.927-4.533 4.176-.067.962-.006.086 3.07 1.27 3.032.14 2.547-1.976 3.923-2.573 1.996-.613.24.392-.066.36-.597.873-.245.814.036.938.384 1.774.474 1.01-.365.775-.734.43-.609.606-.938 2.318-1.035.845-3.345 5.721-.581.335-.382 1.54-.066.268-.656.472-.786 1.239-2.137 4.424-.176.634-.746.206-.99.035-.877-.148-.348-.128-.177-.3-.012-.33.046-.473-.162-.466-.493-.459-.541-.742-.14-.623-.668-.962-.962-.325-.835-.105-1.65.37-2.304.974-1.282-1.317-2.848.837-5.931.285-3.055-.807-1.634 1.283.023 1.663.856.57 2.564 1.704 4.118-.029 3.081-1.409-.92 2.137-.03 2.736.6 1.415 1.46 2.15 1.714 1.379 2.418 1.04 4.922 1.24-.416 1.523-.473.106-2.188 5.778-.132.813.098.536.293.394-.612.74-1.468 1.353-.25.915-.814 2.986-.49.87-.274 1.314-.168 2.164-.618 1.82-.496.69-.404 2.264.196 1.118-.207.997-.486 1.007-1.427 4.054-.174.816-.223.503-.615.785-.548.378-.79.34-1.6.052-2.475 1.474-1.938 2.088-1.89-.258-.976-.467-.217-.579.804.111.793-.25.144-.544.54-.647 1-.031.51-.331-.397-1.204.265-.504 1.17-.982-.035-1.125-.26-.667-1.18-.639-.985.48-.456.78-1.353 1.572-2.506 1.832-1.024.57-1.897 2.218-1.005-.151-.758.112-.39.371-.01.037-.242.962.125 1.574.336.531.49.347 2.485-.027 1.166.146.685.115 1.017.511 1.452.272 1.796-.234.79-.385.509-.422.227-.412 1.164-.6 1.413-.292.665-.54.632-.29 2.057-.2.158.558-.824 4.94-.427 3.419.841.237-.424 7.493-.117 7.93-.504 6.837-.386 5.63-.386 3.356-.954.298.684 4.246.293 1.577.187 2.735 1.997 6.761.007 2.155.386.83 1.118 2.412.946 1.649-.1 2.357 1.066 2.443-.45 1.648 2.601-.028 2.626 6.085 1.733 4.008 2.876 6.149 1.449 2.2-1.078 1.105-1.257 2.586-.008 1.557 1.04 1.036.277 1.676-.253 1.723.134 1.4 1.148 1.68.108 1.193-.455.933.906 1.11.734.475 1.943.48 3.133-.044.684.204.418 2.718 1.02-.626 1.393-1.015 1.05.12-.02 2.082.173 1.9.667 4.15-.102.125.095 1.269-.112.226-.698.395-.301-.099-.667-.785-.829-.226-.73.38-1.57-.187-1.788.256-.846.37-.637.64-2.324-.282-.365.381.38 1.118-2.136-.04-1.346.666-.334.529-1.08.119-.98-.157-1.362.904-.523.757.174.212.523.213.073 1.073.504 1.924-.374 1.724-.573.891-1.74.304-2.282-.195-1.844-.808-.282-.839-.108-1.094-.47-.673-1.107-.398-1.421.53-.876-.09-2.028-.512-.606-1.666-.168-1.035-1.029-.26-.189-.347-.128-.903-.731-.253-.308.447-1.887-.446.154-.656-.239-.92-1.215-.154-.821-1.34-.054-.343-1.58-1.76-.617-.232-.76-.616-.002-.926-.452-.396-.973.218-.563-.036-.257-.377-2.069.128-.514-.6-.643-.228-.701.217-3.137-.032-.346-.127-.157-.377-.424-.316-.737-.09-.386.202-.47-.152-.2-.158-.27-.973-.498-.418-1.938.437-.88.385-1.927-.065-.63-.32-.242-.121-.48-.562-.773-.148-2.18.932-1.725.386-.733-.604-.468-.187-1.368.938-.935-.695-.222-.665-2.379.351-1.436-.202-.34.495-.085.868-.37.913-2.491-.548-.007-.311-.556-1.475-.324-.252-.342.019-.085.145.35.27-.02.214-.73.424-.271.055-.262-.143-.646-.637-1.827.54-1.45 1.151-.233-.19-.007-.38-.187-.208-2.135-1.436-.879 1.04-.188.554-.442.095-.313-.263-.224-.421-.118-.223-1.281-.877-.76-.047-1.499.39-1.284-1.088-1.043-1.173.335-.677.23-.075.327-1.196-2.453.048-.263.258-.266.671-.418-.24-1.276-.734-.94-1.45-.278-1.225.399-.674.007-.317-.302-.362-.718.05-.693 1.173-2.582-.391-1.46-2.188-1.102-.17-1.98-1.268-.151-.2.04-1.068-.595-.579-1.135-.2-1.326.292-.126.256-1.073.336-.313-.083-.235-.083-.479-.712-.586-.057-.798.185-.699-.355-.23-.503-.472-.276-1.42.345-1.175-.377-.458-.69-.285-1.019-.172-.041-.952-.23-1.142.514-1.059-.004-.593.865-1.601.614-1.219-.019-.47-.323-.312-.494.092-.897-.28-.636-.482-.21-.94-.035-.694-.577-.26-.61.11-.464-.17-.49-1.448-.82-.434.009-.858-.36-.04-1.26-.28-.397-.498-.303-1.978-.11-.798-.443-.529-1.562-.165-.987-.739-.82-1.38-.104-.662.665-.889.427-.292-.083-.461-.481-.636-.082-2.365.77-1.173-.568-1.269-1.546-.292-.048-1.007.533-.36.053-.653-.422-.66-1.225-.743-.371-1.817.261-1.415.008-.54-.298-.58-.808-.832-.369-.544-.074-.507.282-.614.7-.71.417-1.593.084-.251-.202-.346-.831-1.721-1.617-.239-.689.855-.674.903-3.168-1.078-2.08-1.824-2.212-1.267-.237-1.844-.725-.318-.377-.058-.85.317-.906-.167-1.04-.696-4.355-1.796-3.194-.756-3.338.077-2.744-2.476-1.873-.198-3.774-1.572-2.436-.51-2.448-.942-1.319-1.164-.656-1.713-.034-.963-1.239.561-2.406-.227-.811-.999-.603-1.889-.549-.468-.01-.957-.486-.72-.864-.433-1.467.282-.499 1.02-.662.057-.346-.146-.206-.706-.21-1.29-1.33-.286-.751-.643-1.016-.393.06-.707.507-.22.012-.518-.35-.616-.745-.035-.268.231-.463.008-.462-.654-2.327.162-.447 1.25-.956.418-1.105-.083-.345-.581-.495-.353-.568.081-.284.612-.812.222-.655-.06-.973-.543-.64-.134-.557.16-.27.63-.444.289-1.517-.503-2.962-.718-.736-.26-.475.304-1.188-.008-1.165-.851-1.253-.123-.056-.735-.335-1.37.745-.568-.066-.353-.302-.33-.673.721-1.638-.032-.417-.522-.762-.584-.23-.747.178-.953-.008-.471-.171-.532-.576-.103-.313.505-.683.795-.084 1.295-1.19-.232-.916.005-.497.689-1.668.546-.651.371-2.818-.635-2.343.05-1.116.89-1.392.27-1.263.016-.37-.258-.47-1.094-.833-1.238.085-.471.228-.51.016-.195-.195.515-3.99.246-.802.353-.335.253-.66-.085-.319-.293-.357-1.106-.717-.742-2.038-1.187-.99-.145.009-.21.463-.266.159-1.342.437-.378-.148-.023-.22.548-.348.009-.779-.522-.25-.513-.484-.204-.98-.17-.115-.57-.19-1.643.65-.064.298-1.066.381-1.202-.259-.905-.565.044-.38.465-.435.096-.433-.274-.495-.552-.376-1.317-.1-1.061.488-.41.038-.538-.304-.777-.693-.167-.633-.675-1.071-1.941-2.344-.074-.46-.943-1.335-.323-.126-.819.274-.27-.034-.582-.434-.41-.548-.301-1.493-.567-1.35-.466-.185-.249.805-.282.216-.73.125-.51-.32-.226-1.09-.466-1.34-1.495-.07-.589-.428.008-2.197.155-1.195-.09-.372-.368-.726-.9-.52-.603-.707-.216-.98.253-.8.562-.747.055-.55-.18-.44-.324-.703-1.346-.526-1.509-2-.096-1.19.508-1.195.04-1.166-2.402-.25-1.712-.652-.503-.342-1.303-2.6-.313-1.166-.365-2.428-.83-.741-1.34-.54-.537-.503-.289-.836.115-.607-.066-.268-.854-.838-.593-.998-.591-1.688-.529-.383-2.261-.668-1.646-1.125-1.508-.022-.603-.305-.452-.7-.864-.568-.83-.402-.893-.028-.305-.542-.002-.028-.083-1.193-.297-1.453-.203-.466-.254-.268-.304-.06-1.44.132-.418-.189-1.214-1.255-.972-1.567-.676-.495-.308-.442-.056-.519.544-1.456.1-.98-.16-.413-1.93-2.562-.218-1.013-.235-.419-1.62-2.027-.189-.416-.38-1.14.446-.65.556-1.481.072-.264-.105-1.12-.278-.584-.697-.859-.51-.393-.808-1.2.183-.34 1.06-.115.624-.305.55-.47.266-.653-.358-.232-1.806-.606-1.295-.306-.745-.373-1.213-1.773-.462-1.418 1.123-2.055.044-.416-.115-.393-2.396-1.054-1.318-1.151-.09-.653.273-1.774-.111-.444-1.21.05-.882-.516-.38-.72-1.238-.315-.338-.303-.693-2.526-.123-1.28.425-.986-.028-2.082-.861-1.376-1.042-.642-.332-1.533.426-.889-.233-1.298-.843-1.755-.439-.221-.633-.094-.697.235-.316-.222-.15-.647.317-1.066-.56-.67-.791-.63-.575-1.105-.265-1.058.072-1.243-1.914-.198-.338.07-.66-1.005.11-.178.045-.987-.933-1.398.37-1.18.14-2.552-.341-1.909-.2-.622-.176-.167-.284-1.249-.196-1.444.073-.874-.089-1.316-.304-.943-.448-1.385-.724-.963-.588-.411-1.33-.418-1.31-.852-.763-.884-.095-.226.128-.497-.153-.271-.482-.33-1.025-.286-.956-1.009-.237-.427.775-1.068-.058-.822-1.33-2.887-.448.18-.323-.163-.086-.685.159-.533.017-.06-.2-.394-1.926-1.333-.796.01-.373-.172-.712-.727-.581-.383-.62-.052-.854-.327-.208-.232-.202-1.468-.342-.773-1.352-.397-1.618-1.309-1.039-.594-.174-.775-.424-.468-1.16-.04-.552-.365-.08-.278-1.694-.816-.647-.137-.474-.351-.951-2.199-.92-1.102-.14-.404.083-.342-.394-1.33-.999-.973-.195-1.556-2.01-.991-1.244-.136-.877.155-1.089-.896-.575.405-.516.01-.559-.343-1.42-2.379-.134-.924-1.408-.54-2.608-.26-.585-.236-1.49.343-.421-.845-.006-.593 1.356-2.764-.5-3.045.406-1.199-.344-.658-1.261-.421-.89 1.286.155 1.876-1.235 1.813-.91-.558-.61-1.553.656-3.883-.27-.682-.389-.618-.636-.223-1.878.206-.867-.299-.39-.552-.775-2.986-1.31-1.403-.097-.268.185-.863-.033-.599-.26-.365-.693-.32-.402-.45.044-.865-.695-.159-1.238.36-.404-.149-.51-.421-.092-1.058-.895-.725-.58-.088-2.145 1.313-1.476.37-.742-.43-.29-1.625-.655-1.234-1.114.16-1.114 1.706-.534.249-1.573-.325-1.68.224-.335.19-.394.853-.861.345-.434-.405-.141-.556-.57-.552-2.064-.075-1.276.682-.552-.447-1.559-.403-1.411-.582-.477-.434-.17-.155-1.023-.488-.641.067-.418.433-.441.018-.709-.355-.206-.335-.397-.27-1.238.275-1.555-1.153-.728.114-1.008.493-1.284-.39-1.473-.06-.406.43-.386.201-.536.05-.603-.607-.62-.172-.538.05-.43-.237-.471-.71-.303-.266-.313-.014-1.008.752-1.053-.373-1.516.134-.955-.176-.324.104-.167.256.173.594-.068.157-.833.473-1.76-.241-.256-.487-.52-.244-.562.156-1.789-.043-1.952-.996-1.246-1.053-.135-.45-1.403-2.362-.309-.224-.186-.051-1.277.501-1.654-.175-2.49-.964-.186-.24.203-.685-.222-.34-.288-.03-.614.403-.336-.029-1.15-1.1-.292-.23-1.038-.245-.395.061-.006.01-.323.55-.672.335-.566-.137-.69.569-1.173 1.404.099 1.062-.58 1.074-.668 1.715-.05.88-.803 1.955-.472.09-1.424-.29-1.552-.82-2.654-.415-1.582-.441-1.35-.009-.34.234-.12 1.252-2.015 1.115-.458.038-.412-.148-.582-.726-.467-.13-.835.585-.873.268-.698-.12-1.194.23-.778.957-.582.169-1.164-.03-1.157-.256-.7-.543-.484.292-.898 1.315-.229 1.286-.665.992-.125.908.398.76-2.446 2.294-.988.54-.428.79.22.897-.23 1.97-.497.506-.791-.472-.354-.072-.509.288.383 1.347-.327.596-.586-.097-.35 1.417.114.38.304.334-2.933 2.104-.04 2.453-.556.94-1.476 3.258-.175.958.315 1.307.116 1.63-1.338 1.884-.266 1.633-1.436.466-.77-.085-.367-.193-.206.052-.343.437.248.823-.958 2.485.073 1.53-.229.406-.915.612-.38 1.667.204.532 1.112.799.514-.005.717.425.255 1.46-.899.843-.941.456-.694-.046-.668-.951-.255.023-.298.245v.394l.208.455-.487 1.324-.565-.297-.537-.066-.959.402-.212.687-.304.325-.198.033-1.748-.97-.937.209-.414.283-.298.586.121 1.005-.57.919-.459.142-.205.9-.42 1.023-1.424.926-.06.585-.204.364-.38.296-1.148.174-1.486.604-.164.234-.09.836-1.876 1.481-.267 1.481.09 1.194-.143.754-.495.344-.79 1.135.187 1.03-.125.277-.885.218-.614-.162-.664.433-1.045.39-.552.028-.146-.175.003-.421-4.604-1.407-.915.802-.465.092-.302-.082-.28-.518-.517-.3-.43-.07-.342.16-.258.443-.6.021-.24-.45-.051-.604-.22-.51-.53-.45-1.21-.577-1.301-1.101-.114-.463.074-.553-.143-.569-.496-.157-.508.297-.275.753-.392.587-.514.194-1.495-.567-3.354-1.806-.447-1.163-1.319-1.15-.323-.12-.452.123-.438-.242-.135-.347.037-.714-.224-.48-.681-.731-1.276-2.231-1.607-.278.169-1.067-.1-.353-2.439-1.706-1.603.321-.975-.095-1.002-.956-.277-.487-2.695.37-.548-.35-.235-.56-.246-.178-2.106-.795-.66.047-1.195-.768-.788-.62-1.208-1.582-.931-1.543-.942-.228-.652-.476-.198-1.454-.5-.794-.358-.236-1.64-1.082-1.586-.762-1.379-.413-1.768-.405-2.759-.147-.13-.082.037-.438-.436-.364-1.405-.199-1.642-.444-.73.167-4.588-2.46-1.231-1.033-.078-.597-1.357-.75-.463-.11-.614-.725-.13-.552-.334-.62-.565-.6-1.377-.788-1.355-.314-1.608-1.528-.922-1.24.004-1.174-.99-1.525-.88-.534-.295-.392-.08-.335.172-1.445-.515-.473-.618-.318-.317-.504.069-.531-.149-.36-1.745-1.246-.257-.419-3.278-1.17-.669-.369-.747.437-.57.189-.244-.064-2.313-2.2-.737-.093-.923-1.18.05-.381-.306-1.05-3.72-3.037-1.023-.577-1.134-1.699-.714-.606-1-.573-2.135-3.348-.021-.44.404-.496-.016-.278-.991-2.4-.145-1.236.142-.811-.707-1.628.108-1.002-1.698-3.6-.124.081-.369-.187-.76-.77-.469-2.235-.39-.102-.367-.733.058-.867-.163-.63-1.607-1.775-.122-.203.046-.85-.914-.92-.45-1.213-.097-2.729.494-1.616-.32-1.297-.117-2.174-.261-.38-.63-.25-.104-.26.303-.952-.312-1.338.351-1.165.403-.03.44-.346.698-1.31.029-.89-.388-1.015-.052-2.15.29-.538.523-1.986.148-1.478-.899-2.867-.539-1.014-.027-1.3-1.348-2.129-.26-.037-.243.144-.668-.216-.122-.217-.322-1.647-.13-1.63-1.216-1.149-1.19-1.587-.888-.477-.176-1.063.009-1.158-.166-.482-.46-.435-.945-.383-1.494-1.56.3-1.572.447-.806-.558-.922-.413-2.601.122-.384.203-.116.022-.22-.442-3.799-.735-2.147-.08-1.408-.348-1.666-1.62-3.114-1.115-.027-1.97-.544-.343-.217-.508-1.062-.083-.573-.082-.575.038-2.22-1.003-1.086.008-.72-.307-.466-.997.112-1.641-.467-.562.5-.868-.554.076-1.018-2.443-2.013-.626-1.018-.129-.674.048-.478-.208-.247-.663-.365-1.215-.375-.898.003-.365-.255-.159-.278.008-.894-.221-.453-.988-.065-.34-.421-.117-.677-.61-.726-.853.405-.502.04-.214-.113-.027-.265.195-.644-.24-.393-1.427-.273-1.297.394-.426-.132-1.687-2.24-.614-.061-.632.387-.817-.081-.136-.705-.158-.226-1.925-1.104-.868-.888-1.211-.23-1.192-.493-.157-.226.32-1.388-.245-1.483-.92-1.026-1.158-.631-3.898-3.617-.58-.679-.021-.584-.266-.491-2.05-2.115-.772-.07-.953-.57-1.3-2.83-.121-.459.21-.711-.224-1.919-.706-.704-.118-.877-.262-.688-1.604-1.532-1.058-.092-.212-1.359-.135-.185-4.219-2.201-.5-.487-.113-.674-1.536-1.513-1.52-.095-.68-.311-.346-1.389.1-.728-.173-.556-.79-.486-1.511-2.6-1.075-1.497-2.049-3.804-.454-.303-1.09.017-.291-.115-.463-1.402-.329-.55-1.715-.218-.374-.522-.498-1.881.276-1.06-.469-1.073-1.155-.23-1.782-1.981-.483-.539-5.376-1.134-1.703-2.134-.361-.227-1.47-.319-1.703-1.35-1.09-1.611-2.079-1.067-.799-1.316-.17-1.74-.802-1.2-.407-2.421-.55-.649-1.734-1.402-.283-1.945-.78-3.164-1.811-3.942-.614-2.376-.127-.494-1.339-1.352-.225-.376-.168-1.172-.177-.345-2.445-1.986-.952-.3-1.326-1.06-1.204.3-.283.488-.377.245-.674.116-.345-.092-1.146-1.229-1.015-1.401-.302-.514.043-.11.026-.153.03-.164.048-.18-.002-.054-.007-.065-.168-.156-.142-.001-.038.003-.003-.007-.079-.368-.02-.086-.009-.037-.024-.097-.412-.351-.004.003-.161-.206-.038-.066-.106-.208-.776-.358-.315-.097-.02-.13-.236-.089-.325.226-.448-.071-.257-.33-.041-.142-.355-.605-.066-.06-.319-.225-.635-.087-.152-.265.356-.955.042-.404-.213-.154-.04-.039-.625-.091-.451-.597-.244-.322-.102-.38-.522-.545.057-.443.102-.24.344-.404.155-.324-.08-.24-.202-.26-.276-.245-.326-.148-.151-.183-.017-.069z"/></svg>