<svg height="1000" width="1000"><path class="americon" d="M118.572 853.34l.173-2.299 1.272-27.074-.006-.049.023-.135.161-1.782.257-1.776.581-8.471-.069-2.648.198-5.528.277-5.522.854-22.69 1.29-28.395.002-.03.788-19.314.228-2.807 1.031-26.657.006-.026.714-18.145.452-8.335.028-.758.16-4.787v-.01l.885-19.844.44-9.848.253-3.935.964-23.726.15-.23.089-.471.866-24.048 4.257-93.464.247-8.077 1.792-40.82.203-6.542.296-5.051.686-15.988v-.011l.804-17.06.223-6.244.601-12.72v-1.19l.108-2.384.985-21.574 1.309-31.164.259-4.96.13-1.019.462-12.013.002-.248.127-2.016 1.976-41.047.208-6.046.008-.1.186-2.324 1.93-42.548v-.006l1.717-38.678-.13-.596.232-1.673 2.271-50.467-.035-1.531.964-21.408.139-1.766 1.004-23.871.575-17.926.006.004.464-6.326L155.2 25l6.56.46 13.791 1.41 9.771.297 3.588.02 4.337.094 36.254.632.592-.075 8.932.19 4.033.057.789.008 5.34.232 2.416-.093 12.268.19.233-.103 34.137.499 2.97.061 9.572.117 3.741.056.24.005 6.53.058.005.007 6.123.053 10.884.09 8.433.15 27.107.3.035-.026 8.851.11 16.665.217 3.55-.006 6.342.07 2.69.875 1.186-.013.106-.001 7.483-.104h.003l13.381-.047 13.245.037.03.005 5.38.015 17.282-.105 33.402-.059h.075l4.933-.056 6.301-.229.638.006.69.006 50.749-.543.977 78.136.033 2.65.317 34.893-.012 3.168.23 20.27V169l.496 47.254 41.66-.36 5.025.01 24.656-.453 5.509.186 17.59-.42 17.583-.634 1.813.078 15.772-.624.57-.118 10.29-.373 5.904-.22.816.063h.123l3.417-.21 16.914-.468.14-.014 19.533-.749.214-.021 5.268-.208 19.9-.678 4.807-.366 35.13-1.775 2.628-.308 8.205-.134 17.377-.748 1.735 32.527.875 20.812.55 9.696.096 1.682.327 6.419.396 14.754.02.084.241 7.473.097.908.35 9.493 1.924 41.523.364 7.836.005.026 1.075 22.725-.003.125 1.644 34.553 1.818 40.366 1.383 30.68v.006l1.24 24.718 2.014 45.48.979 23.883.38 10.827.012.077.246 7.052-.014.166.225 5.582.231 15.11.351 14.36.964 22.912.925 18.892 1.984 42.76 1.084 5.791 2.651 15.216.094 2.226 1.236 29.37.02.426.16 4.362.916 12.803.146 5.007.047 1.59.296 5.88.051 1.193.368 6.836.357 9.603.158 1.87.226 5.18.022.377.327 8.658.41 8.104.05 1.177.172 2.586.657 14.093-.007.015.093 5.895.088 2.916.64 21.119 1.101 24.045.076.12.365 7.412.007 1.739.221 4.728.724 12.557-.007.021.028.48.118 2.543.12 1.896.097 2.269v.37l.665 14.205-20.952.931-8.114.362-2.014.073-2.538.126-.743.037-.29.008-16.635.73-.491.017-17.588.717-20.084.919-38.545 1.297-19.271.706-.001-.003-.033-.1-3.224.078-69.153 1.894-3.218-1.007-1.512-.102-15.238.464-4.024.083-.014-.058-19.279.443-48.712.825-10.367.418-18.688.102-3.614.145-11.095-.041-8.535-.042-.055.003-1.066.006-145.776-.478-1.736-.041-26.17-.283-.275-.003-.728-.024-2.142-.026-7.837-.141-33.892-.579-10.749-.21-10.377-.218-154.092-4.947v-.01l-13.049-.621.553-16.989.01-.49-.048-2.51.4-5.84.057-2.472.287-4.863.55-11.84.325-9.627.006-.128.097-1.64.004-.098.615-14.795.003-.053.415-9.102.006-2.571.46-11.64.089-2.016.116-2.833.01-.115z"/></svg>