<svg height="1000" width="1000"><path class="americon" d="M893.715 592.01l3.531-11.425.659-10.831 2.727-14.86.386-2.11 4.236-10.326 3.903-9.754 4.904-6.8-.974-5.9 8.952-3.98 3.408-4.85-6.485-7.297 9.391-7.111 4.684-6.372 41.963-7.12-9.52 19.211-4.292 6.36-6.62-2.092-5.274 5.507-6.277 12.256-3.782 12.203-2.091 7.727 1.131 6.802-6.67 11.256.962 2.267.908 2.14-6.38 11.481-1.407 5.413-4.538 5.66-1.463 7.171-2.102 7.715-8.455 11.129-4.886 4.28-4.277-1.324-2.764-12.383zM32.328 669.242l10.316-3.696 7.52.603 2.779.22 5.963-2.424 17.456-4.354 11.53-1.415 3.036-7.318 5.016-7.38 7.101 1.002 13.628-3.962 1.494-2.05 2.324-3.191.09-7.566 6.368-4.239 7.51-1.875 3.544-4.562.071-7.65 18.932-10.643.833-.47.528-.227 12.137-5.23 10.733-2.34 4.826-4.06.638-.538 12.723-9.854 27.452-21.428 3.824 3.864-6.337 7.8 5.1 5.15.136 4.352 3.775 8.31 4.815 6.88 8.374 1.915 3.22 4.746.534.457 6.536 5.582 13.314.066 3.217-2.218 5.755-3.577 6.39-2.593 7.824-9.082 14.772 15.206 12.917-5.64 13.228-2.454 1.713-.12 6.952-.488 9.565-3.707-5.113-7.132 2.216-5.01.79-.123.09-.014 2.361-.372 7.188 7.606 11.996-5.514 13.739-8.112 8.055 6.55.71.574 7.427-4.899 12.406-10.143 1.21-6.883 6.734-5.15-.1-.116-7.368-8.616.257-.333 3.681-4.766 4.625-8.717 2.266-6.174 7.732-8.544 8.646-8.583 2.22-2.208 7.426-10.588 1.08-2.689 2.681-6.693 2.717-10.167 7.392-6.73 5.959-4.656 1.057-.828-1.722-5.728 7.744-5.871 5.1-10.39-.084-4.527 2.508-6.563 2.365-11.25 11.576 5.52 7.056 13.528 11.62 4.328 6.465 1.293 1.484.295 7.322-8.01.375-.836 2.984-6.669 5.227-10.978 6.75-7.374.557-4.276 3.406-9.947 3.746-5.181 2.637-5.78 14.096 10.8 5.245-9.493 5.257-8.76 9.895-4.492 6.614-7.934 6.353-3.705 3.174-6.138 2.574-4.986 10.121-9.78-1.618-4 2.51-7.086.305-5.393 6.52-10.721.297-7.742-1.13-7.888 12.752 10.356 4.524 3.662 16.754 13.62.038.03 22.34 18.037.015.013 1.97-5.081 3.201-8.512 6.07-12.913 4.508.383 1.247.106 8.423 1.922 3.847 3.074 6.172 3.791 4.04 4.39.02.022-2.707 4.66-3.726 3.51.263 5.584 4.225 2.032 2.112 4.05 11.178 1.716 3.23.761 2.106.496 6.835 3.319v.003l.002 5.715 5.195 2.369 6.074.344 3.03 4.08 3.332 4.107 5.7 4.868.119 3.745.219 6.926.001.881.01 5.4.002 1.228-1.21 3.95-2.865.143-.668.612-4.965 4.547.409 5.415-10.26.268-2.463.061-5.036 10.363-.382 1.935-1.324 6.684-.943 4.753.888 11.686 3.889 4.56 2.01 2.354 11.228-2.11 7.552-1.175 4.977-1.18 3.12 4.233-.473 3.745 3.35 3.198.743.708 3.711 4.198-.366 4.099 5.752 2.2 8.103 4.446 9.838-.153 7.177.528 7.87.815 1.642 5.348 7.406 5.413 2.957 4.107 2.194 3.044 7.372 5.352 12.498 5.397 9.18 6.038-1.271 7.96-6.314 5.667.173 10.499-1.155 5.378-.355 1.652 5.867 7.189-.862 4.396-.83 4.235 1.08 2.998 2.045 5.669 3.041 10.247.52 6.59-2.633 9.34-10.638-8.669-3.182-2.898-.988.514-3.804 1.976 6.015 9.948 3.09 5.17-1.523 3.002-1.79 3.523 5.502 4.796.48.418 3.905 6.642 2.178 3.354 2.654 4.084-1.227 4.567-1.984 7.376.893 1.037 1.891 2.195 1.557 1.805 9.047 4.291 1.494.345 10.218 2.346 4.96-2.924 5.34.52 4.793 17.112L909.43 676l3.954 8.528 3.313 11.23-18.241.947-10.923.525-21.806.993h-.002l-20.374.836-5.728.223-22.489.828-20.258 1.402-.038.003-.143.01-28.25.86-2.953.083-12.42.358-51.578 1.233-1.99.047-15.176.343-16.752.337-9.92.179-21.822.417-15.309.248-6.01.088-25.652.002-7.115-.017-16.674-.072-22.42-.028-9.235-.034-14.195-.078-14.586-.113-4.634-.043h-.036l-23.328-.435-20.216-.444-15.523-.384-2.995-.086-27.652-.862-15.57-1.32-.97-.082-19.644-1.685-10.57-.931-15.475-.484-7.031-.232h-.013l-18.258-1.455-13.091-1.235-20.124-1.49-16.727-1.287-20.228-2.18 3.667-3.205-20.492-1.462-10.926-.806-1.484 3.053-24.17-1.433-3.184-.196-7.912-.515-5.786-.382-22.009-1.503-13.907-.817-25.227-1.557-17.53-1.49-33.204-2.955-22.272-1.985L25 673.348z"/></svg>