<svg height="1000" width="1000"><path class="americon" d="M211.802 425.715l1.815-7.594.577-3.406.332-3.175 2.652-5.515 1.295-2.694 1-3.498.42-1.475.139-.483-.093-2.006-.553-3.528-.57-2.26.013-.538 1.225-2.047 1.076-.625 1.464-2.012.272-.64.6-2.701.266-1.197.307-2.853.967-1.586.044-.321-.364-.801-.198-1.144.158-.926.316-.796 1.642-1.506.224-.724-.186-2.03-.11-1.203.075-.747.624-.583.94-.102.4-.227.535-1.651 1.36-.921.714-.162.865-.937.524-.975 2.583-1.617.169-.752 1.085-2.387.796-1.377.024-1.367.153-.299 1.177-.952.294-1.817 1.3-.973.961-.72-.253-1.455 1.914-.598.815-.573 1.063-1.341.35-.1 1.366.384.322-.112 1.15-2.317.974-3.358.006-.021.976-2.64.174-.471.582-3.66-.347-2.39-1.302-3.173-1.534-5.724-.536-3.51-.047-3.803.236-2.503.004-.038-.006-3.472-.31-1.937-.514-1.998-.107-.415-2.088-5.18-.05-3.117.44-3.227.963-1.512 2.805-2.72 1.172-1.348.605-1.037.795-2.543.605-3.244 4.378-10.548.683-3.788.018-.251.068-.984-.446-2.198-1.398-3.65.453-3.801-.028-3.025-.107-.94-.145-1.264-1.287-3.756-.117-2.664-.485-3.35-1.775-2.865-1.853-1.962-.453-.693-.156-1.164.106-1.398-.02-.193-.221-2.045-.551-.76-1.336-.575-.273-.302-.323-.757-.073-1.332-.197-.683-2.133-3.062-.083-.484.208-.97v-.001l-.029-.495-1.206-1.604-2.061-1.459-1.504-.647-.465-.417-.462-.939-.48-.976-.405-.405-.035-.036-1.64-1.642-2.042-3.28-.339-2.712-.606-1.278-1.165-1.738.068-.52 1.113-1.328.329-.657.148-.723-.139-.98-1.104-2.334-.608-2.863-1.989-2.093-.114-.472.085-.52.788-1.655.266-1.333.198-1.691-.146-.777-.201-1.077.117-.338 2.079-1.613.353-.454-1.32-1.78-.383-.383.153-.377.904-.508.88-1.652-.008-.382-.271-.552-.023-.654.553-.556.385-.888.536-.825.315-.15.722.09.274-.391-.102-1.067-.762-1.106.521-1.647-.218-.976-.05-.222.013-.14.034-.388.224-.233.2-.068.938-.321-.045-1.143-.65-1.021-.128-.452 1.43-1.088 1.201-2.851v-.348l-.97-.434-.377-.483.063-.52.073-.603.277-10.41-.059-6.63.535-1.417 1.814-2.344.988-1.744.134-.413.58-1.787 1.005-3.096.497-1.941.838-1.342 2.518-2.352.581-1.268.198-1.462-.175-4.288-.13-1.228-.282-.995-1.632-1.884-2.605-3.008-.931-1.65-.423-.463-.904-.754-2.194-1.317-.684-.67-.457-.447-.481-.665-1.14-2.298-.975-.444-.21-.27-.517-2.884.01-1.553.502-3.371 1.215-1.506 1.097-.67.855-1.74.813-3.418 1.058-5.405.258-1.315.582-2.36.674-1.67.558-1.291.758-1.16 1.71-1.605 1.48-1.004.492-.334.468-.918.165-.324.177-2.635-.228-7.9.579-7.032-.077-1.726-.136-.467-1.719-1.9-1.558-2.378-.751-1.822-.229-.952-.109-.453-.134-1.35.364-1.148.021-.038.94-1.646.592-1.877 1.538-4.873 27.175-.236 2.395-.208 14.234-.213 6.31-.098 24.385-.404.288.307 5.755.029 1.571-.433 2.099.076 1.161.386.01.004 9.514-.052.223.039 6.205.204 7.327.238 9.153-.022.022-.159 1.671-.195 24.611-.517 3.77.073 16.018.301 21.63.153 8.068.05 24.588.895.906.144.09.039 1.18.507 7.667 1.314.45.011 6.332.156 14.909-.458 9.319.102 4.456.24 4.45.238 4.877.26.131.003 15.142.31 5.605.338 5.557.332 5.272-.311 6.084.084 6.994-.231 24.972-.852 5.38.027 9.275.042 1.989.009 4.277-.137.17-.005 10.291-.333 6.496-.244 1.867-.026 10.593-.57 11.44-.347 9.328.108 5.024-.246 37.691-1.894 20.081-.336 1.8-.032 23.755-.97 14.271-.22 1.127-.044 10.961-.433 5.128-.206 10.436-.342.14-.005-.475.698-2.021.607-.826.646-.49.667-.452 1.873-2.287.857-.226-.09-2.652-1.054-1.08-1.15-1.155-.553-.801.009-1.704 1.548-.241.22-1.554.715-1.443.198-1.307.849-.144.093-1.751 2.29-.143.571.91.313.287.361-.677.683-.817.185-.174.35.057.342-.402.537-.36.482.084.452.888-.227 1.438 2.592.423.761 1.307.938 1.243 2.988.405.255-.526.448.06.264.92.175.39-.065.339-.318.419-.085.45 2.38-.475 4.583.417 1.659-.017.112-.147.988-.224.473-.522.382-.742.015-.143.27.788.756.845.43.392 3.213 1.77 1.557 1.409 1.761 1.112 1.833.081.592.011.464.182.317.298.099 1.038-.382.267-.023.304.085.031.167.062.331-.472.13-.31.422-.057.08.032.63.337.584-.007.664-.13.281-.122-.041-.236.056-.364-.295-.494-.167-.45.15-.387.71-.705.846-1.043 1.25-1.492 1.284-.133.284.082.332.705.633-.157.547-2.853 3.93-.194.116-1.025.613-.484.534-.152.369-.048 1.383-1.546 1.616-1.598.474-1.66 1.056-1.026 1.474-.18.407-.019.845.582 1.028.021.61-1.515 1.429-.553.658-.335.72.032.798.508.453.723 1.497.213 1.162-.05.589-.42.71-1.139.698-1.193 3.852-.059.191-.414.309-.309.006-.118-.317-.797.364-1.817 2.397-.329.836.126 1.021.688 1.293 1.075.623.05.725-.366.733-.734 3.023.44 1.271-.424 1.219-1.61 2.418-.306.249-1.28-.079-2.473 1.263-1.13 1.578.09.643.233.466-.028.35-1.557 1.407-.294.598-.588 1.197-1.038.874-1.02.56-.698 1.542.024.803-1.058 1.163-1.738.34-2.123.814-.177.327-.007.875.038.099.224.571 1.237.579.53 1.323.088 2.823-.153.839.046 1.951.21.522.493.499.197.005 1.017-.64.414.142.073.355-.284 1.705.057.534 1.564 1.48 2.474 4.383 1.53 1.133.17.589-.433 1.267.007.375.186.4.447.367 1.329.414-.058.386-.72.456-.33.87.516 2.357.672 1.32-.113.894-.49.818.034.243 1.863 1.419.782.238 1.273.011.31.53-.148.529-.554.85-.333.39.013.671.332.936-.182.755-.302.817-.067.182.013.67.52.673.56.48 2.039.342.098.457-.165.577.078.478.284.57.874.08.563-.056.446-.442.285-.837.436-.134.515.416.793 1.054.985 2.385.162.946.019.111-.23.691-1.099.276.019.92.155.279 1.89 1.825 1.084.786.762-.353.673.211.102.74-1.394.42-1.167-.878-.486.562.269.5 1.172.257.912.39.638.17.38.806-.26.526-1.1-.419-.998-.881-.308.39-.197.997-.18 1.97.823 2.573.26 1.86-.298.724-.464.48-.92.096-.826.164.119.794.43.313.932.083 1.538-.639.363.129-.078.538-.835.535-.05 1.299-.306.58.42.127 1.085-.752.51-.677.526-.23.307.243.066.605-.156.695-.396.503-.085.344.41.275.489-.28 1.28-1.164.508.016.173.373-.076.633-.582.807.005.551.572.335.642-.237.259-.012.04-.002-.018.345-.615.981-.088.79-.508.76-1.366 1.133-.552.434-.683.121-.688-.36-.675-1.05-.524-.056-.028.61.204.453.145.606 1.306 1.553.076.497-.262.484-.581.444-.28.053-1.143-.484-.304.1-.126.043-.282.693.15 1.316-.364.605-1.033.392-1.813.218-1.75-.787-4.3-.292-.558.248-.526.547-.626 1.211-.456 1.542-.08.725.401.81 2.603 2.242 3.834 2.8.642 1.172.033.686-.4 1.099-.684 1.386-1.6 2.468-.932.734-.4.102-1.692-.2-.4.553.1.797.56.797 1.552 1.248.291.502.318 1.348.522.76 1.63 1.36.213.344-.158.558-.32.326-.356.064-1.155-.57-.812.158.248 1.154-.308.637-.778.015-.007-.348-.191-.278-.495-.368-.698.107-.196.86-.057 1-.043.749-.413 1.555-.252.948-.443.799-2.039.64-.906.284-1.878-.62-.494.103-.635 1.126-1.176 3.29-1.735.661-1.607-1.072.64-1.119 1.865-.747.505-.48-.204-.579-.59-.403-.984-.029-.522.189-1.866 2.527-1.106.51-.805.635-.513.84-.134.456.108.84.394.45 1.698 1.175.143.717-.7 1.023-.642.502-2.134-.196-.297.26-1.116 2.695-.432 3.743-.565 1.375-.226.55-.679.812-1.383.779-2.475.383-.547.291v.28l.566 1.165.443 1.134-.273.773-.319.127-.676-.466-.694.167-.34 1.39-1.416.947-3.081 2.391-2.502 1.73-2.062.648-3.275-.311-1.562.179-1.288.415-.555.479-.203.303-.395.59-.672 1.829-.229.295-.559.133-1.334-.223-1.44-1.468-.52-.33-1.733-.23-.811.18-.072.016-.848.485-1.43.99-.75.825-.938.561-3.555-.132-.946.423-2.441 2.465-.325.62.01.62 1.085 1.808-.111.692-.92.403-1.583-.193-1.26.457-.364.364-.366 2.67.159.356.846.837.062.427-.17.433-.771.676-.189.53.369 1.59.775 2.134.086.46-.193.749-.42.42-1.312.681-2.177.419-2.054.802-1.278.989-1.943 1.504-.37.215-2.058 1.195-2.74.355-2.329 1.331-.753.15-1.004-.292-1.794-1.144-6.065-2.918-1.353-.305-3.091.764-2.23 1.89-1.16 1.848-1.843.77-1.077-.017-1.812-.758-3.817.132-1.473.426-5.306-.32-1.024.53-.524 2.077-.53.605-4.105 2.069-2.244 1.23-1.342.395-1.35.284-1.969-.665-.968-.13-1.192.851-.183 1.245.44.653.05 3.74-.052 1.207-.263.776-.37.6-.662 1.079-.576.572-2.132 1.871-2.017.617-.058.017-1.186 1.308-.424.467-1.893 3.734-.663 2.588.399 1.087.568.131 1.083-.826.622-.02.088.872-.137.816-.25.385-.162.015-.227.652.444 3.03.038.08 1.715 3.65 1.16 1.175.5 1.163.182 1.12-.795 2.034-.83 3.12-.078 1.378.384 1.589-.058.296-.101.516-1.549 3.59.17.885-.254 1.634-.312.692-1.024.832-.294.625-.437 2.966 1.45 1.974 1.162 2.26 1.378 4.747.452.69.761.478.423 1.332.305.16.43-.147.815.01-.004.365-.467 1.104.154.509.148.06.186.075.654-.19.483.391-.2.201-.034.035-.504.509-.055.095-.42.74-.042.405.194 3.439.134 2.388 1.238 1.382 1.078.507.164.404-1.094 2.834-.395.037-.564-.423-.362.01-1.32.735-1.733 1.68-.067.326-.588 2.879-.037.83.543 2.647.222 1.081.424.92.799.794 1.018.196.26-.263.152-.404-.007-1.084.623-.98.614-.404 1.06.316 1.107.601.452.59.094.36.018.431-.319 2.51-.12.4-.57.703-.73.45-1.202.154-.939-.002-.22.24.058.389.845.586 1.158.637 1.585.615.53 1.008-.25.535-.148.127-.348.295-.367.164-.648.157-.697-.084-.468-.472-.355-.455-.574-.132-.941.52-1.412.42-.399.227.076.514.491.439.646.783.268.823-.197.557-1.52 1.838-.825 2.135-.243.39-.498.305-1.947-.153-.651.135-.004.013-.438 1.321.225.326 1.7.974.176.695-1.266.275-2.496 1.435-.734.546-.473.71-.173.603.067.784 1.184 2.019.151.752-.186.471-.983.61-.196.12-.104.065-.399.515-.143.653.071 1.369-.219.615-.72.358-1.68-1.219-.462-.06-.596.534-.304.56-.16.89.154 1.245 1.411 1.61.214.601-.07.568-.344.325-.603-.097-.043-.444-.567-1.287-1.093-.773-1.06.257-.828.926.118 1.349.428 2.13-.05.576-1.553.968-2.343 2.527.094 1.043 1.174 1.614.327 1.269-.134 2.885-.045.956-.163 1.186-.469 1.374-.002.474.138.337.993.219 1.15-1.068.614-.187 2.63.725 1.511.682.268.257-.04.168-2.436.677-.583.567-.097.673.585.81.085.503-.046.08-.022.039-1.608 2.844-.428.486-1.48.725-1.308.024-.762.339-.25.61-.077.883.694 3.28.006.56-.327 4.4-.34.971-.532.83-3.104 2.783-1.065.954-2.938 1.987-1.859 1.5-1.293 1.91-.836 1.81-.171 1.842-.474.456-1.905.476-.624-.064-.385-.04-.307.428-.333.683-.22 1.676.511 1.452.644 1.122.245.614.113.285.345.863-2.166 1.164-1.375.097-1.062.36-.54.808-.906 3.015.17 1.04 1.378 3.506.238 4.583-.326 1.382-.853 1.567-.587 1.68-.088.718.66 2.187.682 1.374.038.253.232 1.544-.44 1.444-1.75 1.627-.704 2.536-.697 1.333-.438.619-2.089 1.636-.361.676-.059.91.267 4.559-.128.129h-.001l-.694.702-.976.661-1.693.507-.478.326-.597.876-.57 1.577-.465.827-2.681 3.98-3.68 2.18-5.05 3.312-.662.433-2.076.024-1.443 2.945-1.125 1.011-.792.96-.678.82-.633 1.293-1.56 2.463-.795.971-1.438 1.023-.461.79-.472.808-.718 2.884-.042 1.299-.002.054-.123 3.734-.005.181.505.793.386 1.267-.084 1.668-.261 1.887-.426 1.234-.993 1.873-.509.96-.61.535-.334.95-.293 2.798.105.338.261.844-.056 1.554-.344.685-2.176.952-1.458.891-.516.505-.111.268-.047.113.061.748.637.688.04.265-.51 1.472-1.014.803-.598 2.417-.091 1.963.625 1.74.959.79.391.643.023.22.158 1.504-.25.779-.33.252-.828.353-4.127 3.826-1.114 1.033-4.194 1.714-.053.033-2.705 1.738-1.886 2.23-.935 4.129-.044.692.496 3.128.273 5.822-.868 2.366-1.727 2.883-.48.42-1.059-.053-.513 1.463.044 1.378-.076.279-.084.306-.65 2.377.062 1.081.63 1.146 2.04 1.717 1.448 1.504 1.183 2.844.164.73-.013 1.29-.015.14-.357 3.364-.132.623-.229 1.078-.46.752-.07.074-1.721 1.845-.317.34-.29.59-.035.949.65 5.75-.185.798-.833 1.93-.49 2.547-.062 3.144-.158.866v.006l-1.033 5.666-.04 1.767-.41 3.04-.026.187-.636 4.699-.431.809-1.775 1.775-.6.6-.665 1.704-.173 1.53.286 4.419.126.674.4.635 2.859 1.916 1.06.167 2.5-.088.627.387-.07.235-.173.574-1.346 1.906-1.168 1.184-.508.753-1.681 3.305-.09.174-.642 1.264-.393 1.132.05.532.46 1.13 1.878 3.023 1.493 1.372.554 1.014.107.675-1.857 4-1.828 8.537-2.282 4.802-1.842 3.308-1.845.931-.008.004-2.27 1.146-.349.43-.693 1.895-.059 3.606.702 2.46.745 1.396.163.63.001.006-.033.178-.198 1.07-.192.43-.112.252-.654 1.471-.852 2.591-.012 1.58.608 2.595.276 2.605-.376.716-3.418 3.573.262 1.379 1.738 2.886.108 1.037-.452.734-2.062 2.18-.251.266.212.808-.056 3.648.177 2.605-.073.696-.301.63-1.131 1.024-.182.431.08.806.01.021 1.492 3.152 1.122.72 1.242-.082.704.311.305.341.014.226.077 1.27-.046.304-.597.136-.055.4.602 1.074.823.938.097.112.617.704.908 1.548.104 2.323-.14.6-.516 1.136-1.74 1.579-.555 1.05-.185 1.162 1.177 2.49 1.239 3.425-.022.88-.01.406-.263.753-1.112 1.958-1.613 2.378-1.66 1.895-1.222 1.395-2.067 1.905-.695.64-.812 1.118-.262.869.167 1.437.288.705 1.116 1.367.614 1.475-.192 1.964-.623 3.1.185 1.238.844 2.074.01.021.192.474.602.874 1.237.643 2.554 2.144.25.666.024 1.134-.367.765-1.135 1.358-.939.25-1.568-.297-.918.515-.906 1.311-.536 1.404-.183 1.679.404 1.437.745.856-.008.477-1.322 1.855-2.384 2.688-.883.128-.773-.77-.751-.159-1.574.922-1.741 1.733-3.547.775-1.12.69-3.21.426-.748.614-3.446 2.828-.586 1.175-.131.934.2.543.677.867.59.161.37.333.345.905.25 1.354.09 1.746-.05.67-.172 2.307.883 4.205-.054 1.221-.256.506-1.196.69-.313.477-.414 1.843.046 3.845-.398.783-.006.008-1.37 1.751-1.043 1.043-1.766.938-1.692.634-.246.277-.782 3.984.09 1.824-.327 1.716.011.105.02.187.301.216.28 2.377-.244.783-.381 1.218-.291.931.211.474.082.184.882 1.975 1.497 1.954.356 1.851.051 1.418.377 2.7.113.813.095.754.185 1.463.295.612.37.96.36 3.238.575 1.718 4.2 3.801 2.328 2.107.773.871 1.26 1.854.891 1.75.252 1.267-.096.951-.545.582-1.434.75-.578 1.158.202 1.136.916.886.685.028.885-.28 2.234-1.361.44-.586.138-1.223.256-.392.799-.157 1.295.34 1.034 1.285.423 1.001.468.6 1.699 1.007.536.78.52 1.48.383 2.913.514 2.01 1.617 1.96 2.108 3.337.778 1.717-.006.937-17.883-.616-15.086-.535-1.26-.045-8.796-.32-5.445-.199-17.876-.668-3.563-.136-28.578-1.115-3.628-.145-5.537-.223-14.903-.478-2.039-.066-5.676-.187-13.628-.455-.942-.032-27.128-.942-1.307-.046-7.86-.267-12.695-.438-16.144-.572-6.47-.233-15.226-.56-15.884-.598-3.518-.072-4.187-23.408.513-.904.928-1.635.349-1.03.472-1.395-.985-2.633.58-5.82.334-.357 1.72.665.076-1.723v-.012l1.103-24.907.528-15.514.084-2.47.032-.885.036-.488.381-8.1 1.068-22.712.258-5.48.102-2.17 1.326-21.339.234-3.775.201-4.142.348-7.174.933-19.239.4-8.247.552-11.408.262-5.422.018-.273.79-11.932.304-8.236.546-14.807.582-15.794.005-.134.026-.714.116-3.648.078-2.822.031-.296.463-11.18.142-3.428.044-1.057.176-4.273.326-7.884.409-9.891.148-3.583.29-8.894.278-8.524.03-.914.004-.127.12-1.64-.273-.155-.002-1.633.275-1.079 1.048-.796.452-.698.163-1.213-.048-1.09-.136.018-1.044-2.257-.292-.634-.365-.402-.695-.262-.052-2.904.608-.886-.061-.532-1.178-1.255-1.776-3.38-1.625-1.65-1.573-1.3-3.1-.975-.362-.488-.093-.902-1.08-.715-1.489.163-1.105.12-.324-.191-.211-.527.282-.934.71-.828-.073-.248-1.36-.936 1.132-2.158.138-.54.1-.886.1-.894.013-1.82-.44-1.106-1.262-2.016-.676-.33-.456-5.439-.016-.19-.137-.559-.465-.565-.628-.406-.438.213-.894 1.39-.659-.21-1.414-1.158-1.897-.137-1.152.698-.131-.004-4.214-.115-1.651 1.456-3.28-1.102-.158.192-1.942.455-.481-.081-.514-.458-.899.08-.188.718.769 1.27-.023.257-1.412 1.813-.455.857 1.064 2.744-.035.483-.3.641-1.203 1.175-.11.316.154.452-.922.265-.134-.106-.186-.148-.65.464.01.244.286 1.09.214.5-.218.572-.504.06-.66.059-.237.739.23.44.575.454.416.112.146.423-.308.55-.556.6.217.712.572.987-.26 1.001-.252.519-.587.288-.557.035-.53-.001-.512.438-.157.366.166.779-.152.308-.038.078-.966.11-.188.632h-.71l-.647-.35-1.59-.972-3.37-2.765-1.003-1.573-1.88-.642-.011-.009-.576-.423-.676-1.271-.078-.52.285-.928 1.654-3.396 1.034-1.747-.141-1.45-.473-1.863.04-.566 1.813-3.388.054-.456-.186-.682-2.814-4.644-.19-.88.672-2.5.384-.697.511-.567 1.445-.894 1.001-1.881.323-2.383 2.009-4.628.103-1.275.118-.376 1.026-3.265.214-1.387-.51-1.53.162-.763.814-1.188 1.13-.614.856-.903.55-.974.047-.135.557-1.631 1.812-3.231.889-1.116 1.58-1.493 2.18-3.128.227-1.43-.206-2.813.167-2.773.18-.828 2.074-3.663 2.557-4.518 1.196-2.592.042-.611-1.22-1.996-.227-.726-.559-3.099-1.457-1.79-1.683-1.32-2.414-2.276-.25-.748-.281-2.252-.288-.996-.015-.035-.427-1.03-.72-.986-2.082-1.71-.635-1.419-.07-.587.804-2.957.555-1.25 1.975-2.008 1.583-.824.886-1.335.042-.105.403-1.018-.059-.385-.374-.595-2.135-2.073-.249-.81-.054-.177.185-1.747.676-2.231 1.598-3.916.037-.58-.649-1.964-2.082-4.438-3.625-5.051-.396-1.091-1.03-4.721-1.038-2.829-.92-2.508v-.002l-.235-1.261 1.001-6.554-.282-7.655-1.27-3.44-.38-1.818.025-1.132.423-1.434 1.703-10.427.02-1.96-.389-1.678-.1-.43-.87-2.339-1.05-1.081-1.708-1.048-.875-.324-1.259-1.834-.158-.23-.821-.441-1.792-1.609z"/></svg>