<svg height="1000" width="1000"><path class="americon" d="M211.872 425.714l1.814-7.594.578-3.407.331-3.175 3.947-8.208 1.559-5.456-.093-2.006-.553-3.529-.57-2.26.013-.537 1.226-2.047 1.075-.625 1.465-2.012.27-.64.867-3.898.307-2.853.968-1.586.043-.322-.363-.8-.199-1.144.159-.927.315-.796 1.642-1.505.224-.725-.296-3.232.076-.747.623-.583.941-.103.4-.226.534-1.652 1.361-.92.713-.162.866-.937.523-.975 2.584-1.617.168-.753 1.086-2.386.795-1.377.025-1.368.153-.298 1.177-.952.294-1.817 2.26-1.694-.253-1.454 1.914-.599.816-.573 1.063-1.34.35-.1 1.366.384.322-.113 1.149-2.316.98-3.38.976-2.64.174-.47.583-3.661-.348-2.39-1.302-3.172-1.533-5.725-.536-3.51-.048-3.803.24-2.54-.005-3.472-.31-1.938-.622-2.412-2.088-5.18-.05-3.117.44-3.228.963-1.512 2.806-2.719 1.171-1.349.605-1.037.795-2.543.606-3.243 4.377-10.549.684-3.787.085-1.236-.446-2.197-1.397-3.65.452-3.802-.028-3.025-.252-2.204-1.287-3.755-.117-2.665-.485-3.35-1.775-2.865-1.853-1.962-.452-.693-.157-1.163.107-1.4-.242-2.237-.55-.76-1.336-.575-.274-.302-.322-.757-.073-1.332-.198-.683-2.132-3.062-.084-.484.209-.97v-.001l-.03-.495-1.205-1.603-2.062-1.46-1.504-.646-.464-.417-.943-1.916-.405-.405-1.675-1.678-2.041-3.28-.34-2.711-.606-1.28-1.164-1.737.067-.52 1.114-1.328.328-.656.148-.723-.139-.98-1.104-2.335-.608-2.863-1.988-2.093-.114-.471.084-.52.789-1.655.266-1.334.197-1.691-.347-1.854.117-.338 2.08-1.613.352-.454-1.32-1.78 1.554-2.92-.007-.382-.272-.552-.022-.654 1.473-2.27.315-.148.722.089.274-.391-.102-1.067-.761-1.106.3-3.373.223-.233 1.139-.39-.046-1.142-.65-1.021-.128-.452 1.43-1.088 1.201-2.851v-.348l-1.21-2.04.276-10.41-.059-6.63.535-1.417 1.815-2.344.987-1.744 1.719-5.296.497-1.941.838-1.342 2.518-2.352.581-1.268.198-1.462-.174-4.288-.13-1.228-.283-.995-4.236-4.892-.932-1.65-.423-.463-.903-.754-2.195-1.317-1.141-1.117-.481-.665-1.139-2.298-.975-.444-.21-.27-.518-2.884.01-1.553.502-3.371 1.216-1.506 1.096-.67.856-1.74.812-3.418 1.316-6.72.582-2.36.674-1.67.558-1.291.758-1.161 1.71-1.604 1.972-1.338.633-1.243.177-2.635-.228-7.899.579-7.032-.077-1.726-.136-.468-1.718-1.899-1.56-2.378-.75-1.822-.338-1.405-.134-1.35.364-1.148.96-1.684 2.131-6.75 27.175-.236 2.395-.209 14.235-.212 30.694-.502.288.307 5.756.028 1.57-.432 2.099.076 1.17.39 9.515-.053.224.04 13.531.441 9.153-.02.023-.16 1.67-.195 24.612-.518 19.788.375 29.698.202 24.588.895.906.145 1.27.546 7.667 1.314.45.01 6.332.156 14.909-.457 9.319.102 13.783.737 15.273.314 11.162.67 5.272-.312 6.084.084 31.966-1.082 16.644.077 14.738-.475 5.364-1.089 1.132.846 1.867-.026 10.593-.571 11.44-.346 9.328.107 5.024-.246 37.692-1.893 21.881-.368 23.754-.97 14.272-.22 17.215-.695L788.861 25l-.334.695-3.79 3.794-2.286.856-2.878-1.144-4.982.074-1.553.715-1.443.199-1.451.942-1.95 2.286-.416 2.465.267 1.587 1.861 3.353 1.308.938 1.452 2.987 1.798.675.45 2.38-.475 4.583.417 1.66-.165 1.1-.223.472.617 5.067 1.77 1.557 1.41 1.76 1.112 1.834 1.877 1.066.148.372-.506 2.448-.32.317-.748-.21-.45.15-.387.711-1.748 2.095-1.492 1.285-.134.283.083.333.704.632-.156.547-2.854 3.93-1.218.729-.485.535-.151.369-.048 1.383-1.547 1.616-1.597.473-1.66 1.057-1.027 1.474-.178.407-.02.844.581 1.029.022.61-1.516 1.428-.552.658-.336.72.032.799.508.453.724 1.497.212 1.161-.05.59-.42.71-1.138.698-1.252 4.043-.415.308-.308.006-.119-.316-.796.363-1.817 2.398-.329.836.126 1.02.688 1.293 1.075.623.049.725-.365.733-.734 3.024.44 1.27-.424 1.22-1.61 2.418-.306.248-1.28-.078-2.474 1.263-1.13 1.578.091.643.233.465-.029.35-1.557 1.408-.881 1.795-1.038.874-1.02.559-.699 1.542.024.804-1.057 1.162-1.739.34-2.122.814-.177.328-.008.875.263.67 1.236.578.53 1.323.089 2.824-.153.838.045 1.952.211.522.493.498.196.006 1.017-.64.415.142.072.355-.284 1.705.058.534 1.564 1.48 2.473 4.382 1.53 1.134.17.588-.432 1.267.007.376.186.4.447.366.55 1.257-.329.87.515 2.357.673 1.32-.113.894-.49.818.033.243 1.863 1.418.782.238 1.273.012.31.53-.148.528-.553.85-.333.391.013.671.332.936-.182.755-.37.998.014.671.519.673.56.48 2.04.342.097.457-.164.577.077.478.285.57.874.08.562-.056.447-.442.285-.838.436-.133.515.415.793 1.054.985 2.385.18 1.058-.229.69-1.1.277.02.92.155.279 2.227 1.756.89 1.873-.411.4-.207.512-.225.014-.309.528-.174 2.935.783 3.03.086 1.031-.265.786-.263.7-.05.864.482 1.214-.026 1.08.361.952 1.226.088 2.56 1.067 1.29.8-.4 1.512-.683.945-1.377 1.363-.734.316-.539-.243-.56-.499-.603-.102-.648 1.046-.86 3.075-.087.808.15 1.316-.363.605-1.033.392-1.813.218-1.751-.787-4.3-.293-.558.248-.526.548-.625 1.211-.456 1.542-.08.725.401.81 2.603 2.242 3.833 2.8.643 1.172.032.685-.4 1.1-.684 1.386-1.6 2.468-.931.734-.4.102-1.692-.201-.401.554.1.797.56.797 1.553 1.248.291.502.318 1.348.521.76 1.63 1.36.214.344-.158.558-.321.326-.355.064-1.542.223-.923.36-.9.357-1.073 1.225-.054.95-.665 2.503-.443.8-2.945.924-1.878-.62-.495.103-3.92.648-.522.189-1.866 2.527-1.107.51-.804.635-.514.84-.134.456.108.84.394.449 1.698 1.176.144.717-.7 1.023-.642.502-2.135-.196-.297.26-1.115 2.695-.433 3.743-.79 1.925-.68.812-1.382.779-2.475.383-.547.291-.19.397.242.774-.201 1.76-1.701 1.885-1.475.92-2.466 2.172-2.501 1.73-2.062.648-3.275-.311-1.562.179-1.289.415-.555.479-.598.893-.671 1.829-.23.296-.558.132-1.335-.223-1.44-1.468-.52-.33-1.732-.23-.812.18-.071.016-.849.485-1.43.99-.75.825-.937.561-3.556-.132-.945.423-2.442 2.465-.324.62.01.62 1.085 1.808-.112.692-.92.403-1.583-.192-1.259.456-.365.364-.366 2.67.16.357.845.836.063.427-.17.433-.772.676-.188.53.368 1.59.776 2.134.085.46-.193.749-.42.421-1.312.68-2.176.419-2.055.802-1.277.989-1.944 1.505-2.427 1.409-2.74.355-2.33 1.332-.752.148-1.004-.29-1.795-1.145-6.065-2.918-1.353-.304-3.09.763-2.23 1.89-1.16 1.848-1.843.77-1.077-.016-1.813-.76-3.817.133-1.472.427-5.306-.322-1.025.531-.524 2.078-.53.604-4.104 2.069-2.245 1.23-1.342.396-1.349.283-1.97-.665-.968-.13-1.191.851-.183 1.245.44.654.05 3.74-.052 1.206-.264.776-1.032 1.679-.576.572-2.132 1.871-2.074.635-1.61 1.775-1.894 3.733-.662 2.589.398 1.086.569.131 1.016 1.894.445 3.03 1.753 3.73 1.159 1.175.501 1.163.182 1.12-.795 2.035-.83 3.12-.078 1.377.384 1.589-.16.812-1.548 3.591.17.884-.255 1.634-.312.692-1.024.832-.294.625-.437 2.966 1.45 1.974 1.163 2.26 1.378 4.747 1.635 2.5 1.546.389.507 1.17.168.388.032.525-.762 1.445-.042.406.329 5.826 1.238 1.383 1.077.506.165.404-1.094 2.834-.395.038-.565-.423-.361.01-1.32.735-1.733 1.679-.656 3.205-.037.83 4.526 2.743.828.094 1.164.591.524.636.076.877-.233 1.909-.292.796-.407.542-.59.38-1.101.208-1.85-.299-.426.28-.317.719.446.72 2.25 1.673-.775 2.748-1.785 1.376.094.917-1.52 1.837-.825 2.136-.243.39-.498.304-.94.992-.174 1.625-1.09.97-2.497 1.435-.734.545-.472.71-.174.604.068.783 1.183 2.02.152.752-.186.47-1.284.796-.398.514-.144.653-.997 1.038-1.55.086-.462-.061-.597.535-.304.56-.16.89-.94 1.748-1.061.256-.828.926.118 1.35.428 2.13-.05.576-1.552.967-2.343 2.527.093 1.043 1.175 1.614.327 1.27-.18 3.84-.162 1.187-.47 1.374-.002.473.139.338.992.219 3.017 2.494.586.81.084.502-1.675 2.963-.428.487-1.48.725-1.309.023-.762.34-.25.609-.076.884.694 3.279.005.56-.326 4.4-.341.972-.532.83-4.169 3.736-2.938 1.988-1.858 1.5-1.294 1.909-.836 1.81-.17 1.843-.474.455-1.906.477-1.009-.104-.307.427-.333.684-.22 1.676.511 1.452.644 1.121.704 1.763-2.167 1.163-1.375.098-1.062.36-.54.808-.906 3.015.17 1.039 1.378 3.507.238 4.582-.326 1.383-.852 1.567-.588 1.679-.088.719.66 2.187.682 1.373.27 1.798-.44 1.444-1.75 1.626-.704 2.536-.696 1.334-.438.619-2.09 1.636-.361.675-.058.91.266 4.56-.128.13-.695.7-.975.662-1.694.507-.478.326-.596.876-.571 1.576-.465.828-2.681 3.98-3.68 2.18-5.711 3.745-2.076.023-1.443 2.946-1.126 1.01-1.47 1.782-.633 1.292-1.56 2.463-.795.971-1.437 1.023-.934 1.598-.717 2.884-.173 5.268.505.793.386 1.266-.083 1.669-.262 1.886-.426 1.235-1.502 2.834-.61.534-.333.95-.294 2.798.367 1.182-.056 1.554-.345.685-2.175.952-1.459.891-.516.505-.158.38.062.749.637.688.04.265-.51 1.472-1.015.803-.597 2.417-.092 1.963.625 1.74.96.79.39.643.182 1.724-.25.779-.331.253-.827.352-5.242 4.859-4.194 1.714-2.757 1.77-1.886 2.23-.936 4.13-.044.692.497 3.128.272 5.822-.868 2.366-1.726 2.883-.48.42-1.06-.053-.513 1.464.044 1.377-.81 2.962.062 1.081.63 1.146 2.04 1.717 1.448 1.504 1.183 2.844.164.73-.013 1.29-.371 3.504-.361 1.7-.46.753-2.109 2.26-.29.589-.034.95.65 5.749-.185.798-.834 1.931-.49 2.547-.061 3.143-1.192 6.539-.04 1.766-1.071 7.926-.432.81-2.375 2.375-.664 1.703-.174 1.53.286 4.42.127.673.4.635 2.858 1.916 1.061.167 2.5-.087.626.387-.243.808-1.345 1.907-1.169 1.183-.508.753-2.413 4.743-.392 1.133.05.532.459 1.129 1.879 3.024 1.493 1.371.554 1.015.107.674-1.858 4.001-1.828 8.536-2.281 4.802-1.843 3.308-4.123 2.081-.348.43-.694 1.895-.059 3.606.703 2.46.745 1.396.164.636-.033.179-.199 1.069-.958 2.154-.851 2.59-.013 1.58.608 2.595.277 2.606-.377.715-3.417 3.573.262 1.38 1.737 2.885.109 1.037-.452.735-2.314 2.445.213.809-.056 3.647.176 2.606-.073.695-.3.63-1.132 1.024-.181.432.079.805 1.502 3.174 1.122.719 1.243-.082.703.312.305.341.092 1.495-.046.305-.597.135-.055.4.602 1.074 1.536 1.754.908 1.549.105 2.323-.14.6-.517 1.135-1.74 1.58-.555 1.05-.185 1.162 1.178 2.49 1.239 3.424-.033 1.286-.263.754-1.112 1.958-1.613 2.378-2.881 3.29-2.762 2.545-.812 1.118-.262.868.167 1.438.287.704 1.117 1.368.613 1.474-.191 1.965-.624 3.1.186 1.237 1.046 2.57.601.874 1.238.643 2.554 2.143.25.667.023 1.134-.367.764-1.134 1.359-.94.25-1.568-.297-.917.514-.907 1.312-.536 1.404-.183 1.678.405 1.438.744.856-.007.476-1.323 1.855-2.383 2.689-.883.128-.773-.77-.752-.159-1.573.922-1.742 1.732-3.547.776-1.12.69-3.21.426-4.193 3.442-.587 1.174-.131.935.2.543.677.867.59.16.371.334.344.905.25 1.354.09 1.745-.222 2.977.883 4.206-.054 1.22-.256.507-1.196.69-.313.477-.414 1.843.046 3.845-.398.783-1.375 1.76-1.043 1.042-1.767.938-1.691.634-.247.277-.781 3.984.09 1.824-.327 1.716.031.291.3.217.281 2.377-.917 2.932 1.175 2.633 1.497 1.954.356 1.851-.005 2.082.406 3.618 1.041 6.453.98 1.523 6.527 5.908.774.871 1.26 1.854.89 1.75.253 1.267-.097.951-.545.582-1.434.75-.578 1.158.203 1.136.915.886.686.028.884-.28 2.234-1.362.44-.585.139-1.223.255-.393.8-.156 1.295.34 1.033 1.285.423 1.001.469.6 1.698 1.006.537.782.52 1.479.382 2.913.515 2.01 1.617 1.96 2.108 3.337.778 1.717-.006.937-17.883-.616-89.77-3.386-37.188-1.218-28.435-.988-74.28-2.668-3.517-.072-4.187-23.408 1.441-2.54.82-2.424-.984-2.633.58-5.82.334-.357 1.72.665 1.179-26.642.612-17.984.032-.885.036-.488 1.808-38.462 1.56-25.114 2.697-55.632.808-12.206.85-23.042.613-16.643.116-3.648.078-2.822.031-.295 1.708-41.296.601-18.46.12-1.64-.272-.155-.003-1.632.276-1.08 1.048-.796.451-.697.164-1.213-.048-1.092-.137.019-1.336-2.89-.364-.402-.695-.263-.052-2.904.607-.886-.06-.532-1.178-1.255-1.776-3.38-1.626-1.65-1.573-1.299-3.099-.976-.363-.488-.093-.902-1.078-.714-2.595.283-.324-.192-.211-.527.282-.934.709-.828-.073-.247-1.359-.937 1.131-2.158.139-.539.2-1.78.013-1.822-.44-1.105-1.262-2.016-.677-.33-.472-5.629-.136-.559-.465-.565-.629-.406-.437.213-.894 1.39-.659-.21-1.414-1.158-1.897-.137-1.152.698-4.345-.119-1.651 1.456-3.28-1.101-.158.191-1.943.456-.48-.082-.514-.458-.899.08-.189.718.77 1.271-.023.256-1.412 1.813-.455.857 1.063 2.744-.034.483-.301.642-1.313 1.49-1.727 1.172-.06 4.998.233 2.299-.26 1.002-.253.518-2.366 2.29-1.155.744h-.709l-.647-.351-1.59-.972-3.37-2.764-1.004-1.574-1.88-.642-.586-.432-.677-1.271-.077-.52.284-.927 1.655-3.396 1.034-1.748-.142-1.449-.472-1.864.04-.566 1.813-3.388.054-.456-.186-.682-2.814-4.643-.19-.88.671-2.501.384-.697.512-.567 1.445-.894 1.001-1.88.323-2.384 2.008-4.627.103-1.276 1.144-3.64.215-1.388-.51-1.53.162-.762.813-1.188 1.131-.615.856-.902.55-.975.603-1.766 1.813-3.23.889-1.117 1.58-1.493 2.18-3.128.226-1.43-.205-2.813.167-2.773.179-.828 2.074-3.663 2.557-4.518 1.196-2.592.042-.611-1.22-1.996-.226-.726-.56-3.099-1.456-1.79-1.683-1.32-2.414-2.276-.25-.748-.282-2.252-.288-.996-.015-.035-.427-1.03-.72-.986-2.081-1.71-.635-1.419-.07-.587.803-2.957.556-1.25 1.974-2.007 1.584-.825.886-1.335.445-1.123-.06-.385-.374-.595-2.135-2.073-.303-.987.186-1.747.676-2.231 1.597-3.916.038-.58-.65-1.965-2.082-4.437-3.625-5.051-.396-1.091-1.03-4.721-1.958-5.337-.235-1.263 1.002-6.554-.282-7.655-1.27-3.44-.38-1.818.024-1.132.424-1.434 1.702-10.427.02-1.96-.488-2.108-.87-2.34-1.051-1.08-1.708-1.048-.875-.324-1.417-2.065-.82-.44-1.792-1.61z"/></svg>