<svg height="1000" width="1000"><path class="americon" d="M310.102 368.954l.395-.124.706.077.105.406.115.33.452.253.166.383.608.138.084.529.613.77-.384.2-1.254-.534-.44-.255-.576-.335-.942-1.56zm-23.73 83.266l1.61.257 1.403.689-.109.31-.61.44-.03.56.125.476-.132.28-.482.09-.9-.439-.308-.358.006-.505-.754-1.4zm-3.828 33.253l.305-1.349.754-.351.237-1.531-.505-1.023-.766-1.692.165-1.115.356-.616.162-.543.107-.36.93-1.175.06-.933.18-.711.09-4.548.305-.961.378-1.187.83-1.187.605-1.392.45-.293 1.415-.92.57-2.43.353-2.509.961.215 1.33.803.565.444-.092.212-.684.693-.062.19-.192.594.157.27-.154.958.86 1.053.596.533.26.914 1.349 1.25-.776 1.36-.476.902.345.718.052.11.066 1.233-.18.744.367 1.35.735 1.2-.1.382-.623.279-.404.37-.12.11.261.79-.05.924 1.208.988 3.867.65 2.493 1.958.018.013-.166.31-.44.272-1.527.401-1.133.173-.503.508-1.66.602-.423.668-1.015.293-.463.274-.552.328-.898 1.07.028.452-.476.319-.342 1.017-.41 1.03-.428.122-1.458-.422-.705-.46-.145-.723.37-1.42.503-1.186.504-.464.069-.56.016-.13.304-.447.836.634.435-.127 1.37-2.128.812-.256.326-.303-.47-.476-.203-.695.007-1.72-.37-.07-.645.405-.05-.008-.678-.113-.734.152-.503.411-.256.707.141.808.534-.468.985-.278.382.502.438.56-.816 1.117-.588-.366-1.014-.469-.998-.003-.626.486-.411.397-.333.32-.53 2.647-.026 1.404-.295.965-.296 2.938.001.49-.263.376-1.418-.13-.418-.38-1.245-.155-.516-.787-.518-1.43zm5.539-178.022l.223-.18.444-.084.415.072.355.209.157.257-.154.384-.32.079-.485-.193-.198-.035-.411-.073-.212-.287zm-.564-28.831l.355-.262.456.414.094.221.14.327-.167.44-.396.218-.26-.301-.144-.169-.117-.387zm-.791-1.62l.194-.32.373.131.045.1.078.172.094.266-.06.174-.62-.275zm-1.267-.399l.207-.011.15.25.043.158.03.109-.438-.156zm-1.985 24.998l.158-.467.296-.434.254-.074.005.005.182.197.484-.26.39.016.478-.12.014.335-.098.386-.203.112-.874.281-.597.138-.45-.106zm.106-45.095l.746-.64.092-.92.329.098.633 2.205-.297.491-.44-.101.241-.494-.376-.266-.882-.12zm-2.727 6.637l.154-.203.295-.235.444.38.597-.037.31.48.023.653-.196.23-.19.1-.13.07-.385-.12-.206-.205-.408-.28-.344-.457zm-.316 5.8l.285-.442.215.045.115.024.072.28-.483.286-.099-.094zm-13.337 253.277l.284-1.046.398-1.522.141-.15.462-.488.028.096.028.096.045.158.09.638.015.757-.01.033-.21.743-.604.597-.17.424-.336.227-.125-.437zm10.182-276.689l1.05.651.455-.313.633.053.51.38.375.292.468.046.42-.149-.095-.39.273-.597.145-.295.328.204.268 1.052.206.88.043.606-.446.503-.765.467-.745-.03-.889-.561-1.21-1.514-.428-.321zm-1.546 28.723l.366-.874.15-.191.258-.326.073-.092.218-.574-.119-.702-.567-.794.003-.492.002-.453.128-.327-.047-.48-.073-.755.07-.158.313-.712.447-.06.317.104.028.009.607.733.131 1.002.693 1.169.016.013.98.802.51.575.433.49.135.153.948.55.068.04.532.667.49.149 1.024.411.569.617.005.006.135.616.06.204.26.889-.363.758.366.229.133.346-.037.35-.34-.063-.873-.57-.059-.025-.26-.113-.347-.15-.08-.433-1.133-.159-2.376 1.256-1.296.34-.579.153-.546.006-1.01-.555-.192-.29-.115-.174-.22-1.178zm-11.27 225.49l.062-.298.324-.188.387.019.8.461.907.034.14.141.7.706.055.056.218.161.604.447.043.032.414-.172.356.111.074 1.246.652.375.997.996.663.663.36.705.247.487.214.156.13.095 1.189.87-.085.395-.051.238-.128 1.031-.986.882-.545.884-.698-.042-.693-.614-.497-.8-.405-.688-.322-1.027-.553-.46-.26-.39-.093-.14-.18-.609-.752-.606-.24-.498-.37-.765-1.225-1.681-.03-.034-.836-.916-.338-.37-.104-.113-.191-.565zm6.48-238.408l.155-.34.75-.29.758-.46.332-.108.368-.119.62-.115.143.136.13.777.579.53.389.294.032.526-.016.539.507.374.087.435-1.076.273-.137-.044-.962-.312-.125-.04-.88-.506-.184-.105-.637-.627-.042-.04-.28-.117-.42.094-.01-.082zm-2.715 27.018l.117-.146.397.072.283-.127.758-.163.129.255.122.395.267.261-.014.397-.133.46-.439.325-.019.014-.697-.278-.012-.31-.155-.057-.327-.085-.26-.56zm-.027-1.956l.243-.151.22-.482.115-.348h.446l.523.096.645-.14.687-.471.335-.042.077.17-.157.438-.32.349.21.259-.019.471-.266.379.243.187-.169.179-.192.203-.48-.233-1.056-.016-.708-.364-.332-.103zm.89-44.61l.465-1.559.437-1.044-.017-.362.56.217.869.735.846 1.13.175.341.715.166-.343.67.699.725.243.554.134.765-.123.542.412.543 1.049.87-.12.357.159.462.21 1.181.632.082.232.424.658.11.789.538 1.103 1.197.376.688.496.384.266.406.117.547.592.539.08.472.398 1.704.093.69.235.734.109 1.082-.007.689-.939-.94-.484-.639-1.125-.355-.478-.197-1.449-1.805-.107-.561-.576-.29-.337-.728-.88-.944-.227-.5-.657-.45-.526-1.269v-.522l-.522-.842-.175-.45-.173-1.213-.5-1.188-.929-.421.084-.383-.324-.215-.832-.02-.487.098-.61-.126.085-.636-.317-.222-.084-.31.243-.807zM257.192 511.45l.89-.598.412-1.02.875-.942.335-.446.363-1.08.255-.025 1.294.054.8-.178.64.239.424.918 1.014.532-.2 1.345.476.337.317-.016-.033-.577.36-.32 1.294.705.502 1.174.257.754-.102.739-.675.609-1.18.621-2.493.329-1.197-.31-.6-.111-.467-.567-.61-.342-1.611-.271-.808-.479-.555-.544zm8.79-243.961l.818-.279.517-.499-.13-.566.137-.488.588-.202-.05-.894.067-.212.621-.271.2-.413.433-.236.406-.077.177.396.561.494.154.311.155.256.38.21.018.03.501.796-.155.381.25.406.105.17-.411.115-.204.24.389.477.853 1.043.836.508.73 1.373.165.03.155.027.003.522v.06l-.223.322-.244-.009-.104-.004-.051-.001-.383-.127-.015.013-.82.729-.608.585-.369.207.031.335.379-.18.403.322.063.008.296.035-.006.805-.133.521-.208.18-.008.006-.215.185-.412-.157-.44.048-.256-.004-.386-.005-.878.407-1.228.14-.088.01-.591-.177.13-1.197-.25-.449.083-.534.305-1.053.298-.487-.423-.49-.407-.21-.2.157-.29-.178-.642-.627-.23-.592-.11-.285.005-.395.24-.363v-.591zm-10.99 253.21l.517-.297.649-.408.644-.232-.295-.532.017-.59.793-1.664.431-.248.039-.022.306-.177.876-1.075.51-.336 1.336-.232.353.847.486.23.054.024.541.255.218.103.17.23.717.974-.078 1.217-.007.482-.039 2.64v.078l-.473.24-.054.604.156.402.001.003.06.155-1.076.33-.35-.482-.128-.175-.073-.009-.702-.082-.09.636-.23.794.448.915-.058.193-.006.018-.189.627-.947.323-.861-.556-.27-.173-1.16-1.736-.896-.673-.39-.97-.384-.349-.458-.417-.28-.255zm8.884-274.946l.11-.032.11.391.023.323.072.414.03.145-.011.146-.05.243.051.216.115.134.234.105.244.174.01.157-.08.147-.133.116-.236-.259-.072-.128-.178-.051-.062-.17.01-.244-.068-.305-.124-.359.048-.595-.035-.118-.02-.337zm-4.046 84.593l.472-.899.498-.969.68-2.316.163-.373.477-1.093.53-.758 1.187-1.695.842-.862.247-.584.175-.413.246-1.503.625-1.836.021-.018.724-.62.515-.442.516-.632.126-.155.566-1.115.324-1.002.647-.365.577-.932.41-1.075.531-.41 1.145-1.887.697-1.742.245-.898.237-.869.225-4.703.374-.168.467.158.76-.164.753-.433.031.008 1.107.259.474.235.426-.206.12.507.206.177.504-.539.376-.601.905-.744.893.328.584.78.102 1.492.557.415.636-.009-.044.371-.086.72-.051.607.21.484-.004.5.402.928-.03.566-1.074 1.478-.687.711-.012.007-.36.202.033.258.01.078.355.21.018.005 1.012.257 2.266.988 1.622 1.138.753 1.108 1.011.706.534.662.41.642.563.383.727.492 1.034 1.873.15 1.714-.147.471-.6.705-1.073.886-.397.481-.987.503-2.45.069-.462.236-.01.004-.234.12-.16.387.099.649-.079.223-.234-.195-.059-.718.374-.833-1.853-2.343-1.06-.587-1.81-.128-2.036.58-.217.062-1.01.872.08.565.582.528-.1.527-.427.347-.158 1.14.232.36-.24.1-.637.269-.813-.648-.187-.313-.415-.69-.003-.616 1.006.013.523-.482-.127-.469-.019-.068-.398-.52-.807-.088-.09.088-.043.043-.275.271-.137.059-.05.021-1.008.43-.777.952-.018.022-.018.108-.093.559.188.367.148.29.868.93-.134 1.01-.004 1.391-.72 1.202-1.267.636-.956.308-.418-.232-.13-.071-.533.034-.431.256-1.658-.014-1.404.283-1.48.581-.494.513-.03.585.274.46.428.186-.085.669.307.685.298.237.68-.168.525.162.654-.404.59-.196.128-.042.806-.704.554-.036.075-.004 1.074.344.527-.446.03-.002.644-.04.359.062.667.117.722-.317.641-.281.277.71.914.254.366.362.398-.15.354-.3.344.362.963 1.468.483.12.691.663.168.339-.145.814.565.996.893 1.065.512.814.252.645.029 1.432.263.69.148.49-.031 1.43.323.507.362.229.21.192.102.093.46.979.074.795-.002 2.002.39.71.304.801.004.53.228.641-.314.83-1.422 1.362-.049.524.502 1.197.318.538.074.126.976 2.595.388.213.58.08-.078.517.124.695-.028 1.175-.225.898-.253.63.435.228.713.439.178 1.412-.027.978-.014.512-.003.112-.035 1.252-.272.638-.235.257-.1.11-.002.063-.018.4.078.058.19.145.145.109.256-.004.28-.003.433.036.184.016.455-.355.205-.16.593-.563.367-1.186.26-.84.08-.256.395-.745-.182-.4-.222-.77.162-.584-.424-.691-.003-.666.287-.325-.062-.38-.355-.413.477-.566.395-1.497-.65-1.049-.627-1.565-.272-1.205 1.44-.122.539.142.409.254 1.077.032.513-.25.058.505.393.555.398.804.298.393.3.396.663.875.446.116.814 1.544 1.465 2.565.372.479.905.51.69.735.68.31.61.014.484.01.488.352.617.165.36.732.329.043.97.171.58.334.523-.011.306.096.49-.114.015.668.206.695.03.1.128 1.103-.124 1.77.094.652-.01 1.07.252.9.569.735.481.622.645.621.06.542.074.498.247 1.653.012 1.872-.144.823-.027.156-.77 1.517-.132.92-.142.303-.013.026-.795.414-.311.434-1.119 1.504.074 1.193-.034 1.193-.208.757-.392.326-1.167-.339-.78-1.217.241-.287.095-.557.212-.457-.25-.404-.382-.088-.56.034-.168.079-.091.157-.132.06-.142.464-.042.194-.226.301-.342.328-.816.13-1.379-.513.06-.517-1.676-2.29.01-1.057.154-.548.321-.48.111-.165.072-.627.038-.93-.627-2.027-.978-1.544-.728-.775-.786-1.287-.019-.53-.005-.15-.394-.306-.72-.268-1.032-.026-1.643.406-1.646.989-.394 1.09-.42.324-3.074.905-.093-.584-.24-.244-.227-.107-.015-.227.119-.527.028-.123 1.003-1.492.226-1.234-.137-.609-.526-.707-1.428-1.159-2.313-.716-.235-.073-.7-1.193-.64-.56-.312-1.037-.468-.495-.758-.48.82-.84.484-.497.434-1.464-.09-1.619-.28-.392-.395-.555-.546-.502-.016-.526-.722-.544-.181-.484.143-1.18.761-1.483.367-1.51.855-2.439-.275-4.37-.296-1.593-.465-1.378-.228-.486-.114-.243-.538-.58-.785-.516-1.035-.305-1.516-.196-1.182.221-1.113.387-.718.458-.673.55-.323-.202-.367-1.172-.074-1.267-.249-1.048-.71-1.242-.488-.521-.407-.188-.444-.755-.74-.758-.509-.233-2.212-1.013-.611-1.283-.444-.475-2.125-1.099-.755-1.633zm2.76-83.064l.267-.926.064.142.025.216.043.083-.046.247-.068.241.105.126-.065.16-.063.108-.019.034-.171.08-.133-.158zm-6.024 18.754l.422-.289.28-.708.218-.78 1.133.655.07.246-.056.36-.998.644-.53.06-.563.356zm-1.23 3.187l.377-.344.114-.366-.188-.47.57-.746.268-.02.414.046.27-.397.655-.477 2.244 1.646 1.372 1.922.302.707.535.467.195.68-.325.606-.098.58-.698.576-.267.417-.887.678-.013.195-.563.537-.333.652-.93.32-.607.165-.413-.348-.115-.533-.414-.684-.525-1.179.353-.605.211-.38-.4-.35-.402.287-.403-.393-.188-1.298zm-11.625 232.604l.181-.405-.01-.078-.09-.635.07-.242.121-.421.56-.292.41-.521.402.356.414.102.013.004-.38.788-.475.66-.047.065-.156.508-.113.371-.489.25-.44-.445zm7.92-187.72l.077-.265.095-.31.198-.132.092-.021.078.096.01.013.132.123.115.078.17.053-.064.066-.18.083-.138.12-.034.096-.063.037-.104.076-.135-.05-.205.028zm3.19-75.782l.464-.35.141-.025.124-.021.93.206 1.664.882-.148.152-.051-.003-.683-.04-.563.07-.09-.015-.703-.114-1.018-.436-.01-.05zm-8.934-1.857l.439-.075.189-.032.218-1.79.569-.463.135-.11.758.06.733.058.297.024 2.466 1.243-.175-.004-.71-.018-1.662-.397-.793-.146-.209-.258-.278.042-.013.303-.21.35.228.451.865.398.94-.04 1.63 1.498-.736.088.075.427-.196.036-.457.086-.337-.052-.049-.007-.06.026-.471.203-.018-.01-.692-.376-.19-.328-.558-.001-.786-.466-.024-.029-.02-.022-.238-.277-.512-.143zm-4.677 48.832l.18-.352-.059-.531.576-2.669.538-.977.357-.511.128-1.256.21-.618.584-.64.82-.222.497-.023-.126-.894-.174-.333.073-.477-.337-1.126.293-2.069.169-.13.734.338.779-.047.59-.778.319-.29.9-.265-.058-1.168.228-.739.67-.69.156.21.025.16.04.25-.164.547.066.497-.085.529.15.433-.138.539.512.328.753-.077.048-.442-.146-.45.14-.66.382-.232.346.098.116.447-.078.554.077.5-.193.216-.451.174-.447.674-.063.774.425.436.894-.127.463.188.193.647.464.187.427-.23.5-.645.324.543-.164.242-.188.463.01.39-.278.015-.171-.508-.705.247-.598.334-.312 1.333-.69 2.4-.846.906-.054.581.275.68.538.331.122.449.282.425.2.597.292.319.49.217-.13.41.039.392.388-.003-.03.714-.16.432-.286.188.116.533-.586 1.281-.25.601.234.373.668-.268.54-.012.427-.189-.056.623-.588.697-.339.736.206.371.602-.073.345-.384.525-.09.683-1.086.59-.638-.33-.68-.458-.947.12-.878-.002-1.836-.286-.743-.336-2.444.248-1.526.276-.865.606-.235.416-.874 1.493-.208 1.464.175 1.226-.15.54.2.193.33 1.022.902.335-.03.556 1.055.005.439-.083.31-.72-.013-1-.47-.632.36-.361.468-.005.591-.485.895-.347.4-2.02 1.065-.175.57.133.404-.24.281-.118.58.243.4.374.454-.001.34-.183.224-.388.947-.206.636.044.498.332.463.412.423.82.052.28.292.075.079.1.372.06.224-.347.481-.561.115-.05.415-.154.41.15.397-.415.566-.38.43.189.12.424-.15.476-.062.385-.274.105.13-.343.398.126.7-.623-.081-.211.495-.433.459-.897.011-.339-.02-.5-.333.043-.545-.557-.263-.475-.312-.281-.57-.512.228.46.927-.374.063-.28-.308-.41-.235-.578-.166-.845-.4-.255.713.685.254.818.398.06.17-.573.385-2.241.213-1.336-.167-1.284-.476.228-.41.48-.649.117-.106.69.143.355.155.324-.403-.002-.557-.821-.316-.557-.446.08-.207.574-.261.782-.048.375.323-.17.66.406.27.313-.154-.011-.362.393-.066.475-.675-.228-.483-.49-.15-.931-.443-1.63-.088-.76-.14-.853-.086-.086.664.034.474-.521-.163-2.054.527-.482-1.027.64-.06.665.086.441-1.12-.032-.503-.053-.67-.423-.493-.567-.36-.459.285-.478.117-.08.557-1.116-.585.174-.496.095-.493-.316-.37.109-.557.348-.318-.108-.535-.31-.403zm-2.646 62.607l1.735-1.777 1.469.893.765.263.16.337-1.114-.22-.991.3-.843.558-1.072.09-.752.472zm2.232-117.526l.033-.079 1.576.611.886.217.682-.426.393.586-.311.356-.338.156-.293.135-.707-.117-.315-.098-.882-.273-.446-.138-.308-.169.114-.258-.135-.384zm-7.012 34.743l.208-.07.333-.087.145.022.097.308.112.352.287.309.415.02.42-.214 1.472-.602.906-.377.637.08.403.268.244-.495.278-.031.152.335-.13.41.604.123.403.285.74.102 1.152.391.103.599-.333.122-.075.44.615.532-.046.354.602.167.32-.318-.342-.934.365-.175.223-.553.464.086.296-.402.364.032.44.56 1.178.33.212.369-.015.334-.145.489-1.803 1.918-.321.346-.291.992-.187.345-.328-.033-.12-.844.328-.737-.69-.088-.813.185.225.595-.1.333-.416-.026-.158.409.279.608-.326.267-.067.396-.619.165-.649-.363-.604-.139-.814.013-.192-1.06-.603.444-.562.07-.33-.317.087-.346-.468-.02-.299-.288-.071-.842.383-.086.258.117.377.278.118.411.39-.037.252-.043-.564-.998-.328-.681-.463.303-.021-.631-.485-.513-.301-.468-.787-.952-1.734.14-.257-.432.409-.255-.165-.612-.107-.216-.172-.345zm.124-2.425l.068-.209-.027-.205.102-.141.15.058.058.163-.055.253-.068.194-.027.094-.069.07-.129-.043-.118-.13zm-1.063.7l.13.029.241-.003.064.185.164.242.198-.02-.08.15-.056.092.098.092h.146l-.035.13-.076.062-.536.047-.167-.015-.022-.14.108-.272.025-.218-.147-.131zm-.227-5.34l.86-.767.489-.762.51-.677.135-1.077.569-1.014.744-.569.733-.53.288-.476.519-.375.49-.42.381-.976 1.637-.99.984-.442.472-.543-.182-.626.76-.08.612-.451.28-.717.541-.724.063-.58-.484-.734-.39-.27-.209-.245.686.1.79.414.897-.25.484.111 1.179-.454 1.06-.075.207.002.854.007.716.074.525.253.32.186.12.017.41.06.368-.134.818.604.412.684.931.177 1.19.474 1.226.518 1.156.808.558.6.609.215.21.46 1.495 1.135.037.5.704.192.796.573 1.662.921 3.551 1.7.04.338-.434.12-.683.364-.464.146-.048 1.229-.544.452-.544.42-.631.443-.791.338-.354.031-.562.575-.209.524-.488.212-.732.318-.551.805-.467.499-.631.298-.085.668.545.691.281.847.426.869-.177.244-.594-.234-.637-.59-.411-.009-.263-.006-.48.818-.894.128-.483-.357.171-.926.252-.848-.2-.733-.654-.28-1.362-.859-.45-1.1-.905-2.034-.537-.993-.4-.322-.408.452-.32-.292-.242-.758-.386-.654-.129-1.22.08-2.572.189-.517-.15-.764.18-.506-.265-.87-.61-.552-.477-.305-.57.202.098.447-.066.249-.459-.178-.52-.202-.645.053-.59.195-.276.595.45.534-.063.673.351.79.205.37.257.426-.085.342-.446.38.138.615-.01.802.158.782.515.401.082.484.878.44 1.695 1.63.102.39.08.877.19.7.16.756.843 1.198.34.212.35.49-.12 1.421-.323.467-.642.388-.162.773-1.112.444-.42.536-.544.034-.233-.458h-.638l-.515-.246-.518-.19-.674.19-.447.064-.572-.22-.751.13-.876-.317-.334-.104.035-.63-.328-.099-.463.007-.452.007-.063-.07-.134-.148-.155-.547-.267-.234-.042-.583.303-.264-.463-1.941.297-.422.119-.77-.542-.415-.265-.703-.353.203-.418.282-.283-.238-.574-.96-.42-.49-.165-.617-.434-.187-.146.44-.109.268-.455.256-.402.313.164.617.28-.042.425.298.031.504-.415.086.05.694.42.064.625.623.427.935.352.771-.09.986-.494.282-.218.516-.757-.396-.581-.027-.197.656.163.566-.84.261-.964-.129-.441-.317.014-.76 1.297-.442.712-.29-.181-.356-.02-.68-.787-1.036-.277-1.036-.47-.023-.138 1.016-1.022.647-.652.3-.687-.303-.149-1.786zm-.7 6.56l.18-.109.299.007.107.05-.138.139-.21.106-.216.107-.176-.155zm.45-24.667l.07-.03.1-.032.189-.01.163.01.115.038.28-.024.023.088.003.085-.079.04-.114.042-.093.018h-.089l-.15-.034-.149-.007h-.097l-.055-.039-.056-.083zm-2.616 19.972l.333-.36.183-.11.166.081.086.248.384.03.209.148.263.315.171.865-.056.285-.25-.085-.336-.206-.27.17-.21.01-.296-.209-.128-.28-.002-.452-.258-.272zm-.9-14.456l1.597-.54 1.052-.865.714-1.427 1.26.208.45-.244.699-.556 1.157-.117.235.615-.284.284.07.788.392 1.32-.013.25-.442.173.085.53.341.375-.072.604-1.165 1.594-.816.589-.924.5-1.576.394-.086-.341.191-.178.75-1.147-.104-.491.065-.345-1.194-1.06-2.769-.764zm-2.446 9.084l.39-.188h.001l.405-.043.15.34-.18.295-.381.124-.389.027-.224-.066zm2.42-62.175l6.347.277.128.565.003.013.053.233.485 1.212.125.596.178.3.116.32-.008.197-.064.134-.027.413.084.093.244.131.077.229-.068.142-.54.384-.183.026-.377-.125-.308-.153-.137-.112-.632-.271-.364-.004-1.482.26-.444-.03-.184.04-.19.04-.015.002-.922.12-.997.33-.227.052-.18-.024-.043-.16.018-.348.085-.313.062-.643.022-.425-.071-.759-.169-.58-.107-.24-.05-.46.012-.25-.063-.304.006-.203zm-8.563 61.214l.31-.123.51.33.36.038.18.238.316.32-.904-.184-.512-.274-.271-.125zm-1.668 1.798l.224-.044.207.287.07.253-.522-.081zm-1.294-1.486l.799.04.715.281 1.104.706.655-.014.832.162 1.282.79.073.366.897.35.294.438-.378.139-.376-.24-.804.024-.91-.416-1.322-.604-.962-.775-1.608-.83-.343-.177zm-5.098 9.198l.561-.881.432-1.224.474-.26.599-.502.594-.751.328-.902.62.38.765.204.647.365.604.114.63-.412.051-.468-.154-.23.805-.277.934.392-.438.45.578.084.57-.153.216-.057.56-.013.45.312.405-.34.6.196.149-.208.658-.01.523.654-.05.57.403.707-.41 1.121-.2.683.088.448 1.754.973.729.214.457.22 1 1.18.533.546.998 1.256.309 1.051 1.46 1.133 1.339.242.244.044.656.118.567.465-.004.533.352.224.344.745-.171.833.023.515.004.081.013.294.447.391.373.48.294.237.635.086.892-.175.374.4 1.069-.282.122.586-.044.942-.362.375-.112.863-1.252.962-.483-.357-.631.27-.643-.358-.2-.481-.623-.308-.934.344-.23-.01-.185-.01-.246.489.167.336-.027.282-.32.235.03.53.403.296-.072.448-.484.137-.099.329.32.266.056.564-.342.2.227.483.962 1.539.162.545-.263.85.345.934 2.147 1.564.674-.04.577.167.335-.04.23-.211.105-.73.212-.096.602.284.402.604.124.32-.057.232-.317.354.167.592-.117.718-.191.181-.522-.14-.878-.532-3.734-.679-.545.048-.674-.359-.663.132-.557-.337-.494-.236-.556.328-.402-.703-.761-.475-.446-.423-.31-.23.012-.362-.7-.208-.6-.38-.173-.744-.114-.53-.225-.251-.195-.217-.402.258-.385-.102-.481-.385-.322.166-.774.058-.372-.265-.147-.338-.546-.667-.59-.368-.533-.222-.831-.069-.56-.732-.33-.369-.68-.115-.292-.355-.008-.356-.292-.455-.337-.145-.419-.762.12-.564-.116-.013-.531-.058-.273-.56.135-.426-.135-.263-.38-.138-.153-.304.06-.328-.624-1.039-.059-.913.26-.665.185-.636-.119-.616.098-.36-.257-.338-.38-.016-.26-.299.136-.273-.408-.367-.437-1.28-.028-.672.111-.408.487-.808.16-.436-.354-.42-.69-.881-.364-.463-1.235-.257-.379.015-.384-.237zm-2.995-15.923l-.127-.723 1.079-.043.948.121.486-.101 1.024.242.552.371.785.248.835.122.545.2 1.21.676.41.65 1.149.806 1.051.735.611.87 1.795 1.431-.37.164-.586-.272-2.506-1.74-1.068.41-1.442-.01-.108.54-.341.464-.714-.63-1.276-.38-2.178-1.544-.02-.373-.411-.463-.632-.155-.26-.408.168-.25-.824-.777zm-94.766 299.783l.91-.145 1.482.415.608.474.587.357.119.414-.435.437-.462-.03-.972-.7-.335-.196-.606-.12-.534-.45-.539-.173zM50.238 416.056l.768-.555.56-.363.058.481-.162.444-.373.413-.628.024-.406-.102zm-.485-22.231l.07-.04.126-.023.064.025.083.106.09.11.086.083.05.046-.008.075-.191-.037-.092-.08-.051-.027-.097.019-.01-.041v-.035l-.084-.021-.04-.065zM46.769 289.3l.206.18.108.096.44.816.206.574-.161-.012-.105-.008-.178-.014-.206.11-.114.061-.173-.656.186-.237-.162-.705zm-12.44 83.573l.404.043.238.35.094.137-.073.56-.66-.246-.02-.217-.039-.408zm-5.923-45.775l.184-.812.845-.367.498-.627.159-.199.097-.122.586-.481.53-.004.122-.08.031-.021.454-.301.122-.08 1.142-2.423.807-2.42.16-1.25-.183-.754-.7-.783.033-.706-.57-1.18-.032-.063-.028-.066-.06-.14.768-.65.058-.586 1.015-.463.863-.803.084-.25.502-1.496.14-1.677.005-.05.022-.264.008-.1-.285-1.03-.04-.144-.068-.245-.116-.42.273-.611.076-.256.092-.305.049-.083.292-.5.163.158.334.322.003.004.842-.148.435-.492.603-1.923-.09-1.746.55-.798.191-1.052-.106-.175-.893-1.472-.16-.265-.616-.257-.101-.043-.573.179-.32.506-.485-.096-.74-.87-.155-.184-.007-.96-.256-.168-.019-.013-.512-.337-.405-.431.168-.828-.605-1.052-.14-.242-1.34-.877-.135-.089.022-.625-.399-.307-.043-.88.01-.011.256-.266.352-.366.15-.156 1.09-.579 1.173.747.328-.15.522-.13.576.132.387-.43.583.16.543-.009.66-.224.836.581.61.068.515-.409.162.02.556.071.062.019.051.015.953.284.946.282-.217.203-.248.233.037.072.503.99.062.123.241.473.18.77.05.053.75.792 1.319.298.904-.386.064-.027.181-.078.18-.076.402-.179.629-.279.018-.008.158.154.31.306.276-.1.017.008.68.33.136.066.411.694.888-.208.032-.008.04-.01.891 1.21.022.03.102.139.793 1.075.045.061.068.093.059.08.82.717 1.55.272.483.334.735.508.444.308 1.066.998.665.252.489.857.535.007.117.09.876.672.143.11.935.802 1.098.941.166.066.6.236.175.132.295.222.203.658.901 1.047.175.033.75.144.04.027 1.515 1.006.58.651.174.196.133.154 1.113 1.29.178.113.798.505.695.227 1.201-.016.548-.158.423-.122.096-.028.057-.016.326.064.87.663.626.643.124.245.146.287.373.333.51.145.363.103.77.29.995.373.23.086 1.223.502.487.2-.025.495-.23.263.336.587.211.262 1.048.363.274-.036.285.07.309.505.632.18.166-.01.733-.04.749-.266.56-.372.358-.334.126-.394.054-.167.03-.092.859.466.554.042.732.775.5.238.542.123.03.258.056.043.455.351.705.381 1.404.76.055.021.704.275.879.65 1.024.76.922.476.502.335.918.613.613.409.943.506 1.163 1.278.498.208 1.036-.13.667.192 1.15.626-.414.973.327.493-.652.516-.01.088-.02.178-.073.67.554.225.408.166.696.283.237.097.35.4.698.358.675.348.384.197.507.474.209.195.323-.096.183.102.178.098.004.598.49.478.476.464.205.072 1.239.433.705.246.839-.201.063.171.124.333.798.327.367.151.903-.231.828.107.1.608 1.073.35.8.47.874.131 2.156-.055.687.122.29-.16.118-.066.709.397v.452l.546.226 2.257.41 1.635-.094.916.223.886-.201.757.117.917.385.154.313.44.43.918.152.046-.003 2.16-.147 1.042-.293.265-.402.343-.124 1.026.786.236.3.968.18 1.078-.118 2.347.208 2.277-.592 1.385-.265.152.045.851.25.392-.258.12-.428.497-.085.098-.017.38.294-.26.12.032.346.328.316.818.134 1.478-.74-.01-.02-.097-.221-.193-.438-.036-.082.782.19.025.007.175.056 1.8.577 1.522.292 1.53.739.34.164.493.238.052.025.088.05.803.462.104.06.281.31.354.39-.565.514.034.196.527.684.848.611 1.01.308.852-.147.66.413.556.025.028.001.404.215.133.031.05.012.736.17.43-.103.017-.005.427-.102 1.144-.7.568-.541.12-.454.052-.194.403-.101.06-.016.044-.01.49-.124 1.09-.278.8.404.364.184.693.512.143.197 1.168 1.607.064.088.228.141.55.342.962.278 1.717.01.48.003 1.814-.188.768-.21 1.364-.605.45-.088 1.414-.278 1.715.06 1.205.135.633.072.773.087.147.109.255.189-.138.219-.084.134-4.147-.534-1.153.526-1.24.07-.622.078.076.383.033.163.066.335.479.35.495.362.025.018.022.008.752.252.316.107.595.363.762.465.621.379.765.192.286.072.473.119.248-.176.263-.187.23.279.013.007.585.279.592.283 1.356-.016.32-.003.762.18 1.327-.189.274-.039.656-.227.201-.07.199.019.556.051.195.018.128.012.639.737.726.151.589-.005.67-.006.884-.007 1.566-.556 1.44-.512.165-.058.06.046.174.134.685.528 1.134.246.182.039 1.389-.088.334-.02.668.295.018-.006 1.123-.372 2.221-1.21.448-.243 2.785-2.437.39-.342 1.199-1.318 1.045-1.151 1.15-1.266.588-.406.971-.67.219-.152.62-.43 1.177.05 2.156-.756 1.796-.632.115.095.103.085-.11.272-1.169.39-1.716.672-.026.004-.81.104-.07.008-.822 1.321-.057.091-.423 1.645.02.014.525.355.68.46.152-.019.306-.035.327-.038.12.079.833.546.54.351.562 1.176 1.862 2.129.526.601.485.287.67.397 1.021.604.804 1.189.904 2.018.373.917.029.087.458 1.373.251 1.135.082.368.004.019.063-.015 2.58-.61.66-.362.86-.474 2.963-.82 3.95-.277.803.43 1.188.07 1.321.138.435.27-.479.486-.377.573-.69 2.143-.102.317-.218 1.31.085.272.03.097.923 1.169 3.779 1.787.883.417.763-.069-.26.641.378.975.477.021.524 2.364-.027.7.513.784-.564.538-.042 1.109-.8.797-.896.649-.171.515.432.471 2.521-.313 1.396-.977.278-.897.344-.428-.026-.898-.005-.145.448-.714.476-2.485.255-2.328-.775-.538-1.246-.45-.157-.117-.342-.254-.352-.396.017-.444-.496-.478-.073-.842-2.342-1.93-1.417-.205 1.31-2.054.115-.68-.069-1.098-.492-.876.022-.577 1.043-.65 3.442-2.684 1.282-1.636.546.392 1.353-.206.666-.102.566-.086 2.253-.596 1.017-.27 2.787.074.756-.226-.018.42-.597.376-.47 1.552.783 1.167.221.329.487 1.072-.627.357-2.314 1.316-.63.101-.334.295-.83.73-.71.626-.084.074.05.296-.147.325-.41-.03-.385.849.274.549.737.619.49.567.012.06.347 1.63 1.14 1.528 1.033.536-.176.188-.477.514-.004.107-.03.872.426.658.16.668.67.45.29.195.329.221.585 1.06 1.033-.14.613-.567.077-.071-.26-1.512-.58-1.07.307-.836.2-2.655-.212-.329-.734-.002-.103-.235 1.187-1.531.24-.919.5-.856 1.782-1.046 2.413-.878.678-.009.636.318-.556.851-.006.066-.134 1.636.672 2.333.02.365.167 2.895-.001.222-.01 2.076.558 1.153.94.804-.042.495-.095 1.136-.042.506-.04.478-2.08 1.492-.374-.036-.232-.248-.484-.519-.62-.65-2.031-1.43-.433-.02-.263-.013-.472.683.549 1.49.515 2.389v1.837l1.953 2.627.477-.052 1.584.343.492.782.239 1.638-.455 1.32-.658 1.239V381l-.005.674.276.575.14.869-.057.877-.206.912-.447-.054-.505-.205-.578.271-.247.267-.282.112.043.148.03.098.53-.132.574.107.121.458.648.056.63-.2.548-.428.324-.547.57-.797.44-.704.262-.203.294.145v.006l.155 1.192.306.267.254.368-.384.888.033 1.03-.242.882.265.51.425.308.168.267-.056.559.384.444.8.674 1.041.114 1.164-.077.993.554-.91.728-.26.958-.37.07-.276-.304-.413-.149-.416.812-.287 1.126-.528.5-1.43.225-1.837-.557-1.24-.136-.983-.18-1.099-.076.088.597.502.87.312 1.314.413.396.003 1.178-.344.872-.485 1.358-.798.788-.91.103-1.192 1.395-.308.581-.556.43-1.659.355-.556.39-.203.144-.45.112-.456.113-.068.016-.297.663.554 1.276-.166.51-.524.367.07 1.024-.186.36.234.493.206.49-.6.088-.1.364.22.833-.585.4.027.682-.646.648.17.523.05.797-.383.752-.884.775-.536.155-.368.638-.33.7-.138.72-.53.608.029.654-.361.467.19.861-.198 1.184-.137.62.457.588.784.944.156.562-.366.338-1.334.596-.695-.057-.967.354-.888.255-.698.243-.906-.722-1.24-.765-.376-.615.502-.432.295-.868-.018-.93.359-.987.554-.317.32-.156.525-.317.174-.731-.27-1.107.879-1.11.093-.82-.327-1.084.161-.754 1.237-1.86.038-.692.272-.543.297-.952-.164-.456.272-.73.757-2.377.3-2.34-.097-.372-.48-.443-.391-.36-.019-.474-.021-.548.046-1.697-.6-.536-.4-.647-.327-1.48-.82-.008-.5.402-.081 1.837-.584 1.022.152.403.01.426.461 1.097.428.046.047.607-.959 3.236-.72.71-1.733.954-.597-.042-.784-.205-.18-.405.417-.463.236-2.088.429-.717-.626-.595-.536-.053-.092-.01-.782-.086-.442 1-.119 1.384.179.434-.02 1.048.135.302.044.098.028.063-.223.528.271 1.544.976 1.009.587.451.087 1.594-.3.355-.23.7.11 1.28-.241.388-.483.007-.47-1.554-.71.025-.461.15-.109.505-.07.81-.047.52-.042.129-.109.333-.013.041-.396-.046-.269-.325-.404.152-.18 1.44-.162 1.697-.358.614-.327.69.252.722.982 2.149-.343.666-.546.416-1.44.717-.032.062-.497.937-.36.238-.285.188-.362 1.064.62.114.076.372.04.202-.388.41.457.903-.018.148-.04.333-.011.084-.12.329-.157.432-.049.135-1.1-.124-.599-.068-.379-.664-.584-.21-.077-.028-.003.032-.055.62-.906.499-.037.187-.186.941-.7.338.02.62.003.121-1.573.752-.001.004-.137.502-.43.28-.921.597-.78.818-1.088.12-.208.787.15.435v.005l-.14.558-.711.79-1.02 1.437-.585.913-.438.207-.315 1.211-.471.89-.77 1.19-.72.736-.088.652-.676.234-.324.374.536.782-.738 1.485-1.117.21-.443.892-.663.71.21.982-.632.655-.66 1.825.34.438-.558 1.094-1.192 1-1.119 1.231.159.265-.206.705-.689.083-.846.871-.066.77-.308.085-1.368 1.554-.772.26-.324.337-.036.714-.181.764-.547 1.776-.6 1.126-.403.939-.452.125-.45.98-.164.965-.688 1.092-.046.073-.106.168.222.517-.702.462-.149.68-.395 1.586-.147.528-.58 1.357.27.365-.05.392-.453.464-.731.279-.145.595.22.183.085 1.152-.295.158-.11.482.826 1.247 1.038.483.912-1.016.965-.625.844-.547 1.018-.264.783-.052.49.512.323.446 2.021.33.117.55.776-.018.186.296.183.353.19.013 1.27.088 1.345.065.551-.116.397.105.847-.303.25.155 1.232-.543.389-.326 1.441-1.336.653-.457.836-.56.202-.136.458-.58.573-.002.91-.416.077-.394.331-.172.407.29 1.265-.056 1.32-.626.423.134.777-.05 1.48-.991.892-.074.966.189 1.076-1.294 1.563-1.881.997-.5.574-.03.424-.497.288-.674.607-.746-.56-.283-.098.037-.514.193-.427-.194-.134-.06-.738-.15-.765.453-.798-.094-.3.301.2.61-.33.358-.397.092-.22.05-.44-.22-.436.124-1.025.497-.878.389-.48.465-.65.4-.347.067-.198-.036-1.226.243-.2.235-.63-.03-.373.613-.485-.051-.337-.131-.636.117-.685.537-.083.54-.187.307-.425-.106-.473.293-1.52.615-1.067.723-.371.556-.082.513-.366.441-.364 1.015-.311.502-.65.399-1.52-.045-.604-.546-.494-.455-.172-.242-.419-.59-1.49-.618-.233.075-.3-.302-.544-.069-.354-.348-.487-.023-.659.569-.468-.397-.686-.034-.64.17-.568-.115-.314-.352.052-1.406-.376-.033-.342-.519-.014-1.062.36-.125.62-.943.102-.737.586-.977.306-.386.444-.867-.056-.428 1.453-2.75.29-.218.408-.739.031-.423.377-.713.478-.507.28.069.3-.684.672-.282.3-.3-.144-.55 1.095-2.069.614-.416 1.254-1.376.893-1.3.62-1 .383-1.41.028-1.643 1.018-1.531.793-1.195.435-.249.333-.442.385-.139 1.528-2.097.952-1.41.678-1.052.452.107.581-.23-.004-.513-.082-.689.188-.232.479-.592.284-1.185.574-1.284 1.918-.167.635-.17.9-.357.604-.713.39-.41.721-.194.18-.79.493-.833.245-.358-.334-.785-.045-.723.331-.532.946-.365 1.594-.358.566-.48 2.055-.796.651.054.115.01.445-.249.168-.094.483-.605.361-1.065.22-.474 1.773-.803 1.176-.433.351.053.097.339-.33.355-.365.553-.505 1.116.15.462.514-.034.82-.504 1.65-1.265 1.654-.752.173-.126.657-.48.398-.178.263-.118.336.128.406-.181.563-.516.396.045.755-.337.257-.453.234-.109.249-.117.563.138.353-.269.157-.564.381-1.375.175-1.55.17-.539-.052-1.423-.256-1.318.031-1.516.278-.747.022-.06.484-1.304.01-.026.056-.062.376-.407.015-.687.002-.055.566-.138.296-.073.9-1.497.416-.436.002-.012.152-.73.292-1.397.639-1.251.024-.017 1.015-.71.563-.394 1.361-.564.797-3.07.124-.478.263-.399.554-.374.318-.216.218-.477.151-.148.065-.064.826-.809.344-.029.423-.035.038-.003.454-.334.084-.062.202-1.051.536-.526.026-.02 2.117-1.683.365-.056.535-.082 1.128-2.546.813-1.018 3.193.01.413.24.058.035.427-.268.007-.004.001-.025.112-1.766.071-1.129-1.375-5.01-.148-1.939-.787-.896-.11-.432-1.054-.416-.194-.194-1.283-.39.3-.44-.068-.398-.477-.285.444-1.3.613-.291.958.09.217 1.56.326.79.714.885 1.21.445 2.277.088 1.604.28 1.026 1 .911.313.582-.008.251-.003-.313 1.132.134 1.057 1.484 3.279.062.739-.393 2.054.185.378.01.1.063.63.45.859-.055.5.252.578-.143 1.336-.005 1.72.111.25.317.715 1.705 1.517.564.501-.031 1.11-.365.895-1.254 1.21-.633.277-.13.057-.036.47-.022.293.737.737.724.646.662.264.076.27.06.214-.11.359.238.537.284.534.017.384.775.575.068 1.575-.304.749.076.536-.682.65-1.345.377-.991-.283-.78.293-.516.003-.895-.19-.476-.428-.767-.088-.809-.093-.563-.065-1.828.155-.225.02.23.284.208.256.13 1.055-.098 1.047-.15.233-.399.62.237.353.276.41.609.669.062 1.29 1.416 1.143.51.21.08-.593.265-.156.576.472.233-.287.183-.225.167-.007.37-.015.72 1.73.151.864-.222 1.486-.08.132-.347.569-.184 1.949.502 1.07.735.58-.357.382-.88.5-.86.404-.413.353.101.06.567.336.484 1.141.692.841 1.039.742.474.363-.465.62-.048.207-.197.845.398.559.279.392-.45-.131-.375-.405-.087-.094-.186.253-.317.43.387 1.503-.305.874.039 1.108.046.227-1.035.05-.012.307-.001.035.407.529 1.047.519 1.198.444.544.566-.813.456-1.138.102-.348.387-.703.448-1.768.127-.556.493-.684.607-.451.4-.078.266-.607.151-.036.057-.676 1.063.276 1.324.05.909-.364 1.054-.476 1.449.257.59.136.31.973-.076.764.201.091.007.706.053.08.18.122.27.66.429.736-.016.67.31.102.356.036.126.003.012.53.442.008.007.021.018.087.45-.08.122-.26.39-.69.695-.109.369-.076.26-.862 1.303-.443.383-.16.45-.354.273-.031.8-.282.646-.273.39-.706.515-.45.526.125 1.19.011.103.059 1.06-.388.414-.345.76.187 1.81-.253.62.39.96-.016.263-.453.806-.55.61-.05.054.017.432-.606 1.113-.308.166-.047.486-.38.185-.09.611-.169 1.152-.054.374.007.088.004.042v.006l.055.61.013.145.152.347.348.791.61.54.19.456.15.36-.717 1.375-.528.383-.442 1.097-.603 2.119-1.553 2.276-.459 1.261-.27.057-.23.05-.066.013.016.103.198 1.332.033.059.058.105.128.232.063.114.533 1.642.513.732.71 1.013.614 1.185.28.93-.41.92-.608.875-.185.265-.143.206-.12.146-.855 1.05-.808.83-.63.647-.152.157-.939.326-.249-.181-.266-.194-.1-.074-.544-.729-.051-.069-.06-.046-.394-.301.183-.785.56-.352.252-.536-.51-.02-.437-.018-.14.027-.48.092-.25.047-.842.196-.496-.196-.07-.028-.185-.165-.208-.184-.043-.038-.923-.819-.117-.017-.712-.103-1.278-.447-.026-.01-.698-.517-.662.03-.425-.316-.524-.244-.4-.185-.863.021-.136.512-.141.36-.058.148-.66.088-.733-.135-.4-.257-.169-.47.154-.45.118-.343.012-.036.566-1.65.412-.162.097-.038.04-.016.153-.293.185-.357-.696-.795.117-.464.653-.685.47-.752.323-.858-.118-.816.207-.644.355-.244.656.113.438-.182.12.126.201.208.312.324.009-.017.114-.218.157-.3-.343-.731-.567-.167-.576-.627.007-.113.005-.076.017-.246.517-.288.462-.62.45-.605.402-.012.363-.413.653-.578.833-.313.457-.351.199-.652.456-.64.503-.382.368-.587-.113-.721-.038-.49-.08.02-.962.225-1.703 1.033-1.11.428-.608.061-.198.02-.037.045-.357.43-.436.18-1.388.342h-.003l-.042.072-.36.629-.045.147-.127.422-.134.447-.502.442-1.695.732-.171.653-.472.295-1.1.46-.603.444-.311.018-.265.015.181.467.347.715-.513 1.833-.373.673-1.19 1.616-.155.42-.079.214-.319.865-.65 1.064-.035.303-.1.84.093 1.184-.308.475-.6-.083-.022.488.064.038.073.044.424.258.39-.386.074.06.227.186-.416 1.101-.025.573-.005.116.03.582.001.024.437-.125.034-.054.584-.927.745.061-.16.344-.004.008-.216.466-.025.587-.02.447.448.968 1.082.277.333-.367.12-.132.343.044.026.114.018.077.102.448-.658.576-.108.985-.033.304-.232.24-.01.01.004.014.16.665.13.542.266.358.088.118-.158 1-1.019.937-1.07.798-.06.046-.014.073-.056.31-.452.344-.572-.083-.254-.788.01-1.584-.882 1.748.295.268.038.034.197 1.267.051.329.489.02.64-.145.006.005.009.007.222.173-.755 1.147-.372.59.087.666-.217.366.039.434.384.45-.887.509-.133.52-.006.023-.54.465-.92.595-.603-.14-.335-.077-.306-.807-.06-.157-.01-.312-.017-.439-.081-.352-.161-.704-.119-.517-.634.001-.643-.46-.852-2.145-.996-2.037-.077-1.176.012-.153.034-.451.022-.286-.374-.65-.96-.417-.607-.603-.399-1.4-.574-.85.248-.382.007-.01.279-.43.084-.637.436-1.03.018-.041.834-1.97.138-.464.166-.558.122-.089.105-.076.516-.377.452-.708 1.085-.892.773-1.23.417-.988-.049-.864-.171-.148-.216-.185.055-.242.087-.384-.015-.087-.192-1.071-.019-.891.266-.676.09-.228.001-.216.004-.559.237-.822.087-.397.093-.428.158-.322.063-.127-.62-.286-.297-.42-.072-.23.2-.407.084-.068.406-.125.086-.194-.056-.49.634-.386-.206-.427-.124-.22-.194.099h-.003l-.347.023-.227-.036-.224.02-.382.354-.206-.016-.258-.021-.2.025-.1.112-.07-.154.073-.377.039-.42-.218-.521-.18-.229-.239-.05-.103-.205.02-.18-.234-.382-.006-.1-.065-.555-.102-.416.01-.441.124-.336.293-.277.083-.378.02-.35.108-.637-.062-.283.02-.35-.091-.205-.16-.218.05-.258-.169-.469-.172-.188-.08-.224.047-.158-.124-.156-.238-.04-.165.092-.093.077-.089-.045-.024-.131-.227-.07-.215.1-.047.149.065.353.24.452.182.189.103.385-.007.05-.124.867-.202.492-.038.4-.347.807-.042.069-.044.071-.26.426-.051.08-.114.179-.083.13.332.206.172.199.032.302-.079.508.128.066.175-.092.168.037-.074.549.034.583-.108.537-.009.022-.185.457.02.035.22.413-.086.305.391 1.194.05.806-.495.81-.596.49.019.099.074.393.614.401.47.019.055.435-.5 1.352-1.152.93-.428-.077-.037-.461.597-.49-.158-.324-.28-.156-.368-.131-.247.391-.083.57-.382.817-.565.434-.839.134.191.513.322.861.386.362-.168.539-.448.382-.497.179-.177.74-.377.7-.45.412-.71.456-.4.586.113.667.766.236.07.348-.295.792-.126.886-.234.709-.128.915-.251.478.266.472.543-.55.493-.183-.597 1.213-.12.744.408.507.569.264.16.455-.193.803.293.44.122.586.61.517.11.754.412.45.364.629-.059.56-.38 1.114-.423.442-.18.955-.31.32-.055.603-.226.537-.942 1.688-.634.634.526.468.261.232.509.453.511.342.448-.326.277.243-.015.346.12.525.035.52-.104.335.272.423-.72.603-.011.894.084.696-.255.537.558.43-.072.195-.19.515.219.905.332.968.515.745.145-.146.158-.159-.056-.695.327-.852-.184-.412.034-.438.035-.454.277-.392-.2-.673.34-1.803.037-2.134.239-.825.639-1.924.786-.416.258 1.463.357 1.054.543.11.678.982.187.99.422.249.172 1.335.414.422.058.666-.276.363.197.806.088.362-.02.692.487.079.6.142.259.475-.29.245.395.22 1.348.203.318.24.41.311.242.686.01.008.531.417 1.04.816.417.08 1.217.886.439-.281.13-.084 1.097-.084 1.442.143.4.04 1.241.005 1.173.28.212-.309.25-.365.089-.178.443-.886.16-.322.484-.702.12-.174.903-1.314.377-.384.165-.168.396-.404.694-.39.057-.003.143-.006.881-.034.147-.202.281-.387.43-.252.119-.07.28-.163.561-1.045.67-1.589h.001l.02-.081.185-.718-.007-.512.277-.926.581-.204.58-.203.115-.068.735-.434.065-.038.493-.067.01-.014.259-.383.264-.545.512-1.057.017-.034.016-.402.278-.48-.064-.598-.02-.183-.02-.493.495-1.914.204-.262.234-.3.62-.8.02-.02.61-.59.195-.564.13-.373.007-.14.061-1.174.092-.187.078-.159-.04-.462.032-.776.213-.308.264.064.094.023.355.085.516-.67-.079-.204-.04-.433.16-.426.982-1.656.035-.058 1.318-1.916.146-.213.002-.006.448-1.212.16-1.289.007-.056v-.396l-.881-2.052-.587-1.143-.648-1.04.05-.235.741-.184.949.45 1.581 1.605.562.36.322-.25.537.372.078.487.017.022.21.273.665.861-.01.29.04.042 1.015 1.03.403.623.81.605.287.291.66.67.84.253.425.129.94.578 1.04 1.051.438.855h.001l.051.005.378.04.441-.272.464-.874.443-.329.574.05.381-.992.847-1.147-.228-.456.393-.412.19-.198-.513-.975-1.244-.688-.774.041-.225.012-.03-.017-.426-.25-.417-.065-.572-.329.072-1.01 1.184-.203.218-.451.068-.272.092-.367.263-1.055.098.016.447.072.228.037.694-.192.2-.055.19-.053 1.363-.206.071-.011.833-.742.095-.036.537-.202.307.101.292.096.22.32.363-.073.176-.092.317-.165.078-.204.291-.753.232-.087 1.012-.381.58-.15 2.534-.653.204-.053.312-.19.127-.078.735-.448.33-.496.053-1.938.027-1.012.012-.446.164-.533-.22-.262-.028-.034.102-.278-.023-.364v-.005l-.131-2.112.204-.67-.166-.738-.379-.146-.057-.268-.115-.54-.257-1.085-.064-.269-1.493-1.388-.334-1.287.048-1.372-.187-.565-.149-.449-.067-.98-.14-.03-.497-.103-.21-.486-.017-.041-.531-.406-1.917-.585 1.136-.76.193-.13.261-.285.28-.306-.123-.92-.082-.608.203-.88.29-.38.295-.388.028-.058.336-.683-.013-.686-.096-.135-.277-.388-.038-.052-.372-.71-.827-.759-.78-.654-.502-.422-.832-1.358-.272-.995-.258-.404.449-.461.001-.006.182-.823-.1-.114-.727-.821.561-.97-.11-.797-.148-1.053.16-.759-.436-1.296-.31-.626-.514-1.04.004-.427-1.308-1.31 2.364-1.319 1.308-1.447.528-.584.635.343.045.636.567.816.008.011.08.116.617.395.206-.312.761.22.443-.412.32-.189 1.366-.548.046-.019.17-.068.46-1.387-.006-.02-.173-.53-.327-1.002-.064-.197-.016-.05-.95-.805-.095-.092-.916-.88-.31-.3-.648-.883-.92-.27-.695.01.005-.987-.246.018-.437.18-.267.109-.423-.13-1.035-.628-1.207-1.084-.246-.516-.157-.33.078-.703-.298-.622-.094-.198-.974-1.097-.83-.528 1.386-.48.349-.325.845-.681.802-.17-.006-.166-.021-.631.242-.683.382-1.16.156-.473-.263-.649.365-.822.868-.45.374-.194.925-.489.652-.789-.065-.525.16-.208.43-.562.057-1.076.417-1.163-.167-.84-.16-.809-.69-1.692.04-.216.175-.916.143-.753-.699-.895-.157-.2-.13-.435-.01-.016-.609-.944.109-.29-.056-.483-.01-.09-.097-.151-.207-.327.045-.47.542-.489.033-.03.141-1.237-.355-1.925-.004-.023-.06-.621.434-.146 1.05-.85.246-.2.48-.658.457-.627 1.704-2.188.888-1.141.808-.29.643-.581.17-.154.018-.036.49-.937.171-.703-.004-.535-.002-.355.227-.54.027-.062.313-.336.137-.474-.035-1.047-.302-.72-.07-.167.708-2.218.063-.198-.068-.693.139-.35.023-.06.163-.41.456-1.15.058-.414.038-.28.344-.599.101-.175.783-1.067.175-.238.144-.704-.12-1.352.35-1.694.213-.484.311-.054.908-.16.647-.226.273-.095 1.344-.657 2.18-.26 1.28-.152.032-.024 1.044-.767.43-.316.73-.756.08-.082.044-.445.19-.288-.271-.897-.332-.27.216-.281.22-.287.079-.637.002-.039.118-1.888-.162-1.061-.008-.606.299-.65.368-1 .01-.028.292-.346.469.028.065.004-.018-.03-.271-.45-.184-.305-.168-.278-.295-.855-.294.096-.226.073-.762-.15-1.006-.672-1.632-1.34-.526-.43-.567-.464-.44-.36-.75-.37-.632-.233-.421-.202-.121-.2.002-.222.181-.112.102.084.004.003.145.197.549.363.254.044h.3l.074.135.262.122.14-.064.091-.218.102-.095.01-.112.003-.04.003-.04-.215-.041-.038-.174.041-.21.046-.067.027-.039h-.002l-.23-.155-.165-.183-.15-.521-.186-.297-.287-.103-.176-.174-.184.012-.112.008-.36-.12-.23-.018-.148.152-.097.395-.56-.625.02-.555-.297-.519-.451-.313-.108-.075-1.378-1.078-.416-.326-.007-.8-.475-1.32-.914-.487-1.078-.425-.151-.58.098-.367-.089-.355-.288-.322-.018-.704-.438-.677-.83-.58-.316-.478-.196-.56-.039-.112-.134-.34.374-.7-.146-.623-.495-.298.034-.283.291-.387.158-.211.042-.486-.121-.552.064-.962-.282-.738-.159-.938-.116-.687-.007-.047.859-1.672.578-.85.075-.214.104-.298-.482-.213-.245-.197-.375-.852-.352-.32.01-.162.01-.201.145-.338.167-.378-.206-.685-.196-.77.348-.944.102-.695-.31-.912-.564-.81-.691-.402-.188-.216-.322.226-.099.017-.055-.045-.021-.153-.206-.294-.077-.205-.19-.133-.108.073-.112.01-.065.04-.17.104-.955-.047-.557.147-.368.22-.39.067-.353-.076-.669-.248-.115-.284.01-.265-.044-.286-.36-.301-.207-.312-.373-.07-.879.167-1.01.462-.507.642-.002.359.298.761.105 1.393.587.06.31.497-.054.427-1.6 2.188-.843.588-.332-.3-.646.11-1.015 1.008-.036 1.498-.103.688.297.303.208.49-.187.795 1.135.839.143 1.192.251.572.681 1.159.674.565.154.542.338.75.326.881.381.315.691.57.459.134.684.57.154 1.157.632.415.205-.05.305.14 2.18 2.824 1.452 1.879.698 1.173.517 1.284.494 1.335.504.64.148.569.123.51-.265.329-.492.036-1.088-.298-.549-.296-.893-1.06-.406-.053.098-.28-.338-.771-.253-1.602-.816-1.23-1.002-.95-.71-.425-.015-.082-.05-.267-.382-.705-.444-.798-.68-.47-.75-.039-.834-.297-.42-.4-.307-.87-.913-1.228-1.084-1.733-1.245.184-.455.723-.632.669-.386.044-.353-.12-.187-.26-.075-.419-1.056-.98-.467-.17-.21-.192-.162-.311-.275-1.027-.107-.401.316-.707-.013-.422-.3-.505-.22-.753-.303-.392-.312-.894.17-.548-.077-.103-.341-.462-.08-.053-.34-.227-.021-.764-.725-1.658.497-.532.174-.654-.088-.856-.316-.45-.027-.375-.007-.1-.249-.388-.005-1.234.106-.66.513-1.672.01-1.102.016-1.94.562-1.677.5-.33.551.117.543-.28.473-.248.799-.135.381-.276.484.095.204.578.494.257.833.22.326-.053.31-.052.461-.258.319-.335.552-1.215.447-1.289.34-.153.647.206.258.569.568-.023 1.059.54 1.56.797 1.384.705 1.154.76.107-.02 1.017-.178.225-.7.089-.413.416-1.444.291-.893.158-.807-.077-.326-.16-.67.236-.416-.2-.678.38-1.216v-.238l.001-.573-.28-.736-.33-.18-.433-.35-.503-1.555-.258-1.058-.04-.165-.069-.091-.349-.467-.267-.098-.422-.155-.465-.226-.451-.44-.148-.547-.073-.02-.977-.27-.43-.365-.675-.058-.84-.82-.469-.695-.889-1.03-1.22-.213-.002-.001-.018-.007-1.127-.406-.597-.455-.008-.007-.477-.139-.771-.226-.252-.021-.59-.05-.278-.294-.057-.06.181-.578.024-.015 1.013-.615.418-.127.316-.096-.54-.467-.514.08-.356.054-.78-.002-.956.187-.313-.859-.076-.208-.774.13-.26-.01-.15-.007-.202-.007.263-.275-.005-.19-.028-.996-.608-2.458-.923-.512-.004-.014-.224-.688-.554-.415-.116-.252.438-.512-.126-1.064-.402-.623-.606.055-.23.213-.704.168-.153.142-.743.686-.343.209-.046-.149-.077-.246.183-.179.31-.303.197-.165.407-.34.546-.424.913.147.183-.382.06-.651.928-2.207.28-.406.11-.636-.23-.537-.12-.017-.057-.008-.1-.014-.22.69-.034.107-.305-.083-.499-.324-.069-.045-.45.138-.27.083-.333-.318-.54.257-.274.602-.033.143-.1.436.035.475.019.25-.435.869-.072.083-.442.515-1.191.537-.722-.057-.022-.008-.39-.148-.515.342-.354.515-.176.548-.08.25-.48.175-.5-.02-.02-.065-.054-.19-.315-.2-.01-.007-.568.255-.325.555-.28.086-.032.01-.036.01-.503.155-.145-.006-.353-.015h-.036l-.352.007-.14.002h-.016l-.357.178-.214-.04-.174-.032-.175-.481.106-.306.632-.026.079-.554-.318-.403-.264.324-.388-.044-.508.146-.175-.233.088-.084.105-.1-.205-.454-.36-.043-.313-.427-.287-.393-.11-2.09-.34-.531.25-.8.332.143.003.238.803-.06.16-.307.163-.312.19-.072.195-.265.023-.787.322-.085.48-.153.072-.61-.16-.85-.1-1.63-.015-.246-.765-.947-.002-.01-.101-.47-.021-.1-.132-.475v-.002l-.11-.396-.92-.621-1.342-.473-.427.232-.551-.106-.763-.211.092-.417.18-.273-.082-.292.252-.433.779.03.12.005.098-.506.294-.213.027-.347.513-.479.62.26.093.237.14.357.642.116 4.154-1.743 2.49-1.046.04-.016.963-.09.81.246.21 1.147-.1.406-.687.04-.13.467-.126.384.511.41-.044.414.031.781.254 1.12.4 1.128.572.301-.155.174-.15.17.028.09.305.957.02.093.272 1.237.084.382.477.394.09.073.236.04.426.07.382-.513.013-.335.016-.387-.173-1.259-.003-.067-.059-1.186-.42-.6-.019-.946.548-.507.834-.51 1.023-.056.21.186.268.875.635 1.442.521 1.935.631 1.486.522.142.441.26.149-.437-.029-.075-.347-.914-.196-.565.488.325.112.22.378.742.077.152.75.049.291.36.426.53 1.179.409.47-.493 2.188-.684.093-.03.136-.078.554-.32.267-.249.014-.491-.032-.327-.27-.347-.144-.186-.282-.18-.3-.192.003-.642-.35-.53-.124-.733.1-.925.004-.042.017-.16-.035-.37-.146-1.538-.365-.701.718-.826-.066-.298-.074-.331-.124-1.101-.284-.71.006-.485.003-.219v-.022l-.282-.211-.107-.08-.45-.43-.133-.258-.116-.223.012-.543-.268-.859.24-.71-.15-.517-.456-1.276-.685-.154-.019-.004-.197-.045-1.178-.265-.633-.521-.409-.418-.563-.426-1.257-.174-.526-.156-.4.153-.443.066.337-.47-.098-.448-.386-.363.075-.265.4-.366.058-.402.243-.127.212.26.171.336-.096.328.069.276.423.173.562.313.276.503.603.09 1.286.109.1-.003 2.134-.058.05.007.952.125h.007l.006.054.056.496.05.052.318.32.136.029.497.105-.597.394.33.567.668.909.46.079.435.458.668-.058.352-.514.053-.545.06-.44.33-.23.233.186.745.111.034-.069.185-.375.211-.1.205-.043.37-.077.235-.62.011-.04.116-.4.197-.06.436-.137.557-.778.025-.098.508-2.07.327-.635.163-.317-.47-.54-.324-.374-.152-.717-.47-.811-.5-.292-.254-.096.044-.282.04-.261-.49-.794-1.789-.612-.39-.567-1.063-1.54-1.063-1.055-.203-.402-.567-1.12-.704-.832-.367-.102-.696-1.384-.153-.614.263-.225.667.634.647-.28.46-.48.449-.148-.022-.886-.006-1.3-.54-1.789-.158-.396-.145-.362.062-.126.178-.362-.29-.37-.51.34-.455.314.115.612.25.7-.023.431-.116-.069-.093-.055-.088-.053-.632-1.284-.268-.797.167-.462-.193-.736-.31-.85.019-.714.46-.657.265-.254.562.14.095.023.241-.487-.007-.162-.021-.46.438-.771.336-.043.52-.999.533-.644-.364-.566.015-.013.469-.383.012-.23.02-.339-.388-.344-.076-.069-.297.005-.054-.014-1.018-.263-.672-.468-.025-.076-.075-.226-.122-.368.055-.404-1.593-.982-.234-.392-.594-.995-2.021-.346-.78-.134-.39-.067-.057.054-.464.442-.162.154-.381.162-.25.105-.743.313-.62-.292-.565.273-.55.64-.62.148-.87.565-.268 1.029-2.14 2.063-1.146 1.53-.131.561-.945 1.474-.237 1.094-.537.282-.697-.857-.394-1.324-.323-.693-.636.029-.33-.278-.086-.524-.038-.238.142-.274.848-1.633.717-.942.875-2.14.511-.564.342-.753.013-.801-.135-.184h.242l.1-.163.031-.169-.095-.615-.234-.122-.656-.12-.33-.413-.539-.243-.36.185-.116-.152-.024-.032-.092-.469-.641-.77-.14-.168-.166-.598-.357-.256-.09-.118-.32-.109-.3.166-.338.138-.321.066-.337.027-.218-.302.026-.115-.288-.137-.213-.188-.436.15-.336.248.05.568.221.482-.05.187.079.622.23.272.205.124-.13.285-.122.122-.516.145-.23-.017-.248-.115-.074-.785.43-4.623-.023-.294-.175-2.28-.171-1.247-.329-1.375-.606-1.022-.427-.313-.196-.143-2.157-1.19-.984-1.417-.003-.002-.999-.826-.153-.14-2.113-1.937-.807-1.417.082-.314 1.019.06.918-.652.62-.862.145-.203.586-.334.994-.269.608-.432.468-.744.132-.447.157-.533v-.01l-.07-1.665-.208-.561-.062-.169-.711-.706-1.014-.54-.169-.09-.495-.122-2.054 1.815-.643-.133-2.84-1.313-.373-.422-.069-.626.065-.18.396-1.099.228-.635 1.095-1.085.94-1.18.396-.495.058-.48 2.725-2.697.684-.053.171-.013.067-.005.8-.681.608-.239-.167-.405-.207-.509 1.623.07.647.029.302.013 1.32.057 2.161.092 5.714.24 5.776.239 6.314.254 10.116.393 5.072.191 1.256.047h.212l4.93.164 8.29.268.634.02 3.969.124h.012l12.216.439.921.032.046.002 4.395.15 3.214.165 9.413.473 1.967.097 2.51.122 22.843 1.07 36.563.39 4.415.033 5.79-.075 10.176.293.656-.004.266-.13 2.195-.008 11.94.116 7.633.23 9.331.143 14.696.141 15.526.112 39.213-.022 39.25.025 3.952-.011 9.44-.205 4.959-.113 20.064-.216h.092l28.048-.455 1.794-.033 1.55-.028 28.559-.616 5-.121.596-.009 26.407-.71 7.585-.225 38.353-1.28.157-.005.413-.015 14.777-.557.658-.026 16.127-.65.228-.01 2.966-.124 18.054-.788 4.358-.198.113.087 13.427-.626.95-.157 28.196-1.462 2.716-.148 20.453-1.031 14.913-.795 3.638-.2-.005.02 16.352-.826 10.769-.728 1.414 21.776.284 4.977.97 16.964 1.001 16.336.014.275.224 4.716.07 1.364.13 2.207.405 6.915.712 12.132.241 3.71.465 7.143.093 1.427.003.052.079 1.175v.072l.592 9.068.003.06.975 19.582.455 9.155.071 1.997.006.17.014.387.01.292v.002l.037 1.032.004.103.006.178.002.066.037.51.003.047.006.095.02.384.034.155.016.448.005.134v.028l.056 1.304.312 7.334.409 6.95v.006l.417 7.053.699 12.046.113 1.952.09 1.41.805 12.744.132 2.089.145 2.294.252 3.974.096 1.157.147 1.778.487 7.745.087 2.146.014.288.03.651v.065l.249 2.785.002.178.148 1.444v.004l.011.106.046.741.092 1.488.185 2.824.004.064.02.283.035.537v.008l.01.15.037.538.001.021.01.136.018.273.144 2.163.048.565.02.321.001.008.655 9.665.02.306.28 4.133.166 2.447.06.879.013.189.055.809.023.463.115 2.304-.009.058.35 4.482.085.947.051.75.012.174.001.011.573 7.884.162 2.576.325 5.042v.002l.256 3.99.087 1.286.073 1.079.24 4.297.112 1.562.242 3.353v.002l.41 6.513.57 9.113.225 3.374.175 2.627.255 3.954.247 3.81.313 4.826.198 3.063.04.632.078 1.193.048.745.366 5.675.011.176.475 7.349.939 14.537.072 1.113.56 8.68.45 6.951.145 2.254.402 6.206.002.038.034.637.059 1.109.005.103.942 14.086.05.737.12 1.797.044.67.195 2.903.025.383.654 10.346.048.753.195 3.087v.006l.894 14.128.793 12.529.026.395.082 1.23.065 1.029.03.477.222 3.506.105 1.663.008.009.164.182.262.29.135.363.005.013.14.375-.01 1.494-.086.405-.055.087-.089.142-.062.1-.206 1.35-.074.478-.021.142.008.545-.174.853-.015.075-.279 1.366-.285.514-.15.127-.12.102-.147.179-.514.628-.368.635-.027.046-.187.455.139 2.09.027.196.279.613.095.09.084.08.445.417.32.16.225.11.79.192 1.377.122.48.15.38.256.515.466.1.213.121 1.03-.059.466.133 1.116.111.48.233.467.568.603 1.175.992 1.291.303.969.613.417.465.301.693v.534l-.631 1.728-.043.346.06.378.505.593 1.486 1.137.462.463.308.347.492.744.336.634.821 1.92.575 2.023-.037.886-.349 1.134-.71 1.913-.03.354.138.727.401.647 1.07.788.314.231 1.429 1.434.3.547.013.423.836 1.011.745.03.482.375.297.541.112.536-.124.738-.942.77-.439.497.005 2.124.232.62-.196.597-.553.624-.256.586-.63.653-.212.45-.033.834.056 1.383-.392 1.636-.496.606-1.79.362-.35.21-.22.184-.331.536-.076.281.026.352.117.8.434.856 1.151.509.86.099.34-.102.39.136 1.188 1.277.819 1.197-.023 1.19.664 1.666.414.215.565.674.313.876-.057.417.169 1.578.32.554.597.34.287.84.474 2.434.227.58.163.2-3.094.05-5.653.248-8.169.553-2.348.032-2.53.14-15.287.83-.24.015-.275.01-7.708.44-7.404.414-2.007.535-3.535-.104-1.088-.032-6.149.347-4.391.382-.026.009-.593.03h-.004l-3.091.093-12.295.572-2.554.106-11.79.475-32.5 1.447-2.395.1-16.162.823-.603.027-1.88.006-10.367.495-.956.04-.018.001-1.977.075-.48.024-3.399.078-3.932.22-3.191.114-3.381.118-.034.001-1.322.061-1.117.043h-.001l-2.062.078h-.004l-2.528.095-5.846.217-3.286.124-5.017.145-2.225.086-1.812.07-.787.039h-.528l-1.325.042-2.039.064-3.87.12-.202.002-2.425.09-2.396.084-5.927.208-7.572.258-.324.01-9.98.327-9.15.286-4.57.232-1.168.06-2.58 3.782-2.268 1.89-4.259 2.026-3.906 2.948-4.079 1.887-1.906.381-3.51.7-3.265.03-1.111-.228-2.699-.557-3.967-1.208-1.079.185-5.873 1.003-1.216.208-.73.308-3.55 1.498-.93.391-8.454.772-2.301.208-.747.332-3.93 1.748-4.627-.332-1.559-.77-4.383-2.168-3.616 1.12-2.827 2.56-5.704 8.887-.29.05-7.237 1.244-5.397.922-3.742-.305-8.208 2.184-1.005.236-3.926 1.23-.184.019-7.14.733-4.23 2.183-.205.106-6.765 3.833-1.883 1.066-8.954 2.226-3.655 2.044-2.586 3.345-2.463 3.184-.09.009-8.914.875-.82.202-5.092 1.658-9.45 2.148-6.203.547-3.694.322-2.966-1.014-2.03-1.773-3.947-4.31-.775-.848-3.994-1.49-5.522.109-2.35 1.547-1.936 1.273-2.597 2.573-4.4 1.678-8.188 3.604-5.982 1.84-2.474.758-1.83 1.848-1.991 2.01-1.262 1.272-2.268.505-.301-.237-3.527-2.763-1.15-.065-3.16 1.308-.697.174-3.02-.913-3.307.366-3.888-.324-.899.28-1.71.53-4.497 4.423.37.912-.656.363-.203.182-.504.455-.192.172-.35.315-.947-.41-.137.129-.639.598-2.828.286-.332-.015-1.69-.075-1.583-1.876.062-.712.098-1.141.04-.464-.163-1.003-.434-2.68-.546-1.123-1.346-2.774-4.452-1.36-4.54-1.63-.89-.683-2.212-1.7-3.212-.96-1.705.1-1.792.104-.9.053-1.384.664-2.33 1.118-2.755-.25-2.192-.633-2.737-.792-2.589-2.07-1.367-1.094-.001-.001-.555-.444-1.606-.413-1.31-.338-1.257-.34-.088-.024-.188.056-3.574 1.061-5.91 1.75-2.782.822-.877-.034-3.814-.15-.972.341-3.992 1.4-.55.009-2.955.046-9.557-2.539-3.413 1.081-2.556.809-1.144.36-1.103.974-.293.258-3.093 2.726.08 1.515.003.062-.474.657-.5.693-1.791.912-1.657.842-2.105-.2-.499.237-.737 1.357-.306.562-2.095 1.377-.42.355-2.648 1.167-2.392.07-2.788.937-7.201 4.361-.192.117-1.364.338-1.745-.274v.008l-.414-.084-.008.004-1.408-.328-3.325.641-2.15.414-1.813 1.825-.547.551-6.089 2.764-1.35.433-.398.127-.519.07-3.563-.07h-.01l-4.607-1.014-.91-1.397-.329-.505-1.32-2.028-2.424-.918-1.014-.384-.416.057-1.048.143-.684.325-.532.253-1.223.582-.794.134-2.264.38-.51.086-.298-.117-1.602-.63-2.09-1.71-.01-.008-.453-.37-.139-.068-.44-.217-1.613-.7-.47-.156-1.167-.387-2.291-.76-2.776-1.287-.27-.125-.16-.057-.065-.022-.034-.012-.131-.047-3.762-1.326-.116-.034-.46-.135-.365-.107-1.712-.502-.645-.073-3.433-.392-1.128-.129-3.868-1.664-.039-.026-1.931-1.27-.022-.02-.007-.006-2.69-2.388-3.08-1.346-.664-.526-2.308-1.828-.17-.135-1.166-4.266.3-2.553.105-.903 1.531-5.17.307-1.038.017-2.885.01-1.588-.848-3.909-.13-.233-.012-.02-.173-.31-2.73-4.887.027-.942.049-1.77 1.443-3.402.073-1.139.087-1.361.072-1.127.039-.603-1.113-2.267-.247-.505-.147-.298-.09-.324-1.022-3.645-.186-.662-.157-.56.048-.202.777-3.315-.541-3.756-.036-.248-.17-1.185-2.3-3.044-.499-.66-.104-.313-1.938-5.85-.29-.351-2.261-2.738-.051-.062-.283-2.662-.153-1.438-.033-.319-.089-.835-.167-.321-1.956-3.754-.133-.257-3.207-1.859-.846-.49-.275-.16-2.798-1.625-.476-.528-4.452-4.935-.63-.43-1.556-.628-.089-.064-1.319-.946-.913-.408-1.152-1.362-2.639-1.89-3.862-2.77-1.285-1.432-.473-.075-5.775-.91-5.954 2.652-1.212.812-1.075.555-1.427.523-1.188.75-3.713 1.895-2.6-.102-.192-.023-3.69-.457-1.035-.066-.707.163-1.77-.32-.382-.025-.97-.062-.963-.887-1.318-.691-3.794-4.097-.981-1.06.786-7.473.114-1.082-.982-1.65-1.29-2.167-1.984-2.235-.49-.552-.723-.635-.582-.268-2.66-.49-1.903.764-1.295.42-1.48.417-1.203.2.07-1.164H146.59l-.08.043-.31.171-.203.432-.59-.093-.905-.143-.655.256-.924-.07-1.738-.293-1.301.22-1.39-.362-1.292-.741-1.776-.14-.175-.014-.174-.03-1.073-.187-.986-.172-.844-.813-.288-.277-.059-.983.223-.985.12-.53-.04-.767-.166-.965-.856-.63-1.547-1.061-1.843.273-1.112.164-.035.992-.003.105-.54.938-.094.162-1.58-.377-.488-.41-.58.027-.533 1.918-.764.314-.047.738-.9.227-1.026-.262-.879-1.069-1.55-.867-1.322.08-.73.536-.39.692-.146.438-.16.485-.056.045-.163.133-.078.064-.701.002-.573-.08-.601.176-.708 1.098-1.266.212-.103.07-.098.067-.244.166.174.363-.636.68-.533.567-.406.013-.38.012-.725 1.279-.458.225-.126.062-4.124-1.295-1.208-1.11-.428-.13-.324-1.058-.45-.483-1.27-1.363-.903-.783-.049-.084-.582-1.007-.342-.749-.01-.067-.015-.124-.093-.704-1.236-1.061-.155-.455.134-.979-.47-.7-1.253-1.159-1.03-.473-.907-.416-2.341-.6-.017-.005-1.25 1.253-.433.869-.332.184-1.113.323-.572.594-.106.11-.338.75 1.027.5.15.608-.05 1.32-.124.423-1.286.012-.335-.439-.692-.218-1.848 1.18-.313-.169.014-.65.469-3.67-.413-.585 1.127-.988.431-1.48.004-.014.17-.583.494-1.7.088-.619.213-1.507.031-.22.7-4.946.164-1.159.308-2.174.15-1.57.242-2.507.71-9.939.104-1.462.234-3.279.025-.356.017-1.164.032-2.32.11-7.795-.244-8.141.214-5.239.184-2.036.084-.927.366-.675.248-.455.667-.263.365.158.18.363.186.716.105 1.032.637.541.96.974.157.823.026.36-.301.127-.623-.032-.365.616-.557.161.121.8.134.625.655 1.694.22 1.388.7.654.378.776.541 1.56-.17 3.301-.746 5.793.05 3.292.003.212-.496.387-.052.264-.111.565-.523 1.533.04.821.05 1.006.21 4.197.04.652.492 7.763-.147 3.94-.01.36-.063 2.468.912 1.36 1.528-.341 1.32-.767 1.04-.108 1.521.632.74-.171.549-.127.21-.517.188-1.492.089-2.235.355-1.362-.982.14-.945.027-.159-.276.037-1-.278-1.58.692-1.545-.517-1.095-2.187-1.206-.366-.702.308-2.533v-.488l-.37-.588.421-3.522.63-1.466.596-.236.557.246-.108 1.328.236.464.608.277-.045 1.115.06.822.322.358 1.335.876 1.093.396.62.423.403-.326-.102-.684-.3-1.148.259-1.895 1.37-.88.664-.153-.008-.447.54-.798.302-1.11-.34-.64h.762l.112-.09.5-.408.146.06.182.89.336.311.966-.45.57-.601v-.006l.1-.783-.144-.758.001-1.045-.016-.546-.019-.606.502-.353.149-.454-.263-.55.193-.83-.162-.548-.859-.353-.575-.288-.97-1.739-.356-.87-.252-.525.109-1.228-.664-2.166-1.175-1.415-1.685-1.695-.079-.213-.494-1.34.048-.602.147-1.87.007-.09-.113-1.521.263-.067.207-.053.499.19.18.832.76.9.992.065.042-1.081-.432-1.428.974-.856 1.43-.674.162-.584.201-2.6-.266-.837 1.01-1 1.397.013 1.112-.751 3.936-2.44 1.704-.585 1.426.28.38-.056.44-.064.503-.381.033-.754.036-.782-.448-.919-.831-.031-.834-.118-.185-.251-.688-1.023-.865-.485-1.05-.171-.696-.463-.32-.796-.787-1.963.26-.515-.254-.216-.15-.128-.527-.002-.683-.045-1.518.527-.755.918-.327.426.09.756.294.272.25.48.062.444-.19.26-.41-.038-.499.054-.063.007-.95.102-2.399-.174-2.307-2.078-.819.433-.674 1.521.095.436.33 1.51.73 1.315.178.321-.852.272-1.648-.855-.818-.13-.588.314-.41-.294-.384-.544.136-.347-.19-.296-.842-.718-.305-.26-.078-.067-1.493.174-.86-.763-.148-.13-.671-.37-.461-.241-1.03-.75-.798-.872-2.17-.388-1.288-1.276-.475-.854.31-1.881.141-4.933-.088-1.76-.149-2.968-.52-4.647-.034-.169-.776-3.821-.011-.057-.417-2.053-.061-.306-.348-1.714-.628-2.787-.098-1.34-.45-.336 1.083.146.473-.018.422-.017.501-.981.348-.31.619.167 1.256 1.572.764.512.234 1.119-.214.89-.143.596-.368.757.035.06.557.975-.068 1.685 1.896 1.245.28-.1.341-.122.012-.004.216-.077.666-.245.792-.897.959-3.665.39-.46 1.286-.72 2.812-.734.584-1.16.165-.396.372-.149 1.166-.074.455-.545.956-.703.708-.154.673.277 1.74.19.23.026 2.574-1.151 2.705-.598 4.021-.99.498-.149.15-.045.932-.28 1.23-.664.12-.066.95-.574.194-.118 1.44-.256-.276-.577-.34-.711-.895-.689-.792-.61-.301-.08-1.697-.454-.396.015-1.276.046-1.04-.608-.441-.027-1.45-.089-.952-.058-2.165.239-.944.117-.27-.342-.206-.4-.867-1.677-2.94-.17-1.02.184-2.445-1.051-.243-.208.09-.233-.237-.232-.337-.116-.045-.05-.07-.294.24-.407.417-.176.597-.53.401-.662.19-.08.041-.182.026-.112-.602-.743-.378-.204-.238.116-.167-.091-.116-.166-.004-.274.166-.124.042-.557-.951-2.808-.669-.124-.91-.392-.526-.336-.353-.375-.356-.526-.377-.234-.1-.168-.66-.432-.072-.048-.404.064-.237.296-2.866-.352-2.032-.25-1.914.044-2.442.996-.985.977-.374 1.438.167.81.147.712.107.518.33.535.487.765.171.688-.411 1.9-.008 2.557-.001.56.229 1.054.564.084-.254.605.393 1.933.035.784.007.162.969.27.67-.447.546.02.409.496-.161 1.456.033.166.097.482-.374-.054-.352-.264-.118-.088-.692-.584-.846-.714-1.19-.456-.45.226-.046.05-.014.015-.228.245-.395.148-.936.352-.096.873-.819.41-1.884.262-.062-.699.166-1.87.616-2.968.686-6.293.013-.114.115-4.102.057-2.005.076-2.688.114-4.037-.026-2.059-.035-2.707-.015-.192-.227-2.809-.22-2.719-.078-1.048.113-.496.076-.332-.138-.58-.41-1.51-.174-2.09-.232-2.795-.402-3.094-.373-2.876v-.004l-.257-1.987-.124-.635-.228-1.177-.581-2.995-.096-.494-.083-.429-1.296-6.695-.018-.093-.716-1.242-.383-.485-.635-.805-.596-.628-1.643-.29-.427.53-.502-.41-.073-.06.188-.36-.755-3.407-.652-2.572-.605-1.472-.069-.166-.01-.026-.86-.76-.864-.331-.521-.356.023-.726-.434-1.453.116-1.97-.15-1.807-.276-2.05-.68-.93-.09-1.232.187-.708.12-3.02-.172-.858.155-1.552.024-1.253-.092-.967-.075-.414-.195-.094-.094-.014-.146-.083-.069-.153.044-.08.183-.012.216-.093.11-.452-.026-1.36-.048-2.62-.025-.352-.01-.152-.34-4.868-.077-1.11-.018-.269-.116-1.237-.215-2.313-.02-.22-.018-.214-.066-.843-.127-1.626-.276-3.534-.437-3.084-.324-.792-.5-5.095-1.207-6.004-1.585-4.685-.48-5.654-.038-.45-.419-2.368-.53-1.422-.003-.008-.02-.018-1.107-1.047-.754-.712-.3-.559-.06-.842-.287-.405-.324-.175-.275.2-.399.016-.257-.362-.445-.326-.39.21-.36.036-.627-.18.028-.305.416-.083.363-.073.228-.307-.247-.65-.464-1.286-.206-1.087.033-1.56-.14-1.945-.5-1.575-.903-1.067-1.014-.309-.743.191-.726-.824-.308-.961-1.202-.326-.957-.195.168-.493.11-.869-.564-.629-.633-.085-.037-.734-.2-.41-.593-.386.001-.412.004-1.263-.352-.583-.429-.284-.368.32-.5-.217-.227-.43-.438-1.024-.937-.661-.989-.208-.347.597-.535.626-.17-.27-.692.145.268-.613-.036-.848-.137-.12-1.04-.907-.606-.527-.487-.839.083-.57.028-.193.004-.027-.307-1.25-.886-.745-.044-.036v-.002l.031-.468.012-.184.366-1.138.058-.18-.03-.153-.077-.405-.454-2.36-.25-.544-.413-.9-.496-.5-.503-.156-.096-.03-.015-.87.074-.394.021-.115-.616-.716.519-.254-.001-.648-.135-.086-.323-.205-.475.03-.077.006-.406-.497.53-.043.067-.287-.325-.735.429-.553.144-1.038-.22-1.26-.486-.564.113-.654-.198-.831.386-1.496-.013-.153-.085-.998-.187-.548-.133-.39.263-.606-.188-.643.044-.393.115-1.028-.067-.81-.06-.729-.07-.828-.127-.485-.143-.546-.31-.23-.264-.484-.056-.562.301-.385-.154-.51-.28-.435.097-.728.265-1.984.055-.416.534-.562.308-.324.108-.441.01-.045.145-.591-.178-.122-.29-.199-.112-.798.16-.61-.03-.127-.263-1.078-.256-.69-.077-.206-.705-.674-.729-.467.326-.252.236-.765-.437-.932-.378-.807-.14-.301-.054-.232-.186-.815-.195-.858-.095-.121-.715-.911-.261-.333-.13-.54zm1.8-40.22l.627-.054.294-.291.461.511.055.368-.302.283-.85-.4-.506-.1zm-4.482 41.154l.076-.11-.053-.174.125-.117.121.07.153.061.038.137.09.098.117.273.263.253.12.18-.107.093-.038.067-.235-.074-.146-.175-.14-.288-.13-.107-.076-.064-.161-.03zm-.662-3.314l.214.048.242.165.158.08.182.069.072.1-.037.145-.06.072-.23-.077-.035-.08-.032-.077-.174-.105-.287-.048-.075-.127z"/></svg>