<svg height="1000" width="1000"><path class="americon" d="M308.154 368.396l.778.269 2.081 2.627-.385.201-2.278-1.127-.945-1.566zm-24.112 82.768l3.25 1.127-.093 2.43-1.622 1.228-1.408-.627-1.013-3.476zm-3.929 34.283l1.063-1.705-.873-5.38 1.56-2.703.407-6.248 2.049-4.71 1.872-1.218 1.159-4.944 2.633 1.456-1.034 1.694.004 1.233 3.075 3.764-.779 1.363-.338 7.424.211 1.72 1.213.992 3.88.652 2.52 1.978-.608.584-2.84.612-4.46 2.646-1.352 1.848-.755 2.055-.428.121-1.463-.423-2.67 1.589-.262.87-1.424-.131-1.668-.537-1.038-2.225zm-6.745-211.955l.366-.878.026-5.204.385-.873.794.053 1.436 2.914 2.082 2.04 2.045 1.411 1.028.413.576.625.556 3.403-1.218-.635-.748-.723-1.137-.16-2.384 1.26-1.882.495-.548.006-1.014-.556-.307-.466-.222-1.182zm-4.653-13.304l2.838-1.097 1.857 3.624-1.08.275-1.228-.4-1.067-.612-1.475-1.45zm-2.016-19.276l.889-2.975 1.433.956.786 1.151 2.914 5.534.593 1.716 2.097 1.09 2.961 3.775.827 4.578-.857-.131-2.095-1.196-4.249-5.295-1.902-5.504-1.173-1.022-1.935-.048-.318-1.172zm-3.16 25.98l1.892-3.337 1.258-.923 2.227 2.248.298 1.072 2.307 3.953-2.381 4.31-3.288.6-.593-.18-.12-1.65-.638-2.805-.643-.63-.342-.88zm-6.23 62.892l2.297-5.671 2.568-3.326 1.297-4.352 1.909-1.873 4.214-6.81 1.182-3.521.226-4.72 2.362-.609 1.142.267 1.23.716.884-1.144.907-.747.897.33.586.782.102 1.497 1.198.408-.68 5.673.37 1.734 2.275.992 1.628 1.141 4.012 4.007 1.037 1.88.152 1.72-.148.472-1.679 1.596-.399.484-.99.504-2.46.07-.766-.128-1.86-2.35-1.063-.59-1.818-.128-2.26.644-1.013.876.665 1.096-.454 2.382-3.434.632-.135 1.013-1.998 3.24-6.247.84-.609 2.06 1.732 1.59 5.1-1.537 4.358.761.356-.302 2.49 2.622 2 4.042.253.647.293 2.13.805 2.665.775 1.268.95 5.196-.24.948-1.45 1.555-.049.525 1.877 4.472.946 4.451.6 6.507 2.415-1.037 1.105-3.037-.383-3.448.456-2.866-.651-1.052-.903-2.78 1.445-.122 2.605.685 3.324 4.698 1.47 2.575 1.973 1.73 3.581 1.63 1.556.507 1.323-.029.142 5.99.452.993 1.76 2.527.324 2.16.011 1.878-.17.983-1.06 2.775-1.111.85-1.122 1.51.04 2.395-.209.76-.393.326-1.171-.34-.782-1.22-2.613-.047-1.384-.515-1.622-2.816.01-1.06.66-1.827.039-.933-.63-2.035-2.92-4.607-1.749-.471-1.659.584-1.651.992-.396 1.094-.421.325-3.085.908-.577-1.166.148-.652 1.007-1.497.226-1.238-.138-.611-1.96-1.872-2.557-.792-2.889-3.779 1.309-1.341.435-1.47-.09-1.624-2.148-3.013.144-1.184.763-1.488 1.226-3.963-.276-4.386-.765-2.98-.882-1.314-1.827-.824-2.707.025-1.837.848-.742.453-.259-.104-.691-3.498-.713-1.247-2.087-2.23-2.73-1.25-1.059-1.764-2.133-1.102-.757-1.64zM237.556 228.69l4.529.765 6.837 4.928 6.687 3.753-3.17 1.062-5.932-1.711-3.048-1.658-6.276-5.081zm-11.634 15.965l3.669-2.885 1.715-.036.702-.558 1.161-.118.236.617.077 4.339-1.169 1.6-.818.59-2.51.898.107-.52.752-1.152-.04-.838-1.197-1.064zm.265-53.319l6.368.277 1.4 4.451-.794.554-1.46-.663-2.297.228-2.664-.262.012-1.834zM209.549 262.2l.95-1.877 2.154-2.555 3.139-.12 1.384.229.451.485 3.32-.239.955 1.75v.484l-.498 1.048.006 1.1 3.094 1.214 1.619 1.797 1.249 2.342 1.672 1.109 2.155.56 3.253-.035.206-1.422-.375-.847-.599-.647-1.12-.517-1.388.03-1.942-2.132 1.098-.429.213-.873-1.967-2.3-.627.05-.167-1.691 3.046-2.154.993-1.468.131-.866.635-1.308 2.555-2.033.514-.938 4.334-3.46.986-1.635-.09-.68 2.861-1.066 2.766-.144 2.149.612 4.875 2.683 3.441 2.89.242.552 6.535 3.399.103.235-1.594 1.908-3.472 2.343-.98.297-2.15 2.465.06.661 1.067 1.927.01.413-.174.11-.587.993.36 1.874 1.627 1.621 1.69 2.593.067.768-.284 1.043-1.25 1.176-.802 2.585.079 1.31 1.116.972-.262 1.562-2.604 2.444-1.916 1.09-.216.69-.408 4.418.731 1.093.564 1.583.525 1.965-.152.764-1.07 1.091-1.58-.39-5.72.797-1.125-.156-1.13-.736.65-2.326-1.657-.258-1.201-1.163-.483.59-1.2-.088 1.463-2.29-.385-.932-.778-.469-1.325.763-2.87.763-8.97-1.992-2.128-2.143-1.047-1.464-5.95-2.61-2.468-2.374-1.045-1.587-1.285-2.825-.042-1.079.29-.628.12-1.475-1.2-1.63-.4-1.02.105-1.12.488-.642-.067-1.213-1.317-1.462-1.503.057-.54-.735zm-3.068-16.571l2.764.007 1.693.98 1.386.026 1.586.973 2.7 2.235 1.885 2.077.958 1.768 1.73 2.49-1.58.01-1.745-.841-9.15-6.144-2.345-2.617zm-181.22 80.098l3.456-2.29 1.146-2.43.81-2.43.16-1.254-1.457-3.498-.089-.207.82-.987L32 311.107l.588-1.753.95-5.22.846-.148.436-.493.605-1.93.653-3.609-1.164-1.918-3.007-1.73-1.775-3.083-1.48-.968-.379-.936-.043-.884.77-.8 1.095-.581 2.618.344 4.859.083 1.552 1.04.846 1.664.753 1.376 1.554.543 1.334-.57 1.053-.467 1.995 1.463.963-.227L49.61 295l.823.72 1.557.273 1.667 1.154 10.782 8.328 2.007 2.3 1.677.847 2.333-.342 2.1 1.91 4.968 2.038.352.959-.172.198-.099.192.212.263 2.725 1.06.734-.024 1.313-.64.36-.336.21-.655 1.419.51 2.323 1.794 2.878 1.441 5.822 3.762 3.489 1.458 1.04.723-.844 2.928 1.901.774 2.114 1.308 2.379 2.32 8.073 2.846 3.04.076 2.358.974 2.266.411 4.208.045 1.516 1.133.922.151 3.259-.445 6.285.833 2.627-.831 3.285-.108.032.347.329.316.822.135 1.482-.743.002-.43.446-.144 3.534.937 2.424 1.169 1.636 1.276-.534.713 1.38 1.3 4.445 1.03 2.025-.913 1.712-1.667 1.125-.057 1.863 1.103 1.38 1.9 1.746.762 4.026-.175 2.178-.938 1.831-.248.111.137-.504 2.997 1.985 1.211 3.467.87 4.053-.066 3.311.693 2.151-.019 3.182-1.13.922.71 1.321.286 2.4.188 1.144-.38 2.678-1.458 3.187-2.789 3.405-3.748 2.407-1.663 1.351-.17.099.463-.881 1.416-.557 1.721 1.361.76.787-.09.957.627 3.503 4.271 2.184 1.292 1.713 3.218 1.202 3.913 2.651-.627 1.527-.84 2.973-.823 3.964-.278 1.997.502 1.283.896-.38.576-.794 2.469-.219 1.314.086.273.03.098.927 1.172 4.766 2.21 1.774 4.65-1.967 4.407 2.964.159 1.4-.982 1.042-3.092.734-4.83-2.529-1.363-.907-2.168-2.35-1.936-.248-4.402.76-1.76 5.289-3.943 5.875-1.263 2.797.073 1.166 4.707-2.951 1.678-.632.102-1.779 1.514-.695.81-.386.852 3.392 6.213-.035.982.429.66 2.928-.77.307-.838.2-2.664-.212-.33-.737-.002-.104-.236 1.933-3.318 1.789-1.05 2.421-.881 1.319.31-.558.855-.14 1.707.852 7.919.56 1.157.942.807-.218 2.623-2.088 1.498-.375-.036-.797-1.2-.544-.223-2.617 1.314.476 3.64 1.884 2.705 2.143.223.494.785.24 1.644-1.117 2.567-.004.793.277.577 2.283 1.111.558-.058.718 1.84-.385.89-.21 1.919.948 1.87 1.046.901 2.212.037.996.556-2.654 2.123-.288 1.13-.311.381-1.653.347-1.921-.727-3.256-.225.273 1.415 1.046 1.773-.341 2.056-.634 1.28-3.84 3.116-1.498.523-1.993 1.553-.5 4.713-1.002 2.848-.163 2.079-3.099 7.373-3.81 4.122-2.298-2.892 5.727-17.05-2.256-8.547-.934.693.392 5.078-3.89 5.175-4.624 9.92-2.294 8.062-9.6 10.247-.971 1.514-16.503 25.626-6.89 17.966 1.837 1.568 3.624-2.523 4.641 2.202 5.051.36 5.804-3.954 5.529-1.294 3.349-.88 4.225-3.719.761-2.207-3.486.186-1.929 1.32-7.491 2.787-4.456 2.92-5.37 1.554-3.42-1.29-3.591-.413-.439-2.776 11.33-18.294 2.307-4.05 6.462-11.372 6.316-5.962 7.49-4.81 6.28-.389 6.172-2.986 2.173-11.426.866-.212 1.32-1.94.447-2.146.642-1.256 2.973-1.691.924-3.56.264-.4 4.227-4.143 3.053-1.848 1.132-2.555.816-1.021 4.112.012.185-2.93-1.38-5.028-.15-1.945-.9-1.333-2.401-.973-.385-1.157.446-1.304.615-.293.961.09 2.863 2.72 3.508 1.342 2.466 2.443 1.45 4.518.028 3.014.574 5.743.43.969 2.277 2.025-.031 1.113-.367.899-1.258 1.214-.084 1.84 2.736 3.796.069 1.58-.23 1.29-.684.652-1.35.379-2.294.013-.898-.19-.479-.43-2.146-.247-2.06.175 1.11 6.239 1.42 1.147.612-.026.247-.514 1.533-.062.724 1.735-.072 2.359-.613 2.659-1.281 3.431 1.855 2.256 1.042.744.01.987-.246 1.055-.74 1.008.12 3.496.455 1.673 1.202.446.546.568-3.013 1.398-1.774.127-2.014 1.342-1.085 1.706-.037 3.298-.65 1.686.038.842 1.64.307 1.2-.277 2.65 1.659.647.92-4.577 7.185-.445 7.167-1.915 4.514-.649 1.528 1.574 3.379-1.867 2.85-.605 2.126-2.018 3.55-.568.121.215 1.44.283.512 2.378 4.587.28.933-3.935 5.309-1.418 3.105-.265 1.67-1.536 1.772-1.395-.66-1.442-2.7-4.786-6.427-2.82-1.832-.57-.73 3.61-10.546 4.602-4.604.328-1.025-.795-.288-3.992 1.792-6.835 6.223-2.616 5.846-.69 3.683 3.618 4.873-.92 2.495 1.924.78.495.2 2.358-.15.641.24 1.444 1.455.922.772 1.3.707.762 1.935-.34.954-1.624 1.022-2.501.33-.336 2.042.674.913-.125 4.433-.31 1.408-1.08.333-1.13 1.601-.253.842-.95.323-1.135-.731-1.165-1.742-2.416-2.673-.89-1.002-1.535-1.727-.942-.217-6.827-13.964-1.16-2.567.197-1.798 1.097-1.059 2.088-.391 2.235-2.2.698-9.334-.746-2.432-.098-.32-2.037-1.205-.484 1.708.464 4.57-.38 1.45-3.018 3.686-2.391 4.935.623 6.55 1.965 4.642-2.807 7.108-.166.42.95.26 4.715-2.499 4.322 10.288 6.373 3.847 2.4.045 2.878.054 3.56-4.973.698-.445 1.084-.042-.444-2.445.686-2.63.606-.64 1.989-.182 2.984-1.485 1.484-5.726 2.491-5.93.183-.337 4.316-7.974-2.268-4.537.05-.236.874-.107.822.372 7.203 7.307 3.257 2.018.793-.207.996-.26 1.477-2.103 1.12-1.174-.514-.978-1.248-.69-.992.231-1.46-.84.236-1.05 2.443-2.196.647-.243 6.648-2.502 3.33-.859 1.51-1.216.16-7.68-.27-1.637-.772-1.42L302 476.07l-.297-2.007-.395-2.662-1.4-1.069-1.923-.587 1.877-1.486.95-3.931-.426-1.265-2.49-2.554-1.108-2.361.375-1.7-.366-4.53-1.26-3.4-1.313-1.316 2.372-1.322 1.842-2.039 1.34 1.929.619.396 1.445-.258 1.88-1.075.46-1.392-.588-1.806-2.652-2.786-2.14-1.416-.928.091-1.242-.562-1.21-1.087-1.698-3.478 2.777-3.678.54-1.638 1.347-2.122 1.583-1.283.526-1.3.477-2.246-1.01-3.582.347-1.662-1.61-2.5-.2-1.023-.062-.322.403-4.188.375-.77 4.842-5.684.81-.292.815-.737.512-.976.356-1.233.514-1.783-.034-1.05-.375-.891.706-3.12.884-2.442 1.404-2.317.144-.707-.12-1.356.564-2.186 3.496-1.196 3.472-.414 2.323-1.952.472-.962-.652-2.03.372-3.444.204-.938.474-.723-.727-2.38-5.735-3.732-2.792-4.293-1.807-2.21-.477-1.326-2-.915-2.274-4.752-.135-.34.259-2.999-.058-1.52-.566-2.417.862-1.679.252-2.321-1.2-1.011-1.046-2.537-.357-1.913-1.088-1.945-.069-.124-3.453-.774-.569-.615-.374-.07-1.895.631-.51.645-.002.36.405 2.161.59.06.31.499-.054.428-1.605 2.197-.846.59-.333-.302-.649.11-1.019 1.013-.138 2.193.319 1.594 3.715 6.523 3.524 3.26 3.645 4.72 2.105 4.67.2.965-.572.262-1.642-.596-1.206-1.398-.34-.774-.253-1.607-.82-1.235-2.611-3.237-3.002-2.083-2.004-2.972-1.25.185-1.09 1.397-.387.044-2.52-2.46-1.057-4.974-1.58-3.973-.022-4.605.621-2.34.027-3.053.563-1.683 3.258-1.156.486.096.204.58.496.257 1.475.115.782-.595 1.003-2.512.341-.154 6.653 3.565.091-.061 1.263-.84.465-2.19 2.517-3.14-.552-1.484-.154-.27-.677-1.183-2.732-4.051-1.76-1.47-2.162-.717-3.72-4.035-.798-.353-1.794-.086-1.128-.544-2.93-3.435-.61-2.466-.927-.514-.785-1.12-.31-3.684.93-2.214-.678-.908-1.293-.148-.821.26-.844 2.463-3.722 1.786-5.001 1.083-1.198-1.003-.975-1.506-.451-2.63.251-.804.333.144.002.239.806-.06 1.54-1.989-.205-3.347-.768-.95-2.88.107-.863 2.1-.015.749-.61.492-1.115-.746-.21-.463.03-2.592 1.469-3.274 2.09-1.949.622.26.234.597.644.116 6.707-2.816.967-.09.812.247.112 1.558 3.532.841 1.25 1.713 2.063 5.758.524.143.705-.318 1.377.487.41.676 1.24.214 3.453-1.612.267-.249.014-.493-.448-.862-.583-.374-.473-1.911-.06-3.046.213-2.164-.124-1.105-1.353-5.024-.64-1.541-2.432-.548-.763-.26-.282-1.002.003-.303 2.635-.271 1.91.452.8 2.023.67.912.462.08 4.032-1.763 1.42-1.982 1.026-3.13-2.586-4.182-1.795-.614-2.525-3.173-.204-.403-.569-1.125-.706-.834-.657-2.417-1.157-7.716.48-1.378 1.167-.58 1.294-2.212.663-2.413-2.34-1.255-.242-.245-1.698-1.72-.83-1.392-3.663-.683-3.465 1.222-.152.347-1.09 1.785-2.548 2.456-1.15 1.535-.133.564 1.29 2.095 1.556 1.123.697 2.478-.061.441-1.09.79-.603.01-1.153-.573-1.77-2.082-2.98-4.555.87-2.68.72-.944 1.734-3.47.251-1.32-.095-.618-1.133-.04-.358-.288-2.268-2.96-1.548-.369-.423.277-.186.396-.138.986-.019 1.032-.462.465-.78-.013-.122-.933.43-4.64-.198-2.582-.501-2.63-.61-1.027-7.056-5.987-.81-1.423.082-.315 1.023.06 3.884-2.762.47-.746.29-.984-.07-1.68-.986-1.44-1.186-.633-.497-.122-2.061 1.82-3.495-1.45-.375-.424-.069-.628.691-1.92 2.498-3.253 2.734-2.705.925-.072 1.193-.868.053-.461-.208-.511 40.441 1.627h.213l17.897.577 17.64.625 40.086 1.93 41.12.42 5.811-.075 10.211.293.658-.004.267-.13 2.203-.009 11.982.116 7.659.23 9.364.143 14.747.14 15.58.111 39.35-.025 43.352.01 14.449-.32 20.134-.218h.092l28.147-.458 3.354-.062 33.677-.742.598-.009 34.11-.94 73.935-2.683 22.49-.991.113.088 13.474-.63.953-.158 31.02-1.618 20.524-1.036 18.616-.999-.005.02 16.41-.83 10.805-.732 1.42 21.852.287 4.994.974 17.022 1.006 16.394.24 5.008.07 1.368 1.252 21.329.803 12.323.003.052.08 1.178v.073l.594 9.1.004.06 1.437 28.837.148 4.175.002.066.037.512.003.047.006.096.02.385.035.156.02.583.371 8.696.411 6.98.42 7.079.701 12.087.114 1.959 1.43 22.59.245 2.945.49 7.772.086 2.153.015.29.03.653v.065l.25 2.794.002.178.16 1.56.138 2.237.19 2.898.276 4.123.049.567.02.323.001.008 1.254 18.492.139 2.776-.009.058.352 4.498.085.95.063.928.577 7.922.162 2.584.328 5.062.256 4.004.16 2.373.242 4.312.113 1.568.244 3.366.984 15.681.402 6.022.256 3.968.247 3.824.316 4.842.317 4.905 3.486 53.91.099 1.856 1.382 20.648 1.8 28.418.796 12.572.027.397.082 1.233.423 6.7.436.482.28.753-.008 1.5-.087.406-.206.33-.303 1.977.01.547-.47 2.302-.286.516-.272.23-.663.81-.396.683-.187.457.139 2.097.027.197.28.615.626.59.547.27.793.192 1.382.122.48.15.382.258.517.468.1.213.123 1.034-.06.467.134 1.12.112.482.233.468.57.606 1.179.995 1.296.304.972.615.418.467.303.695v.536l-.634 1.734-.043.347.061.38.507.595 1.49 1.14.464.465.31.348.493.747.337.636.825 1.927.577 2.03-.037.889-.35 1.137-.712 1.92-.031.355.139.73.403.649 1.388 1.023 1.434 1.439 2.385 2.394.298.543.112.537-.124.741-1.38 3.403-1.408 3.09-.214.453-.032.836.056 1.389-.393 1.64-.497.61-1.798.362-.35.211-.222.185-.331.537-.076.283.026.353.117.802.436.86 1.155.51.863.1.342-.103.391.136 1.192 1.282.822 1.2 1.626 3.758 1.347 3.779.764 3.285.228.583.163.2-3.105.051-5.672.248-8.198.557-2.356.031-17.88.976-.24.015-.276.01-15.164.857-2.014.538-4.64-.137-6.17.35-4.407.383-.026.009-.595.03h-.003l-3.102.094-12.338.574-14.394.585-32.614 1.455-2.402.1-16.219.827-.605.027-1.887.007-10.402.497-.96.04-2.001.077-.482.024-3.41.078-3.946.221-6.63.235-1.326.061-11.598.435-3.298.126-5.034.145-4.051.158-.793.038h-.527l-3.376.107-3.884.12-.202.002-2.433.09-2.405.086-33.067 1.095-5.759.293-2.589 3.796-2.274 1.896-4.274 2.034-3.92 2.958-4.093 1.894-5.434 1.086-3.277.03-3.823-.788-3.981-1.212-8.197 1.402-5.227 2.206-8.484.775-2.31.209-4.693 2.087-4.642-.332-5.964-2.948-3.628 1.123-2.836 2.57-5.723 8.918-12.97 2.226-3.755-.306-8.236 2.192-1.009.236-3.94 1.235-7.35.755-4.242 2.191-.207.107-8.678 4.916-8.985 2.235-3.668 2.051-5.065 6.552-9.035.888-.823.203-5.11 1.664-9.483 2.156-9.932.874-2.976-1.018-2.037-1.78-4.739-5.175-4.007-1.495-5.542.11-2.358 1.553-1.942 1.278-2.606 2.582-4.415 1.684-8.217 3.617-8.485 2.608-1.836 1.855-3.265 3.293-2.275.507-.303-.238-3.54-2.772-1.153-.065-3.17 1.312-.7.175-3.031-.916-3.319.368-3.901-.326-2.618.815-4.512 4.438.37.915-.658.364-1.252 1.128-.951-.411-.778.73-2.838.286-2.03-.09-1.588-1.882.2-2.325-.599-3.695-1.899-3.912-4.468-1.363-4.555-1.635-3.113-2.391-3.224-.964-4.412.258-3.727 1.789-2.764-.25-2.2-.636-2.747-.795-4.528-3.621-2.927-.753-1.349-.366-12.497 3.703-4.707-.184-4.981 1.748-3.518.055-9.59-2.547-7.137 2.26-4.505 3.97.083 1.583-.977 1.354-1.797.916-1.663.845-2.112-.201-.5.238-1.047 1.926-2.103 1.382-.422.356-2.656 1.172-2.4.07-2.798.94-7.419 4.494-1.368.34-1.75-.274-.001.008-.416-.085-.007.004-1.414-.33-5.494 1.06-2.368 2.385-6.11 2.774-1.753.562-.521.07-3.587-.07-4.622-1.017-2.568-3.944-3.45-1.306-1.47.2-2.447 1.166-3.58.601-1.907-.749-2.562-2.094-.58-.287-1.62-.702-3.942-1.307-3.056-1.417-4.167-1.47-2.663-.779-5.223-.596-3.882-1.67-1.977-1.3-2.729-2.422-3.09-1.35-2.983-2.362-.171-.136-1.17-4.281.406-3.467 1.536-5.189.308-1.041.026-4.49-.85-3.922-3.056-5.469.075-2.72 1.448-3.415.073-1.143.199-3.101-1.512-3.081-1.46-5.21.826-3.529-.75-5.207-2.809-3.717-2.049-6.183-2.612-3.162-.56-5.273-2.264-4.347-7.151-4.148-4.946-5.481-.631-.432-1.562-.63-1.413-1.014-.917-.409-1.156-1.366-6.523-4.676-1.29-1.437-6.27-.988-5.975 2.662-2.325 1.034-2.594 1.616-3.725 1.902-2.61-.102-3.895-.482-3.907-.248-.974-.063-7.061-6.803.882-8.54-2.279-3.83-2.484-2.796-.725-.638-.584-.268-2.67-.491-1.91.766-1.299.421-1.485.419-1.207.2.07-1.167H143.7l-.589.494-2.163.174-3.977-.143-6.89-1.651-1.136-1.094-.059-.986.344-1.52-.04-.77-.167-.968-.859-.633-1.55-1.186-2.967.561-.039 1.1-.542.942-.094.163-1.586-.378-2.42 2.596-.903.228-1.03-.264-.88-1.072-1.557-.87-1.327.081-9.138 7.331-4.138-1.3-1.212-1.114-4.02-4.924-1.703-2.715-.155-.456.134-.982-.471-.702-1.258-1.164-1.944-.892-2.366-.606-1.255 1.256-.844 2.016-.558 2.341-.744 1.35-2.072-.653-2.592 1.906-.165-.359.125-.995.948-3.872.717-1.578 1.102-3.79 1.508-10.662.394-4.092 1.075-15.089.159-11.318-.245-8.17.214-5.256.166-.75.825-1.332.805-.497.991.035 1.366 2.795-2.17 1.299.164.98 2.396 4.915.543 1.565-.17 3.313-.748 5.814-1.133 6.274.301 6.045.315 15.236.915 1.364 2.858-1.112 2.57.526 1.293-.3.845-5.625-1.513.156-.543-1.268.415-3.136-1.3-1.53-1.414-.779-.059-3.246.001-.49-.372-.59.423-3.534.631-1.471.6-.237.558.247-.108 1.333.862 2.687.323.359 3.058 1.7.405-.327-.404-1.838 3.138-5.302 3.2-2.484.002-1.048.469-1.51-.946-2.745-1.551-2.034-.358-.872-.143-1.76-.666-2.174-1.18-1.42-1.938-1.432-.327-1.826.089-4.098 2.519-.644 2.413-1.535.162-.587-.066-3.45 1.014-1.003 2.518-.74 3.949-2.448 1.71-.588 2.254.16.538-1.139-.414-1.706-1.856-.402-1.56-1.513-1.053-.172-.698-.464-1.785-3.633-.685-.045-1.524.53-.757.92.019.722.289 1.22-.54.668-1.516.164-2.408-.175-2.315-2.085-.822.434-.676 1.527.426 1.952.912 1.642-.855.273-1.654-.857-.82-.131-1.2.926-2.25-1.345-2.332-2.15.078-.488-.491-.556-1.956-1.568-2.178-.39-1.293-1.28-.476-.857.311-1.888.14-4.95-.088-1.765-.15-2.979-.522-4.664-1.287-7.896-1.546-4.73 2.591-1.052.866.035 1.969 2.175.293 1.039-.2 4.98 1.902 1.25.852-.304.668-.247.794-.9.963-3.677.391-.462 1.29-.722 2.822-.737.587-1.164 3.124-1.875.71-.154 2.653.494 5.297-1.755 4.035-.993 2.872-1.362-1.805-2.36-1.528-1.509-1.044-.61-2.853-.174-2.172.24-1.047-.443-1.248-1.867-3.974.014-2.454-1.055-.844-1.136 1.258-1.117.66-1.04-1.344-1.49.042-.56-.955-2.817-4.68-2.283-4.915-.604-1.921.045-2.45.999-.99.981-.374 1.443 1.002 5.95-.009 3.126 1.33 4.958-2.105.502-2.254 1.789-2.662.368.876-2.682.618-2.979.7-6.429.363-12.877-.061-4.783-.464-5.739.24-1.64-.34-.378-.34-1.963-.407-4.901-1.037-7.989-2.435-12.56-.613-1.444-1.279-1.413-.446-.315-1.648-.29-1.576-3.72-.654-2.581-.687-1.67-.863-.763-1.39-.69-.413-2.186-.034-3.79-.862-4.937-.066-13.071-.442-8.004-.12-2.17-.343-.368-.41-6.254-.438-3.094-.325-.795-.502-5.113-1.212-6.025-1.59-4.7-.52-6.126-.421-2.377-.536-1.434-2.536-3.595-2.098-.439-.545-.534-.294-4.98-.642-3.532-.907-1.07-1.018-.31-.745.191-3.036-2.808-1.923-3.538.004-1.267-.353-.586-2.909-2.303-2.51-.573-.138-.12-1.651-1.44-.49-.84.116-.794-1.336-6.944-.665-1.45-1.115-1.562-1.016-2.39.44-3.163-.505-5.977-.087-3.62-.197-2.376-.271-1.034-.576-.717-.19-1.898.418-3.14.845-.889.264-1.08-.716-2.944-2.605-7.023-1.075-1.37-.131-.543z"/></svg>