<svg height="1000" width="1000"><path class="americon" d="M918.11 366.694l.375-.582.73-.24.251-.636-.265-1.586-1.313-3.5 1.395-6.594.75-1.224.45-.063.585.714.43 1.27 1.537.612 3.573-.428 2.167-1.158 2.34.261 1.282 1.274 3.232-1.284.108-1.172-.369-1.948.294-.537 1.694.227 1.066.835.723 1.965.133 1.146-.403.283-1.438-.346-.888.468-2.268 3.55-1.465 3.958-1.443 1.318-.465 2.471.468 2.472-.42 1.629-.853.535-1.855-.18-1.013.724-.567 1.365.59 3.134.067 1.853-.393.666-.746-.3-1.498-3.073-1.835-2.396-1.797-1.732-1.579-.373-1.246-1.372zm-59.215 34.671l5.876-2.846.445 2.548-.356 5.415 1.461 3.201-7.407-3.766zM412.064 40.213l1.13-2.066.325-2.282-.226-4.087.308-1.914.847-2.547 1.649-1.507 2.78-.81 3.035.103.212.253.098 1.643-.188 1.417-.867 2.91-.46 4.318-1.398 2.474-2.23 1.522-4.837 2.196zm-8.571 25.681l4.062-3.32 6.737-2.405 1.327 2.026-3.844 4.447-4.721 1.75zm-17.507-10.192l2.454-3.574 4.662-1.886 10.096-3.164.763.19 1.612 1.278.473.936-2.253 4.293-1.583.836-.644.735-.516.983-.047.96-.285.327-.452.242-.58-.253-.557-.417-1.647-.347-9.492 2.664-.974-.349-1.458-2.235zM370.49 73.107l1.73-4.779 2.713-2.206 7.343-4.81 1.418 1.559-1.076 1.808-6.08 3.287-3.818 5.837-1.507 1.013zm3.258-25.498l3.518 1.448 2.814 4.239.716 3.932-6.707.473-3.831-6.639zm-4.883-12.316l2.315-1.788 10.21-1.96 5.11-2.203.91 2.76 4.793 6.962 4.643-5.366 2.03-.62 2.188 4.02-1.195 3.744L392 42.334l-3.437 4.081-5.265 4.422-5.53-7.465-7.727-3.582zM366.12 84.05l.19-.226 4.45-2 3.584-.768.633-.836.119-1.238.976-1.102 1.206-.973 5.2-2.623 2.594-1.916 1.94-2.091 1.304-2.137 1.693-1.709.784-.316 1.933.38 2.081 3.011 2.406 1.73.153.501-1.322 1.128-.872.364-4.097.338-8.742 3.763-1.022 1.153-.356 1.683 2.179 1.151 2.057.091.331.293.09.663-.707 1.157-5.506 1.311-2.784-.726-1.056.738-2.202 2.77-3.423 2.625-1.065.371-2.417-.092.817-3.994-1.076-1.737zm-25.88-41.383l4.565-1.01 1.358-2.036 1.567.148.695 2.92-1.323 4.826-4.14.17-2.527-2.105-.468-1.584zM60.844 310.92l.24-1.024.018-.695-.115-.466.18-1.05.216-.374.344-1.808.263-.934.58-1.235.4-1.975.35-2.81.852-1.552.022-.104-.224-.528.551-2.49-.084-.653.097-.495.536-.6.461-.31 1.329-.118.362-.12.063-.11.056-.656.233-.23.832-.041.3-.162.767-.533.753-.026.251-.11.457-.58 1.414-1.037.526-.111.46-.278.68-.649.221-.465.215-.418.59-.333 2.121-2.063.559-1.797.351-1.94.526-1.507.689-1.039.55-.544.978-.62.433-.535.198-.527.03-.954-.253-.89-.242-.518-.36-1.445-.085-.497.107-.598.53-.73.338-.288 1.526-1.03.526-.124.846-.952.115-.26.572-2.35-.009-.87.399-.957 2.007-3.13 1.313-1.56.718-.622.647-.226.615-.03 2.227-1.43 1.07-.448.135-.221-.118-.716.103-.23.872-.816 1.61-1.297.503-.285 2.43.095.105-.286-.17-1.347.037-.217.165-.12.362-.079.985.506.222-.046.74-.48 1.192.193.89-.694.864-.515 1.767-.112 1.41-.854.827-.342.732.026 1.242-.53 1.336-.07.112-.115.236-.976-.08-.769.193-1.477.202-.21.406-.2 1.21-1.526 1.065-.793.507-.25.724-.163.36.076 2.38.916 1.603.985.91-.022.718.419.948.257.493-.154.718-.473.489-.627.024-.161-.314-.28-.098-.193-.024-.538.316-.564.875-.452.47-.528-.007-.67.112-.326.213-.537.302-.359.824-1.382.015-.537.34-.89.99-.994 1.035-.572 1.142-.469 1.435-.036.335.144 2.154 1.552 1.54.582 1.256.638 1.496.29.598-.038.904-.427.266-.256-.031-.411.07-.595.119-.352.434-.352.317-.397.08-.222.24-1.226-.11-1.314.039-.425.332-.485.424-.945.068-.416.477-1.473.373-.657.464-.498.285-.186 1.242-.585 1.815-.564 1.16-.07.667-.257.03-.814.382-7.27.351-8.914.077-1.95.098-2.712.426-9.113.16-3.986.517-10.454.034-.585.078-1.294.024-.571.052-1.36.018-.179.044-.958-.009-.53.84-19.496.033-.747.113-2.272.432-9.558.164-3.437.128-1.716.91-20.554.18-4.141.246-7.82v-.016l.024-.556.144-.423.539.186.003.92.105.516.337.32.727.072.564.269.185.948.29.441.647-.034.934-1.209.448-.308 1.895 2.02.973-.124 1.02-.55.697.089.971.612.562.002.759-.378.698-.605.11-.323-.064-.473-.415-1.202.214-.44.672-.648 1.033-1.287.704-.422.879-.23.558-.632.233-.583-.024-.798-.183-.334-.7-.723-2.147-.27-.92-.487-.035-.86.152-.3.45-.37.601-.323.603-.711.293-1.01.346-.252 1.42.22.647-.076 1.001-.511 1.66.883.902.199.343-.15.773-1.87-.27-.603.066-1.325.794-.97 3.049-1.74 1.178-.056 2.614.08 7.449 8.513 1.88 1.071.717-.47 1.01.33 2.722 2.612 1.983 1.36 1.58.853 2.628.626 7.917-1.821 4.144-.298 2.386.627 2.84-.004 4.215-.78 5.76-2.765 14.731-4.771 7.783-3.772 2.31-.577 3.182.461.005.002 1.993.236 3.654-.442 1.612-.73 1.046-1.077 3.121-.374 2.938-.818 3.626-1.715 1.703-1.48 1.9-.272.942.23 3.182-.661 1.141-.85 1.25-1.862 1.997-2.05 3.315-1.78 1.764-.676 5.1-.615 1.292-.57.842-.848 2.608-3.796.844-.71 2.126-.608.57.215.399 1.44.582.992 2.999 2.056 1.493-.07 2.835-3.677.529-1.462.584-.579.763.161.176.442-.482 1.9.21.41 1.638.608 2.463-.245 1.26-.772.473-3.733.401-.56 1.392-.165 1.753 1.116 2.134-.574 1.856-1.576.472-.88.33-1.923 2.173-1.682 1.96-.922.883.063.52-.317 1.496-1.61 1.569-3.172.752-.518.494.036 1.417 1.115 4.529 1.527 1.117-.405.756-1.598 4.086-3.354 1.191-.6 2.125-.191 2.51 1.016 7.155 6.426 4.243 5.801.5 1.075-.039 1.033-.525.622-.957.335-1.218 1.384-1.556 3.508-2.613 7.274-3.794 3.878-.35 1.31-1.078 1.545-2.926.133-1.006 1.682.551 1.352-.422 1.187-.607.751-2.604 1.605.197 1.912 1.74 4.866 2.4 4.88-.177 1.248-2.093 2.639-2.471 2.002-3.586 1.43-.559.946-.869 4.288-.034 1.177-.52 1.252-2.051 3.458-1.555 1.066-.278.476-.004.734 1.31 1.783 2.031.707 1.274.443 1.186.095.598-.158 4.612-3.542.85-.127 5.39-2.809 4.835-1.741 3.481-2.236 2.12-2.046-.118-3.74 1.193-1.051 1.253-4.102.327-.462 5.885 5.769 9.272 8.4 5.79 4.965 3.917 2.796 1.196.471 1.628.641 1.762-1.177 2.757-.523 4.488 3.196 5.06 2.636 2.742-.92.35.601.134 1.197h.019l.932 1.045.3.955.497.658.224.002h.054l.18.338.437 1.316.038.486.273.273.858-.208 1.804-1.121.634-.27 1.178-.172.55.241.094-.065.186.058.299.567.274.1.206-.053.093-.151.286-1.84.453-1.02 1.046-.4.706.168.607.62-.073.453.189.389.279.114.6-.137 1.338 1.423.072.515-.229 1.666-.364 1.002-.473.437.106.883.434.232h.007l.179-.186.686-.258.163-.017.422.217.741-.075.546-.207.016-.21.206-.223 1.003.44.322-.003.637-.693.081-.322.173-.13.634.69.087.282-.391.885.6.765-.002.191-.019.245-.019.27.07.18.24.04.274-.037.194.233-.001.232-.019.258.316.216.354-.007.261-.134.211-.251 1.263-.125.302.108.374-.082 1.002-.38.664-.553.172.029.134.35-.217.682-.015.266.096.332.224.034.9-.366.256-.004.553.339.242.372.002.36.429 1.604 1.08 2.495.32.431 1.172.738.617.713.05.187-.112.224-.365.284-.183.504.356.609.223.23 1.242.476.156.749.182 2.567.466.184 1.077-.037v.11l.054.356.435.61.673 2.447.05.444-.108 1.375.156.917.689 1.639.646.418.215.421.343 1.424.696 1.078.585.572.182.02.242.178-.343 1.283-.001.006.11.64.4.538.637.475.506.674.023.201-.005.279.07.23.186.086.171-.006.01-.001.122.106.278.837.012.922-.103.238-.32.2-.126.427.058.278.088.181.11.395-.097.523-.23.213-.041.108.018.187.107.075 27.063 7.615 1.467.41 1.259.272.242.075 20.364 5.67 13.747 3.676 4.147 1.203 14.862 3.924 5.415 1.555 31.154 8.304.056.014 8.058 2.09.258.064 1.783.504.337.075.287.117.967.29 3.939.983.732.204 5.227 1.413 4.781 1.16 14.473 8.196.011.006 6.058 3.395.78.45 1.516.845 11.885 6.619.264.285.13.346.545.832.481.388.374.184.39-.04.53.135 1.577.656.595.467.155.196-.026.13.528.136 1.443-.469.756.01.09-.26-.074-.407-.645-.64.623-.768.632.326 1.05-.157.743.156.088.12-.005.493-.678.943-.046.283.026.42.274.893.317.223.53-.113.909-.644.138-.332.052-.131.097-.093.071-.053.134-.055.135.01.206.024.541.425.205.051.328-.137.312-.476.259-.237.81-.473.909-.331 1.332.128.846.397.536.5-.011.699.442 1.083.765.109.37-.756.796-.398.852.03 1.018.484 1.198.23.598.116.66.595.476 1.11.217 1.052-.118.003-.042.192.562.804.514.358.05.173-.102.22-.056.31.161.15.116.07.226-.024.504-.108 2.913.817.27-.04.095-.504.11-.092 1.44-.166 1.08.164.312-.229.15-.384.17-1.685-.009-.93.535-1.586.468-1.078.352-.3.477-.017.617.496.083.138.076.585.476 1.218.11.105 1.178-.42 1.069-1.02.195-.417.854-.412 1.5.11.615.411 1.375-.214.29-.219.57-.696.182-.38-.047-.2.2-.067.82.058.512.254 1.213-.117.73.136.336.17.146.235.058.769.902 2.63.195.008.274.277.004.15-.161.399.105.246.719.595.825.225 1.104-.205.42-.223.27-.383-.171-.395.053-.447.535-.474.759.044.99.238.623.367.078.275-.04.565.58.65.227.078.804-.21.478.033.575.463.26.387 1.143.399.397.435.17.357-.094.336.394.355.5.281.293-.04.517-.767.17-.118.991-.338.548.172.533-.039.908-.496.613-1.135-.144-.433.712-.311 6.64 4.495.659.567.27.381 1.138.806.513-.222 1.063.296 1.241.62.586.475.26.508.412.016 1.266-.857 2.118-.559 1.278-.453.39-.68.23-.171.67.059-.002-.087.144-.024.406.127.08.872-.077.44.134.5.199.405.288.357.415.27.943.294.734-.082.595-.23.23.034 1.03.282.569.484.226.045 1.098-.22-.07-.956.62-.688.185-.053.622.097.318.099 1.716.99.369.443.441.784.372.305.884.202.117-.148.629-.026 1.79.71-.002.231.074.11.725.6 1.97.85.197.304-.177.299-.018.165.18.182.65.131.477-.096.234-.124.21-.112 1.524-.034.256.043.948.912.17.426.018.262-.535.334-.387.386-.346.774-.14.51-.04.737.049.763.08.1.612 2.67.245.465.634.217 1.69-.294.318.126 1.156.972.142.744-.236 1.473-.335.22-.596-.24-.135.035-.325.525-.312 1.037-.19.335-1.319 1.223-1.122 1.905-.342.336-.376.074-.354.281-.89 1.038-.294.716-.68.515-.806.86-.195.302-.13.553.666 1.565.354.405 1.963 1.004.937.07.293.178.327.517-.015.26-.11.265.49 1.261.528.224.83.903.79.17 1.264-.096.206.137.304.533.624.255 1.98-.164 1.091-.091.293-.335.538-.26.526-.582.075-.575.068-.083.882-.07.354.106.56-.011.512-.205.845-.516 1.513-.001.767-.419.81-.306.634-.015.236.108.284.35.84 2.055.296 1.217-.117.395-.227.087-.397 1.065 1.395.48.635.12.803.443.452.647-.095.278.192.249.606.153.683-.241 1.492.148 1.361-.19.765-.496.368.145.682.51 1.864-.34.159-.209.271-.028.176.035.29.242.212.276.21.621.244.196.336.032.578-.387 1.378-.203.35-.026.582.174.382.695.758.169.6.755.178.53-.115.093-.02 1.137 1.351 2.047 1.283.936 1.403 1.023.863.374 2.774.638.324.208.642.673.128.38.013.29-.564.687.02.127.62.782.463.38 2.09 1.293.824.817.226.548.052 1.005-.026.315-.084.139-1.957.48-.5.266-.601.776-2.827.888-.094.171.045.432.194.364-.022.4-.262.6.132 1.247.341.306.667.316 1.062 1.028.903 1.984 1.124 1.051.128.312.07.663.574.408 1.626.378.502 1.092.302 2.34-.06 1.92-.56.604-.62.38-.151.24-.099.303.09 1.33-.092 1.44-.051.414-.284.394-.207.223-.737.221-1.241-.102-1.121-.432-2.279-.652-.331.166-.23 1.145.115.628.103.14.758.618 1.244.677.758.688.99 1.011.588 1.06.014.258-.146.551-.002.646.13 1.35.365 2.14.568 1.617.816.227.106 1.04-.084.332-.397.778-.178.67-.037 1.014-.074.295-1.096 1.294-.055.428.241.537.025.256-.78 1.094-.202.398.015.4-1.133.913-.906.424-.702.66-.073.296-.406.578-1.254.558-.343.888-1.116.622-.87 1.46-.025.29.292.709.005 1.255.67 1.502.662.593.197.286.143.441.096 1.163-.223.41-1.158.657-.08.352.032.178.429.666-.335 1.02-.738.648-.885.472-.372.378-.253.42-.02.48.594.699.06.413.513 2.254.224.074.213.39.076.46.068.245.215.353.394.362.333.155.853.149.36.4.098.583-.21.487.031.203.18.181.253-.06 1.447-.971.186-.287.177-.942.38-.278.414.034.426.286.297-.048.181-.198.068-.212 1.89.21 1.374-.539 1.47-.025.35.157.733.567 1.317-.364.365-.011.321-.01 1.045.534 1.154-.262.365-.493-.046-.497.094-.184 1.796-.736.068-.29.595-1.017 1.991-2.775 1.498-.839.204-.547.337-.352.636-.536.83-.441.532-.008.64.202.476.757 1.16.466.074.163.053.738.138.226 2.415 1.59.118.295.159.942-.084.848.484.891.425.066.33.307.122.309.089 1.13-.046 1.209-1.033 1.811-.573.377-.243.328-.052.244.122 1.039-.287.659-.219.245-.31.17-1.072 1.793-.527.45-1.153 1.658.004.366-.352 1.258-.428.555-.64 1.301-.138 1.01.19.94-.024.55-.6.517-.825 1.42.214.404-.166.771-.258 1.96.066 1.085-.114.202-.173.1-.532-.015-.173.092-.813 1.089-.138.356.055.321.447.299.099.326-.132.737-.614.928-.023.584.19.714.025.671-.244.307-1.191.733-.437.541-.293.824v.238l1.126 3.97-.152.886.069.234.147.14.627.104.462.253.48.424.236.468.788.792.984.416.49.588.12.27.59.486.428.193.816.103.4.194.593.404.688.653 1.26 1.825-.023.202-.337.612.054.23.918 1.78.222.244.586.381.896 1.11.05.885.19.15.411-.029.665-.249.65.441 1.767.017.665-.093.294.174.12.26.18.14.888.154 1 .44 3.408.963.239-.13.5 1.173-.085.878-.51.33-.47-.258-1.016.633-1.187 1.435-1.966 6.397.434 6.4-.483 7.756-4.601.993-5.066-.032-9.609 2.15-.618.138-6.66 2.601-.933.64-2.698 4.128-.585 1.55-.079 1.213.285 1.326.516 1.321 1.851 2.909-.65 2.16-.764 1.473-1.434.793-.61 1.182-.22 1.48-1.556 3.649-1.749.372-3.274 2.545-.423 1.81-2.965 8.453-1.978 4.742-1.465.673-1.863 2.05-2.587 4.952-.659 7.009.04 1.867.041 1.897-1.733.982-.93 5.637.096 1.386 1.75 4.324-.436 1.135-1.534.362-.515 2.17-1.483 2.779-1.315.505-.723.902-.134 1.251 5.67 5.488 5.225 1.663 3.99-.025 2.141-1.392 1.681-2.582 2.175-4.418.297-1.095-.768-1.464.346-.685 1.363-.976 3.514-4.183 5.201-3.356 3.148-2.778 4.946-.813 1.363-.626.48-.535.898-1 .697-1.497.273-2.283 1.737-2.13.875-1.074 1.386-2.392.075-3.03-.6-2.293.088-1.163 2.096-2.93 2.417-4.395 5.811-8.524 1.219-3.134 3.748-5.314 4.101-2.964 1.182-.328 3.378.228 2.774-1.402 2.213-2.624 2.041 1.009 3.396-.01 5.793-6.319.58-.032 1.928.977.201.45-.031 1.96 1.595 2.82.676.37 2.987-1.281-.02-4.063-.308-.992-1.255-1.648-1.94-1.212.103-1.523.84-2.824.636-1.932.851-1.084 1.652-3.65 1.814-6.518 3.224-5.524 1.885-4.377 2.631-3.911 2.593-2.46 2.649-3.793.516-2.351-.148-2.773.296-3.254.914-2.044 1.414-1.437-.501-2.354.497-3.728.961-1.214 1.323-.513 1.205 1.865 2.817.398 2.826-2.204 1.035-2.237.565-.389 2.191-1.228 2.113-.552 1.39.538.528-.28-.074-2.963-.368-.88-.32-2.717.726-3.872.947-3.254 4.322-2.035.895-3.075 1.807-2.68.937 1.388 1.145.17 1.373-.694 2.361-2.507 3.339.063 1.59.47.863.92 1.218 2.462-.53 1.402-1.347 1.617-.019 1.179.444 1.953.9.565.533-.082-.615 3.98-.917 2.423-2.4.98-.394-.375-.412-1.723-3.637.169-1.095 2.282-.303 7.807.272 3.195 2.52 2.354-.57.988-1.764 1.497-1.084 3.17.523.758.39 1.523.327 4.042-1.328.415-.743 1.729-2.297 1.892-.208 2.432-1.383.894-4.344-.425-.458 1.139.102 2.226-1.807 6.232-2.111.826-1.335.946-2.429 5.103-.967 2.592.371 4.244 2.013 1.622.608 1.686-.432.795-1.706.563-2.472 1.921-1.612 2.204-.086 1.822 1.727 2.383.365 2.126-8.927 6.42-1.12 2.895-.767 3.87-3.168 2.26-1.2 2.31-.888 1.873.348 2.813-2.395 7.096-.685 3.882-1.339 3.664-1.954 3.79-.65 1.819-2.641 7.38-1.103 2.022-.519.857-1.8 1.4-2.721 3.415-1.216 3.968-2.79 7.278-1.918 8.534.034 1.44-.643 5.694-1.123 3.496-.789 7.719-.69 2.065-.752 4.137.232 3.878-.435 1.723-1.708 3.5-1.17 4.972-.305 1.292.236 3.017.66 2.832 3.207 6.776 2.278 6.215.33 3.923-.646 3.786-.886 2.741-2.839 4.343-3.329 3.387-5.523 2.857-2.932 2.177-3.66 3.753-1.082 4.81.388 3.055-.25 3.23-2.155 3.111-1.652 3.669-1.55 6.455-.303 4.958-.674 1.97-1.702 2.781-.4 1.256-.863 7.286-.584 2.316-.628 2.488.083 1.4 1.289 4.383.046 4.34.67 4.441 4.33 8.844.077 1.245-.334 2.466-.291.976-.45.48-.178 1.496.372 2.688.933 3.419.213 3.932-.461 1.709-3.9 8.627-6.591 13.01-1.216 3.29-.464 4.221-.365 3.317.185 3.496.776 3.715-1.945 6.727-2.75 5.635-4.064 6.343-1.34 2.549-1.027 2.856-.663 2.327-.614 3.627-.674 9.375-1.74 5.02-1.245 7.143.378 3.037 2.432 8.075.685 1.04.736 1.115 1.129 3.326-1.538 4.674-1.134 2.446-.135.869.198 1.53 1.22 2.46 2.75 3.054 1.681 5.119-.485 2.127-1.72 2.873-1.928 1.931-.443 2.864.554 2.72 1.374 3.174 1.454 1.652 3.434 2.902 1.985 3.297.537 3.757-.321 11.524-.003.08 2.27 6.774 1.338 3.008.638 1.433 4.785 5.954 3.25 2.558 1.164 1.767-.382 2.379-1.206 2.355-.488 3.213.728 4.288-.415 4.054-.354 1.58-.263.032-1.164 2.333-1.147 3.115-.356 1.558-1.176 5.15-.535 5.992.126 1.943.777 2.616.712 1.41-.304 1.729.583 10.442.535 3.157 1.633 4.787-2.403.098-4.329.093-8.449.192-.397.008-11.094.216-2.954.005-9.308.174-10.23.175-13.149.495-.099.004-2.61.107-5.18.191-3.365.322-5.15.174-17.594.57-6.87.2-7.107.145-20.57.513-10.722.574-9.047.534-1.738.05-1.591.044-24.017-.141-.45-.006-7.7-.044h-.016l-3.281.047-.022-.002-4.544.049-4.41.087-4.353.013-2.803-.041-.534-.009-.74.02-6.216.016-.285.024-9.3-.01-.315-.015-2.919.024-.591.037-6.27-.097-11.039-.108-.662-.045-.037-.002-5.526.03h-3.057l-.247-.017-.212-.027-.193.021-9.237-.055-1.298-.006h-.094l-4.58-.037-6.54-.101-4.744-.142-.816-.037-.55.029-1.544-.07-4.805-.09-.96-.014-2.698-.057-3.512-.028-.531.023-7.638-.02-4.254.03-1.665.002-2.132-.017-.898.013-.342-.004-5.573-.002-13.865-.023h-.099l-4.416.038-4.651-.175-.09.007-1.806-.069-.328-.033-2.766-.046-.256-.034-8.588-.218-3.023.02-.309.057-7.482-.074-3.347-.035-2.688.034-3.826.053-2.672-.014-4.284.032-.39.036-2.19-.075-.342-.02-.551.04-4.834-.014-9.187.03-.815-.02-.437-.001-5.505.005-3.193-.06-1.66-.033-5.924-.122-.702.008-1.915-.062-6.33-.05-1.888-.048-.07-.002-.994-.006-.734.031-1.495-.035-7.673-.181-.49-.011-3.92-.133.935-.988.046-1.165-.586-1.913-.482-2.695-.256-.786-1.31-1.245-.76-1.703-.347-2.142-1.723-1.843-.667-.562-.356-.489-.93-1.729-.226-.46-.117-.6-.022-.973-.597-2.371-.295-.881-.927-1.695-.108-.844-.27-.916-.556-.73-.446-.41-1.699-1.013-1.692-.59-1.945-.476-2.59-.792-1.41-.51-1.434-.342-1.471-.217-1.362-.419-5.53-1.33-1.739-.326-1.33-.392-2.26-.863-3.144-.843-1.462-.615-.52-.219-2.018-1.45-1.196-.54-.385-.027-.976.273-1.116.135-.701-.107-1.182-.387-.493-.263-1.938-1.4-1.42-.452-.538-.342-.433-.455-1.235-2.094-1.03-1.072-.704-.538-1.452-.86-.952.171-.24-.076-1.463-1.013-.44-.547-.148-.618-.03-.607-.151-.411-.517-.614-.61-.253-.738-.04-.384.296-.529.044-.202-.024-.376-.269-.156-.487.016-.879-.22-.565-.27-.408-.318-.267-.697-.106-.16-.526.06-.78.369-.033.264-.142.211-.422-.013-.393-.455-.453-.952-1.22-.156-1.244-.034-1.586-.182-1.003-.438-1.643-.358-2.344-.13-2.914.133-1.554-.626-.498-1.144.133-.6-.345-.146-.88.64-3.133-.062-.29-.523-.875-.34-.968-.16-.964.14-2.399-.329-1.544-.526-.621-1.23-1.119-.504-.754-.288-.252-3.147-1.741-.826-.208-.2-.277-.123-.428-.087-.397.01-.525.061-.553.333-1.192.022-.47-.062-.785-.169-.803-.614-2.095-.007-.361.143-.967.593-2.088.025-.358-.15-1.087-.211-.597-.428-.929-.688-1.124-.15-.52.016-2.026-.009-.072-.09-.699-1.534-5.928-.898-4.086-.415-4.927.04-.454-.225-.684.121-.662.242-.501.04-1.53.421-4.947-.32-3.16-.051-1.317.067-.819.157-.622.282-.587.762-.556 1.539-.639.663-.485 1.58-1.958.465-.834.328-1.493.445-1.35.434-.713.272-.2 1.556-2.806.106-1.187.282-.777.482-.645.834-.517.909-.754 3.205-3.157 1.28-1.314 1.167-1.43.854-.851.604-.803.464-1.127.294-1.13.005-.295-.102-.489-.163-.296-.31-.191-1.246-.092-.266-.162-.141-.237-.01-.47.2-.802-.01-.673-.29-.712-.909-1.706-.845-1.93-3.208-4.646-1.57-1.228-1.72-1.512-.557-.365-.685-.378-2.647-1.122-2.455-1.345-1.514-1.076-1.047-.375-2.106-.363-.32-.164-.393-.571-1.182-2.833-.023-.448.259-.434.932-.728.204-.272.208-.817.664-1.465.285-.814.222-1.15-.04-.819-.19-.805-.144-1.149.045-.884-.117-.676-.274-.825-.352-.669-.234-.443-3.195-4.38-.511-1.149-.146-.888.04-.549.155-.466.43-.533.763-.596.665-1.198.712-2.05.132-.764-.326-1.311-.07-1.308.102-.695.01-1.585.1-.915-.133-.415-.64-.74-1.11-.803-.433-.508-.532-1.893-.946-1.57-.112-1.117.058-.736.1-.331.41-.887.979-1.402.26-.636.253-2.25-.027-1.307-.12-.362-.262-.424-.68-.904-2.045-2.271-.796-.673-.497-.576-.506-.81-.529-1.139.104-2.514.855-2.255.136-.743-.193-1.242-.173-.314-.847-.846-.14-.39-.17-2.456.127-2.09.845-3.971-.03-2.97.31-.857.818-1.142.407-.815.16-.465.299-.87.173-.768-.024-2.377 1.873-5.856-.02-.34-2.68-3.727-.26-1.723-.435-.805-.647-2.025-.127-1.008-.377-1.328-.23-2.7-.62-1.06-.306-.914-1.007-1.21-.853-.53-.306-.298-.36-.628-1.421-1.68-.266-1.76-.311-1.273-.764-1.417-1.11-1.062-1.484-.921-.606-1.068-.554-1.557-.211-.4-.58-.555-.751-.441-.1-.142-.826-1.973-.18-1.745-.274-.546-1.242-1.46-1.548-2.12-1.37-1.116-1.62-.987-.2-.26-.444-1.213-.277-.534-1.7-1.972-.149-.357-.07-.167-.137-.712-.444-1.138-.381-.624-.713-.675-.465-.334-2.503-1.07-.906-.598-.742-.112-1.515.262-.355-.034-2.095-.976-1.053-.932-.732-.464-2.567-.585-1.42-.04-1.985-.224-1.78-.697-2.134-.393-1.01-.035-.386-.106-1.396-.876-.81-.774-.837-1.847-.545-.784-.46-.422-.72-.5-1.245-.56-.607-.375-.79-.976-.694-.63-.36-.094-.437.189-.197-.021-.464-.292-.627-.964-.695-.601-.359-.595-.546-1.418-.246-.87-.249-.41-2.108-2.245-.626-.232-.832.091-.6-.168-1.79-1.17-.098-.271.057-1.198-.165-1.39-.148-.614-1.217-1.787-.358-.322-1.345-.577-3.145-.496-.73-.445-1.729-1.456-.857-.87-3.272-1.527-1.67-1.085-1.347-1.083-1.674-3.003-.481-.425-1.803-1.016-1.98-1.763-.87-.776-1.174-.581-.407-.308-.118-.454.005-1.428-.136-.703-.397-.772-1.352-2.078-.398-1.02-.01-.843.837-2.317.168-1.115-.1-.504-.18-.4-.977-1.455-.093-.54.22-1.57-.096-.354-.327-.53-1.024-.962-2.125-1.093-.277-.284-.329-.847-.032-.627.147-.47.488-.81 1.047-1.456.133-.446.013-.208-.346-1.41-.329-.966-.956-2.3-.378-.416-1.907-1.215-1.175-1.672-.448-.889-.949-1.373-.586-.585-.963-.813-.68-.373-.537-.198-.802-.046-.488-.158-.975-.594-.895-.693-.381-.463-.484-.373-.352-.18-1.582-.391-2.742-1.669-1.165-1.225-1.024-1.492-.426-.298-.755-.32-1.58-.038-.935-.214-.73-.511-.521-.366-1.491-.603-2.01-.596-.61-.463-.825-.973-.494-.34-2.215-.621-3.377-.663-1.151-.336-3.683-1.23-2.897-1.1-.863-.428-1.647-1.12-.686-.857-.654-1.035-.404-.555-.598-.584-1.94-1.252-2.047-1.856-.792-.879-1.213-1.666-.843-1.55-.688-1.604-.08-.69.187-2.675-.067-.452-.06-.247-.616-.995-.387-.908-.398-1.943-.293-.627-.153-.329-.36-.52-1.29-1.295-1.023-.691-1.667-.727-2.048-.46-1.001-.096-3.083.173-1.51-.191-2.32-.534-.814-.386-.727-.566-.777-.28-.321.044-1.133.504-2.134.1-2.204-.756-1.566-.746-.555.018-.866.348-.495.006-2.17-.987-.549-.333-.824-.742-.372-.02-.971.296-2.016 1.216-.564.03-.542-.194-.268-.261-.204-.555.066-.38.247-.52.076-.35-.04-.715-1.493-2.947-.883-1.46-.309-.382-.507-.255-.618-.114-.262.22-.436.619-.47.186-.22-.058-.366-.353-.205-.891-1.571-1.348-.827-.119-1.105.093-.499-.261-.485-.47-.22-.678-.002-.518.143-.577.47-1.161.05-1.034-.24-1.007-1.43-2.159-3.406-2.04-.735-.628-.522-.545-3.025-4.04-1.395-1.596-.613-.928-1.729-1.611-2.645-2.75-.732-.76-1.854-1.127-.582-.164-.4-.24-1.273-1.266-3.134-1.788-2.051-1.714-.02-.132-.032-.22-.154-.337-.462-.425-.087-.234.173-1.537.407-1.943.828-1.83.679-.937 1.13-1.133.572-.907.392-1.19.336-2.325.19-.651 1.236-1.771.129-.335-.077-.683.076-.35.466-.756.513-.631.145-.454.04-.804-.342-2.778.005-1.584v-.036l.342-.936.555-1.085.067-.42-.09-.365-.727-1.503-.562-1.488-.111-.586.105-1.092.102-.41.148-.259 1.783-1.057.272-.184.137-.226.191-.454 1.288-5.346.022-.884-.407-2.966-.796-1.952-.92-.69-.176-.374-.107-.484-.054-1.417.04-.902.241-.997-.198-1.24.019-1.502.537-1.577.937-2.323.112-.391-.003-.385-.325-.938-.788-1.084-1.176-1.205-1.284-.935-.745-.797-.518-.746-.654-1.438-.111-.742.071-.913.133-.44.212-.387 1.469-2.031 2.657-1.83 1.296-1.3 1.714-1.448 1.154-.75.278-.247.699-1.018.158-.448.017-.19-.137-.408-.322-.32-.364-.668-.006-.012-.387-3.127-.93-2.894-.094-.75.043-1.044.175-.953.705-1.332.043-.442-1.721-1.93-.254-.562-.038-.974.122-1.018.543-1.991.286-.461.621-.465.615-.631.397-1.201-.046-.496-.233-.396-.23-.641-.202-.958.074-1.606-.28-2.35.235-.776.574-.66.558-.991.052-.875-.108-.762-.722-1.124-.335-.846-.117-1.27.021-.428.146-.409.354-.382 1.167-.358.79-.552 1.275-.89.696-.743.757-1.01 2.702-2.348.804-1.04.775-1.448.17-.54.038-.617-.056-.634-.54-2.35.077-.549.165-.434.953-.998 2.6-1.768.15-.178-.05-.539.3-.798 1.17-1.797.825-.827.84-.527 1.192-.447.027-.99.391-.832.273-1.186-.029-.215-.343-.46-.088-.574.266-2.146.429-1.696.061-.762-.751-2.7-.115-.174-1.066-.658-2.278-1.059-.42-.326-.867-1.68-.657-.859-.45-1.387-.91-2.143-1.29-2.178-.53-.727-1.173-1.204-.315-.478-.108-.903.03-1.41.601-2.26.004-.386-.165-.523-2.689-2.592-1.584-1.006-1.04-1.31-.78-.73-.445-.29-.369-.07-1.411.05-.645.168-1.68.751-1.542.278-1.62-.046-1.54-.526-1.354-.698-.38-.098-3.537-.406-1.384-1.276-.354-.447-.137-.696.362-2.252-.398-1.063.039-.782.29-1.289.399-1.054-.025-.728-.466-1.267-.14-1.08z"/></svg>