<svg height="1000" width="1000"><path class="americon" d="M531.091 881.203l.484.055 1.108.407.485-.14.85-.035 1.093.043 1.122.043.502-.306.378.356.316.552.214.148.298.02.19.443 1.05.671.663.196.233.377.061.376-.057.266.248.138.325-.066.362-.292.263-.148.343-.169.393-.015.367.56.27-.013 1.364.901.44.124.327.382.304.021.46-.007.184.187.395-.161.568.094 1.255.6.227-.042.971.533.365-.188.782.816.416-.105.591.147.178.22.1.618-.237.526.188.664.263.114.563.682.653.78 1.648 1.583.105.242.195.447.057.037.352.232.003.008.007.018.147.388.078.043.293.159.171.189.555.61-.001-.104.119.546v.004l.118.714.21.261.01.511.039.577-.145.203-.446.193-.397.57-.723.228-1.562-.602-.945-.793-.546-.217-.647-.186-.604-.277-.845-.082-.728.154-.853-.111-.483-.052-.447.137-.897.264-.593-.127-.452-.086-.403.167-1.317-.312-.787-.422-.77-.826-.775-1.029-.4-.667-.123-.591-.078-.386.195-.556.388-.433-.279-.304.399-.319-.126-.442.344-.17.263-.147-.107-.263-.168-.05-.226-.27-.116-.73-.296-.517-.065-.358-.11-.467.21-.302-.24-.229-.101-.557-.546-.227-.266.074-.5-.278-.323-.247-.352-.3-.14.207-.053.43-.156.115-.035-.273-.608-.572-.894.175-.237-.148-.09-.405-.427-.015-.264.073-.227-.146-.388.006-.22.234h-.303l-.407-.091-.212-.318-.439-.183-.384-.08.172-.357-.23-.473-.304-.102-.582-.704-.334-.538-.247-.085-.208-.282.095-.21-.623-.264-.24-.37-.293-.506zm.186 45.914l1.003-.365.27.202.171.388.615-.133.59-.29.523.395.483.569.008.494.256.551.26.82.37-.006.502.403.175.636.095.74.612.896.59.332.187.561.858.769.466.592.088.45 1.665 2.094.987 1.014.416.22 1.111.553.643.633.594.897 2.958 2.546 1.468 1.17.837.683.95.935 1.154.928 1.72 1.842-.58.41-.586-.382-.892-.148-.459-.247-.768-.122-.78.263-.449.298-.212.831-.615.24-.597.176-.387.276-.387.549-.21-.401-.194-.625-.283-.432-.405-.101-.61-.547-.141.164-.183-.047-.651-.723-.527-.413-.65-.286-.208-.541-1.064-.329-.483-.24-.056-.378-.35-.2-.548-.115.091-.431-.226-.657-.489-.554-.073-.445.121-.613-1.119-.74-.493-.867-.478-1.16-.55-.045-.438-.52.127-.333-.116-.34-.452-.08.206-.514-.176-.658-.353-.373-.104-1.318-.436-.488-.276-.688-.85-.645-.56-.964-.179-.854.025-.528-.251-.227-.503-1.606-.287-.701-.351-.08-.352-.39-.475.205-.285-.065zm-38.62-44.167l.547-.593.04-.043.077-.613-.413-.608.956.05.284-.487.345-.166-.015.673.168.59-.223.225-.015.653-.202.246-.326.08-.286-.198-.76.459-.119-.18zm-33.35-56.082l.389.013.231-.208.328.087.735.01.854.717.562.12h.25l.465.092.22-.111.312.091.052-.127.367-.184.156-.216.737-.298.091-.132.578-.139.244-.063.383.07.147.08-1.263.395-.316.14h-.002l-.267.118-1.04.724-.699-.09-.628-.183-.627-.055-.358-.017-.31.196-.034-.222-.153-.15-.264-.021-.279-.073-.244-.225-.32.078-.131-.202-.289-.119zm-11.674 75.482l.484.245.324.156.297.27.196.09.346-.132.288-.266.216-.224.088-.345.346.05.057.077.176-.059.146-.1.157-.044.114.056.348-.25.09-.22.278.17.226-.172.438.248.266.298.86.495.077.168.28.141.114-.034.44.436.123.193.32.104.486-.025.195-.18.107.28 1.3.522.45.052.416.267.66.758.817.744.014.208.412.363.322.527.034.453-.202.269-.184.445-.464.082-.284-.048-.353.115-.327.213-.172.052-.466-.027-.125.102-.142-.03-.376.095-.726-.167-.252-.21-.814-.15-.26-.003-.127.103-.222.003-.357-.28-.256.041-.155-.128-.2-.09-.306.027-.628-.588-.325-.027-.593-.258-.42.002-.307-.124-.134.075-.462-.068.008-.161-.21-.2-.25-.111-.76-.688.01-.155-.5-.182-.058-.31.164-.02-.214-.459-.285-.227-.394-.118.101-.369.01-.294-.426-1.412zm-29.711-80.308l.377-.107.289.031.225-.481-.292-.194-.037-.228.336-.484.025-.323.533-.019 1.836.49.619-.16 2.244.34 2.654 1.193.599.698.296-.107.628.202.586-.198.413-.297.53-.02 1.615.234.393-.03.204-.182.362-.17.33.218.032.297.615.069.708.4.42.33.279-.238.405.054 1.172.48.67.574.341.409.63.453.32.418.238.554 1.098.03.444.3.828-.243.34-.09.27.251-.005.18.712-.088.266.12.178.232 1.561-.332.605-.488.675-1.053-.381-.377-.037-.216.824-.759.305-.098.082-.382.523.061-.017-.297.399-.186.385.302.537.061.014-.29.555-.05.369-.187.476.33.05.334.459.243.269-.198.107.38.501-.006.91.365.758.706-.096.206-.488.592-.414.153-.546.098-.305.296-.129.324.124.294-.491.534.102.445-.629.781-.508.234-1.287-.052-1.236.642-.567.111-1.884.137-.172-.18-1.07.175-1.186-.059-1.282.19-1.022.76-1.298.63-.698.15-.193.412-.498-.15-.502.276-.2.407-.553.187-.586-.23-1.259-.218-.634.01-.656.461-1.02-.317-1.66.298-.314-.365-.482.014-.405-.14-1.22.415-.132-.363-.957-.542-.95-.167-.505.26-.228-.142-1.228-1.058-.662-.118-.31-.553-.364-.676-.225-.949-.237-.716.381-.313.485-1.208.056-.875-.461-.46-.372-.054-.088-.527-.466-.344-1.972-1.326-.5.147-.375-.057zm-27.15 5.557l.345.004.585-.515.118-.171.306.068.313-.147.74-.014 1.079.497 1.074.154.352-.054.202-.179.475-.107.29.137.29.015.81-.184.568-.343.77-.654.35-.681.618-.11.382-.007 1.053.394.284-.088.418.35 2.109.03 1.41-.462.264-.47.362.014.298-.218.073-.287.37-.34.214-.037 1.002.207-.175.418.17.427-.07.277-.325.364-.227.805.12.353.15.366.039.648.44.567.679.478.5.147.13.244.994.288.093.253.77.151 1.658-.435.352.034.095.25-.087 1.185.247 1.325.48.648-.066.463.272.31-.43.036-2.316.074-1.427.517-.274.138-.067.242-.598.482-.896.326-.216.36-.443.143-.124.201-.027.19-.093.122-.605.141-.944.052-.469.037-.376.326-1.103-.047-.666.134-.59.359-.315.524-.092.358-.487.123-.503-.144-3.205-2.106-.46-.048-.312-.287-.309-.389-.655-.239.12-.294-.891-2.029-.209-.265-.529-.206-.12-.481-.767-1.593-.416-.438-.415-.254-.228-.876-.686-.385-.774-.2.017-.349-.395-.3-.195.152-.188-.152zm-16.944-3.509l.086-.32.302.005.449.051.971-1.071.874-.45.3-.287.333.22.648.258.629.036.45-.177 1.431-1.067.466-.516.148-.309-.252-.421.163-.157.505.357.593 1.42-.455.344-.019.277.152.296.483.318.5.071 1.34-.237 1.016.744.488.56.482.723.001.736-.34.245-.499.104-1.52-.224-.494.116-.581-.062-.519.103-.356.403-.738-.095-.715-.311-.668-.594-.717-.166-1.492-.66-.497-.013-.327.331-.717.349-.685-.416-.644.043-.93.062zM230.133 437.682l.339-.164.36.118.413.87-.126.372.406.475-.163.135-.05.472-.097.095-.375-.06-.342-.21-.084-.171.14-.349-.538-1.236zm-5.19-3.29l.404-.182.106-.39.118-.134.136.173.078.023.12-.062-.051-.073.045-.158.152-.084.044-.096.101-.059.178.064.107.1.066.026.132-.016.1.126.09.306-.011.178.042.125.075.011.06.01.08.154-.114.16-.097.136.085.2.007.226.073.17-.05.03-.302-.227-.323-.044-.273-.073-.194.11-.104.062-.184-.074-.214-.15-.119.035-.102-.107-.016-.09.042-.112zm-45.141 13.33l.47.17.037-.315.33-.203.183.347.145.362-.344.445-.236-.09-.115-.249-.405-.08zM119.718 29.504l.036-.043.02-.05.048-.033.065.016.072.028.059.052.008.015.01.02-.025.041-.01.016-.067.041-.047.014-.084-.022-.058-.037zM93.94 172.704l1.031-1.747.097-.231.661-1.584.325-.778.207-.955-.191-.26-.045-.255.08-.527.2-.349.142-.45.304-.348.575-.869.772-1.52 2.56-5.308.38-.788.101-.21.842-1.465.385-.668.203-.158.03-.053 1.64-2.88.345-.607.345-.514 1.445-2.159 1.586-2.372.004-.007.027-.04 1.133-2.064.007-.014.139-.253.162-.295.296-.541 2.195-3.275.373-.621.179-.297.685-1.141.02-.034.51-.847.365-.61 1.226-2.322.361-.685.324-.78 1.236-2.98.366-.883.233-.749.652-2.1.065-.21.143-.46.012-.038.342-1.102.351-1.13.033-.106.028-.09.117-.555.092-.44.506-2.408.035-.168-.11-.463-.162-.048-.186-.446-.124-.295-.006-.016.085-.217-.169-.284-.152-.384-.189-.207-.058-.064-.228-.133-.037-.02-.203-.283-.146-.072-.298-.147-.206-.057-.156.133-.03.025.004.105.007.174-.136.126-.17.021-.152-.248.184-.33.23-.414-.052-.16-.037-.114-.145-.34-.292.046-.16-.261.003-.266.002-.117.341-.327.02-.586-.18-.258.28-.1-.07-.242-.258-.874-.016-.055-.228-.184-.004-.003.263-.308-.047-.445.173-.266.11-.851.017-.133-.377-.75-.02-.04.347-.263-.176-.578.427-.384.014.005.609.255.17-.037.119-.026.103-.17.061-.101.34-.762.439-.984.829-1.86.261-.587.224-.582.74-1.924.215-.562.257-.668.02-.172.024-.192-.112-.34.195-.346.701-2.258.07-.223.601-1.939 1.405-5.612.692-2.613.515-2.749.49-2.617.144-.772-.042-.784-.093-.349.149-1.1v-.187l.004-.53-.323-2.114-.165-.232.078-.34-.058-.38-.323-.937.086-1.269.15-2.224-.094-.083-.304-.268-.303-.267-.069-.21-.436-1.328.051-.893.338-.62-.482-.909.252-.24.105-.518-.104-.175-.748-1.263-.024-1.163-.21-.496.036-.273-.037-.353-.375-.719-.061-.322-.528-.665.056-.475-.163-.442-.055-.474-.112-.125.204-.277.034-.282-.137-.357.054-.202-.164-.219.083-.25-.133-.183.147-.118-.064-.246.096-.167-.063-.926.049-.262-.214-.85-.403-1.073-.008-.014-.082-.14-.569-.987-.007-.007-.354-.33-.524-.29-.385.416-.01.06-.066.085-.13.022-.342.223-.087.056-.157-.05-.116-.039-.342-.826-.211-.203-.404-.148-.415-.327-.055-.042-.398-.48.01-.247-.78-.77-.326-.46-.173-.133-.086.049-.162.091-.213-.123-.391-.676-.037-.468.099-.19.402-.177.352-.454.618-1.087.607-1.345.331-.853.671-1.727 1.115-3.915.503-2.866.21-1.715.052-.417-.056-.526-.115-.012-.12-.013-.02-.002-.075-.355-.016-.077.148-.336.054-.2.236-.868.182-1.665-.225-.574-.13-.894 6.032.626 1.788.145.049.015.877.065.082.008 6.044.543 2.408.186 9.41.716.898.129.527.075 1.756.033 4.334.232.475.051 4.551.491 1.823-.222.507-.062 5.1.32 1.606.049.334.01.519.051 1.124.112.22.02.004-.004 4.544.204 3.739.479 2.422.176.363.005 7.94.084h.001l2.73.022 2.669-.08.641-.075 3.028.441 1.342.195 1.294.128 1.435.27 4.078.245 1.863.11 1.404.084 3.353.243.02.001 1.267.013.048.002.4.017 4.948.213 3.292.181 2.885.158 5.547.236 1.38.025 8.11.133 6.926.326.388.018 1.407-.002.718.054 5.56.42h.001l.33.023 1.682.112 5.04.22.105.004.165.007 1.769.075.063.003.266.036h.09l3.786.331 7.2.49 3.286.166 7.607.376 1.54.096 8.28.507.223.013 1.127.06.427.026.552.034 5.394.329h.006l1.3.079 4.299.218.08.004 5.078.251.562.028.33.016 4.178.138 1.124.07 1.4.088.34-.017.096-.01 1.272-.027.463-.01 4.18.133.06.014.186.043 8.624.353 1.053.091 1.156.1 4.238.243 11.057.237 4.26.066.513.008 8.403.232.122.003 3.198.122 9.851.122.526.006 6.184.136 6.065.124h.004l.18.004h.018l2.793.046.674-.004.336-.002 6.44-.043 1.48.011.14.001 7.928.053 3.273.018.133.058-.11 11.44-.038 11.962-.148 11.973.036.588-.097 5.842-.092 5.554-.302 30.338-.13 16.553-.104 13.371.004.544-.001.15-.035 8.328-.012 2.858.044 2.789-.075 21.35-.094 9.435-.078 7.787v.057l-.053 5.587v.104l-.145 10.037-.045 3.147-.038 3.352v.019l-.009 1.391-.013.528-.127 11.185-.078 3.203-.17 7-.129 6.863.007.08-.089 4.448-.023 1.145-.05 4.683-.001.06-.025 2.272-.016 1.41-.03 2.82-.062 5.656-.01.962-.005.202-.004.227-.058 2.826-.003.103-.015.776-.002.058v.028l-.002.084-.015.737-.048 2.317-.036 1.773v.006l-.104 4.385-.026 1.113-.032 1.338-.06 4.332-.06 1.37v.01l-.009.243V299.83l-.017 1.02-.003.22-.01.553-.043 2.596-.003.198-.026 1.522-.003.337.002.252V306.613l.003.364.035 5.12.036 5.17.031 4.419.049 6.641 2.55 2.289 1.196 1.072.006.005.128.115.568.509.25.224.415.371 1.41 1.261.684.612.095.085.28.254 4.294 3.862 4.908 4.404 1.908 1.708 4.785 4.276.008.008.651.581.018.015.384.343.008.007 1.198 1.068.359.32 1.646 1.466.008.008.319.284.373.332.498.443 2.416 2.148.047.038.125.111 2.51 2.242.077.068.233.208.066.059.104.093.273.243.14.125 2.227 1.984 1.348 1.2.013.012 3.073 2.698.253.222 5.73 5.213.451.344 2.822 2.443.263.238.123.11 3.787 3.413 2.18 1.871 1.237 1.153 6.028 5.303 2.4 2.106 2.233 1.984 1.149 1.131 4.058 3.52 2.263 2.097 3.989 3.381.003.003 2.115 1.852 4.95 4.39 4.8 4.308.003.004 2.02 1.81 1.98 1.644 2.531 2.209 7.288 6.581 3.908 3.339 5.602 4.931 5.786 5.11 14.042 12.328 11.973 10.455 2.28 1.983 1.621 1.408.995.931-.004.003 4.535 3.899.604.519.027.024 5.699 5.117 2.304 1.776.789.704 2.696 2.402 9.736 8.635 2.567 2.056 8.06 7.131 3.295 2.77 3.258 2.834.063-.012 1.72 1.517 8.434 7.417 7.368 6.389 1.643 1.42 1.733 1.393 6.496 5.617 2.807 2.42 5.392 4.699.186.158 5.26 4.459 6.049 5.241 3.213 2.777 14.937 12.846 14.116 12.043 3.461 2.995 1.063.858 9.116 7.936.372.22 10.591 8.988 5.199 4.437 6.915 5.882.968.821.307.237 9.814 8.36.29.245 1.111.944 4.26 3.612 1.573 1.326.134.114 3.44 2.829.596.51 7.565 6.46.64.545 5.29 4.391.022.018 1.753 1.442 1.82 1.578.03.025.041.034 1.715 1.41.138.175.407.346 6.192 5.246 4.262 3.6 7.658 6.357.603.6.133.092.92.767.216.194.03.026 2.129 1.78 5.519 4.608 2.84 2.37 4.045 3.412 5.688 4.786.045.015 1.169.97.083.042 1.765 1.507 2.016 1.622.433.41 4.784 3.977 9 7.592 1.481 1.192h.009l6.76 5.651.002.002 3.939 3.283.069.055 8.092 6.75 3.409 2.836 1.92 1.595.018.015 1.819 1.51.356.692.085.282.064.578-.022.453-.005.093-.287 1.217-.018.399.077.626.274.606.063.139.21.642.02.179.039.439-.132.83-.018.303-.001.03-.017.282.003.028.016.183.002.015.01.115.303.927.003.105.01.36-.271 1.252-.055.623.026.344.224 1.069.005.013.08.195.362.633.034.034.328.33.255.256.36.26.179.082.353.163.827.38.318.198.743.568.504.514.558.924.482 1.058.181.719.06.233.395 1.131.496.813.403.661.306.502.558.662.526.47.587.427.944.557.366.357.278.309.153.247.407.415.554.273.596.186.653.277.34.2.094.078.4.55.067.043.163.104.198.128.17.05.23.07.306.028.18.086.11.153.188.37.096.58.332 1.05.303.523.537.752.111.213.071.266.067.184.254.245.102.171-.025.199-.47.543-.063.22.11.156.398.247.269.187.482.454.27.385.137.425-.042.688.023.137.272.78.028.082.902.614.408.39.064.822-.071.16-.166.179-.716.312.004.142.2.27 1.107 1.111 1.53.992.556.928.99 1.653.73 1.09.123.186.066.256.273 1.06.093.935-.096.402-.104.437-.047.36.006.7.225 1.105.004.166v.021l-.1.585-.23.877-.004.157.083.256.725.704.28.238.18.071.854-.163.599-.255 1.104-.275.25-.022.368.11.217.18.22.264.418.719.036.061.605.09.597.262.994.514.567.5.254.364.1.655.154.274.146.157.168.115.58.17 1.059-.03.278.093 1.074 1.048.361.17.307.222 1.003.826.458.75.327.275 1.065.254 1.206-.002.557.345.195.121.48.133.39.188.383.259.381.406.39.522 1.18 2.104 1.477 1.081.248.252.032.232-.066.527.074.32.095.409.115.329.153.437-.047.394.057.265.212.534.358.604v.24l-.13.21-.178.075-.8-.101-.198.025-.507.178-.295.015-.237.04-.167.14-.09.197-.046.193-.034.175-.154.222-.331.186-.198.111-.084.188-.11.295-.026.123-.124.17-.017.017-.972 1.009-1.312 1.695-.256.43-.286.292-.63.45-.137.166-.038.195.152.792-.128.527-.154.162-.053.056-.889.462-.258.393-.781.666-1.153.479-.606-.143-.996.258-.427.43-.457.762v.001l-.182.303-.05.084-.736 1.23-.528.548-.136.142-.302.22-.581.225-.364.14-1.008.05-.406.173-.256.3-.276.727-.468.555-.224.129-.822.231-.9.687-.921-.077-.386.046-.34.143-.129.054-.334.275-.348.46-.418.695-.118.447-.41.485-.059.111-.004.09-.03.698-.12.81-.01 1.44.03.416.102.36.33.749.091.487-.014.996-.127.573-.162.35-.248.347-.505.414-.374.199-.73-.067-.099.037-.104.111-.097.372.028.229.099.125.472.227.162.113.102.187.015.028-.03.235-.11.18-.177.062-.332.028-.141.073-.227.516-.37.404-.44.364-.064.116-.042.254-.122.24-.788.96-.363.55-.777.534-.138.035-.4-.074-.497.299-.494.844-.456 1.392.096.623.02.036.113.201.031.014.438.19.268.121.628.433.643.602.295.487.075.229.012.203-.05.125-.175.174-.224.137-.222.024-.587-.278-.183-.036-.064.07.14.54.116.194.703.709.554.5.526.354.097.183.095.712-.053.236-.135.163-.714.643-.176.069-.657.021-.18.13-.077.17-.043.09-.007.053-.043.278.015.378.429.933.21.32.317.747.064.24-.035.348-.14.326-.352.317-.064.132.814 1.52.385 1.11 1.002 2.01.257.744.005.027.076.386.037.55-.087.487-.144.502-.255.7-.03.083.196.195.309.14.245.232.16.343.18.228.386.28.184.47.12.658-.044.978-.051.165-.687.46-.403.153-.211.08-.544.337-.389.302-.296.355-.187.37-.036.253-.026.178-.002.557.183.28.352.271.501.08.301-.047.159.072.125.18-.023.225-.302.242-.58.05-.448.191-.197.306.028.329.353.44.084.065.298.23.057.182.132.416-.178.473-.324.154-.056.12.025.41.201.21.144.32.496.399.051.293-.379.286-.185.24-.104.206-.01.019-.142.28-.579 1.139.124 1.1.473 1.14.029.035.854 1.09.243.369-.005.15-1.395 1.127-1.344 1.217-.042.117-.056.663.08.618-.022.16-.663.833-.346.203-.562.16-.627.469-.256.332-.41.942-.092.405-.059.262-.143.313-.466.717-.36.45-.765 1.532-.022.215.157.702-.29 1.469-.166.573-.426.595-.46.483-.18.19-.506.364-.275.097-.476.03-1.372-.425-1.198.139-.634.345-.063.115-.009.204-.067.124-.321.291-.772.183-.791.002-.31.166-.111.163-.013.103.035.174.238.347.885 1.01.48.384.108.156.042.193.006.413.845 1.525.116.462.048.423-.114 1.602-.287.979-.195.465-.218.31-1.025.964-.482.698-.099.185.014.164.808 1.414.146.1.34.16.59.138.725.085.74.156.898.312.353.223.327.323.483.96.044.2-.18.316-1.11.884-.1.167.02.12.665 1.01.438.44.353.466.094.238.027.398-.128.88-.165.778.083.392.357 1.148.01.278-.006.41-.215.72-.06.524.19.684-.024.357-.21.463-.13.745-.17.627-.213.464-.53.736-.435 1.841-.14.885-.08.824.063.65.14.292.161.101.313.044.564-.033.183.03.319.153.047.117-.029.384.043.313.229.514 1.215 1.324.015.996.175.568.28.381.531.377.248.106.214-.017.162-.135.211-.358.435-1.037.24-.242.394.173.193.15.517.604.58.775.23.147.623.177 1.548.05.96-.168.235-.095.18-.149.25-.468.243-.315.259-.143.301-.035 1.615.132 1.274-.056 1.304.14.306.074.336.22.146.095.334.288.509.622.334.577.331.721.328 1.259.243 1.16.183.585.133.246.26.173.129-.018.61-.274.063-.172.354-.187.456.074.184.166.169.548.09.633.002.45-.086.387-.118.357-.238.455-.338.506-.165.38v.185l.23.7.247.462.281.29.87.695.081.143.097.379.04.625-.014 1.951-.002.38.002.024.055.45-.022 3.078-.539.718-.539.65-.001.002-.573.69-.002.002-.319.384-.179.115-.045.026-.393.245-.713.445-.402.553-.325.627-.035.221-.125.209-.541.605-.14.305-.058.244.073.895-.008.58.076.27.357.693.156.7.075.337-1.059.109.054.736-1.063.108-1.12.112.06.748-1.493.13.062.76-.114.012h-.006l-2.556.267-.176.06-.041.488.021.1-.007.001-.233.04-.53-.067h-.012l-.334-.043-.388-.05-1.17-.058h-.007l-.375-.019-.692-.034h-.05l-.58.02-.175.005-.85-.134-.137-.029-.498-.053-.391.02-.932-.665-.176-.065-.1.016-.295.437-.594 1.088-.071.13-.043.14-.005.015-.039.127-.109.643-.145.312-.593.1-.887.148-21.047 3.466-1.713.278-28.546 4.619-.349.055-2.372.376-8.828 1.388-.73.119-.489.079-.279.045-.682.11-.547.09-.21.033-2.757.446-.21.033-11.13 1.781-2.578.409-13.09 2.053-17.608 2.705-5.16.804-.8.124-.9.183-2.736.407-4.474.664-.176.026-5.195.804-10.436 1.596-1.943.295-.315.048-1.917.29-8.326 1.25-.46.068-7.5 1.167-5.412.802-5.906.869-5.638.822-2.687.39-.35.05-3.099.495-3.06.486-1.561.144-6.99 1.102-.283.036-.894.116-1.98.255-.011.001-.346.053-4.535.69-.506.078-.015.002-.134-1.068-.331-1.007-.28-.61-.134-1.185-.045-.397-.012-.448-.01-.415v-.008l-.005-.166-.031-1.185-.144-.77-.274-1.464-.28-.85-.153-.27-.4-.707-.01-.018-.753-1.334-.608-1.075-.615-.84-.218-.298-.034-.024-.168-.12-.284-.203-.114-.082-.236-.168-.179-.128-.657-.451-.573-.198-.303-.106-1.37.002-.379.216-.506.288-.024.014-.013.007-1.029 1.254-.076.404-.496.326-.276-.488-.92-3.146-.09-.771-.041-.343-.03-.248-.023-.203-.043-.366-.087-.734-.002-.018.015-.27.009-.164.04-.733.018-.32.007-.122.011-.197.012-.209.035-.129.02-.073.126-.469.031-.114-.02-.12-.088-.508-.031-.184-.054-.692-.114-1.476-.02-.257-.018-.223-.003-.048-.127-.35-.199-.551-.177-.491-.005-.015-.09-.248-.108-.158-.164-.237-.282-.04-.053-.023-.19-.084-.001-.26-.177-.21-.146-.17-.053-.084-.148-.232-.484-.408-.001-.01-.04-.397-.055-.57-.05-.51-.029-.297.073-.365.6-.893.068.02.424.123.08.023.187.055.023.006.107-.118.252-.279.362-.718.087-.41.181-.856.062-.29.013-.437-.15-.598-.074-.57-.138-1.05-.34-1.302-.117-.454-.146-1.097-.005-.033-.04-.305-.201-.702-.038-.133-.004-.014-.006-.02-.356-1.247-.156-.544-.059-.347-.131-.773-.262-1.039-.054-.217-.002-.009-.264-1.046-.267-1.064-.152-.605-.136-.542-.158-.332-.664-1.4-.14-.205-.219-.321-.084-.12-.196-.276-.13-.659-.122-.315-.163-.42-.488-1.255-.394-1.015-.23-.742-.156-.51-.004-.013-.012-.037-.199-.645-.516-1.24-.663-1.593-.014-.035-.945-1.412-.559-.837-.015-.023-.022-.032-1.283-1.92-.01-.015-.012-.017-.006-.01-.283-.423-.332-.436-.211-.276-.076-.1-.007-.009-.63-.825-.025-.033-.413-.543-.285-.374-.326-.427-.32-.42-.485-.459-.002-.001-.215.065-.016.101-.232.036-.041.007-.016-.07-.249-.297-.01-.478.106-.153-.169-.303-2.749-3.875-.83-1.172-2.187-2.796-3.24-3.68-3.715-3.128-1.099-.543-.755-.466-.247-.372-.302-.147-.45-.028-.151-.08-.544-.081-.137-.134-.517-.245-.025-.055-.567-1.25-.451-.61-.057-.075-.165-.21-.247-.315-.427-.464-.247-.328-.191-.254-.329-.26-.516-.59-.006-.005-.18-.162-.78-.698-.26-.145h-.002l-.025-.022-.425-.364-.177-.152-.472-.334-.482-.234-.415-.29-.445-.312-.667-.354-.276-.008h-.03l-.413.04-.032.394-.172.13.062.232-.002.034-.288-.153-.864-.207-.215-.24-.126-.032-.093.034-.318.042-.107.014-.064-.064-.03-.114-.006-.1.075-.065-.03-.123-.479-.854-.11-.05-.362-.82-.082-.183-.005-.011-.472-.112-.116-.028-.077-.086-.246-.277-.082-.093-.115-.388-.047-.158-.562-.556-.034-.034-.661-.977-.12-.176-.413-.21-.148-.192-.163-.26-.169-.273-.36-.351-.426-.418-.254-.25-.249-.337-.274-.372-.196-.266-.323-.103-.036-.01-.298-.096-.033-.01-.006-.002-.722-.23-.317-.14-.172-.076-.006-.026-.052-.217-.335-.13-.18.119-.09-.057-.352-.22-.108-.067-.027-.201-.025-.187-.517-.447-.242-.118-.389-.19-.085-.103-.006-.007-.198-.24-.251-.305-.067-.082-1.134-.59-.458-.297-.222-.144-.274-.177-.165-.146-.404-.357-.228-.2-.292.072-.183-.072-1.275-.499-.485-.19h-.001l-2.359-.611-.12-.031-1.11-1.288-1.455-.942-.016-.01-.005-.003-.034-.022-.618-.4-.508-.33-1.48-.959-1.104-.715-.018-.016-.408-.353-.237-.206-.022-.018-.905-.784-.953-.826-.223-.25-.054-.06-.183-.206-1.79-2.008-.844-.947-.046-.045-1.162-1.117-.068-.065-.654-.629-.17-.164-.513-.26-1.622-.823-.153-.1-.208-.136-1.281-.84-.009-.006-.364-.127-.288-.101-.54-.19-.48-.167-.368-.13-.028-.007-.27-.073-.566-.153-.033-.01-.735-.022-.06.005h-.015l-.338.026.072.432-.019.023-.392.473-.26.313-.078.095-.098.118.356 1.103.01.032.011.065.238 1.475-1.202.034-.775.021-2.234.928-.986.41-.266.11-1.23.51-.624.115-.18-.083-.472-.217-.066-.018-.478-.129-.065-.017-.093.095-.04.04-.176.179-.031.032-.384.037-.163.015-.029-.072-.122-.302-1.176-.4-.122-.055-.222-.102-.283.098-.253-.36-.073-.032-.095-.043-.152-.068-.76-.342-.837-.376-.807-.16-.236-.47-.008-.008-.496-.444-.275-.102-.035-.013-.327-.003-.112.184-.036-.009-.335-.086-.147-.038-.08-.021-.026-.257-.45-.24-.275.154-.404.2-.262.128-.456.224-.398-.316-.134-.179-.58-.072-.017-.036-.245-.533-.006-.013-.006-.012-.37-1.187-.193-.236-.128-.156-.035-.043-.042-.05-.09-.198-.047-.101-.042-.09.255-.133-.16-.307-.008-.014-.283.025-.102-.221-.01-.022.112-.206.22-.403.08-.147.062-.078.202-.249.012-.015.22-.273.882-.424-.038-.163-.082-.354.274-.339.42-.204.477-.23.005-.003.217-1.142v-.001l.02-.933.009-.368.001-.075.015-.675-.057-.341-.078.006-.018-.012-.272-.197-.373-.268-.187-.452.007-.054.01-.093.124-.08.052-.033-.003-.13-.005-.209-.123-.32-.183-.473-.004-.011-.59-1.529-.008-.02-.273-.71-.001-.003-.173-.375-.084-.184-.058-.125-.114-.248-.149-.324-.019-.04-.145-.318-.078-.17-.005-.01-.145-.316-.002-.004-.538-1.17-.023-.051-.46-1-.637-1.39-.008-.015-.506-1.081-.217-.462-.45-.705-.418-.655-.698-.934-.385-.514-.306-.41-.597-.799-.133-.178-.047-.056-.174-.209-.003-.003-.48-.574-.173-.208-.666-.797v-.001l-.585-.49-.624-.522-.227-.19-.018-.01-1.402-.757-.598-.324-.508-.165-.489.258-.084-.04-.536-.26-.423-.054-.02-.003-.052-.006-.106-.014-.042.015-.42.152-.1.036-.284-.001h-.04l-.35.244-.038-.012-.72-.22-.91.097-.512.276-.653-.11-.46-.078-.062.029-.29.136-.703.068-.057.006-.033.003-.013-.003-.628-.161-.512.048-.635-.095-.93-.021-.018.004-.58.148-.19.14-.093.311-.364.25-.598-.148-.608-.02-.744.332-.675-.183-.027-.007-.403.028-.026.002-1.091-.154-1.064.08-.276.095-.14.048-.207.071-.338.45-.96.062-.956.284-.37.11-.306.207-.002.001-.003.006-.397.66-.118.197-.076.385-.53.078-.27.232-.11.332-.106.108-.216-.143-.018-.02-1.058-1.213-.012-.014-.002-.002-.032-.028-1.272-1.082-.305-.26-.196-.136-.344-.239-.677-.295-.387-.107-.278.08-1.05-.305-.608-.04-1.154-.097-.045-.004-.817-.224-.864-.019-.452-.274-.575-.134-.296.034-.275.21-.277.016-.576-.203-.167-.059-.67-.214-.332-.29-.504-.116-.467-.46-.659-.308-.47-.048-.37-.266-.794-.298-.649-.024-.368-.054-.6-.402-1.827-1.247-.764-.18-.472.075-.356-.14-.417.028-.035-.024-.709-.49-1.363-.89-1.026-.053-.903.408-.604-.096-1.128-.396-1.14-.767-1.435-1.14-.005-.004-1.56-1.24-.905-.72-1.229-.555-.685-.038-.402-.11-.006-.002-.032-.009-.751-1.242-.03-.05-.04-.066-.141-.233-.65-1.166-.15-.268-.978-2.203-.718-1.618-.614-1.446-.144-.726v-.008l-.012-.14-.034-.422-.225-.919-.091-.377-.302-.595-.42-.83-.584-.457-.456-.356-.363-.036-.58.257-.462-.196-.397-.168-.4-.4-.263-.264-.195-.104-1.266-.677-.99-1.406-1.786-1.536-.457-.166-1.05.381-.185-.081-1.272-1.632-.435-.32-1.44-1.594-.277-.233-.406-.055-.633-.015-.664-.969-.82-.872-.564-.169-.414.01-.324.154-.177.085-.4-.69-.231-.095-.297-.123-.645-.268-.432.029-.132.009-.015-.005-.54-.185h-.001l-.685-.305-.4-.398-.474-.201-.17-.072-.477-.006-.737-.772-.164-.172-.993-.84-.38-.196-.23.068-.147.043-.038.01-.616.16-.034-.01-.457-.148-.679-.4-.274-.05-1.098-.203-.341-.022-.134-.01h-.015l-.233-.016-.146-.01-.063.045-.102.073-.085.06-.09.065-.729-.11-.373.284-.409.118-.823-.176-.874.057-1.076.07-.37.097-.387.102-.615.162.152.222.141.207-.597.522-.403.066-.285.047-.144.334-.628.337-.401-.034-.455-.04-.33.022-.123.007-.26-.009-.137-.004-.162-.098-.823-.498-.157-.054-.209-.07-.415-.089-.448-.19-.013-.006-2.512-1.067-.033-.012-.613-.226-.74.027-.394.15-.684-.025-.839-.048-.01.002-.881.127-.042.02-.197.092-.15.07-.128.479-.223.505-.04-.02-.663-.325-.075-.037h-.011l-.41-.023-.32-.017-.865-.048-.091-.005-.357.19-.247-.276-.039-.043-.306-.342-.304-.338-.237-.265-.034-.038-.585-.128-.036-.027-1.033-.75-.295-.214-.324-.144-.216-.096-.275-.122-.362-.072-.583-.116-1.11.116-.565-.088-1.295-.964-1.082-.64-.432.097-.638-.572-.867-.522-.954-.083-.17.262-.092.014-.093.015-.697-.355-.573-.183-.997.172-.785.014-.925-.124-.13.175-1.344.048-.722-.171-1.77-.847-1.246-.321-.66-.055-.873.003-.973.135-.476.208-.51-.105-.725.024-3.525-.068-.11.012-.626.069-.317.158-1.66.044-2.116-.122-1.008-.246-.347.086-.227.267-1.716.351-1.076.064-.18.292-.36.086-.772.054-.34.023-.918.063-3.468.124-.88.225h-.005l-.362.257-.384.042-1.33-.185-.801.436-.125.472-.535-.305-.332-.345-.682.072-.216-1.995-.174-.79-.305-.61-.49-.45-.345-.482-.24-.48-.258-.072-.331-1.262-.24-.435-.623-1.13-1.103-.868-1.437-.887-.994-.232-.95-.74-1.305-.843-2.267-.015-.312.309-.885-.064-.771-.673-.4-.059-.23-.266.049-.455-.127-.478-.334-.448-.372.025.017-.195.285-.24.054-.727.295-.189.15-.972-.225-.16.043-.317.223-.152 1.297-2.88 2.022-5.999.184-1.087-.092-.519-.467-.47-.184-.694-.253-.283-.037-.173-.067-.306-.049-.227-.39-.487-.551-.28-.248-.768-.18-.8-.46-.26.228-1.12.465-1.057.205-.467.383-1.129.604-2.323.587-2.672.001-1.565-.487-.879-.782-.592-.154-.117-.945-.716-.032-.926-.001-.046-.077-.179-.105-.247-.41-.717-.462.072-.412-.125-.42.02-.516-.049-.261-.104.122-.157.154-.441.01-.032.423-1.213.03-.728v-.03l-.22-.151.252-.41.035-.057.084-.137.255-.88.835-2.771.079-.267.835-2.846.595-3.039.361-2.872.064-1.705-.063-2.309-.002-.08-.054-.34-.2-1.247-.065-.408-.012-.075-.023-.15-.03-.069-.059-.143-.006-.015-.056-.133-.07-.168-.452-1.085-.547-.837-.308-.194-.618-.39-.459.124-.583-.117-.038-.048-.379-.49-.21.023-.142-.116-.199-.163-.43-.483-.533-.599-.433-.213-.313-.115-.28-.102-.226-.083-.014.008-.173.107-.033.02-.06.037-.122-.023-.361-.07-.217-.04-.634-.308-.037-.018h-.025l-.361.013-.826.028-.499.302-.181.552.044.886-.366.067-.793-.425-.716-.539-.564-.9-.332-.228-.353.077-.302-.313-.58-.312-2.612-1.44-.763-.609-.77-.227-.614-1.16-.457-.134-.33-.399.046-.282-.441-.618-.636-.487-.189-.318-.638-.868.009-.618-.221-.142.203-.355.136.013.01-.045.154-.63-.155-.534.157-.328.278.047.119-.417.157-.533.69-1.1.41-1.226.693-2.078.337-1.58.083-.392.04-.715.04-.696-.313.016-.102-.077-.24-.118.04-.545.031-.424.263.122.125-.111.067-.44.007-.047-.124-1.641-.004-.02-.144-.646-.082-.373-.165-.374-.005-.01-.081-.186-.09-.203-.069-.156-.01-.023-.125-.283-.666-1.512-.296-.381-.668-.86-.238-.188-.655-.523-.263.101-.271-.141-.423.188-.645.019h-.03l-.981.03-.565-.04-.341-.141-.406-.589-1.097-.68-.553.104-.662-.145-.066-.015-.708-.342-.35.318-.446-.046-.411-.486-1.009-1.354-.342-.618-.269-.058-.276-.402-.313-.048-.232-.482-.55-.616-.07-.217-.016-.048-.235-.255-.17-.185-.059-.063-.28-.058-.034-.022-.24-.151-1.233-1.506-.568-.695-.251-.307-.074-.09-.353-.432-.117-.143-.07-.087-.33-.403-.05-.06-.02-.026-.21-.256-.03-.037-.117-.257-.065-.14-.123-.271.191-.119-.328-.476-.336-.761-.032-.072-.087-.196-.17-.587-.06-.033-.17-.093-.035-.053-.17-.252-.026-.04-.1-.337-.245-.827-.132-.17-.013-.016-.45-.577-.338-.142-.464-.445-.352-.73-.267-.302-1.188-1.98-.853-.556-.497-.071-.44-.206-.531.226.137.594-.17.018-.339-.242-.261-.502-.461-.016-.33-.603-.877-.47-1.31-.037-.899-.483-.774-.811-.351.107-.583-.365-.282.065-.471-.111-.198.263-.214-.134.022-1.158-.212-1.256-.522-.761-.634-.624-.86-1.092.219-.46-.014-.362-.166-.257-.125-.156-.109-.31.217-.218-.019-.793-.114-.592.21-.789-.337-.427-.506-.104-.167-.242.307-.227.013-.715-.467-.975-.102-.429-1.094-1.25-.816-.934-.66-.486-.385-.285-.277-.047-.122-.02.053-.294-.623-.507-.473-.385-.306-.457-.757-1.131-.049-.073-.344-.514-.075-.17-.29-.662-.113-.26-.378-.254-.73-.266-1.004-.723-1.026-1.353-.49-.268-.265-.381-.055-.08-.15-.15.266-.217-.01-.033-.07-.219.144-.368-.267-.232.113-.528-.396-.664-.189-.316-.126-.285-.13-.293-.019-.04.335-.1.195-.305.004-.007-.137-.396-.459-.293-.003-.093-.008-.255-.017-.54-.284-.73-.08-.204-.028-.073-.09-.41-.126-.568-.013-.246-.022-.428-.022-.436-.37-1.05-.05-.14-.419-.556-.406-1.244-.02-.064-.666-.656-1.034-.373-.104-.083-.015-.012-.465-.37-.662-.126-.156-.029-.755-.368-.178-.087-.609-.105-.514.068-.551-.563-.55-1.585-.569-.718-.068-.271.111-.339-.266-.299-.077-.086.088-.757-.376-.336-.731-.409-.276-.55-.253-.334-.337-.446-.007-.062-.026-.217-.225-1.206-.33-.721-.296-.422-.025-.036-.077-.17-.022-.048-.027-.06-.047-.297-.01-.066-.033-.038-.887-1.033-.296-.557-.046-.086-.194-.365-.173-.325-.035-.045-1.523-1.935.03-.111-.056-.115-.056-.119-.145.006-.2-.26-.521-.257-1.023-.917-.199-.504-.412-.442-.438-.47-.076-.082-.21-.382-1.767-1.13-.792-.507-.022-.014-.303-.05-.066-.01-.766-.797-.225-.234-.99-.69-.48-.113-.084-.06-.586-.415-.211-.15-.343-.048-.463.147-.54-.156-.047-.042-.084-.075.017-.202-.456-.415-.193-.043-.229-.05-.097-.022-.034-.244-.09-.199-.024-.052-.284-.063-.012-.005-.32-.142-.066-.03.208-.142-.215-.857-.032-.128-.119-.223-.689-1.297-.137-.258-.123-.087-.362-.256-.434-.053-.173-.335-.073-.049-.597-.4-.032-.021-.15-.205-.181-.246-.243-.33-.47-.64-.658-.241-.242.216-.233-.381-.004-.051-.004-.07h.28l.422-.994-.096-.567.008-.023v-.001l.049-.15-.105-.202.228-.385.071-.122.087-.805-.282-.438-.735-1.143-.03-.046-.025-.064-.021-.055.13-.202.135-.084-.086-.102v-.007l.01-.137.219-.102-.027-.751-.296-.191.053-.138.135-.354.28-.36-.051-.1-.039-.203.082-.151-.144-.142-.094-.257.185-.323-.178-.468-.466-.26-.144-.117-.125-.155.143-.167.05-.171-.056-.026-.139-.064-.04-.21-.097-.155.003-.007.033-.077.136-.03-.056-.102-.12-.158.057-.237.21-.86-.141-.157-.185-.205-.017-.349-.006-.11-.542-1.298.007-.11-.005-.066-.104-.007-.04.082-.038-.027-.09-.064.053-.384.015-.113.348-.029-.024-.502-.274-.803-.136-.075-.257-.142-.137-.303-.032-.07-.056-.892-.24-.432v-.015l-.018-.374v-.003l-.154.123-.173-.271.586-.58.02-.05.158-.048.022-.063-.106-.041-.064-.02-.083-.08-.006-.172.102-.053.034-.421-.059-.016-.067-.009-.099.016-.055-.035.005-.1v-.08l.002-.066-.004-.068.042-.022-.01-.117-.026-.06-.1.003-.33-.263-.194-.154-.05-.04-.219-.173-.037-.054-.005-.063.039-.048.053-.019.066.064h.063l.04-.077-.033-.091-.118-.005-.072-.077-.042-.125.031-.067.066-.036.07-.04.09.083.062.092.041.13.075-.02.084-.075-.003-.099.196.018.081.125.005.12.194.017.04-.093.136.09-.05.124.165.073.12-.063-.034-.16.037-.198.678.023.236-.192-.036-.251-.148-1.024-.227-.176-.039-.03-.075-.504.069-.037.058-.032.166-.09-.112-1.039-.007-.064-.026-.244-.775-.683-.566-.142-.16.353-.181.266-.03.043-.707-.663-.17-.16-.452-.147-.08-.337-.037-.16-.005-.02-.165-.154-.057-.053-.223-.454.089.002.11.078.041.048.06-.043v-.113l.047-.052-.002-.02-.005-.044.173-.073.293.135.294-.355.102-.375.011-.043.058-.242.127-.538.125-.53.12-.508.06-.041.168-.117.388.161.28-.144.235-.378.351-.326.048-.46.186-.433.084-.676.182-.276.542.003.454.259.02.043.09.186.145.3.004.007.081.17.34.082-.04.219.24.155.105.067.122.078.42-.02.033.051.138.218.037.058.027.043.001.002.135.213.174.274-.06.167.185.27.174.017.26.117.001.033.008.161.007.153v.001l-.034.306.215.056.684-.066.562-.191.889-.62.126-.135.003-.003.09-.097.008-.009.587-.63v-.001l.732-.95.883-1.441.606-1.209.32-.845.632-1.676.454-1.953.05-.215.063-.27.153-.657.092-1.267.168-2.323.044-.155.007-.025v-.002l.652-2.327.3-1.072.16-.46.44-1.255-.076-.402-.071-.37-.068-.353-.559-1.233-.297-.884-.073-.218-.354-1.054-.087-.202-1.244-2.912-.846-1.769-1.259-2.634-.431-.904-.35-.497-.01-.013-.061-.087-.924-1.312-1.103-1.212-.792-.65-.115-.095-.013-.007-.3-.163-.756-.41-.408-.22-.215-.117-.143-.078-.25-.007-.065-.002-.432-.013-.003.001-.994.613-.025.023-.337.318-.734.69-.216.202-.439.413h-.247l-.617-.494-.178-.017-.536-.052-.601-.173-.149-.042-.34-.111-.467-.152h-.002l-.847.068-.18.254-.007.01-.012.35-.152.466-.792-.145-.329-.06-.042.05-.033.039-.085.1-.293.067-.237.053-1.32.041-.194-.06-.397-.123-.198-.062-.128-.23-.009-.015-.63.006-1.55-.423-1.097-.718-.2-.35-.311.157-.656-.372-.09-.316-.306-.417-1.024-.233-.1-.407-.583-.745-.49-.098-.044-.22-.483-.46-.575-.331-.064-.135-.08-.17-.025-.05-.073-.156-.11-.096-.304-.265-.307-.267-.033-.029-.05-.044-.391-.24-.283-.173h-.001l-.003-.002-.312-.62-.463-.206-.007-.268v-.016l-.559-.121-.334-1.3-1.152-1.53-.6-.634-.595-1.332-1.088-1.703-.702-1.29-.613-.585-.997-.951-.606-.207-.73.232-.527.214-.156-.36-.424-.1-.124-.352.19-.98-.034-.512-.404-.485-.045-.35-.64-.207-.667-.464.118-.53-.118-.803-.372-.936-.367-.262-.554-.612-.452-.204-.434-.026-.34.13-.198-.366-.042-.77-.498-.322-.21-1.84.164-.515-.164-.52-.45-.841-.215-.87.088-.695.622-1.69.532-3.16.227-1.35.002-.016.171-1.016.247-1.465.15-2.198-.52-.494-.063-1.083-.058-.103-.955-1.71-.024-.861-.313-.485.1-.36-.338-.268-.154-.446-.083-.515-.158-.247-.067-.105-.05-.155-.085-.272-.1-.317-.109-.346-.03-1.512-.005-.3-.014-.73-.075-.376-.305-1.522-.001-.007-.462-1.089-.063-.147-.048-.044-.183-.167-.045-.04-.329-.3-.019-.018-.34-.256-.15.072-.047.023-.13.064-.763.369-.07.021-.03.01-.48.148-.052.016-.015-.046-.09-.28-.311.006-.1-.27.175-.27-.204-.38-.328-.27-.472-.72-.3-.733-.001-.022-.058-.658-.036-.416-.043-.494.003-.01.268-.732.147-.111.118-.599v-.027l-.042-1.367-.225-.145-.105-.604-.029-.168.19-.122.1-.997.039-.379-.268-.365.44-.114.061-.266.033.015.51.233.014-.01.443-.283.051-.033.013-.059.086-.383-.043-.08-.067-.13-.011-.021-.006-.186.304.018.018.001.111-.318.02-.058-.1-.202.001-.009.038-.528.01-.124.177-.184.084-.698.002-.014.034-.279.063-.527.07-.575v-.31l.004-1.701v-.082l.001-.455.004-1.348v-.301l-.217-1.438-.11-.728-.235-1.556-.067-1.162-.076-1.328-.084-1.473-.04-.707-.003-.043-.056-.954.382-.354.373-.346.954.088h.012l.564-.235.004-.001.483-1.03.222-.931.592.244.49.423 1.225-.193.673-.106 1.083-.172.07.002.346.007 1.027.02.584.512.113.098.269.443.338.558.082.135.209.343.026.042.103.762.13.952.03.595.034.691-.119.515.163.18.136.15.02.355.21.284.307.414.117.156-.071.19-.003.007-.085.041-.292.14-.163.078-.058.028.057.038.17.11.21.137.016-.021.184-.228.171.04.653.54-.32.982-.318.352-.485-.21-.367.18-.182.09-.197.294.32.314-1.201-.077-.057.028-.145.072.203 1.975.088.858.454.201.03.486-.002.06-.02.386.496.584-.187.68-.336.728-.565.01-.315.076.118.62.391.002.274.512.018.034 1.153.739-.256.686-.003.01.934.611-.304.576-.854-.549-.234.053-.39.682-.06.106.298.142.37.175.7 1.05.048.003 1.952.167v.371l.107-.013.324-.04.313-.255.797.068-.055.391-.044.355.73.847.122.006.585.031.659.035.328.017.814.526.854-.295.033.026.795.612.211.385.044.08.29.527.118.08.65.442.393.268.245.347.176.133.026.02.807.606.69.033.542.322.07.243.06.214-.457.576.385.43.635.515.258-.305.266.9.126.12.71.68.317.272.163.14.507-.073.482-.124.769-.483.29.046.41.408.24.368.008.033.337 1.366.031.242.03.22.054.423v.002l.02.04.263.569.306.267.288.25 1.42 1.24.015.003.454.092.11.023 1.684.34.086-.038 1.166-.518.046-.02-.129-.234-.061-.112-.113-.07-.238-.148-.104-.064-.427-.488.034-.746-.141-.258-.205-.375-.33-.95-.905-.426-.633-.298-.301-.181-.802.186-.527-.323-.118-.732.006-.26.001-.064.039-1.782-1.163-3.2-.279-.17-.121-.075-.153-.532-.58-1.383-.175-.656.061-1.091.026-.264.052-.519-.334-1.318-.024-2.004-.067-.272-.509-2.073-.076-.31-.016-.066-.248-.488-.007-.013-.26-.51-.03-.06-.084-.047-.428-.232-.05-.027-.445-.91-.01-.022-.02-.04-.283.06-.396-.435-.01-.012-.564-1.069-.173-.66-.4.139-.263.09.023.69-.172.32-.958-.82-1.51-1.488-.406-.429.31-.264-.009-.012-.548-.797-.207-.228-.163-.18-.037-.373.757-.383h.001l.298-.122.284-.115.084-.143-.505-.252-.492-.246-.573-.286-.538-.268-.027-.014-.22-.429-.333-.253-.039.052-.268.356-.46-.097.04-.407-.205-.068-1.04-.347.058-.226-.854-.203-.26-.289-.667-.191-.363-.105.049-.615.064-.817-.289-.37-.078-.073-.395-.368-.01-.168.657-.44.12-.08.312.056.416.075.492-.57-.134-.284-.863-.192 1.144-.611.771.168.753-.204-.026-.274-.047-.51-1.39-.114.161-.535 1.157.238-.109-.526-.011-.055.003-.105.023-.803-.507-.76-.69.373-.1-.753-.465-.804.513-.076.403.53.366-.054-.186-.889-.1-.153-.24-.372-.82-.415.005-.093.014-.28.892.07.328.194.137-.245-.134-.285-.286-.118-.032-.013-.263-.101-.271.227-.291-.243.233-.79-.765-.308-.06-.024-.796.114-.59-.067-.603-.16-.061.078-.217.279-.327.11-.845-.373-.56-.118-.355-.114.298-1.115-.226-.208-.008-.033-.056-.255-.46-.413-.286.078-.037-.298-.623-.124-.262-.498.225-.227-.212-.566-.655-.219.278-.356-.091-.393-.322-.22-.363-.631.037-.225.864.106.454.171.055.279.247.304.412.287.598-.47-.119-.163-.313-.432.037-.2.014-.075 1.51-.238.011-.005 1.122-.574.5-1.143-.064-.436-.284-.417-.105-.942.099-.448.255-.026.182.434.503.021 1.174.55.574.245.174-.1.159-.092.315-.183.73-.555.133.015.032.004.069.007.896.101.032-.027.432-.375.096-.084.38-.591.3-.01.163-.007.554-.746.118-.491.005-.019.04-.166.306-.33.347.002.334-.33.033-.677-.372-.688-.109-.202-.004-.008-.005-.009-.357-.662-.549-1.599-1.43-2.078-1.098-.922-2.084-1.468-.878-.564-.337-.216-1.584-.762-.865-.376-.355.046-.054.007-.112.4-1.575.86-1.554 1.083-.043.03-.227.006-.261.007-.35.008-.068-.021-.37-.119h-.002l-2.113.24-.534.159-.07.219-.052.162.122.154.09.112.03.04.128.393v.193l.002.823.023 1.89-.156.312-.01.02-.21.421-.363.725-.051.43-.042.35-.036.097-.273.726-.282.751.061 1.263.127.238.092.17.013.025.545.107.431.687.449.156.108.037.063.022.298.104.222.077.037.012.014.005.053.019.181.063.013.015.056.074.434.562.041.054.34.44.099.25.058.145.066.391-.706.408-.583-.188-.204-.334-.436.272-.228.396-.013.258-.045.066-.175.256-.562.079-.627.006-.197-.04-.019-.005-.022-.004-.089.273.106.072.257.174.104.07-.02.372-.01.177.23 1.224.462.17.052.25.009.041-.56.241-.274.3-.546-.259-.112-.257-.257-.081-.235-.074-.002.046-.003.041-.028.54.115.763.702.716.56.03.098.106.18.195.076.081.04.043.138.149.28-.04.134.438.028.366-.245.08-.007.018-.079.2.185.17.035.033.095.088.036.033.064.048.152.113.518.387.29.346.786.106.278.571.052.107.335.294.016.079.045.215-.133.114-.127-.102-.127.095-.105.078-.02.174-.002.02-.007.067-.326.148-.162.27-.467.01-.016.001-.428.034.251.513.035.392-.78-.672-.42-.642-.051-.29.153-.188.124-.15-.074-.176-.033-.08-.044-.103-.056-.135-.024-.056-.627-.404-.068-.08-.368-.443-.322.13-.467-.024-.036-.002-.089-.004.267 1.627-.161.144-.17.153.178.199.137.152.106.45.526.232.697.5-.013.248-.01.186-.006.122-.047.142-.047.146.003.02.025.15.032.19.001.004.061.171.132.372.233.514-.063.48-.062.005-.043-.154h-.155l-.147.072v.001l-.021.108-.049.27-.056.312-.33-.146-.602-.002-.356.377-.168-.006-.108-.006-.061.03-.02.04.058.132-.03.03-.443-.232-.58-.271-.824-.07-.186.349-.022.041-.259.159.118.41-.322-.485-.154-.231-.144-.217.01-.028.097-.244-.176-.353-.88-.63-.01-.015-.4-.584-.315-.46-.022-.07-.144-.462-.916-.436-.129-.303-.213-.099-.114-.052-.182.29-.18-.226-.4-.529-.629-.832-.21-.278-.966-.38-.278.104-.278-.172-.219-.233-.223.019-.133-.102.055-.275-.055-.074-.944-1.266-1.272-.785-1.517-.27-.005.002-.456.131-.742.337-.5.37-.065.215-.181.1-.576-.29-.272-.415-.375-.192-.222.071-.258-.147-.154-.2-.034-.153-.138-.618-.176-.79-.278-.568-.001-.002-.891-.57-.43-.464-.337-.064-.545-.231-.142-.371-.262-.247-.366.003.042-.246-.235-.21-.261-.037-.029-.282-.556-1.819-.399-.737-.69-.752-.142-.156-.21.011-.703-1.188-2.613-2.127-1.93-.96-1.764-.412-1.396-.113-1.265-.395-1.344.234-1.258.76-.795 1.05-.126.324-.07.492.028.33.678.35.49.08.298.4-.662-.061-.164-.237-.903-.021-.411-.26-.22.113-.935-.103-.08-.175-.326.006-.209.102-.753-.14.3-.443.42-.046.303-.294 1.714-3.679 2.869-6.853.833-2.475.325-1.509.017-.983-.265-.632.025-.53-.157-.24-.38-.161-.48-.36.176-.419-.006-1.124-.111-.393-.897-1.328.057-.553-.095-.214-.274-.192-.447-.846-.154-.325-.097-.227.037-.208.611.355.352.356.228.492.456-.246.058-.031.038-.02-.012-.172-.027-.401.25-.482.133-.78.01-.057-.293-.884-.234-.71-.012-.01-.669-.55-.199-.71-.38-.304-.154-.636-.41-.641-.085-.134-1.474-1.427-1.092-.363-.459.01-.507.214-.216.476.057.221.033.127-.131.274-.371.078-.395-.401-.698-1.642-.213-.194-.194-.391.382.172.039-.083.485-1.05.035-.077.02-.304.122-1.79.022-.324-.445-.937-.257-.543-.023-.047-.003-.007-.116-.244-.049-.216-.115-.508-.134-.588-.614-.463-.072.18-.129-.053.048-.488-.137-.792-.262-.725-.072-.2-.379-.505-.327-.13-.152-.243-.084-.476-.355-.152-.002-.72-.005-.012-.127-.321-.277-.024.142-.231-.029-.14-.093-.467-.025-.12-.013-.011-.008-.007-.563-.448-.072-.02-.444-.123-.11-.355-.813-.564-.041-.22v-.003l-.338-.155-.33-.683-1.46-1.175-.905-.571-.261-.33-.548-.213-.413-.36-.393.062-.282-.106-.543-.337-.195-.407-.165-.274-.412-.099-.263-.212-.396.15-.312-.198.043-.38-.26-.11-.562-.632-.16-.18-.056-.064.009-.019.101-.209-.06-.23-.397-.304-.363.097.005-.43-.291-.03-.262-.386-.035-.052-.25-.049-.062-.04-.432-.278-.053-.062-.026-.032-.225-.268-.36-.255-.013-.338-.254-.359-.501-.348-.455-.221-.03-.238-.494-.342-.105.123-.584-.697.015-.55.113-.498-.258-.709-.435-.698-.387-.164-.191.151-.189-.177-.144-.286-.477-.25-.246-.41.295-.042.126-.247-.053-.296-.058-.026-.483-.213-.297-.654-.804-.99.22-.098-.137-.266-.327-.211.089-.154-.53-.801-.11-.233-.03-.06-.288-.398-.108-.147.243-.181-.25-.252-.001-.3-.472-.54.06-.188-.286-.549-.376-.125-.745-.651.22-.141-.004-.387-.194-.327-.215-.502-.128-.271-.077-.163-.27-.038-.084-.125-.114-.17-.384-.454-.065-.24-.012-.047-.057-.213-.386-.503-.405-.316-.149-.056-.185-.07-.204-.076-.354-.31-.261-.23-.123-.108-.39-.455-.017-.019-.22-.437-.406-.17-.675-.372-.202.062-.024.007-.294-.175-.186-.325-.004-.008-.168-.293-.094-.164-.228.017-.206-.31.178-.13-.13-.342-.322-.25.07-.453-.156-.426-.296-.313-.359-.118.08-.43-.616-.4.028-.152-.382-.202-.212-.164-.247.054-.082-.17.166-.305-.526-.525-.276-.392-.164-.085-.118-.062-.202-.248-.083-.102-.213-.022-.126.2-.17-.205-.26.024-.091.344-.186-.042-.068-.203.275-.299-.036-.095-.024-.06-.047-.125-.336-.134-.23.057-.125.03-.065-.198.13.003.08.002.12-.155-.111-.324-.159-.312.103-.182-.172-.131-.087-.258-.517-.422-.415-.15-.082-.205-.471-.196-.157-.42-.466-.396-.278-.454-.306-.036-.184-.089-.163-.08-.303-.916-.11-1.093-.343-.7-1.492-1.094-.071-.308-.229-.298-.204-.513-.298-.253-.771-.654-.158-.38-.154-.339-.242-.123-.042-.122.102-.17.023-.16-.166-.142-.333-.07-.26-.203-.066-.051-.123.056-.17.077-.099-.112-.085-.097-.076-1.005.175.024.15-.662-.382-.475-.12-.5-.54-1.05.412-.128.05-.016.215.315.303-.141.636-.66.87-1.254 1.274-2.561.587-1.613-.112-.392.075-.478.156-.088.018-.527-.34-.115.214-.106-.106-.32.252-.212-.24-.439.256-.2-.16-.241-.101-.317.101-.098-.55-1.594.037-.482-.22-.276.156-.094-.172-.726.067-.165-.03-.053-.154-.276-.138-.353.213-.054.046-.387-.09-.233-.268-.39-.15-.965-.265-.46.173-.227.02-.27-.152-.228.11-.424-.186-.052-.075-.234-.329-.141.011-.302-.342-.007-.093.208-.201-.064-.122-.38.07-.46-.077-.636.144-.781-.308-.236-.201-.265-.09-.45-.491-.427.121-.244-.268-.35-.048-.42-.248-.549-.269-.013-.084-.215-.413-.086-.09-.404.258-.325-.308-1.03-.119-.243.44.05.1-.118-.018-.056-.099-.313-.017-.02-.291-.326-.037-.04-.01-.259-.092-.515-.22-.046.13-.216.237-.356-.349-1.537-.358-.13.155-.57-.121-.117.04-.181.037-.162-.045-.53-.192-.369-.012-.024-.237.036-.299.14-.18-.435-.085-.202-.046-.11.192-.452-.186-.614.146-.193.105-.14.247.307.22-.055.035-.232-.087-.276.037-.5-.1-.05-.281-.141-.267.196-.313-.219-.275-.563.028-.375.18-.048.335.14.44-.11.055-.5-.11-.11-.241-.24-.197-.288.239-.032-.04-.183-.092-.223-.22.133-.12-.324-.387-.428.079-.394-.318-.518-.39-.477.313-.604.04-.184.029-.13-.11-.273-.064-.157.173.086.207.104.217.03.086.01-.235-.466-.4-.379.02-.02.137-.13.075-.072.01-.03.119-.378.007-.147.013-.296.14-.622.083-.504-.016-.621.048-.41-.026-.447.186-.158.243-.009.102-.229.032-.33.028-.24.008-.068-.044-.333-.114-.236-.038-.08.124-.16.222.084.253-.034.087-.085.05-.049h-.001l-.05-.29-.228-.071-.216.034-.065-.108-.08-.133-.055-.335-.054-.333.278.092.117-.12.179-.237-.256-.208.123-.183.19-.376-.042-.055-.012-.227.124-.069.055-.153.109-.305.286-.802-.032-.342.088-.058.2-.133.205-.952.051-.376-.169-.136.043-.18.16.088.321-.09.184-.162.014-.023.518-.846.452-.737.51-1.14.09-.237 1.039-2.735v-.041l-.005-.648-.244-.54-.095-.686-.167-.118-.168-.287-.046-.207.112-.159.044-.38-.207-.237-.424-.662.026-.3-.142-.436.038-.417.12-.339.127.067.164-.208.178-1.154-.312-.521.193-.196-.044-.713-.004-.35.111-.39.036-.998-.098-.211.095-.372-.162-.483-.268-.246.124-.5.047-.862-.036-.29-.075-.578-.196-.194-.095-.237-.324-.492-.026-.473-.25-.69-1.18-.812-.321-.506-.098-.743.244-.12-.024-.394-.14-.084-.098-.059-.183-.152.27-.055.003-.353-.21-.742-.186-.188.244-2.303-.055-1.894-.25-.964-.156-.139.072-.153v-.87l-.161-1.032-.125-.435-.137-.21-1.976-1.253-.474-.525-.023-.144-.322-.158-.13-.269-.332-.021-.044-.213-.092-.236-.16.047-.24-.334-.464-1.232-.01-.565-.84-2.847-.505-.394-.177.018-.106-.239-.591-.462-.095-.182-.28-.11-.247-.563-.06-.526-.15-.432-.808-1.54-.293-.961-1.094-1.115-.68-1.271-.453-.487-.293-.454-.255-.504-.134-.173-.286-.37-.559-.868-.021-.016-.405-.297-.062-.046-.34-.415-.605-.407-.393-.132-.245.034-.16.243-.15.07-.257-.15-.227-.334-.069-.235-.202-.163-.013-.224.164-.392-.1-.17.05-.795.008-.122.117-1.813-.377-1.229-.422-.511-.102-.3-.648-1.003-.151-.409-.215-.361-.551-.277-.266-.307-.006-.004-.603-.431-.212-.03-.436-.34-.654-.183-.242-.2-1.318-.56-.332-.32-.06-.024-.179-.067-.239-.227-.403-.077-.031-.055-.768-1.354-.213-.375-.469-.826-.273-.483-.465-.409-.374-.329-.272-.391-.37-.43-.448-.253-1.094-.708-.989-1.265-.349-.244-.789-.502-.484-.59-.843-.95-.722-.815-.09-.102-.412-1.079-.354-.315-.725-.417-.657-.684-.174-.365-.352-.335-.176-.381.11-.38-.002-1.09.409-1 .319-.782.126-.308.102-.604.323-.438.194-.474-.172-1.131-.08-.52-.225-.368-.24-.344-.117-.44-.015-.426.038-.276.014-2.406-.04-.159-.418-1.633-.354-.602-.843-.87-.082-.363-.11-.265-.17-.228-.114-.229-.217-.434.059-.515-.03-.284.011-.35-.314-.219-.105-.213z"/></svg>