<svg width="879" height="557">
    <path d="M71.4975221,32.0795734 L70.771,33.459 L70.139,35.323 L69.46,37.003 L68.085,35.438 L66.885,37.151 L67.059,38.858 L65.249,36.824 L66.329,34.977 L64.867,36.925 L65.347,39.497 L68.238,39.122 L69.78,37.072 L72.722,36.817 L73.021,35.022 L72.961,33.357 L73.223,31.64 L73.696,29.665 L74.414,27.851 L75.76,26.327 L76.64,24.61 L77.577,22.672 L76.865,20.847 L77.094,19.093 L76.145,20.877 L74.828,18.956 L76.292,17.497 L76.695,15.636 L75.947,13.96 L74.451,12.435 L76.765,13.346 L77.516,11.58 L78.176,9.87 L78.236,8.186 L76.334,7.04 L76.213,5.171 L75.479,3.598 L75.889,1.963 L81.321,2.932 L85.52,4.123 L90.208,5.538 L95.058,6.822 L98.732,7.788 L102.469,8.819 L108.95,10.526 L114.062,11.884 L118.155,12.915 L121.495,13.761 L125.879,14.857 L129.993,15.872 L138.769,17.988 L141.442,18.621 L146.866,19.879 L151.524,20.967 L154.764,21.716 L158.555,22.55 L163.235,23.574 L168.317,24.655 L175.881,26.257 L179.923,27.122 L186.577,28.439 L191.437,29.382 L194.14,29.945 L197.915,30.689 L200.883,31.277 L205.283,32.078 L208.883,32.741 L221.704,35.002 L224.338,35.46 L227.703,36.047 L231.33,36.663 L234.546,37.183 L238.251,37.771 L241.889,38.323 L244.835,38.784 L249.237,39.438 L252.314,39.889 L259.224,40.879 L262.223,41.303 L265.37,41.759 L272.6,42.745 L276.891,43.304 L284.331,44.239 L288.022,44.702 L291.682,45.127 L299.447,46.028 L302.965,46.419 L306.646,46.824 L310.545,47.226 L313.654,47.545 L316.469,47.83 L321.442,48.322 L327.204,48.859 L335.616,49.588 L338.23,49.812 L345.08,50.376 L351.222,50.83 L361.377,51.553 L364.135,51.721 L369.705,52.059 L375.332,52.373 L379.633,52.602 L386.487,52.943 L390.028,53.107 L393.818,53.273 L399.287,53.481 L406.701,53.722 L421.5,54.096 L429.1,54.231 L435.874,54.325 L443.286,54.377 L449.352,54.39 L457.909,54.386 L460.941,54.359 L460.911,50.461 L460.889,47.931 L460.874,46.284 L463.624,46.553 L465.506,47.816 L465.911,49.791 L466.259,51.657 L466.632,54.274 L467.612,56.695 L467.454,58.463 L468.814,59.943 L471.405,60.285 L473.75,61.215 L476.356,61.543 L478.978,61.805 L480.12,63.352 L482.463,64.108 L484.974,63.446 L486.43,61.974 L489.035,61.7 L491.774,61.607 L495.478,63.26 L496.116,65.244 L498.909,65.358 L499.288,67.066 L500.387,68.841 L501.872,67.153 L504.663,66.797 L505.938,68.306 L507.981,69.509 L510.285,70.384 L511.346,71.932 L513.872,72.45 L516.57,72.071 L518.215,70.682 L520.064,69.491 L521.96,68.267 L523.263,69.935 L525.603,71.064 L528.309,70.877 L530.981,70.754 L533.712,70.632 L534.963,72.088 L537.63,72.152 L540.312,72.111 L539.306,73.644 L537.16,75.206 L534.942,76.458 L532.62,77.341 L530.462,78.317 L527.58,79.401 L525.505,80.774 L522.988,82.743 L520.859,84.799 L519.415,86.255 L518.362,87.797 L516.724,89.785 L515.449,91.261 L514.064,92.681 L512.412,94.19 L510.46,96.153 L508.636,97.514 L506.488,99.325 L507.058,101.4 L509.786,101.731 L512.587,100.651 L515.11,99.81 L517.315,98.476 L519.709,97.589 L521.726,96.359 L523.845,95.272 L525.453,96.649 L524.467,98.592 L523.907,100.328 L523.268,102.184 L525.754,101.36 L528.201,102.706 L530.7,103.277 L532.866,102.036 L535.222,101.116 L537,99.834 L538.709,97.915 L541.208,96.955 L543.851,96.666 L547.276,95.051 L548.7,93.221 L551.321,92.528 L552.007,90.831 L553.553,89.343 L555.141,87.776 L557.343,86.19 L558.553,84.288 L560.39,83.056 L563.188,81.839 L565.806,81.447 L568.556,81.998 L566.61,83.108 L565.254,84.514 L563.386,86.22 L561.604,87.669 L560.833,89.286 L559.975,91.197 L558.858,92.717 L558.539,94.571 L558.709,96.25 L560.061,94.74 L561.825,93.382 L561.435,95.484 L562.874,93.826 L565.616,93.569 L568.463,93.858 L570.485,95.075 L571.8,96.756 L573.116,98.402 L575.013,99.663 L575.612,101.295 L578.889,101.135 L581.542,101.085 L584.426,100.923 L585.064,99.246 L586.083,100.777 L588.051,99.59 L590.054,98.257 L592.246,96.416 L595.009,95.708 L597.901,95.242 L600.932,95.049 L604.001,93.875 L606.738,92.503 L609.379,92.012 L609.01,93.651 L609.107,95.694 L609.056,97.537 L611.529,98.301 L614.45,97.56 L616.177,98.854 L617.916,97.592 L620.201,96.671 L622.231,95.601 L622.533,97.965 L623.142,99.628 L623.666,101.281 L621.586,102.61 L623.912,103.509 L625.224,105.394 L627.654,106.395 L628.325,104.598 L630.839,103.62 L632.444,105.177 L633.142,107.051 L630.068,107.352 L627.176,107.05 L624.54,107.35 L621.055,108.02 L618.366,107.603 L616.159,106.62 L615.799,108.291 L615.521,110.451 L612.728,109.718 L611.047,108.154 L608.204,107.596 L605.67,106.935 L602.992,107.5 L602.03,109.123 L599.865,110.15 L597.658,111.096 L594.697,110.839 L591.976,112.176 L591.662,113.936 L590.584,115.462 L589.156,116.872 L588.163,118.843 L587.273,117.19 L587.619,115.454 L588.97,113.806 L586.159,114.246 L584.832,115.975 L583.511,117.647 L582.426,115.74 L581.263,117.416 L579.558,119.334 L578.736,121.206 L578.253,122.882 L577.608,124.555 L576.696,126.417 L575.672,128.474 L574.5,130.23 L574.319,132.416 L573.394,134.011 L571.342,135.097 L571.101,137.064 L570.127,138.95 L569.54,140.675 L569.295,142.522 L572.027,141.617 L573.566,139.996 L574.472,137.663 L576.088,136.266 L577.869,134.945 L578.391,133.278 L579.378,131.564 L579.89,129.934 L581.576,128.641 L582.048,127.004 L582.713,128.901 L582.848,130.698 L581.64,132.446 L581.319,134.207 L580.053,136.132 L579.428,137.803 L578.858,139.718 L577.97,141.488 L577.455,143.536 L577.28,145.424 L576.911,147.515 L577.619,149.544 L576.952,151.431 L575.677,152.877 L575.238,154.89 L574.924,156.767 L575.102,158.735 L575.542,160.57 L575.299,162.383 L574.588,164.075 L574.505,166.264 L573.664,168.07 L573.39,170.15 L573.633,171.993 L573.832,173.756 L573.902,175.576 L574.918,177.304 L575.199,179.153 L576.356,180.832 L576.122,182.649 L575.897,184.455 L576.216,186.396 L576.487,188.393 L576.266,190.066 L576.696,192.426 L577.667,194.046 L579.008,195.574 L579.862,197.984 L580.399,199.602 L581.103,201.215 L582.145,202.848 L583.613,204.212 L586.199,204.72 L588.531,203.846 L591.404,202.299 L593.716,200.462 L595.121,199.034 L596.239,197.344 L596.713,195.54 L597.392,193.657 L598.663,191.125 L599.695,188.563 L600.092,186.721 L600.442,184.846 L600.48,183.021 L600.438,181.308 L600.497,179.047 L600.254,177.283 L599.997,175.468 L599.532,173.439 L598.705,171.322 L597.86,169.762 L596.381,167.315 L595.606,165.667 L594.889,163.697 L593.924,161.977 L593.472,160.263 L594.455,158.281 L594.715,156.24 L593.952,153.526 L593.007,151.973 L594.137,150.321 L594.96,148.347 L595.501,146.662 L596.212,144.089 L596.079,142.348 L596.32,140.53 L595.644,138.861 L596.71,137.199 L598.028,135.262 L597.84,133.57 L599.502,132.198 L601.989,131.137 L602.402,129.432 L603.456,127.388 L604.866,125.845 L604.119,127.705 L605.031,129.4 L603.952,131.006 L604.288,132.762 L604.445,134.445 L605.924,132.947 L605.91,131.084 L606.464,133.053 L605.707,134.758 L607.309,133.08 L607.935,130.04 L607.824,127.522 L607.304,125.642 L607.6,124 L609.242,122.605 L611.862,121.775 L613.874,120.714 L611.411,119.794 L610.538,118.181 L610.88,116.482 L612.312,114.836 L613.682,113.271 L616.395,112.861 L618.667,113.994 L621.82,114.165 L624.173,115.15 L625.245,116.745 L628.029,117.048 L630.188,118.355 L632.724,119.042 L635.824,119.943 L636.647,121.622 L637.881,123.172 L638.798,124.722 L636.48,125.757 L636.856,127.489 L638.891,128.755 L639.51,130.542 L640.066,132.174 L639.795,134.016 L640.005,135.737 L640.031,137.966 L640.149,139.807 L639.087,141.456 L637.304,142.993 L637.285,145.155 L636.268,146.886 L635.022,148.356 L633.008,149.58 L632.76,151.549 L632.8,153.251 L633.384,155.422 L636.225,156.115 L638.342,154.857 L639.854,153.367 L639.745,151.625 L640.017,149.984 L642.138,148.566 L644.056,147.201 L645.648,145.87 L648.625,145.552 L650.705,147.137 L651.805,148.742 L652.668,150.757 L653.079,152.382 L653.429,154.217 L654.256,156.254 L654.89,157.899 L655.306,159.749 L655.74,162.025 L656.427,163.686 L657.24,165.348 L658.173,167.031 L657.621,168.741 L657.628,170.385 L657.829,172.332 L657.716,174.427 L656.891,176.06 L655.28,174.732 L653.56,175.978 L652.448,177.624 L652.607,180.092 L651.677,181.698 L649.702,183.038 L649.457,185.561 L649.714,187.394 L649.112,189.214 L648.03,190.84 L646.834,192.537 L645.751,194.38 L645.883,196.054 L648.449,196.444 L650.877,197.386 L652.897,198.455 L655.595,198.241 L658.038,198.994 L660.706,200.725 L663.166,200.071 L666.21,198.535 L668.883,197.036 L672.086,196.991 L674.248,195.89 L675.656,194.46 L676.964,192.926 L678.461,190.993 L680.889,189.338 L682.768,187.896 L685.019,186.901 L687.074,185.608 L689.647,184.23 L691.745,182.845 L693.736,181.572 L695.555,180.037 L696.508,178.416 L698.81,177.298 L700.677,175.911 L702.813,174.246 L704.631,172.481 L705.987,170.704 L707.642,169.153 L709.544,167.893 L710.287,165.885 L711.151,164.328 L712.999,162.567 L712.73,160.833 L711.758,159.254 L709.751,157.86 L708.786,156.322 L708.659,154.6 L708.059,152.782 L711.069,151.185 L713.409,150.099 L715.557,149.088 L718.205,148.442 L721.604,147.822 L724.349,147.459 L726.995,147.561 L729.408,148.404 L732.185,148.401 L734.519,147.362 L737.073,146.709 L739.937,146.512 L742.234,145.181 L743.873,143.605 L745.123,141.559 L746.742,139.9 L749.338,139.018 L749.914,137.245 L749.542,135.585 L748.566,133.091 L748.218,131.367 L748.775,129.68 L746.425,128.725 L745.238,126.623 L745.957,124.938 L747.468,122.942 L748.971,121.514 L751.261,119.649 L751.858,117.848 L752.73,116.11 L753.986,114.164 L755.253,112.026 L756.315,110.403 L757.63,108.866 L758.993,107.361 L760.671,105.923 L762.168,104.399 L764.68,103.412 L767.917,102.786 L771.074,102.205 L773.826,101.573 L777.752,100.435 L780.648,99.709 L784.087,98.743 L786.812,98.017 L789.481,97.305 L792.665,96.477 L795.156,95.882 L798.007,95.309 L800.518,94.783 L803.515,93.977 L806.233,93.228 L809.451,92.311 L812.207,91.545 L812.296,89.906 L812.531,88.251 L812.274,86.571 L813.527,85.061 L816.112,85.474 L816.777,83.856 L819.574,84.185 L820.537,82.517 L819.96,80.717 L822.676,80.588 L821.366,79.017 L820.898,77.103 L821.725,75.504 L822.953,73.833 L824.301,72.408 L823.763,70.704 L824.943,69.211 L825.163,67.572 L823.846,65.779 L824.017,64.057 L823.201,62.263 L823.336,60.585 L823.737,58.845 L825.079,57.227 L824.698,54.208 L824.324,51.279 L825.343,48.295 L827.886,40.828 L828.933,37.782 L830.693,32.669 L833.387,32.591 L833.848,34.657 L834.517,36.275 L836.849,37.058 L838.421,35.653 L840.514,34.46 L841.855,33.034 L843.12,31.577 L845.557,30.92 L847.76,31.867 L849.966,32.835 L851.401,34.279 L853.247,35.515 L854.139,38.444 L854.664,40.188 L855.878,44.087 L856.95,47.395 L857.963,50.589 L859.481,55.464 L860.063,57.401 L860.361,59.153 L860.793,61.021 L861.348,62.839 L864.029,63.495 L866.789,62.842 L867.65,64.457 L867.566,66.448 L868.751,67.923 L868.336,69.552 L869.713,70.954 L872.246,70.477 L874.784,71.304 L875.743,72.846 L876.907,74.356 L878.255,75.774 L878.281,77.803 L877.202,79.838 L876.055,81.494 L873.367,81.08 L873.882,82.712 L872.858,84.294 L872.8,86.137 L870.177,85.543 L869.17,87.234 L867.956,88.689 L866.237,90.678 L864.415,91.942 L864.681,93.849 L862.186,94.624 L860.489,93.196 L861.221,91.515 L858.423,92.062 L858.774,93.869 L859.9,95.351 L859.105,97.378 L860.015,98.967 L859.362,100.667 L858.856,98.648 L857.368,97.184 L857.47,95.43 L854.917,94.633 L854.502,92.679 L854.427,90.836 L853.767,92.52 L852.234,94.035 L853.098,95.614 L852.474,97.243 L852.558,98.94 L852.343,100.732 L853.698,102.274 L851.917,103.827 L851.05,106.188 L849.392,104.856 L848.012,106.713 L846.952,108.28 L845.099,109.492 L843.776,111.446 L841.396,112.354 L839.347,113.563 L838.869,115.577 L837.923,117.338 L837.215,118.967 L836.939,120.703 L835.643,122.221 L835.267,124.26 L835.785,125.949 L835.206,127.625 L834.628,129.235 L834.24,130.913 L834.01,132.558 L834.745,134.748 L835.61,136.356 L838.291,136.53 L838.118,138.248 L835.994,139.283 L835.846,140.962 L835.314,142.596 L834.936,144.261 L834.728,146.054 L837.235,145.461 L839.391,146.704 L841.118,148.365 L841.135,150.052 L843.334,151.283 L844.109,153.072 L846.511,154.518 L849.264,153.993 L851.178,152.731 L852.146,150.854 L851.231,149.104 L849.949,147.622 L847.333,147.277 L850.167,146.932 L851.784,148.495 L853.004,150.471 L853.858,152.541 L854.126,154.596 L854.036,156.637 L853.73,154.672 L851.167,155.313 L849.592,156.63 L846.926,157.49 L845.389,159.178 L843.466,160.849 L842.043,162.369 L840.25,163.661 L841.813,162.19 L843.461,160.208 L843.657,158.39 L843.256,156.535 L841.735,158.107 L841.043451,159.200404 L841.09,159.236 L841.194,159.449 L841.206,159.553 L841.068,159.534 L840.924884,159.387871 L840.73,159.696 L839.585,161.495 L837.134,162.543 L835.236,160.765 L835.342,162.489 L834.568,164.179 L833.994,162.556 L834.201,160.901 L835.009,159.178 L832.411,158.516 L831.083,159.947 L832.313,161.793 L832.54,163.74 L832.518,165.753 L830.189,167.408 L828.084,168.685 L825.542,169.125 L823.37,170.091 L821.157,171.082 L819.043,172.473 L816.636,173.33 L814.159,174.085 L811.543,174.778 L809.687,176.082 L808.481,177.558 L806.319,178.822 L804.694,180.522 L802.798,181.838 L800.888,183.048 L799.711,184.927 L799.684,186.584 L801.467,185.265 L803.377,184.011 L805.019,182.712 L807.778,183.095 L808.965,181.509 L811.83,180.804 L814.629,180.127 L817.372,178.728 L818.75,177.175 L820.184,174.874 L821.888,176.393 L824.583,176.847 L826.625,175.261 L824.76,177.414 L820.98,180.708 L818.518,182.51 L816.103,184.134 L813.625,185.937 L811.824,187.417 L809.625,188.739 L806.482,189.939 L804.426,191.076 L801.548,191.661 L799.171,192.895 L796.699,191.972 L795.985,193.839 L794.331,195.245 L796.901,196.027 L799.049,196.989 L799.342,198.951 L799.354,202.396 L799.525,205.517 L799.982,209.354 L799.723,211.848 L798.82,215.019 L798.093,216.75 L797.561,218.676 L796.365,220.206 L795.161,221.761 L794.162,223.443 L793.403,225.838 L792.836,228.093 L792.014,229.786 L790.238,228.414 L790.599,226.619 L789.124,225.258 L786.509,225.64 L784.293,224.496 L782.353,223.288 L779.981,221.83 L778.604,220.207 L777.779,218.651 L778.151,216.825 L776.817,218.506 L777.863,220.063 L777.897,221.779 L779.556,223.52 L781.28,224.922 L782.207,226.486 L782.61,228.937 L784.396,230.751 L785.792,232.875 L787.83,234.314 L789.962,236.697 L791.034,240.295 L791.302,242.364 L790.998,244.145 L790.774,246.195 L790.644,248.21 L790.075,250.595 L789.508,252.218 L788.997,254.18 L786.973,255.555 L786.344,257.544 L786.081,259.466 L786.086,261.16 L785.582,263.513 L785.53,265.244 L784.88,267.572 L784.615,269.344 L784.056,270.976 L782.71,272.422 L781.589,270.842 L780.821,269.247 L780.873,267.421 L780.768,265.637 L780.891,263.687 L780.95,261.957 L781.56,260.334 L781.939,258.642 L782.972,256.993 L783.607,255.393 L783.508,253.715 L780.967,254.533 L779.825,252.812 L779.973,250.919 L778.028,249.715 L778.091,248.033 L778.606,246.071 L777.706,247.914 L776.717,246.076 L775.762,247.633 L776.445,249.403 L773.817,248.989 L772.123,247.597 L771.107,245.645 L771.609,243.698 L770.71,242.009 L773.532,241.972 L772.106,240.318 L769.643,239.579 L769.34,237.832 L770.826,236.439 L770.001,234.863 L768.517,236.271 L768.298,233.971 L770.836,233.437 L770.697,231.716 L770.068,233.37 L769.319,231.745 L768.396,229.987 L768.789,228.119 L769.257,226.485 L771.287,225.279 L771.834,223.47 L771.463,221.679 L769.373,222.867 L769.314,224.868 L767.265,226.125 L766.065,227.89 L765.814,229.669 L763.176,229.285 L764.272,230.907 L766.353,232.586 L766.753,234.526 L766.506,236.213 L766.327,237.907 L765.515,239.638 L766.344,241.414 L766.987,243.211 L767.527,244.974 L769.382,246.556 L769.722,248.495 L770.733,250.587 L772.136,252.033 L772.565,254.024 L770.433,252.805 L768.153,251.794 L765.309,251.374 L763.213,250.093 L760.433,249.53 L759.552,247.902 L757.943,249.205 L755.237,247.978 L755.785,246.263 L757.018,244.722 L754.971,245.822 L754.702,247.533 L754.781,249.467 L756.005,251.074 L757.913,249.931 L759.999,250.937 L761.412,252.59 L763.863,253.194 L766.509,253.001 L768.792,254.075 L770.442,255.449 L774.014,256.61 L774.428,258.583 L774.183,260.551 L773.94,262.222 L771.409,262.946 L770.032,261.463 L768.097,260.134 L766.037,258.972 L764.238,257.285 L765.772,259.239 L767.109,260.739 L769.296,261.682 L770.806,263.733 L773.599,264.11 L774.819,265.565 L776.573,267.186 L776.52,268.992 L774.267,267.973 L774.69,269.695 L773.496,271.195 L775.153,272.735 L777.485,273.776 L777.439,275.664 L775.81,277.013 L773.755,275.426 L771.593,274.294 L771.163,272.638 L768.373,272.676 L765.835,273.202 L768.498,273.566 L771.14,274.764 L772.648,276.228 L774.609,277.493 L777.133,278.218 L777.646,276.569 L780.462,276.905 L783.577,278.013 L784.313,279.633 L785.866,282.159 L786.62,283.751 L787.728,286.321 L788.965,288.955 L789.962,290.617 L791.061,292.376 L792.478,294.113 L794.671,297.081 L795.608,298.701 L794.129,297.112 L792.968,295.456 L791.367,294.092 L790.497,292.336 L789.496,290.594 L788.52,289.022 L787.827,287.432 L786.623,285.728 L784.588,284.682 L784.682,286.43 L786.51,287.785 L787.569,289.38 L788.676,290.995 L789.702,292.691 L787.996,291.433 L785.221,291.516 L783.413,290.2 L784.667,291.869 L783.363,293.811 L780.062,294.181 L779.616,295.973 L778.299,297.452 L775.433,297.214 L774.234,295.181 L774.484,292.525 L773.726,295.297 L774.559,296.892 L775.554,298.515 L778.331,298.793 L780.328,297.495 L783.381,296.773 L785.888,296.132 L786.764,298.204 L786.912,299.995 L787.37,301.842 L787.834,299.135 L788.115,297.248 L789.31,295.722 L791.183,297.004 L792.293,298.737 L792.86,300.744 L792.903,302.398 L791.535,304.171 L789.769,305.523 L789.371,307.209 L788.646,308.891 L787.391,310.413 L784.655,310.35 L782.002,310.291 L779.259,308.122 L781.255,306.796 L778.893,307.551 L779.213,309.183 L776.745,310.609 L773.441,310.09 L778.662,311.816 L781.516,311.745 L782.153,313.383 L781.53,315.135 L781.247,316.817 L777.99,320.292 L774.98,319.085 L776.462,320.754 L779.956,319.941 L781.809,318.765 L783.051,316.934 L784.565,318.43 L786.506,319.71 L785.054,321.08 L784.491,322.868 L783.874,324.702 L782.08,323.316 L781.229,325.079 L784.049,325.864 L784.986,323.61 L785.87,321.88 L787.195,319.847 L788.241,318.193 L789.325,316.393 L787.85,319.53 L785.783,322.609 L785.013,324.304 L784.194,326.64 L781.91,325.753 L778.881,326.024 L776.051,327.127 L773.717,328.4 L770.969,331.075 L768.847,332.897 L767.468,334.35 L765.992,336.282 L764.935,338 L763.86,340.604 L763.494,342.492 L763.155,344.9 L762.824,347.01 L759.592,346.879 L755.387,347.896 L753.379,349.063 L750.756,350.592 L749.215,351.942 L747.902,353.549 L746.856,355.17 L746.008,356.795 L744.918,358.914 L744.338,360.751 L744.161,362.447 L744.18,364.381 L743.884,366.224 L742.138,367.957 L741.925,369.803 L739.268,369.704 L737.825,371.117 L737.632,373.117 L736.311,374.708 L734.807,376.256 L733.835,377.818 L732.633,379.372 L730.128,380.861 L728.145,382.481 L725.943,383.817 L724.628,385.357 L725.125,387.187 L723.749,388.599 L720.623,388.166 L721.577,389.942 L721.067,391.667 L719.476,393.044 L718.186,394.476 L719.218,396.095 L717.373,397.378 L716.124,398.998 L716.253,400.901 L714.157,401.998 L715.503,403.486 L715.273,405.336 L714.803,407.51 L714.071,409.107 L713.893,410.816 L714.165,412.545 L713.129,414.37 L712.565,416.204 L712.243,417.831 L713.073,419.96 L712.863,421.653 L712.571,423.367 L713.389,425.056 L713.549,427.49 L714.623,430.191 L715.081,431.885 L715.664,433.67 L716.398,435.5 L717.875,439.426 L718.858,441.129 L719.43,443.156 L720.603,445.424 L721.882,447.704 L722.873,449.284 L724.837,452.555 L726.845,455.671 L728.205,457.252 L731.049,460.854 L732.341,462.449 L734.29,464.567 L735.732,466.053 L737.022,468.397 L736.213,470.418 L736.265,472.113 L737.055,474.843 L737.773,476.491 L739.271,478.929 L740.793,481.005 L742.392,483.353 L743.325,485.286 L744.188,486.969 L745.704,489.647 L746.578,491.198 L747.655,492.981 L748.68,494.527 L749.706,496.429 L750.763,498.431 L751.78,500.639 L752.35,502.387 L752.623,504.414 L752.94,506.642 L752.97,509.301 L753.16,511.581 L753.183,513.439 L753.24,515.597 L753.493,518.998 L753.796,521.149 L753.993,523.076 L753.816,524.99 L751.817,526.273 L751.346,528.121 L750.962,529.802 L751.572,531.86 L750.925,533.684 L753.041,531.68 L753.671,529.649 L753.201,532.721 L752.142,535.473 L751.025,538.2 L749.647,540.064 L748.377,541.837 L746.91,543.275 L747.81,541.666 L749.498,539.671 L749.886,537.789 L748.57,536.162 L746.282,537.143 L744.404,538.317 L741.366,538.546 L739.383,539.641 L736.733,539.244 L735.891,537.634 L735.998,535.94 L735.829,534.276 L734.71,532.742 L733.641,531.025 L732.283,529.438 L730.214,527.813 L728.281,526.676 L725.988,525.756 L723.331,525.622 L722.466,523.79 L721.146,521.99 L720.634,520.258 L719.903,517.785 L718.96,516.135 L717.07,514.848 L715.722,513.418 L713.067,511.496 L713.922,509.68 L714.125,507.825 L713.661,506.189 L712.427,508.344 L710.647,510.141 L709.63,507.944 L708.206,506.432 L706.594,504.27 L705.582,502.727 L704.282,500.619 L702.941,498.867 L701.29,497.158 L699.782,495.282 L701.011,493.736 L702.064,492.225 L702.757,490.207 L704.069,488.764 L704.619,487.122 L703.152,485.75 L703.188,487.647 L701.78,486.236 L699.733,484.381 L698.121,485.684 L700.469,486.946 L700.607,488.755 L700.511,490.419 L699.14,491.876 L698.346,490.282 L696.717,488.75 L695.925,486.801 L695.97,484.447 L694.945,481.341 L695.908,482.87 L695.955,481.2 L696.505,479.581 L696.874,477.803 L697.115,476.138 L697.634,474.288 L697.535,472.513 L696.973,470.89 L696.213,468.655 L695.348,466.783 L695.613,464.973 L694.4,463.14 L693.14,461.643 L690.87,460.563 L688.581,461.712 L687.698,460.001 L686.054,458.673 L685.177,456.972 L682.983,455.43 L681.077,454.112 L680.859,452.43 L679.113,451.001 L677.401,449.707 L676.218,448.128 L674.902,446.668 L672.746,445.695 L669.977,444.72 L667.671,443.638 L665.376,444.57 L662.606,445.789 L662.788,447.615 L660.04,448.638 L657.992,449.87 L656.006,451.415 L654.179,452.722 L651.841,453.613 L649.074,454.174 L651.306,455.913 L653.219,454.718 L655.786,452.914 L653.704,454.921 L651.503,456.395 L648.914,455.941 L646.05,455.198 L643.518,453.008 L643.825,451.291 L644.05,453.188 L644.605,454.802 L645.586,452.834 L644.203,450.813 L642.132,449.786 L640.101,448.542 L637.659,447.303 L635.387,445.808 L633.223,444.762 L630.03,443.698 L627.529,443.102 L624.885,442.712 L621.86,442.752 L617.813,443.045 L614.964,443.737 L610.58,445.106 L607.609,445.593 L604.057,446.713 L601.588,447.588 L599.004,448.248 L596.053,448.497 L598.645,447.747 L598.656,446.072 L596.748,444.599 L596.116,442.988 L596.504,441.275 L595.859,439.478 L593.585,440.388 L593.323,442.34 L593.028,443.987 L593.033,446.039 L590.341,445.71 L587.856,446.373 L584.833,447.278 L581.872,447.227 L579.037,446.505 L575.37,447.171 L572.936,448.319 L570.751,447.376 L570.712,449.102 L569.25,450.695 L567.368,451.922 L565.258,453.202 L563.989,454.749 L561.794,455.784 L562.816,457.32 L564.969,458.538 L566.878,457.069 L568.225,454.798 L570.087,456.126 L572.466,455.359 L571.784,457.445 L570.694,458.965 L572.593,460.118 L569.998,460.906 L570.019,462.717 L568.242,461.345 L569.062,463.337 L566.215,463.156 L565.92,464.954 L567.043,466.453 L568.834,468.251 L571.535,468.343 L573.738,469.258 L576.107,470.311 L577.038,472.122 L577.651,474.212 L576.222,475.614 L573.529,475.559 L572.322,477.272 L572.573,475.38 L573.344,473.762 L570.467,472.854 L567.416,471.5 L565.133,470.547 L562.221,470.671 L559.781,472.762 L558.011,474.399 L556.22,475.767 L554.958,473.868 L554.494,472.022 L552.287,470.919 L549.845,471.89 L548.866,473.442 L547.445,475.429 L545.446,476.827 L543.658,475.504 L541.279,474.706 L537.974,473.889 L535.39,472.371 L537.123,470.743 L538.488,472.44 L537.94,470.707 L535.308,470.404 L535.469,468.552 L532.399,468.258 L531.263,466.287 L529.623,464.922 L529.443,463.22 L526.669,463.386 L525.718,461.544 L522.928,461.747 L520.554,463.671 L520.444,465.726 L518.923,467.5 L516.135,468.098 L512.93,467.489 L509.124,466.596 L506.525,465.448 L503.702,464.347 L500.996,463.703 L497.879,463.96 L494.343,464.041 L491.678,464.451 L489.206,465.425 L485.854,465.979 L483.429,466.755 L479.395,468.639 L476.706,469.888 L474.316,471.069 L472.618,472.54 L473.288,470.764 L475.232,469.487 L472.268,469.518 L472.83,467.4 L473.107,465.73 L471.904,464.093 L470.178,465.391 L467.349,466.74 L467.326,468.548 L469.157,470.172 L469.588,471.902 L469.478,473.54 L467.127,475.865 L464.613,476.749 L464.885,478.832 L467.481,476.821 L469.769,474.644 L471.021,473.194 L467.076,477.597 L465.363,479.104 L463.156,481.015 L461.039,482.95 L458.565,484.276 L455.353,486.097 L452.504,487.93 L448.992,489.559 L445.369,491.378 L443.33,492.651 L441.502,494.438 L437.145,497.258 L434.12,499.613 L432.333,501.286 L430.108,503.853 L428.432,506.424 L426.081,510.401 L425.213,512.202 L424.456,513.956 L423.664,516.255 L423.216,518.002 L422.939,519.725 L422.779,521.685 L422.784,523.553 L422.95,525.369 L423.279,527.266 L423.737,529.256 L424.221,531.033 L424.999,533.46 L425.521,535.397 L426.035,537.63 L426.492,540.66 L426.71,542.337 L425.936,538.811 L425.505,536.809 L425.007,534.829 L424.427,532.621 L423.453,530.327 L422.5,527.158 L422.302,525.231 L422.406,522.729 L422.394,520.517 L422.644,518.592 L423.194,515.527 L423.807,513.792 L425.024,510.819 L426.593,508.339 L427.867,506.146 L428.226,504.45 L429.855,503.059 L431.053,501.162 L432.333,499.475 L434.164,497.954 L436.718,496.756 L438.622,495.576 L440.879,494.297 L438.112,494.501 L435.789,493.493 L434.184,495.097 L433.985,497.207 L432.138,498.698 L429.709,498.001 L427.335,499.064 L429.766,499.719 L429.278,501.437 L427.885,503.51 L426.672,505.444 L424.604,504.426 L421.603,504.473 L422.724,506.412 L424.153,507.918 L424.499,510.01 L423.714,511.827 L423.142,513.443 L422.473,515.669 L420.385,517.11 L420.818,515.343 L418.477,516.864 L420.816,517.627 L421.616,519.477 L421.629,521.32 L421.511,523.203 L421.157,526.149 L420.911,528.014 L421.381,530.66 L421.891,532.353 L423.125,535.367 L424.112,537.811 L423.813,539.552 L424.288,541.344 L425.991,543.088 L426.936,544.687 L424.313,545.139 L422.773,546.783 L420.139,546.509 L418.551,545.114 L417.358,543.582 L414.759,542.992 L412.173,542.652 L409.164,542.769 L406.603,542.377 L404.849,541.147 L402.802,539.786 L400.477,538.903 L397.744,538.519 L396.327,537.072 L394.848,535.604 L392.3,535.034 L389.399,534.263 L389.144,532.169 L388.249,530.129 L387.734,527.913 L386.782,525.963 L385.713,524.001 L384.723,522.47 L383.347,520.627 L383.677,518.905 L383.604,517.243 L382.73,515.516 L382.949,513.224 L383.085,511.565 L382.603,509.919 L381.113,508.372 L378.693,507.544 L377.28,506.04 L375.915,504.237 L375.645,502.537 L375.035,500.886 L373.492,499.046 L372.334,497.318 L370.254,496.249 L368.753,494.535 L368.197,492.859 L367.847,491.119 L367.457,489.379 L366.855,487.729 L365.409,486.169 L364.973,484.337 L364.319,482.498 L363.379,480.836 L362.651,479.008 L362.404,477.153 L361.107,475.69 L360.316,473.758 L358.606,472.164 L356.577,470.69 L355.531,468.99 L353.485,467.538 L352.221,466.08 L351.144,464.499 L349.582,462.853 L348.364,461.38 L345.44,461.397 L342.683,460.843 L340.012,460.661 L337.231,460.554 L335.323,459.172 L332.92,458.292 L331.671,459.908 L329.12,460.467 L326.359,460.906 L325.069,462.683 L324.183,464.239 L323.306,465.844 L322.844,467.822 L321.489,469.64 L321.796,471.46 L319.362,472.248 L318.483,473.812 L317.165,475.334 L314.52,476.096 L312.841,474.729 L310.401,473.913 L308.888,471.969 L306.362,471.292 L304.926,469.651 L302.487,468.695 L300.315,467.746 L298.815,466.324 L297.413,464.77 L295.701,462.999 L293.21,461.087 L291.74,459.411 L291.417,457.618 L290.608,455.718 L289.651,453.918 L289.645,451.991 L289.875,450.282 L290.007,448.512 L289.318,446.702 L288.296,445.132 L287.356,443.364 L287.207,441.17 L286.521,439.1 L285.27,437.533 L283.45,436.131 L282,434.663 L279.811,433.694 L278.502,432.248 L276.874,430.769 L275.541,429.112 L274.836,427.394 L272.902,425.775 L271.674,424.24 L270.32,422.469 L268.809,420.595 L266.467,419.519 L265.004,417.753 L264.052,415.848 L263.396,414.068 L262.112,412.042 L256.247,410.706 L251.909,410.208 L246.497,409.569 L240.355,408.825 L236.66,408.368 L233.041,407.911 L230.243,407.551 L229.783,411.151 L229.465,413.553 L229.01,417.07 L224.23,416.445 L220.069,415.895 L217.32,415.543 L213.937,415.075 L209.853,414.474 L199.994,413.056 L196.936,412.625 L188.724,411.393 L182.74,410.447 L179.073,409.899 L172.867,406.871 L169.634,405.001 L162.65,400.966 L158.22,398.402 L156.247,397.26 L147.941,392.451 L143.665,390.001 L140.257,387.946 L137.644,386.373 L133.43,383.844 L125.28,378.916 L121.216,376.463 L116.141,373.403 L116.801,371.372 L118.448,369.41 L113.744,368.446 L105.522,367.469 L95.217,366.25 L92.3,365.908 L86.451,365.215 L80.832,364.547 L77.823,364.201 L76.172,362.884 L76.063,361.216 L74.679,359.471 L74.73,357.374 L75.601,355.185 L75.635,353.415 L75.426,351.589 L74.968,349.842 L74.018,347.43 L73.3,345.827 L72.004,344.375 L70.846,342.454 L69.514,340.397 L68.189,338.972 L66.377,337.184 L65.241,335.257 L62.216,335.111 L60.249,333.812 L60.625,331.714 L60.266,329.441 L59.617,327.629 L56.925,326.463 L54.199,326.347 L52.267,325.181 L50.379,323.72 L48.62,322.214 L47.848,320.383 L46.89,318.439 L45.692,316.761 L44.074,315.414 L41.91,314.411 L39.148,313.712 L37.011,312.526 L34.683,311.366 L31.909,310.677 L29.147,310.327 L28.371,308.541 L26.488,307.085 L27.778,304.639 L27.982,302.452 L28.187,300.577 L28.543,298.589 L29.337,296.869 L29.527,295.189 L27.448,293.987 L26.199,292.395 L26.858,290.321 L27.138,288.111 L25.109,286.359 L24.212,284.692 L23.621,282.61 L21.887,281.279 L21.821,279.52 L21.032,277.728 L20.164,276.11 L20.251,274.251 L19.112,272.719 L18.76,270.965 L18.186,269.335 L16.908,267.612 L15.711,265.906 L15.688,264.234 L15.835,262.272 L16.334,260.052 L18.458,258.755 L19.492,256.698 L19.997,254.649 L19.617,252.698 L17.379,251.336 L15.165,250.351 L14.056,248.285 L13.025,246.702 L12.468,244.986 L12.695,243.298 L13.418,241.423 L13.182,239.645 L12.514,237.549 L13.369,235.769 L13.845,233.765 L14.272,232.099 L16.027,233.789 L15.546,235.493 L16.129,237.111 L17.465,238.576 L18.641,240.408 L18.967,238.509 L19.046,236.745 L18.323,235.097 L17.664,233.486 L17.88,231.802 L16.884,230.173 L17.748,228.594 L19.658,227.256 L18.494,225.559 L16.062,226.633 L16.338,228.31 L15.473,229.894 L14.072,231.356 L12.907,229.526 L11.168,227.921 L10.03,225.779 L7.234,225.453 L8.948,223.314 L9.374,221.528 L9.435,219.657 L8.73,217.736 L8.342,215.892 L7.424,214.349 L5.811,212.28 L5.263,210.296 L4.697,208.563 L3.796,206.958 L2.688,205.126 L1.988,203.364 L2.763,201.555 L3.145,199.342 L2.915,197.411 L2.815,195.596 L2.958,193.636 L3.654,191.927 L5.059,189.972 L5.412,187.68 L5.148,186.018 L5.464,183.844 L4.735,181.885 L4.113,180.279 L3.169,178.721 L3.16,177.061 L1.912,175.4 L0.695,173.554 L0.836,171.625 L0.934,169.9 L1.371,167.864 L3.017,165.533 L4.999,163.481 L6.771,161.595 L7.888,160.097 L8.906,158.114 L8.613,156.441 L9.755,154.758 L10.826,152.893 L11.672,151.2 L12.334,149.391 L12.603,147.616 L12.594,145.8 L12.684,144.028 L11.621,142.327 L12.826,140.07 L13.473,138.138 L12.631,136.481 L12.033,134.755 L12.245,133.072 L12.329,131.197 L12.671,129.086 L13.23,127.38 L14.359,125.371 L14.601,123.404 L14.171,121.6 L13.765,119.653 L14.948,117.709 L16.108,116.216 L17.083,114.349 L18.082,112.702 L18.901,111.05 L20.634,108.943 L22.216,106.89 L23.43,104.848 L24.399,103.01 L25.405,101.025 L26.304,99.027 L27.325,96.554 L27.998,94.748 L28.645,93.154 L29.148,91.528 L30.004,89.92 L30.817,87.769 L31.836,85.19 L32.48,83.27 L32.915,81.291 L34.151,79.384 L34.903,77.788 L35.4,76.121 L36.924,73.552 L37.695,71.215 L38.447,68.918 L38.98,67.313 L40.176,64.315 L40.342,62.256 L41.119,59.988 L41.151,58.304 L42.649,56.641 L42.84,54.49 L42.622,52.612 L43.785,54.164 L46.439,54.362 L49.286,54.07 L47.688,52.747 L44.621,52.857 L43.651,51.245 L42.95,49.104 L43.627,46.945 L44.133,44.708 L44,46.992 L43.507,49.446 L44.373,47.842 L46.142,46.413 L45.857,44.458 L48.14,43.543 L45.663,42.941 L44.865,40.885 L45.086,38.842 L48.308,38.646 L47.21,37.028 L45.786,35.624 L45.461,37.541 L45.534,34.856 L45.805,33.162 L46.027,30.128 L45.444,28.514 L45.771,25.595 L46.059,23.623 L46.165,21.822 L46.191,20.049 L45.817,18.374 L44.847,16.73 L44.291,14.935 L44.548,13.151 L44.865,11.51 L45.885,8.734 L46.622,7.066 L49.857,8.959 L51.506,10.488 L53.496,11.841 L54.93,13.504 L57.65,14.53 L60.09,15.712 L62.265,16.731 L64.666,17.492 L67.196,18.131 L69.061,19.31 L69.432,20.957 L69.609,19.267 L70.832,20.781 L71.346,22.571 L71.645,24.372 L70.159,25.735 L68.663,27.697 L69.059,25.865 L66.904,27.825 L62.716,31.363 L61.421,33.236 L64.601,33.559 L62.105,32.989 L63.952,30.872 L65.4,29.345 L68.051,28.629 L69.426,27.209 L71.217,25.775 L72.554,24.235 L73.215,26.204 L73.277,27.858 L72.246,29.454 L71.975,31.173 L71.5947783,31.894916 L71.613,31.887 L71.959,32.109 L71.88,32.386 L71.657,32.48 L71.511,32.368 L71.4975221,32.0795734 Z M862.781,97.205 L862.781,97.145 L862.879,96.947 L862.976,96.895 L863.037,96.815 L863.13,96.79 L863.468,97.07 L863.481,97.133 L863.417,97.288 L863.022,97.407 L862.79,97.237 L862.781,97.205 Z M862.375,95.565 L862.445,95.443 L862.569,95.371 L862.839,95.108 L862.98,95.101 L863.132,95.177 L863.17,95.234 L863.12,95.262 L863.065,95.224 L862.941,95.414 L862.972,95.857 L862.865,95.942 L862.317,95.777 L862.375,95.565 Z M860.691,96.801 L860.753,96.729 L860.578,95.885 L860.58,95.647 L860.55,95.409 L860.62,95.241 L860.78,95.337 L861.12,95.747 L861.615,95.842 L861.754,95.883 L861.939,96.067 L862.409,96.401 L862.324,96.743 L862.005,97.315 L861.865,97.425 L861.66,97.278 L861.628,97.111 L861.421,96.911 L861.069,96.96 L861.008,97.007 L860.832,97.051 L860.719,96.962 L860.691,96.801 Z M860.715,97.834 L860.751,97.559 L860.801,97.497 L860.928,97.527 L861.068,97.647 L861.131,97.785 L861.026,98.041 L860.798,98.027 L860.715,97.834 Z M859.165,93.153 L859.198,92.838 L859.123,92.655 L859.09,92.366 L859.153,92.264 L859.223,92.234 L859.333,92.266 L859.448,92.511 L860.041,93.449 L859.919,93.615 L859.481,93.499 L859.207,93.385 L859.165,93.153 Z M855.302,96.695 L855.362,96.581 L855.436,96.516 L855.466,96.513 L855.982,96.466 L856.397,96.678 L856.465,96.868 L856.367,97.123 L856.219,97.149 L856.024,97.102 L855.886,97.055 L855.786,97.05 L855.663,97.034 L855.563,97.054 L855.381,96.881 L855.302,96.695 Z M856.522,104.852 L856.478,104.52 L856.608,104.202 L856.778,104.06 L857.038,104.316 L857.177,104.7 L857.259,104.982 L857.178,105.378 L856.936,105.444 L856.644,105.269 L856.522,104.852 Z M854.512,99.672 L854.542,99.274 L854.698,98.832 L855.048,98.478 L855.15,98.292 L855.51,97.822 L855.812,97.659 L855.934,97.754 L855.899,97.801 L855.921,97.908 L856.061,98.149 L856.208,98.099 L856.533,98.343 L856.623,98.362 L856.681,98.315 L856.717,98.349 L856.591,98.531 L856.437,98.552 L856.212,98.641 L856.197,98.676 L856.216,98.787 L856.279,98.949 L856.374,99.059 L856.499,99.012 L856.877,99.42 L857.057,99.56 L857.225,99.64 L857.313,99.81 L857.247,100.093 L857.187,100.205 L857.111,100.22 L856.976,100.66 L856.836,100.785 L856.689,100.826 L856.23,101.118 L856.063,101.16 L855.793,101.08 L855.3,100.93 L855.365,100.639 L855.437,100.42 L855.3,100.23 L855.132,100.105 L855.092,99.665 L855.048,99.579 L854.552,99.729 L854.512,99.672 Z M853.352,96.924 L853.334,96.766 L853.425,96.45 L853.531,96.226 L853.701,95.536 L853.547,95.016 L853.482,94.377 L853.518,94.065 L853.828,93.798 L854.011,93.858 L854.226,94.172 L854.229,94.381 L854.184,94.623 L854.057,94.803 L853.976,94.828 L853.936,94.918 L853.958,95.193 L854.204,95.54 L854.145,95.986 L854.099,96.086 L854.137,96.896 L854.056,97.138 L853.846,97.471 L853.772,97.539 L853.793,97.353 L853.571,97.039 L853.49,96.984 L853.382,96.964 L853.352,96.924 Z M850.888,108.38 L851.017,108.171 L851.193,108.063 L851.443,108.143 L851.439,108.393 L851.311,108.601 L850.931,108.596 L850.888,108.38 Z M851.069,162.89 L851.299,162.835 L851.497,162.879 L851.585,162.909 L851.695,163.052 L851.887,163.114 L852.205,163.026 L852.368,162.882 L853.468,162.592 L853.938,162.374 L854.083,162.304 L854.325,162.022 L854.501,161.685 L854.624,161.258 L854.544,160.823 L854.468,160.677 L854.376,160.597 L854.302,160.525 L854.152,160.407 L854.066,160.335 L854.052,160.255 L854.322,160.309 L854.652,160.599 L856.057,162.203 L856.141,162.495 L856.134,162.719 L856.126,162.767 L856.014,162.912 L855.655,163.192 L855.455,163.278 L854.855,163.341 L854.381,163.436 L854.191,163.568 L853.852,163.629 L852.981,163.572 L851.813,163.3 L851.493,163.27 L851.294,163.184 L851.152,163.066 L851.069,162.89 Z M842.947,166.248 L843.077,166.168 L843.14,166.079 L843.24,166.114 L843.335,166.169 L843.345,166.365 L843.223,166.399 L843.075,166.403 L842.865,166.298 L842.947,166.248 Z M842.31,164.341 L842.625,164.203 L842.819,164.193 L843.112,164.246 L843.232,164.184 L843.302,164.074 L843.657,162.992 L843.724,162.946 L843.85,162.692 L843.827,162.552 L843.894,162.19 L844.057,161.915 L844.517,161.352 L845.094,160.722 L845.179,160.725 L845.264,160.907 L845.611,160.893 L845.708,160.801 L845.782,160.827 L846.026,161.119 L846.086,161.315 L846.116,161.584 L846.193,161.717 L846.323,161.861 L846.502,161.958 L846.673,162.003 L846.848,161.984 L847.03,162.013 L847.147,162.163 L847.201,162.296 L847.242,162.307 L847.372,162.287 L847.452,162.207 L847.56,161.892 L847.499,161.695 L847.509,161.601 L847.58,161.442 L847.775,161.354 L847.977,161.836 L848.022,162.18 L848.189,162.728 L848.178,162.853 L847.5,163.077 L846.843,163.202 L845.913,163.45 L844.268,164.067 L843.941,164.278 L843.758,164.468 L843.568,164.768 L843.547,164.924 L843.592,164.978 L843.583,165.097 L843.492,165.182 L843.014,165.019 L842.677,164.822 L842.269,164.489 L842.31,164.341 Z M832.493,160.159 L832.785,159.949 L832.923,160.094 L833.021,160.307 L833.101,160.379 L833.235,160.514 L833.441,160.584 L833.627,160.709 L833.747,161.03 L833.734,161.224 L833.661,161.571 L833.555,161.701 L833.468,161.686 L833.365,161.59 L833.3,161.412 L833.289,161.168 L833.335,161.084 L833.341,160.927 L833.309,160.761 L833.165,160.677 L832.949,160.675 L832.857,160.62 L832.595,160.343 L832.493,160.159 Z M833.065,164.435 L832.965,163.77 L833.103,163.714 L833.154,163.438 L832.917,163.288 L832.845,163.088 L832.785,162.388 L832.808,162.138 L832.861,162.004 L832.909,161.975 L833.027,162.012 L833.163,162.298 L833.409,163.436 L833.556,163.814 L833.29,164.074 L833.303,164.287 L833.239,164.397 L833.254,164.516 L833.148,164.686 L833.065,164.435 Z M831.452,171.515 L831.45,171.032 L831.578,170.86 L831.617,170.669 L831.715,170.459 L831.705,170.244 L831.663,170.04 L831.685,169.945 L831.903,169.982 L832.036,170.11 L832.071,170.186 L832.065,170.374 L832.013,170.591 L832.048,170.825 L832.166,170.975 L832.382,171.127 L832.481,171.142 L832.509,171.214 L832.502,171.385 L832.437,171.445 L831.827,171.725 L831.727,171.738 L831.513,171.655 L831.452,171.515 Z M824.471,171.225 L824.515,171.045 L824.565,170.857 L824.617,170.775 L824.805,170.74 L825.005,170.515 L825.18,170.493 L825.57,170.286 L825.705,170.216 L825.943,170.079 L825.865,170.309 L825.719,170.442 L825.497,170.617 L825.279,170.806 L825.083,171.046 L824.983,171.15 L824.473,171.35 L824.471,171.225 Z M823.653,174.919 L823.671,174.848 L823.783,174.741 L823.823,174.648 L823.811,174.496 L824.536,174.611 L824.623,174.756 L824.724,175.518 L824.612,175.641 L824.585,175.629 L824.475,175.194 L824.325,174.997 L824.262,174.96 L824.022,174.927 L823.739,175.016 L823.687,174.986 L823.653,174.919 Z M822.108,173.437 L822.434,173.116 L822.89,172.92 L822.892,173.107 L822.625,173.403 L822.581,173.613 L822.446,173.844 L822.138,173.706 L822.108,173.437 Z M777.381,218.79 L777.773,218.951 L777.738,219.155 L777.504,219.148 L777.376,219.013 L777.381,218.79 Z M791.726,296.13 L791.851,296.019 L792.068,295.979 L792.315,295.979 L792.413,296.045 L792.616,296.087 L792.92,296.229 L792.88,296.312 L792.938,296.511 L793.088,296.518 L793.458,296.856 L793.92,297.398 L793.91,297.591 L794.146,298.241 L794.074,298.397 L794.01,298.407 L793.722,298.267 L793.218,298.269 L793.068,298.156 L793.279,297.926 L793.162,297.426 L793.082,297.284 L792.868,297.054 L792.718,297.053 L792.367,296.742 L792.344,296.573 L792.229,296.469 L791.823,296.335 L791.729,296.179 L791.726,296.13 Z M778.619,257.018 L778.655,256.962 L778.732,256.979 L778.84,257.127 L778.954,257.187 L779.098,257.187 L779.151,257.283 L779.083,257.41 L779.092,257.837 L779.014,257.883 L778.801,257.759 L778.655,257.301 L778.619,257.018 Z M790.828,315.322 L790.971,314.954 L791.088,314.75 L791.095,314.563 L791.038,314.407 L791.031,314.263 L791.098,314.143 L791.268,314.083 L791.402,314.127 L791.592,314.047 L792.042,313.612 L792.238,313.412 L792.476,313.182 L793.294,312.529 L793.615,312.359 L793.713,312.299 L793.885,312.163 L793.998,312.02 L794.098,311.872 L794.604,311.65 L794.612,311.644 L794.74,311.541 L794.92,311.473 L795.169,311.309 L795.301,311.181 L795.435,310.993 L795.503,310.939 L795.583,310.742 L795.633,310.692 L795.668,310.685 L795.798,310.755 L795.985,310.735 L796.353,310.515 L796.509,310.38 L796.713,310.107 L796.955,309.894 L796.945,309.79 L796.925,309.671 L796.93,309.609 L797.137,309.632 L797.207,309.671 L797.547,309.551 L797.941,309.314 L797.977,308.968 L797.931,308.322 L797.94,307.922 L797.917,307.346 L797.905,306.816 L797.841,306.016 L797.795,305.369 L797.775,304.698 L797.701,304.435 L797.635,304.215 L797.59,303.843 L797.62,303.558 L797.614,303.241 L797.402,302.273 L797.213,301.835 L797.023,301.405 L796.759,300.945 L796.549,300.678 L796.221,299.848 L796.126,299.556 L795.773,298.855 L795.854,298.791 L795.949,298.868 L796.345,299.355 L796.517,299.634 L797.029,300.615 L797.748,302.257 L797.795,302.582 L797.881,303.172 L798.073,304.752 L798.218,306.649 L798.288,308.204 L798.285,310.094 L798.192,310.291 L797.992,310.277 L797.717,310.257 L797.386,310.35 L796.9,310.536 L796.506,310.78 L795.935,311.163 L795.072,311.747 L794.751,311.929 L794.617,312.005 L794.431,312.105 L794.133,312.348 L793.373,312.968 L792.294,313.896 L791.825,314.314 L791.561,314.649 L791.289,314.945 L791.039,315.312 L790.866,315.466 L790.82,315.4 L790.828,315.322 Z M777.08,253.693 L777.071,253.461 L777.115,253.306 L777.422,253.088 L777.651,253.092 L777.778,253.322 L778.058,253.329 L778.235,253.665 L778.275,254.015 L778.133,254.349 L778.292,254.629 L778.242,254.79 L778.116,254.938 L777.939,255.257 L777.788,255.731 L777.671,255.449 L777.387,254.97 L777.203,254.351 L777.08,253.693 Z M775.828,251.543 L775.88,251.398 L775.863,251.186 L775.763,250.981 L775.639,250.102 L775.868,249.816 L776.233,249.733 L776.779,250.183 L776.809,250.306 L776.646,250.403 L776.676,250.643 L776.755,250.837 L776.765,250.85 L776.972,251.116 L777.058,251.143 L777.142,251.117 L777.194,251.315 L777.078,251.453 L777.105,251.647 L777.375,251.864 L777.493,252.239 L777.423,252.36 L777.24,252.433 L776.998,252.359 L776.545,252.033 L776.64,251.75 L776.761,251.678 L776.791,251.625 L776.704,251.515 L776.612,251.475 L776.455,251.409 L776.379,251.384 L776.023,251.644 L776.021,251.687 L775.951,251.75 L775.828,251.543 Z M746.099,132.07 L746.388,131.442 L746.72,130.999 L746.992,130.947 L746.954,131.224 L746.671,131.867 L746.299,132.076 L746.099,132.07 Z M768.105,239.024 L768.315,238.594 L768.515,238.764 L768.557,239.04 L768.767,239.374 L768.762,239.414 L768.486,239.534 L768.281,239.287 L768.105,239.024 Z M744.837,131.99 L745.304,131.128 L745.834,131.115 L745.732,131.421 L745.318,131.813 L745.048,132.113 L744.837,131.99 Z M745.237,544.397 L745.62,544.015 L746.002,543.395 L746.085,543.155 L746.215,543.341 L746.461,543.695 L746.191,544.197 L745.672,544.625 L745.237,544.397 Z M743.503,545.814 L743.465,545.507 L743.768,545.344 L744.045,545.024 L744.488,544.801 L744.735,544.834 L744.641,545.195 L744.62,545.335 L744.532,545.473 L744.095,545.773 L743.595,545.815 L743.517,545.835 L743.503,545.814 Z M738.538,548.654 L739.26,548.171 L740.025,547.652 L740.99,547.14 L741.904,546.468 L742.484,546.548 L742.402,546.938 L740.455,548.144 L739.51,548.864 L738.948,548.979 L738.538,548.654 Z M725.701,553.566 L725.857,553.004 L726.445,551.901 L726.694,551.486 L727.986,550.45 L729.564,549.421 L729.761,548.974 L730.408,548.671 L731.056,548.008 L732.043,547.415 L733.41,547.865 L734.476,548.019 L734.902,548.205 L735.291,549.092 L736.358,549.7 L736.11,549.944 L735.095,550.464 L734.181,550.952 L733.455,551.222 L733.175,550.773 L732.581,550.951 L731.926,550.989 L731.343,551.147 L731.229,551.614 L730.458,551.979 L729.515,552.632 L728.925,552.948 L728.523,553.044 L728.18,553.404 L726.464,553.839 L725.757,554.051 L725.701,553.566 Z M721.845,554.686 L722.565,554.464 L723.649,554.005 L724.24,553.711 L724.497,553.855 L724.281,554.14 L723.898,554.723 L722.76,555.145 L721.889,555.137 L721.845,554.686 Z M718.887,554.692 L719.114,554.384 L719.209,554.009 L719.347,553.915 L719.542,553.875 L719.978,554.005 L720.05,554.07 L720.118,554.317 L720.056,554.567 L719.853,554.851 L719.03,554.991 L718.906,554.926 L718.887,554.692 Z M710.49,510.572 L710.637,510.445 L710.634,510.345 L710.802,510.357 L710.915,510.597 L710.867,510.727 L710.872,510.837 L711.109,511.259 L711.579,511.949 L711.726,512.427 L712.195,513.277 L712.467,513.922 L712.73,514.422 L712.986,514.655 L713.339,514.86 L713.679,514.822 L713.907,514.862 L714.563,515.157 L714.747,514.897 L715.007,514.773 L715.505,514.981 L715.944,514.961 L715.982,514.967 L715.985,515.014 L715.134,515.706 L714.919,515.81 L714.769,515.832 L714.472,515.814 L713.896,515.658 L713.419,515.32 L712.923,515.133 L712.833,515.063 L712.749,514.975 L712.421,514.695 L711.821,513.583 L711.587,513.233 L711.22,512.766 L710.908,511.883 L710.596,511.476 L710.591,511.092 L710.468,510.909 L710.49,510.572 Z M657.32,196.808 L657.536,196.426 L657.715,196.402 L657.781,196.432 L657.848,196.543 L657.992,196.541 L658.141,196.355 L658.181,196.371 L658.205,196.873 L658.144,197.04 L658.105,197.075 L657.899,197.114 L657.499,196.959 L657.327,196.859 L657.32,196.808 Z M655.508,196.118 L655.458,194.788 L655.563,194.474 L655.64,194.426 L655.807,194.489 L656.318,194.991 L656.244,195.634 L655.806,196.364 L655.586,196.511 L655.508,196.118 Z M703.782,555.375 L704.098,555.258 L704.787,555.008 L705.163,555.36 L704.603,555.718 L703.808,555.738 L703.782,555.375 Z M625.365,104.38 L625.695,104.403 L625.779,104.598 L625.939,104.73 L625.991,105.07 L625.635,104.887 L625.359,104.681 L625.365,104.38 Z M617.329,108.327 L617.423,108.155 L617.596,108.225 L617.646,108.375 L617.591,108.625 L617.45,108.48 L617.329,108.327 Z M616.452,108.107 L616.538,107.957 L616.795,108.181 L616.912,108.325 L616.802,108.492 L616.624,108.671 L616.498,108.529 L616.452,108.107 Z M616.575,110.56 L616.585,110.093 L616.658,110.066 L616.848,110.106 L616.962,110.199 L617.212,110.509 L617.315,110.71 L617.581,111.23 L617.757,111.33 L618.375,111.518 L618.722,111.427 L619.05,111.489 L619.987,111.773 L620.067,111.732 L620.137,111.627 L620.141,111.474 L620.098,111.354 L620.128,111.328 L620.278,111.513 L620.424,111.769 L621.15,111.947 L621.152,111.998 L620.982,112.304 L620.979,112.526 L620.682,112.786 L620.668,112.839 L620.705,112.949 L620.545,113.079 L620.355,113.118 L620.179,113.041 L619.865,113.044 L619.587,112.986 L619.371,113.046 L619.107,112.937 L618.992,112.794 L618.94,112.593 L618.683,112.413 L618.252,111.917 L618.064,111.804 L617.748,111.704 L617.655,111.629 L617.6,111.497 L617.475,111.311 L617.23,111.109 L617.02,110.854 L616.932,110.791 L616.772,110.754 L616.592,110.635 L616.575,110.56 Z M657.146,451.537 L657.696,451.339 L658.384,450.837 L658.734,450.442 L658.956,450.459 L659.019,450.981 L658.713,451.371 L658.013,451.786 L657.331,451.979 L656.958,451.803 L657.146,451.537 Z M606.023,112.854 L606.25,112.726 L606.442,113.172 L606.375,113.586 L606.127,113.776 L605.852,113.604 L606.023,112.854 Z M603.815,112.737 L604.237,112.851 L604.985,113.314 L605.033,113.74 L604.875,113.984 L604.188,113.796 L603.778,113.416 L603.815,112.737 Z M602.795,117.794 L602.885,117.221 L603.033,117.045 L603.077,116.885 L603.052,116.71 L602.963,116.496 L602.973,115.986 L603.017,115.833 L603.144,115.623 L603.241,115.553 L603.385,115.31 L603.446,114.892 L603.417,114.581 L603.371,114.48 L603.344,114.328 L603.358,114.272 L603.614,114.307 L603.714,114.421 L603.835,114.429 L603.988,114.411 L604.26,114.291 L604.332,114.288 L604.404,114.455 L604.323,114.538 L604.249,114.555 L604.163,114.705 L604.237,114.726 L604.435,114.877 L604.552,115.311 L604.57,115.456 L604.458,115.628 L604.432,115.842 L604.492,116.062 L604.555,116.188 L604.734,116.428 L604.854,117.075 L604.817,117.325 L604.583,117.633 L604.463,117.723 L604.334,117.765 L604.29,117.82 L604.26,118.06 L604.163,118.137 L603.866,118.23 L603.009,118.102 L602.931,118.038 L602.795,117.794 Z M601.42,115 L601.585,114.745 L602.14,114.772 L602.224,115.202 L601.947,115.785 L601.582,115.812 L601.42,115 Z M600.654,120.509 L600.784,120.289 L600.896,120.309 L601.011,120.506 L601.045,120.768 L601.02,120.927 L600.768,120.705 L600.654,120.509 Z M599.408,121.465 L599.782,121.498 L600.155,121.708 L600.342,122.202 L600.289,122.765 L599.6,121.914 L599.408,121.465 Z M597.384,128.157 L597.441,127.894 L597.561,127.75 L597.648,127.716 L597.818,127.723 L598.228,127.737 L598.425,127.779 L598.485,127.809 L598.701,128.059 L598.746,128.431 L598.704,128.599 L598.707,129.154 L598.741,129.284 L598.843,129.441 L598.87,129.659 L598.58,129.833 L598.328,129.693 L598.209,129.536 L597.919,129.248 L597.672,129.088 L597.567,128.981 L597.532,128.903 L597.384,128.157 Z M596.305,131.042 L596.32,130.879 L596.464,130.39 L596.511,130.326 L596.8,130.179 L597.184,130.289 L597.417,130.493 L597.202,130.497 L597.151,130.535 L597.111,130.622 L597.095,130.697 L597.115,130.796 L597.253,131.001 L596.942,131.221 L596.679,131.295 L596.351,131.211 L596.305,131.042 Z M587.055,119.026 L587.286,119.076 L587.472,119.216 L587.836,119.624 L588.125,119.849 L588.237,120.079 L588.223,120.207 L588.033,120.531 L587.853,120.523 L587.605,119.888 L587.11,119.475 L586.773,119.185 L587.055,119.026 Z M585.872,121.329 L586.119,121.269 L586.325,121.507 L586.471,121.92 L586.295,122.153 L585.986,121.91 L585.845,121.602 L585.872,121.329 Z M583.689,125.007 L583.726,124.946 L583.8,124.918 L583.823,124.852 L583.789,124.69 L583.64,124.335 L583.757,123.651 L583.829,123.523 L583.875,123.514 L583.938,123.585 L583.988,123.715 L584.148,123.771 L584.513,123.713 L584.732,123.585 L584.973,123.603 L585.11,123.728 L585.437,123.584 L585.444,123.463 L585.398,123.263 L585.426,123.207 L585.601,123.224 L585.714,123.306 L585.796,123.505 L585.814,123.622 L585.774,123.653 L585.625,123.623 L585.535,123.675 L585.316,124.049 L585.181,124.462 L585.038,124.602 L585,124.859 L585.058,125.111 L585.022,125.281 L584.936,125.339 L584.745,125.327 L584.644,125.406 L584.591,125.549 L584.664,125.869 L584.678,126.059 L584.641,126.129 L584.563,126.101 L584.397,125.791 L584.199,125.551 L584.007,125.381 L583.843,125.349 L583.71,125.213 L583.689,125.007 Z M577.758,128.819 L578.348,128.501 L578.405,128.761 L578.392,129.318 L578.555,129.641 L577.78,129.286 L577.758,128.819 Z M569.516,82.414 L569.716,82.306 L569.91,82.166 L570.377,82.17 L570.464,82.285 L570.28,82.526 L570.033,82.548 L569.718,82.518 L569.516,82.414 Z M594.054,442.519 L594.178,442.443 L594.401,442.512 L594.425,442.794 L594.425,443.056 L593.901,442.772 L594.054,442.519 Z M590.271,446.325 L590.347,445.925 L590.551,446.017 L590.63,446.448 L590.665,446.883 L590.505,447.05 L590.198,446.768 L590.271,446.325 Z M589.317,448.937 L589.795,448.842 L590.081,448.8 L590.562,448.63 L591.21,448.445 L592.07,448.225 L592.413,448.196 L592.686,448.117 L592.922,448.063 L593.01,447.812 L592.993,447.598 L593.726,448.044 L593.963,448.254 L593.95,448.318 L593.899,448.346 L593.649,448.459 L593.413,448.813 L592.706,448.575 L592.303,448.561 L591.559,448.716 L590.276,449.13 L589.804,449.187 L589.449,449.179 L589.317,448.937 Z M586.062,449.581 L586.392,449.508 L586.903,449.702 L587.129,449.721 L587.312,449.669 L587.57,449.508 L587.925,449.395 L588.018,449.657 L587.588,449.975 L587.148,450.085 L586.393,449.985 L586.118,449.82 L586.062,449.581 Z M581.243,449.347 L581.873,449.138 L582.266,449.024 L582.76,449.136 L583.37,449.313 L584.246,449.405 L584.657,449.645 L584.224,449.725 L583.615,449.697 L583.11,449.68 L582.297,449.434 L581.822,449.564 L581.534,449.586 L581.324,449.526 L581.243,449.347 Z M579.55,453.575 L579.758,453.645 L580.054,453.938 L580.351,454.377 L580.511,454.662 L580.731,455.25 L580.921,456.008 L580.973,456.966 L580.886,457.868 L580.81,458.364 L580.646,458.981 L580.361,459.826 L580.134,459.784 L580.134,459.451 L580.214,459.106 L580.314,458.79 L580.431,458.45 L580.53,458.117 L580.552,457.537 L580.635,457.054 L580.608,456.28 L580.531,455.81 L580.478,455.443 L580.231,454.773 L580.111,454.411 L579.843,454.136 L579.634,453.826 L579.55,453.575 Z M577.333,450.263 L577.891,450.135 L578.281,450.084 L578.966,449.616 L579.235,449.421 L579.415,449.495 L579.343,449.698 L579.057,449.96 L578.109,450.425 L577.683,450.566 L577.259,450.444 L577.333,450.263 Z M574.172,450.013 L575.541,449.935 L575.77,449.481 L576.044,449.658 L575.966,450.079 L575.776,450.465 L575.52,450.529 L575.156,450.642 L574.788,450.384 L573.992,450.244 L574.172,450.013 Z M545.732,74.579 L545.829,74.31 L546.116,74.143 L546.188,74.023 L546.168,73.873 L546.258,73.743 L546.732,73.263 L547.882,72.485 L548.943,71.888 L549.273,71.658 L550.007,71.238 L550.138,71.185 L550.198,71.223 L550.375,71.188 L550.647,70.99 L550.624,70.934 L550.657,70.869 L551.45,70.345 L551.73,70.319 L551.813,70.349 L552.127,70.161 L552.337,69.988 L552.326,69.799 L552.424,69.671 L552.694,69.491 L552.912,69.281 L553.22,69.065 L553.366,69.063 L553.514,68.942 L553.632,68.834 L553.613,68.742 L553.641,68.692 L553.868,68.419 L554.454,68.045 L554.949,67.847 L555.375,67.549 L555.708,67.725 L556.041,67.638 L556.158,67.475 L556.292,67.371 L556.604,67.264 L556.783,67.268 L557.12,67.071 L557.2,67.289 L557.193,67.493 L557.093,67.584 L556.783,67.682 L556.646,67.793 L556.515,67.923 L556.31,68.261 L555.964,68.625 L555.225,69.275 L555.082,69.483 L555.087,69.617 L555.128,69.674 L555.166,69.804 L555.158,69.904 L555.099,70.024 L553.888,71.116 L553.221,71.511 L552.475,71.864 L552.199,71.932 L551.647,72.263 L551.349,72.283 L550.707,72.586 L550.449,72.767 L550.382,72.933 L549.846,73.279 L549.291,73.636 L549.284,73.892 L549.438,73.984 L549.764,73.886 L550.029,73.963 L550.779,73.654 L550.792,73.691 L550.626,73.901 L549.414,74.494 L549.087,74.708 L548.78,74.788 L548.614,74.868 L547.901,75.276 L547.681,75.442 L547.206,75.574 L546.73,75.448 L546.691,75.412 L546.687,75.251 L546.535,75.068 L546.065,75.07 L546.047,75.028 L546.059,74.994 L546.141,74.931 L545.861,74.677 L545.801,74.695 L545.732,74.579 Z M571.107,454.061 L571.563,453.815 L571.775,453.324 L572.988,452.313 L573.728,451.689 L573.879,451.942 L573.387,452.701 L573.16,453.15 L573.31,453.644 L573.963,453.757 L574.221,454.177 L574.044,454.415 L573.693,454.401 L573.544,454.732 L573.769,455.103 L573.522,455.289 L573.259,455.161 L573.269,454.716 L573.019,454.317 L572.63,454.161 L572.356,454.558 L572.262,454.54 L571.752,454.43 L571.384,454.486 L571.23,454.461 L571.107,454.061 Z M569.152,452.381 L569.461,452.167 L569.6,452.365 L569.415,452.7 L569.234,452.735 L568.96,452.508 L569.152,452.381 Z M566.642,465.526 L566.932,465.478 L567.32,465.216 L567.57,465.151 L567.775,465.267 L567.537,465.527 L567.335,465.827 L567.18,466.077 L566.829,465.827 L566.642,465.526 Z M553.362,475.436 L553.645,475.068 L553.791,474.934 L553.951,474.98 L554.743,476.061 L554.5,476.247 L554.182,476.341 L553.637,475.539 L553.362,475.436 Z M529.47,94.101 L529.574,93.879 L529.592,93.641 L529.54,93.219 L529.559,93.019 L529.629,92.749 L529.792,92.582 L530.077,92.479 L530.395,92.469 L530.419,92.493 L530.44,92.663 L530.43,92.81 L530.36,93.118 L530.341,93.568 L530.212,93.834 L529.99,94.007 L529.5,94.267 L529.47,94.101 Z M528.754,96.819 L529.154,96.447 L529.841,96.151 L529.993,96.351 L529.623,96.838 L529.143,97.052 L528.754,96.819 Z M550.004,475.942 L550.647,475.972 L551.526,476.252 L552.256,476.275 L552.619,476.408 L552.193,476.623 L551.348,476.615 L550.425,476.337 L550.004,475.942 Z M526.855,95.888 L527.086,95.501 L527.559,95.273 L528.591,94.873 L528.673,94.888 L528.85,95.009 L528.906,95.103 L528.7,95.563 L528.541,95.66 L528.479,95.741 L528.432,95.846 L528.434,95.946 L528.406,95.982 L528.361,96.01 L528.299,95.988 L528.237,95.948 L528.063,95.925 L527.091,96.267 L526.987,96.238 L526.819,96.018 L526.855,95.888 Z M525.362,97.8 L525.509,97.293 L525.776,97.045 L526.508,96.495 L526.667,96.646 L526.567,96.841 L525.957,97.225 L525.6,97.855 L525.45,97.971 L525.362,97.8 Z M546.48,476.957 L546.912,476.778 L547.432,476.595 L548.114,476.513 L548.307,476.811 L547.743,476.997 L546.543,477.284 L546.228,477.192 L546.48,476.957 Z M525.52,95.138 L525.897,95.263 L526.221,95.681 L526.324,96.083 L525.627,96.18 L525.18,95.52 L525.52,95.138 Z M524.921,93.898 L525.151,93.698 L526.203,93.421 L526.722,93.156 L526.837,93.436 L527.387,94.122 L527.834,93.534 L528.042,93.455 L528.299,93.855 L528.2,94.252 L527.389,94.462 L527.059,94.909 L526.539,95.404 L525.909,94.671 L525.076,94.356 L524.921,93.898 Z M524.986,98.963 L525.004,98.938 L525.454,98.699 L525.821,98.594 L525.881,98.504 L525.885,98.374 L525.979,98.254 L526.098,98.144 L526.621,97.836 L526.878,97.619 L527.065,97.389 L527.186,97.159 L527.351,96.969 L527.431,96.931 L527.635,96.957 L527.873,97.254 L528.136,97.416 L528.156,97.466 L528.026,97.592 L527.937,97.636 L527.512,97.7 L526.628,98.152 L526.529,98.278 L526.504,98.455 L526.739,98.558 L526.954,98.553 L526.991,98.581 L527.005,98.649 L526.94,98.773 L526.375,98.948 L526.08,98.893 L525.975,98.977 L525.765,99.279 L525.428,99.575 L525.319,99.621 L525.067,99.629 L525.123,99.21 L524.999,99.039 L524.986,98.963 Z M521.985,94.871 L522.454,94.733 L522.581,94.513 L522.746,94.516 L522.84,94.813 L522.737,95.323 L522.306,95.371 L522.026,95.171 L521.966,95.011 L521.985,94.871 Z M522.491,466.748 L522.641,466.565 L522.711,466.482 L523.119,466.227 L523.525,466.322 L523.911,466.277 L524.113,465.797 L524.615,465.733 L524.883,465.849 L525.248,465.807 L525.585,465.847 L525.919,466.162 L526.378,466.385 L526.46,466.625 L526.788,466.497 L526.948,466.707 L527.166,466.884 L527.514,466.884 L527.748,466.735 L527.798,467.122 L528.169,466.961 L528.142,467.256 L527.749,467.601 L527.209,467.951 L527.065,468.379 L527.189,468.683 L526.864,468.852 L526.539,468.765 L526.341,468.897 L526.22,469.075 L525.755,468.981 L525.536,468.549 L525.289,468.481 L525.042,468.536 L524.719,468.29 L524.448,468.205 L523.805,467.855 L523.541,467.873 L523.381,467.721 L522.567,467.375 L522.28,467.145 L522.491,466.748 Z M55.201,338.386 L55.279,338.408 L55.479,338.547 L56.188,338.712 L56.394,338.895 L56.822,339.405 L56.823,339.442 L57.056,339.535 L57.202,339.522 L57.649,340.059 L58.022,340.184 L58.646,340.716 L58.843,340.776 L58.867,340.83 L58.829,341.233 L59.327,342.223 L59.442,342.379 L59.507,342.551 L59.55,342.903 L59.468,343.102 L59.222,343.245 L59.067,343.253 L58.789,343.051 L58.546,342.771 L58.322,342.613 L57.844,342.48 L57.197,342.374 L56.934,342.241 L56.8,342.116 L56.607,341.672 L56.552,341.383 L56.724,341.133 L56.877,340.809 L56.896,340.246 L56.869,340.07 L56.631,339.916 L56.417,339.904 L56.425,339.848 L56.334,339.701 L56.111,339.562 L55.741,339.499 L55.664,339.459 L55.561,339.325 L55.521,339.119 L55.308,338.651 L55.198,338.566 L55.183,338.416 L55.201,338.386 Z M52.913,347.664 L53.136,347.609 L53.45,347.729 L53.532,347.854 L53.589,347.961 L53.556,348.091 L53.586,348.37 L53.787,348.976 L53.924,349.229 L54.296,350.134 L54.443,350.395 L54.534,350.487 L54.797,350.789 L54.965,351.139 L56.008,352.624 L56.206,353.051 L56.131,353.135 L56.075,353.065 L55.763,352.888 L55.639,352.841 L55.509,352.84 L55.375,352.887 L54.855,353.197 L54.815,353.08 L54.84,353.055 L54.623,352.701 L54.192,352.132 L54.002,352.024 L53.892,351.844 L53.795,351.449 L53.788,351.385 L53.828,351.286 L53.613,350.863 L53.626,350.815 L53.486,350.544 L53.417,349.673 L53.313,349.368 L53.153,349.081 L53.119,348.213 L52.998,348.028 L52.814,347.998 L52.913,347.664 Z M47.471,336.194 L48.008,336.196 L48.089,336.565 L47.906,336.956 L47.409,336.964 L47.247,336.662 L47.471,336.194 Z M43.95,323.467 L44.336,323.89 L45.062,323.812 L45.308,324.026 L44.948,324.348 L44.434,324.35 L43.906,324.152 L43.455,323.647 L43.95,323.467 Z M37.5,338.391 L37.75,338.62 L37.879,338.602 L38.045,338.492 L38.11,338.508 L38.319,338.464 L38.402,338.481 L38.734,338.831 L39.068,339.111 L39.335,339.282 L39.435,339.408 L39.791,340.082 L39.493,340.205 L39.123,340.195 L38.93,340.144 L38.535,339.933 L38.36,339.835 L38.28,339.732 L37.829,339.472 L37.576,339.098 L37.578,339.042 L37.585,338.986 L37.533,338.86 L37.5,338.391 Z M35.941,320.367 L36.049,320.39 L36.391,320.58 L36.955,320.76 L37.425,321.134 L37.51,321.306 L37.69,321.371 L38.022,321.343 L38.332,321.471 L38.413,321.484 L38.463,321.458 L38.599,321.502 L38.831,321.725 L39.044,321.81 L39.254,321.966 L39.359,322.116 L39.572,322.565 L40.362,322.912 L40.691,322.923 L40.837,322.854 L41.025,322.674 L40.968,322.579 L40.972,322.533 L41.307,322.347 L41.645,322.422 L41.776,322.382 L42.34,322.796 L42.455,322.977 L42.425,323.014 L42.207,323.12 L42.093,323.112 L42.017,323.157 L41.859,323.366 L41.857,323.461 L41.691,323.588 L41.578,323.61 L41.324,323.535 L41.044,323.603 L40.924,323.597 L40.542,323.53 L40.516,323.485 L40.06,323.395 L39.794,323.37 L39.26,323.536 L38.958,323.526 L38.847,323.581 L38.787,323.653 L38.667,323.663 L38.32,323.481 L38.193,323.451 L38.039,323.511 L37.419,323.271 L36.665,322.915 L36.2,322.574 L36.166,322.446 L36.145,322.109 L36.156,321.934 L36.211,321.885 L36.369,321.665 L36.425,321.489 L36.217,321.139 L35.89,320.772 L35.828,320.512 L35.941,320.367 Z M29.989,320.491 L30.167,320.412 L30.327,320.397 L30.475,320.431 L30.667,320.585 L30.874,320.669 L31.376,320.713 L31.694,320.577 L31.798,320.455 L31.928,320.464 L32.004,320.481 L32.322,320.701 L32.742,320.811 L33.048,320.787 L33.267,320.697 L33.296,320.641 L33.386,320.591 L33.432,320.594 L33.622,320.685 L33.55,320.91 L33.467,320.967 L33.381,321.12 L33.387,321.197 L33.374,321.412 L33.434,321.549 L33.651,321.803 L33.866,321.983 L33.988,322.023 L34.341,322.017 L34.429,322.059 L34.339,322.333 L34.322,322.614 L34.385,322.769 L34.368,322.899 L34.3,322.922 L33.833,322.822 L33.522,322.857 L32.938,323.077 L32.903,323.111 L32.888,323.148 L32.864,323.168 L32.357,323.163 L32,323.093 L31.864,323.137 L31.774,323.227 L31.541,323.242 L30.869,322.551 L30.746,322.322 L30.67,321.867 L30.641,321.803 L30.546,321.735 L30.546,321.631 L30.472,321.27 L30.307,320.858 L29.957,320.54 L29.989,320.491 Z M26.772,318.865 L27.035,318.834 L27.365,318.694 L27.439,318.651 L27.495,318.711 L27.612,318.796 L27.736,318.834 L27.835,318.82 L28.175,318.673 L28.294,318.591 L28.316,318.521 L28.309,318.438 L28.349,318.414 L28.433,318.511 L28.481,318.829 L28.373,318.877 L28.371,319 L28.548,319.127 L28.828,319.145 L28.995,319.345 L29.065,319.483 L29.181,319.801 L29.127,319.841 L28.903,319.833 L28.392,319.671 L28.252,319.683 L28.192,319.731 L27.921,319.577 L27.416,319.147 L27.317,319.121 L27.235,319.172 L27.075,319.208 L26.637,319.034 L26.772,318.865 Z M76.762,23.064 L76.846,23.117 L77.015,23.48 L76.965,23.492 L76.73,23.296 L76.664,23.088 L76.762,23.064 Z M16.557,231.806 L16.693,231.812 L16.751,232.011 L16.766,232.231 L16.665,232.351 L16.531,232.23 L16.557,232.121 L16.523,231.889 L16.557,231.806 Z M15.643,230.868 L15.81,230.752 L15.954,230.707 L16.094,230.798 L16.092,230.98 L16.039,231.166 L16.035,231.166 L15.783,231.1 L15.658,230.997 L15.643,230.868 Z M70.193,35.711 L70.364,35.546 L70.414,34.904 L70.671,34.638 L70.894,33.932 L71.264,33.45 L71.516,33.363 L71.79,32.829 L72.055,33.071 L71.888,33.236 L71.853,33.378 L72.105,33.898 L71.975,34.032 L71.728,34.875 L71.704,35.078 L71.817,35.227 L72.249,35.413 L72.486,35.712 L72.399,35.762 L72.052,35.75 L71.459,35.926 L71.25,36.1 L71.105,36.314 L71.052,36.316 L70.894,36.226 L70.539,36.332 L70.484,36.424 L70.323,36.368 L70.144,36.259 L70.086,35.974 L70.193,35.711 Z M75.356,11.118 L75.424,11.028 L75.573,10.427 L75.643,10.337 L75.735,10.367 L75.822,10.744 L76.01,11.04 L76.212,11.262 L76.322,11.34 L76.372,11.428 L76.342,11.838 L76.216,11.728 L76.148,11.624 L76.018,11.572 L75.702,11.649 L75.466,11.652 L75.402,11.636 L75.298,11.543 L75.275,11.48 L75.282,11.337 L75.356,11.118 Z M75.181,9.448 L75.546,9.403 L75.664,9.875 L75.529,9.875 L75.395,9.794 L75.286,9.692 L75.153,9.482 L75.181,9.448 Z M75.483,7.162 L75.672,6.844 L75.814,6.996 L75.874,7.152 L76.064,7.876 L76.085,8.091 L76.302,8.278 L76.546,8.799 L76.514,9.352 L76.417,9.312 L76.203,9.113 L75.851,8.379 L75.781,7.688 L75.671,7.536 L75.444,7.474 L75.439,7.33 L75.483,7.162 Z M74.383,10.072 L74.699,9.742 L74.873,9.672 L75.073,9.995 L75.078,10.127 L75.238,10.65 L74.838,11.08 L74.433,11.054 L74.368,11.016 L74.4,10.822 L74.404,10.48 L74.346,10.388 L74.33,10.277 L74.383,10.072 Z M71.89,17.151 L72.318,16.563 L72.713,16.253 L72.987,15.788 L73.264,15.627 L73.95,14.963 L74.188,14.59 L74.347,14.052 L74.642,14.05 L74.769,14.114 L74.893,14.232 L75.029,14.126 L75.157,14.066 L75.253,14.13 L75.3,14.237 L75.27,14.412 L75.4,14.494 L75.16,15.129 L75.155,15.339 L75.395,15.519 L75.553,15.699 L75.912,16.276 L75.981,16.523 L75.95,16.725 L75.92,16.775 L75.677,16.911 L75.617,16.955 L75.487,16.985 L75.195,16.922 L75.109,16.885 L74.957,16.56 L74.848,16.462 L74.638,16.395 L74.355,16.404 L74.211,16.475 L74.259,16.621 L74.139,16.883 L73.717,16.857 L73.673,16.97 L73.348,17.286 L72.591,17.203 L72.461,17.423 L72.621,17.656 L73.262,17.626 L73.752,17.839 L73.802,17.814 L74.021,18.188 L74.142,18.711 L74.154,18.793 L74.128,19.047 L74.148,19.377 L74.203,19.546 L74.168,20.172 L74.113,20.274 L73.9,20.411 L73.879,20.471 L73.973,21.04 L73.959,21.58 L73.846,22.346 L74.158,22.296 L74.373,21.978 L74.425,21.57 L74.559,21.253 L74.512,21.113 L74.485,20.767 L74.658,20.795 L74.943,20.949 L75.2,21.586 L75.3,21.924 L75.482,22.181 L75.855,22.471 L76.023,22.575 L76.178,22.61 L76.025,23.304 L76.05,23.431 L76.185,23.773 L76.161,24.031 L76.109,24.247 L76.062,24.355 L75.859,24.644 L75.705,24.71 L75.531,24.85 L75.468,25.128 L75.423,25.208 L75.367,25.235 L75.24,25.162 L75.183,24.999 L74.879,24.919 L74.732,24.819 L74.622,24.449 L74.653,24.327 L74.782,24.136 L74.812,24.029 L74.796,23.777 L74.585,23.163 L74.393,23.058 L74.183,23.078 L73.962,23.144 L73.885,23.259 L73.826,23.284 L73.44,23.3 L73.405,23.15 L73.441,23.078 L73.601,22.935 L73.662,22.799 L73.663,22.724 L73.486,22.453 L73.209,22.288 L72.977,21.77 L73.168,21.653 L73.26,21.496 L73.295,21.306 L73.128,20.898 L73.178,20.765 L73.31,20.616 L73.565,20.195 L73.655,19.681 L73.65,19.316 L73.583,19.139 L73.392,18.992 L73.074,18.917 L72.834,18.962 L72.734,18.992 L72.707,18.973 L72.724,18.55 L72.676,18.386 L72.493,18.069 L72.208,17.847 L72.133,17.613 L71.913,17.425 L71.87,17.215 L71.89,17.151 Z M72.38,4.911 L72.894,5.129 L73.565,5.895 L74.251,6.521 L73.847,6.553 L73.193,6.184 L72.879,5.905 L72.279,5.137 L72.38,4.911 Z M70.561,6.423 L71.075,6.194 L71.279,6.239 L71.377,6.195 L71.517,6.215 L71.528,6.293 L71.417,6.796 L71.234,6.948 L71.121,6.993 L70.801,7.025 L70.827,6.968 L70.947,6.856 L70.967,6.758 L70.854,6.601 L70.561,6.423 Z M72.07,0.262 L72.817,0.477 L72.86,1.032 L72.75,1.073 L72.596,0.955 L72.316,0.915 L72.008,0.808 L72.06,0.596 L72.07,0.262 Z M68.143,7.985 L68.307,7.795 L68.632,7.561 L69.006,7.636 L69.163,7.702 L69.203,7.772 L69.601,7.838 L69.665,8.068 L69.652,8.124 L69.564,8.23 L69.534,8.358 L69.866,8.586 L70.007,8.84 L70.09,9.146 L70.256,9.322 L70.496,9.449 L70.88,9.537 L70.943,9.379 L70.923,9.27 L70.87,9.179 L70.752,9.087 L70.588,9.051 L70.418,8.749 L70.559,8.731 L70.609,8.636 L70.44,8.314 L70.365,8.302 L70.392,8.102 L70.812,7.94 L70.969,7.798 L71.009,7.702 L71.119,7.569 L71.478,7.407 L71.565,7.313 L72.173,7.038 L72.335,6.877 L72.343,6.796 L72.711,6.755 L73.041,6.817 L73.278,6.95 L73.779,7.4 L74.105,7.833 L74.118,7.904 L74.794,8.485 L74.8,8.515 L74.558,8.69 L74.083,8.86 L73.959,8.866 L73.637,9.089 L73.625,9.167 L73.697,9.421 L73.687,9.469 L73.663,9.476 L73.566,9.574 L73.556,9.801 L73.703,10.035 L73.83,10.383 L73.816,10.473 L73.754,10.586 L73.574,10.686 L73.406,10.961 L73.379,11.115 L73.484,11.259 L73.409,11.432 L73.034,11.639 L72.778,11.71 L72.733,11.784 L72.562,12.282 L72.617,12.429 L72.639,12.628 L72.646,12.87 L72.607,12.954 L72.451,13.049 L72.275,12.959 L71.58,12.887 L71.452,12.837 L71.34,12.719 L71.48,12.469 L71.293,12.392 L71.183,12.223 L71.11,12.278 L70.972,12.233 L71.208,12.011 L71.188,11.892 L71.11,11.816 L70.932,11.866 L70.573,11.872 L69.572,11.386 L69.38,11.078 L69.298,10.878 L68.668,10.408 L68.443,10.063 L68.363,9.85 L68.29,9.487 L68.315,9.362 L68.367,9.297 L68.421,9.13 L68.325,8.908 L68.305,8.778 L68.349,8.652 L68.424,8.592 L68.45,8.449 L68.335,8.243 L68.155,8.207 L68.112,8.107 L68.143,7.985 Z M68.237,5.982 L68.563,6.061 L68.737,6.223 L68.9,6.265 L69.06,6.423 L69.318,6.758 L69.483,7.052 L69.547,7.284 L69.682,7.621 L69.496,7.577 L69.313,7.43 L68.402,6.459 L68.197,6.089 L68.237,5.982 Z" id="Combined-Shape" fill="#000000"></path>
</svg>
