<svg height="1000" width="1000"><path class="americon" d="M968.903 451.896l1.181.161.975.133.985-1.087.233-.257 1.287.31 1.129.683-.056.171-.053.162-.284.873.7 2.263-.34.26-.436.333-.157-.005-1.94-.064-.386-.013-.056-.826-.51-.819-.962-.645-1.461-.762zm-10.086-7.152l.369-.213.745.07 1.172-.192.183-.03.047-.007 1.491.14 1.293.64.678 1.023 1.207.435.045.51.006.068-.087.115-.48.639-.668-.403-.95.099-.238.024-1.248.125-1.249-.517-.04-.045-.845-.933-1.21-.642zm-25.218 11.708l1.524-.125.368-.056.421-.707.056-.084.454-.687.262-.347.458.006.196.391-.255.741-.104.676.514.31.35.465-.128.715-.182.562.009.597.023.107.059.274-.012.156-.04.544.144 1.13.024.165.076.533-.223.324-.026.037-.97-.215-.213-.567-.052-.14-.428-1.304-.397-.399-.765-.766-.04-.04-.373-.361-1.091-1.458zm-2.77-14.116l1.307-.93 1.827.51.035.066.562 1.083.508.736.516 1.315 1.035 1.003.057.055.024.01.767.308 1.076.066.695.85.106.13.159.278.521.91.507.696.749.236.743-.053.572-.422.023-1.159.36-.75.687-1.086.316.23.17.124.35.253.635.9.38.531 2.083.501.658.159.822-.303.637-1.5.94-.676.217.617-.065 1.076.751.402.884.225.092.024.851.217.659-.176.178-.125.844-.595 1.374.557 2.584 1.198 1.105.913.614.506.84.424 2.497 1.258.003.006.149.231.74 1.155 1.514 1.505.415 2.517-.046.04-.217.193-.308.273-1.083 2.087-.065.039-.24.142-.842.5-1.178 1.26-1.559.854-.162-.008-1.08-.054-.022-.273-.083-1.05-.056-.867-.834-.442-.783.22-.856.759-1.258.85-.212.143-.197.133-.216.146-.34 1.95-.07.153-.032.068-.338.738-.69.798-.64.503-.219.173-.771.923-.254-.228-.242-.218-.092-.083-.77-1.56-.005-.006-1.56-2.038-.181-.99-1.3-1.055-.705-.05-.247-.017-.066-.094-.909-1.298-.17-.148-1.13-.99-1.082-.131-.12-.015-.007-.023-.37-1.35-.019-.069-.01-.004-.007-.003-1.19-.511-.678-.982-.267-1.754-.01-.062.108-1.036-.797-.69-.297-.08-.602-.162-.264-.071-.817-.86-.15-.16-.084-.016-.497-.098-.803.351-.299.131-.172.075.267-1.451-.476-1.358-1.102-1.761-.179-.646-.128-.466-.671-.61-.425-.779-.389-1.027-.754-.65-.412-.282-.298-.203-.354-.247zm-78.248-11.105l.172.013.23.078.493.239.249.306.484.205.013.126-.015.4-.005.145-.006.136-.2.125-.274.16-.267.076-.17.163-.22.202-.003.003-.217.106-.395-.087.146-.254.126-.308.06-.146-.144-.445-.48-.756zm-.821 11.33l.153-.157.482-.494 1.108.106.05.004 1.212.978.507.903-.387.568-.181.266-.818.713-.252-.245-.136-.99-.378-.534-.041-.03-1.378-1.027zm.45 89.478l.015-.053.007-.12.08-1.398-.26-.86-.558-1.847.137.008 1.258.074.07.004 1.982-.338.351-.024.227-.016 2.19-.151 3.087.327 2.227-.173.175-.014.445-.183.241-.1 3.37-1.389 2.648-1.34 2.92-.508 1.704-1.538.041-.012.227-.066 2.1-.616.548-.16.26-.076 1.688.107.351.022 2.82-.652.775-.18 4.169-1.621.145-.057 2.29-.606 2.66-.402 2.26-.444h.005l.388-.077.014-.002 1.401-.276.307-.06.783-.154.66-1.315-.011-.03-.083-.209-.06-.15-.549-1.377 1.298-.6 1.32-.608.185-.086 3.392-.257 1.672-.278 2.444-.407 5.753-.621.145-.016.257-.027 2.196.176.267.03 1.457.168 1.102.126.684.367.1.054.638.341.16.011 2.297.161 2.246-.033.158.136.273.235.522.45.85.928 1.241-.803.267.077 1.338.387.284.082 1.795.888.048.024 1.568.53.06.02 2.354.172.82.484.129.076.093-.018.792-.153.174-.059 1.326-.452.267-.091 1.481 1.126.03.009.223.065 1.112.323 1.496.19.027.003.31.039.987-.277.075.054.215.156.996.723.195.14 1.145-.279.078.01 1.91.22.458-.844.225-.2.856-.758.454-.114.43-.109.536.775.007.003.981.381.431.168.584.752.935 1.205.083.107.172.16 1.154 1.072 1.513-.181.179.005.777.024.142.005-.042.628-.377.282-1.442 1.083-.047.035-.199.15-1.581-.811-.058-.006-1.096-.108-.207-.02-1.095.174-.3.094-1.104.347-1.354.283-1.08 1.115-.108-.271-.327-.82-.403-.39-.924-.895-1.153-.19-1.095.121-.194.944.207 1.003.02.09.054.12.324.711-.98.8-1.055-.61-.354.044-.585.075-.66.632-.06.058-.798-.823-1.047-.14-1.327.43-.025.009-.005.008-.556.988-.151.27h-.01l-2.076.293-.234.868-.05.186-.013.048-.74.927-.234.29-.478.325-1.022.692-.019.005-.43.114-.953.255-.056.015-.465-.065-1.578-.218-1.309-.137.24-1.467 1.478-2.427-1.58-.812-1.304.23-2.352-.018-.17.03-.348.062-1.098.194-1.083.957.294 1.405.044.21-.269.202-.868.652.015.993.596 1.455-.113.03-.709.188-.01.003-1.03.262-1.105.28-.053.013-.727-.956-.02-.026-.96-1.292-1.04.276-.503 1.42-.171-.097-.359-.2-.471-.264-1.256.06-.312.015-.143-.05-.697-.251-.41.581-1.456.544-1.561.493-1.602 1.33-1.707 1.227-.56 1.106-.029.02-1.075.725-.242.163-1.511.282-.314.058-1.666.547-.394-.255-.397-.257-.554.008-.44.006-.828.587.011.784-1.037.642-1.011.276-.059.016-.545.149-1.84-.655-3.187.149-2.347.398-.426-.517.07-2.563-.117-.027-1.564-.356-.05-.012-1.668.389-1.98.55-.528-.464-.73.219-1.024.219-1.322.283-1.357.122-2.653 1.08-2.646 1.604-1.813 1.33-1.462.229-1.456.594-.13-.039-1.55-.463-1.408.28-2.783-.906-3.289-.836-.436-.111-1.004-.744-2.19-1.624-.553-.41-.598-1.875-.933-.54-1.015-.586zm-7.437-103.53l.246-.398.038-.06.665.364.743-.05.666.404.492.48.26.255.585.448-.112.993-.574.379-.617.255-.292-.203-.995-.277-.338-.616-.051-.826-.461-.573zm-1.503 49.152l1.163.317.124-.034.37-.102.962-.265.112-.031 2.044-.127.386-.024.052-.004 3.009 2.282.542.325-.57.835-.284.459-1.74-.145-1.91-.18-.039-.003-1.039-.357-.125-.043-.54-.2-.62.172-.056.058-.393.403-.91.094-.546-.656.15-1.327-.59-.904zm-1.587 15.565l.666-.039.314.33.365-.013.494-.114.404.034-.144.956-.318.011-.328-.213-.442-.018-.268.282-.488.068-.415-.375zM519.207 616.252l.542-1.29.793-2.288.708-.998.791-.748 1.113-.444.136-.055 1.457-1.122 1.165.292.332.541.083.458-.416.666-.833.54-.292.79-.624.54-.916.333-.624.083-.75.624-1 .873-.583.915-.5.54-.53-.227zm-257.462-178.63l3.318-1.696.007-.003 5.513-1.133 1.363-.28.042-.027.634-.398.052-.033.436-.274 4.059-.784.781-.3 2.372-.907 1.244-.705.052-.03 1.28-.726 2.795-1.155 1.106-.458.066-.023.881-.3.463-.159 1.098-1.612.914-1.342 3.9-1.943.003-.002.154-.076 4.743-2.354 1.078-.83.217-.167.035-.028.642-.494.003-.003.356-.273.048-.168.247-.865.223-.778.128-.45.037-.128-.152-1.406-.02-.297-.039-.544-.056-.791-.03-.434-.144-2.23-.03-.08-.064-.162-.18-.463-.117-.3-.738-1.897-.553-2.564-.37-.507-.256-.352-.15-.207-1.587-2.177-.128-1.868-.161-2.344.204-.878.15-.65.335-1.436 1.59-2.296 2.728-.552.826-1.147.177-.246.88-1.136.707-.912.09-.063.118-.083.367-.26 2.996-2.118 2.065-.31 1-.68.08-.053 1.926-.532.968-.267 1.943-.06.12-.004.715.113 1.509.237.008-.003 1.632-.627 1.091-.419 3.631-.216 2.128.506.754.179.59-.071.047-.006 1.373-.165.55-.066.425.096 2.209.503.337-.094.639-.176.76-.21.441-.018.862-.033 1.29-.05.39-.014.565-.022 1.01.195.818.158 2.811.542.715.137.124.042 2.87.961.79.264.322-.141.156-.07 1.171-.516.007-.003.818.256.104.033.642.2.329.103 4.52 2.179 1.401.258 3.452 1.84.736.995 1.18.445 1.947.733.992-.324.248-.08 2.525.487 1.018.197 1.84.525 1.125.32.735-.32 1.5-.655 2.061.179 4.118 1.264 1.97.451.139.032 3.082.705 3.463.434.032-.005 1.17-.194 1.32-.218.37-.061 2.483-.812.493-.16 2.1-.442.029-.006.928-.195 2.227.012.456-.183 1.364-.55.16.012.4.027 2.08.141.602.004h.075l1.308.007h.132l1.018.006.963.246 1.365.35 1.957.5.671.046 3.123.22 1.076-.946.416-.367h.013l1.516-.082 1.277-.07 1.475.097 1.247.082.64-.134.853-.179.82-.171 2.696-.103.118-.004 1.065-.04.906.18 1.445.287.616.123 3.79 1.666.238.151 1.532.967.863.543 2.561 1.029.9.36 1.73.695 1.345.298 2.16.478.177.04.11.024 1.974.007.255.001 1.223-.339 1.421-.394.793.28.401.141 1.211.428 1.14.401.45.037.185.015h.01l1.5.12 1.406-.903-.003-.074-.045-1.1-.029-.724.068-.073.926-.996.678.192.102.03 1.858.528 1.973.006h.09l.017-.01 1.354-.818.531-.32.351-.323 1.18-1.082.125-.115.495-.455 1.896.748 2.667-.208 2.45-.19 1.956.004 1.097.003 1.406-1.317 2.228-.242.508-.013 1.81-.048.57-.015 2.063.17.486.08 2.3.38.76.125 1.947.49 2.012.508.071.029 2.733 1.13 1.441.142 2.535.248.314.03.36-.08 2.06-.466.13-.03 1.082-.244 1.796-1.217.269-.182 1.65.497.465.059 1.734.218.441.056.13.07 2.674 1.419.19.061.145.047 1.013.327.962.31.494-.197.044-.018 1.938-.773.756.168.73.163.234.112 1.509.722.374.179 1.205.576.307.147 1.409.22.31.048.883.137 2.184.34.016.004 2.885.756 1.983.52.012.002.468.123.156.064 1.247.514 3.398.716 1.3.274.007.001 4.127-.083 1.438-.547.295-.113 1.402-1.981.908-.496.66-2.558.091-.042.642-.292.174-.079 1.693-.413 1.36-.33.576-.027 3.055-.141.6-.086 1.71-.246 2.723.163.067-.05 1.83-1.354.186.04.477.101.384.083.108.023 1.487 1.011.33.224.562.207.042.016.964.353 1.238.907.736-.001h.09l.396-.91.18-.411.355.028 1.708.134 1.78.824.532.246 1.98-.333 2.063-.003 1.56.717 1.66.763h.124l1.313-.002h.049l.328-1.321.541-.145.06-.017.636-.17 1.642 1.071.754.492.274.172 1.06.665.734.46.163.102.356.152 1.077.459.301.128.532-.15.515-.145 1.015-.287 1.9.326 2.387-.236.17-.017.79.524.698.463 1.405.822h.384l1.102-.004.514-.247.319-.154.98-.472.082-.04.778-.663.045-.039.583-.498.242-.206 2.309-.501.793.248 2.346.733.859.379.673.297.13.058.57.25 1.487.656.396.173.295.13 2.118.927 4.46.563 3.055.65 2.245-.033 5.019-.074.073-.014.138-.026.277-.053.914-.174 1.16-.22.985-.187.712-.538.275-.209.235.524.764 1.701.364.187 3.772 1.943 3.145 1.804.877-.137 1.845-.288.119-.09 2.185-1.653 1.066-1.201.037-.043.294-.33.893-.527.095-.056.81-3.305.077.011.298.043 1.277.186.544.088 1.052.17 1.53.248.057.01.286.046 1.88.506.07.02.662.178.034.009 1.135.306.202.054.232.062 1.296-.006.442-.002.82-.004 2.316.73 1.023-.061.462-.028.402-.123 1.246-.38.943.263.214.06.833 1.4.2.11.66.37 1.044.583 2.152.979.234-.002.6-.003 1.312-.007.345.19.452.25.09.05 1.004.555.03.017.15.082.71-.072.647-.065.019-.002.356-.036.815.256 1.253.393 1.58-.24.093-.015 1.122-.17.587-.09.67 1.565.037.022.755.453.67.4.857.515.006.001.054.015 1.787.5.611.17.437.122.787-.348.124-.055.834-.369.149-.065.11.03.487.136.905.253.601.168.213.059 1.743-.54.976-.303 1.498-1.036.31-.214.08-.212.888-2.385.062-.164.009-.025.044-.12.024-.064.043-.114.012-.032.034-.093.056-.15.29-.779 1.407.832.087.051.082.049.082.048.3-.069 1.925-.441 1.323.321 1.989 1.06 3.392 1.133 4.63.958 3.31 1.05 2.975.308 1.903.482 1.485-.177 1.488.237 1.728-.756.977-1.741.611-.21.09-.03.782-.267 1.108.268.008.002 1.53.37.389.648.044.074.404.675h.002l2.155 1.304 3.068 1.544.327.103.5.158 1.283.405.037.011.916.29.309.037 1.756.217 1.076.132 2.53.179.11.008.5.035.115.032 1.034.286.05.014.54.149 1.491.648.729-.007.67-.005.666-.006 1.26.491.397.155.76 1.893.598.47 1.065.837 1.572.234.045.195.556 2.36 1.664 1.39 2.074-.018.322-.003 1.409-.75.646-.343.096-.11 1.13-1.306 1.802-1.75.203-.034.868-.142.425 1.235-.72.96-.34.454-1.475 1.419-.322.911.502.656.525.017 1.458.048 2.068-.863.566-.236.562-.371.834-.55 1.063-1.085.764.273.811.29.244.824.098.33-.647 1.493-.068 1.57 1.662.976 1.903.23.224.534.055.13.482 1.146 1.747 1.223 1.01.493.152.074.112.121.555.604.837.913 1.58.9.107.062.308.175 1.813-.514.717-.257.185-.067.992-.356.03-.281.121-1.126-.544-.973-.466-.834.818-.835 1.812.79.595.26.478-.005 1.175-.012.43 1.73-.567 1.081.842.825.077.075.355.918.05.132.32.827.039.099.312.165.413.218.092.048.057.03 1.12.592 3.074 1.456 2.692.675.789.197 1.893-.764.995.423.334.142 1.245.674 1 .542 1.649.231.069.01 1.014.142 3.465-.7.044-.045 1.182-1.208.236-1.078.025-.037 1.195-1.712.988-.86.628-.545.02-.018.579.407.68.48.235.166.007.004.184 1.734.917.65 1.642-1.01 1.39-1.338.233-1.243-.098-1.321.83-1.112.228-.305.665-.085.89-.113.524-.066.067-.009 1.172 1.308v.051l.004.31.01.839.003.288-.729 1.248-.014.057-.265 1.064-.59 2.36-.517.575-.462.512-.557 1.825-.133.208-.967 1.518-.281.44-.969.99-.339.348-.568.916.139.242.56.982.145.255-.184.976-.05.267-.32.996 1.005 1.063.087.067.062.048 1.02.782-.075.892-.043.507-.028.34-.048 3.06-.153 1.077-.313 1.493.91.821.177.16.037.125.267.896.212.71-.013.076-.007.04-.014.086-.156.916-.12.706-1.47 1.755-.733 1.001-.044.747-.025.412.264 1.322.07.025 1.259.456.409.285.65.453.11.076.254 1.05.267 1.096.06.72.036.438-.645.115-.842.15-1.151.676-.069 1.242.598 1.567 1.261 1.724 1.5.727 1.733-.434 1.151-.676.348-.435.252-.315.135-.169 1.237-.428.19.228.323.384.242.29-.911.86-.04.039-.113.107-.319 1.08.429 1.237.125.23.122.224.515.944.784 1.274.482.782.265 1.404 1.165.484 1.092 1.229.999.402.84 1.067-1.223 1.588-.227-.084-.753-.28-.101-.037-1.334-.73-.024-.02-.646-.551-1.232.842-.249.797-.092.297-.003.007.011.02.607 1.095-.012 1.159-.137.133-.818.798-.056.055-.03.037-1.095 1.335-.212.26-.624-1.683.328-1.483-1.164-1.466-.699-.72.003-.11.015-.73-.58-.453-.674-.526-1.169-.814-.038-.006-1.538-.225-1.587.38-.23.055-.017.038-.548 1.294.1 1.49-.01.112-.007.076-.13 1.47 1.588 1.224.018 1.574.663.778.597.7-.034.068-.533 1.098-.976 1.585-1.138.204-1.839.328-.29.014-.78.039-.303.015-.78.039-.66-.103-.834-.13-.246-.256-.238-.25-.69-.723-1.333-.565-1.342.19-.56.08-1.487.43-1.313 1.174-1.814.849-.499.19-.163.062-.906.345-.498.13-.824.216-1.285.621-.117.056-.735 1.003-.4 1.33-.067 1.2-.003.044.51 1.155-1.155.51-.745-.535-.508-.364-.574-.327-.427-.243-.095.001-1.988.021-.32.003-.972-.884-.2-.18-.341-.992-.423-.108-.824-.21-.458-.028-.703-.043-1.806.817-.037.016-.219.1-1.026.74-.033.023-.69.498-1.049.756-1.31 1.505-.685 1.545-.126.287-.48 1.745-.16.493-.323 1.004-.332.125-1.485.557-2.804 1.52-2.14 1.596-.688.667-.379.368-.659.64-.323.915.032.13.048.2.18.746-1.105 1.35-.125.154-1.35 1.941-.45.648-1.137 2.582-.48 1.912.058.197.014.046v.002l.006.02.006.02.259.873.185.223.57.683-.657.67-.988.839-.13.21-.612.98-.403.646-1.06 2.001-.142.903-.093.593-.158.832.672.906-.41.585-1.242.177-.822.92-.154.477-.25.773.01 1.01v.069l.103.528.149.764.184.945.003.314.002.219.007.795-.27.134-.29.218-.04.125-.002.008-.118.632-.203.53-.724.942-.15.42.034.223.193.195-.14.242-.736 1.252-2.322.27-1.087-.82-.833-.325-.59-.908h-.097l-.65.007-.606.441-1.041.758-.085.062-1.147 1.232-.05.053-.01.012-.274.293-.55.8-.037.056-.56.815-.02.052-.682 1.809-.273.722.108 1.252.074.866.003.04.168.408.502 1.225.01.022.34.994-.9 1.669.065.263.28 1.146.273.383.212.298.104.145-.82 1.336-.048.08-.117.192-.484.788-.17.277-.25-.109-1.25-.543-1.002-.49-.83.09-1.389 1.178-.096.081-.49.393-.029.022-.636.51-.738 1.169-1.076.507-.038-.008-1.378-.312-1.165-.323-.975.062-.52.033-1.074.84-1.073.84-.162.226-1.153 1.612-.981 2.003-1.237 1.257-1.003-.74-.2-.138-.071-.049-.565-.388-.946.244-.381.098-.639.326-.008.004-.05.026-1.621.826-2.146 1.928-.805.74-.929.853-1.407.842-1.41.26-1.916-.401-1.663.012-1.078.34-.076.066-.25.213-1.243 1.063h-.12l-.878.007-.726-.15-.44-.09-.63.103-.947.157-1.743.428-1.497.01-.658-.227-.525-.181-.233-.08-1.187-.363-.146-.044-.116-.015-1.08-.136-.052-.007-1.577.51-.573 1.25-.374.38-.204.206-1.497-.073-1.096-.89-.325-.265-.013-.013-.086-.09-.792-.83-.448-.47-1.506-1.404-1.58-.157-2.077.18-.028-.011-.735-.301-.237-.097-.999-.077h-.085l-2.077.013h-.082l-.25.132-.853.448-1.3.682-2.067 1.842-.132.196-1.104 1.64-.82 2-.113-.046-.887-.363-.049.036-.862.634-.744 1.165-.162.254-.241.275-1.081 1.23-.15-.13-.027-.024-.476-.416-.768-.67-1.68-.862-.038-.02-.367-.187-.008-.002-.432-.102-.214-.05-1.76-.415-.043-.059-.144-.202-.011-.016-.37-.519-.194-.27-.244-.341-.339-.261-.412-.317-.343.014-1.484.06-.5.021-.668-.412-1.413.008-1.909.758-2.816 2.01-.973.566-2.344 1.363-1.077.67-1.575 1.173-1.164-.078-1.83.175-1.576.756-1.828.258-1.042 1.218-.53.619-1.03.373-.133.048-1.494.672-.55.527-1.024.977-.258.177-2.064 1.414-.201.01-1.401.073-.144.007-.742-.386-.842-.439-.207-.07-2.346-.792-.613-.206-.178-.05-.824-.224-.496-.136-.302.012-2.027.08-1.63-.381-.118-.028-1.332-.161-1.41.837-.326 1.914-1.658 1.587-2.076 1.172-2.322 2.004-1.431.722-2.058 1.038-2.912.092-2.83-.24-3.248-1.239-1.503-1.576 2.236-3.75-.253-.166-1.576-1.03-1.157-.758-.431-.282-1.897-2.29-.44-.531-2.747-.99-2.08-.328-3.573 1.589-.892-.952-.86-.916-.496-.53-.086-.092-.25-.306-1.36-1.674-1.559-1.92-1.23-1.461-.512-.608-.425-.504-.42-2.078-1.172-1.459-.162-.2-1.912.003h-.297l-.274.001-1.048.002-.689.002-.934.002-2.742.67-.13.078-2.173 1.309-1.018.613-1.374.978-1.2.855-.129.134-1.54 1.615-.158.166-.523.464-1.1.978-.552.49-.732.65-.002.002-.967.994-1.606 1.65-.747.768-.448.39-.224.195-.842.733-1.644 1.43-1.997-1.495-2.165-1.994-.388-.403-.129-.134-.054-.056-1.474-1.53-.035-.037-2.08-.498-.037-.12-.074-.24-.02-.066-.202-.654-.129-.07-1.701-.927-.404-.016-1.675-.066-1.373.163-.04.004-.998-.664-2.08-2.91-.666-.766-.248-.286-.325-.376-.562-.647-.334-.386-.028-.032-.46-.378-.953-.785-1.784-.698-.128-.05-.228-.316-.623-.865-.646-.897-1.33-.914-1.486-.452-.425-.13-1.995.167-1.413.498-1.413.831-.498-.498-.043-.043-.54-.54-.184-.03-.436-.073-.875-.146-.837-.047-.66-.037-.25.037-1.386.205-.608.09-2.244.747-.748.18-1.663.4-3.658 1.327-4.407 2.158-2.387.793-.09.03-.767.254-1.08-.416-1.164.081-1.83.83-1.558 1.332-.19.162-2.162.662-1.497-.002-1.58.912-.373.169-1.458.66-.5-.027-.438-.024-.642-.035-.05-.095-.12-.233-.741-1.42-1.132-.681-.53-.319-1.33-.335-.964.48-.367.183-.457-.03-.213-.013-.66-.043-1.553.071-.193.009-.054.123-.53 1.206-.154.086-1.178.66-.45-.415-.546-.502-.307-.12-.182-.072-1.238-.488-.184-.072 1.304-1.146.112-.098.002-.831-.031-.165-.298-1.582-1.577-1.084-.505-.218-1.239-.534-.544.04-.01.001-1.607.12-.866.092-.626.066-1.584.168-2.496.741-2.081.992-1.666 1.326-.23.334-.322.468-.335.486-.198.289-.476.082-.709.122-2.142.369-1.16-1.334-.108-.074-1.469-1.012-.594-.001-.937-.003-.63-.002-2.243-.672-.032-.011-1.993-.715-.549-.197-2.487-2.086-1.824-1.336-.086-.04-1.248-.564-1.071-.484h-.001l-.876-.223-1.349-.342-.1-.026h-.143l-1.852-.007-1.332.743-.831-.082-.914-.091-.062.005-.546.048-1.221.106-1.739 1.067-.011.007-.92 1.659-.006.062-.17 2.015-.49.216-.259.114-.663-.419-.27-.257-1.053-1.002-.168-.16.005-1.247.307-.113 1.691-.627.174-1.827-.06-.136-.599-1.363-.104-.105-.764-.77-.172-.173-.061-.062-.637-.642.087-.997-.075-.151-.502-1.015-.543-.123-.043-.01-.161-.036-.022.003-.1.014-1.042.144-.834.744-.483.639-.13.172-.39.515-1.08.078-.374.2-.71.377-.833.65-.334.26.011.088.179 1.415.118.938.164 1.304.01.08-.008 1.911-.086.202-.586 1.375-.588 1.41-1.667.908-1.748.324-1.999.74-1.63.236-.033.005-.013.013-.964 1.018-.277.293-1.168.743-.43.332-.32.246-.504.996-.428.187-1.072.47-1.831.241-.13.039-1.786.533-.585.331-.582.329-.765.065-.468.04-.597.052-.913-.42-.035-.018-.177-.09-1.115-.565-.243-.077-1.086-.346-.298-.387-.28-.364-.747-.17-.15.067-.767.343-.481.306-.014.009-.673.427-.589 1.161-.006 1.101-.002.48-.326.07-.424.092-.086-.021-.487-.118-3.624-.874-.038-.01-.079-.831-.993-.837-1.33-.091-1.29.475-.71.262-.326.071-.859.189-1.397.307-.261-.002-1.568-.01h-.015l-1.771-.076-.459-.02-1.086.825-1.696.413-.303.074-1.5.406-1.747.155-.29.075-.96.25-.59 1.244.327.917 1.245.34.06.02 1.517.49 1.163.35.249.074.245.75-.694.629-.31.28-1.005.992-1.099-.18-.48-.08-.97-.463-.189-.091-.25-.12-.827-.837-.064-.019-.306-.087-1.124-.32-1.07-.198-1.257-.233-.217.082-.867.327-.187.029-.12.018-1.605.248-.67.103.089-1.342.004-.071-.867-1.32-.12-.184-1.24-1.09-1.901-1.843-.7-.356-.893-.454-.064-.033-1.827-.346-1.147-.545-.097-.046-.32-1.748-.037-.607-.08-1.3-.032-.506-.407-1.166-.15-.076-1.838-.936-1.83.07-1.836.9-.008 1.164-.144.468-.112.362-.83.05-.049.002-.369.022-.472-.378-1.098-.88-.02-.018-.213-.175-1.09-.899-.324-.054-1.016-.17-.735-.124-.025-.01-1.386-.59-.578-.246-.162-.044-1.203-.327-.211-.058-.724-.126-1.067-.186-.202-.036-1.748.32-.579.521-.248.224-.178.16-1.247-.598-.161-.078-2.904-.688-.148-.022-1.68-.243-1.86.2-.303.032-.33.135-1.672.68-1.09 1.072-.746 1.462-.014.028.28.475.212.36-.345 1.411-.65-.285-.235-.103-.855-.375-.582.227-1.086.424-1.018 2.32-1.502.569-2.673 1.307-2.987.216-.092.007-2.325-.354-2.578-.023-1.495-.263-1.57-1.096-1.572-.93-.395-.18-1.096-.498-2.03.062-.05.002-1.069-.01-.76-.008-1.912-.018-.006-.026-.052-.215-.182-.76-1.399-1.51-.787-.642-.45-.367-1.072-.925-1.495-.18-2.251.642-1.84.98-.715 1.282-.3.537-.326.567-.436.756-.02 1.977v.019l.24.442.577 1.063 1.402 1.178.415.636.24.369-.01.998-.064.278-.283 1.216-.907-.074-.256-.02-.436-.08-1.047-.192-.926-.169-.118-.17-.479-.684-.633-.905.082-.187.855-1.966.022-2.162-.074-.065-1.575-1.366-.397-.058-1.43-.21-2.586.26-.41.042.028-.168.237-1.41-.807-2.419.515-1.491.266-1.66-.049-.529-.12-1.291-.055-.593-.54-1.514-.026-.072-.01-.276-.055-1.47.855-2.318 1.098-1.076.665-.652 3.171-1.297.389-.117 1.023-.309 1.028-.31.227-.068.614-.3 2.393-1.166 1.258-.12.322-.03.011-.007.164-.09.974-.536.187-.102.682-1.739.27-2.074-.586-1.066-.15-.27-.466-.206-.822-.362-.448-.197-.403-.132-.631-.206-1.61-.526-.503-.164-.984-.324-1.635-.539-1.024-.337-1.12-.28-.574-.144-1.786-.448-.546-.137-.116-.03 1.598-1.976 1.68-1.81.759-1.155-.597-.813-.386-.526-.096-.4-.223-.932.595-1.405 1.01-1.402.5-.768.062-.095.03-.044-.645-1.999-.124-.256-.77-1.58-.065-1.826.024-.177.425-3.139 1.765-2.223.027-.014.203-.113 1.389-.769.885-.49 1.42-1.064.055-.203.362-1.341.187-.69.092-1.34.005-.07-.673-2.006-.053-.158.344-1.241.005-.5.01-.91-.118-.15-.866-1.104-.016-.262-.127-2.062.297-.136 1.12-.514 1.227-1.669.286-.39.52-2.316-.152-1.411-.2-.747-.2-.75-.99-.507-.235-.253-1.242-1.337.929-1.648.822.008.173.001.586-.738.995-1.255.181-.228.523-.63.785-.948.873-1.053 1.508-1.726.322-.316.848-.831.019-.019 1.405-1.378.376-.54.016-.023.868-1.248.057-1.185.046-.969-.351-1.15-.058-.189-.028-.092-.045-.148-1.398-1.09.003-.31.006-.599.01-1.08-1.55-.655-.028-.012-1.227-.519-.03-.033-2.1-2.39-.01-.72-.033-2.471-.005-.37-.102-1.428-.031-.432-.086-1.207-.33-.658-.895-1.778-.126-.25-.03-.06-1.663-2.576-.865-1.34-1.232-1.006.004-.405.001-.115.02-1.918.009-.956-.315-2.371-.07-.53-.427-.614-1.368-1.97-.558-.309-.808-.448-.609-.338-2.23-.353-2.534-.644-.52-.133-.204-.028-2.273-.318-.085-.011-.514-.157-2.868-.872-.984-.837-1.183-2.353-.374-.745-.02-.038-.872-1.737-.143-.285-.144-.276-.69-1.323-1.39-2.666-.146-.279-.568-1.089-.142-.273-.01-.061-.082-.459-.332-1.888-.043-.243-1.14-1.667-.042-.019-1.065-.48-.21-.094-1.077-1.673-.02-.031-1.06-1.647-.363-.563-.882-2.49zm-75.411-7.656l.016-.163.801-1.187 1.249-.644 1.03.263.729 1.043.61.71.61.63-.171.492-.834.485-.024.05-.316.648-.5.24-.546-.168-.153-.048-.028-.018-.504-.32-1.27-.761-.732-.92zM25.264 537.234l1.307-1.052.795-.316.386-.615.022-1.079.358-1.279.62-1.896.234-1.323-.397-.921.308-.865.36-.595.284-.47.46-.2.79-.066 1.182-.186.691-.108 2.176-.911 1.631-.673 1.288-.073.332-.019.908.226 1.964 1.407 1.657.075 2.803.967 2.164-.331 1.828-.13.433-.213.865-.426.89-.978 1.839-.67 1.005-.52.288.13.528.59 1.043 1.846 1.104.851.783.306.733.677.222 1.415.838 1.759.104 1.08.478 1.047.088 1.952-.332 2.194-.644 1.15-.333.035-.914.024-1.343.763-1.14 1.057-1.023 1.35-1.527 1.715-1.36 1.593-.39.864-1.182 1.016-.666.07-1.13.435-1.799.712-.997.022-.545.28-1.244-.066-.626.112-.746-.056-.958.147-.984-.6-.406-.507-.86-.598-.361-.63-.7-.263-.624.03-.902-.6-1.156-.314-2.146-.665-1.6-.904-1.303-1.313-1.013-.994-2.528-2.482-.206-.108-.616-.324-.747.027-.605-.885z"/></svg>