<svg height="1000" width="1000"><path class="americon" d="M188.113 637.967l.782-.388.801-.767.162-.284.78-1.724.355-.868.178-2.833-.053-.78-.106-.727-.367-1.53-.256-.52-.105-.46-.003-.295.102-.397.104-.184.26-.1.504-.194.501.133.217-.03.884-.825.624-1.04.198-.45.136-.472-.01-.423.204-.466.462-.778.391-.485 1.397.002.607-.207.877-.862.334-.576.551-1.266.193-1.567-.453-.689-.017-.304.242-.564.361-.368.437-.192.41-.286.809-.821.136-.304.013-1.357.589-2.807.296-.73.325-.63.643-.274 1.051-1.797.384-1.522-.142-.736.134-.993.473-.532.515-.382.473-.222.026-.012.217-.533.06-.357-.108-.304-.08-.226.037-.345.115-.26.083-.189-.026-.285.506-.547.21-.554.828-.384.213-.402.222-2.03-.142-.75.377-.407.79-.264.244-.457.068-.761.16-.206.209-.266.457-.161.134-.225.638-.2.231-.158.77.077.294-.144.234-.482.24-.162.741.144.69-.019.68-.35.548-.41.87-.723.499-.602.2-.168.402-.16 1.728-.305 1.202-.613.208-.127.298-.435.121-.361-.003-.15-.201-.484-.054-.314.021-.27.285-.803.309-.475.765-.782 1.532-2.705.458-.1.093-.131.026-.455.045-.076.13-.221.24-.811-.01-.19-.197-.315.057-.314.234-.184.328.086.237.016.209-.076.412-.318.425-.46.131-.39.22-.26.418-.108.628-.379.853-1.344.48-.903.217-.797.492-1.57.433-1.294.397-1.16.493-.709.153-.318-.287-1.267-.97-1.516-.373-.908.31-.89 1.12-.56.714-.774.333-.979-.394-.298-.415-.177-.404.223-.299.426-.258.786-.377.387-.395-.1-.436-.377-.109-.49.18-.743 1.106-2.066.15-.204.06-1.878-.082-.431-.178-.567.68-1.097 1.094-.553.49-.321 1.652-1.668 1.126-1.257 1.39-2.206.003-.278.007-1.232.097-.737.111-.292.782-1.288 1.972-1.064.213-1.046.414-.143.197-.254.145-1.099.256-.241.87-.425.276-.212.164-.285.093-.307.186-1.568.236-.403.11-.517.01-.273.034-.885 1.56-4.202.117-.583-.063-1.34.048-.297.653-2.719.796-1.987.489-1.206.435-.54.586-.364.537-.54.111-.196.202-.916.084-.775.005-1.227-.111-2.21.117-.963 2.098-3.916 2.707-4.89.768-1.344 2.117-1.889.547-1.948.476-2.084.673-.794.531-.458 1.168-.99.217-.133.662-.208.033-1.33-.326-.994.005-.15.603-1.967-.014-.429-.096-.144-.186-.173-.086-.25.109-.403.192-.212.203-.054.371-.267.475-.496.84-1.439.823-1.93.397-.93-.022-.22-.207-.175-.194-.062-.02-.161.082-.097.182-.252.353-.243.455-.14.331.08.341-.06.326-.207.296-.33.083-.24-.043-.318.1-.2 1.212-1.021.7-.314.101-.117.082-.36-.199-.28.041-.341.231-.367.41-.22.181-.279.297-.24.796-1.204.071-1.75-.146-.301-.425-.367-.27-.586.168-.37-.096-.238-.315-.319-.489-.078-.162-.2.003-.335.01-.092.046-.422-.067-.22-.084-.11-.298-.193-.033-.084.068-.453-.049-.283-.594-.817-1.608-2.015-1.059-1.035-.387-.53-.62-1.404-.071-.664-.066-2.464.31-2.588-.125-.415-.582-1.322-.241-.55-.221-.245-.415-.102-.545-.262-1.626-1.72-1.408-1.532-1.116-.374-2.51-.625-.36.167-.371.305-.636.172-1.244-.073-.526-.287-1.327-1.61-.579-1.734-.883-1.893-.08-.099-.948-.61-.31-.167-.344-.081-1.945.005-.403.215-.46.395-.554.363-.41.182-.427.104-.336-.07-1.758-1.252-.494-.901-.06-.21.03-.439.15-.46-.004-.546-.19-.759-.362-.844-.144-.336-.044-.073-1.545-2.556-.453-.474-.981-.775-1.234-.84-1.215-1.647-.22-.426-.577-1.327-.252-.93-.03-1.16-.28-1.017-.137-.693.107-.7-.08-.562-.4-.568-.59-.039-.372-.203-.295-1.312.204-.89-.675-.892-.983-.863-.39-.89-.104-.16-.121-.448-.154-1.841-.145-.646-.415-.3-.192-.437.002-1.183.076-.303-.16-.675-.364-.545-.29-.193-.356-1.288.113-.88-.51-.952-.776-1.042-.278-.133-.26.048-.63-.143-.81-.47-.253-.67-.022-.601.01-.263.078-.202.288-.37.179-.119.275-.127 1.356-.123.417-.409.422-1.18.07-1.03.093-.614.194-.317.519-.433.237-.412.46-.418.193-.426-.12-.479.167-1.574.366-.332.76-.494.152-.537-.04-.406-.176-.425-.327-.317-.55-.082-.537-.817.024-.315-.178-.429-.942-1.178-.215-.197-.728-.67-.245-.512-.044-.55.052-.26.68-1.36.35-.811.1-.653-.262-1.546-.454-1.489-.197-.496-.304-.591-.2-.282-.305-.38-1.01-.963-.325-.48-.015-.286.06-.253.608-1.229.043-.396-.167-.537-.272-.378-.668-.533-.932-.329-.79-.83-.372-.493-.135-.364-.044-.365-.008-.838.082-.34-.007-.773-.057-.166-.344-.386-.261-.222-.343-.15-1.01-.2-.57-.206-.158-.1-.225-.145-.295-.345-.056-.065-.064-.075-.157-.477-.004-.148.066-1.56.176-.32.023-.033.324-.441.432-.424.123-.12.098-.066.12-.082.253-.358.317-.99.018-.054.198-.618.037-.405.028-.103.093-.348.262-.984.054-.069.077-.098.048-.06.097-.293.127-1.107-.073-.288-.003-.01-.07-.28-.17-.236-.108-.149-.005-.007.056-1.24.12-2.617.016-.355.035-.769.038-.917.013-.295.424-9.349.478-10.542v-.005l.104-2.304.026-.561.35-7.721.012-.286.09-2.168.02-.5.057-1.341.022-.55.438-10.518.004-.076.046-.828.027-.474v-.028l.204-4.634.073-1.682.228-5.19.283-6.48.037-.83.474-10.854.24-5.487.006-.131.185-4.238.025-.556.039-.89.02-.473.1-2.287.156-3.603.124-2.846.13-2.952.08-1.962.106-2.52.309-6.805.22-4.863v-.002l.09-2.506.043-1.168.167-3.206.033-.806.039-.961.131-2.98v-.001l.164-3.766.087-1.924.209-5.894v-.008l.005-.13.023-.56.013-.71.1-3.353.01-.042.1-1.719.02-.345.025-.605.006-.14.026-.658.074-1.828.124-3.088.01-.23.29-7.222v-.006l.01-.24.01-.423.067-1.616.008-.204.004-.102v-.016l.017-.401.005-.113v-.006l.017-.4.008-.212.002-.048.09-2.11.05-1.111.026-.554v-.083l.007-1.083.013-.132.038-2.086.005-.048.03-.486.013-.215.108-1.599.26-5.785.034-1.331.021-.866.133-2.97.076-1.714.07-1.56.424-9.522.046-1.054.073-1.457.447-8.995.256-5.269v-.004l.254-5.191.356-5.468.063-.973.001-.02.008-.1.024-.334-.013-.118.015-.286.004-.072.001-.035.014-.382.004-.049.01-.132.005-.077.055-.769v-.001l.016-.218.02-.289.01-.126.107-1.488.395-6.832.845-14.614.002-.045.286-6.78.006-.054.035-.878.002-.039.045-1.067.227-5.34.117-2.774.442-9.065.252-5.167.08-1.65.057-1.018.21-3.52.013-.205.562-12.212.634-12.676.187-3.719.688-16.288 23.657.892-.003-.02 21.757.775 7.455.242 3.567.06.597-.063.854.027 26.66.793-1.29 50.015-.356 13.762-.045 1.746-.071 2.74-.185 5.385-.12 3.532-.262 13.655-.19 4.635-.027 1.762-.023 1.5-.097 1.624-.056 2.834-.236 12.031-.156 4.723-.003.098-.05 1.475-.027 1.397.029.866-.243 7.945-.051 2.984v.02l.036.05.873.75.678-.252.846 1.322 1.156 1.805-.004.444-.045.138.047.12.041.193.138.096.166.29.175.074.242.16.26.66.102 1.014.153.114.135.118.252.138.207.062.136.223.06.236-.012.48 1.21.26.333.553-.063.194-.052.233-.003.135-.06.251-.148.4-.003.164.117.161.635.059.42.494 1.3 1.53 1.756 3.448.033.25.001.247.367.046.094-.027.309.084.311.342v.194l-.066.22.06.145.476.434 1.192-.724.551-.11.536.86.366 1.11 1.628.957.567 1.736-.286.74.02 3.19.61.684.252.71.197.639-.053 1.204.306.691.626.495 1.859-.797.586.14.211.489.06.064.03.191.337.26.359.228.463.662.02.136-.332 1.73.622 1.27.39.327.743.028.432-.22.553.316.23.204 1.66 1.467.602 1.039.098.237-.137.367-.098.455-.006.16-.022.118-.11.204-.136.366.125 1.11-.033.233-.345.24-.066 1.023-.497 1.015.533 1.643 1.3.835.59.142 1.242 1.602.053.913-.355.555-.043.647.067.59.552.454.09.567.034.201-.8.523-.712.796.11.331-.205.518-.919.019-.401.084-.105.184.007.4-.048.167-.245.17-.252.022-.189-.041-.088.023-.309.234-1.13 1.582-.429.268-.14.087-.221.688.32.712.608.28.315.183.149.03.266-.125.131-.023.174.046.145.173.11.296.128.008.736.315.429.07.865-.185.442.216.219.378-.217.568-.645.23-.25.56-.009.442-.001.077.18.43.876 1.36h.005l.71.08.123.532.074.797.118.773.248.228.469-.049.627-.16.393-.195.346.295.168.35.147.493.399.191.62-.047.425-.138.786-.293.424.192.022.124.066.368-.067.555-.62.946-.543.827-1.012.494-1.588.07-1.275-.336-1.173.219-1.537.292-1.347.859-1.28.434-.407.165-.252.562-.138.768-.159.146-.416.835.014.012.244.211 1.152-.21.388-.304 1.594.228.05.451.344.123.432.646.497.01.548-.14.37.19.51.024.417.542.823.365-.1.875.789.096.59-.17.398.26.055.652.164.266.582.473.012.857.228.419.148.426 1.079-.241 1.321-.377 1.02.574.679.613v.27l.328.116.281.1.465-.006.14.225.523.23.228.227-.17.495.2.796.51.055.423.465.748-.18.499.462.115 1.513-.188.614.506.202.15.225.349.22-.094.336.098.495.704 1.17.363 1.286-.155.69 1.562.564.587.57.808.189.435.05.363.383.44.66.527-.34.504-.079.398-.383.653.539.166.372.02.432 1.216.083.626-.405.906.05.556.496-.123.63.44.32.534.691 3.506-.081.493.502.626.278 1.817-.264 1.4.696.229.06.087.227.126.172.01.247-.21.3-.17.243.022.551.449 1.294.467.489.42-.024.754.627.354.58.224 1.473-.357.554-.455 1.554.018.77 1.27.663 2.21.23.028.05.512.89.04 1.576 1.015 1.679 2.147.432.334.258 1.257.97 1.142.963 1.47 2.43.218.882.96.707.37-.193.465.103.436-.192.297.297.394.641-.217.428.068 1.125.25.839 1.406 2.281.018.023 1.218 1.612.401.243.414-.217.933.458-.07.675.488.213.239.622-.079.647.51.554.375-.12.013.542.118.948-.284.159.485 1.445.11.875.818 1.288.523.639.025.57.122.925.151.167 1.475-.257.243-.213.058-.333 2.46.519.03.56 1.292 2.087 1.496 1.918.427-.027.182.21.405.36-.041.12-.128.378 2.776 1.4.31.085.243.27.125.246-.046.343-.18.165-.273.182-.652 1.089-.164.582.511 2.038-.054.707-.653 1.033-.417.138-.384 1.15.637.44.526-.044.547.216.462.965-.105.134-.35.444.014.288.036.68.667 1.109 1.452.654.536-.06.1.328.242.479-.278.545-.094.496.14.3.08.417.162.3.368-.148.227-.745.692-.426 1.484-.268.27.254.115.93.29.45 1.099.981.809.43.616 1.15 1 .186.875-.158.783.827.91-.338.426-.21-.05.648.315.897.803.505.777.912-.071.926.064.778-.19.874-.605.936-.54.184-.83 2.184.144.37.418.38.045.195.288.038.375.104.55.125.019.096-.087.416.082.325.152.243.306-.09.31.122.754-.069.358-.211-.041-.235.066-.28.362-.625.19-.133-.02-.3.17-.157 1.161-.376 1.275-.069.283-.342.245-.774-.107-.449.288-.255.238-.165.3-.516-.09-.227-.013-.293.189-.324.215-.047.387.33.351.221.367-.103.236-.218.45.184.194.064.156.052.302-.11.35-.25.212.085.255.405.226.153.475.062.361.155.25.28.082.325-.063.28.08.19.062.249.17.046.284.077.093.089.062.162.483.625.572.348.534.73-.026.267-.185.432v.44l-.132.414.143.133-.014.438-.797 1.006-.902.625-.09.82.14.101.256.011.263-.08.12.003.091.16.007.227-.127.108-.329.201-.155.208.002.122.155.202.047.2.171.376.476-.003.828.168.35.287.27.099.28 1.008-.43.542.121.523 1.818.838.176.081.909-.051.248-.158.037-.134.251-.247.436-.521.199-.278.072-.011.595.332.16-.162.382-.268.368-.097.558.038.09-.067.397-.666.333.314.444.16.5.57.567.248 1.037.142.861-.29.12.145.174.348.408.158.382.326.293.159 1.772.147 1.157-1.243.089-1.108.38-.023.827-.508.294-.338 1.135-.659.697.333.544.088.154-.584.534.292.81-.7 1.002.32.59-.615 1.504-.28.305.13.378.576.827.222.65-.042.395.21.018.023.75.931.361.882-.203.539.24.587-.224.565.016 1.177-.438.896.465 1.032-.667.982-.032.552-.696.89-.545.435 1.291 1.67-.042.173-.064.264-.066.27-.71 1.055-.523 2.087-.302 1.96-.041.572.583.634.08.677-.335.769-.54.781-.65.38-1.526.468-.97-.333-.858.167-.465.137-.252.464.283 2.874.521 1.018 1.001.397.05.02.34.816.006.016-.069.367-.08.427-.154.913.309.377.452.223.269.08.213.348.126.336-.152.115-.206.122-.189.023-.465.084-.296.288-.21.533.062 1.004.018.963-.1.272-.28.262-.548.12-.55.552-.135.439-.715.154-.074.521-.496.389-.669.88.195.618.818 2.11.087.804-.194 2.363-.078.949-.422.865-1.226 2.515-.161.703.738 2.355-.158.573-.75.942-.543.378-1.104.387-1.09-.29-.503.779.14.879.36 1.128-.287.474 1.298.862.219.144.195.554.408 2.262-.579.707.312.889.485.72-.146 2.382-.093 1.507.177.653-.058.273-.25-.027-.331-.186-.52-.23-.678.521-.816.576-.528.18-1.017-.911-.38.003-.406.046-.203.114-.28.203-.313.136-.235-.225-.313-.225-.233-.053-.08.257.001.428.048.316-.047.294.001.293-.01.33-.22.153-.27.105-.31.277-.126.153-.133.28.118.284.302.731.169.239.219.135.076.335-.27.724-.07.358.224.251.748.363.595.337.281-.09.314.044.344.18.208.26.356.283.374-.08.39.085.536-.018.16.657.165.34.368.155.025.05.17.347.354.42.091.183.02.313-.025 1.717-.157.457-.222.093-.318-.09-.381.138-.126.458.034.595.286.228.286.228-.173.51-.503.266-.066.292-.515.396-.443.087-.793.318.02.206-.203.732-.265.456-.518.055-.247.38.083.58-.183.385.333.297.235.06.65.134.523-.007.295-.276.517-.042.116.457.276.776.212.606.032.477-.413.543-.54.147-.373.476.25.898.397.494.655.328.907-.773.573-.033.965 1.364 1.897.242 1.472 1.197.738 1.274.138.746-.226.752-.672.478-.376.601-.718.512-.374.602-.29.403.161.504 1.315 1.396.032.754.154.72.832 1.069.866.27.003.012.198.854.161.504.383.28-.097.917-.767 1.51-.402.002-.405.003-.135.503.003 1.055-.265 1.06-.374-.016-.89-.482-.77-.554-.64-.273-.67-.135-.33.498-.639.524-1.023.253-.358.244-.197.433-.427.185-.557-.428-.685-.183-.803.089-.982.693-.494.639-.237.645.392.963-1.555 1.286-.291.913-.042.553-.267.565-.374.48-.385.37-.051.863-1.012.7-.658.851-.343.816.697 1.135.558.305.6.307.13.676-.17.676v.877l.193.298.44.275.385.148.233.344.136.149.25.39.192.447.2.206.297.08.212.082.164-.072.209-.057.12.034.176.137.193.138.312.183.238.188.267.598.424.948.202.99-.196.863-.729.801-.517.305-.208.276-.13.164-.07.077.024.126.174.072.214.088.334-.012.257.011.248.057.156.135.11.255-.024.183-.128.07-.08.091-.056.15-.008.23.097.263.065.172.072.195-.016.184-.303.425-.256.345-.167.449-.017.194-.296.219-.369.287-.68.596-.71-.4-.573.23-.385.048-.122.244.14.28-.16.7-.336-.223-.703.087-.812.31-.245.335.034.781.884 1.658.85.352.549 1.13-.043.615-1.358 1.677-.4.832.212.878-.042.862-.242.874-.576.42.044.615h.388l.474.368.302-.43.268-.285.659-.392.629-.189.408-.286.262-.413.25-.095.434.306.351.049 1.08 1.199.771.503.636-.216.604-.615.17.094.891-.32.184-.25.58.61.898-.21.017.213-.283.184-.337.875.074.574-.221.218.161.391.538-.01.558.194 1.123.867.562.905.474 1.305.046.924.606.305.514.101 2.337.75 2.14 1.53.275.308.032.755.4.618.042.823.209.267.575.117.19.243.033.515.487.765 1.116.076.239-.136.374-.582.272-.204.529.003.357-.466.473.01.583-.312.196-.279.104-.384.527-.432.473-.019.161.08.198-.136.605-.044.799-.747-.061-.687.67-.26.242-.366.2-1.295.124-.85.57-.682.384-1.019.038-.435-.022-.383-.058-.387-.138-.213-.155-.245-.026-.164.061-.356.076-.326.177-.4.31-.08.273-.002.683-.05.638.044.812.422 1.054.537.436.487 1.024-.146.178-.217.41-.992.6-.8 2.378-.219.224-.076 1.618-.553.571-1.086.043-.473-.359-.473.082-.258.85-1.33 2.073-.302 1.288-.662.415-.782-.108-.947.119-.99.708-.5.168-.477-.04-.372.477-.869.459-.351.909-.335.697-.548.287-.674.835-.942.562.065.824-.078.346-.73.105-.57-.2-.919-.409-.704-.334-.107-.278-.292-.072-.327.135-.264.318-.265.408-.365.273-.134-.027-.36-.141-.392-.119-.36.065-.36.151-.25.213.082.185.161.322.095.342-.135.546-.268.384-.397.154-.592.272-.2.276.063.345.16.481.06.411-.07.14.031.135.03.04.094.01.234.005.425.038.295.082.336.44.313.466.004.919-.351.127-.051.541-.216.411-.104.25.112.123.408.019 1.262.376 1.389 1.025 1.783 1.534.973.287.388.504.539-.02.232-.29.213-.22.282-.08.445.072.558.116.208.068.232-.226.143-.209.212-.09.323.179.236.341-.075.295.113.311.136.346.275.331.116.533-.128.534-.333.599-.265.64-.2.356.303.293-.004.393.111.23.16.02.28.183.276.199.184.1.162.23.16.264.182.228-.026.308-.074.306-.239.325-.143.196.122 1.56 1.37.375 1.277.133.437.299.322.052.21.07.301.036.233-.195.096-.291.12-.26.145-.259.097-.382.543-.37.54-.376.523-.088.09.15.208.203.44.007.513-.108.444-.092.421-.156.492-.226.19-.19.376-.239.423-.09.561.184.3-.126.329-.27.564-.238.47-.019.343.156.121.458-.03.682-.29.59.108.516.166.587-.446.592-.05.922.005 1.14.07.555.124.249.172-.024.44-.333.356-.146.529.164.656.258.743.281.303.142 1.183.337 1.125-.364.534-.25.366-.583.14-.271.357.01.614.099.482-.517.491-.356.529.09.417.535.5.345.39.043.79-.147.442-.026.352.435.213.625.042.403.601-.026.308-.457.359-.583.229-.363.445-.086.44.164.613.221.348.586.006.54.005.992.494 1.551 1.375.13.292.077.689-.192 1.697-.3.576.122.417.44.253.234.723-.056.454-.282.323-.217.412-.404.483-.026.522.2 1.615.306.6.591.432.743.633.395.689.403 1.135.744.682.574.884.637.535.456.141.43.638.43.589-.062.497-.523.059-.348.055-.148.19-.126.162.076.721.7 1.54.6.59 1.254.384 1.508 1.535.27.863.683 1.628.353.422 1.89 1.673 1.724 1.217.516.68.326.59.11.622-.223.82-.094.598.12.793.271.712.436.526.047.038.571.45.509-.236.384-.008.268.008.15.427-.011.045-.071.29-.03.04-.539.752-.35.47-.075.317.211.497 1.565 1.862.377.198.79.068.798-.387 1.019.063.8-.107.578-.012.274.259.151.142.196.642-.379 1.007-.514.54-.313.384-.03.037.645.618.787.73.744.333.604.335.398.54.016.795.256.492.531.188.52.102.829-.16.527-.157.39.25.345.355.188.867v.89l-.153.463-.196.32.11.456.317.258.303.246.031.516-.03.489-.089.576.212.426.277.597.519.534.025.407-.13.342-.558.5-.135.347.053.573-.054 1.28.23 1.145.015.205.136 1.993-.477.87-.356.291-1.402.49-.703-.086-.585-.193-1.045.068-.254.191-.325.338.011.546.222.915.47 1.045.216.636.54.506.752.99.268.138.147.227-.056.23-.155.377-.114.405-.172.45-.02.352.235.26.236.208.444.18.25.225.29.282.03.459.071.458.142.343.26.367.14.83.151.4.229.225.296.114.39.186.224.074.147.426.228.307.418.108.356-.125.311.306.237.697.233.533.106.225-.005.184.044.15.002.211-.001.094.064.025.075-.033.126-.047.1-.083.222-.11.44-.126.445.068.724.218.556.105.303-.085.623.022.664.33 2.074 1.994 1.019 2.579-.052.233-.765.483-.01.29.092.213.164.263.846.618.198.026.497-.145 3.07-1.625.255-.238.435-.603 1.744-1.31 2.967-1.464.841 1.173 2.816.617 1.493.9 1.085 1.136.41.86 1.528 1.075.531-.275 1.708.517.897.5.036 1.097-.591.644.304.99.435.373.56.08.358.343.43 1.143-.067.656.114.176.43-.147.977.508.172 2.77.34 1.499 1.769 1.179-.224.72 1.447.461-.291 1.046.08.54.248 1.55.209.68.08.263.665.777.744.87.237 1.022-.372 1.124-.2.346-.415.088-.536.114-.525.286-.31.284-.367.834-.5.706-.303.312.133.374.323.197.57.293.624.429.503.466.087.478.063.514.295.255.707.574 1.02.555.603.566.087.479-.162.313-.359.286-.238.213-.107.552-.08.586.26.542.749.494.421.22.644.196.322.128.28.37.6.428.671.324.138.511.058.387-.282.341-.265.146-.282.386-.105.621-.128.623-.599.498-.256.474.062.426.704 1.538.416.287.791 1.133-.164 1.011.569 1.82.966.554.763.822.46.81 1.74 1.375.45-.071.634-.013-.028.462.242.547.436.12.532.331.417.062.408-.059.22-.055.302.26.777.214.137.478.283.446.463.092.95.41.445-.34.302-.483.28-.089.208.181.36.215.04.22-.146.631.186.287.009.304.288 1.512 2.653 2.685 1.033.205 2.313-1.809.57-.843.103-.154-.003-1.93-.97-2.031-1.442-2.024.673-2.72 2.836-3.31 1.521-2.607 1.07.048.572-.549.844-.113.614-.354.366.433.329-.058.618-1.499 1.524-.758 1.1.141 1.071.437.38-.125.551.25.077.409.083.299.49.11.956.092.672.63.37.082.157-.026.158-.16.785-.176.549-.285.28-.103.758-.092.335.282.084.543.025.273.409-.051.294-.279.167-.25 1.676-.599 1.761 1.247 1.038.013 2.205-.62.835.099 2.284 1.026.691.703.052.54 1.124.417.613-.498.92-1.004.513-.611.492-.296.657.25.613.287.609.525.289.526.446.239 1.006.563.366.523.432.252 1.12.17.788-.462.696.133.48.464.513.355.482.184.431-.382.644-1.162.624-1.125.445-1.763.401-.875.187-.94-.426-4.842.417-.94.507-.437 2.862-.177.39-.396-.051-1.106.187-.483.305-.364.18-.216.308-.211.598-.002.08-.238.424-.157.159-.568.443-.381.848.235.496.02.596.017.623-.357.093-.172.155-.25.27.194.282.273.401-.135.436.045.222.18.64.227.357.033.148.056-.11.174-.069.376.068.223.317.128.045.28-.184.288-.037.503.789.778 3.717 1.257.41-.012 1.409-1.24 2.733.115.737.457.433 1.038 1.824.963.502-.025.495-.345.247-.935 2.306-1.074 1.52.203.776.218.632.188.322.234.407.137.141-.288-.202-.52-.226-.414-.118-.672.199-.546.538.086.702.278.365.2.399-.018.217-.104.232.207.286.391.565.191.394.115.534-.222.8-.007.378.012.433-.239.267-.233.143-.473.268-.418.298-.264.305-.14.51.007.196-.213.139-.677.162-.251.484-.155 3.804-.12.414-.215.362-.15.057-.43.261-.256.184-.084.2.22.454.149.22.161.998-.478.116-.177.316.322-.097.45.22.202.094.681.107.21.632.28.097.174.019.255.45.4.264.382.33 1.018.418.818.557.479.549.361.209.627.381.547.458.16.631-.11.666-.289.104-.624-.058-.47.073-.535.495-.202.45-.094.592.217.63-.033.413-.193.379-.592.556.006.484.08.206-.252.256-.547 1.166-1.014.874-.358 1.639-.208.458.03.305-.39.076-.464.251-.557.12-.525.215-.383.312-.141.474.364.557.04.503-.451.255-.014.341.3.542.219.635.08.592.207.557.055.42-.179.374-.091.516.106.503.104.758.156.614-.037.52.116.246.054.743-.253.535-.364.862-1.04.57-.215 2.276.912 1.549-.345.274.382.769.444 1.211.232.604.538.329.956.714.095.662-.588.101-.275.42.13.5-.026.437-.13.569-.098.782.133.389.223.025-.205.373-.141-.435-.4-.012-.435-.187-.578.062-.476-.118-.27-.551.13-.091.331-.228.155-.205-.304-1.145-.627-.708.026-.145-.082-.652-.088-.168-.085-.106-.388.148-.29.246-.128.263-.033.166-.286-.192-.385-.605-.414-.982-.748-.182-.874-.332-.457-.13-.306-.057-.308.188-.31.31-.331-.309-.107-.353-.196.371-1.106.61-1.166.695-.65.202-.267-.053-.465-.538-.438-.614-.433-.127-.425.039-.363.307-.306.706-.22.61-.144.512.044.39-.38.46-.894.824-.805.206-.486.04-.19-.079-.16-.256-.097-.064-.14-.055-.525.068-.03.11.026.058-.082.242-.101.11-.325.157-.198-.02-.08-.17-.073-.14.002-.195-.191-.214.035-.133-.025-.054-.111-.083-.194-.189-.116-.435-.354-.612-1.683.05-.645.298-.385.576-.176.69-.21 1.088-.556 1.214-.766.876-.302.887.002.567.799.482.35.502.038.325-.414.514-.789.5-.681.095-.904-.094-.699.258-.531-.035-.595-.13-.563.458-.733.895-.189.47.348.227.17.881 1.042.193.643.936 1.277.704.01.67-.323.444-.397.545.076.407.356.344.516.275.777.698.691.852.682.684.447.458.543.004.38-.038.328-.036.355.079.349.333.387.351.091.577.233.441.271.25.634.165.455.305.316.354.348.286.256-.039.301-.24.178-.205.121-.129.24-.134.173-.101.314-.15.175-.13.073-.163.025-.003.139.086.133.147.299.167.206.148.082.26.123.328-.005.218-.168.379-.177.748-.327.219.072.11.252.116.427.131.245.186.097.284.018.185.08.26.293.362.39.465.442.414.504.315.446.285.314.26.176.001.217-.134.117-.246.196-.264.119-.552.204-.731.37-.057.221.118.228.306.162.228.565.216.782.235.872.01.56.173.515.048.362.112.337.148.223.158.138.238.101.335-.01.544.056.817.076.503-.186 1.183.556.71.334.239.362-.016.605.128.746.389.617.95.429.712.07.734.82.328.507.44.16.432.01.52.156.156.33-.117.687-.2.654-.047.531.194.577.69 1.692.9.796 2.613.882.014.005 3.326 1.121 1.35.184.3 4.888.017.305.55 8.263.137 2.895 2.034 30.068.069 1.013.155 1.37.448 7.067.007.282.004.06.33 5.493.35 2.733.176 2.24.09 1.155.64 9.073.813 12.622.07 1.028.236 3.406.532 7.693-.006.056.005.067.037.546.34 4.67.024.277.001.125.059.527.016.225.2 2.768.71 10.39.372 5.43.395 5.774 1.74 25.383 1.084 15.79.047.68.064.868.037.66.062.988.005.016.005.083.022.333.936 13.963.036.57.02.28.056.806.054.753.08 1.17.015.228.036.443.1 1.67.033.392.014.215.003.036v.271l.029.352.015.185.158 2.272.188 2.69.073 1.034.047.768.013.2.033.491.098 1.508.702 10.806.168 2.417 1.284 18.547.485 9.045.063 1.172.487 9.086.568 9.61.066 1.129.939 14.378.463 7.106v.004l.634 9.491.79 11.904.116 1.675.307 4.668.06.896 1.346 19.531-26.105 1.76-11.95.763-.52.025-.478.022-4.72.433-3.698.247-.055.003h-.001l-23.922 1.364-1.142.062-4.932.305-1.469.09-.033.001-2.443.149-4.09.246-2.023.105-2.014.105-.023-.002-1.832.096-1.691.089-2.505.13-3.914.201-1.512.09-8.53.494h-.002l-5.612.384-.08.005-.89.059-2.054-.547-3.496.152-.987.043-.28.012-.222.012-2.442.137-10.31.428-2.207.089-5.628.235-1.021.043-.025.02-20.36.876-4.029.146-2.308.083-8.173.372-4.6.207-.004-.005-4.904.22-.18.006-2.811.108-7.191.298h-.021l-2.21.074-25.65.994-.171.087-9.219.347-1.81.167-4.02.038-.592.026-3.03.118-6.714.213-.442.08-15.334.559-11.913.405h-.02l-3.241.1-2.695.128-7.35.162-10.411-.515-4.945-.087-.674.007-.002-.013-1.397.017.001-.02-4.703.061-.017-.018-18.031.106-19.2-.092-3.17.127-.001.005-10.338.025-5.46-.225-1.886-.079-.57-.024-4.741-.201-.048-.003-8.806-.521-2.552-.064-4.63.103-2.413.184-1.548-.009-6.048.233-6.11.228-.67-.006-21.969-.239-.365-.083-6.155.01-26.467-.513-1.744-.039-4.036-.148-8.804-.143-2.286-.039-14.154-.264-.97-.18-.827-.041-10.255-.322-2.62.002v-.002l-.696.027-.002-.006-1.22.02v-.001l-.807-.024-.003-.006-12.629-.358-.32-.016-17.442-.496-3.694.02-1.002-.037-8.815-.332-2.02-.117-.282-.007-1.441-.034-.2-.09-.901.002-1.534-.119-5.875-.252-.49.047-4.028-.152-.083-.055-24.315-1.088-11.032-.53-4.145-.063-.926-.213-.812-.111.748-16.348.047-2.168.248-4.596 1.199-26.437.09-2.96.321-7.182.753-16.837.448-10.037 1.164-25.131.004-.021.006-.038 1.302-29.95.005-.034 1.783-39.873.647-14.473.764-17.119.116-2.6.055-1.23.023-.523.004-.157.077-2.049.018-.328.033-.592.016-.213.05-1.198.029-.952.014-.468.033-.526.062-.927.204-4.477.063-1.524.042-.73.016-.292.055-1.47.064-1.703.062-1.179.1-2.474.024-.14.274-6.101.181-4.037.283-.56.106-.207.113-.472.068-.281-.173-.611-.414-.358-.465-.532.124-.56.259-.66.448-.291.659.028.547.208.391-.3.152-.53-.274-.493-.498-.255-.35-.105-.307-.326.084-.273.105-.344.492-.201.543-.205.207-.049.96-.224.48.09.268.05.336-.2.397-.17.125-.12.065-.151.027-.326-.125-.738.002-.05.016-.423.005-.11.16-.32.16-.324.517-1.206.006-.016-.024-.325v-.442l.032-.126-.062-.62-.112-.203-.128-.23-.025-.073-.146-.425.247-.368.717-.133.964-.099.414-.77-.033-.616-.045-.4-.165-.3-.562-.298-.114-.308.002-.102.006-.296.092-.264.4-.312.223-.51.07-.552.148-.324-.075-.2-.357-.056-.65-.119-.066-.193.19-.184 1.073-.507.074-.345-.233-.257-.45-.118-.23.055-.222.005-.056-.25-.208-.293-.164-.13-.054-.225.283-.311.463-.034.904-.705 1.686-.08.451-.055.27-.3-.002-.548-.595-1.196-.065-.31-.043-.207.219-.5.03-.069.575-.689.19-1.166-.09-.434-.009-.041-.12-.579-.013-.067-.554-.88-.683-.583-.485-.414-.004-.004-.048-.041-1.515-.847-.044-.025-.063-.092-.056-.581-.023-.724-.1-3.129-.015-.483.321-.386.706-.33 1.003-.067 1.372-.257.028-.02.26-.18.022-.015.225-.155.037-.036.385-.369.571-.97.073-.286-.153-.44.044-.183.365-.662.675-.564.266-.287.223-.242.053-.145.077-.618.238-.954.798-.57.146-.2.033-.366.097-.198.301-.33.202-.22.18-.515.035-.282-.057-.856-.043-.66-.393-.778-.243-.367-1.247-.556-.78-.754-.114-.429-.968-.371-.377.01-.121.003-.473.257-.23.046-.187-.05-1.545-.415-.17-.07-.415-.382-.134-1.474.139-.701.257-.575.008-.508-.321-.656.018-.53.16-.404.054-.284.02-.1-.071-.326-.059-.267-.213-.4-.569-.219-.484-.186-1.379-.048-.261-.012-.421-.019-.746-.033-.124-.006-.319-.105-.477-.355-.22-.06-.421.014-.4.232-.652.52-.38 1.452-.165.301-.034.013-.264.098-.289-.046-.328-.26-.238-.88-.732-.956-.65-.53-.392-.318-1.036-1.186-.126-.29-.201-1.246-.087-.221-.358-.637-.34-.461-.185-.164-.332-.128-.385-.005-.634.206-.303.171-1.013 1.062-.173.32-.074.38-.094.168-.465.47-.482.128-1.336.043-1.286-.252-2.142-1.748-.47-.413-.039-.045-1.7-2.019-.492-1.28.028-.188.247-.318.255-.778.109-.139.16-.112.962-.318.22-.158 1.183-2.071.07-.132.201-.724.018-.214-.557-1.36-.11-.147-.884-1.105-.336-.356-.599-.364-1.02-1.114-.66-.832-.655-2.365z"/></svg>