<svg height="1000" width="1000"><path class="americon" d="M31.194 285.342l.59-4.602.28-2.342.178-1.493 1.405-11.766 5.1-42.755 3.547.38.755.13 1.117.133 34.908 3.983 6.187.717.34.039 10.672 1.213 4.37.488 1.154.114 1.591.157 8.465.825 24.25 2.26 3.603.324.281.032 14.648 1.289 7.376.629 9.222.855 1.912.302 1.753.198 1.547.08 8.265.777.663.061 11.205.904 3.198.318 12.64 1.045 6.2.393 2.443.152 14.8 1.045 1.405.135 8.573.527 3.422.206 5.793.428.46.02.24.021.273.014.374.028.201.009.25.015.31.018.17.008 5.514.342.084.008 47.724 2.676 12.707.616 3.676.17 10.359.508.223-.03 2.006.106 1.03.053 7.832.4v.003l6.843.324.005-.004 19.32.792 17.115.525 14.883.398 4.828.117 1.03.018 7.604.13.056-.004 10.648.184 9.78.144 1.385.019 4.51.148h.046l4.67.014 2.214.005 16.46.206.046.005 3.256.026 13.048.066 12.522.034 24.17-.046.83-.02 2.633-.068 1.233.052 3.903.01.051.003 7.273-.052 2.614.035 5.82-.029 4.45-.028 3.828-.028.021.005 4.418-.006.444-.006 12.703-.176 11.404-.192 9.366-.183 4.087-.083 18.653-.458 19.46-.57 4.179-.134.817-.027.812-.027.821-.027 13.31-.466 19.535-.688 5.732-.31 3.622-.152 9.989-.433 25.778-1.235 13.346-.704 1.906-.104.597-.027 7.35-.415 1.303-.097.002.035 1.553-.083 7.524-.473.242-.016.48-.016 6.946-.404 2.076-.124.225-.027.678-.048 9.019-.562 4.55-.292 6.235-.446 9.758-.704 4.316-.299 9.28-.652 2.783-.236.373-.019 2.137-.166 4.137-.303 8.176-.63.301-.013 1.222-.095.288-.012 2.334-.182 5.788-.474.91-.079 15.328-1.24 13.445-1.137 16.83-1.561 7.65-.738 5.272-.506 5.413-.528 6.915-.685 18.876-1.932.17 1.444.225 2.277.04.333.037.538.034.21.057.595.013.248.08.71.04.333.07.753.256 2.418.061.59.057.477.09.881.17 1.67.035.471.021.195.08.726.034.202.195 2.065.483 4.464.13 1.193.1.956.29 2.576.144 1.609.065.473.316 2.941.53 4.933.086.792.072.667.014.115.05.485.016.159.086.849.02.143.185 1.605.004.043.08.785.018.154.032.524.006.093.226 2.383.02.162.085.676.103.957.247 2.29.185 1.767.087.83.002.013.105.915-.005.047-.004.032.084.548.083.91.18 2.013.106.66.33 3.049.087.793.089.801.002.047.07.595.023.15.301 2.802.105 1.13.251 2.299.02.14v.014l.001.001.095.816.016.14.079.681.028.068.012.113.243 2.316.123 1.167.255 2.396.086.814.027.254.147 1.383.175 1.637.262 2.46.075.713.017.094.016.092.122 1.006.012.18.04.359.519 4.889.05.478.028.162.185 1.834.147 1.34.298 2.724.037.332.053.487.27 2.469 1.07 9.772.354 3.245.036.37.27 2.413.234 1.924.07.558.776 6.621.38 3.224.004.03.044.446.111 1.142.031.32.042.427.343 3.799.02.141.003.022.022.162.028.238.453 4.784.148 1.57v.022l.808 7.95.602 5.912.113 1.45.133 1.026.15 1.456.781 7.594.725 7.305.236 2.383.467 4.665.005.044.278 2.508.34 3.597.139 1.308.022.208.649 6.052.033.347.036.287.056.517.009.104.02.237.547 5.496.779 7.049.332 3.005.392 3.95.143 1.325.006.302.148 1.359.035.315.079.73.049.44.164 1.457.037.374.67 6.599.447 4.408.089.825v.014l.174 1.694.006.052 1.03 10.04.338 3.124.967 8.925.04.371.012.097.074.854.07.588.825 7.697v.006l.147 1.376 1.079 10.14.38 3.57 1.437 14.449.255 1.952.304 2.867.209 1.993.541 5.094.907 8.538.989 9.303-.029.126.055.556 1.363 13.698.778 6.312.885 7.288.124 1.154.059.412 1.542 13.648 2.403 22.187.112.833.03.292.102 1.008.004.039.485 4.13.03.392.074 1.07.315 2.423.106.818.883 8.012.26 2.228.343 3.344.108 1.091 1.533 14.265 1.096 10.2.046.106.392 3.821-.02.048 1.13 10.387.083.32-.841.196-.671.093-15.831 1.556-18.096 1.787-.025.002-15.925 1.484-.103.04-5.047.367-2.752.31-.43.025-20.861 1.732-.085.02-.492.048-1.07.087-.013.001-3.146.273-9.912.846-14.372 1.186-34.15 2.626-5.164.373-5.054.3-.339.02-.064.117-1.097.82-7.975.55-19.71 1.293h-.012l-25.03 1.41-.346.018-26.265 1.322-.34.01-.72.035-7.106.332-.17.008-1.284.058-3.773.17-2.003.03-.82.088-1.726-.167-1.652.002-.71-.05-13.541.505-4.423.157-11.624.479-6.301.293-3.268.15-.085.01-10.618.404-1.106.04-7.798.237-3.108.09-2.399.068-7.1.194-.272.048-12.3.383-5.714.218-1.625.082-.925.112h-.007l-1.803-.046-18.983.515-5.4.008-1.04.032-3.543.079-5.108.108h-.066l-13.39.255-8.65.142-8.898.129-.373.005h-.024l-1.693.02-1.698-.72-7.55.107-5.687.072-.485.01-8.805.13-.887-.027-15.547.309-7.394.013-7.204.099-3.952-.079h-.017l-4.687-.111-1.688-.041-7.139-.03-2.734-.015-.534-.014-1.99-.054-.066-.008-6.93-.085-7.407.83-7.221-.161-3.114-.31-1.464-.007-1.7-.204-3.34.747-7.049.06-4.89-.093-.437.019-12.648-.25-3.75-.736-.888-.25-1.933-.396-21.452-.333-.065-.002-.838-.02-.002.042-.288 7.611.04.274-.316 7.833-.33 13.68-.003 2.886-.172 6.932-.121 4.852.044 17.737-1.148-.267-2.775-1.232-.012-.005-2.181-.97-.71-.757-.46-1.513-.121-.512.082-.454.225-.548.156-.582-.107-.296-.437-.176-.37-.043-.367-.174-.242-.463-.566-.765-.609-.117-.784-.446-.285-.562-.05-.653.061-.52-.176-.33-.585-.345-.975-.574-.447.12-.698-.13-.465-.092-.288-.018-.198-.107-.125-.131-.11-.204-.069-.3-.012-.315-.109-.457.037-.483-.132-.77-.124-.691-.151-.505-.251-.164-.083-.206.067-.186.659-.26.492-.132.237-.08.227-.15.125-.09.017-.187-.21-.172-.221-.294-.235-.409-.317-.467-.365-.417-.281-.366-.2-.274-.153-.083-.243-.038-.153-.099-.093-.221-.066-.377-.074-.226-.183-.079-.67.221-.341.123-.201.127-.284-.022-.213-.127-.121-.082-.128-.191-.102-.27-.063-.12.013-.12.142-.009.119-.052.142-.14.112-.262.13-.138.13-.196.186-.088.222-.134.058-.256-.227-.243-.277-.328-.237-.297-.106-.405-.164-.566-.359-.27-.478-.245-.295-.107-.256-.36-.04-.307.06-.303.058-.28.027-.327-.35-.504-.554-.44-.68-.655-.545-.651-.175-.692-.255-.472-.322-.338-.463-.11-.415.307-.602.224-.605-.064-.705-1.175-.114-.57-.675-.968-.183-.164-.376-.337-.786.091-.453.595.067.495-.018.515-.264.437.025.61-.155.77-.485.547-.506.638-.313.33-.428-.072-.387-.34-.425-.734-.764-.073-.778.19-1.108.563-.981.392-.61.125-.511.105-.288.308-.094.552.393 1.498.346.34.153.115.056.174.038.1.112.032.187-.014.154.18.12.01.14.077.01.07-.15.158-.12.27-.217.07-.057.065-.093-.032-.06.021.005.457.044.125.213.104.055.144-.05.16-.216.403-.775.627-.467.733-.367.296-.436-.079-.538.075-.625.134-.29.238-.062.31.075.376.495.422.428.42.008.405-.195.213-.65.505-.62.955-.408.923.289.197.257.117-.293.26-.188.252.025.27.088.274.25.42.085.767.786.724.488.404.135.348-.166.232-.23.008-.221.09-.151.238.06.343.138.086.554.129.118.081.613.035.936.632.152.278.208-.115.105-.278.485-.068.08.242-.091.406.115.512-.025.375.343.38-.333.091-.038.175-.317-.223-.663-.177-.498.039-.387.076-.433-.017-.35-.146-.11.229-.617.453-.607-.139-.207-.85-.477-.511-1.025-.297-.626-.444-.206-.351-1.361.172-1.887-.967-.509.139-.825.826-.49.27-.66.16-.207-.067-.44-.142-.531-.017-.64-.195-.425-.13-.436-.133-.329.049-.376.12-.476-.092-.493-.225-.54-.12-.45-.233-.27-.286-.22-.008-.469.349-.477-.08-.378-.352-.28.097-.216.312-.146.443-.26.46-.104.394-.294.31-.392-.062-1.428.047-.781.238-1.085.78-.265.451-.198.2-.41-.108-.479-.05-.374.48-.371.133-.545-.023-.492-.234-.395.045-.442.135-.106.455.012.409-.14.529-.596.195-.553.043-.381-.173-.285-.502-.13-.557-.443-.355-.441-.458-.295-.737-.202-.903-.197-.351-.355-.38.004-.221-.07-.158-.521-.291-.076-.19-.025-.594-.174-.192.12-.38-.246-.302-.114.143-.899.331-.176-.156-.38-.164-.153-.206-.165.057-.246.2-.083.366-.324.1-.374.152-3.285-.203-.43.095-.16.203-.173.572-.185.167-.44-.047-.273.096-.278.203-.265.34-.161.395-.249.179-.392.171-.324-.041-.69-.058-.477.148-.33-.13-.471-.21-.215-.36-.183-.197-.195.072-.346-.016-.298-.202-.582-.296-.456-.118-.215.455.048.588.16.374.133.465-.145.236-.34-.15-.258-.228-.528-.213-.652-.25-1.292-.297-2.072.74-.288.785-.454.257-.434-.019-1.493-.976-.29-.928-.597-.453-2.344-.32-1.313.954-.354-.022-3.1-1.381-.615-.734.071-.43.182-.233-.016-.245-.263-.135-.04-.198.089-.318.11-.14-.124-.06-.304-.058-.533-.247-.177-.173-.371-.074-.357.084-.22-.258-.217-.188-.154.203-.094.14-.565.257-.512-.062-.425-.058-.71-.27-.413.292-.183.476-.378.101-.088.199-.514-.047-.283.157-.172.172-.292.289-.2.4-.046.956-.367.31-2.478-.078-.472.335-.435.776-.023 4.203-.237.794-.416.721-.525 1.482-.628.918-.648.949-.402.294-.4-.197-.414-.347-.375-.439-.589-.17-.715.334-.95-.237-.352-.251-.273-.48-.82-.566-.366-.242-.206-.476-.482-.501-.505-.296-.545-.27-.447.216-.491.485-.873.79-.568.38-.934-.451-.001-.468-.539-.661-1.883-1.068-.711-.152-1.949.355-.892-.095-1.415-1.216-1.492.38-.164.202-.275.217-.356.01v-.236l-.028-.475-.266-.27-.66.019-.25.066-.494.201-.69.088-.15.125-.136.01-.313-.1-.527-.598-.815-.156-.414-.134-.047-.264-.033-.359-.455-.26-.336.078-.887-.463-.936-.21-1.373.53-.653 1.24-.288.023-.28-.403-.557.256-.736.029-.536.426-.917-.127-1.52 2.12-2.71 2.62-.799 2.287 1.077 1.86.672 1.827-.154 1.661-.102.124-.558.68-2.138 1.37-.872-.26-2.067-2.526-.125-1.325.017-.263-.137-.261.177-.533-.017-.192-.292-.213-.164-.173-.25.053-.299.391-.41.258-.784-.43-.392-.117-.207-.407-.08-.422-.65-.247-.24-.249-.194.03-.356.018-.354-.087-.43-.328-.366-.14-.164-.49.061-.395-.546-.04-.393.025-1.387-1.325-.33-.734-.59-.77-.788-.554-.342-1.613.223-.857-.588-1.04-.335-.28-.482-1.38-.019-.372.26-.387.554-.38.161-.526.14-.526.275-.31.24-.104.27-.27-.019-.338-.077-.451-.551-.333-.482-.418-.211-.34-.267-.137-.538-.22-.345-.224-.605-.485-.18-.488.117-.498.136-.467.223-.164.332-.216.165-.257-.037-.419-.473-.536-.833-.56-.562-.552-.233-.243-.013-.447-.036-.419-.395-.442-.502-.419-.467-.298-.263-.196-.083-.332.285-.245.487-.567.384-.688.29-.219.475-.203.47-.055.365-.043.2-.281.411-.938-.122-.898-.57-.809-.509-.722-.048-.233-.125-.602-.088-1.355-.025-.47.335-.877-1.208-.513.251-.602-1.426-1.158-.172-1.316.076-2.399-.8-.516-.381.092-.085-.16.112-.56-.279-1.018-.28-.325-.475-.113-.344-.357-.182-.875.56-.507.058-.948-.731-.502-1.428-.583-.48.194-1.227-1.048-.283-.774-.842-1.065-1.212-.895-2.373-.758-.629-1.077-2.671 1.019-1.606.986-.424.484-.239.184-2.772 1.15-.44.085-.167-.039-.678-.6-.12-.24-.062-.19.032-.249.698-.353.063-.197-.668-2.301-1.623-1.884-.545-.338-.534-.068-.268.048-.47-.135-.605-.246-.377-.095-.389.074-.2.076-.093.063-.112.03-.067.023-.053-.027.008-.081.016-.18-.026-.134.02-.158-.074-.203-.157-.476-.147-.62-.243-.288-.317.079-.35-.127-.171-.283-.093-.378-.186-.081-.321-.192-.245-.122-.179-.212-.098-.356-.053-.726-.194-.337-.094-.306-.024-.4.011-.398-.227-.265-.197-.214-.367-.19-.186-.199-.181-.243.046-.3.184-.374.13-.339.164-.311.068-.195-.109-.207-.219-.14-.567-.913-.424-.479-.135-.564-.318-.937-.117-.805.034-.47.307-.265.234-.143.904.026.488.213.598.13 1.245-.308.33-.221.481-.71.044-1.726.004-.177-.106-1.004.15-1.096v-.497l.145-.288.52-.385.14-.283.011-.353-.403-.501-.19-.536-.147-.384.123-.488.065-.418.015-.446-.24-.236-.252-.247-.059-.402.195-.26.168-.385.073-.765-.092-.762-.268-.333-.315-.247-.466.093-.726.071-.44-.13-.44-.205-.181-.444.05-.685-.298-.496-.492-.338-.614-.346-.618-.691-.505-.584.03-.03.3-.304.485-.423.407-.836-.116-.568-.119-.135-.215-.244-.497-.037-.697.028-.871-.136-.719.268-.673-.122-.309-.201-1.195-1.728-.141-.445.09-.267.34-.376.524-.603.028-.032.085-.243.013-.038-.094-.38-.23-.028-.331-.025-.457.163-.455-.434-.038-.036-.332-.488-.175-.634-.04-.691.13-.507.257-.687-.043-.545-.233-.534-.39-.626-1.384-1.185-1.49-1.592-.27-.391-.456-1.455-.161-.765-1.173-1.442-1.048-.431-.468-.556-.478-1.38-.006-.626.121-.13.142-.15.304-.02.455-.009.093-.423-.322-.54-.318-.583-.38-.159-.506-.512-.421-.806-.585-.647-.255-1.008-.284-.624-.588-.604-.473-.42-.215-.54-.041-1.405.064-.447.387-.383.22-.337.268-.254.085-.387-.144-.64-.357-.253-.07-.368.303-.472.302-1.443-.01-.6-.088-.26-1.223-1.308-.812-.505-.464-.048-.504-.052-.162-.317-.091-.54.11-.372.347-.353.52-.15.422-.272.047-.262-.298-.55-.534-.086-.357-.219.05-.3.163-.368.027-.683-.265-.363-.42-.473-.044-.366.35-.426.483-.38-.047-.423.042-.529.262-.284.513-.074.244-.295.356-.429-.2-.994-.025-1.03-.218-.283-.162-.659-.088-.577.168-.443.315-.28.056-.376-.2-.168-.468-.15-.973-.153-.793-.079-.512-.005-.542.337-.43-.185-.498-.14-.61.194-.395-.011-.125-.117.044-.294.243-.385.277-.462.135-.272-.134-.274.123-.475.24-.344.193-.308.21-.145.174-.41.113-.355.128-.373.035-.442-.138-.394-.112-.191.082-.07.366-.42.361-.434.373-.436.23-.063.235-.102.26-.08.175-.068-.012-.203-.036-.265-.028-.184-.23-.3-.08-.388-.219-1.127-1.23-1.304-.16-.121-.29.097-.282.18-.271.04-.199.004-.211-.178-.185-.156-.073-.148-.156-.173-.135-.253.005-.242-.185-.156-.329-.127-.252-.02-.282-.29-.566.12-.537.18-.485.243-.468.067-.275-.126-.276-.265-.256-.142-.245-.12-.3.036-.133-.217.103-.27.197-.166.206-.104-.04-.205-.084-.189-.017-.485.106-.376.21-.224.267-.16.036-.199-.39-.503-.215-.357-1.24-.96-.737-1.615-.211-1.225.085-1.086-.072-.36-.206-.117-.362.056-.482.142-.114.034-.818.227-.4-.04-.353-.305-.044-.295-.008-.257.03-.366.01-.202-.027-.083-.113-.037-.118-.04-.36.028-.408-.09-.284-.165-.231-.076-.25.15-.18.495-.363.311-.491.187-.305.088-.269-.107-.145-.154-.177-.088-.15.202-.085.306.073.318.09.348-.006.312-.246.093-.38.28-.295.203-.137.216.036.287.215.273.279.12.294.638.098.805-.137.482-.356.6h-.714l-.478-.101-.794.742-.3.556-.645.415-.808.214-.423.265-.48.709.005.322-.183.397-.65.373-.181.84.016.824-.42.638-1.16.466-1.806.091-.84 1.075-.09.215.27.436-.075.403-.579.888-1.435.343-.2.048-2.06-.003-.58.638-.434.82-.17.172-.893.043-.335-.454-.862-.547-.664-.428-.545-.09-.59-.012-.236-.02-.273.042-.184.33-.092.275-.081.3.01.144.113.223.1.194.02.338-.013.33-.068.371-.412.845-.545.54-.175.72-.277 1.098-.239.294-.596.17-.003.596-.748.577-.523-.011-.18.1-.133-.081-.408-.022-.488.328-.12.322-.192.224-.526.222-.406-.048-.345.372-.454-.046-.25.153-.369.47-.216.098-.954-.155-.356-.697.013-.445-.143-.225-.485-.148-.158-.246.03-.71-.293-.564.034-.651-.212-.288-1.715-1.487-1.949-.834-.433-.129-.496-.312.035-.797-.301-1.16-.41-.824-.896-.835-.463-.212-.463-.035-.107-.35.208-.169-.018-.5.36-.724.259-.136.002-.184-.789.108-.448-.57-.178.198-.792.204-.139-.095-.569.48-.563.134-.623-.495-.83-1.118-.298-.07-.348-.298-.223.061-.259.334-.374.213-.556.11-.597.284-.254.223-.294.346-.378-.355-.333-.032.012-.532.529-.314.278-.731.106-.738-.11-.771.41-.683 1.304-1.33.086-.526-.38-1.015-.702-.373-.626-1.495.035-.674.238-.27.722-.2.611-.017.27.22.196-.59-.099-.252.125-.2.335-.009.51-.152.578.401.633-.457.34-.217.273-.164.03-.165.18-.373.247-.275.296-.341.028-.157-.046-.173-.042-.153-.062-.235.025-.196.06-.124.077-.073.115-.049.036-.156-.074-.227-.123-.129-.21-.069-.219-.03-.288-.017-.177-.093-.143-.076-.01-.11.067-.06.124-.131.2-.22.47-.22.69-.63.24-.726-.094-.867-.287-.849-.181-.535-.19-.181-.254-.183-.154-.133-.14-.133-.101-.039-.184.033-.146.048-.176-.088-.248-.092-.156-.194-.13-.4-.182-.355-.105-.139-.172-.314-.318-.159-.357-.271-.141-.272.07-.754.201-.567-.056-.591-.492-.312-.455-.308-.506-1.031.36-.673.634-.678.926-.52.114-.738.36-.286.36-.383.276-.464.08-.471.325-.761 1.44-.98-.26-.86.257-.534.476-.509.9-.516.697-.011.574.212.444.413.382-.125.204-.356.327-.18.9-.136.592-.397.322-.402.566.17.527.286.617.539.726.485.32.045.314-.89.082-.906.157-.422.348.03.345.03.782-1.235.157-.78-.306-.271-.098-.446-.101-.75-.002-.01-.722-.303-.629-.986-.074-.63.033-.651-1.016-1.306-.098-.445.28-.323.372-.488.658-.381.37-.487.617-.356.255-.628-.059-.652-.53-1.154-1.168-1.147-1.61-.361-.72-1.25-.495-.018-.842.59-.536-.334-.302-.456-.141-.792.359-.38.475-.082.399-.433.01-.412-.133-.538-.174-.69-.063-.401-.448-.006-.275.214-.45-.036-.547-.169-.198-.07-.262-.282.188-.316-.024-.505.243-.306.45-.005.264-.371.233-.612v-.18l.707-.208.387-.04.475-.298.08-.245.454-.188.19-.424-.228-.22-.228-.219.02-.513.145-.384.338-.088.266.104.199-.062.171-.38.16-1.474.009-.27-.064-.165-.27-.389-.118-.312-.017-.045-.305-.163-.113-.305-.085-.577-.463-.028-.327-.104-.328.037-.283-.271-.158-.24-.281-.183-.266-.063-.249.055-.484-.338-.613-.371-.173-.235.09-.302.29-.6-.038-.293-.178-.134-.125-.219-.2-.652-.079-.254.136-.23.122-.121.289-.213.24-.069.2-.113.036-.282.023-.253.064-.248-.016-.275.034-.369.09-.214.195.065.25.218.184.213.28-.092.257-.152.184-.081.353-.007.326.028.8.864.468-.112.748-.428.624-.393.428.239.27.187.212.043.072-.23-.1-.575.202-1.287.318-2.035-.36-.658-.195-.788.554-.561-.168-1.976-.123-.491-.176-.142-1.047-.845.286-.384-.219-.998-.05-.767.496-.629.913.337.98-.243.497-.28.72-.75.18-.48-.443-2.082.195-.59 1.256-2.061.432-.71.143-.809.357-2.013-.01-.699-.533-1.878-.117-.547.645-.702.457-.293.105-.442.627-.075.152-.366.516-.43.481-.059.261-.202.108-.226.062-.829.028-.866.223-.442.277-.223.406-.035.164-.004.187-.089.14-.086-.081-.299-.155-.315-.225-.091-.37-.229-.235-.348.205-.772.104-.36.089-.31-.005-.014-.225-.729-.042-.02-.828-.422-.366-.917-.012-2.49.254-.38.41-.079.751-.074.806.363 1.349-.28.589-.273.526-.627.35-.633-.015-.588-.45-.592.082-.488.417-1.66.617-1.75.695-.85.077-.225.077-.222.05-.145-.975-1.538.503-.33.67-.708.072-.472.65-.79-.316-.923.449-.734.08-1.013.238-.467-.159-.524.218-.446-.24-.786-.569-.86-.014-.022-.322-.211-.561-.017-.693-.257-.278-.524-.252-.137-1.314.12-.556.48-.834-.354-.752.535-.435-.293-.18.488-.46-.118-.571-.342-1.028.474-.28.267-.75.37-.33-.01-.165.943-1.093.974-1.51-.268-.239-.16-.302-.31-.337-.169-.122-.313-.09-.134-.764.18-.879-.205-.468-.259-.382-.53-.37-.173-.26-.297-.394.54-.083.05-.476-.076-.324.053-.349.2-.15.125-.485-.333-.063.004-.193.223-.416.413-.236.192-.042.112-.226.115-.784-.029-.145-.084-1.494-.866-.062-.458.412-.431-.158-.889-.224-.106-.277-.275-.698-.21-.41-.036-.116-.338-.024-.175-.117-.186.008-.104.15-.166.299-.146.117-.083.013-.195-.065-.145-.103-.012-.233.047-.219-.03-.111-.098.142-.697.825-.464.766-.8.047-.374-.112-.126.146-.345.036-.378.193-.356.044-.227-.4-.67-.463-.345-.365-.575-.04-.145-.072-.084-.238-.089-.142-.053-.033-.219-.054-.17.077-.234-.045-.287-.191-.26-.298-.162-.403-.09-.182-.15-.186-.369-.175-.09-.32.187-.27.07-.129-.057-.162-.071-.37-.194-.221.168-.323.06-.284-.219-.306-.314-.188.022-.188.264-.013.253.06.201-.3.42-.217.122-.268.196.056.394-.273.645-.27.27-1.101-.043-1.027.23-.158.12-.008.26-.174.099-.36.508-.08.235.016.205-.324.152-.653-.001-.256-.13-.27.053-.111-.221-.044-.286.107-.35-.007-.084-.463-.152-.314-.12-.244-.055-.023-.17-.328-.36-.094-.33.888-1.809.479-.114.594-.755.234-.735.007-.673.136-.79-.593-.845-.65-.499-.199-.795.096-.552-.382.146-.809.217-.605-.773-.764.065-.844-.24-.437-1.037-.66-.434-.864-.932-.213-.408-.024-.808-.21-.24-1.297.11-.628.31-.255.622-.328.097-.114-.27-.035-.365-.097-.268.12-.418.283-.446-.17-.43-.059-.29-.465.008-1.194-.678-.483-1.007.024-.585.01-.25.337-.352.101-.107-.318-.866-.453-.229-.455-.004-.511-.429.421-.957.37-.084.644-.834.103-.603-.275-1.791.188-.486.647-.883.249-.134.168-.127.067-.29-.088-.223-.186-.25-.26-.098-2.27-1.426.14-.313.045-.101-.319-.342-.139-.194-.369-.011-1.13-1.767-.941-1.896.02-.482-2.07-.643-.077.28-.226.164-1.286.102-.117-.155-.03-.804.024-.492-.397-.59-.6-1.171-.023-.76-.3-1.28.257-.113-.025-.823.032-.466-.332.072-.392-.516.119-.55-.155-.552-.401-.223.114-.573-.764-.468-.373.153-.325-.241-.916-1.481-.013-.022-1.024-2.07-.147-.74.033-.972.22-.35-.286-.581-.232-.28-.389.13-.391-.125-.332.135-.768-.683-.116-.775-1.066-2.204-.903-.918-1-.934-.267-.248-1.808-.543-.736-1.522.093-1.356-.367-.805-.021-.045-1.877-.375-1.037-.671.047-.663.515-1.297.35-.447-.073-1.281-.258-.526-.597-.6-.36-.013-.363-.457-.281-1.146.026-.474.165-.196.204-.24.012-.212-.095-.158-.056-.203-.191-.07-1.146-.708-1.58.08-.515-.29-.383-.47-3.015-.212-.403-.636-.35-.31.155-.53-.437-.471-.774-.116-.569.298-1.037-.17.018-.372-.113-.333-.517-.514-.372.297-.439.026-.48.25-.324-.602-.28-.359-.37-.077-.678-.227-.458-.536-1.295-.61.19-.579-.209-1.133-.51-1.06-.044-.432.108-.281-.281-.217-.112-.205-.417-.215.21-.511.023-1.308-.39-.435-.657.093-.326-.433-.432-.088-.109-.699.187-.41-.177-.214-.431-.239-.102-.205-.399-.032-.233-.108-.272-.126.021-.232-.533-.58-.829-.575-1.164.217-.945.12-.092-.377-.162-.378.059-.736-.461-.452-.12-.242.006-.563-.322-.257-.52.1-.668-.147.156-.742-.677-.379-.314-.499-.435-.061-.302-.193-.482.076-.426-.049-.318-.588-.286-.134-.005-.39-1.35-.325-.357.23-1.005.088-.192-.201-.011-.012.424-.683.148-.112.18-.647.261-.462.363-.11 1.133-.268 1.225-.63 1.341-.126 1.024-.093 1.067.39 1.368.068.908-.342.531-.666.608-.762.103-.47-.027-.321-.01-.108-.348-.2-.697.189-.376.084-.536-.01-.326-.196-.086-.435-.117-.313-.273-.28-.353.134-.55.088-.407.004-.194-.216-.039-.672v-.69l-.063-.467-.602-.125h-.005l-.641-1.237-.12-.383.007-.066.043-.379.26-.46.571-.146.232-.47-.157-.342-.362-.22-.757.089-.362-.094-.607-.33-.108-.017-.07-.263-.11-.16-.147-.053-.115.01-.238.085-.124-.038-.256-.182-.5-.289-.216-.637.245-.572.127-.063.389-.196 1.097-1.266.283-.175.078-.014.158.051h.219l.224-.125.054-.14.026-.343.104-.149.352-.04.789.058.218-.428-.068-.293.674-.626.729-.384-.013-.175-.032-.493-.436-.434-.01-.512.088-.551.35-.448.027-.788-.936-1.473-.496-.17-1.047-.82-.325-1.452.507-.83.14-.872.315-.179.046-.197-.018-.962.147-.303.11-.166.029-.1.018-.136.12-.383.147-.303-.064-.212-.434-.94-1.306-1.391-.18-.193-.449-.315-.388.154-.635-.084-.308-.312-.432-1.139.424-1.458-.006-.118-.344-.604-.29-.225-.268-.25-.01-.166-.046-.06-.143-.437-.491-.167-1.658.535-.497-.475-.207-.617.142-1.029-.117-.563-.159-.63-.47-.634.24-2.738.305-.612-.347-1.534-1.32-.951-.224-.982-.39-.78-.482.05-1.08.525-.374-.41-.04-.13.075-.183.016-.166-.24-.319-.258-.096-.083.015-.31-.068.018-.212-.008-.217-1.228-3.098-.992-1.416-.321-.458-.54-.101-.087-.148.015-.14.159-.332.072-.21.014-.116.063-.195.07-.161-.243-.502-1.016-.32.05-.41-.033-.207-.1-.202-.171-.07-.205-.139-.106-.112-.123-.11-.006-.877-.17-.588-.194-.156-.144-.077-.12-.262-.11-.094-.02-.169-.03-.106.05-.115.038-.38-.846-1.64-.619-1.202-.601.161-.689-.713-.027-.045.002-.017.283-2.555.846-6.792.045-.745.136-1.195.16-1.26.01-.084.513-4.037 1.168-10.296.275-2.424.213-1.385.14-1.284.165-1.508.534-3.958 1.318-11.684z"/></svg>