<svg height="1000" width="1000"><path class="americon" d="M48.198 366.366l.966.036 1.23-.064-.036-.471 1.008-14.872.039-.063.404-5.466-.037-.16 1.005-14.603 1.406-20.424.12-1.56.354-4.785.189-3.196.757-11.478.054-1.177.162-3.483.163-1.52.054-.559.349-5.926.004-.056.107-1.442.031-.417.05-1.198 2.148-31.782 1.229-19.57.019-.594.113-1.652.569-10.466 34.738 2.342 8.532.546.884.056v.002l4.874.3 4.737.288 2.108.154 7.435.436 6.792.39.282.012 1.647.118.772.032 4.115.316.729-.017.014.001 9.754.554h.002l3.602.196.876.048 3.07.164.892.047 5.674.293 2.334.133 2.397.128 2.551.134 2.229.112 3.528.176 2.496.133 3.49.2.038.003.626.024 4.147.223 1.348.072 2.481.132 4.624.221 1.106.054 6.057.29 8.223.384 4.772.218 1.284.046 2.258.08.184.014.666.02 1.65.05.083.003 1.041.053 2.382.117 6.032.29 1.239.058.876.057 6.157.239 2.459.093.972.044.917.05 1.514.062.093.004 2.324.1.004.01.597.01 1.13.044.479.033.873.056.255.002.413.006.008.005 2.256.093 2.161.089.104-.01 2.891.141.87.035 8.386.326 3.435.13 2.386.094 2.314.09.016.001h.018l.627.022 1.358.046.17.006.18.003 1.252.045h.018l1.16.053 1.132.028.093-.023.154.007 1.04.044 3.069.131.28.002 2.782.098 6.93.246h.002l.027-.01.198.01.01.001.74.038.076.003h.021l.211.007 1.812.06 1.876.056 8.122.24 1.426.049 2.507.085 2.26.066 1.013.032 3.403.107.524.008 2.746.098.102-.005.117-.004.652.008 3.283.11.77.05.254.003 1.425.016.98.022 2.123.046.143.022 2.64.06 3.34.103 6.052.16 1.591.04.561.037 12.13.326 3.677.094 5.309.03.354.02.622.03 3.614.062.61.012 1.76.036 2.998.068 1.807.018 5.467.133 2.132.058.195.005 2.84.05.393-.007.531.013.902.022 1.975.046.403.007 4.114.044.632.034 2.481.032 11.403.137.475.04h.015l1.383.026.51.006 2.416.029.392.02 5.226.048 1.534.02 7.569.094 1.993.024 2.763.03.88.01.004-.007 1.343.039 3.4-.03 1.464.023 6.597.101 2.622.026h.042l13.32.082h.018l.95.008.482.003 4.203.03 3.71.004.71.014.491.007 1.126.018 13.381.06 1.01.025.14.03.98.005.099-.003 11.963.07 2.157.002 1.192-.005 3.613.016.215-.004 2.37.007.428.001 1.716.017h.195l7.146.011 2.474.001h2.096l9.84-.03h.026l4.764.03 10.162-.02.104-.005.02.004.167-.002 1.029-.007 2.4-.02h.001l2.888-.034 2.422-.043 4.825-.055 2.17-.025 2.576-.031 11.01-.019h.332l4.78-.067.682-.01 4.78-.071 1.807-.034.814-.012 3.86-.044h.02l3.097-.045 2.371-.024 1.531-.031.887-.014 2.132-.016 4.082-.076.069-.001.924-.025h.123l12.682-.257.497-.012.597-.015 10.026-.176h.013l3.704-.062 7.824-.137.12-.003 2.774-.049 3.996-.073 6.706-.128 1.194-.024 2.377-.048 3.675-.075 10.648-.231.744-.017 2.889-.051 10.736-.203 3.533-.07 7.111-.149 3.705-.116 3.468-.111 8.498-.28 2.395-.082 8.266-.286.114-.004 1.184-.045 8.242-.314 3.7-.145 7.168-.273h.011l2.44-.078.934-.034 2.307-.086 8.777-.33 3.177-.123 8.076-.32.865-.049 2.104-.093 3.364-.15 3.771-.171 7.203-.332 3.365-.157 7.149-.341 1.145-.06 1.563-.082h.01l1.083-.043 2.029-.08 1.14-.062.179-.009.036-.001.044-.003 14.44-.732 4.045-.21.771-.046.031-.002 9.606-.53h.004l9.571-.556 3.093-.21 1.7-.18.012-.001 3.233-.152 6.368-.304h.02l2.191-.105.192-.089 2.421-.139 1.254-.072 8.34-.487 4.8-.285.955-.057.023-.002 4.436-.267.704-.076.1-.01.76-.083 3.184-.199 3.522-.221 1.252-.08 2.4-.152 2.374-.139 2.384-.13 2.386-.115h.008l2.385-.173 1.281-.067 1.116-.059 1.166-.082 1.191-.083 1.519-.099.002 1.49.08.854.054.247-.155.115-.11.34-.266-.009-.07.573-.006.058-.02.213.107.098.169-.129.142.111.128.075.145.234-.195.138v.325l-.037.096-.05.127-.093.42.076.692-.063.576.12.663-.022.52-.28.252-.037 1.694.14.759-.265.852.048.296.203.552.023 2.491.005.578-.198.536-.092.341.06.796-.18 1.222-.321.983-.116.17-.306.453-.677.472-.38.369-.534.941-.583 1.247-.513.802-.618.602-.79.573-.262.297-.168.348-.092.513-.626 1.28-.201.599-.014.181-.045.615-.2.931-.019.04-1.026 2.198-.56.718-.549.704-1.023 1.053-.07.072-1.613 1.17-1.317.77-1.357.792-3.75 2.896-.579.501-.706 1.345-.39.597-3.204 2.551-1.139.907-2.86 2.537-.06.084-.076.107-.592.261-.338.365-.531.757-.343.97-.367 1.916-.28 1.457-.004.02-.042.763-.435.99-.095.518.102.115.411.461.522.527.333.376.306.344.047.059.356.414.711.829 4.199 4.845.347.176.647.541 1.14 1.496.5.854 1.982 2.297.197.336.416.71 1.031 2.052.178.387.822 1.788.255.694.063.627.134.312.528.836.258 1.102.562 1.302.174.275.89.865 1.722 2.311.924 1.388.212.318 1.198 1.406.785.646.3.246.396.15.277.004.308.005.596-.094.953.194 1.66-.295.856.093 1.097-.074 1.581.086.172.06h.002l1.807.627 1.994 1.112.723.52.484.184.419.159 1.116.555.8.292 1.14.416.736.07 1.043.235 1.099.4 1.68 1.188.74.342 1.179.949.424.341.882 1.74.453 1.073 1.191 2.09.071.126.081.142.108.722.107.317.178.23.59.506.554 1.008.143.65.177.16.151.14.029.026.16.561.089 1.074.034.405.068.815.013.215.071 1.145.073 1.167.001.022.37 4.797.395 5.15.067.685.019.289.266 4.078.288 4.182.033.474.302 4.398.009.232.364 4.574-.008.218.065.928.247 3.551.009.129.022.322.146 2.091.02.235.083 1.304.744 10.458.024.329v.003l.14 2.455.638 8.659.07.668.148 2.354.015.246.01.164v.009l.506 6.883.527 7.181.001.017.005.12.053 1.178.056.9.029.303.096 1.208.094 1.17.195 2.4-.008.214.53 7.022v.017l.003.045.137 2.482.409 6.063.4 5.915v.026l.011.078v.002l.988 14.467-.005.058-.002.013-.002.018.168 2.785.143 1.659.121 1.683.377 5.65.013.363.17 1.747.017.256.19 2.896.326 4.81.261 3.862.063 1.005.001.015.134 1.985.13 1.936.054.886.108 1.594.053.506.002.013.007.265.139 2.1.017.352.162 2.112V481.18l.173 2.244.008.276.112 1.896.01.243.011.258.004.05.152 1.744.034.503.154 2.293-.022.117.662 9.662.002.02.312 4.599.663 9.747.83 12.214.007.323.119 1.85.023.274v.005l.027.317.107 1.25.079.923.014.311.002.027.12 2.04.018.312.003.036.153 2.077.01.373.14 1.825.023.107.032.5.138 2.14.012.285.15 2.09.025.348.171 2.397.082 1.143.268 3.742.152 2.113-.014.012.015.261.33 4.607.002.017.543 7.457.137 2.303.341 4.92.846 12.201.084 1.22.085 1.242v.008l.344 4.886.426 6.059.032.403.22 3.18.005.081.007.081.01.111.07.99.964 13.608-9.587.654-7.282.486-.942.074v.002l.019.75.107.15.47.267.36-.203.15.002.077.4.47.105.164.194.074.174-.278.215.111.308-.115.16.131.228.368.033.11-.046.192.328-.646.532-.011.19.34.285.067.21-.14.544.083.254.29.414-.333.379-.31.033-.72.731-.674.684-.176.681-.099.383.045.21.31.657.89 1.888.176.155.414.137.008.002.21.07.72-.138.835.02.644.491.085.177-.099.645-.29.787.646.297.758.7.699.968.592.413 2.053 1.394.724-.142.117-.144-.013-.193.117-.038.47.208.19.25.41 1.518.146 1.634.013.226-.077.456-.481.65-.106.042.083.986.193 1.755.18.58.128.023.034.156-.031.056-.271.488-.534.96-.344.4.314 1.315.666 1.995.447.663-.025.42-.134.544-.29 1.177-1.256.846-.995.382-.455.174-.288-.31-1.017.07-.095.006-.6-.083-.21-.184-.133-.243-.246-.15-.823.22-.319.035-.316.262-.345.086-.022.454.011.013.244.286.347-.218.336-.385.212.264-.087.757.286.793.173.717-.066.4-.255.494-.24.05-.03-.327-.077-.053-.313.456.197.91.299.181.743-.155 1.077.885.57.372.512.128.387.005.236-.169.225.13.093.227.008.064.138 1.055-.07.656-.742.411-.736.205-.67.942.31.918.105.311 1.078 1.172.179.004.2-.124.107-.238.162-.12.83-.08.416.139.595-.002.513-.365 1.134.528.625.485.17.45.214.079.83-.204 1.414-.474.497-.524.604-.082.767-.104.03.009 1.05.284.15.153.125.62.432 1.297.216.377.006.361-.294 1.096.098 1.515.227.691.377.131.079.027.204-.01.265.241.042.157-.052 1.914v.007l-.03 1.137.015.284.025.47.215 1.57.21.455.68.632.14.017.399-.164.662.28.956 1.362.148.837.18.693.124.256.16.187.387.163-.257 1.196-.973 1.677-.415.705-1.002 1.011-.247.616.049.304.92.188.115.213.085.441v.053l-.003.086-.027 1.418-.28 1.295-.286.618-.265.198-.619.234-.218-.024-.415-.22-.448.23-1.133 1.25-.16.264-.054.435-.052.038-.129.092-1.382.463-.433.014-.47-.182-.165.023-.92 1.398.16.3.204.131.227-.088.28-.039.334.424.008.105-.15.823-.238.346-.003.26.19.436.112.179 1.021.762.505.065.05.059.595.69.397.796-.072.79-.165.569-.257.53-.13.122-.074.027-.198.075-.324.122-.564.133-.312.258-.316.652.115.435.03.489-.48.76-.024.037-.489.216.098.46.591.769.667.23.562-.054.145.076.266.433.454 1.466-.509.84-.326 1.066-.134.585-.15.139-.504.159-.588.706.003.268.491.433.047.281-.07.22-.163.123-.14-.014-.156-.121-.101-.347-.3-.14-.249.064-1.802 2-.05.33.029.32.197.33.39 1.328.071.28.01.04.135.525-.234.196-.492-.04-.056.085.025.138.189.245.283.365.41-.187.919.439.337.691.048.32-.157.227-.827.045-.7.215-.025.138.276.452.162 1.29-.708.706-.307.047-.107.135-.25.602-.025 1.115.01.097.552.967.16.008.172-.198.033-.21.085-.048.134.135.045.2-.282 1.11-.13.234-.639.437-.362.05-.1.238.092.42.271.284.288.178.076.261-.166.389-.025.056-.094.1-.235.02-.278-.09-.334-.456-.246.036-.145.319-.101.22.034.894-.31.126-.134-.184-.659-.907-1.058-.088-.22.113-.053.662.625.798-.003.184-.603 1.286-.112.239-.14.17-.633.498-.497-.048-.118.145.096.78.442.056.166.148.028.123-.134 1.225-.254 1.404-.848.947-.104.697-.089.123-1.395-.24-.476.195-.242.831-.5 1.012-.02.02-.436.46-.228.018-.099.44.189 1.1.008.048.478.646.573-.085.19-.122.166.05.131.156.124.389-.117.222-.684.184-.519.435-.174.82-.393.817-.43.7.006.015.09.2.063.14.946 1.614.69-.194.207.064.16 1.9-.299.761-.304.208-.071.511.132.124 1.315.75.552.231.092-.013.075-.013.063-.005.045.015.065.03.047.04.05.099v.077l-.022.09.018.15.249.174.502-.05.157-.088.329-.416.147-.056.218.054.331.348.18.653-.076.467.604.033.758.12 1.34.662.208.78-.02.174-.1.276-.33.475-.045.12.283.114.521.054.179-.168.034-.408.115-.254.131-.134.178.04.844 1.092.594.779-.022.08-.306.071-.11.148.041.727.093.103.382-.034 1.132-.682.392-.008.174.098.623.862.072.553-.046.53v.009l-.014.16.092.275.557.457.894.34 1.43 1.737.156.465-.019.216-.02.24-.055.453-.22.358-.313.213-.348.127-.522.067-.323.247-.066.343.27.787.263.229.278-.075.382-.581.329-.332.296-.187.482.043.497.335.693 1.272.689 1.813.008.234-.124.37.02.069.046.16.153.11.397.124.275.307.033.29-.096.23-.04.32.093.231.536.382.612.121.114.173v.253l-.226.375-1.234 1.858-.025.038.089.458.173.182.223.077.475-.045.306-.071.588-.056.76.034.203.037.114 1.64.035 1.849-.192 1.039.134.517.005.02-.086.377V783l-.02.01-.903.516-.397.226-.002.004-.234.534.419.798.84.3.517-.172.26.246.589.994-.096.067-.048.35-.235.59-.055.396-.028.2.129.555.239.227.408.036.179-.052.092-.14.027-.197.416.071.36.034.875-.406.803.209.27.064.309-.055-1.726.907-.713.547-1.205.614-.4.096-.276.003-1.073.01-1.515-.345-.573-.298-.033-.026-.076-.061-.276-.222-1.006-1.226-.24-.433-.196-.66-.288-.65-.624-.892-.488-.486-.382-.298-.84-.448-.41-.095-.966-.223-1.124.106-1.24.513-.553.403-1.393 1.446-.821.47-.602.175-.406.04-.53.051-.353-.042-.335-.04-.337-.127-.128-.078-1.772-1.073-.317-.557-.164-.402-.336-.822-.227-.782-.092-.506-.013-.189-.079-1.21-.001-.007-.335-1.24-.388-.712-.76-.913-.597-.51-.01-.009-.266-.163-1.127-.691-2.212-.737-.71-.446-.588-.551-1.588-2.025-1.24-1.455-.41-.714-.26-.73-.143-1.122v-.447l.178-.79.237-.593 1.167-2.173.482-.79.417-.376.14-.335.053-.59.005-.061-.038-.392-.085-.17-.484-.493-.83-.447-3.882-1.066-.932.012-.825.147-.6.107-.297.103-.218.248-1.576.507-1.776-.057-.351-.072-1.48-.305-.083-.017-.712-.333-.297-.24-.176-.412.117-2.073-.125-1.377-.214-1.062-.628-.877h-.001l-.889-.326-.801-.184-.796-.021-.473-.012-1.769-.5-.848-.46-1.37-.896-1.576-.464-1.765-.081-1.513-.764-.133-.067-.674-.34-.26-.132-1.684.508-.445.216-.72.707-.783.562-.522.349-.95.417-.866.101-.72-.069-.252-.121-.174-.298-.134-.346-.046-.435.376-1.317.093-.326.009-.143.018-.289-.062-.257-1.095-2.261-.847-.638-.49-.272-.388-.055-1.313.262-1.267-.082-1.623-.105-1.134-.074-.679-.178-.4-.35-2.407-.587-1.692-.241-.78.026-.928.208-.748.273-1.322.2-.622-.022-.022-.001-1.288.127-2.482-.289-.416-.413-.026-.052-.346-.683-.001-.04-.01-.305-.172-.41-.421-.534-.44-.556-.821-.881-1.235-.64-.452-.233-.397-.119-.644-.106-.8-.006-1.151-.209-1.605-.02-.545-.143-.699-.436-.204-.224-.098-.189-.102-.196-.177-1.205-.164-.474-.39-.793-.04-.166-.032-.136-.003-.273-.023-2.103-.199-.385-1.682-.84-.756-.265-1.352-.307-.128.004-.271.01-.606.292-.148.032-1.057.232-.176.039-1.109-.139-.231-.029h-.004l-.549-.07-.562-.07-.299-.037-1.442-1.467-.172-.175-.59-.299-.013.003-.255.062-.265.268-.844.484-.784.255-.228.133-.072.09-.181.228-.019.014-.25.187-.658.308-.617.19-2.278.304-.278-.038-.67-.389-.214-.124-.874-.732-.189-.365-2.14.274-.67-.064-.665-.462-.487-.073-.626.2-.441.267-.72.846-.21.513-.043.268-.752.91-.852.799-.387.17-1.23.095-.531-.124-.31-.22-.368-.127-1.114-.16-1.467.087-.324.02-.828-.172-.604-.243-.373-.315-.173-.336-.572-.185-1.341.872-1.308.483-.642.236-1.925.45-1.796.17-1.59-.278-2.196-.604-.934-.361-.483-.275-.095-.055-1.002.043-1.039.352-1.842.965-1.376.721-1.361.572-1.288.333-2.263.21-1.82-.147-2.447-.505-.028-.001-3.71-.175-.427.102-1.362.047-1.216-.059-.618-.185-1.154-.347-1.64-.713-.441-.123-1.546-.43-1.13-.929-.345-.2-.706.033-1.374.241-1.559.519-.947.421-.787.509-.383.246-.174.745.027.293.172.394-.006.44-.36.705-.05 1.411-.553 1.584-.395 1.546-.193.372-.492.606-1.045 1.9-.183.334-.468.695-.832.889-.673.292-.233.306-1.13 1.481-.451.436-1.632 1.115-.413.116h-.003l-1.062.101-1.949-.125-1.827.896-.966.356-.273.01-.406-.137-.9.356-.522.002-2.235-.214-.27-.247-.623-.246-.339-.108-.229-.024-.119-.012-.522-.054-.638-.317-.415-.322-.212-.874-.229-.53-.583-.596-1.986-1.552-.638-.221-.866-.565-1.325-1.508-.387-.352-2.532-1.516-.2-.18-.126-.202-1.057-1.709-1.17-1.162-.142-.027-.62.185-1.255.376-.53.057-.449-.014-1.441-.416-.55-.158-.362-.105-1.87-.817-1.675-.86-.274-.14-.563-.382-.298-.367-.507-.402-.189-.15-1.902-1.164-.394-.572-.254-.157-.814-.237-1.255.087-1.455-.091-2.204-.782-1.547-.37-1.225-.293-.802-.305-.484-.313-.356-.338-.14-.17-.317-.69-.28-.348-.568-.505-.487-.306-.282-.143-1.216-.616-1.87-.752-.316-.127-1.41-.849-1.622-.634-1.08-.522-1.64-.994-.691-.007-.087.018-.488.103-.43.401-.342.153-.304.044-.554-.16-.22-.227-.174-.758-.164-.218-.497-.317-.81-.82-.399-.166-.69-.484-.034-.024-.175-.306-1.35-2.361-1.516-2.4-.709-1.69-.405-1.776-5.778.203-2.48.085-.48-.009-9.5.3-2.264.069-.075-.003-.162-.006-4.928.159-4.603.144-2.478.071-.251.007-4.584.138-2.817.062h-.022l-4.522.132-3.09.089-1.796.05-.4-.02-1.983.059h-.013l-2.902.066-2.418.054-4.754.112-2.186.037-.489.008-.048.023-4.746.091-2.42.045-.232.017-2.054.043-4.662.095-.384-.028-1.501.058-.908.004-.365.001-4.197.143h-.022l-4.855.062-2.462.07h-.02l-1.026.002-3.146.07-7.356.113-1.022.022-1.629.034-.31.013-.39.014-2.646.02-9.411.174-.395-.014-2.02.018-.434.01-4.938.078-.165.003-4.21.06-10.327.131-2.185.026-3.629.04-.275-.016-2.202.037-.945.01-2.03.016-3.154-.009-.285.005-2.165.034-1.497.02-.376-.013-.75-.014-1.552.043-3.488-.004h-.011l-.094.003-1.137.04-1.235-.013-.97.006-1.485.012-3.57.025-1.149-.003-2.828-.014h-.063l-1.277-.001h-.221l-5.189.014-.462.001-2.402.005-.816.003-10.547-.015-.885-.002h-.061l-8.88.04h-.003l-9.857-.025-.736-.017-8.177-.009-.727-.005-7.199-.065-7.375-.075-7.65.006-1.203.03-1.132.007-8.978-.038-.785.078-4.912-.044-9.515-.095-7.417-.083-4.941-.06-2.495-.032-2.537.034-2.337-.034H415.243l-6.38-.065-.72-.025h-.002l-4.502-.003-5.304-.151-12.129-.19-10.641-.185h-.045l-.155.001-.137.001-.139-.01-24.352-.403-8.587-.163-.604-.012-1.716-.024-13.808-.213-10.943-.359-.031-.001h-.01l-16.88-.949-28.86-.938h-.007l-33.749-1.285-.409-.016-.119-.005-5.806-.239-3.772-.157-.57-.024-5.804-.234-8.137-.362-.192-.01-.24-.01-2.444-.111-14.648-.685-2.314-.11-3.714-.18-2.001-.098-4.115-.204-25.888-1.37-16.22-.91-.151-.009-23.758-1.343-2.01-.118-.745-.04-7.157-.398-12.456-.755h-.015l-.116-.008-.05-.003-4.559-.283-4.086-.257-.08.005-5.126-.31-4.277-.396-7.705-.424-12.241-.874-.204.004-5.542-.348-8.004-.51-5.111-.489-3.072-.212-7.684-.355 3.379-48.906.086-1.223.047-1.24.236-3.638.755-10.977.002-.031.435-6.373.585-8.245.302-4.257.003-.044.632-9.315.272-3.495.044-.699.002-.057 1.924-27.475.04-.558.128-1.885 1.058-15.439 1.04-13.945.034-.26 2.46-34.044.475-6.584.718-11.664.766-11.055.564-8.127 1.77-25.534.004-.062.306-4.277.329-4.621.832-11.71.594-8.368.015-.424.097-1.097.26-3.829-.005-.05.3-4.264.217-3.112.004-.045 1.099-16.464.162-1.32z"/></svg>