<svg height="1000" width="1000"><path class="americon" d="M532.324 882.357l9.326-2.241 9.97 7.856 7.343 5.801-3.24 5.463-4.305-2.076-7.805-.47-1.563-4.487-7.054-6.514zm.692 44.428l4.766 5.606 8.247 8.695 8.249 7.442-6.23 2.332-5.497-4.453-8.279-8.867-5.342-8.748zm-85.208-24.438l5.897-2.943 7.174 4.248-.202 3.901-3.032 1.314-6.995-1.856zm-28.412-80.152l4.998-1.287 9.966 2.307 14.636-.378 8.128-.049 2.378-.017 6.645.336.107 5.138-2.418.608-8.152-.187-5.661-.138-9.193 1.198-4.963 2.672-6.34-.375-6.558-1.827-.27-4.416zm-38.252-2.308l10.621 2.13 8.992 3.293 6.855-1.114 5.948 5.558.863 4.25-6.48 2.796-6.15 1.863-4.823-3.363-1.748-2.981-13.925-3.77-7.507-3.838zm-284.81-652.99l7.507-14.354 10.522-16.931 5.372-13.636-.074-5.724-1.803-3.874-.287-4.992 3.372-4.651 2.935-9.206 3.246-14.364-.126-2.43-.412-8.016-1.817-7.937-1.344-7.833-.617-1.923-2.564-.905-3.403-5.674 2.227-5.012 1.88-8.913L120.81 25l14.872 1.402 12.72 1.016 11.64.897 9.791.303 5.99.174 6.161.656 8.313-.02 6.031-.025 7.098 1.034 17.382.928 21.214.733 15 .816 13.297.81 18.093 1.032 12.15.736 16.156.879.563.03 13.382.381 15.317.843 11.057.266 13.299.28 13.575.25 22.694.26 12.955.142-.111 11.44-.15 24.523-.49 41.734-.231 30.62-.002 13.974-.248 38.63-.242 18.875-.187 16.475-.378 22.741-.298 17.86-.18 9.138-.25 12.536-.048 2.46.022 12.266.009 5.172.008 4.418.012 6.642 7.302 6.543 24.062 21.526.173.156 19.683 17.537 3.809 3.371 9.426 8.361 16.114 14.188 35.198 31.069 5.771 5.11 32.339 28.325 15.177 13.224 12.364 10.69 35.574 30.859 6.497 5.619 13.644 11.734 42.84 36.76 9.488 8.155 23.98 20.366 17.183 14.6 4.029 3.406 17.096 14.368.03.025 21.15 17.86 8.813 7.374 12.619 10.584 10.25 8.527 21.26 17.776 15.258 12.705.817 5.906.226 7.113 5.304 5.401 7.897 8.517 2.44 3.211 4.566 10.858 4.268 6.165.555 6.704 3.636-.296 6.393 4.388 8.186 4.996 3.048 3.707.036.282.568 4.407-3.082 2.295-3.832 5.792-5.11 2.544-4.343 3.705-4.66 2.772-1.686 2.074-.048 1.424-.124 3.735-1.338 3.365-4.135 5.878-1.89 3.12 2.473 2.64.588 3.683-.925 3.832 1.93 6.747 1.079 4.153-.479 2.73-1.432 3.362.157 5.641.883 5.527-5.644 6.842-2.212 6.08-.42 1.153-3.269.738-4.276 1.733 1.782 2.78.412 5.456-1.001 3.735 4.466 2.973-.087 2.621.516 7.273-1.829 5.76 3.64 6.66 3.723.395 4.529-.965 5.112.782.504.077 3.06 5.05.85 4.945 1.368 2.132.02 5.882-4.856 6.937-3.053 3.913-3.991 1.01-4.284 1.082-3.38-.473-1.005 2.455-24.24 3.992-40.095 6.438-50.31 7.903-5.159.81-37.678 5.75-7.5 1.166-19.993 2.934L662.31 975l-.852-5.305-.547-3.418-3.038-5.392-.759-.5-1.744-1.15-4.214 2.193-.92-3.146-.34-8.991-2.404-3.56-.175-1.785.672-1.258.961.179.543-1.067v-.023l-.02-4.188-1.839-7.723-.897-3.77-3.309-8.255-4.377-7.567-7.533-10.042-9.132-9.667-4.212-2.033-.028-.034-4.421-5.386-6.048-1.847-1.028-2.32-.51-.45-7.215-6.387-2.297-2.121-7.515-3.074-6.414-4.838-7.732-7.55-2.267-1.38-1.525-.928-4.306 1.855-4.064 2.227-2.257 1.235-5.011-.825-1.39-.83-1.849-1.105-3.58-.299-2.785-3.926 2.847-3.088-1.721-8.122-4.229-8.643-5.098-5.885-7.14-1.064-6.413.687-5.556.193-5.06 3.22-4.237-3.325-7.623-1.202-.869-.138-9.792-4.244-3.373-.396-10.012-6.807-2.496-5.255-1.12-4.037-.548-.349-3.077-1.964-5.297-4.621-7.18-5.39-1.423-.487-4.961-1.7-6.712-2.611-5.703 1.275-2.056 1.307-6.446-2.13-4.194-.005-3.215.691-8.203-3.717-6.594-1.795-7.583-1.281-12.919.112-13.166 2.186-4.895-7.812-3.204-2.08-2.586-1.491-3.464.23-1.883-2.788 3.89-11.212-.996-3.944-.942-.767 1.586-12.161-4.942-4.762 1.857-7.164 1.51-5.838.424-4.576-.419-4.61-3.188-3.027-3.183-2.389-3.499 1.494-7.38-4.621-4.03-4.494 1.538-4.642 1.602-6.686-1.687-7.052-5.782-2.524-3.882-.807-8.782-11.441-4.107-6.539-8.54-3.417-3.306-4.799-1.224-7.065-1.151-1.253-4.703-5.13-4.37-4.274-1.645-8.573-3.548-4.548-3.426-1.209-3.561-7.615-4.45-6.804-7.81-6.485-3.699-1.6-4.75-6.306-.796-9.126-2.69-9.32-1.888-9.795 3.951-5.004 4.963 2.551 3.988-6.997 1.794-9.375.574-3.73-1.546-3.54-3.605-8.27-3.355-3.867-3.579-.403-6.086 1.754-3.178-.387-3.06-.375-7.682-6.137-4.022-6.028-1.79-2.993-.73-.373-2.217-1.137-1.524-2.925-3.974-4.493-1.377-6.16 1.353-6.532.448-2.166-.432-3.774-2.395-6.19-.049-2.543-3.592-3.243-1.644-2.962.178-5.422 1.857-3.469.387-7.337-.19-2.158-.242-2.728-.312-3.535 3.787-2.744 5.266-.198.924 1.522.43 5.182 1.49.971-.46 1.412-2.226.548-.266.065 2.002 11.493 8.907 3.845 5.699 5.624 3.158-1.555 1.384-.683-2.296-5.36-.394-5.852-.651-2.654-.017-.066-3.82-3.226-2.683-2.872-.069-2.845-4.614-2.414-1.457-3.292 2.42-1.886-1.617-6.38-.38-1.498-3.452.182-3.364-5.159 4.592-1.987.046-2.938 2.03-.027 1.643-.022 4.763-3.829-.458-.9-2.3-4.53-6.915-4.124-.316.126-7.203 2.873-.22.088-1.028 7.438 3.419 3.733-2.92 2.755-.055 4.426 2.805 2.96 2.123 4.131-5.196 2.3-4.171-.577-4.743-4.685-5.831-3.434-1.95 1.154-3.805-4.337-3.09-4.242-4.358-4.211-6.355-1.88-2.924 3.721-2.814-1.26 4.582-10.532.935-6.13-2.217-6.235.278-3.494-1.16-2.292-.068-.133-3.79-.469-.93-3.587-.977-5.509-5.683-8.67-6.162-3.953-5.934-5.754-1.15-3.15-6.354-10.55-5.28-4.515-1.815-2.651-2.154-3.15-4.75-4.825-1.41-2.915-3.56-4.253-1.395-4.2 3.67-6.228-1.582-10.308-2.858-6.9-1.93-7.747-1.326-8.847 1.426-8.268 4.384-10.047-.689-6.752-.318-6.132-2.468-3.981-.852-10.68-3.93-3.317-3.068-6.013-4.612-8.04-.7-1.224-2.382-.965-.906-5.628-3.612-3.974-3.427-1.657-4.777-5.613-5.757-6.279-1.359-1.765 1.33-6.727-.546-4.26-2.728-6.364z"/></svg>