<svg height="1000" width="1000"><path class="americon" d="M40.86 760.773l105.935-62.099-32.744-54.476 4.026-46.23.499-5.732.073-.837.02-.243 3.642-41.915 4.38-56.055 5.779-74.206 1.259-16.6 7.714-102.06 10.585-146.544 123.418 4.454 50.002 2.238 35.57 1.535 21.52.906 4.43.184 73.44 1.401 17.824 25.068 17.04-2.455 3.868-.559 15.072-21.671 61.483 3.574 38.455-2.382 9.133.104 53.84.554 38.718.33 57.03.686 30.422.316 16.186.154 55.36.452 49.274.472 40.733.32.848 10.049 5.33 130.532 2.405 53.47.003.107 1.038 55.019.53 28.066v.037l-.586 33.292-1.489 84.182-20.479 3.333 2.423 37.933-11.686 22.18-12.805-10.354-34.466 4.773-31.828 8.937-35.552 2.178-19.404 9.859-33.068-10.308-16.638 10.134-28.11 13.54-23.043 1.606-4.234.293-18.582 10.343-9.541-10.786-32.67 5.589-30.414 10.758-6.216 2.194-24.98-11.819-27.396 1.88-.253.178-17.71 12.384-34.34 3.57-12.66-15.403-46.835 14.412-11.035-4.343-15.554-6.132-17.168 11.182-7.065 4.596-.693.45-16.9 17.626-29.063 7.923-10.819 19.73-3.578 6.52-10.816 4.448-20.932-4.506-14.655-3.166-29.647 26.28-3.68.5-13.52 1.832-16.508 2.226-20.565 3.677 8.767 12.127-16.485 17.732-17.327 6.78-22.707-2.773-24.134 7.918-22.463 14.033-16.668.267-30.783 19.682-.015-.232-.777-12.135.069-9.05L25 770.014z"/></svg>