<svg height="1000" width="1000"><path class="americon" d="M310.487 104.334l10.881-24.328 19.027-23.302 28.419-19.716 35.842-8.882L417.143 25l46.63 6.824 34.603 18.533-13.57 14.406-9.623 10.205-9.514 34.608-16.828 19.694-13.338 26.51-12.77 11.851 8.112 23.064 16.411 12.286-7.871 29.143-.23 25.363-34.246 12.884 11.156 27.526 26.435 34.876 8.468 11.944 19.2 27.042 32.3 45.177 7.29 52.22-6.666 37.421 6.042 51.924 29.542 25.92 18.402 49.513 2.208 5.93-.753 17.73 38.685 47.128 39.258 36.907 24.492 4.783 12.702-9.842 9.983 69.113 10.44 110.13 3.18 58.512-73.641.675-84.068-.627-74.441-.75-115.66-4.608-3.388-56.896-.707-12.407-2.917-51.31-.002-.034-7.822-133.638-12.45-214.857-4.074-70.888-1.964-34.275-3.154-55.182-.004-.104-10.254-235.128z"/></svg>