<svg height="1000" width="1000"><path class="americon" d="M95.678 25l21.486.952 14.68.624 3.46.033 14.2.124 2.055.042 36.14.67 10.738.216.473.009 19.01.354 8.355.177 5.693.116 7.956.157 17.414.297 18.479.406 30.768.426 31.63.508 20.372.274 11.32.134h.038l52.019.477 11.64-.414 10.93-.402 26.29-1.015 35.194-1.087h.002l-2.546 9.128-2.643 6.1-9.937 8.128-8.449 6.29-5.298 6.13-6.43 6.711.64 6.049-5.471 6.235.603 2.34 1.591 6.168.225.87 10.065 7.453 9.387 6.996 11.09 4.333 8.625 10.178 1.004 1.185 7.726 7.3.382.36 8.864 4.125.614-.105 10.885-1.864 8.645 1.998 5.43 14.41 3.174 8.214 7.313 12.466.965 1.672 5.044 8.725 1.723 6.491 3.45 12.978 12.312 13.357 8.189 13.599.544.902 4.992 10.544 1.067 2.252 7.393 1.586 13.97 13.933 18.109 9.206 14.727 17.79 2.742 5.82 1.34 2.842 2.857 6.057 6.59 9.394 3.31.994 4.73 1.418 1.433.43 13.425 9.989 2.052 3.177 4.506 6.966 11.1 6.088 1.321 10.575-1.797 13.716 14.923 7.693.244 11.515.023 1.12 14.343 7.37.211 1.294 1.517 9.273 16.78 9.381 7.333 2.596 2.47.873 10.108 7.903 7.357 5.74.892 14.544 6.385 9.167 7.902 13.344 1.888 17.717.113 1.055 3.837 17.385-.231 9.816 1.805 1.295 10.293 7.372 7.781 2.615 1.629.546 14.425 15.677.395 10.979 3.918 5.307 7.394 10.002 1.33 11.962-4.118 8.09 1.113 2.12 5.3 10.078 1.56 13.088 13.297 5.385 5.346-3.65 11.425 8.445 10.254 4.347 7.477 1.812-.604 7.43-10.557 9.622-4.996 6.555-9.823 12.001-6.026 9.324-6.612 10.883-9.078 8.315-.721 2.532-.634 2.223 1.647 15.75-6.424 14.186-.18 3.38-.25 4.666-5.96 11.449-7.51 12.363-3.256 11.155 3.605 9.65-.534 1.949-2.888 10.524-3.63 8.043-10.708 14.826-5.927 2.519.522 10.901-3.016 11.75 1.598 5.32.81 2.698 1.088 14.413-5.625 18.255-3.2 10.819 3.27 12.428-11.379-2.378-3.77.034-5.929 1.807-12.892-2.517-6.355-2.94-11.466-.704-5.712-4.872-8.163-3.144-10.75-.28-6.178-5.679-.65-.105-6.676-1.084-9.04 8.831-6.559 7.527-1.353 12.173-1.198 7.702 6.325 11.074-.124 14.711-1.353 17.52-2.261 9.27.387 6.908-1.832.415-7.843 1.769-8.77-.35-6.643-.95-5.698-11.571 1.467-10.439-5.316-9.57 1.757-9.127-36.029-2.765-7.297-.576-.038-.002-22.312-1.19-18.951-1.048-33.713-1.948-45.601-2.704-.93-.06-30.982-2.047-8.674-.59-16.354-1.13-9.145-.644-20.03-1.27-23.656-1.55-13.838-.931-33.397-2.244-13.661-.949-7.383-.52-28.733-1.786-17.044-1.097-16.777-1.107-60.522-4.753-9.023-.6-.22-.014-9.25-12.834-2.556-12.957-.017-9.292-8.255-12.33-3.752-8.424.764-4.891-1.29-11.014-1.604-4.593-2.394-6.857-12.307-16.576.302-14.948 3.472-7.452.246-2.815.234-2.686-.567-8.555 5.069-14.034-.78-7.68 3.804-10.475 1.867-5.147-2.682-5.48.242-10.197-11.4-15.751 1.38-7.742-.965-6.28-.55-3.587-1.87-12.216 5.18-11.003 8.496-15.006.878-5.02 2.52-14.42.897-5.146-1.762-10.05 10.877-9.868 11.93-6.599 1.83-2.378 5.044-6.56-10.86-9.002-8.919-6.547 4.41-5.324.486-3.24 1.951-13.037-4.488-13.282-.216-.638-.957-2.836-10.5-12.426-.933-5.129-1.864-10.265-4.01-14.944-1.646-4.379-5.817-15.508-3.814-7.191-.241-1.81-6.481-48.754-.577-4.394-7.961-61.006-1.45-11.178-1.241-9.599-3.277-25.142-3.035-23.394-3.52-27.217-1.634-12.693-2.943-23.706-1.113-8.991-4.525-32.698-1.607-11.66-3.64-26.514-1.412-10.01-1.843-13.106-.998-7.104-3.574-25.54-2.74-22.285-1.575-12.862z"/></svg>