<svg height="1000" width="1000"><path class="americon" d="M26.011 327.664l6.895-9.186 6.35-9.7-.052-5.957-.024-2.765 6.366-6.926-2.678-3.752 4.264-5.188-2.35-7.007 7.976-5.023 1.035-2.905 2.163-6.073-2.493-5.941-1.576-15.406-6.663-.344-4.137-5.416-.756-2.066-2.465-6.747 7.02-1.373 1.38-9.217.8-7.522-9.835-10.093 1.763-6.879-1.7-6.163 20.72 1.147 36.247 1.862 20.678 1.01 27.356 1.254 3.776.166 49.491 1.878 4.61.15 9.491.299 24.618.722 42.773 1.268 5.751.153 2.803.07 58.652 1.235 7.444.125 20.321.36 39.498.55 45.917.274 10.233.025 11.31.006 38.261-.098 25.603-.162 3.54-.029 21.954-.215 45.181-.786h.005l14.842-.288 38.475-.878 14.11-.346 36.314-1.006 13.477-.418 17-.56 17.058-.598 38.916-1.475-1.677 9.82 3.335 6.061 1.74 3.157-.898 5.816 7.828 7.316 6.978 3.873 7.57 11.423-3.957 6.493-6.297 9.63-5.567 8.071.495 10.71.378 8.182 2.674 10 .611 2.285 3.132 14.088 5.996 7.519 4.834 17.37 8.245 10.7 11.306 6.556 6.566 1.58 6.548 1.569 15.997 3.033 6.414 3.464 4.594 9.642 5.047 13.245-.193 7.264 8.472 4.401 3.767 1.537 7.352 6.696 5.08 3.977 5.829 4.555 4.682 7.109-1.555 8.375 4.865 7.467 9.576 6.609 3.407 1.668 7.073 3.457 9.36 4.498 7.314 8.065.457 13.108.643 1.42 3.26 7.19-1.706 11.629-.084 1.667-.467 9.215-1.947 7.924.504 6.489-8.805 6.357-.894.644-8.775 8.02-.013 2.733-.032 6.733-2.93 6.223.34 13.152-3.45 3.997-7.522 3.766-6.368 8.235-7.677 1.222-8.628 1.105-6.752 6.62-12.044 6.684-12.717 1.01-12.076 1.523-8.303 5.468-6.404-1.141-9.095 1.705-5.1 11.139-.713 5.93-.334 1.082-.043.14-5.243 16.982 5.239 6.907 6.441 9.4 6.609.417 6.606 10.027 1.109 7.648.083.57 1.465 10.093-.437 13.129-4.647 8.64-8.582 9.195-6.92 9.819.561 8.302-3.179 11.121-.154 5.17-.162 5.398-9.565 7.397-.225.174-9.303.168-13.83 5.577-5.034 6.427-2.72 9.795 4.261 4.69-1.386 11.834 1.488 10.645-6.982 4.48-12.265-4.321-3.457-6.113-7.064-5.433-7.098-7.632-1.903-7.811-8.04-2.118-2.39-5.557-4.946-4.847-1.97-1.93-32.082 2.485-.584.035-36.158 2.065-26.142 1.248-15.738.712-28.158 1.363-7.461.345-4.27.108-34.729.795-23.82.997-5.892.237-32.083.62-4.43.035-27.935.164-6.192.023-27.093.302-10.193.09-26.725.335-11.573.12-21.61-.087-12.015-.072-24.566-.29-9.593-.133-15.018-.505-28.755-1.043-14.519-.609-23.555-1.041-20.39-.915-20.384-.965-5.86-.293-24.342-1.26-35.52-2 2.753-3.545-4.665-10.256-9.532-6.316-6.033-11.077 8.71-9.03-.007-.154-.542-12.464 4.998-8.049-1.12-2.313-2.66-5.495 1.84-9.501-5.294-9.274.473-7.098.41-6.138-.375-8.284 1.333-7.086 1.002-5.332-7.993.193.028-1.38.189-9.358 3.549-7.924-4.953-9.012-.04-9.595.395-3.966 1.303-13.107-8.918-3.203-1.316-7.484-1.314-7.482-11.41 2.63-1.381-6.64-3.424-10.639 1.51-10.926.604-1.562 3.457-8.955 4.09-13.942-5.99-9.725-2.558-5.258-4.357-8.974 4.547-12.646-12.982-10.199-7.023-5.247 1.25-13.143-11.06-11.152 2.04-9.448.173-.801.517-9.093-2.175-3.31-7.623-11.626.212-14.58 4.985-9.817-9.064-6.22-4.457-4-2.179-1.645 2.75-7.543-.391-1.061-5.938-16.15-8.9-9.784L25 338.247z"/></svg>