<svg height="1000" width="1000"><path class="americon" d="M235.516 411.247l1.537-8.145.678-3.595 3.385-8.82 6.904-9.252 6.17-3.312-.553-9.058 1.944-9.871-3.28-4.228 2.933-8.067 4.66-5.08 12.008-3.789 7.844.47.2-.132 8.54-5.6.49-4.534.47-4.343 3.406-9.155.072-7.028 6.473-7.814 7.83-7.18 4.48-6.97 1.23-11.028-.572-8.597-.032-.485-.432-6.515-4.907-8.877-5.538-.786-4.81-8.338-3.96-6.161 5.529-13.96.045-.116.352-.89.989-4.948 5.025-9.049 7.773-.84 5.32 1.38 7.353-4.063 10.273-.491 10.78-.017 10.586-4.842 6.123-5.134 7.342-.365 6.549-.525 5.906-6.521 6.585-2.68 3.17-3.14.578-11.106 2.877-5.051.47-5.672.19-2.303 7.921-6.182.796-.484 7.838-4.78.001-5.502 2.162-6.55.999-7.737.18-1.4 2.201-9.689-2.276-6.275-.449-1.238.475-11.08-5.637-7.279-7.595-4.405-5.736-3.377-2.762-1.63-7.64-6.197-3.613-6.613 1.859-6.959-3.482-6.299-4.616-4.221-4.023-3.685-5.76-6.125-3.076-1.542-6.854-4.263.636-6.112 25.398.827 1.313.024 25.081.402 36.557.899.065.001 10.972.28 42.515.922 11.334.23 4.398.084 39.875.638 6.216.047 6.444.044 20.24.097 8.537.024 24.754-.475 24.969-.47 10.839-.232 2.145-.01 37.276-.27 12.008-.129-.063 11.95L707 49.83l-1.48 10.111.188.625 4.504 14.955.192.334 5.11 8.882 2.299 3.99.003.006.04.044 6.692 7.573.89 1.006 1.88 7.782 4.768 16.06 1.297 4.355.128.432 1.524 1.792-.116 1.494-.28 2.29.98 4.3 2.806 5.68.903 1.827 2.796 5.65 3.844 2.888.951 4.059.09 2.637.782 30.114.238 10.036.691 29.077.001.021.678 22.32.728 23.918.08 2.454.637 19.456.786 26.936 1.001 34.25.149 7.521.048 2.442.761 38.556.396 17.517.526 23.312.637 21.99 1.082 37.36.336 9.869.763 22.34.046 1.329.621 20.874-6.169 1.48-2.799 4.804 1.018 9.185.227 2.048 2.375 6.189-8.243 7.885.33 1.582 1.996 9.544 7.283 7.47-.594 9.625 6.804 4.923.581 11.076-.135.305-2.35 5.311 1.748 3.944 1.961 4.42 3.423 11.795-5.867 14.05-9.883 6.888-2.135 8.89-1.329 3.829-1.552 4.469 1.03 5.03-7.969 5.771-3.46 7.777-1.291 2.936-3.712 8.427-6.797 11.214-10.273 6.963-8.118 5.604-.141 1.24-.642 5.653 6.786 7.827-4.548 9.131-3.466 7.815-5.68 4.454 2.256 11.995-3.117 12.232-2.469 4.424-1.048 1.877 5.624 9.797-4.146 9.969-9.887 8.137-3.69 7.549 4.128 13.873.08.27 8.385 7.554.92 4.3.607 2.84-13.086 3.917-17.265 2.817-10.54 8.526-8.033-2.747-.376-.129-6.522 3.845-2.796 10.714-3.755 8.575 6.147 12.338 6.735 12.238-2.65 9.046-4.346 5.395-1.076.039-.924.033-5.77.207-4.166-2.904-7.115-4.97-11.605-4.874-8.288-2.307-11.518-7.25-13.018-5.172-.524-.208-.247.015-9.42.585-7.956 6.276-5.718 8.403-9.657 11.734.206.37 5.299 9.52-.556 6.304-8.727-1.35L528 969.12l-6.989-2.342-7.292-2.452-3.43-10.668-10.005-14.938-1.959-11.455-1.719-1.34-4.744-3.703 3.092-7.499 3.003-1.747 6.355-3.704.35-8.986-6.244-10.359-5.66-11.112 1.5-5.079.572-1.936.521-1.768-1.69-7.864-2.055-12.49-9.547-4.8-10.54-6.347-2.595-6.466-1.259-3.14-11.703-7.223-9.4-8.63-9.997 5.682-1.342-1.662-5.562-6.895 2.768-8.226-7.33-.72-9.842-8.032L409.18 787l-10.805-6.745-1.757-1.1-4.514-5.862-.035-.036-9.33-9.544-3.8-6.677-1.68-2.957-.85-15.131 3.298-9.35.953-1.163.373-.455 7.169-8.766 2.57-9.939 1.478-3.867.81-2.125.912-2.387 8.932-11.408.608-8.3-.054-.143-1.764-4.735-1.864-6.696 5.985-7.918.026-.034 6.659-5.61.714-7.516-12.485-8.756-3.059-2.152-6.184-1.582-2.958-.759-12.905-6.594-7.395-.398-2.254-.123-4.547 8.77-7.633 6.662-5.314-.869-8.115-8.02-.516-2.507-1.76-8.575-4.664-12.185 4.572-7.916-3.35-8.757-1.708-12.667-.74-5.496-14.245-14.96-12.346-10.54-.268-.23-13.119-8.613-3.186-8.05-4.51-7.721-6.305-1.44-3.153-8.041-1.104-1.114-11.891-12.026-3.775-3.653-7.888-7.648.61-5.068.593-4.92-4.545-5.933-4.853-4.373 1.358-10.605-.776-6.455-.025-.202-5.644-12.709-1.364-10.135-1.215-15.81z"/></svg>