<svg height="1000" width="1000"><path class="americon" d="M28.831 678.347l8.089 1.902 8.941 1.27 4.351-9.121 6.473.203.336.01 5.235 7.662 6.402 1.757 4.153-8.569 3.226-3.816 1.395-1.652-4.065-8.799 6.128-5.765.449-4.733.042-.443 1.644-9 3.874-6.762 2.72-8.111.672-2.008-3.996-4.065.878-5.562-4.123-8.774-.16-.342 9.287-9.828 5.59-7.111 7.446-5.087 8.4.055.22.001.452.218 11.243 5.387 9.784 7.14 7.217 2.556 10.005 5.038 6.014 4.849 3.52 2.833 5.135.17.823.028.958.031 4.189-4.524 2.909-7.869-5.23-11.28-4.703-11.333 3.86-7.385 3.139-9.344 6.028-3.015.326.138 6.967 2.932 9.884-6.927 15.507-1.442 11.865-2.675-.365-2.56-.553-3.877-6.984-7.225-.055-.244-2.815-12.578 3.74-6.48 9.285-6.623 4.295-8.602 6.958 3.031 4.277-1.022 4.132-4.174-3.829-8.4 1.766-4.417.506-1.265 6.112-1.76 7.581 7.457 10.445-2.17 1.217 1.445 3.69 4.379 6.81.902 2.423-7.187 7.165-3.85 7.914 1.115 4.694-1.943 3.74-1.551 10.417 6.05 3.311 2.42 4.027 2.938 1.811 1.32 9.081 4.339 5.048 5.467 3.718 6.282 6.155-9.11 2.04-7.334 4.218-6.803 4.015-.818 6.16-1.26 6.502-5.377 7.712-3.713.34-.164 3.616 6.4 6.817 10.093 7.739 3.804 1.414.728 3.817 1.961 2.075-8.325 11.07.844-1.72-10.182.643-10.864 4.142-.74 1.98-.356 4.747-6.192.059-.058 5.766-5.7 3.786-1.58 4.315-1.802 5.063 7.67 8.62 12.027 13.495 2.21 7.548 6.082 4.448-3.179 2.63-1.882 2.99-1.73 3.608-2.092 2.24-12.752 1.24-10.658.154-1.321 6.783-7.878 2.918-6.661 2.624.799 5.28 1.605 8.22-4.212 4.581-7.313 1.459-5.48 1.588-5.973 4.128-5.142 10.769-2.697 2.983-5.527 4.99-3.052.02-.032 2.106-3.427-1.896-6.172-.57-1.855-.287-9.418-1.198-8.34 5.828-3.475 7.16.33 1-.141 6.877-.98 4.428 2.877 4.446 3.858 1.747 1.513 4.863-1.217 8.992-7.146 6.106-2.641 7.016-3.045 12.678-1.965 5.294.594 1.07-9.968.535-1.315 1.443-3.554-5.302-2.27-4.088-2.522-1.605-.991 5.356-6.368-2.062-6.057-3.397-4.641-2.364-3.235 4.326-3.989 4.802-4.241 8.217-6.51 4.397 2.215 4.444 5.24 6.593 2.976 1.723.777 6.76-4.102 5.283-.44.873-.074.65-.054 1.495-2.22 2.242-.8 2.02 1.092 1.537 4.666 3.91 5.721 8.934 2.762.655 1.047 2.945 4.702 1.179 5.197 6.92 11.47-.004.89-.023 4.935.889 1.97 1.661 3.679 9.393 2.315 9.961 2.546.122.03 8.694-2.616 6.094 1.787 2.92 1.055 6.344 2.287 2.311 5.405 6.145 2.982 1.533 5.745 8.07 2.884 3.213 1.145 3.873-1.935.465-.233 1.774-5.625 11.155-3.84 11.343 4.694 7.757.961 6.921 5.748 4.226 3.477 2.602-2.234 2.9-2.493 8.104.99 5.145-3.277 1.814-4.925 8.205-5.973 1.39-1.374 2.146-2.12 8.168-2.371 6.398-2.24.923 2.19 1.485 3.524.455 6.186 2.686 11.288 5.006 4.722 1.44 1.357 9.115.459 6.222 6.224 1.457 1.137 5.732 4.47 3.4 8.391.021 6.332.019 5.569 3.377 4.35-.709 10.442-.292 1.266-1.432 6.191-2.841 10.395 9.88 10.666 10.955 12.85-1.469 6.022-.83 3.395 8.772 6.495 2.707 4.422 3.82 6.23 5.544 5.862.952 2.482 3.504 9.125 8.881 4.68 10.898 8.43 9.945 7.34 11.908.36-27.4 26.94-12.71 12.404-.632.67-4.78 5.058-11.474 3.917-12.65 7.26-.55.316-.854.62-19.419 14.055.885 8.397-3.311 5.448-8 3.003-6.449 5.45.856 8.31-2.146 3.792-1.38 2.437-14.446 6.063-7.914-.203-4.57 8.726-2.406 8.41-12.468 3.008-18.598 6.979-6.235 3.412-3.076.108-8.324.289-10.85 5.357-7.521 5.43-1.847 2.918-25.702.071-4.587-.078-7.175-.129h-.03l-30.19.23h-.017l-4.287-.008-30.1-.13-35.13-.617-.87-.017h-.007l-20-1.29-3.9-.294-15.29-1.169-22.708-.531-1.808-.046-.653.048-17.722 1.258-6.55.454-30.69-1.021-7.145-.26-10.748-.403-12.827-.926-13.375-.99-15.562-1.08-25.914-1.873-12.11-.908-5.53 2.151-1.343-.462-5.547-1.911-19.77.049-6.268.004-31.212-.45-6.824-.116-27.834-.542-1.488-.032-36.947-.896-6.683-.091-20.038-.31.672-4.755-20.301-3.036-7.376-.528 1.497 7.56 2.164 12.485-2.495 8.01-.364-.01-9.353-.231-45.609-2.855-2.88-.19-.56-.033-37.876-2.33-1.312-.084-.934-.06-16.371-1.074-31.083-2.622-16.902-.513-9.108-.293-15.372-.962L25 683.794z"/></svg>