<svg height="1000" width="1000"><path class="americon" d="M92.95 78.017l30.817 1.683 54.369 2.363 44.503 1.543 65.678 1.831 2.182.039 17.209.272.5-29.333.303-19.598.186-11.817 9.655 5.052 7.157-2.382 3.77.08 7.491 5.672 6.367 1.985 1.795 16.827 2.248 14.097 2.444 4-.129 15.743 3.24.026 3.587 18.357-.32 6.921-.956 8.02 7.797 8.272 11.469 5.91 6.499 1.202 1.715-.851 4.323-2.15 11.177 1.066 3.201 3.438.107 4.304 16.628 1.963 17.193 1.878 8.687.222 4.139 9.323-.976 6.947 14.774 1.466 11.782-2.145 9.88-2.8.223-7.311 9.72-2.264 2.414-3.452 14.611-2.786 6.855 2.637 5.64-.423 13.955-1.07 6.446 5.63 17.702 8.329 9.746-.86.569 5.472-2.529 6.632 8.69 3.868 6.345-1.393 6.341 5.199-1.099 9.936 5.966 8.747 5.398 11.757 5.647-3.423 1.787-6.04-.242-7.271 3.309-5.042 10.495-1.73 11.289.19 6.057 5.758 2.54 11.578 9.294 1.2 10.397 4.604 1.742.769 7.017-.124 2.996 12.551 14.194 1.06 2.222 8.642 8.063-2.567 13.655-1.186 9.043-2.805 9.448-9.518 12.292-8.524.308-.196 12.82-8.229 6.608-1.41 4.832 10.151 3.56 8.622 7.925 3.655 14.28-5.207 10.249 1.92 16.304-.814 19.056-2.765 11.578 3.01 6.8 10.182 11.556 3.922 12.16-6.345 13.324.747 14.353-1.74-6.418 6.902-10.88 4.718-7.724 5.933-5.597 4.754-13.463 5.787-4.992 5.442-10.174 3.907-11.932 6.19-14.216 4.959-10.255 3.722-12.019 5.98-11.35 8.274-9.109 5.699-13.52 11.664-15.762 15.693-12.573 14.12-11.571 17.038-12.703 15.453-7.196 8.108-12.32 8.54-7.21 10.544-9.773 7.483-5.922 6.718-1.34 1.517-10.607 7.312-11.33 9.74-5.148 4.991 5.81 15.457-3.942-.485-5.605-3.62-4.727.65-4.148 6.018-2.278 5-9.558.607.99 26.98.43 12.625.95 27.931.502 14.002.48 13.402-4.825 3.777-1.302 5.951-4.618-.457-6.3 3.02-2.436 4.83-8.185.733-3.799 3.99-8.395 3.798-7.125 6.8-4.095 7.978-1.714 7.4-5.357 8.81-1.635 1.222-3.216 2.4-1.62 11.572-.118.838 1.054 10.63 9.101 1.467 5.097.725 3.437 5.078 4.956 8.534 4.735 5.443-1.127 6.85-4.331 9.851-5.449 6.73-1.505 1.856-.132 12.216-.027 2.432 2.995 11.572.43 1.66-6.96 8.036 4.928 6.871 1.666 13.171-1.5 13.06-.009.075-.135 1.173-3.858 14.186 1.545 1.492 7.269 7.005 4.212 4.05 9.53 12.255 8.206 5.501 17.62 2.578 4.405-.265 5.326 3.028.342.195 3.021 8.512 5.537 4.913 1.566 1.388 14.426 4.593 3.176 1.401 14.48 6.364 5.887 6.976 3.409 14.16 4.754 5.36 4.637 5.218 11.863 5.262 8.939 10.23 9.132 5.673 1.687.357 14.243 2.991 2.162 2.722 8.447 10.609 8.485 10.178.45.911 5.9 11.9-1.102 7.904-1.378 9.852 3.06 10.799 2.746 5.726 2.43 10.518-32.777 1.811-14.369.75-14.32.717-11.354.544-30.594 1.361-11.89.489-32.419 1.273-12.507.446h-.004l-38.076 1.274-18.504.474-2.983.072-21.581.475-32.253.58-9.536.14-8.626.111-38.714.35-33.306.028-17.136-.054-6.278-.015-49.464-.337-2.364-.026-4.851-.061-36.077-.57-20.764-.326-8.006-.143-3.888-.074-41.75-1.03-3.185-.097-23.08-.757-17.445-.628-30.582-1.183.343-8.587 2.049-49.082 2.381-57.175v-.003l1.116-26.83 1.094-30.095.522-14.366 1.035-28.503 1.02-28.064 1.725-47.526.23-6.3-1.281-3.18-1.298-3.226-4.285-4.961-4.538-1.892-6.191-3.85-6.571-.634-3.836-4.522-3.306-6.953-3.956-9.498-5.797-8.43-.909-1.323-.673-4.163 3.155-5.499 9.54-7.26 8.42-4.616 5.114-7.7 5.15-5.505 2.098-8.897 1.358-10.22-.634-13.2.213-.857 2.464-9.948-3.674-22.136.09-16.108-4.876-6.501-6.319-12.678-2.966-21.21-4.1-10.442-.396-1.01-.073-.186.822-8.97.414-13.627 3.722-21.529-6.882-16 2.108-11.307-.297-11.148-.37-14.039-.163-6.257-.635-26.208.608-9.365.752-11.61-2.459-12.424-1.017-3.739-3.194-11.77-6.477-16.198-3.662-14.356-2.614-14.948-3.356-10.538-3.719-12.479.134-.735.586-3.215 1.84-10.111-.164-13.799.578-13.618-.2-16.162.176-1.33.066-.495.833-6.275 5.174-13.076-1.843-7.33-2.777-9.49-2.823-15.183-3.538-12.567z"/></svg>