<svg height="1000" width="1000"><path class="americon" d="M25 75.191l31.69 2.302 21.72 1.482 5.228.348 18.189 1.163 18.195 1.122 21.02 1.283 12.956.763 25.663 1.37 13.404.681 8.565.266 21.934.64 10.728.251 19.297.416 10.338.076 23.872.124 9.104.081 24.2.165 5.531.079 24.95.306 3.958.041 28.664-.03 5.266-.113 21.29-.497 31.03-.13 3.815-.025 6.67-.183 25.172-.741 14.068-.369 23.37-.667 32.333-1.22.522-.021 28.7-1.661 1.725 1.76 4.333 4.415 2.036 5.006 7.144 2.033 1.562 7.01 6.205 6.94 6.212 4.977 2.98 5.52 10.875 4.077-6.724 10.194-3.035 9.523-.496 3.839-1.124 8.696-.707 5.467 2.252 16.62 2.062 10.62 6.74 13.073.039.212 1.216 6.768-.783 11.28 5.393 4.32 5.163 5.985-.324 5.231-.334 5.389 8.798 7.59 4.21 3.624 13.291 11.966 1.234 1.108 3.822 8.297 6.744 1.132 5.235 7.875 3.857 8.3 14.375 8.287.297.226 13.678 10.367 15.951 14.917 1.117 5.755 2.579 13.263 4.072 9.036-4.338 8.634 5.667 12.572 2.385 8.94.697 2.613 9.055 7.966 5.66.591 7.646-7.497 4.26-9.533 2.386-.008 7.827-.033 14.02 6.168 3.167.62 6.622 1.29 3.359 2.083 13.707 8.475-.294 7.974-6.682 6.324-.025.038-5.83 8.72 2.376 6.95 2.152 4.887.065.148-.133 8.792-8.724 12.58-.814 2.575-.726 2.291-1.32 4.17-2.103 10.64-7.024 9.687-.366.503-.934 1.286-2.904 10.064 1.826 15.908 1.954 3.015 4.416 6.808 10.427 9.493.04.036 5.12 5.905 1.92 1.052 11.81 6.45 6.788 6.185 10.872 7.866 7.772.31-2.414 8.843 6.288 6.93 1.517 1.67 10.192-6.604 10.44 8.522 12.782 6.9 1.52 3.233 3.132 6.658 11.5 6.046 10.359 4.475 2.931 13.04 2.262 8.187-.441 1.896-.484 2.076-1.27 5.445 6.646 11.367 7.216 10.535.181 9.494-6.47 4.293-3.058 2.025-2.8 8.093 5.228 3.612 1.894 1.308 2.766 11.951 11.46 15.13 4.27 11.03 7.834 2.137 7.508 2.04 9.532 4.233 9.277.89 5.311 4.184-.49 2.463-1.985 9.953-3.544 8.538-.585 10.838.017.527.182 5.638-6.347 7.703 6.104 9.745-1.394 2.153-3.224 4.976-3.6 10.708-7.799-1.107-7.311-8.231-.397.038-7.649.733-3.752 11.388-10.715-.152-9.806-1.025-3.692 6.988 5.212 7.224 3.078 6.561-2.787 7.96 5.201 7.528-1.52 6.355-3.349.272-8.325.67-1.371 6.408 8.95 5.401-6.854 7.771-11.487-1.325-1.98 4.463 10.161 6.885.6.406 5.234 8.627-7.381 6.374-5.392 4.228-1.3 11.685-5.97 4.025-25.434 1.437-8.807.464-21.867 1.114-28.021 1.441-12.077.593 4.085-9.77 6.308-12.575 8.701-5.31 1.95-8.555 4.612-2.848 4.89-3.023 5.776-9.879 7.37-7.314-.363-10.054-.626-5.46-9.967-4.958-1.9-8.288-2.142-6.532-10.022.296-41.035 1.086-12.225.413-28.392.89-2.783.09-35.023 1.048-16.27.452-41.72 1.015-.334.003-6.427.043-28.874.136-4.46.078-46.99.682-20.182.19-4.48.037-29.98.177-26.815-.062-5.263-.022-31.199-.087-9.976-.053-2.274-.014-40.766-.355-25.106-.413-3.28-.06-16.737-.323-23.575-.5-17.369-.41-24.968-.54-13.852-.333-17.666-.54-42.565-1.455-38.456-1.36.828-21.08.37-10.294.66-18.344 1.712-43.137.392-10.735.7-19.163 1.354-32.974.196-4.761.354-8.637 1.669-44.794.134-3.602.063-1.678 2.649-56.234.398-9.051.186-4.224 1.435-32.617 1.03-27.672.607-16.27v-.007l.618-12.81 1.675-34.802.023-.474.808-19.441 1.02-24.542.495-11.345.55-12.628 2.463-7.483-1.408-.144-3.097-.318-7.762-5.347-8.79 2.22-6.828-5.936-1.045-.91-3.394-6.646-4.177-6.02-6.785-9.363 3.218-12.375-8.038-1.673-2.502-4.105-2.147-3.527-9.043-10.2-5.494-7.312-2.921-3.894 5.344-3.898 4.276-3.138.588-3.343 1.242-7.067 9.494-5.657.327-6.651 10.001.272 5.619-4.384-1.32-4.311-.564-8.622-.073-1.11-6.527-9.308-3.011-4.514-5.818.1-3.529.059-9.006 6.05-8.168-6.487-11.872-9.329-10.184-10.681-5.333-5.572-4.745.153-3.993-7.935 3.19-6.79-4.928-6.181-6.282-8.919 1.619-8.51-10.04-4.69-.062-.675-.027-.297-.44-4.855-6.049-3.7-7.433-2.718 2.183-7.79-.852-5.419-4.106-12.36-1.11-5.517-2.092-5.557-.24-.636-5.861-.117z"/></svg>