<svg height="1000" width="1000"><path class="americon" d="M211.926 752.107l9.678 1.546 9.593-5.67-4.328-9.431.958-10.297 4.029-9.546-.78-11.84 4.876-6.974 8.865-2.094-3.117-8.312-.866-6.536 11.634-4.375 3.004-17.423.134-.028 10.438-2.218-.303-.501-6.285-10.394 2.565-8.543 9.293 2.082 7.943-6.929 1.57-1.37 9.253-8.308.89-10.501 10.126-2.476 6.307-7.045.41-5.287 7.666-9.857-.766-1.384-11.064-20.043 19.603-.828 7.534-13.412 4.688-11.452-10.861-2.144 3.757-14.31-14.382-3.011-.923-14.576 8.187-.645-5.96-11.195-.088-.165-.967-1.077-3.91-4.36-2.788-16.7 7.09-7.75-9.29-3.047-7.082-7.258-.49-7.166 4.098-7.064 11.27-7.515-.014-9.645-10.048-8.614-5.086-4.747 1.097-1.371 6.65-8.318-9.704-8.827 4.74-7.072 7.963.88 3.498-9.558 2.802-10.123-2.66-8.026-6.406-1.445-2.393-13.494 4.85-8.504-5.36-6.782-3.758-6.96-2.708-6.055-4.093-7.211 1.718-3.381 2.859-5.632 9.59-6.526-7.495-8.02 12.583-1.531 4.396-10.388-10.838-6.638 5.274-5.212 4.212-.258 9.442 2.705.448-8.227-4.387-3.648-1.12-10.402 5.762-5.795-1.386-6.988-8.42-3.614 6.605-4.46 6.954 1.726 4.131-4.397 6.078-3.356 8.123-1.542 3.055-8.714-4.185-4.479-7.203-3.007.276-1.408.128-.659 1.085-5.545 7.061-2.22 1.968-4.503-1.744-7.799 8.795-2.1 4.512-8.313 9.666-1.725-1.81-10.412 5.838-4.038 10.896 5.698 3.192-9.268 10.65-5.891-1.21-8.475 2.486-12.742 3.326-8.313-5.906-9.3 2.27-3.432 3.762-5.699.762-7.453 6.609-11.975 5.133-4.615 1.66-8.873 8.84.047 1.006.005 14.037-6.86.327-.22 9.77-6.548.945-5.83-10.125-11.302 81.16.792 5.617.021 5.572.018 12.635.027 33.049-.008 12.988-.106 24.374-.245 27.112-.346 1.486-.018 30.636-.424 5.752-.091 49.991-1.01 14.109-.245 2.677-.048 16.639-.32 9.16-.251 7.526 13.936 9.117 5.591-4.43 52.172-.64 7.938-1.866 23.009-2.246 27.562-3.744 45.59-.453 5.486-5.18 61.084-.768 9.004-2.506 32.184-3.773 48.068-1.614 20.416-2.919 37.835-.947 12.222-3.33 42.709-2.066 26.33-4.204 53.152-.92 11.564-.387 4.448-3.008 34.537-2.08 23.745.156 7.776.41 20.412 1.222 18.36 1.006 15.11 2.451 36.845.193 2.89 4.095 61.013 1.506 23.104 3.43 52.405.05.764 2.24 37.672 2.287 34.832-2.463 5.534-6.356-.998-4.282 5.656-8.849-3.855-10.26 2.007-5.466-4.498-8.826-1.48-6.305 3.801-8.041-.66-9.277-1.796-3.198-.62-13.102-6.405-13.37.688-19.337 4.765-17.877 7.567-18.614 4.872-2.176.737-6.527 2.206-13.812 9.668-3.934 8.112-4.917 2.738-8.453 2.196-14.457-7.28-4.62-18.309-7.675-21.223-3.7-8.028-2.168-4.708-13.646-14.852-5.161-18.535-.73-4.965-1.712-11.683 7.705-18.61 7.178-18.471 3.77-17.834.005-.023-18.426.03h-10.535l-61.905-.183-14.783-.1-.21-.002-34.254-.379-3.355-.043-32.755-.481-11.464-.208-40.053-.826-19.831-.468-8.193-.205-70.56-2.156 1.522-1.083 11.884-8.473-5.587-8.544-4.302-9.198 5.585-10.802.172-.332-8.973-8.407z"/></svg>