<svg height="1000" width="1000"><path class="americon" d="M251.674 696.58l7.461-6.719 7.916-15.16 9.867-11.202 5.782-19.86 5.634-5.797 7.944-8.183 7.535-5.75 11.763-8.99 3.004-2.298 14.581-.888 10.433-2.195 11.399-2.408 2.979-2.09 8.535-5.993 12.552-4.555 2.418-.88-.522-19.953 5.015-7.129 17.817-10.283.335-.194 20.839-17.409 5.134-3.57 12.222-8.512 20.509-5.314 11.397-16.28 16.882-2.008 12.936-8.687 1.397-.94-7.978-12.108-3.65-5.544-18.856-16.696-9.677-14.06-13.887-14.976-7.34-9.493-5.292-6.85-6.928-16.614-16.39-1.536-9.276-4.985-4.187-15.285 2.55-10.212-4.635-26.121-17.16-10.83-14.82 2.333-.347-9.034-.247-6.422-.432-11.268-.087-15.295-.085-15.04 4.638-18.774 19.757-9.95.65-.328 5.34-22.55 7.608-14.131-9.362-16.002-7.372-15.065-2.835-5.8 18.448-14.782 16.29-16.424 6.77-12.304 2.774-5.048.922-1.679 21.885-17.44 11.153-27.907 15.142-26.445 16.145-17.07L513.685 25l69.118 42.186 26.632 17.044 18.884 12.041 19.794 11.383 6.18 3.49 50.667 28.487 43.365 23.49-3.658 17.8-3.7 12.828-.435 1.509-3.617 12.52-.897 3.101-2.68 6.615-5.235 12.908-.641 1.582-.9 1.716-3.885 7.417-8.375 15.96-2.776 7.483-.564 1.522-1.563 4.21-2.93 7.888-1.666 4.48-.099.267-5.94 7.885-.94 1.246-4.622 6.128-21.649 2.358-3.09.335-8.677 5.3-.625.382-.303 14.89-3.785 13.31-9.547 5.356-3.257 16.644-.273 14.717 11.054 6.15 5.552 3.085 14.553-2.803 14.502 1.338 18.043 9.52 8.246-20.513 6.322-2.19 6.545 26.516 1.956 23.593-2.738 26.83-5.46 24.411-8.3 36.979-1.341 7.93-8.212 48.417-3.655 26.75-3.671 43.576-2.97 17.096-.02.125-26.578 51.718-29.972 46.13-.17.262-3.78 14.29-18.884 27.44-13.832 16.295-33.18 18.633-5.837 5.505-12.19 11.478-20.008 23.21-7.592 12.702-13.145 23.67 2.587 6.662-22.4 31.51-8.984 14.649-17.435 17.947L439.725 975l-10.357-1.989 3.805-26.8 16.025-33.964 5.529-22.158-5.843-12.383-3.048-.705-25.303-5.876-15.37-9.555-12.94 1.649-14.117 11.293-9.028-16.132-13.848-15.974-9.626-9.144-12.471-2.702-12.444-16.01-8.701-6.154-13.16-12.643-5.369-3.782-7.62-5.374-6.734-14.521-21.513-8.838 2.765-14.735.353-14.614 4.788-16.726-9.35-7.222z"/></svg>