<svg height="1000" width="1000"><path class="americon" d="M37.326 509.309l.877-17.087 1.494-29.117.09-1.753 1.074-20.947 1.026-21.307 1.577-32.787.11-2.3 1.72-35.756 1.838-37.795 1.306-26.864 30.112-10.914 28.1-15.283 3.089-7.258 7.612-4.566 10.378 2.507.13.031 15.331-8.729 12.517-5.395 13.083-6.741-1.047 29.05-.85 27.792 23.476.854 21.588.73 64.18 1.565 12.205.244 10.023.174 50.3.701 45.04.696 5.766.073 10.086.054 27.389.088 31.092.261 12.819-.05 21.844-.13 94.04-1.183 6.542-.082 6.07-.08 57.558-.97h.077l13.208-.078 1.699-.011 49.415-1.31 6.192-.184 36.693-1.184 49.535-1.95 10.912-.468.936-.041 18.344.42 2.93.064 8.13 9.245 5.082 12.811 11.606 4.234 6.934 2.268 5.305 1.73 6.492 7.795 3.801 10.275 1.8 23.244.881 7.994.664 6.017 10.51 16.074 14.985 7.92 14.613 4.302 6.88.4 3.398.196 7.122 14.066-10.155 4.177-8.268 9.793-7.434 14.868-5.217 15.542-11.384 10.172-.45.942-1.356 2.835-3.309 6.91-8.368 9.447-9.594 8.619 1.723 3.072 4.479 7.979 5.592 8.428-3.71 7.93-2.214 12.449-.344.198-10.455 6.028-1.949 10.37.51 8.19.518 8.329.583 6.125.333 3.49.467 4.91 8-1.727 9.683 5.37 3.33 14.087-1.074 5.64 2.752 8.198 5.207 2.43 8.976.33 4.286 8.836 3.095 3.568 4.292 4.945 8.027 7.729 5.706 7.36 10.787 8.51 2.16 2.908L975 666.2l-.732.555-6.778 5.132-9.134 1.616-5.705 9.221-11.008 3.53-6.395 5.014-2.686 2.104-10.814 10.129-.177.116-9.388 6.153-2.511 4.039.902 10.854-1.29.554-6.698 2.87-4.465 3.53-1.558 1.23-6.136 1.665-5.616 1.519-7.917.935-1.565 1.345-6.131 5.262-3.928 3.366-11.115-5.37-14.742-1.533-3.883 1.14-11.146 3.26-8.672 6.566-5.675 7.572-3.101 7.787-2.44.09-3.867.146-53.305 1.852-16.076.497h-.034l-1.022.03-29.541.813-24.799.602-24.108.52-11.754.297-33.613.766-1.36.019-35.886.417-3.779.036-36.179.296-1.6.01h-.022l-49.35-.12-50.64-.307-3.81-.024-40.155-.348h-.04l-6.205-.074-56.547-.861-13.962-.234-20.25-.378-18.852-.392-57.164-1.153-13.875-.334-47.298-1.498-25.073-.988-20.696-.868-5.638-.245-56.875-2.494L25 761.607l2.569-51.47.577-11.572 1.511-30.556 1.92-38.852.603-12.242.815-16.525 1.688-34.288 2.098-45.074.482-10.377.021-.45z"/></svg>