<svg height="1000" width="1000"><path class="americon" d="M25 223.52l6.79-7.099-.448-7.189 7.948-7.614 6.58-6.983 10.315-7.012 12.17-9.111 3.436-7.084 3.475-10.67 19.706-5.523 21.8-6.154 22.418-6.29 4.094 1.016 3.014.747 12.057-10.415 21.17-4.585 8.819-1.922 15.06-4.769 8.743-5.719 11.271 1.181 11.155 1.157 15.322.759 32.52 1.541 1.693.078 13.62.855 18.448 1.132 20.544 1.226 53.076 2.995 24.556 1.599 7.663.488 55.327 3.37.115.627 1.055 5.713-4.164 11.71 3.198 6.775 20.731-14.857 5.574 7.654 12.779 17.508 11.42 15.6-2.874 26.624 33.455 1.007 12.528.352h.003l47.144.563 47.53.373 29.243.002h.644l45.219-.145 3.45-.018 42.685 40.637 2.347 2.224 18.5 17.485 58.201 57.14 53.043 50.489 33.113 31.38 7.22 6.813L975 434.035l-25.816 9.053-19.6 12.51-17.472 15.723-14.486 16.32-10.989 16.66-6.293 9.518-10.874 12.306-9.632 19.518-4.863 18.618-3.044 21.632 1.869 7.52-8.34 12.559-11.694 8.907-3.389 2.577-7.623 4.987-1.65 9.628-3.905 10.66-12.919-1.704-12.09 3.638-8.088-8.05-11.65 7.254-5.067 8.384 7.724 10.851-6.254 7.047-18.827 11.961-6.14 10.878-18.52 9.96-10.077 7.815-3.176 12.287-16.87 11.113-6.48 8.312-15.574.85-14.512 6.222-8.437 7.785-11.47 3.95-.627.434-18.087 12.482-9.934.07-5.972-1.427-10.224-2.45-1.328 2.912-2.488 5.454 5.65 12.285 4.828 8.49-4.202 11.887-17.26 9.712-11.704 3.344-9.98-4.322-14.386-8.26-10.558 8.068 8.057 6.528 11.942 11.873-10.736 13.764L523 864.52l-9.545 2.487-1.794 5.143-3.737 10.706-11.929-5.67-13.108-10.585-6.52 4.052-15.482-7.055-1.183-15.586-5.769-12.21-1.21-2.566 5.289-9.377-.97-14.239-8.253-12.225-4.372-6.486.09-13.026-16.295-19.303-1.9-.73-9.085-3.492-11.82-9.254-2.072-1.625.772-11.616-3.664-20.787-.08-1.255-1.338-21.081-8.683-16.204-7.097-11.181-.32-17.27-8.422-7.172-11.57-9.871-2.88-1.16-8.554-3.446-19.395-11.96-1.326-11.058-.184-1.543-16.61-9.454.028-1.328.296-13.647-17.28-9.867 2.824-16.15-1.028-12.588-12.834-7.77-4.981-8.477-2.27-3.866-15.387-12.508-1.673-.58-5.53-1.92-3.868-1.344-7.325-11.456-3.076-7.316-1.441-3.432-2.95-7.03-16.532-21.808-20.97-11.817-15.828-17.202-8.67-2.253-1.148-2.72-5.373-12.733-.599-1.097-9.001-16.51-13.893-16.435-3.424-15.535-1.71-7.77-5.526-10.583-1.057-2.027-8.022-15.124-3.339-9.883-5.694-17.328-10.128-2.803-12.976 1.652-.732.093-10.279-5.332-.433-.445-8.771-9.032-1.129-1.452-9.688-12.482-12.902-5.691-10.75-8.756-11.53-9.33-.222-1.041-1.569-7.38z"/></svg>