<svg height="1000" width="1000"><path class="americon" d="M48.21 366.54l2.196-.027 1.377-21.033 1.006-14.602 1.406-20.424 1.635-25.678.759-11.119 2.148-31.781 1.19-18.962.158-2.854.581-10.466 44.154 2.944 25.945 1.57 24.863 1.425 25.591 1.364 6.16.313 7.104.354 20.158.946 17.695.787 25.606 1.072 27.677 1.037 9.992.343.238.008 23.466.74 27.303.773 22.091.5 29.741.567 39.671.55 28.792.234h.018l1.432.011 23.621.134 16.35.128 31.283.014h.027l18.646-.02 12.305-.157 13.917-.05 16.723-.238 29.012-.516 10.026-.176h.013l32.37-.597 11.392-.25 24.268-.473 39.572-1.383 7.18-.26 3.372-.125 23.203-.908 26.954-1.244 36.122-1.946 16.796-.975 59.548-3.614-.24 10.533-1.14 9.27-4.616 6.164-4.334 8.391-8.036 5.628-8.879 8.438-2.59 5.936 1.15 4.153 1.07 1.243 6.829 7.913 5.078 9.202 4.134 6.691 4.4 4.163 6.743-.09 6.716 3.216 4.818 1.414 4.906 4.559 1.677 3.13 1.655 3.085.472 6.422 3.562 48.436 2.108 28.597 2.142 29.042 1.082 14.637 2.266 30.658 1.882 27.345v.003l4.016 58.264 3.452 50.007.62 8.746-17.812 1.213 2.103 5.083-.777 6.06 9.466 7.577.113 6.508-.201 8.017-5.85 1.916 2.82 5.5.865 1.685 4.106 4.186 5.727-.413 2.98 12.99 2.758 4.809-1.202 5.416-.576 2.59-6.279 5.136 2.75 5.735-3.09 4.885 2.685 2.92-4.702 6.591.314 2.36.677 5.082-4.393 8.96-4.914 8.58.26 9.148 4.56 6.074 8.644 7.412 6.791 13.164.447.865-1.546 6.738 2.037 1.172 4.233 2.943-6.908 1.832-3.312-4.468-10.78 1.445-2.304-3.434-4.307-6.43-6.748-5.928.84-9.51-10.107.002-3.321-5.891-.735-.278-12.761-4.845-7.25 2.025-6.56-5.058-1.209-.934-13.37-.834-4.397-3.101-6.364-4.499-3.29-5.435-8.105-1.685-4.776 1.924-9.532-1.203-4.194 3.6-4.11-.461-3.895-.44-10.391.095-4.468.97-8.1 1.75-12.602-1.837-7.102-.889-2.264 2.215-3.105 9.291-5.418 5.214-10.556 1.361-8.994-7.175-5.614-5.148-.572-.172-10.01-3.022-6.075-2.134-3.578-1.826-9.926-5.08-6.038-1.635-5.713-5.644-2.63-5.866-43.38 1.306-50.47 1.11-34.723.542-39.245.396-43.27.196-99.615-.615-28.274-.524-106.066-3.036h-.008l-40.463-1.603-47.567-2.172-25.89-1.325-58.906-3.39-3.589-.217L25 701.641l3.391-48.904 2.158-31.726.292-4.301.633-9.315 3.468-49.608 3.431-48.256.468-6.585.828-11.655 3.76-53.67 1.405-20.083z"/></svg>