<svg height="1000" width="1000"><path class="americon" d="M26.269 599.676l4.052-1.295 7.69-.908 2.124-5.417 2.712-4.934 7.632 1.941-.61-6.348 1.065-5.229-.105-6.38-7.395-3.843 5.227-3.74 4.282-7.73-2.308-6.54 4.755-1.481 2.723 1.246 2.933-5.526-2.283-5.478 1.371-7.234 8.651 1.721 1.673-2.427 1.752-6.36 6.319-2.166-2.261-3.435-5.97-6.43 5.016-7.763 5.608 1.339 7.622-4.3 8.293-3.14-.365-5.213.96-3.483 8.421-2.39-.112-1.18-.231-2.438-3.587-3.766-4.632-7.439 4.598-2.428 1.837-8.29 4.2-2.62 5.793-4.007-3.091-6.6-.4-.338-6.766-5.73 1.767-3.053 8.148 1.84 5.524-5.052-6.012-4.57 1.48-4.498 6.033.162 2.426.064 1.583-4.447-3.154-5.81 2.617-5.503-1.704-4.951 13.194.564 7.813.097 14.497.155 26.689 1.725 14.05.647.802.036 1.127.05 32.506 1.366.48.019 2.471.115 39.141 1.693 8.02.044.313.002 2.007-6.906-2.06-10.667-1.408-6.455 6.331.331 17.452 2.27-.498 4.087 17.181-.062 5.73-.03 31.684.167 1.276.003 23.866.016 5.85-.01 26.76-.116 5.373-.103 16.944-.358 4.784 1.55 1.158.374 4.706-1.931 10.395.586 22.24 1.195 13.354.68 11.478.638 11.009.592 9.217.178 6.127.11 26.318.398 5.607-.49 15.168-1.354.56-.05 1.55.01 19.468.105 13.122.767 3.347.191 17.16.8h.006l.744.002 30.116-.007 25.795-.345 3.674-.057h.015l25.867-.652h.025l6.15.002 3.932-.001 22.024-.445 1.54-2.528 21.954-.87 21.14-.91 31.51-1.358 16.626-.78 23.85-1.672 13.141-.96 20.822-1.32 5.472-.359 7.481-.498 3.009-.21 22.836-1.651 1.013-3.046 10.341-.597L975 379.682l-3.04 3.458-1.863 7.075 1.244 9.21-3.627 7.665 1.238 3.14 2.633 6.672-6.85.201-7.02-.3-7.646 6.723-.967 2.058-1.494 3.177-2.418 5.135-6.409 14.54-5.409 2.923-.04.004-5.065.547-1.803-4.176-7.881-2.52-.931.771-4.693 3.882-3.535-.55-5.185 2.84-6.525 4.755-.721 1.466-4.588 9.315-4.51 3.612-5.212 4.166-5.974-2.396 1.226-7.07-1.212-1.442-2.685-3.197-10.176 6.595-5.719 3.838-.545 5.503-2.902 4-5.07-2.872-3.515 2.058-1.777 1.039 1.614 7.001-3.754 6.64-2.941 4.484-1.2 1.827-7.736-.245-5.253 1.878-6.97 2.114-3.755 5.348-6.209 1.594-.083.163-.844 1.65-3.25 6.354-5.537-.08-7.844 7.101-3.345 1.293-4.793 5.668-9.902-.06-7.218.158-1.07.12-11.979 1.318-8.221 6.19-7.286 6.52-3.94 2.009-.626.319-1.551.789-5.132 6.356 1.77 4.797-3.254 3.304 1.905 7.086-.602.523-7.357 6.39-8.97 1.257-5.169-3.678-6.404 6.026-.275 2.85-2.881 29.766-20.925.754-12.572.349-11.845.386-5.413.162-3.873.113-5.684.16-12.933.4-.322.01-7.305.213-24.588.756-1.398.04-9.657.391-2.353.093-10 .066-14.637.068-28.954-.012-50.045-.33-.838.004-16.672.04-35.33-.34h-.002l-5.887-.167-41.873-1.344-.662-.024-.825-.023-42.708-1.378-2.116-.076-25.355-.875-14.87-.44-1.689-.053-22.671-.976.269 1.702-6.49-.19-11.781-.44-1.896-.073-9.989-.393-35.398-1.297-4.072-.167-21.683-.937-1.052-.047-19.187-.853-17.245-.816-9.19-.454-23.368-1.34-8.932-.534-3.94-.24-3.97-.244L25 604.115z"/></svg>