<svg height="1000" width="1000"><path class="americon" d="M221.759 403.124l5.175-21.846 1.404-5.934 13.806-26.012 9.971-11.188-.219-2.376-1.768-19.2-2.833-19.352 4.16-10.58 8.326-23.752-5.336-27.523-10.106-16.14-4.225-6.759-1.319-2.11-6.365-21.506 7.569-33.07 2.568-20.807 7.037-20.929-2.179-2.444-6.796-7.63-3.953-12.607 12.188-24.73-1.404-21.666.674-16.543 43.706-.347 6.488-.062 35.22-.381 32.433.408 102.591 1.293 8.144.836 6.31.645 53.303.696 94.263-1.306 31.372-.81 5.01-.185 59.61-2.322 23.762-.97L781.844 25l-8.522 15.495 11.352 26.088-7.863 12.898-13.333 31.283-16.003 24.158 13.015 33.396 9.92 15.325 2.398 19.828-12.386 13.183 2.754 18.91-19.29 13.924-12.684 19.854-20.852 7.54-4.8 1.73-11.539 19.497-5.513 2.203-11.199 4.467-20.432.13-16.785 5.52-12.818 13.713-2.06 18.61-1.888 25.598 2.34 10.35 5.29 23.356-11.143 28.433-1.19 1.753-.114.168-10.765 15.842 3.403 17.577-18.742 31.607-3.804 27.05-8.297 14.635-3.116 5.49-18.658 16.499-13.106 46.517-1.162 1.117-13.758 13.212-.261 33.494-4.69 26.774-.007.034-4.837 27.532 3.364 17.601-5.658 23.716-3.604 12.775-2.064 7.308-2.89 22.491-.418 3.246 5.166 27.841-8.17 17.713 3.173 9.87 2.159 6.707-14.478 15.393-12.074 5.335.278 23.79-7.51 13.255.678 3.407 4.436 22.24 19.067 18.164L508.071 975l-17.89-.617-89.801-3.387-16.945-.528-20.257-.653-27.139-.914-1.309-.046-36.71-1.31-37.592-1.427-7.707-23.489 3.911-13.113 2.002-46.005 1.575-36.315.094-2.171 5.663-116.056.984-20.277 4.02-71.184-14.83-20.746-10.487-17.304-20.759 23.728-8.604-12.854 3.474-24.607 6.475-16.909 10.062-22.263 3.202-7.099-9.311-15.735-2.273-3.846 5.17-24.025-9.744-22.611-.785-18.919 1.771-14.816-9.005-12.979z"/></svg>