<svg height="1000" width="1000"><path class="americon" d="M205.268 246.694l19.576-1.953 6.089-3.488 5.172-10.441 4.906-1.299 13.543 8.68 8.167 14.969-6.964 9.85 2.933 7.61-1.33 9.426-4.736 4.232 1.268 9.83-8.377 1.507-6.154-4.137-12.882-4.15-11.61-8.591-6.413-15.37zM27.767 287.91l8.58-.16 12.053 7.516 18.541 13.62 15.054 4.617 16.994 9.684 5.561 7.334 19.968 4.34 17.912.72 6.654.413 14.228 2.844 12.647 5.533 14.984 2.68 8.978-.333 11.68-9.676 8.82 10.293 7.105 5.664 6.942-1.108 4.29-1.805 9.377-3.96 8.68-1.197 7.046 7.43-1.037 15.433-.25 7.666 5.604 9.486 2.036-.284 2.088-.291 5.297-4.398 3.316-2.758.662-5.17-7.418-6.443 1.63-14.098-3.76-9.51-9.05-5.751-4.359-11.993 5.772-9.565 5.422-17.021.222-.698-2.358-10.805 4.932-9.247 1.314-10.254-2.658-9.177-4.27-14.803-.66-11.869-1.091-8.69-6.803-8.244-2.759-10.405 7.816-10.434 58.61 2.162 17.656.611 40.125 1.902 41.16.39 31.162.167 31.821.435 15.574.154 39.387-.056 43.394-.022 62.88-1.046 37.664-.842 34.142-.968 74.003-2.742 22.51-1.009 45.602-2.354 20.542-1.043 18.627-1.005 27.24-1.584 1.664 26.874 2.073 33.441 2.481 41.369 2.72 52.76.897 14.068.771 12.094 2.744 43.004 4.4 65.745 1.278 19.062 1.253 18.671.32 4.91 6.841 104.926.822 12.583.933 8.27.317 2.804-2.716 10.367 8.736 8.552 4.69 8.71.821 9.645 5.216 4.856-1.091 5.23-5.118 10.766 5.209 3.985L975 720.491l-54.955 3.329-15.853.703-15.454.65-14.409.572-32.638 1.582-2.405.11-46.589 1.964-30.03 1.098-8.933.3-38.862 1.42-9.14 7.74-8.016 4.864-16.532-.872-13.434 3.622-8.497 1.696-7.002 1.39-10.618-3.275L638 748.51l-8.558 11.506-16.739 1.934-8.244 1.789-12.307 2.65-4.245 2.341-8.89 4.89-8.99 2.244-8.736 8.618-9.043.896-15.427 4.039-10.668-.11-2.252-.025-10.8-8.45-5.548.116-2.227 1.75-4.681 3.673-21.13 7.932-5.103 5.158-2.332-.951-3.793-1.55-17.909 1.378-4.8 5.726-7.855 1.652-3.899-11.823-15.38-6.348-10.912 1.807-2.13-.951-10.338-4.63-1.3-.584-17.219 3.536-8.505 1.81-9.602-2.541-7.142 2.267-4.422 5.562-2.968 1.325-3.584 1.597-6.732 5.084-12.624 5.52-10.46.731-8.454 4.738-1.782.996-8.739-1.01-6.028-5.25-7.503 1.974-6.677-3.831-19.075-5.56-11.695-6.74-2.183-3.415-2.15-3.366 1.39-8.704.878-5.498-3.918-9.397 1.272-7.386.517-3.005-2.982-8.296.07-8.745-4.87-9.906-5.451-12.79-7.161-4.146-4.955-5.483-13.513-9.963-6.277-.984-5.921 2.933-8.706 4.298-10.424-.81-.974-.076-7.073-6.805.876-8.548-6.084-7.535-8.578 1.324-15.099-2.285-3.475-7.16-3.529 2.304-4.123 2.69-5.704-1.895-9.141 7.346-4.144-1.298-5.242-6.04-1.706-2.716-14.136 3.427 2.722-10.606 2.957-29.873.109-24.769 13.497-.135 5.028-6.224-5.904-7.82-12.762-4.639-1.225-10.724-.342-3.007-3.372-17.305-4.865-4.08 2.187-12.104-.343-29.366-.692-2.945-3.491-20.567-9.174-12.89-1.841-32.018-.124-2.172-4.846-26.371-6.126-13.98-7.205-13.05-8.122-8.403-1.374-1.425-4.521-13.99-.361-15.151.484-8.768L25 329.11l4.623-11.484 3.545-13.352z"/></svg>