<svg height="1000" width="1000"><path class="americon" d="M30.953 670.39l3.126-9.77.639-1.999 2.526-16.708-4.857-7.447.71-8.964.804-10.19 6.3 4.581 10.19-2.227 12.194-2.679 12.82-1.54 11.394-3.265 4.212-11.612 2.609-15.878 2.313-4.812 1.632-3.398 10.751.808 8.642-3.946-1.671-12.778-2.403-25.164-1.208-10.56 9.395-5.203 5.729-19.974 7.298-13.55 1.99-3.699 9.428-10.166 6.724-2.738 12.365 9.306 8.008 16.007 13.827-3.745 10.147-8.443-3.084-14.868-2.578-10.882 11.188-4.747 1.42-.603-1.43-18.497-.069-.904 6.137-6.395 1.929-2.012 6.644-13.387 12.36-.169 9.331-.047 1.298-13.502 10.974-10.338 9.132-8.78 8.252 3.746 3.472 10.67 4.47.804 4.36.782 18.973-10.72 12.176-9.953 11.011-4.508 1.405-2.046 8.758-12.776 7.41-6.962 17.935-16.901 14.943-13.713 6.85-12.09-1.085-1.833-6.485-10.958 8.56-9.225.172-11.358.161-.708 3.848-16.925 7.372-7.736 4.61-5.05.391-15.448.29-11.45 5.826-17.581.645-1.364 3.466-7.341 7.439-15.785 7.122-12.92-4.678-20.034.791-2.38 4.196-12.636-3.23-18.105-8.516-15.199 7.591-9.17 8.096 1.08 12.01-5.717.067 39.565.032 19.067.023 14.124.073 44.822.056 35.247.017 13.348.072 59.365 18.594.003 65.568-.47 6.5-.05 23.856-.212 28.896-.33 54.488-1.035-.144 46.786.548 46.351.207 34.27 11.877-5.75 13.285-12.646 13.238-8.133 3.987-4.208 17.886-18.925 13.89-18.063 4.482-.22 6.14-.304 15.29 7.746 2.41-9.806 16.9-18.92 14.531-21.31 6.334 6.881 6.525 13.09 10.01 2.495 12.387 3.072 23.35.12 1.397.005 3.98-9.435 9.938-14.903 9.473-1.93 3.73-.763 16.422-7.57 26.98-4.21 10.939 11.988 4.19 4.584 15.274-2.274 18.524 4.136 1.898 15.09 2.749 6.091 2.735 6.057 12.02 17.725-.522 12.035 5.452 7.63-10.055 23.325-5.205 15.33-3.21 9.154-.029-.022-40.79-30.804-.069-.051-30.595-23.268-8.26-6.255-23.285-17.694 2.465 13.971-.085 13.792-10.985 19.45-.231 9.616-4.06 12.753 3.11 7.024-17.447 17.986-4.294 9.02-5.297 11.106-11.092 6.959-11.315 14.5-17.35 8.562-8.855 15.894-8.789 17.195-25.707-18.412-4.362 10.439-6.37 9.435-5.492 17.902-.745 7.641-11.593 13.513-8.673 19.841-4.93 12.042-.62 1.511-12.574 14.678-2.658-.44-11.583-1.932-20.933-7.037-13.336-23.678-20.921-9.166-3.566 20.163-4.09 11.826.409 8.054-8.487 18.788-13.45 10.895 3.394 10.1-1.836 1.535-10.342 8.63-12.775 12.405-4.257 18.257-4.393 12.07-1.767 4.848-12.618 19.277-3.826 4.06-14.905 15.776-13.28 15.656-3.681 11.123-7.739 15.788-6.283 8.698-.439.606 13.615 14.924.185.201-11.699 9.555-1.761 12.327-21.515 18.774-12.949 9.15-1.295-.984-14.721-11.205-24.007 15.233-21.051 10.505L376.415 872l-4.185.795-.158.03-1.4.266-3.663 9.049 9.514 12.413-16.825 7.146-12.356 1.266-3.044.31-23.423 5.126-22.688 10.78-27.177-26.248-13.422 16.622-11.236 4.98-10.05 6.7-5.604 4.133-23.722.636-11.96-9.575-.977-.784-6.004-8.273-15.026-2.937-8.967-11.984-7.194-14.592-.489-7.745-9.373-8.885 10.848-14.252-7.03-6.667-19.12-2.166-15.032-13.137-16.419-15.02-13.672-8.713-4.425-15.154L80.935 782l-8.144-10.172-5.318-10.533-3.77-7.477-13.252-11.619 1.787-5.354 3.165-9.496-15.92-22.132L25 686.739z"/></svg>