<svg height="1000" width="1000"><path class="americon" d="M262.829 917.457l.406-.37.966-.88.659-.81.586-.6.629-.303.466.115.557.375.5.625.375 4.87-.151.36-.42-.075-3.146-2.105-1.254-.916zm-28.37 36.773l.215-.187.072.203.098.359.15.186-.119.132-.144-.032-.213-.361zm-2.435.033l.673-.071.451.077-.416.297-.635.087-.323-.191zm-6.844-2.948l.176-.157.375.182.257-.19.164-.133.01-.38.133-.283.114-.468.02-.321-.338-.273-.41-.194.03-.252.152-.122.039-.183-.04-.208.138-.02.028-.228.088-.297.097-.5.05-.415.028-.284-.002-.356-.009-.477-.085-.266-.054-.286.1-.192.16.039.245.281.135.294.037.59-.055.587-.108.658-.083.442v.494l.057.472.063.265-.02.31.205.568.159.555.093.439.033.506-.091.469.015.3-.063.25-.111.32-.137.433-.078.389-.386-.205-.156-.21-.211-.293-.026-.369-.1-.163.062-.17-.14-.395-.306-.157-.203-.142zm-11.493 21.132l1.265-.404 1.234.174 2.344-.04 3.615-.587 3.662-.811 5.939-1.067 4.08-1.044.533.12 1.097.107.346-.212.666.043.834-.085 1.451-.11 1.038-.032.97-.12 1.44.079 1.12-.166.362-.167.72.005 1.873-1.398 1.085-2.29.045-1.655.011-.392 6.519 4.962 1.721 1.869.326.353-.189.6-.646-.114-1.53.268-2.285.59-.544-.22-.383.027-.35.156-.402.01-.254-.079.024-.246-.118-.076-.404-.264-.47-.12-.393-.1-.822-.332-.009-.004.243.515.164.47.322.718.1.45.447.795.297.198.783.948.627.562.427.11-.316.211-.632-.305-.54-.396-.675-.818-.889-1.097-.4-.923-.052-.118-.264-.77-.07-.205-.785-.41-.907-.28-2.225-.213-2.973-.019-4.405.235-1.384.029-6.168 1.17-4.462.936-4.037.728-3.811.726-2.468-.062-1.312-.121zm-2.565-32.659l.3-.133.27-.002h.195l.202-.05.127.05.829.382.456-.019.032.15-.217.076-.28-.053-.873-.264-.329.023-.292-.003-.214.008-.224-.01zm-13.675-302.661l.937-7.245.002-.012.052-.567 2.888-21.184.018-.17.23-1.73.099-.75 2.205-16.668.043-.326.206-1.555.673-5.092.014-.145.592-4.201.412-2.92.53-3.762.628-4.461.072-.573.828-6.586.56-4.453 1.394-11.073.044-.346.055-.442.136-1.074.253-1.207.505-3.814 1.297-9.801.001-.006.026-.196v-.023l.103-.874.724-6.156v-.008l2.343-18.35.565-4.428.124-.979.043-.337.492-3.861.01-.054 2.048-16.782.872-6.075.143-1.002.035-.293.336-2.825 2.617-22.059 1.342-10.645 1.543-12.251 1.967-16.024.015-.125 1.778-13.723.086-.662.967-7.473.408-3.781.532-3.462.218-1.735.696-5.525.754-5.998.343-2.732.46-3.663v-.002l.698-5.553.835-6.658.396-3.162 1.049-8.368 1.192-9.528.357-2.862.19-1.511.12-.79.442-3.444.096-.756.559-4.368.12-.943.148-1.157.095-.406.094-.792.188-1.591.2-1.363.033-.44.939-7.487.075-.596 1.145-9.14.038-.158.307-2.533.043-.589.455-4.076.66-4.977.58-4.37.374-2.819.247-2.746.265-1.416.002-.01.288-1.546.912-7.112.883-6.32.298-2.14.041-.293v-.005l.07-.5.465-3.332v-.023l.02-.237.845-6.225 1.74-12.854.298-2.208.197-1.458.701-5.695.244-1.959.442-3.556.714-5.743 1.572-11.599.3-2.885.56-2.857.226-3.16 1.784-13.341.076-.567.042-.316.202-1.621.443-3.684 1.507-11.673.047-.363.007-.06.845-7.12.386-3.251.151-1.277.38-3.2.039-.332.051-.434.047-.343.68-5.011 2.403-17.713.145-1.185.09-.276.838-6.359.02-.148.648-4.307 1.476-9.823.395-2.632.45-2.993.41-4.28 1.688-12.693.53-4.421 1.347-11.229-.33-.375-3.961-1.668-1.285-.757-.552-.327-.475-.407-1.035-.945-1.287-1.59-1.065-2.176-1.58-4.269-.607-1.435-.595-.975-1.155-1.474-1.742-3.207-.18-.868-.11-.419-.153-1.49-.143-.511 32.303 1.089 2.406.058 1.819.043 7.407.173 7.803.175.036-.008.815.003 3.041.058.02-.006.242-.012 4.892.136h.004l7.571.206.952.047 1.37.035h.018l7.865.24h.005l1.136.044.284-.004.59.034 1.293.039 2.756.08 1.16.02 6.227.043.914.017 2.087.04 4.57.084 8.75.156 4.251.072.46.008h.006l7.905.13.99.016h.004l1.343.021 1.125.034.66.008 4.154.097.919.037.712.028 3.47.089h.003l1.583.045h.012l7.968.21h.005l4.646.138 6.286.22 1.033.037.682.025.492.018.325.01.412.013.207.007 7.646.226 3.684.107 2.225.063.479.014.343.01 4.125.116.735.02 9.539.263 3.013.08 1.78.014 1.804.057 2.272.071.287-.018.379.014.496.03 4.725.143 9.275.276h.006l2.717.079h.082l.678.003.371.001.837.003.53.013 1.609.019H477.47l.17-.001 5.726-.033h.003l1.202-.003 8.662-.026 7.017-.027h.15l.377.012.56-.002 1.79.036 2.903.001h.029l6.56.075 1.764.001 2.813.025h.014l2.446-.003h.016l4.347.036.92-.005.76-.004 7.112-.042.876-.005 5.396-.11.847-.022 5.003-.13 3.099.001h10.591l9.134-.016 16.094-.048 13.669-.062h.012l.867-.004 31.495-.22.48-.004 5.13-.046.687-.007 2.513.006 1.86.004 6.218.012 1.436.002h.638l2.938.004h.666l3.198.003h1.193l12.602-.003h.678l.999-.001 1.051 6.38.124 1.331.412 2.511.242 1.481.006.031 2.174 12.375 1.3 7.107.285 1.55 2.337 12.745.601 3.038 1.002 5.068.005.035.066.325 1.72 8.546.221 1.1v.016l1.246 6.141.043.238 1.245 6.836 1.832 8.955.438 2.559.142.827.04.199.001.007.281 1.142.672 3.312.62 3.01.45 2.179.024.111 3.208 15.768 1.917 9.407.648 3.175.003.016.506 2.686 1.029 5.45.623 3.302.117.721.494 2.51.06.422 1.902 9.892v.006l2.809 14.583.251 2.09.062.343 1.125 6.208.302 1.667 2.513 13.657.146.43 1.217 6.482.102.542 1.368 7.238.518 2.74.419 2.213 1.043 5.512.647 3.412.192 1.054 2.742 14.999v.001l.25 1.17.59 3.494.08.419.324 1.705 3.207 16.854 2.718 14.25.23 1.21 1.367 7.153.066.343.03.186.146.928.017.08 1.804 9.195.2 1.07 1.116 5.978.232 1.242.46 2.456 2.349 12.556 3.624 19.33 2.018 10.735.002.01 3.01 15.981.796 4.224.757 3.872.121.62.823 4.202.049.251.268 1.385 2.112 10.807 1.306 6.673.302 1.542 2.18 11.121.092.473.33 1.682.065.332.323 1.59.255 1.248.08.39.052.262.06.29.1-.002-.08.21-.04.106.033 1.088.001.018.015.064.073.318.004.019.872 1.174.15.103.015.01.003.003.21.145 1.176.244.336-.081.206-.378.399-.297.332-.068.205.08.214.212.468.668.217.309.285.475.159.513-.005.281-.002.132-.058.35-.106.244-.472.086-.517.25-.657.703-.13.274-.4.848.07.153.18.404.445.993-.088.21-.22.522-.174.756-.094.408-.008.036.71 1.01.296.423 1.588 1.769.17.19.225.12.814.442.64-.158.235.413.069.271.17.67.774.18.812.82.622.073.455.676.249.46-1.427.792-.59-.184-.489.313-.503 1.012-.313.673.534 1.249.531 1.148.307.317.447.46.773.248.592.252.929.147.64.52.258.458.044.581-.289.798-.37.447-.24.364-.323.386-.097.504-.179.932.656 1.106-.033.465.02.743.443 2.354.309.924.11.333.364.426 1.456.711 1.809 1.911.912 2.35-.196.426-1.086.588-.652.554-.804 1.075.414.742.456.764.648.468.882.099.854-.288.42-.134.225.418-.375.678-.033.029-.588.505-.137.49.033.078.168.391.186.503.334.374.296.137.239.298.281 1.205.037.407.082.895.701 1.748 1.57 2.955 1.331.517.492 1.077 2.169 2.25.66.763.954.678.024.017.502 1.289 1.615.448.095.57.334 1.04.684.685.015.014.087.199.345.784.91.217.223.194.747 1.349.24.433.063.372.09.527.102.61.021.123.072.424.412.705-.022.295-.077 1.016.28.35.19.662.166.578v2.146l-.23.53-.24.558.049.95.032.62.002.037.504 1.673.016.024.008.013.293.45 1.657.963 2.028.493.851 1.465.74 2.183-.027.163-.013.076-.016.1-1.37 1.296-1.25.834-.115.985-.106.893.219.538 1.039.938.872.411.015.309-.505.186-.778-.06-.326.115-.851-.225-.422.43-.153.432-.245.69.404.733 1.16-.11.935.137.325.422-.378.633-.49.161-.508-.092-.634.191-.346.778.205.512.335.375-.025.386-.53.838-2.146 2.103-.759.744-.538 1.711.217 1.648.918 1.235 2.093.472 5.754 2.282 2.903 1.15.836.46 1.92 2.512 2.027 1.603 1.215.598 1.744 1.517.372.475.48.48-.003.237-.002.097-.518.208-.985-.035-.55.254-.164.441-.237.883-.516.373-.479.158-1.22-.103-.969-.322-.23.211.076.824.192.213.458.084.51-.394.56.141.213.352-.562 1.372-.707.54-.323.449-.062.18-.076.222.133.992-.4.65-.461.353-.315.17-1.542.268-1.707-.057-1.154.168-.518-.008-.342-.005-1.018-.227-.784.244-1.076 1.169-.237.505.014.457.535.382.434.405.388.008.482-.195.421-.013.637.419.182.432.093.276-.466.712-.363.25-1.147.514-3.698 1.45-2.105.652-.453.295-.294.284-.253.452-1.946 2.207-.606.89-.583 1.09-1.88 2.566-.374.354-1.799 1.253-.392.401-.145.32.104.557.425.888.766 2.266.25 1.186.786 2.433.45.97.283.702-.25.51-.678.383-.338.394-.4 1.241.066.353.252.48-.003.445-.283.991-.116.662.078.337-.01.778-.327 1.505.152.574.474.62.094.35.049.42-.128.498-.153.484.056.693.182.218.134.108.282.228.384.3.225.235-.13.324-.595.103-.166.655.184.773-.196.563-1.375 1.352-.177.335-.535 1.838-.003.3-.009 1.018-.41 1.03.19.653.545.702.166.454.008.26-.3.767-.395.35-.617.318-1.564.386-.413.351-.16.325-.009.28.818 2.45.615.761.008.26-.966.587-.28.288-.872 1.443-1.068.55-.215.206-.111.243-.155 1.083-.179.265-1.117.631-.663.519.079.397.502.345.032.781-.286.585.183.873-.225.426-.331.289-.506.114-.697-.06-1.998.098-.198.185-.03.14.003.01.11.367.371.549.333.68.082.167.168.554.012.42-.007.029-.054.212-.794 1.281-.313 1.527-.26.368-.448.392-.094.262.097.437.396.788.082 1.077-.092.342-.492.634-.074.361.47 1.006.58.723.494.345.09.363-.276.453.127.456.342.762.078.175-.008.9-.21 1.005.059 1.536.011.3.123.737-.102.562-.69.82-.76 1.268-.02.034.176.295.092.157 1.69 1.431.767.658.197.354-.053.522-.212.432-.366.744.477 1.226.487.966.936 2.953-.024.341-.48 1.654-.573.797-.123.424-.007 1.56.161 1.49.14 1.303.567.724 1.454.838.231.334.59 1.523 2.995 3.415.795.397.409.156.395.113.557.207.232.39.03.324-.3.191-.332.091-.123.344-.334.924-.022.384.041.287.125.34.29.204.484.206 1.1 1.43 1.081.828.413.171.987.498.242.291.128.317v.213l.001.136-.123.472-.336.665-.005.61.152.189.41.098.236.3-.01.176v.002l-.037.667-.245 1.534v1.342l.001.591.545.984.033.32-.391.82-.028.446.905 1.565.21 1 .191.458.918 1.344.555.535.12.25.122.738-.068.65-.184.517-.68 1.329-.165.538.118.45.545.553-.057.538-.08.223-.024.064-.374.523-.085.118-.726 1.459-.957 2.139-.496 1.613-.588.798-.92 3.183.49 2.976.476 1.226.154.86.089.686-.002 1.796-.175.405-.355.206-.621-.113-.214.226-.25.493-.032.654-.125 1.114-.373.645-.127.22-.02.253.489 1.516-.018.796-.159.51-.287.496-.291 1.893-.707 2.041-.038.09-.804 1.921-.045.342.01 1.085.155.45.142.152.612-.018.264.25.026.592-.01.136-.137 1.85-.114.473-.262.399.083.347.863 1.175.124 2.025-.106.407-.474 1.013-.027.512.02.928-.304 1.821-.549 1.089-.987 1.138-.121.034-1.786.51-.41.352-.3.552.015.207.354.376.121.378.013.902-.198.738.184.951.119.31.46.672.547 1.296.366 1.237.33.796.311.603.344.45.397 1.37-.297 1.242.049 1.652-.175.313-.976 1.065-.218.389-.16 1.423.101 1.16.06.682.18.225.355-.08.413.172.637.902.027.479-.282 2.228.049.248 1.423 1.003 1.47.09.22.07.783.25.208.187.323.454.835 1.17 1.095 1.212.293.59.265 1.056.955 2.152.226.51.32.257.465.101.551.46 1.157.964.602.35.262.306.525 1.517.56.87.705 2.39-.345 1.485-.016.267-.012.19 1.89 3.028.972.745.227.367.494 1.59.062.55-.083 2.106.799 1.521.12 1.108.8.82.117.226-.005.96-.274.82-.169.884-3.726.115-.587.02-.448.017-.18.007-3.61.122-.468.014-.471.014-10.291.289-4.938.135-1.08-.008-.022.011-.385.01-5.436.15-3.008.082-1.68.045-4.647.123-.61.016-11.95.53-2.754.121-.024.001-9.085.392-4.447.189-13.925.578-.75.03-.922.038-.048.002-14.01.413-.655.019h-.019l-8.286.235-2.556.071-1.026.028-6.901.188-8.526.226-.697.018-.681.017-.053.093-3.922.115-10.084.287-10.768.297-7.298.161-5.146.11-5.457.115-.233.005-6.282-.004-3.006.055-.647.031-10.475.176-2.731-.02-5.204-.042-1.051.007-1.075-.006-.868-.032-1.21.004-8.817.028-3.125.135-2.544.029-3.047.034h-.038l-.03.001-1.245-.01-1.405-.013h-.78l-2.318.002h-7.311l-.753.001-.91.008-2.433.077-.568.007-2.239.04-8.592.11-.624-.037-7.184.175-2.224-.06-1.225.098-3.893-.187-3.616-.175-.716.027-10.383.112-6.373.064-2.364.006-1.714-.008-3.098-.015-3.3-.43-.33-.001-.19.029-2.907.095-6.98-.13-.04-.001-7.693-.083-.248.005-7.084-.054-2.614.01-3.127-.016-3.72-.02-12.194-.22-1.014-.135h-3.926l-1.597-.024-.625-.052-2.373.085-1.782-.02-.789.007-.407-.004-.882-.01-3.59-.039-3.134-.035-.656-.008-1.052.121-2.723-.16-1.698.033-2.075.042-.08.002-.173.005-1.85.055-8.62.251-.828.052-1.407.09-.108-.016-.285-.038-1.599-.215-.99-.134-.105.013-.243.003-.166-.015-.298.016-.147-.006-.867-.02-.158-.002-1.69-.02-2.18-.025-.36-.004-1.16-.02-.664-.01-.425.045-1.407-.06h-3.76l-2.4-.017-1.342-.01-1.418-.007h-.023l-.661-.021-9.997-.055-1.125-.035-3.022-.045-1.017-.02-.51-.019-.514.032h-.025l-.87-.005h-.01l-1.884-.027-.156-.003-.173.002-.093-.002-.609.004-.802.006-1.718.012-2.854.02-.795.005-5.008-.129-3.923-.037-4.772.022v.001l-.046.348.401 1.639.562.943.117.57-.263.513.004.176.002.073.175.681.358.72.286 1-.53 2.606-.861 2.076-.25.468-.418.34-.351.56-.912 1.96-.085.52-.349 1.057-.29.417-.424 1.204-.14.867-.191.556-.82.498-.26.283-.066.77.266.761.017.49-.226.417-.406.138-.887.911-.099.489-.872 2.321-.017.045 1.143 1.176.34.61.14.56-.2.497-.154.788.212.299.333.161 1.172 1.097.323.674-.103.47.85.427.898.28.374.545.327.707.186.912 1.062.749 1.108.407 1.033.544.858.866.813 1.55.673.3.674.58.707.814.097.367.796.68.326.04.155.141 1.196 1.545-.067.92-.143.419.665.919.885 1.014.094.233.176 1.338-.003 1.006.463 1.274 1.548 1.064 2.05.987 1.124 1.47.48.96.663.243.168.062.129-.045 1.685.393 1.004.413.24.317.037.422.88 1.277.697.27.457.732.238.174 1.622.678.968-.443.352.184.995.88.221.392.374.396.05.052.655.373.98.014.942 1.074.924.694 1.174.401.998.593.067.233-.101.447.206 1.048.879 1.921.092-.013.5.584.182.789-.18.47.208.84.384 2.647-.006.117-.03.591-.004.075-.126.365-.209.366-.145 1.137-.001.167.237.206.004.125-.41 1.32-.347.627-.334.242-.597.198-.348.696-.41 3.275-.67 1.982-.017.05-.026.078-.313-.05-.307.201-.369.482-.028.098.268.317.048.344-.355.9-.4.232-.258.044-.067-.191-.097-.01-.468.268-.335 1.192-.626.782-.614.128-.084.091-1.988 4.443.01.98.004.387.247 1.087-.044.195-.23.08-.142.189-.085.144.01.294.515.605.259.147.615.033.245.264 1.215 1.946.095.952-.43 1.25-.319.608-.144.277.154.265.537.308.172.225.162 1.215.775 1.02 1.797 1.697 1.184.194.551.713.834.393.522.086.857-.194 1.88.321.506.188 1.304.483.36.455.296.843.054.776-.182.417-.103.236-.525.586-1.918 1.519-.4.254-.355.225-1.629.571-.546.5-.53.745-.3.24-.227.065-.718.209-.75-.048-1.046-.253-.61.014-.614.176-.599.54-.196.333v.001l-.195.33-.448 1.15-.527.318-.198.29-.405.595-.094.586.049.385.374.935-.002.264-.56.904-1.28 1.182-.408.644-.092.445-.027.951.147 2.845-.234.435-1.363 1.566-.53.46-.333.138-.42.082-1.456.283-2.85.07-.03.007-1.391.37-.457.31-.38.677-.228.938.008.873.004.524.184.732.329.328.083.029 1.294.452 1.958.063.318-.24 1.054-.373 1.26-.047.506.127.49-.035.596-.095.704-.378.964-.172-.426 2.204-8.356 2.401-.964.151-2.265.622V964.603l.001.231-1.029.25-3.465.838-.863.226-.684.18-1.042.272-1.115-.104-1.583.156-1.28.312-.148.043-3.183.909-6.648 1.895-.019.005-3.278.933-3.658.433-1.993.236-1.68.198-2.416.285-.397.046-2.893.34-.762.09-.165.03-11.262 2.082-.035.001-4.818.24-.569.028-1.224.06-15.343-.92-6.333.052-6.232.597-.359.034-.035.004-2.393.41-1.36.005-1.105-.086-.145-.635.819-.719 2.155-.374 7.874-.487 3.21-4.186 2.284-.951 3.085 1.712.764 1.124 2.306 1.32.89.344.373.145.35.025 2.075.15 3.378-.285 1.207-.438.295-.108 5.046-1.833.915-.333 2.737.297 2.515-.2.29-.134 1.013-.467 1.539-.711.642-.296 1.557-2.147.35-.675.305-.588.065-.126v-2.258l-2.95-4.199-4.148-2.6-2.166-1.758-3.53-4.335-.317-.624-.472-.932-.49-1.37-.037-.487.072-.253.054-.664-.013-.083-.028-.17-.388-.188-.74-.203-.964.004-.772-.097-1.94-1.04-7.12-5.379-.43-.991-.174-1.415-.62-5.058-.563-2.993-.296-1.57-.077-.412-.114-.362-.092-.29-.663-.738-1.181-.875-.856-.31.567-.718.014-.018 1.284-1.984.237-1.032.021-.09.034-.146.402-.837.198-.412.007-.078.012-.12.022-.23.166-.305.828-.92.692-1.33.176-.34.438-.976.615-1.374.179-.702.416-1.637.087-.34-.06-.485-.042-.356-.007-.055-.056-.462-.187-1.536-.02-.167-.026-.06-.596-1.392-.604-.647-.196-.665-.381-1.293.533-6.033-.236-.873-.64-.83-.631-.567.029-.502.227-.124.256-.14-.114-1.079-.11-.135-.794-.988-.096-1.488-.77-.307-.205-.479-.104-.339-.859-.636-3.342-.352-.771-.589-1.781-1.359-2.51-1.916-.099-.015-.073-.01-.697-.103-1.217-.375-1.413-.436-.187-.058-.342-.28-.015-.011-.414-.339-1.548 1.88-.323 1.415-.414 1.733-.363.284-.546-.108-.96 1.056-.686 1.161-1.088-.43-1.014.55-.204.11-1.12.176-.67.38.367.693.627.548.213.77-.679.75-.324.683.089 1.512.946 1.353-.871.806-.026.024-.027.874-.264 1-.132.5-.678 1.645-1.78 1.862-.368.303-.625.513-.46.376-.45.582-.077.224-.046.135-.183.538-.003.01-.024.069-.045.133.09.058.282.18.031.18.056.32.514 2.937-.28 3.554-1.233.886-.172.124-.137.206-1.69 2.55-.542 1.778.01.143.091 1.452.426 1.96.545 2.507-.701 1.975-1.047 1.694.007.13.294 5.025-.779 10.118-1.516 4.155-1.67 2.991-.615.617-.602.837-.568 1.294-.524 1.572-.253 1.55-.012.078-.082-.08-.158-.154-1.028-2.033-1.67-.878-3.455.534-2.845 1.385-.701-.875.03-.522.42-.44-.123-.902-.293-.46-.124-.96-.299-.287.374-.957 1.373-.265.015-.622.257-.904-.13-.728.04-.533.15-.78-.469-.063-.674-.089-.453-.044-.67.208-.775.038-.837.403-.819-1.142-.408-.423-1.392-.784-1.108-.09-.624-.034-.74-.38-.204-.287-.188-.084-3.397-1.518-.869.24-.33-.007-.57-.087-.171-.028-.632-.105-1.256-.207-.824-.3-.109-.625-.726-.018-.076.018-1.26.302-.676 1.27.01 1.226-.258.367-1.189.199-.533-.263.441-1.027-.416-1.61-.005-1.453-1.034-.98-.863-.313-1-.71-1.039-.754-.997.846-1.096-.962-1.262-.157-.42.964-.851 2.58-1.872.438-3.64 3.181-.317-17.986-.051-2.906-.006-.334v-.004l-.108-6.16-.022-1.251-.1-4.503-.011-2.075-.005-.309v-.035l-.01-.794-.026-2.21-.07-6.037-.078-6.666.052-1.8-.076-1.067-.001-.01-.089-6.419-.103-7.596v-1.338l-.02-3.52-.004-.279-.01-.772-.139-10.098-.193-14.177-.007-.541-.013-.952-.009-.656-.114-1.748-.154-10.058-.226-14.758-.005-.38-.009-.19-.336-16.956-.116-5.833-.102-5.733-.314-17.552-.012-.24-.046-3.144.066-1.155-.031-1.203-.047-1.806-.056-2.2-.285-11.08-.029-1.128-.085-3.32-.004-.024-.24-13.032.007-.078-.075-2.92v-.002l-.123-4.739.03-4.427-.143-3.739-.018-1.046-.02-1.068-.002-.134-.183-10.25-.097-5.427-.114-6.425-.029-.47-.076-2.859-.27-10.14-.047-1.8v-.014l.019-4.873-.198-11.875-.03-1.812-.013-1.9-.025-3.814-.043-6.325-.016-.088-.11-4.751z"/></svg>