<svg height="1000" width="1000"><path class="americon" d="M751.342 661.017l.865-2.715.457-4.48 4.962-4.145 2.745-2.928 4.153-5.34 1.095-.93 2.105-.893 2.772-.366.708.677.89.21 2.571-1.27-.208-2.138.253-.906 1.737-2.308 2.407-4.741 1.39-2.102-.07-.718.339-.993 4.531-4.197 1.82-2.797 2.814-1.547.36.267.6-.108.59-1.272.513-2.42.579-5.757-.495-1.79-3.981-5.094-2.96-3.034-3.1-5.292-2.701-7.35-1.29-11.222.776-5.79 1.888-3.685 1.413-1.479 1.537-.9 3.648-.743 7.424 2.066 5.018 2.59.888.117.975.055 4.599 2.433 1.768 1.789.226 1.954.564 1.322 14.027 7.057 4.222 3.822 1.034.18 2.99 1.466 1.245 2.145.514.379 1.266.372 1.638-.229 2.349-1.335 1.672-.212 6.284 2.11 1.23.893 2.528.173 6.12 1.79 4.328 1.643 6.876 3.04.552.604 2.654 1.557 10.267 5.267 6.21 2.573 2.292.433 2.21 1.375 5.295 4.527 6.544 3.82 1.794 2.067 2.635 1.66 5.551 4.926.866.43 2.387 2.558 1.21 1.781.547 2.11 2.576 2.538 1.587.854.656-.025 1.59 2.337.373 1.067-.197 2.117-.548 2.27-.93 2.243.47 2.93.23 4.365-.395.868.138 6.461 1.152 1.827 1.38.32 2.749-.566 3.28-2.129 6.956-.028 1.67 2 1.879 3.768 1.148 3.363-.578 3.527.28 5.788 1.718 1.57 1.882 1.026 2.43.17.453.41.037.437-.558 1.593.732 1.649 2.382 1.349 1.044.891.7 1.154 3.798 2.95 5.162 2.52 4.036 1.363 2.77 1.997 1.91.097 2.236 1.384.902 1.446.046.625-2.278 7.235-2.72 3.414-5.273 4.965-3.41 2.297-7.235 5.623-2.705 3.06-3.607 3.155-2.855 3.169-7.059 3.556-7.347 2.931-9.172 5.12-3.623 2.827-4.637 1.55-2.3-.092-2.69.598-1.573.952-1.73.102-6.876-1.873-3.722-.495-5.755 1.596-1.255.867-1.688 2.147-4.971 3.246-1.374 3.122-2.043 1.71-3.223 1.283-2.167.27-4.766 2.602-1.73 1.607-.955 1.714-3.735 3.607-2.176.979-7.116 1.814-1.691 1.05.478.82.009.74-1.338 1.402-1.166.23-.493.422-2.817 4.353-1.135.448-1.192 1.282.476 2.428.06 2.947-.38 1.41-1.607 2.697-1.822.997-.946.998-2.502 4.495-.052 3.473-.947 1.744-2.183.247-2.022 1.634.05.385-2.323 3.502-3.66 3.263-2.43 1.431-1.778-.217-1.073-.882-.459-1.684-.547-1.59-5.998-5.465-6.802-2.31-7.723-6.075-8.646-1.807-4.999-2.425-.459-.498-.417-3.145-3.171-4.754-.841-.063-2.396-7.625.699-6.637 2.44-11.8-.298-2.352.389-5.39 1.262-3.097.797-4.626.58-7.276-.256-2.079-1.848-5.688-2.729-4.383.838-2.735-2.281-2.857-.469-1.565-.194-5.568.447-2.005-.275-.53-1.15-.661-.918-.13-.133.71-.491.064-2.218-.951-.254-.409-.16-4.028-1.254-6.95-.329-.98-.53-.56-.743-.228-.32-5.767-1.316-4.139-3.524-6.562-5.594-1.357-.708-.72-.374-1.033.29-1.875 1.052-.56-.337-1.28-1.224-2.147-2.13-1.639-.663-.891-.16-2.849-2.13-2.286zM637.76 438.661l1.044-6.016 2.34-5.16 2.72-5.013 2.294-.353 1.135-1.013.595-1.032-.274-.447.242-.988 4.067-.022 1.323.572-.008-.47 1.026-1.327 2.446.289 2.059 2.39 3.092.762 2.263 2.113.617-.025 3.141 7.012 1.665 2.462 1.135.638.316 2.05.434.466 1.477.624.627 1.235.455 2.253 2.134 3.349 1.097.688 9.148-3.194 6.424-1.483 2.06-1.51.627-.949 3.17-1.64 1.226-.034.577.537 1.673-1.448 1.444-.7 3.047 1.395 3.657-.933 1.968 1.94 2.105-.665 3.603.568 2.175 1.105.016 2.642.585.222.823-.308.72.325.287 1.79 7.596 5.638.465.435.656 1.68 5.983.788.585 2.601 2.407 3.79 2.74-.235 1.725-.639 5.372 3.988 4.657.412 5.237 2.363.109 1.151 2.648 2.405.598 1.7-.39 1.678.267 2.693-.297 4.05-.751 1.708-1.804 2.94-2.15 2.34-1.038-.216-1.872.837-1.689 1.838-.6 1.473-1.682 1.998-1.12.433-3.825-.427-1.386 1.11-5.559 2.81-1.566 1.164-2.247.744-.339-.08-.618-.946-1.53-.103-2.282.435-.643.614-1.97-1.053-1.476-.383-3.05.618-2.654 1.055-1.902 1.318-5.243 2.702-3.253.97-.642.84-.955.613-1.627.487-3.57-.39-5.07.246-1.396.94-1.956.605-1.217.062-6.64-1.45-.39-.684.315-.812-.361-.873-.94-.641-.806.602-.734.137-1.147-.603-1.03-1.245.24-1.11-1.359-5.341.84-1.327.393-1.27-.863-9.166-.413-3.899-.325-1.095-.973-1.014-.663-3.25.039-3.5-.346-1.71-1.67-1.711-2.796-1.431-2.141-.305-.763.087-1.753.978-1.627 2.517-2.204.448-16.493-8.107-8.181-9.299-1.797-3.414.207-.383-.043-2.93-.556-1.151-1.063-.743zm-.794 72.99l.997-1.726 2.935-2.881 5.038-1.587 6.534-4.028.686-1.251 5.975-2.388 1.714.321 2.38 1.921 1.854 2.757.036 1.213-1.078.954-1.27 4.88.528.619 2.26.88.093 1.337-.801.91-1.033.473-1.76-.31-4.636 1.903-3.097-2.397-4.824 1.757-1.982 1.246-.9-.707-3.772 1.354-2.492-.396-3.639-3.873zm-62.822-70.43l.61-1.689 4.119-2.525 1.786-.442 2.74-.017 3.544-.411 3.182 1.131 5.973.237 3.34.54 3.722 1.372 10.474 9.81 2.056 2.427 2.718 4.658.187 1.06-.189 2.109-1.417 2.727-3.711 5.619-1.428.812-.891.018-3.22.986-3.625 1.823-3.311.974-7.022.042-3.326.707-2.927-4.087-1.574-5.653.94-5.408-.49-2.092-2.489-4.344-.81-.923-7.617-4.347-.882-1.401-.246-1.13zm-43.025-37.523l2.146-3.556 1.154-2.814.715-2.047 1.989-2.148 1.292-.357 2.32-1.962 1.26-2.482-.214-1.23.171-3.142-1.146-1.5-.784-.383-.29-.605.444-.896.633-.288 2.698 1.215 2.632.18 2.51-.28 1.733.499 1.664 2.202 1.198.397 4.956.976 1.567.01.615-.331 2.865.232 2.57.799 2.702-.09 5.868 1.736 1.957.08.929-.363 1.357-.018 4.431 1.056 2.692.64 1.366-.603.627-.713.979-3.447-.367-.427.08-.4 1.76-1.164.86.286 1.078.925 1.92 3.85.133 1.692.801 1.257 4.864 1.48 2.576.784.927-.317.362-.676-.067-.496 4.984 1.479 4.608-.605 3.441-1.243 8.818-.947 5.108.75.675.79.285 1.9 3.017-.363 1.791.994-.596 2.738-1.843 2.815-2.894 3.285-4.611 3.571-3.781 2.433-2.653 2.221-5.432 1.796-4.303.267-3.401 1.18-2.588-.494-2.949-.77-7.865-2-8.142-2.067-4.465-2.341-1.024-.4-2.872-.915-5.608-1.211-2.607-.33-5.473 1.017-3.904 1.137-18.104.504-8.085-1.176zm-166.59-92.712l4.054-.616 11.073-.304 3.575.764 7.724-.63 3.324-1.754.035-1.203-.475-.511.237-.328 5.002-3.724 2.342-2.854.055-1.61.515-1.119 4.744-4.718 3.374-2.84 4.51-1.394.931-.816 3.188.035 3.618 4.398 1.33 3.868 1.484 2.609.938.77.247 2.82-.202 1.265 2.18 3.431 1.752 1.028 3.904 5.8-.279 2.813 1.044.511 1.002-1.123 1.856.607.607.601 2.603 5.205-.145 3.333-2.13.42-.568 1.786 1.107 6.233.754 1.373 2.783.826 1.473 1 .379 1.858 1.352 1.935 3.317 2.773 1.459.744.97-1.42 1.73-3.386-2.72-1.661 1.21-2.094 1.34-.645 3.375 1.527 1.304-1.014 2.628.027-.599 1.717-.988.964-.805 1.16-.913 2.67-.113 1.761.416 1.937 1.455.483.343-.037.316-.132.367-.08.092.006.088.013.096.022.033.016.116.272.125.387.368.65 1.694 2.427.02.749-.717 1.93.31 1.952.295.96 1.977 3.219.562.665 1.349.937 4.14 2.873 1.762-.117.029.984.053 1.84-6.139 4.2-1.537 1.704-1.003.449-1.681.323-.727-.333-.042-.506.508-1.02-1.115-1.194-2.47-.75-4.379.663-1.356-.195-2.658 2.5-2.313.861-2.888.446-1.995-.585-.507-.76-.183-1.276-1.118-1.54-3.319-1.013-6.7-4.257-3.65.056-7.2-.306.291-1.112-.173-1.17-2.763-1.793-1.115 1.547-1.3.659-7.517 1.057-11.166 1.693-2.619.103-1.62-.789-1.392-2.842-.218-1.035-.478-1.484-.79-3.53-.428-1.916-1.16-2.76-1.585-2.174-2.039-2.124-2.999-1.577-.334-1.005.102-2.1-.242-1.727-1.6-3.401-2.207-2.255-2.395-1.93-2.267-3.392.5-6.761-.055-1.717-.41-1.323-2.752-3.308-4.912-3.575zm-257.85-93.975l.862-3.254.175-3.172 6.916-5.734 1.406-4.017 1.501-3.739 2.302-2.067 2.169-1.321 5.074-1.272 4.89-2.185 3.206-2.131 3.324-1.46 5.442-3.857 1.949.115 1.864-.528 2.547 1.037.773 1.485 1.466-.28 2.183.384 1.122 2.033 2.161-.762.213-1.095-.556-.965 2.316-1.819 2.637.445 1.975.72 2.016-.06 2.949 1.083 2.083-.488 2.25-.376.79-1.252 3.293 1.597.066 1.453 3.526.686 2.023-.083 3.007 2.913.496.96 2.684 2.322-.133 1.887 1.587 2.47-.688 1.773 1.246.543.955.654-.12 3.971-.761 3.289-1.296 1.056-.687 2.056-1.69 2.256-.393 2.59-1.163 1.337-1.406.546-.377 1.661-.85 3.362.408 2.604.44 1.917.484 1.446-.81 2.469.48 3.386-1.415 1.617-1.683 2.686-1.474.823-2.254.978-2.107.78-.999 1.584-.413 1.683-1.667-.008-1.412 1.727-2.12.852-1.057 1.158-2.042 1.335-1.93.953-5.149-2.742-3.122-.724-3.19-.67-2.575.667-4.944-1.057-3.195-.975-2.225-1.213-1.708.678-1.034.41-1.557-1.701-3.921-3.025-2.181-3.381-1.824-1.744-1.27-2.079-6.67-1.74-2.335-1.522-5.617-1.94-1.805-1.73-1.28-3.652-2.04-2.508zm-80.526 29.563l2.784-6.805.385-.51 2.713-1.73 1.516-1.467.535-.887 2.279-1.957 4.004-1.51 5.4-2.647 1.75-1.187.431-.645.51-.679 1.96-5.924 2.869-1.01 4.207-.12 2.27 1.415 1.004 2.418-.16.617-.644.41-.738.187-.466-.328-.442.31-2.378 3.864-1.548 5.108.833 3.117.018 2.746-3.533 1.932-4.458 1.239-4.064.523-2.498 1.369-2.453 3.19-2.835 4.41-3.004 6.067.8.524-1.007 1.244-2.064-.904-2.77-2.329-2.359-3.81z"/></svg>