<svg height="1000" width="1000"><path class="americon" d="M951.21 727.064l.169-.918.13-.281.313-.675.145-.315.156-.143.23-.213.067-.063.005-.133.036-1.133.152.367.002-.005.28-.746.021-.055 1.264.555.313.138.676.69.963-.726.004-.071.009-.18.052-1.071.007-.144.206-.3.8-.08.477.14.07.02.678-.146.026-.025.601-.575.101-.096.426.048.564.063.315-.096.403-.123.122-.037.745.07.026-.03.336-.368.033-.056.424-.715h.114l.994.004.954-.257.103-.028-.76.713-.049.58-.745.673-.017.003-.724.136-.303.056-.242.58-.716.205-.316.002-.537.005-.586-.074-.377.532-.93.604-.439.337-.642.493-.803.737-.301.735-.083.058-.816.58-.074.013-.346.064-.538-.401-.842.026-.938.803-1.389.256zm-11.31 25.288l.235-.504.998-.637.433-.632.129-1.142-.463-1.384.872 1.05.988.98 3.059.927.328.326.512-.03.579.1.24.2.125.409-.18.301-.317.188-.483.493-.113.876.276 1.148.464 1.067-.406.368-.19.684.11 1.153-1.018.756-.19-.128-.205-3.378-.84-1.669-.418-.361-1.763-.583-2.26.257-.346-.289zm-9.062-12.56l.974-.467 1.595-1.316 1.385.2.7-.066 1.129-.888.175.6-.742.442-1.447.478-.55-.104-.436.681-1.143 2.602-.2-.146-.537-.81-.903-.24zm-187.857 60.413l.111-.05.228-.104.217.315.457.468-.123.095-.21.164-.07.463-.05.341-.018.12.29.522-.3.043-.297-.374-.048-.062-.157-.741zm-.059-4.07l.046-.471.203-.153.286.12.126.11-.006.043-.088.652.106.31-.413.238-.553-.452zM712.71 829.36l.191-.473.706-.896.497-.014.063.064.358.363-.104.47-.377.128-.461.217-.665.281-.073-.05zm-2.462-.914l.705-1.474.101-.094.077.034.179.232-.628 1.527-.119.204-.237-.112-.123-.206zm-13.92 7.706l.136.067.252.121.06.103.073.122-.195.295-.255-.049zm-11.092 22.662l.297-.738.098-.244.53-.522.65-.639.005-.005.04-.672.063-1.015-.02-.048-.274-.672-.165-.404-.291-.714-.046-.112 2.275-1.944 1.432-.026h.022l.026-.001.087-.117.08-.106.268-.359.295-.396.299-1.891.18-1.142.015-.098.142-.898.065-.41.03-.194.861-1.27.155-.778-.141-2.328-.548-.095-.058-.01-.111-.42.027-.497.078-1.442.206-.274.286-.377.555-.734.286-.38.035-.017.279-.144.536-.278.27-.14.185.013.567.036.012.011.366.342.114.107.321.073.375.085.436.1.099.022.71.161.19.043.504-.08.707-.112.007-.001 1.485-.237.202-.032 1.01-.161.105-.017.964-.268.196-.054 1.127-.313.163-.046.008-.002 1.24-.345.32-.09.1-.027.721.026.155.005.43.016.297.41.016.023.08.11.145.201.253.351.06.505.204 1.715.045.38.025.207.299.602.067.136.213.429.065.13.011.023.289.58.443.635.482.69-.552 1.315-.136.323-.013.032v.001l-.585.85-.484.705-.911.987-.577.625-.454.492-.029.03-.74.8-.007.011-.343.451-.107.14-.451.594-.095.124-.036.047-.522.686-.164.216-.214.28-.526.691-.135-.105-.005-.004-.03.022-.009.007-1.061.797-.92 1.032-.948 1.064-.375-.571-.01-.014-.273-.113-.25-.104-.081.019-.016.003-.382.09-.045.01-.054.048-.074.064-1.225 1.074-.007.006-.108.095-.485.283-.42.246-1.178.69h-.002l-.518-.155-1.78 1.238-.356.246-.022.015-1.271.396-.022.006-1.123 1.139-.261.04-1.395.211-.4.215-.368.199-.872.469-.434-.087-.203-.322-.335-.532-.027-.043-.092-.402-.108-.475zm-227.08-547.76l.215-.183.351-.076.213.299-.016.01-.446.308-.231-.151-.06-.04zm-4.365-11.278l.248-.455.571-.477.763-.77.43-.022.023.376-.817.824-.785.394-.424.127zm-16.872-3.443l.437-.386-.02-.45.413-.743 1.363-1.103.127.47-.03.019-.503.323-.12.077-.497.88.586.47-.014.937-.325.103-.543-.584-.54.18zm-2.634 24.517l1.255-2.469 1.723-1.347.52-.248.633.186.653-.34.114-.458-.075-.352.015-.406 1.103-.762.44.067-.447.662-.002.529-.282.748-.79 1.08-1.413 2.732-.903.366-.844-.097-.051-.013-.733-.192-.031-.008-.13.081-.434.273-.017-.001zm-1.948.515l.683-.654.416.076-.212.37-.299.131-.245.032zm-.68-25.614l.445-1.271 1.092-1.013 1.278.086.803-.434 1.085.116-.013.843-.561 1.489-1.697.91-1.682-.027-.425-.23-.109-.06-.122-.231zm-2.112 24.096l.222-.283.24-.33.253.038-.15.3-.25.502-.232-.07zm-5.37-1.054l2.253-2.811 2.315-1.986.726.157.401-.178.675-.06.358.033 1.076.1-.187.402-.486.186-.287.73-.282.72-.595.327-.712.663-.881.255-2.173 1.345-.322.152-.524-.12-.583.483-.623.038zM27.952 561.448l.126-1.32.225-2.858.006-.088 2.325-.716.472-.145.195-.083 2.39-1.016.461-.202.32-.14 2.917-1.28.565-.247.613-.316 1.93-.996 2.102-1.086.077-.045.768-.444.824-.477 1.97-1.14.432-.252.663-.767.036-.041.153-.178.21-.076.452-.166.413-.415.078.042.217.114.244.129.555-.139 2.227-1.135.852-.629.565-.416.76-.561.732-.133.615-.381.383-.451.835-.268.41-.26 2.02-1.284.104-.066 2.13-1.5.458-.322 1.315-.926.115-.082.491-.346 1.452-.34.569-.288.556-.283.66-.545 1-.826 1.097-.907.308-.254.433-.444.385-.91.098-.56.082-.232.294-.84.224-.689.106-.204.29-.004.28.337.128.002.34.004.4-.221.591-.48.097-.078.847-.687.593-.284.698-.335.083-.04 2.315-1.881.164-.134.22-.334.157-.577.38-.836.295-.395.19.05.113.302.465.008.32-.122.256.337.107.277.6-.08.039-.004h.004l.604-.042.229.126.124-.116.585-.543.054-.05.516-.76.037-.055.142-.342.847-.23.202.039.095.018 1.088-.347.127-.041.461-.402.024-.02.043-.005 1.254-.143.625.043.137-.19.216-.302.519-.723.83-.573.354-.16.366.005.599-.323.527-.766.417-.102.193-.079.064-.026.257.357.436-.087.188-.038.627-.882.164-.002.034.051.268.404.474-.046.032-.003.5-.422 1.748-.411.628-.414.733-.097.284.147.444-.167.875-.855.072.025.15.055.04.014.15.437.023-.003.499-.06.38-.045.421-.224.534-.285.037.016.807.334.58-.277.002-.004.87-1.091.075-.095.115-.145.24-.301.253-.835.588-1.946.16-.527.007-.023.197-.653.013-.041.249-.168.253.081.543-.49.228-.88.12-.435.59-.129.145-.361.214-.699.139-.453.796-.623.459-.469.373-.177.657-1.207.46.077.538-.309.526-.945.28-.338.27-.057.204.063.168.052.546-.221.532-.406.082-.063.007-.08.013-.136.196-2.117.036-.388.04-.437.127-.58.243-.437.726-.61.058-.049.239-.668.037-.204.05-.278.426-.954.269-.332.446.018 1.493-.732.403.126.667-.317.24-.362.55.044 1.073-.57.553.169 1.205-.183 1.626-.927.947-.716.074-.056.247-.526.42-.243h.463l1.025-.73.843-.603.105-.075 1.014-.043.528-.155 1.22-.359.124-.036.199-.058.182-.146.03-.023.302-.242.095-.103.632-.694.575-.285.035-.017.106-.054.517-.412.117-.094 1.575-1.258.05-.04.426-.341.137-.185.234-.316.38-.058.695-.597.018-.015.347-.214.34-.51.432-.69.773-.652.018-.336.058-1.109.009-.176-.275-.987-.334-.084-.28-.769-.625-1.724-.33-1.09.02-.557.107-.321.114-.34.02-.06.078-.234.075-.225.348-.052.478-.071.204-.03-.026-.463.201-.522-.606-1.788-.751-.008-1.076-2.477-.785-1.546.176-.209.108-.128-.383-.97-1.168-1.83-.365-.57.09-1.207.073-.969.096-1.28.026-.35-.308-1.595-.328-.736-.191-.43-.472-1.06-1.477-1.523-3.39-.516-1.432-1.84-.912-.647-3.151-2.236-.877-1.567-.161-3.445 1.458-1.91.947-2.817.754-1.382-.792-1.592-1.377-.434-2.337-.737-.667-.21-3.28-1.037-.068-.56 1.031-1.313.318-.483.179-.41.747-1.714-.053-.356-.087-.584-.237-.419-.775-.781.977-.797.517-.202.592-.794.335-.449.654-.434.253-.873-.001-.873-.148-.633-.007-.029-.137-1.454-.187-.36-.009-.017-.395-1.315-.043-.143.098-.969.062-.608.353-1.437.261-1.064-.855-1.801.41-1.209.19-.562-.158-2.34-.02-.29.134-2.381.004-.086-1.572-1.418.67-.004.182-.131 4.945-1.229.14-.035.23-.034 2.245-.338 1.23-.045 1.891-.427 1.563-.425.345-.093 2.938-1.08 2.669-.728.71-.112.131-.034 2.06-.535 2.765-.812.976-.211 1.799-.88.03.02.214.138 1.596-.27.54-.091.904-.34.219-.025 3.735-.434 2.309-.679.844-.248.033-.01 2.096-.574.498-.018.638.004.448.11 2.129-.232.197-.046.81-.187.183-.043 3.567-1.1.754-.234.74-.339 1.042-.215.036-.007 4.084-.366 5.394-.857.613-.098 1.3-.11 1.879-.161.99.143.51-.048 1.693-.227.395-.053h.346l.378.093.515.464.537.166.876-.02.48-.01 1.097-.134.489.128 1.416-.037.727-.019 1.723-.207 1.308.1 1.609-.031 2.136-.042.372.134.226.274.703.059 1.075.099.753.069.642.176 1.992.055.999-.065.235.062.222.058.53.271 1.593.03.57.011.168.017 1.016.097.04.004.618-.136.18.02 1.486.167.082.058.186.134.445.277.403.028 1.094.076.362-.018.952-.048 1.427-.206.03-.004.47.052.607.158.86-.062.385-.027.385.217.837-.01.462-.113.534-.13 1.202-.296.107-.002.445-.009 1.14-.023h.001l2.93.129.497.022 1.247.054 1.173.238 1.456.294.662.134.115.023.314.166 1.544.283.031.006 2.167-.044.71.644 1.056.12.989-.067.41-.109.774.024.553.506.483.004h.087l1.562-.233.58-.287.765.347.515-.115 1.734.76 1.883.743.505.349.684.12.115.004 1.943.086.435.367.494.19.524.2.355.136 1.533.408 3.107.58.452-.092 1.358.468.595.361 1.208-.064.871.271 1.307.407 1.405.153.843-.013.393-.062.888-.138.752.03.355.617.96.407 2.019.855.282.424 1.574.697.183.333-.16.559.638 1.149.703.438.235.189 1.77 1.43.138.112.805.813 1.623 1.64.738.586 1.066.521 1.815.887.688.562 2.07 1.688.169.138.63.514.479.39 1.68 1.369.004.002 1.37.86 1.607.441.08.01 1.239.146.597-.109h.05l.453.006 1.01-.36.597-.335.254-.506.647-.457.181-.096.754-.397 1.62.043 1.203-.6.813-.374.575-.184 1.227-.394.325-.019.205-.011.893-.204.614-.42.324-.237.205-.15.807-.274 1.255.187.937-.216 1.81-.814.264-.022.03.169.618.047.813-.113.822-.115.336-.113.745-.087.522.095.65-.072.976-.275.381.145.277.32.744-.147.792-.238.068-.003.79-.034.125.014.197.02.138.356.751.106.916.055.383.023.708-.088.632.235 1.944.049.158-.024.822-.125.382-.059.273-.041 1.615-.246 1.974-.302.585-.09.706.084h.001l.305.125.982.093.05.005h.007l.64-.393.59.189.005.007.23.354.01.015.152.01 1.03.07.335-.114.366-.123 1.286-.433.751-.471.712-.028-.002.313.799.342.484.005.204.003 1.135-.261.443.195.295-.026.308-.22.474-.234.319.104.143.047.621.324.32.312 1.378.308.261.237.618.067.666-.287.272.388.34.245.46.02.598.451.73-.046.204.158.176.5.34.352.961-.033.803.015 2.095.038.224.004.82.014 1.309-.446.362.084.232.054.837-.056.135-.009.077.026.753.26.247.085.257.274.544.086.692-.03.919-.397.59-.517.884-.505.898-.862.45.084 1.595-.896.298-.168.948-.632 1.063.354.562.093.53.087.506-.178.754-.053 1.061-.456.284-.122 1.148-.783.411-.28.781.056.304-.08.141-.037.556.22.838-.178 1.14-.352.555.068 1.111-.238.785-.247.775-.38 1.054-.516.376-.185.702-.476.134-.092.714-.5.548-.5.477-.435 1.143-.965.745-.884.229-.005.754-.015.116-.003.376-.007.322-.132.617-.251.043-.018.114.048.158.065.554.232.362.006.119.002.506-.31.349-.312.727-.65.472-.565.656-.784.671-.803.705-1.19.764-1.289.193-.326.55-.677 1.002-1.945.486-.652.133-.179.185-.248.038-.051.471-.633.093-.125.543.15.464-.185.511-.61.088-.064 1.147-.82.612-.012.331-.126.472-.925.512-.185.461-.29.305-.41 1.05-.822.572-.18.348-.337.254-.652.292.099.586-.264.51-.23.236-.038.148-.023.243-.331.084-.114.44-.21.637-.305.018-.008.645-.309.632-.087.008-.006.769-.52.013-.009.39-.192.31-.06.245-.046.284-.146.238-.277.977-.19.387-.306.39-.383.546-.063.701-.971.461-.64.546-1.115.325-.428 2.274-1.278.294.136.13-.375 1.037-.583.428-.495.64-.117.698-.428.546-.83.8-.282 1.098-.115 1.682-.177.327-.008.046.284 1.398-.28.244-.048.597.233.753.848.497.475.8.442.881-.137.401.007.385.386 1.407-.363.328-.05.706-.034.597.381.473-.15.366.132.672-.135.867-.413.657-.657.363.156.49-.124.05-.013.6-.332.596-.296 1.534-.36.736-.19.492-.128.825-.58.869-1.028.263-.598.123-.28.959-2.355.76-2.335.547-4.018.108-2.172.26-5.194.02-.415.028-2.115-.318-2.693-.158-1.333-.077-.866.112-.403-.414-3.152-.044-.339-.735-4.95-.08-.545-.269-1.242-.898-4.167-.559-2.597-.93-1.038.002-.066.024-.56.004-.11.003-.072.387-.644-.102-.433-.955.999-.597-.21-.022-.324.327-.212-.477-.736-.457-.196-1.109.286-.271-.17-.417.16-.118-.545.471-.859.194-.321-.265-.382-.435.129-.349-.14-.372-.438-.653.315-.94.224-.806-.184.506-1.689-.324-.453.036-.458.011-.143.884-1.268.437-.629.972-.903.33-.307.078-.044 1.038-.58.533-.3.949.198 2.698-.899.315-.262.276-.23.192-.158.204-.336.05-.084.637-1.05.327.636-.59.644-.113.283-.611 1.534-.068.168-.555.681-1.146 1.792.348.22.953-.524.618.194.617.305.047.568.485.141.292.382.054.276.047.239.024-.006.28-.066.13-.031.353-.184.033-.432-.34-.923.05-.313 1.086-.66 1.399-1.3.795-.456.52-.143.286-.369.956-.578.584-.461.865.298 1.397-.66.057-.063.631-.704.083-.923.02-.218-.182-.397.362-.803-.353-.636.275-.67-.426-1.07-.075-.83-.308-.267-.181.01-.213.011-.033-.123-.183-.682-.046-.172.543-.764.835-.556.25-.166.166.002.291.003.048.043.158.142.008.006.015-.014.81-.754.016-.014.275-.256.07-.11.944-1.496.858-.91 1.133-.797.53.091.528.144.08.857.484.024.97-.696-.122-.429.253-1.326-.273-.342-.115-.023-.404-.082-.531-.013-.155-.317-.19-.391-.505-.509-.63.135-.127.027-1.723 1.434-2.748 2.501-1.383.797h-.008l-1.094-.125-.676.45-.807.539-.25-.206-.946.236-.01-.238-.012-.312-.587-.346.027-.075.022-.06.146-.402.302-.454-.422-.534-.03-.037-.376-.005-.773.487-.612.17-1.136.312-.027-.046-.089-.155.212-.367-.16-.433-.78-.171-.017-.322.053-.883.59-1.009 1.746-1.701.828-.03 1.057-.606 1.375-.226 1.133-.282 2.269-1.849.935-1.787-.048-.45-.065-.422-.025-.165-.017.004-.848.167-.692-.377-.512.102-1.078 1.179-1.132.136-.964-.46.075-.3 1.834-1.775.554-1.341-.011-.023-.29-.57-.066-.13-.054-.106-.452-.664-.035-.05-1.082.279-.222-.202-.468-.152-.458.102-.516.423-.596.396-.401-.139-1.025.256-.816.555-.37-.301-.427-.194-.288-.322.057-.299.879-1.386.68-1.04-.093-.178-.09-.173-1.312 1.278-.154.15-.211.177-.304.254-.192.16-.653.164-.594.149-1 .251-.46.116-.075-.09-.19-.228-.07-.084-.6.637-1.225 1.112-.013.05-.098.37-.087.33-.876 1.117-.528 1.23-.188.942-.11.546-.057.29-.098.487-.016.08.075.086.19.218.477-.067.01-.001 1.19-.462 1.22-.473.555-.216.949-.368 1.12-.435 1.725-.128.387.025.829.053.237.016.213.227.005.049.043.401-.02.038-.482.926-1.863 2.64.015.888-.14.456-1.815 2.503-1.786 1.547-.243.266-.681-.202-.85.425-.457.607-.987.157-.329-.471-.044-.67.556-.869.72-1.152.514-1.163.333-1.14-.412-1.045-.511-.133-.247-.668-.612-.482-.662-.362-.988.447-.502-.224-.164-.587.222-.498-.078-.605-.705-.746.023-.17.691-.673.115-.483-.068-.634.083-.387.516-.37.092-.602.026-.175-.01-.005-.55-.299.029-.055.39-.752.024-.047.116-.59-.504-.079-.06-.01-.064.013-.77.137-.912-.148-2.103-.813-.05-.804.145-.245.156-.263.03-.051-.423-.49-1.355.758-1.411-.031-.169-.288.274-.617 1.666-1.476.084-.267-.288-.46-.318-.274-1.264.748.34-.901-.343-.169.343-.713-.236-.38-.777.3-.415-.176.124-.654.68-1.094 1.164-1.038.732-.903-.056-.087-.867-1.348.339-.226 4.667-10.04 2.95-.702 4.156-.005.47.085 4.382-1.651.563-.332 1.19-.7 3.08-2.846.351-6.464 3.508-2.45.481.329.948-.032.703-.492 1.64-.22 2.986-2.522 2.921-2.47 4.157-1.865.831-.57 1.983.037.106.002.232.044.013.002.03.006.185.034.386.115.044.09.153.31.32.128 2.326-.97 1.116-.974 1.15-.651.88-1.45.978.133 4.682-4.166 1.29-1.316 4.423-4.517 1.076-4.439.42-1.731 4.68-6.906 3.145-3.009 1.251-1.198 3.416-3.868 3.829-3.803.167-.147 4.751-4.18.9-.971 3.28-3.545.098-.103 6.584-6.97 1.646-1.746.027-.029.643-.484 2.272-1.715.227-.171 2.193-2.078 1.531-1.453 2.238-2.124 1.124-2.537 1.863-.15 1.068-1.028 1.932-.45.012-.81 2.797-3.304 1.199.428 3.066-2.775.446-.404-.632-1.589 2.707-1.94 1.646-.939 1.409-.402 1.082-1.009.485-.453 1.403-.154 1.106-1.517 1.724-.006.985-.799.64-.096 2.555-1.594 2.792-.543.107-.526.477-2.356 1.856-.987 1.384.271.923-1.182 3.518-.4.53-.804 3.616-1.904 1.282-.995 1.13-.875.596-1.18.035-.893.71-.914 2.233-.95 2.845-.226.8.03 3.479.13.781-1.476 1.411-1.154 1.169-.22 1.17.116.434-.638.687.003 1.12-.914.488-.185.773-.516.89-.193 1.044.63.43-.288 1.281-.176.201.6.756.936 3.28-.194.375 1.66.337.129 1.392.53 1.473.004.55-.701.397-.505 2.257-.854 2 .538.61-.065.593-.149.29-.824.99 1.015 1.593-.006 8.325-.042 2.497-.015 10.103.077 1.732.07 1.88.075 5.837.228 3.228.124.843.032 10.166-.258.987-.026 3.52-.045 6.121-.084.233-.017 12.93-.987 7.602-.593 9.234-.733 6.542-.364.406-.022 5.356-.304 9.657-.26 2.58-.143 1.36-.076 8.754-.654 4.507-.341 7.338-.563 1.685-.131 5.366-.336 2.336-.147 2.68-.17-.49 1.883-.188.726-.325.644-.007.015-.116.444.077.511.05.17.107.358.32.678.64.875.691.688.062.176.063.655-.083 2.686.242 3-.016 1.007-.056.126-.16.359-.18.137-.544.41-.619.644-.266.457-.186.502-.224.648-.175.91-.073.505-.296 2.077-.242 1.316-.291.679-.404.276-.433.597-.125 1.292.027.59.253 1.088.085.098.38.15.479.852.196.244.182.161.274.241.86.458.359.27.17.167.387.61 1.05 1.092.657.685.127.373.074.465.15 1.627-.046.56-.197.494-.911.944-.293.527-.15.748-.322 1.198-.186.691-.043.16-.34.683-.645.927-.176.55.153 2.52.099 3.965-.016.231-.014.2.154.176.377.146.007.132-.401 1.108-.523.442.058.17.267.375.04.434-.351.14-.075.03-.08.093-.006.149-.002.053.024.084.102.367-.166.636.312.406.06.404-.097.154-.277-.02-.117.063-.187.325-.13.345-.198.222.02.249.115.204.01.145-.302.646-.334.211-.05.147.152.138.538.65-.126.18-.759.655-.038.13.098.407.07.292-.041.647-.075.513-.267.645-.022.2.052.176.798.757.287 1.078.466.866.072.37-.042.278-.112.256-.397.527-.016.2.477.637.256.475.182 1.024.842 1.208.656.592.014.013.162.146.202.362.194.348.185.15.584.216.813.515.49.586.021.188-.06.373.041.183.872 1.122.088.256.054.505.138.282.11.11.519.192.224.278.125.774.011.073-.013.534.083.44.185.254.744.71.731 1.055.25 1.264.097 1.011.564 1.403.08.479.06.355.07 1.15-.098 1.454.603 1.361.213.828-.007.375-.001.096-.186 1.454-1.457 4.098-.167 1.246-.252.983-.21.406-.419.536-1.013 1.09-.337.594-.104 1.236.08 1.184.897 1.93.048.155.235.75.156.73.07 1.32v.015l-.04.957.092 1.445.273 1.325.696 2.147.558 1.18.18.903-.15 1.403-.057.183-.32 1.023-.001.008-.305 1.297-.391.903-.12.05-.528-.12-.13.045-.379.531-.299.234-.716.265.125.548-.351.293-.475.396-.076.697-.43.385-.051.117.017.52-.275.54-.366.929-.05.29-.95.665-.18.381-.31.374-.269.075-.5.377-.17.639-.147.094-.356.057-.226.234-.014.286.066.456.11.767-.07.28-.595.605-.105.31-.042.355.098.43.154.298-.01.123-.337.623-.06 1.09-.078.461-.175 1.04-.09.248-.518.794-.396.259-.426.802.005.205.262.848.28 1.332.074.76-.043.187-.13.57-.312 1.35-.44 1.05-.899 2.149-.064 1.214-.152 1.307-.54 2.924.111.378.713.576.321.152.065.084.515.673.339.106.67.365.42.39.378.873.046.161.181.63.031.746-.442 4-.132.553.012.431.181.684.55 1.283.26 2.906-.253 2.511.115.476.4.936.45 1.055.484 1.775.172.407 1.479 1.85.88 1.646.285.735-.003.22-.53 1.521-.213.862-.037.668.025.067.11.302.853.746.154.22.03.145-.133.395-.014.04-.31.526-.586.344-.712.802-.186.487-.247 1.14.038.222.27.527.825.61.293.36.183.383.006.014.13.373.15.85.11.28.963.818.666.468.59.652.274 1.168.1.271.503.735-.004.233-.403 1.01-.883 1.768-.717 1.434-.052.318-.008 1.058.133 1.065-.058.549-.767 1.232-.571.6-.316.441-.626 1.265-.179.63-.015.053-.19.381-.308.36-.417.256-.286.468-.047.294.224.571-.054.532-.326 1.262-.037.145-.014.487-.672 1.8-.076.912-.343.735-.532.368-.184.226-.132.272-.206.965.09.33 1.162 1.71.084.256-.012.175-.622 1.324-.004.216.216.7.083.547-.359.685-.562 1.324-.09.359.04.196.282.47.228.15.004.002.728.207.412.579 1.336.984.624.338.253.12.27-.013.059-.244.365-.061.013-.03.052-.12-.079-.294.052-.142.187-.177.201-.01.211-.024.218-.121.086-.202.079-.386-.237-.364-.097-.267.2-.239.106-.215-.064-.158-.16-.034-.228-.162-.096-.162.075-.286.25-.035.19-.033.072-.222-.091-.186-.13-.409-.01-.092.239-.19.073.053.054.038.345-.12-.068-.168.036-.122.434-.47.102-.25.003-.185-.459-1.022.157-.335.5-.717.004-.098-.317-.468.057-.277.34-.048.205.164.184.021.73-.211.056-.076 1.269.354.6-.586 1.603-.04.05-.001.425-.288.724.014.56.413.255.067.313-.546.162-.09.247.142.188.206.063.21.01.071.28 2.06.264.111.52.742.189.412.031.692-.02.342-.021.34-.042.207-.388.843.536.33.032.092-.253.329-.089.36.09.197.128.066.418-.068.563-.09.424.25.053.34.148.18 1.197.309.624.463.651.595.742 1.25.473.454.033.201-.213.349.077 1.103.27.086.146.146.124.235.44.837.052-.01.04.415-.038.464-.158.274-.383.324-.083.415.033.621.107.053-.013.627v.048l.007.348.063 3.247.065 3.387.015 1.365.04 3.769.032 3.004.017 1.628.004.403.014 1.306.045 4.26-.006.112.026 1.075.028 1.39.005.271v.052l.091 6.016.086 5.64.047 3.137-.064 4.552-.002.104.008 2.067.016 4.347.011 3.144.026 7.332.01 2.734.005 1.579-.014 1.44-.082 8.138.005.827.01 2.088.044 8.655.016 3.087-.004.186.005.337.017.94.107 5.909.075 9.49v.004l.005.656-.667-.218-.12.142-.105 2.224.427.981-.152.54-.112.398-.32.64-.178.354 2.056 8.814 1.339-.042-.813 3.55-.098.428-3.271 14.239-.554 2.403-2.912 12.616-.565 2.443-.528 2.277-2.971 12.966-.148.642-.515 2.244-.29 1.26-.917 3.986-1.013 4.398-.135.583-.212.922-1.724 7.468-.032.138-1.168 5.047-1.736 7.491-1.63 7.02-.723 3.108-1.452 6.233-1.126 4.827.703 2.627.85 3.175 1.136-.036.008 3.138.013 4.8-.153 6.668-.03.832-.18 4.971v.102l-.034 4.69-.075 1.706-.094 2.14v.001l-.07 1.584-.15 5.532-.003.062-.002.02-.162 5.183-.166 5.27-.006 1.74-.003 1.077v.043l-.225 7.183-.033 1.058-.01.343-.042 2.688-.01.664-.064 4.108.003 3.445-.28 7.74-.102 2.8-.16 4.373-.027 1.119-.012.488-.075 2.982v.022l-.077 3.043-.006.117v.015l-.006.132-.008.185.003.083-.009.08-.016.844-.023 1.155-.02 1.021-.002.234v.704l-.049 1.651-.007.224-.01.29-.012.326-.013.32-.26 4.506-.002.115-.051 2.426-.003.131-.044 2.044v.02l-.015.248-.007.13-.076 1.278-.034.784-.22 5.099-.025.588-.013 1.672.127 1.34-.01.12-.035.382-.042.479-.088.988.36.526.974 1.424 1.969 2.875.868 1.267.123.186 1.911 2.887 2.552 3.851-.26.169-1.308.842-.95.612-.621.4-.037.024-.388.26-.22.146-2.535 1.689-2.213 1.472-1.2.798-.022.014-2.522 1.633-.153.099-1.142.74-2.06 1.33-1.715 1.109-.397.256-.217.142-.678.442-2.477 1.643-.944.626-3.275 2.168-.007.005-3.784 2.502.67 1.125.726.946 1.375 2.122 1.528 2.355.61.912.3.447.926 1.408.538.815.002.003.453.687.228.345.482.73.022.032.5.756.286.337.22.258.333.566.057.073.043.055.01.012.004.064-.046.259-.039.218-.206.61-.065.193v.002l-.194.575.135.531-.015.267-.01.192.313.543-.281.496.264.38.036.053.08.365.117.53-.08.165-.267.551-.064.901-.015.209-.244.364-.299-.152-.539.253-.27.127-.204.096-.622.292-.103.415-.456 1.836-.37.628-.752.185-.311.691-.311.076.408-1.458-.152-.507-.011-.039-.193.267-.474.656-.54 1.336-.357-.377-.02-.61-.573.09-.185.029-.675.481-.015.24-.074 1.21-.644.777-.841.972-.192-.351-.226-.69-.14.018-.439.059-.091.356-.044.17-.045.177.01.202.037.703-.333.19-.123.07-.88.5-.226.13-.568 1.014-.343.613-.205.884-1.354 1.533-.391.443-.247.721-.141.411.15.77.06.31-.307.388-.637.107-.205.88.186.269.162.234.207.3.111.701.417.366.027.056.098.205.213.446.006.109.019.334-.007.305-.001.061.146.557-.161.214-.117.103-.037.033-.194-.19-.366-.641-.176-.344-.193-.376.003-.012.16-.777-.35-.69-.008-.016-.027.006-.16.039-.039.053-.368.508-.259.683-.07-.016-.036-.008-.163-.038-.26-.56-.232-.5.07-.555-.03-.003-.318-.032-.016-.002-.074-.007-.39.034-.133.011.022.698-.482.158-.008.003.073.397.033.182.122.153.275.345-.184 1.248-.068.457-.027.184.066.654.101.213.172.36.135.284.027.055.46-.172.044.113.201.527.232.607.497.063.302.292.048.047.014.014.034.033-.63.553.235.357.01.014.43.125.748.215.036.057.005.01.575.915.606.965.047.075.297-.38.412.243.682 1.151-.46.348-.024.018.033.039.477.57.357.426.013.015.055.173.126.391.078.245.248.249.01.01.243.244.03.03.313.314.06-.072.295-.36.038-.047.226-.24-.079-.136-.21-.363.044-.166.005-.019.09-.333.032-.038.158-.193.183-.223.02-.025-.284-.662-.04-.455-.009-.09-.088-.995.03-.225.04-.302-.684-.416-.645-.741-.086-.252-.13-.378.1-.122 1.257-1.554-.076-.952-.248-.581-.134-.549.362-.549.13-.196.312.398.45.394.525.04.49.742.115.016.734.102.34.571.347-.07.532.245.677 1.085.201.78.264.02.19.013.101.007.235-.36.198-.304.15-.23.008-.435.014-.643.078-1.139-.324-.32-.218-.215-.55-.769-1.015.385-.164.062-.497.303-.09.055-.07.043-.19-.46-.006-.073-.086-.973-.843-.853-.09-.278.819-.554.488-.669-.292-.75-.243-.625.128-.182.965.134.27-.231.691-.55 4.732 1.963.093.624.113.177.33.517.536.837.089.14.808 1.264.758.848.206-.017.037-.003.19-.015.177-.015-.379-.839-.017-.04-.109-.24-.16-1.536.047-.191.124-.515.333-.383.059-.067-.004-.006-.01-.016-.263-.412-.123-.193-.237-.953-.226-.164v-.004l.104-2.315.753-.905.064-.077.729-1.403.13-.646.002-.01.729-.28.052-.729.772.506.733.129.424.074.4-.375.128-.341.413-.149.116-.041.36.18.474-.134.065-.074.341-.388.347-.395.11-.124.449-.06 1.037-.14.37-.14.38-.144.726-.71.462-.082.938.554.154.091 1.064.388.097.035.104-.054 1.01-.532.934-.275.266-.327.15-.184.734-.3.048.572.712.267.411.153.101.465.051.004.445.036-.049.782-.024.384-.558-.154-.514.252-.235.72-.053.163-.143.849.138.605-.046.011-.704.163-.81.116-.116-.78.656-.374.548-.922v-.006l.075-1.101-.145-.78-.456-.169-.045-.016-.133.047-.326.115-.258.353-.047.065-.29.357-.1.122-.36.055-.557.084-.135.02-.22.033.003.087.012.32-.108 1.022.26.775-.095.586.341.57.005.01.112.224.354.708.034-.005 1.644-.26.78.641.104-.007.738-.053.514-.252.5.44.072.063.067-.526-.042-.115-.153-.408-.03-.08-.575-1.375.332-.45-.047-.492 1.211-.277.496.04.432.67.27.961-.161.385.197.399.212.429.38.297.19.147.859.405.902.78.502-.274.069-.038-.075-.434-.722-.642-.033-.108-.017-.056-.252-.835-.096-1.832-.001-.034-.29-.746-.508-.359-.75-1.396-.48-1.175-.146-.166-.503-.575-.373-.427.483-3.032.755-.724.88.63.49.183 1.327.494.38.037.501.05.532.052.88.087.922.09.104.01.861.793.035.257.06.453.082.625-.142.545-.584.69.176.808.152.071.766.359 1.289.241.211-.038 1.208-.218.227-.04.704-.58.544.281.44.228.53.274.005.003.43.182.068.028.294-.651.06-.7.093-.182.15-.293.036.027.413.304.294.376.257.33.743-.54.19-.138.108-.065.377-.23.026-.016.161-.587.017-.06-.004-.25-.013-.911-.877-.11-.99-.775-.982.155-.149.645-.945-.026-.364-.01-.008.417-.002.078-.474-.243-.67-.504-.139-.104-.29.741-.08.203-.138.518-.136.505-.014.056-.042.155-.27-.193.125-.622.007-.036.35-.8-.1-1.643-.069-1.118.077-.606.166-1.314.127-.199.535-.031.134-.008.172-.01 2.358 2.772 1.075.912 1.644.744.512.11.376.081.158-.33 1.547-.434h.001l1.063.153.353.051.942.136 2.107.304.006.002.61.256 1.138.477 1.685.706 1.265.254 1.515.303.926.185.034.014.568.24.405.171.116.05.42-.176 6.145-2.564 2.954-1.376.016-.007.17-.593.122-.418v-.011l.021-1.565v-.032l.024-1.757-.365-.497-.074-.1-.794-.29-.577-.916-.096-.154 1.428.326 1.219-.17.056-.007.866-.383 1.392-1.54.97.906.044.041.992.4.924-.04.144-.223.193-.3.628-.01.621-.164 1.084.357.854.281.843.278.066.022.037.012 1.023.336.053.018.126.041.12-.03.351-.087.097-.024.069-.008.356-.041 1.565-.165.817-.087 1.547-.163 1.484-.158.102-.004 1.348-.047.472-.016.732-.026 1.84-.066.356-.013.124-.004.037.003 1.49.104.603.042 1.58.11 1.336.094.021.001 1.301-.096.03-.002 1.785-.132.624-.121 1.672-.325.283-.055.141-.028.098-.019.142-.034 1.158-.282 1.435-.35.344-.083.767-.187 2.146.19.584.052 1.153.101.119.01 2.577.05.655.012 3.443-.682 2.967-1.038 1.35-.63.149-.069.036-.017 2.698-.535 1.55.18 1.687-.328 1.3-.253h.001l1.565-.19 1.878-.82 1.738-.859 1.612-.797.756-.374.322-.286 1.91-1.691.09-.079.017-.036.47-.95.236.08.207.07.87-.932.002-.002 3.286-3.062.058-.06.354-.362.182-.033.515-.094.31-.057 1.82-.97.078-.04.459-.447 1.426-.565.048-.02.318-.369 1.75-2.035 1.522-3.282.7-.103 2.545-.374.055-.008.584-.353 1.606-.971.277-.168.21-.288.846-1.152.173-.236.356-1.362.815-.743.645-.183.893-1.059.157-.295.355-.667.169-.317.179-1.032.927-.225.632-.023.238-.008.027.015.714.405.837.012.578-.208.247-.338.31-.422.43-.8.646.123.985-.994.921-.552 1.467-.548.738.556.602.104 2.662-1.291.028-.014.882.226.736-.318-.648.807-.557.54-.883 1.656-.127.238-.167.79-.01.05-.101.466-.694.72-.511.242h-.001l-.51.084-1.083 1.024-.12.076-1.12.714-.262.323-.358.441-.309.094-.335.103-.026.008.858-.94.81-1.245.012-.02-.295-.36-.111-.136-1.423-.49-.696-.747-.128-.138-.312-.297-.496-.057-.491.168-.019.006-.003.012-.01.039-.09.327-.96.842-.022.02-.316 1.013-.62.964-.17.482-.144.404.03.082.228.64.193.543.403.074.24.045.734.652.405.149.127 1.007.434.869.01.018 1.128.237.805.666.51.185.533-.102.137-.027 1.365.1.064.005.015.001.374.25.161.28-.062.192-.178.55-.016.05-.21.308-.17.25-.11.16.164.322 1.14 2.242v.001l1.078.912.612.519h.003l1.426-.276.887-.301 1.45-.02 1.025.356.457.159 1.065.931.916.297.064-.006 1.307-.127.348-.221.51-.324.426-.477.004-.005.484-1.278.905-.799.028-.025.454-.4.3-.123.812.268.112.108.354.339.583.559 1.086.832.347 1.337-.202 1.207 1.382 1.254.694 1.208.356.619.353.614.019.033.953.864.86.363.818-.025.383-.242 1.074-.676.002-.001.304-1.149.06-.49.342-.452 1.345-.343.245-.118.088-.489.102-.565.323-.023.203-.015.07-.005.003-.149.006-.372.004-.204.478-.056.486-.056.542.17.213.066.684-.036 1.255-.041.682-.372.328-.18.374-.896 1.606-1.846.004-.006.51-.912.192-.343.153-.274 1.253-.081.175.685.987.529 1.042-.343.7-.975-.052-.253-.09-.447-.014-.07-.344-1.075-.168-.578-.018-.064-.005-.016.131-.945.032-.233.514-.33 1.128-.178.885-.658.167-.048 2.09-.604h.003l1.767-1.003.4.17.272.62.493.525.741.223 1.173-.249 1.261.191.598-.343.883.484.188.466-.388.698-.148.267-.474.486-.203.475-.046.035-.358.276-.334.86-.268.216-.495.399-.85.275-1.288.709h-.001l-.053.088-.261.427-.278.08-1.162.372-.43-.07-2.228.92-1.244.632-.638.324-.85.431-6.22 3.66-1.752 1.029-.328.192-8.696 4.444-.835.425-.542.277-.627.355-3.442 1.946-.717.405-4.105 2.316-.612.345-4.064 2.289-.01.005-.797.449-.802.506-.302.191-.024.016-1.543.974-.266.155-1.582.92-1.02.593-.837.487-.911.528-2.225 1.292-1.225.71-.143.084-1.419.822-.98.548-.41.229-.395.22-3.504 1.954-1.335.744-8.84 4.38-.14.097-.344.239-.233.079-.998.338h-.002l-2.666 1.18-4.067 1.797-.834.368-.137.06-2.104.928-.86.379-.104.044-2.64 1.126-2.15.916-.412.176-.904.385-.683.29-3.787 1.61-.077.033-1.818.736-.243.099-.015.006-1.81.732-3.93 1.588-2.061.832-.94.619-.504-.104-1.321.518-1.895.867-2.87 1.312-6.65 3.033-1.165.573-6.046 2.969-10.708 5.96-.739.346-.649.304-3.723 1.74-3.69 1.405-7.25 2.483-1.116.38-.28.08-.172.047-1.153.322-4.949 1.862-3.735 1.097-2.834.628-.261.02-5.149.398-.624-.195-.695-.623-1.205-1.083-1.904.142-1.179.404-4.922 2.196-3.054 1.263-.789.273-3.232 1.12-3.175.867-1.04.283-1.084.329-.415.126-1.747.416-.464.11-1.574.517-2.546.834-2.96 1.212.384-.99-.54-.134-.483-.12-.425.047-.208.024-1.123.027-.798-.167-1.468-.096-2.088.524-1.155.29-.427.106-.703.028h-.008l-1.416.021-.51.008-.546.008-.715.01-.654.01h-.058l-.354.005-.707.01-.418.006-.414.006-.419.006-.501.007-.494.007-.123-.01-1.438-.12-1.492-.125-.788-.049-.484-.03-.315-.02-1.477.436-.022-.24-.072-.805v-.005l-.094.004-.935.038-.017.001-.465.02-.26.01-.65.027-1.267.365-.056.016-.327.094-.006.002-.294.084-.574.165-.714.205-.66.19-.369.144-.686.267-.68.266-1.025.399-.599.233-.136.068-.183.091-.228.113-.302.15-.292.145-.394.196-1.214.603-.72.357-1.169.58-.74.367-.064.024-.014.005-.373.135-1.69.614-.588.102-.506.089-1.54.622-2.767 1.697v-.095l-.012-1.802.379-.447.01-.054.167-.864.123-.633.174-.9.107-.554.01-.047-.75.107-1.064.004-.759.145-.397.076-.454.082-2.78.502-1.065.192-.072.013-1.32-.007h-.001l-.029-.018-.425-.267-.385-.153-.244-.097-.163-.065-.042-.181-.094-.406.116-.154.287-.38.563-.16.118.013.108.013.186.021.039-.101.097-.254-.026-.485-.035-.656-.076-.168-.008-.018-.115-.255-.005-.01-.122-.27-.01-.021-.118-.097-.19-.156-.007-.006-.243-.2-.025-.02-.067-.055-.094-.077-.016-.012-.002-.003-.152-.124-.005-.004-.045-.037-.015-.004-.036-.009-.034-.008-.373-.095-.03-.008-.029-.007-.395-.1-.085-.022-.083-.022-.936-.238-.088-.022-.435-.111-.523-.614-.04-.047-.073-.086v-.001l-.367-.43-.041-.049-.002-.006-.001-.007-.001-.007-.045-.215-.044-.212-.046-.217-.057-.276-.005-.023-.056-.269-.003-.015-.03-.141-.026-.13-.006-.029v-.002l-.078-.373.044-.196.003-.012.044-.197.04-.18.02-.085.082-.368.078-.35.017-.077.004-.017.067-.296.008-.038.04-.18.109-.229.18-.382.272-.577.17-.358.696-.883.944-1.196-.064-.566-.294-2.628.124-.112.5-.451.014-.014.364-.329.467-.422.101-.091v-.002l.091-.243.05-.137.073-.194.018-.048.267-.718.072-.194.059-.113.133-.257.224-.43-.353-.18-.263-.135-.036-.018-.328.281-.054.046-.217.187-.104.018-.446.08-.032.005-.057-.041-.32-.231-.155-.362-.012-.027-.185-.43-.006-.013-.627-.38.068-.584.052-.446.087-.743.06-.525.032-.268.005-.038.037-.32.004-.028.038-.233.034-.212.065-.396.095-.587.113-.7.091-.562.138-.85.191-1.184.456-.983.077-.166.105-.207.454-.89.348-.682.136-.268.304-.597.043-.084.192-.377.106-.209.212-.415.15-.294.037-.075.157-.307.214-.42.218-.428.158-.31.06-.118.211-.416.217-.427.205-.402.196-.385.24-.473.45-.883.365-.719.011-.02.233-.416.033-.058.071-.128.168-.3.055-.098.093-.312.1-.337.172-.574.146-.49.11-.37.234-.782.174-.582.214-.562v-.001l.435-1.14.293-.669.87-1.984.008-.02.537-1.209.503-1.228v-.001l.247-.943.777-2.955.002-.01.046-.215.091-.427.061-.018.018-.311.231-.88.354-1.726.2-.98.333-1.625.002-.01.255-1.067.65-2.727.266-1.115.23-2.514-1.061.015-.286-.039-.253-.135-.602-.439-1.05-.58-.217-.121-2.027-1.123-.841-.467-.008-.004-.823-.456-.142-.08-.75-.415-.933-.518-.06-.034-1.269-.704-2.054-1.142-2.307-1.283-.118-.065-1.365-.76-.158-.089-.449-.25-.967-.538-.466-.26-1.213-.67-.789-.436-1.317-.728-.503-.278-1.207-.668-1.177-.65-.003-.003-.15-.083-.02-.01-.512-.283-.012-.007-.853-.47-2.101-1.16-.796-.439-.27-.149-1.616-.893-.501-.277-.405-.223-.024-.014-1.018-.563-.542-.3-2.43-1.344-1.596-.816-1.397-.716-.802-.41-2.618-1.342-1.033-.571-.04-.023-.311-.172-4.227-2.341-.025-.014-2.677-1.485-2.342-1.53-.097-.057-.943-.547-.433-.252-1.081-.628-.803-.467-2.16-1.256-.11-.064-1.493-.87-.536-.34-5.12-3.245-.347-.22-1.485-.943-2.183-1.387-.918-.531-.404-.234-1.054-.611-2.776-1.61-3.171-1.895-1.373-.82-.009-.006-2.377-1.423-.603-.361-1.003-.601-.542-.325-4.113-2.467-.014-.008-4.164-2.359-.007-.004-.907-.536-3.04-1.798-1.394-.824-1.033-.612-.135-.08-.18.016.099-.076.538-.417.155-.198.025-.369-.204-.558-.471-.493-.272-.197-.002-.002-.742-.537-.33-.315-.305-.29-.241-.511-.274-.885-.11-.352-.316-.442-.599-.33-1.149-.14-.396-.206-.3-.225-.303-.445-.3-.629-.097-.443.068-.57.285-.334.456-1.494-.027-.502-.079-.264-.145-.282-.025-.026-.192-.198-.3-.08-.347.09-.822.438-.438.463-.042.025-.464.282-.618-.044-.845-.41-.313-.016-.575.209-.756.446-.732.128-.418-.157-.188-.208-.517-1.17-.069-.22-.04-.547-.108-.327-.543-.637-.234-.117-.548-.015-.437.253-.266.155-.197.204-.385.401-.37.819-.308.17-.25.035-.48-.041-.276-.13-1.057-.945-.37-.415-.682-.472-.53-.197-.737.079-1.445.605-1.44.351-.632-.1-.257-.168-.05-.352.17-.633.698-.837-.007-.207-.155-.447-.215-.261-.359-.194-1.103-.248h-.001l-.327-.21-.152-.563-.01-.56-.134-.693-.408-.506-.04-.016-.537-.208-.73-.006-.091-.001-.333-.188-.7-.636-1.113-.184-.462.058-.29.42-.999.635-.222.057-.928-.101-.476-.052-1.422-.39-.205-.15-.132-.291-.073-.16-.074-.347.013-.188.023-.335.325-1.187.032-.325-.03-.401-.192-.7-.056-.204-.157-.21-.24-.128-.754.005-.687.224-.207-.053-.022-.006-.198-.05-.067-.191-.004-.294.002-.01.127-.545.195-.497v-.266l-.049-.218-.312-.544-.693-.703-.65-.467-.206-.112-.773-.16-.144-.139-.068-.173-.01-.664-.002-.092.235-.269.625-.21.176-.246-.026-.362-.272-.85-1.078-1.879-.226-.174-.476-.069-.463-.31-.425-.421-.415-.866-.358-1.31-.74-.72-.864-.481-.128-.181-.317-.447-.4-.75-.335-.361-.594-.642-.005-.352.354-.26.094-.021.37-.086.612.076.357-.19-.03-.241-.099-.24-.111-.267.013-.154.174-.17.749-.196.24.078.42.346.131.03.215-.068.152-.287.071-.91-.568-1.34-.058-.285-.086-1.298.03-1.298.023-1.025-.157-1.001-.496-.902-.393-.115-.142-.115-.002-.005-.11-.422.065-.337.728-.652.162-.247.003-.398-.188-.955-.49-1.17-.376-.641-.832-.842-.069-.07-.19-.436.02-.319.239-.394.653-.06 1.075.237.184-.093.097-.216.017-.287-.475-1.932-.06-.472-.105-.814.228-1.537-.086-1.253-.312-.676-.581-1.26-.499-.324-.44-.095-.492-.238-.095-.137-.095-.136-.206-.159-.422.054-1.593.469-.316.001-.664-.116-.302-.337-.103-.233-.038-.242.072-.742.05-.512.14-.722.102-.232 1.017-1.363.543-.188.828.162.375-.161.164-.168.291-.594.06-.224.2-.762.046-.574-.053-.294-.269-.215h-.437l-.21.049-.71.517-.441.012-.487-.285-.782-.792-1.596-.7-.183-.462-.04-.259.015-.483.18-.964.003-.706-.127-.462-.144-.168-.383-.187-1.089.155-.367-.036-1.114-1.105-.428.058-.312.136-.768.38-.432.04-.602-.237-.316-.279-.247-.364-.306-.863.074-1.249-.134-.52-.02-.025-.151-.185-.48-.166-.245.048-.297.392-.158.684-.209.56-.197.27-.157.095-.208-.027-.227-.184-.158-.19-.15-.418-.354-.354-.414-.242-.737-.166-.685.103-.485.228-.138.064-.61 1.113-.428.496-.162-.002-.075-.001-.706-.314-.354-.336-.502-.66-.287-.226-.264.04-.559.576-.375.204-.792-.015-.324-.262-.273-.386-.106-.303-.018-.425.276-.406.362-.292.103-.324-.37-1.069-.285-.211-.572-.138-.419-.219-.158-.93-.026-.632.594-.782.021-.815-.262-.69-.677-1.311-.143-.423.003-.717-.08-.937-.014-.172-.224-.851-1.229-.632-.19-.344-.096-.328.036-.863-.273-.338-.355.008-.225.006-.218.105-.14.17.006.085.039.541-.051.084-.274.027-.763-.124-.294-.187-.64-.647-.226-1.062-.28-.131-.83-1.045-.658-.284-.111-.048-.443-.074-.325-.333-.031-.23.551-1.616.021-.37-.422-.972-.12-.075-.53-.332-.826-.284-.724-.372-8.616.031-.507.002-4.872-.004-.714.024-.07.003-6.558.02-1.696.003-6.488.01-.254.001h-.072l-5.39.048-10.312.08-2.419-.036-1.286-.02-11.585-.183-2.374-.022-8.069-.083-2.6-.028-.337-.003-.686-.005-.562-.004-7.918-.06-5.446-.047-.603-.011-1.522-.028-.894-.01-1.704-.014-7.072-.06-7.066-.066-1.368-.014-2.288-.024-5.798-.064-.735-.022h-.015l-3.75-.083-9.594-.221-.522-.024-.772-.027-.047-.001-4.584-.16-1.359-.047-.113-.004-.93-.033-.346-.012-1.63-.058-1.056-.038h-.009l-.05-.002-9.516-.294-7.56-.243-.483-.016-2.695-.089-.144-.004-.14-.005-1.966-.066-.285-.01-4.533-.103-3.345-.078-1.746-.055-.538-.017-7.89-.197-2.307-.06-.132.013-.618-.016-1.19-.031-.655-.001-2.75-.026h-.005l-4.976-.062-.012-.005-5.382-.1-1.287-.025-2.333-.013-3.73-.021h-.02l-1.181-.007-2.358-.076-6.661-.22-2.301-.078-8.484-.293-2.983-.105h-.002l-1.639-.059-11.677-.43-1.364-.051-2.008-.076-2.348-.09-3.289-.128-.158-.007-12.458-.38-3.056-.098-11.06-.363-2.526-.086-8.666-.326-1.098-.043-.973-.043-.627-.028-2.11-.095-2.102-.096-9.063-.419-.666-.031-4.132-.196-3.972-.285-.025-.004-2.858-.176-2.06-.128-.211-.013-1.738-.108-3.858-.242-.388-.025-7.913-.277-1.825-.066-7.029-.257-.37-.013-.284-.01-1.522-.103-2.737-.185-.126-.009-1.746-.094-2.87-.155-.213-.012-.172-.01-4.24-.231-6.922-.385-2.23-.126-.046-.003-6.708-.382-1.583-.092-5.532-.322-2.016-.118-2.539-.105-9.422-.4-2.07-.089-4.172-.182-3.659-.198-5.569-.305-5.625-.312-3.668-.292-1.563-.125-3.044-.245-1.999-.16-1.92-.157-.653-.053-7.002-.489-1.236-.087-1.043-.073-8.175-.559-1.764-.122-3.985-.277-.113-.006-6.519-.363-1.826-.103-4.285-.282-11.221-.752-.157-.01-1.464-.1-2.032-.14-7.275-.502-2.272-.179-2.297-.181-2.016-.16-1.24-.099-1.533-.136-7.049-.58-1.714-.143v.01l-.666-.057-1.704-.146-2.944-.255-10.799-.793-.019-.001H25l.2-3.192.287-3.639.56-7.09.408-5.182.002-.027.104-1.958.274-3.1.062-.73.1-1.175v-.003l.113-1.694.078-1.016.06-.626.562-7.564.116-1.573z"/></svg>