<svg height="1000" width="1000"><path class="americon" d="M88.284 749.362l-1.163-4.03 1.745-1.166 2.224-.832 2.623-3.096 5.328-8.062.065-.137.035-.778 1.117-1.42.49-.935.305-.472.32-1.012.202-.433 1.344-1.817.572-.64.167-.002.27.144 1.353 1.28.635.056.79.197.215.078 1.34.405 1.222.13.081.01 3.593.681 2.003.541.384-.013h.012l-.012-.167.176-.777 10.898-3.308 1.732.06-.14-1.722-.422-1.2-.062-.45.143-.934.083-1.459.148-.38.293-.461 1.008-.855.248-.309.106-.348.665-.939.771-.8 1.938-.867.079-.03.314-.148 2.7-2.464 1.029-1.039.724-4.959.011-.737.002-.039.547-3.756.077-1.016-.072-.633-.1-.248-1.246-1.317-.388-.53-.296-.799-.213-1.182.04-.296.35-.577.66-.742.485-.68.27-.55.224-.603.1-.727-.005-1.041-.15-.922-.26-.31-.719-.22-.612.223-.14.263-1.046.305h-.212l-.38-.337-.16-.426-.163-.986-.133-1.924-.248-2.103-.373-1.237-.41-1.005-.681-1.117-.475-.54-.214-.186-.493-.43-.477-.188-2.073-.516-2.067-.195-2.574-.574-.494-.01-.45.173-.462.453-.509.7-.322.2-.4.1-1.587.058-2.484-.427-.966-.425-.338-.289-.761-1.38-.7-1.089-.278-.284-.595-.368-.443.337-.932 1.576-.42.53-.292.18-.35-.018-.375-.228-.772-.725-.368-.677-.154-.956.197-1.61-1.664-2.406-.254-.88v-.514l.132-.613-.05-.199-.48-.319-.288-.089-.917-.072-.494-.14-.238-.2-.16-.502.044-1.062.31-1.312.425-1.395 1.114-2.873 1.017-1.068.447-.701.414-.974.376-1.173.443-.7.118-.57-.154-1.145.214-.832.507-1.113.1-.661.048-.45-.32-1.931-.047-.652.44-1.217.402-1.391.046-.649-.099-.405-.465-.83-.609-.806-.847-1.778-.006-.198.2-.248 1.986-1.178.362-.468-.027-.332-.564-1.657-.457-.596-.519-.437-1.378-.703-1.16-.418-1.152-.3-.918-.352-.515-.333-.213-.195-.987-2.46.014-.27.2-.275.933-1.019 1.869-1.327.42-.45.418-.708.682-1.515.54-2.56.017-.691-.084-.772-1.023-2.648.082-.668-.025-.32-.14-.277-.689-.725-1.201-1.827-.307-.613-.019-.289.044-.164.216-.237.537-.2 1.277.174 1.286-.123.584-.398.135-.185.06-.327.127-.172 1.1-.415 1.963.042 2.12.99.774.06.464-.096.897-.475 1.184-.942.82-.866.396-.887.794-2.306-.096-1.166.084-.343 1.576-2.3.68-.647.912-1.053.3-.474.392-1.041.872-1.429.487-.48 1.116-.615.943-.134.603-.25 1.256-1.197.07-.253.01-1.015.238-1.058.094-.178 2.439-1.664 2.503-1.51.04-.24-.308-.649-1.136-1.95-.039-.063-.508-1.943.044-1.805 1.714-2.465.352-.347.295-.408.05-.484-.142-.396-.281-.39-.207-.672.01-.778.212-.444.239-.475.036-.744-.103-.654-.139-.46-.106-.59-.006-.422.293-.472.209-.411.174-.251.089-.158.04-.257-.012-.325-.096-.232-.124-.233-.174-.3-.178-.341-.155-.522-.04-.671.197-.682.385-.556.556-.507.694-.4.953-.423 1.043-.24 1.212-.59.119-.253.288-1.569-.045-1.09-.193-.799-.561-.537-.24-.409-.182-.589-.344-.428-.467-.295-.272-.359.634-1.2.344-.779.248-.765.063-.897-.039-.684-.248-1.26-1.17-3.466-.375-1.877-.975-2.634.133-.199.639-.434.299-.495.132-.553-.049-.403-.345-1.276-.268-.563-.484-1.6.059-.614.155-.523.252-.392.32-.172 1.064.112.3-.072 1.295-.878.254-.234.138-.368.005-1.172-.116-.316-1.075-1.054-.533-.534-.162-.382-.09-.284-.036-.314.038-.247.143-.274.217-.207.373-.276.392-.171.322-.242.109-.19.025-.332-.07-.385-.367-.851-.904-1.117-.918-.838-.406-.253-.712-.435-.16-.413-.018-1.027 1.046-2.145.985-1.253.868-.372.63.208.231-.026 1.373-.688.708-.807 1.486-1.376.25-.36.126-.4.13-.173.79-.49.687-.57.48-.783.246-.086.528-.027.173-.143.14-.32v-.428l-.29-.895-.025-.353.056-.3.242-.265.318-.11.566.005.647-.237.909-.557.477-.503.34-.53.331-.897.245-1.605-.039-.807-.367-1.282-.082-.605.041-.678.34-2.324.37-1.28.233-1.264.118-.166.772-.692.289-.696.83-1.03.664-.664.6-.37.802-.214.632.011 1.472.33 1.605-.909 1.379-.19.39-.159.88-.792.606-1.113.48-.426.695-.19 1.64.145 1.606-.38.537-.289 1.224-.967 2.832-3.526.786-.597 1.664-.196.948.365 1.968-.515 1.41-.902.504-.578 1.538-.548.383-.305.324-.823-.07-1.314.106-.306.26-.237 1.116-.587.526-.407.51-.638 2.496-2.446 1.826-1.437.237-.246.07-.194.243-.45.178-.285.92-.364.298-.323.095-.275.115-.301.191-.3.3-.187.392-.012.48.041.858-.176.327.004.785.048.406-.275.231-.36.046-.475-.029-.43-.223-.91-.033-.44.163-.627-.263-1.297-.11-1.215.224-.837v-.381l-.344-.462-2.146-2.076-1.436-3.66-.515-.93-.526-.741-.56-.503-.587-.39-.746-.322-1.111-.92-1.949-.265-1.663-.647-.468-.517-.572-1.313-1.438-1.558-.445-.428-.545-.354-1.502-1.931-.43-.212-1.716-.186-.9-.404-.244-.224-.2-.286-.19-.476-.016-1.08-.329-.644-.804-.936-1.492-1.05-.906-.556-.957-.28-.56-1.36-.296-.477-.31-.339-.571-.258-.408-.02-1.845.198-1.024.28-1.415.073-.277-.155-.398-.447-1.015-1.298-.076-.432.041-.252.565-1.365.292-.922.034-.305-.117-1.834.145-1.131.157-.571.51-1.312.057-1.53-.256-2.202-1.093-2.25-1.925-4.512-2.252-1.943-.917-1.87.032-.681-.039-.173.371-.372.307-.254.15-.24.08-1.343-.573-.721-1.32-1.192-.294-1.46-.007-.225.22-1.102-.126-.717-.35-.681-.68-.842-.277-.493-.007-.472-.07-.402.148-.71.013-.19-.016-.29-.075-.294-.207-.456-.068-.31-.055-.447-.132-.369-.701-1.333-.375-.913-.303-1.768-.026-.96-.222-.64-.143-.271-.272-.179-.487-.114-.62-.282-.63-.538-.526-.977-.135-.148-.504-.398-.993-.593-.922-.432-.834-.564-.566-.76-.193-.434-.38-.56-.512-.658-1.4-1.11-.856-.819-.746-.876-.753-1.193-1.51-3.46-.389-1.915-.177-1.59-.545-1.817-.696-1.617-.7-.942-1.075-1.081-.47-.39-2.056-1.31-.526-.501-.858-1.138-.447-1.105-.09-.354-.126-1.777.035-.56.226-.996.716-1.96.083-.756-.285-1.565.026-.558.193-.985.397-1.313.034-.718.01-.292-.2-1.085-.378-1.277.013-1.03.118-.64.733-1.903.165-.877.024-.948-.076-.475-.422-1.198-.372-1.167-.084-1.946.217-1.28.68-1.489.775-1.14 2.874-2.205.458-.85.132-.714-.195-1.04-1.064-1.42-1.219-.986-2.673-1.423-.485-.912.358-.647 2.046-1.94 1.379-.485 2.795.236 1.555-.364 1.282-.766.86-1.604.625-3.985.211-3.36-.248-2.836-.322-.892-.66-.65-.317-3.363.126-1.34-.341-4.022-1.11-5.757.442-4.64-.892-4.716-.827-2.591-1.77-6.752-3.166-3.398-1.229-2.545-.274-.88-.105-2.863-.748-2.484-.567-1.351-.123-1.694.38-2.202.492-.699 1.485-1.01.731-.95.18-.633-.05-.332-.35-.495-.19-1.03.02-2.992-.309-2.3.095-.465.865-1.117.792-1.621.23-2.159-.572-1.394-2.332-3.801-1.555-1.711.031-2.18 1.152-2.16.275-1.186-.314-.657-1.402-1.025-.894-1.032-.5-1.193.042-.54 1.25-3.566.4-3.642-.647-2.185.51-3.439-1.618-2.71.326-.64.86-.678 1.197-2.567-.066-.526-.376-1.579.043-.832.33-1.046 2.161-1.274 1.65-.212.411-1.57-4.16-4.64-1.003-1.782.264-2.569-1.025-1.143-1.753-1.19-.218-.422.482-2.004-.165-.975-1.296-2.277-.337-1.565.25-3.5.09-.559.328-.535 1.31-1.33.246-1.02-.07-.52-.476-.74-.654-.391-.133-.524.054-.434.048-.911.524-.807.099-.67-.506-1.226-.328-.794-1.344-1.53-.166-.362.031-.91.292-.564.92-.984 1.502-1.128 2.519-.413.993.042 5.785-1.276.503-.399.422-.668 3.874-2.778.499.237.715 1.49.668.365 1.143-.573 1.524-1.259 3.397-1.388 3.466.065 4.482.429.64.469.253.446-.05.523-.114.8-.122.459.025.527.161.287.292.169.791.192 1.211-.195 2.3-1.43.867-.105.686.214.605 1.315.583.734.267.085 2.643-1.568 1.42-1.482.616-.216.91.023 4.37.899 1.09 2.156 3.245 3.786 1.103.463 2.518 3.888.3 1.252-.309.574-.87.727-.277.562.046.594.193.227 4.384 2.128 1.187 1.796.472 1.083.45.56 1.346 1 1.792 1.002.727.076 2.602-.104 2.856-.759 2.104-1 1.37.043 1.606.703.322-.101.492-.545 1.412-2.115.171-.894-.09-1.048.216-1.024 3.198-5.72.06-.287-.408-.657-.735-.662-.087-.293.144-.822.322-.481 1.336-.81 1.03-.006.452-.223 1.594-3.655 3.002-5.814L217.6 158l1.806-.697.349-8.356-.013-.875-.027-2.99.099-3.384.377-4.21-.018-1.655.663-10.674.338-8.462.113-4.97-.086-4.334.64-19.732-.042-.632.154-5.093 1.216-30.384v-.003l.83-18.612.2-6.922 10.973.494v.008l129.58 3.896 8.726.17 9.038.167 28.498.454 6.591.112 1.8.02.613.02.232.003 22.004.22 1.46.033 122.574.39.897-.004.046-.003 7.177.039 9.329.04 3.039-.12 15.714-.074 8.717-.344 40.96-.65 16.211-.35.012.05 3.384-.065 12.814-.371 1.27.088 2.705.85 58.15-1.481 2.712-.06.027.085v.002l16.207-.557 32.414-1.01 16.89-.726 14.791-.56.413-.013 13.99-.571.244-.006.625-.029 2.134-.1 1.694-.056 6.824-.282L873.3 25l.209 4.802v.1l.654 15.241v.067l2.684 60.926 2.192 51.91.527 10.57.796 18.751.548 12.506-.006.006.27 6.08.068 1.46 1.873 43.151.016.372.465 11.13.004.019 1.288 30.021.924 18.68.553 12.268 1.602 35.566.932 21.65.166 2.366.04 2.356.207 2.404.008 2.382 1.4 31.708.415 9.394.002.026 3.75 86.7 1.009 20.802.65 16.134.256 6.373.924 19.174 1.52 35.969.362 5.803-.025.404.001.565.047.62.014.05.773 19.287.341 6.883.55 11.892.003.073.35 7.485.023.165.092 3.778.004.169 2.243 48.85.562 14.159.025.58.026.617.038.833 1.937 42.976 2.469 57.002.037.85.364 9.47.13 2.46 1.092 24.214.047 1.597.086 3 .302 5.586.046 2.417 1.238 27.17.951 23.32-.004.003.102 3.323 1.154 25.128-33.28 1.19-80.302 2.91-24.903.91-20.392.42-46.589 1.292-48.881.736-29.91.643-10.817.106-7.436-2.785-35.184-12.912-28.197-10.476-60.81-22.693-38.514-14.512-17.135-6.473-1.543-.505-3.405-1.363-67.09-25.55-36.977-13.974-13.008-5.315-16.564-6.68-22.634-9.193-36.468-14.803-4.368-1.858-66.07-27.212-35.05-14.522-43.698-18.184-.027-.501.264-.463.319-3.833 2.514-4.615-2.507-2.472z"/></svg>