<svg height="1000" width="1000"><path class="americon" d="M531.326 881.248l.394.01 1.108.406 3.55-.088 1.196.602 2.648 1.855.05.175 1.212.15.676-.236 2.768 1.955 1.911.134 3.6 1.719 1.007.041.178.22.314 1.923 3.573 4.003.733.587.52.724.639 1.586-.143 1.027-.988.967-.723.227-1.562-.603-1.491-1.01-1.251-.463-2.426-.039-3.187.293-1.405-.302-.787-.422-1.454-1.834-.614-1.279.505-1.374.326-1.694-.604-2.646-.34-.785-1.313-.43-1.023.204-.035-.273-.608-.572-1.22-.378-1.83.153-.407-.093-.65-.5-.442-.91-1.58-1.922-.624-.263-.254-.684zm.53 46.063l.987-.527 1.636.18.54.488.403.43.004.649.484 1.267 1.698 2.592.957 1.019 2.877 3.782 1.018 1.047.548.32 1.618 1.093 1.229 1.434 6.78 5.68 1.468 1.762-.254.486-.352-.263-1.7-.445-.645-.068-.622.151-.576.388-2.08 2.083-.34-.494.09-.15-1.466-1.394-2.748-2.14-1.033-.275-.742-.71-.952-1.734-.108-.29.069-.512-1.545-1.723.006-.24-1-1.099-1.395-3.995-.867-1.303-1.114-1.148-1.226-4.02-.8-.719-.91.083zm-39.695-47.008l2.542-.63.828 1.623-.391 2.042-2.34.63-1.13-1.216zm-31.826-54.974l2.318 1.509 3.323-1.214 1.411.702-1.306 1.917-2.417.609-2.722-.3-2.721-1.812zm-12.7 77.015l1.454.775.586-.236.655-.71.328.001.939-.452.413-.02L454 902.95l1.917.913 1.47.488.624.471 2.493 2.73-1.267.925-1.764.388-.975-.009-2.126-.521-.946-.254-.505-.383-2.444-.69-1.643-1.448-.058-.267-.031-.27-.398-.524zm-28.645-82.088l.534-.02 1.835.49 2.863.18 2.654 1.193.6.699.923.094 1.53-.515 1.614.234.394-.03.204-.182.691.049 1.356.765 1.103.147 1.172.48.671.574 1.529 1.834 4.13.691 1.561-.332.605-.488.675-1.052-.381-.378-.037-.215 1.358-1.252 1.68-.046.57-.34 3.14 1.26.759.706-.096.206-.903.746-.545.097-.306.297-.496 1.151.102.445-.628.782-.509.233-1.287-.051-1.236.642-.567.111-1.883.137-.172-.18-2.256.116-1.283.19-2.32 1.39-1.43.305-.46.383-.2.406-.554.188-1.845-.448-.634.009-.656.462-3.205-.398-3.968-.783-2.59-1.044-.31-.553-.495-1.543-.152-.82.203-.291.484-1.209.056-.875-1.387-1.384-1.971-1.326-.594-1.13zm-27.891 7.403l.748-.571.738-.25.739-.014 1.08.496 1.074.154 2.419-.372 1.338-.997.349-.681.619-.11.382-.007 1.755.657 2.108.03 1.41-.462.925-.674.073-.287.37-.34.214-.038 1.002.207-.075 1.123-.325.364-.228.805.12.352.19 1.014.44.567 1.319.93 1.227.59.62.041 1.657-.434.46.093-.1 1.375.248 1.326.48.648.069.619-.293.19-2.316.073-1.428.517-2.494 1.692-.124.2-.027.19-.092.123-2.394.556-1.77.086-.589.36-.316.523-1.081.338-3.978-2.442-.844-.922-.89-2.028-.21-.265-.528-.206-.12-.482-.767-1.593-1.258-1.724-2.022-1.078zm-17.04-3.89l1.204-.442 1.393-1.022.3-.288.333.22.648.258.628.037.45-.177 1.432-1.068.465-.516.025-.35-.129-.38.164-.157.504.357.593 1.42-.455.344.134.573.982.39 1.34-.237 1.017.743.488.56.917 1.343-.21.243-1.063.222-2.596-.17-.649.215-.225.291-1.453-.406-2.878-1.42-.496-.013-.327.332-.717.348-2.26-.31zM230.267 437.663l.625-.116.481.834.3.971-.336.646-.742-.406.007-.515-.404-1.008zm-5.175-3.271l.64-.69.612-.352.737.265.182.818-.046.892h-.018l-1.224-.036-.677-.333zM94.088 172.704l1.031-1.747 1.083-2.594.207-.954-.236-.515.422-1.325.304-.35 1.347-2.389 3.041-6.305 1.227-2.133.203-.159 2.015-3.539 3.407-5.092 1.737-3.168 2.195-3.274 2.132-3.55 1.587-3.007 1.926-4.643 1.859-5.985.73-3.698-.804-2.026-.512-.425-.366-.209-.339.003-.323.085-.136.126-.17.021-.152-.248.02-.614.175-2.613-.345-1.171.285-2.19-.398-.791.171-.84.427-.385.623.26.453-.334 1.87-4.192 1.435-3.736.127-1.05 1.372-4.42 1.405-5.612.692-2.613 1.15-6.138.014-2.42.003-.53-.468-3.066-.323-.937.236-3.493-.7-.618-.506-1.538.051-.893.338-.62-.124-1.667-.852-1.439-.024-1.162-.212-1.122-.964-1.706-.161-1.39.125-.685-.132-2.93-.214-.85-.403-1.073-.659-1.14-.858-.61-.617.565-.43.28-.273-.09-.553-1.03-2.367-2.473-.173-.133-.461.017-.428-1.144.852-.821 1.225-2.432 1.002-2.58 1.115-3.915.765-4.998.218-4.054-.355-1.468 6.032.626 1.788.145.049.015.877.065.082.008 6.044.543 11.82.902.896.129.527.075 1.756.033 4.335.232 5.025.542 2.33-.284 5.1.32 1.94.059.519.052 1.124.111.22.02.005-.004 4.544.204 3.738.479 2.423.176 8.303.09 2.73.02 2.67-.078.64-.076 4.37.636 1.294.128 1.435.27 7.345.439 3.374.245 1.266.012 5.396.232 6.177.339 5.547.237 9.49.158 7.315.344 1.406-.003 6.279.475 2.012.135 7.079.305.063.003.267.037h.089l3.786.33 7.2.49 10.893.543 9.82.602.223.014 1.127.06.98.06 6.698.407 4.3.218 5.158.256.562.027.33.017 4.178.137 1.124.07 1.4.089.34-.018.096-.01 1.735-.036 4.18.133.246.057 8.624.352 2.21.192 4.237.243 11.057.237 4.773.073 8.403.233.122.002 3.198.122 10.377.129 12.432.263 2.812.047 7.45-.05 12.82.083.134.059-.11 11.44-.038 11.962-.148 11.973.035.587-.188 11.397-.303 30.337-.234 29.925.004.544v.15l-.047 11.185.044 2.79-.075 21.35-.173 17.222v.056l-.053 5.588v.103l-.19 13.185-.038 3.37-.008 1.392-.014.527-.127 11.186-.249 10.203-.127 6.862.007.08-.113 5.593-.195 17.863-.187 9.131v.007l-.162 6.836-.06 4.332-.06 1.369v.01l-.009.244V299.83l-.102 6.109-.003.337.04 5.822.036 5.17.031 4.418.049 6.642 7.302 6.543 24.061 21.526.047.038.124.112 6.98 6.221.011.012 3.327 2.92 5.73 5.213.45.344 2.823 2.444.386.348 3.786 3.412 2.181 1.872 1.237 1.152 6.027 5.303 2.4 2.107 2.234 1.983 1.149 1.132 4.058 3.52 2.263 2.097 3.991 3.383 2.116 1.852 4.95 4.391 6.823 6.121 1.979 1.645 2.532 2.208 7.288 6.581 3.907 3.34 5.603 4.931 5.786 5.109 14.042 12.33 15.874 13.845.994.93-.004.003 5.14 4.418 5.725 5.142 2.305 1.776 3.485 3.106 9.735 8.634 2.567 2.057 8.06 7.13 3.295 2.77 3.258 2.834.063-.012 10.154 8.935 9.011 7.81 1.733 1.392 6.496 5.617 2.807 2.42 5.392 4.699 5.446 4.617 38.315 32.907 3.461 2.995 1.063.857 9.116 7.937.372.22 10.59 8.988 13.082 11.14.307.237 15.476 13.16 1.707 1.44 3.44 2.83.595.51 8.205 7.005 5.312 4.409 1.754 1.442 1.82 1.578.029.025.042.034 1.714 1.41.138.175 10.861 9.192 7.658 6.357.603.6.133.092.92.767.216.194 7.678 6.414 2.84 2.37 9.734 8.198.044.015 1.17.97.083.042 1.764 1.507 2.017 1.622.433.41 4.784 3.977 9 7.592 1.48 1.192h.009l10.7 8.936.07.055 15.258 12.705.356.693.085.282.064.578-.027.546-.287 1.217-.018.399.078.627.336.744.211.642.019.179.039.439-.132.83-.036.615.031.341.303.927.013.466-.271 1.25-.055.624.026.344.224 1.069.084.208.363.633.617.62.361.26 1.358.626.318.198.743.567.504.514.558.924.482 1.059.24.951.396 1.131 1.205 1.976.558.662.526.47.587.427.944.557.366.357.278.309.153.247.407.415.554.273.596.186.653.277.34.2.094.078.4.55.428.275.4.12.306.028.18.086.11.153.188.37.096.581.331 1.049.304.523.537.752.111.213.071.266.067.184.164.26.07.171.034.176.008.117-.031.443.076.238.044.286.21.277.482.454.27.385.137.426-.042.688.023.136.3.862.902.614.408.39.064.822-.071.16-.166.179-.194.257.038.102.037.416.714 1.06 1.53.992 1.546 2.58.853 1.277.339 1.317.093.934-.2.84-.048.36.007.699.224 1.105.005.188-.1.584-.23.877-.004.157.083.256.725.704.28.238.18.071.854-.163.599-.255 1.104-.275.25-.022.368.11.217.18.22.264.454.78.604.09.598.262.994.514.567.501.253.363.1.655.155.274.146.157.168.115.58.17 1.058-.03.28.093 1.073 1.048.36.17.307.222 1.004.826.458.75.327.276 1.065.253 1.206-.002.752.466.48.133.39.188.382.259.382.406.39.522 1.18 2.104 1.477 1.081.248.252.032.232-.066.527.168.729.269.766-.047.395.057.264.212.534.053.26.012.292-.11.238-.224.2-.48.038-.2.025-.506.178-.295.015-.237.04-.167.14-.09.198-.046.192-.035.175-.153.222-.529.298-.084.187-.11.295-.027.123-.123.17-.989 1.026-1.312 1.695-.257.43-.285.292-.63.45-.137.166-.039.195.153.792-.128.527-.207.218-.889.462-.258.393-.781.667-1.153.478-.606-.143-.996.258-.427.43-1.426 2.38-.663.69-.302.22-.945.365-1.008.05-.406.173-.257.3-.275.727-.468.555-.224.129-.822.231-.9.687-.922-.077-.385.046-.469.197-.334.275-.348.46-.418.695-.118.447-.41.485-.059.111-.035.788-.119.81-.011 1.44.032.416.1.36.33.749.092.487-.015.996-.126.573-.162.35-.248.347-.506.414-.373.199-.345.044-.184.094-.125.181-.009.187.045.213.252.519.036.26-.059.206-.093.102-.319.06-.142.074-.226.516-.37.404-.44.364-.064.116-.042.254-.123.24-.787.96-.363.55-.777.534-.139.035-.4-.074-.497.299-.493.844-.457 1.392.097.623.132.237.47.205.268.12.628.433.643.602.295.487.074.229.013.203-.05.125-.176.174-.224.137-.204.199-.114.144-.064.178-.002.154.048.187.078.166.131.219.369.28.741.55.097.183.096.712-.054.236-.134.163-.714.643-.176.069-.657.02-.18.132-.12.26-.05.33.015.378.429.933.21.32.317.747.063.24-.034.348-.14.326-.352.317-.064.132.814 1.52.385 1.11 1.002 2.01.256.744.082.413.036.55-.086.486-.144.502-.285.784.195.195.31.14.244.232.16.343.18.228.387.28.184.47.119.658-.043.978-.052.164-.687.46-.614.234-.544.337-.388.302-.296.354-.187.37-.062.432.08.405.138.304.137.192.13.168.096.132.078.133.034.196-.003.16-.04.104-.085.167-.093.267-.139.312.04.256.114.35.123.268.118.389.04.455-.106.31-.09.287.058.474.182.39.204.215.12.229.01.298-.145.273-.185.24-.835 1.643.124 1.101.473 1.14.028.034.855 1.091.242.368-.004.15-1.396 1.128-1.343 1.217-.042.117-.056.663.079.618-.022.16-.663.833-.345.203-.563.16-.627.469-.255.332-.41.942-.151.667-.144.313-.466.717-.359.45-.765 1.532-.022.215.156.701-.289 1.47-.167.573-.425.595-.641.672-.506.365-.275.097-.475.03-1.373-.426-1.198.14-.633.345-.064.115-.008.204-.067.124-.322.291-.772.183-.79.002-.31.166-.112.163-.013.103.036.174.238.347.884 1.01.48.383.108.157.043.193.006.413.845 1.525.115.462.048.423-.113 1.602-.288.979-.195.465-.217.31-1.025.964-.483.698-.098.184.014.165.807 1.414.146.1.341.16.589.137.726.086.74.156.898.312.352.222.328.324.483.96.044.2-.18.316-1.11.883-.1.168.02.12.665 1.01.438.44.353.465.094.238.026.399-.128.88-.164.778.083.392.357 1.148.01.277-.006.411-.216.72-.06.524.19.684-.023.356-.211.464-.13.744-.17.628-.213.464-.529.736-.436 1.841-.14.885-.079.824.062.65.14.292.162.101.312.044.564-.033.183.03.32.153.046.117-.029.384.043.313.23.514 1.214 1.323.016.997.174.568.28.381.532.376.247.107.214-.018.163-.134.21-.358.435-1.037.241-.243.393.174.193.15.518.603.58.776.23.147.622.177 1.548.05.96-.168.235-.095.18-.149.25-.469.243-.314.26-.144.3-.035 1.615.133 1.274-.056 1.304.14.306.073.336.22.146.096.335.288.508.622.334.577.332.721.328 1.259.243 1.16.182.585.133.245.26.174.129-.018.61-.274.064-.172.353-.187.456.074.185.166.168.548.091.633v.45l-.085.387-.117.357-.239.454-.338.507-.165.38.001.185.23.7.247.462.28.29.87.695.082.143.097.379.039.625-.016 2.33.002.024.055.45-.022 3.078-.538.72-1.435 1.726-.178.116-.045.026-1.107.69-.402.553-.325.627-.035.22-.125.21-.541.605-.14.305-.057.244.072.895-.008.58.076.27.358.693.23 1.037-1.058.109-6.353 2.933-.041.488.022.1h-.008l-.232.041-1.265-.16-2.244-.112-.05.002-.754.024-.85-.134-.137-.03-.498-.052-.392.02-.931-.666-.176-.065-.102.016-.294.437-.665 1.22-.086.28-.11.644-.145.312-24.24 3.992-40.095 6.438-50.31 7.902-5.159.804-.801.124-.9.183-7.386 1.097-28.591 4.351-7.5 1.167-19.993 2.933-6.16.981-1.56.144-6.99 1.102-3.169.408-5.402.823-.923-4.267-.027-1.037-.032-1.185-.417-2.234-.28-.85-1.924-3.404-.833-1.138-1.044-.963-1.123-.586-.336-.1-1.416.171-.92.525-1.03 1.255-.849.241-.92-3.146-.315-2.683.111-2.015.213-.785-.349-3.508-.597-1.655-1.807-1.906-.174-1.784.072-.365.6-.893.783.227.358-.397.363-.718.268-1.266.061-.29-.349-2.655-.647-3.191-2.089-8.302-1.18-2.258-1.578-4.06-.551-1.937-1.242-2.878-3.135-4.69-2.625-3.442-.941-1.082-3.967-5.517-2.187-2.796-3.22-3.764-3.725-3.107-2.111-1.318-2.101-.715-.026-.047-1.074-1.943-2.122-2.421-1.227-1.01-3.415-2.07-.397.195-.22.37.06.265-2.075-.606-1.029-2.32-.512-.544-2.581-2.743-2.09-2.527-1.42-.45-1.121-.574-2.297-2.12-3.177-1.84-1.988-.694-2.35-.54-1.195-1.457-5.22-3.381-2.543-2.203-3.093-3.471-2.095-1.877-1.051-.415-1.263-.872-1.478-1.02-2.08-.68-1.592-.3-.453.066-.553 1.433.372 1.335.061 1.325-2.458.255-1.724.828-2.2 1.054-1.587-.31-1.7-.09-1.724-.425-1.39-.83-1.849-1.105-.504-.451-2.098-.43-.978.582-1.257-.598-1.528-3.328.412-.756 1.532-1.894.903-.438.216-1.141-.101-2.611-1.836-4.37-2.63-5.725-1.598-2.918-2.054-2.89-1.608-1.792-1.437-1.203-2.018-1.091-2.218-.284-2.904.31-.511.277-4.977-.178-.598.152-.327.437-2.27.427-2.222-.313-1.063.079-3.247 1.12-.308.209-1.505 1.89-1.411-1.284-1.61-1.37-1.217-.67-3.522-.473-2.708-.652-.847.26-.579-.194-.835-.282-1.962-1.173-1.633-.612-.65-.024-2.794-1.703-2.754-.731-1.577-.79-.82-.1-.976.494-1.728-.555-4.968-3.947-1.228-.556-.685-.037-.44-.12-.963-1.592-.8-1.434-1.696-3.822-.757-2.171-.363-1.866-.301-.595-.42-.83-1.04-.813-.943.221-.92-.296-2.064-1.513-.99-1.406-1.786-1.536-.457-.166-1.05.38-.185-.08-3.146-3.547-.277-.232-.406-.055-2.117-1.857-.979-.159-.47-.16-2.724-.928-2.21-.94-1.89-1.826-4.822-.784-1.85.535-.823-.176-1.95.126-1.372.361.293.43-.598.521-1.459.785-1.707-.059-1.35-.72-3.389-1.352-.747-.167-3.446.162-1.519.785-1.697-.093-4.287-2.593-2.62-.16-1.296-.964-3.018-1.638-2.58-.33-.996.172-3.184.113-.722-.17-1.77-.847-1.906-.377-3.558.266-3.524-.068-1.053.239-1.66.043-2.117-.122-1.008-.246-.347.086-.226.267-3.333.794-8.458.603-.802.436-1.674-.106-.39-2.786-.304-.609-.835-.933-1.692-3.378-1.103-.869-4.686-2.702-2.267-.014-.313.308-.884-.064-1.25-1.267-.633-1.52.51-2.367 1.327-3.032 2.054-5.814.152-1.272-.092-.518-1.057-2.154-.942-.767-.888-1.828 1.282-3.772.604-2.323.587-2.672v-1.566l-.486-.878-1.881-1.426-.215-1.397-.41-.717-1.294-.033-.655-.31 1.972-7.084.8-2.879.595-3.04.36-2.871.065-1.705-.065-2.389-.354-2.22-.673-1.614-.547-.836-.926-.585-.459.124-.583-.116-.968-.795-.963-1.081-.433-.213-.82-.3-1.65-.288-1.212.042-.499.301-.181.552.044.886-.366.068-1.509-.964-.564-.9-1.568-.777-3.374-2.048-.77-.227-1.355-1.975-1.904-2.291.009-.618.68-2.392.849-1.633 1.102-3.304.42-1.971.08-1.411-.246-3.266-.23-1.038-1.211-2.748-.964-1.24-.893-.711-3.178.156-.341-.141-.406-.588-1.097-.68-.553.103-2.232-.23-1.762-2.458-2.19-2.373-.554-.232-3.306-4.041-1.872-4.514-.595-.763-.803-.587-1.806-3.012-1.792-.833-.53.226-4.51-1.742-1.708-1.068-1.01-.778-.345-1.553-.521-.762-.647-.521-.783-1.185.034-3.946-.69-1.716-.569-1.403-1.094-1.251-.816-.933-2.486-2.024-1.457-2.176-.478-1.092-1.107-.519-1.005-.723-1.78-1.94.125-1.13-.155-.76-.676-1.579-.939-5.103-1.265-3.053-.666-.657-1.617-.838-1.752-.61-1.283-.221-.39-.378-1.187-2.575.11-.338-.254-1.143-1.108-.744-.898-1.61-.225-1.205-.561-1.502-3.888-5.302-2.878-3.053-4.932-3.432-1.361-.738-.806.098-.54-.155-.992-.805-.719-.921-.247-.985-.945-1.779-1.793-1.2-1.045-1.422-.438-1.52.241-2.256-.932-1.826.247-.553.146-1.794-.061-1.176-.179-.468-.675-.644-.203-1.056.267-1.097-.744-2.836-.86-1.895-.296-1.325.24-1.119.078-.949-.371-.554-.036-1.007 1.28-.073.236-.193-.377-3.49-.775-.684-.566-.141-.16.352-.468-.068-1.184-.94-.449-.73.664-.198 2.456-3.42.318-1.57.182-.275.542.002.453.26 2.59 2.637.056.752.182.038 1.246-.257.89-.62 1.546-1.826.883-1.44.606-1.209.952-2.522.72-3.094.26-3.59 1.603-5.296-.215-1.125-1.283-3.39-.087-.202-1.245-2.912-2.536-5.306-1.344-1.91-1.103-1.211-.907-.746-1.835-.994-.747-.023-.997.614-1.751 1.647-.247-.001-.617-.493-2.236-.679-.884.2-.351 1.08-1.835.179-1.296-.034-.198-.058-2.909-.85-2.66-2.015-1.123-.64-2.418-2.365-1.48-1.116-3.43-4.695-.593-1.333-1.79-2.993-.613-.584-.998-.952-.606-.207-.73.233-.594-.018-.512-.229-.124-.351.19-.98-.034-.513-.45-.834-1.188-1.201-.118-.804-.372-.936-.921-.873-.886-.23-.49-.449-.588-.88-.046-2.355-.113-.582-.5-.779-.216-.869.088-.696.622-1.689.787-4.68.391-2.328.15-2.198-.582-1.576-1.013-1.813-1.381-4.378-.049-2.542-.381-1.904-1.15-1.805-.34-.256-1.09.527-.631.195-.416-.32-1.229-2.642-.138-1.59.27-.743.148-.11.118-.6-.219-2.38.147-1.428 1.284-.824.425-1.216.378-3.14.01-4.197-.327-2.165-.235-1.557-.045-1.163-.136-3.536-.145-.967.755-.7.966.088.568-.237.705-1.96.592.244.49.423 2.981-.471 1.443.028.697.61.924 1.522.459 5.538.436.284.2-.248.172.04.653.54-.46 1.41-.663-.286-1.684.829-.145.071.291 2.834.958 1.717-.152.964-.189.185-.752.156.048 1.072 1.556 1.214.742 1.074-.28.44-.905-.37-.234.053-.45.787 1.368 1.367 3.324.328.161.365-.043.354.729.847 3.371.425.815.688.55.838 2.267 2.055 1.38.195.058 1.463 1.994 1.91.988.34.482-.124.769-.483 1.083 1.403.6 2.313.593.518 1.422 1.24 1.468.298.794.16.086-.038 1.212-.54-.13-.232-.908-1.628-.677-1.583-1.838-.906-1.447-.868.007-.324.039-1.782-1.164-3.2-.4-.245-.26-.466-.472-1.449-.175-.657.185-1.223-.046-.65-.358-3.322-.652-2.655-.016-.066-.576-.837-.621-.418-1.373-1.328-.489-.515-.761-.128-.581-.708-1.89-1.71-.65-1.392-.135-.395.09-.53.396-.24.581-.236.196-.332-.831-.78-.79-.38-.87-.307-.827-.25-.608-.124-.787-.456-1.114-.491-.903-.519-.014-1.21-.289-.37.203-.993.857-1.284.476-.332.896-.02.191-.25.29-1.732-.586-2.617.13-1.853-.233-.432-.018-.02-.754-.891-.825-.332-1.756-.088-.43.43-.408.012-.86-.173-.544-.318-.245-.207-.04-1.23-.332-.47-.477-.154-.922-.92-.252-.63-.888-1.982.037-.224 1.107.283.266.272.248.305.656.185.665-1.347 1.95-.709.5-1.142-.064-.436-.284-.417-.105-.943.099-.447.338-.144.302.432 1.474.69.643-.129.066-.052.809-.647.435-.043 1.13.314 1.402-1.094 1.704-2.08.033-.677-.254-.861-.422-1.432-.72-.875-1.362-2.262-1.166-.738-3.867-2.522-1.881-.865-.304.153-.987.493-2.402 1.781-.839.021-.34-.276-2.3.267-.446.267-.07.22-.052.161.044 1.1.218.69.133 1.815-.739 1.479-.684 2.354.061 1.263.232.432.976.795 1.426.494.724.749.316.792-.019.354-.665.547-.444-.281-.735-.07-1.373 1.414-.137.186-.03.548.15 1.042.542.352.082.392-.53.36-1.059-.217-.293.243-.04.774.7.716.56.03.62.355.44.832-.065.772 1.025.895.785.105.665.973.061.294-.967.92-.954.177-1.545-2.18-1.35-.423.25 2.275.99.726.353 3.128-.245.687-.33-.146-1.73.364-1.87.207-.572-1.148-.88-.63-.89-1.59-1.736-.826-1.237-1.64-1.95-1.189-.939-1.165-1.247-.778-1.695-.3-.288-.002-.915.47-.746.685-1.857-1.173-.348-1.561-.28-.57-1.32-1.033-.882-.296-1.253-1.389-.556-1.82-.399-.737-1.745-2.085-2.613-2.126-1.93-.96-4.425-.92-1.344.233-1.258.76-.795 1.05-.076.475.152.349.232.523.164.331-3.837-.478.3-.442.343-.191.38-.15 1.714-3.678 2.869-6.853.833-2.475.325-1.51.017-.983-.24-1.161-.841-1.18-.006-1.125-.111-.392-1.655-3.134-.129-.443.069-.201.456.24 1.465-.438.153-.76-.66-1.737-.68-.56-.578-1.014-.155-.636-.41-.641-.085-.134-1.474-1.427-1.092-.364-.966.224-.216.476.09.349-.131.273-.371.079-.395-.402-.723-2.054.559-1.21.165-2.418-1.142-3.09-1.24-2.542-1.298-2.225-.413-1.316-1.21-.963-1.522-1.626-2.627-2.075-3.536-1.877-2.673-3.046-.745-.367-2.516-2.34-.714-2.454-.435-.698-1.634-1.136-.47-1.479-1.274-2.552-.354-.26-.154-.727-1.862-3.115-.606-1.28-1.372-1.79-2.087-1.64-1.821-1.085-.709-1.213-.538-1.472-.575-.86-2.147-2.257-.566-.496-.497-.038-.974-1.175-.069-.483-.258-.39-2.386-2.242-.306-.036-.348-.17-.302-.915-.11-1.093-.343-.701-1.996-2.212-1.564-2.041-1.095-.494-.085-1.19.15-.662-.826-1.802.461-.051.303-.142.637-.66.87-1.253 1.273-2.562.587-1.612.12-.958-.106-2.576-1.104-5.082-.492-1.692-.987-1.474-.122-.381-.17-2.112-1.225-2.705-.354-.228-.553-1.845.004-2.459-.595-2.696-.785-.747-.311-.748.192-.451-.04-.807-.47-2.096.28-1.108-.54-1.452-.318-.518-.12-1.666-.015-.773.382-1.074.229-2.603.83-3.819 1.762-4.328.984-1.606.51-1.14 1.128-2.973-.004-.688-1.188-4.45.326-.46.178-1.154-.024-3.75-.294-2.381-.967-2.665-1.179-.81-.322-.507-.097-.744-.201-.808-.124-1.339.244-2.302-.055-1.895-.62-3.592-.137-.21-1.975-1.254-1.817-1.853-.464-1.231-.01-.566-.84-2.847-1.754-1.369-.457-1.52-1.102-2.501-1.093-1.116-1.866-2.893-.794-1.233-1.434-1.182-.637-.097-.31.314-.257-.152-.498-.732.226-3.515-.377-1.229-1.538-2.584-2.074-1.39-2.214-.943-1.213-.714-1.755-3.094-1.11-1.128-1.912-1.391-2.611-2.6-1.655-1.868-.412-1.079-1.079-.732-.657-.684-.702-1.081.108-1.47 1.472-3.607-.25-1.65-.226-.368-.334-1.487.014-2.406-.458-1.791-.354-.603-.843-.868-.693-1.52-.38-1.581z"/></svg>