<svg height="1000" width="1000"><path class="americon" d="M599.426 745.447l.18-.593 1.523-1.692 1.116-.238.834-.626.988.013 2.577 3.71-.039.66-1.074 1.356-4.268.072-1.832-2.322zm.562-17.344l1.044-1.008 1.435-.365 3.426-1.852 1.416.32 1.3 1.178.211.672-.576.13-.432-.523-1.77 1.539-.928 4.454-1.307.542-4.986-3.148zm-20.215 7.514l.826-.537.632-8.82.685-2.351.366-2.43 1.17-1.47 1.323 1.397 2.236 4.998 4.644 2.321 1.267.792 1.327 2.33 3.728 4.61-1.792 3.15-4.78 4.76-1.714.702-1.621-2.034.153-1.733-1.499-2.554-3.636-.502-.744.296-1.875-.053-.873-1.198zm-2.669 10.277l1.133-2.61.667-.481 1.19.65 1.054 1.576.236 1.548-1.764 2.237-2.229-.777zm-2.227-50.553l1.204-3.019-.224-2.013.485-2.939.905-.836.785-.103.99.628.464 2.744 3.252 10.9-1.678 1.303-4.023-2.367-2.403-1.887zm-48.356 24.106l.917-.952.92-.437.313.06 5.252.993 3.522 3.256.14 2.062-1.705 2.25-1.542-.16-1.795-1.017-1.24-.85-.988-.335-1.174-.507-1.048-.078-1.31-2.225zm-11.084 84.044l.504-3.416 2.213-2.769 2.093-.931 1.858 3.267.291 4.198.021 3.02-1.945 3.69-2.601-.038-2.407-2.557zm-5.24-56.885l1.435-3.845 2.81-3.924 4.487-2.502 1.546-1.554 4.905-3.622 3.473-.752.937 1.277-.476.364-.09 1.121.714 2.776 1.597-.083 2.541 3.326.842.439.705-.301.268.443-1.773 1.44-1.588-.227-2.49.24-.252.312-.126 1.146.169 1.78.633 1.357 1.37-.121 2.605 5.104 1.392 1.88 1.447 1.265.386 1.94-1.45 2.598-.928.938-.787-.065-2.6 3.97-1.744.835-1.578-.004-5.402 1.59-1.779-.058-2.463-1.551-4.477-2.87 1.48-2.702 1.331-1.959-.816-2.268-1.317-1.71.853-4.454-.19-.98-5.361.09zm-3.683-30.406l.275-1.61 1.798-2.854 1.688-1.916 3.643-6.312-.037-5.573 1.163-6.478 1.246-2.974 3.825-1.764 1.645 1.111 1.242 3.706-.562 2.062-1.132 2.265-1.767 1.425-.881.005-.642.778-.567 2.77 1.453 4.117-1.847 4.232-.747.854-1.926 8.102-1.492 2.158-3.038 2.686-.925.465.743-1.768-1.31-3.727-.652-.776-1.009-.5zm-57.393 106.114l1.887-1.692 2.072-.562 2.259 1.51-.757 2.448-1.886 1.694-3.768-1.137zm-265.18-340.13l.72-.298 1.176-.747 1.072-.484 2.548.24.642.264 1.168-.119 1.354-.335 1.155-.472.81-.463 1.05-1.87.029-.143-.387-.676-.899-.708-.208-1.873.035-.316.313-.528.894.425.455.397 1.336 1.23.366.423.127.356.55.552 2.8.044 2.503-.38.202.654.783 1.584.687.923 1.397.415 1.26 1.035.525.437.775 3.43-.27.74-.803 1.212-.196.444-.304 1.184.03.125.929.926 1.063 1.207 1.361 2.385.26 1.177-.343 1.944.227.452.603.639 1.16.967.985.377 3.244.99 1.958-1.102.883-.633-.347-.307-1.063-1.285-.068-2.535.153-1.496.819-.481.344-.312.324-.421.698-1.281.512-.942.313-1.59.042-.741 1.96-1.547.135-.07.616-.824.628-2.06.305-2.343-.171-.733-.284-.424-.417-.071-.526-.565-.224-.447-.122-.538-.086-1.097.062-.285.86-3.246.91-1.294.178-.163.571-.162.187-.143-.004-.351-.469-2.179-.206-.343-.687-1.152-1.452-1.596-.268-.131-.153-.475-.1-1.116.075-.408 2.016-2.335 1.647-1.381.576-1.319.114-.55.467-.298 2.073-.592 3.912.716.238.13 1.462 1.49-.132.843.122 1.14 2.02 2.776 1.074.915 1.559 1.05 3.017-.343.792-.122.42-.385.163-.025.837.206 2.51 1.868.013 1.702.111.062 1.341.204.802-.315 1.743-1.022.686-7.065-.564-2.498-2.076-3.289-1.983-.869-1.778-1.313-.9-1.324-1.546-2.815-1.901-1.855-.495-.295-1.338-1.52-.809-4.319-.018-.603.098-.511.2-.489.778-.72 2.21-2.331.287-.423 2.07-3.738-.005-3.216.39-.3 1.123-1.106 2.99-3.421 1.531-2.394-.121-.245.91-1.665 1.434-.638 2.769-1.26 1.716-2.118.746-.15 1.377-.548.151-.144 4.128-5.21.447-1.163-.254-.297v-.163l.831-.838.846-.23.006-.001 1.71.284 2.348.091.967-.721.019-.375.082-.116 1.359-1.487 2.083-1.613 4.101-3.06 2.78-.54.692.1 1.21-.047 1.232-.584 4.635-2.62 1.55-1.845 1.057-1.344-.677-3.217-1.118-1.434-.837-.369-.703-.863-1.26-5.278-.258-1.647-.001-.173.116-.15 1.352-.468.25.025.303.273.362.082.335-.062.573-.56-.051-.823-.263-.312.251-.936 1.356-2.247 1.102-1.182 2.108-2.188 3.766-3.629 1.911-.307 1.902-.533 1.663-.676 3.345-2.584 3.297-3.345.542-.615.861-2.618-.014-.763-.55-2.512-.467-.477-.266.098-.073-.07.016-.793.172-.292 1.481-1.689 1.762-1.242.12-.396.01-.6-1.868-2.511-1.832-1.641-1.327-.37-.967-.216-1.328.407-3.497.22-.49-.28-.097-.076.012-.093.753-1.633.386-1.858.348-.495.934-.587.797-.117 1.255-1.235.49-.758-.052-.05-1.18-.407-1.512-.37-.086-.11-2.009-4.258.007-.089 3.673-4.737 2.131-2.186.217-1.033.035-.57-.103-.213-.78-.468-.466.03-.837.392-2.07-.184-.328-.248-.236-.452 3.233-6.342.797-.928 1.784-.737.94.299 1.832.334.243-.216.023-1.203-.383-.464.003-.399.596-1.654 1.184-2.31.66-2.991.26-.988-.334-.586-3.791-4.214-.723-.599-.356-.096-.65-.553-1.868-2.365-.25-1.243 1.095-1.137 2.056-2.72 1.784-4.61.32-.883.506-2.322.165-1.67.27-1.035.698-1.705 2.404-3.682 2.75-2.287 1.309-.954.441-3.108-.178-.46-.385-.595-.213-2.089.205-.501 2.434-3.553.403-.405 2.11-1.783.408-.17 1.58-.335 1.889.474 1.104-.785 1.176-1.319.54-.093.331-.544.026-1.46.317-.553 1.026-.601 1.213-.383 1.56-2.62-.06-.186.048-1.225.626-.937 1.044-.248 1.324.05.612.254 2.837-1.168.095-.111.003-.22 4.862-30.072.516-3.482.59-3.987 3.643-22.01.427-.708 6.616-9.314 1.029-1.593 10.223-14.411 8.315-12.088 37.15-53.044 18.55-26.545L466.096 25l.636.537 2.317 1.053 3.153-.727.508-.214 2.022 1.184 1.191-.002 1.387.46 3.459 1.478 2.043 1.282 1.399.978.165.19.09.704 2.051.64.267-.02 2.002-1.319.792-.6.825.163 1.66.98.18.21.493.95.359 3.018-.322.833-.463.624.054.398.176.252-.135.161-.218.03-.307 1.124.167.564.2.3.442.325.078.267-.673.294-.359-.053-1.067 1.293.123 10.705-.186 2.482.802 2.007-.316 1.427-.183.317-.016.827.068.282.229.111.088.224.107 1.45-.153.876.129.803.254.544.117 1.523-.143.862-.179.2-.149.487-.051.531.058.15 1.474 2.45.978.873.49.09.905.465 2.86 1.733 1.663 1.185 1.675.99.872.677.425.504.832.336.775 1.516.393.017.732-.272.122.14.11.675.2.093.213-.074.928-.765.985.876.86 1.057.273.062.217-.191.257.013.64.581.078 1.105.419.11 1.037.642.657 1.14.41.442.21.067.317-.606.445-.33.359-.02.443.153 1.12-.245.646-.696.494-.388.49-.183 1.194-.068.77-.307.588-.536.707-.882 2.527-1.592 2.705-2.26 1.247-.133 3.315-1.214 1.568.042.755-.216 1.784-.935.984-.953 1.417-1.017 2.523-1.115.61-.021.395.137.343.342.473.132 1.707-1.083.435-.2.397-.052 1.702.321 1.726 1.231.306.09.503-.18.655-.504.849-.057 1.301-.374 2.028-.235.752-.184 1.701-.931.442-.414 1.337-1.78.19-.338v-.413l-.146-.412-.536-.997-.015-.428.262-.397.623-.645.263-1.138.267-.358.82-.813.635-.446 1.078.094 1.556.696.94.295.31.001.736-.17 1.013-.48 1.498-1.61.8-.462.792-.292 1.521-.136.496.057 1.057.385.816.066.624-.126 1.114-.493.594-.145.662.147.584.402.342.548.582 1.315.266.303 1.365.423.807-.212 1.547.309.534-.013.52-.27 1.339-1.003.39-.152 3.368.34.97-.02.642-.2.264-.208.136-.331.026-.47-.108-.421-.096-.29-.254-.377-.798-.859-.126-.3.027-.462.418-.585.059-.288-.522-2.79.034-.988.525-2.84.238-.62.58-.939.597-.763.645-.595.595-.394.916-.327 2.72-.624.914-.108.966.057 1.923.746.89.135.438-.129 1.147-.739.482-.164.75-.052.845.365.848.769.407.246.663.242 2.472-.039 1.12-.382.8-.19 1.016.405.436.473.071.203.018.666.188.459.762.768.46.25.482.102 1.001-.15.278.063 3.833 2.09 2.13.276.901.479.233.263.171.556-.12 1.598.044.49.149.392 1.013 1.212 1.245 1.683 1.284.374.415.425.587.815.261.204 3.972 2.174 1.409.987.402.42.398.682.239.969.292.49 1.78.668 3.593 2.216.503.423 2.078 1.148.541.753 1.454 1.672 1.219 1.806.94 1.214.25.207.602.349 2.138.42.336.162.828.727 1.146.676.509.713.163.784.138 1.553.187.55.708 1.155.236.187.589.988.511 1.394 1.518 2.224.885.618 1.378.627 1.07 2.213.331.525 1.173 1.08.166.273.331.838.158 1.255.022 1.145.087.368.46.915.27.31.378.401.47.305 1.133.298.85.34 2.29 1.168 1.793 1.324.664.3 1.323.228.364.162.664.48.845 1.065.916.552 1.482.712.582.4.121.461.062.682.096 4.692.185 3.132-.029 2.22.111 2.516-.053.77.753 25.407.406 18.4.228 6.269.056 1.561 1.02 33.455 1.512 35.156 1.263 33.919 1.639 51.751.193 7.314.097 8.717.164 4.5.194 1.044.376.842.113.026.29-.21.201.035 2.454 1.85 1.11 1.698-.198.636-.555.724-.584.395-.611-.093-.188.143-.51 1.693.153.735-.134.136-1.544.652-.623.007-.307-.096-2.625 2.64-.084.18-.072 1.91.183 1 1.129 2 1.072 1.74 1.016 1.102.787.585.902.484.443.422.654 1.126.185.867.18.31 1.191 1.014-1.286.758-.257.332-.194.065-.894-.159-.73.054-.363.231-.06.125.018.305-3.163 2.814-.642 1.92.52 2.811-.207 2.565-.532.502.486 2.595 2.017.992 1.796 4.131-4.194.525 1.195 7.122-2.207.58 1.946 2.856.34.499 5.227-.075 2.229 2.053 3.63.883 1.504.112.111-.067.236-.53-.027-.591-.85-.494-1.14-1.66-.469-1.285-.161-1.022.707-.025.344.108 2.644 1.89.694 1.218 1.31 2.963.864 2 2.716 4.112 1.393 1.363 3.184 2.254.825-.582-.644-1.502.664-.355 1.226.69 3.96 3.095 3.473.767 3.37 1.535.668-.055.073-.476 1.539-.22 1.71.514 2.518 1.541 2.897.104 1.256-1.007.351-.693-.101-.494-.323-.415.176-.495 1.956-.707 3.212-.215.878.361 3.15 4.02.679.99.323 1.487.564 4.762-.602 2.016-.443.052-.113-.122-.245-.031-.235.087-.314 1.115-.071 1.112.049.43.493 1.883 1.829 1.86.68 1.62.003.295-.143.04-.56-.645-.26-.166-.242-.001-.195.653-.297.352-.3-.046-3.095-.62-1.982-.746-1.116.768-.068.224.057.91-.907.64-1.663.806-1.714.65-.543.304-.095.255.115.679.564 1.564.855 1.054 1.163 1.05.741 1.532.082.546-.427.509.108.872 1.224 4.366.626 1.334.333.39 1.99 1.56 1.634 1.708 2.855 3.12 1.823 3.338-.03.269-.365.433-.34.146-.53-.032-.42.41-.164.238-.425 1.172.143.886.914 1.236-.36 1.467-.623 1.887-1.03 1.232-1.693 1.433-.416.405-.054.175.057.37.657.908.02.603-.144.565-1 3.038-.78.71-.018.664-.057.076-1.982.942-.411-.343-.3-.09-.213.102-.122.177-.392 1.742.03.296 4.187 7.92.237.285.287.169 1.036.139 2.159 2.98.47.935.96 2.703.434 2.365.073 1.266 3.42 2.875.471 2.69-.093.454.015.436.134.63 2.19 1.186 1.074.366 4.206 4.296.58.48 1.224.626.738.182.142-.04 1.489-1.367 1.677-1.74 1.943-1.247 1.096-.44.3-.288.185-.378.05-.835-.414-.367-.74-.375-.161-.912.45-1.662.496-.335.678-.252-.068-.657-.284-.342-.054-.4.404-2.1.115-.238.916-.761 1.922.134 1.48.66.594.554 1.729.883.43.525.31 1.297.26.223 1.181.516.46.641.454.395.636-.034 2.873-1.78 1.994 1.124 3.569.142 1.025.333.287.138.237.248 1.994 3.033 2.677 3.041 2.694 4.2 3.021 7.882.663 1.436-2.289.728-1.727 2.035 2.848 2.432 2.84 3.231 1.188 2.201.426 2.356.751 1.559 2.22 3.005 2.87 8.865.79 1.165 5.005 4.377 1.727.146 1.043 1.104.224 2.008-.305 1.345-.506.167-.046 3.03 1.617 4.225.494 1.252-2.21 1.785-.507 1.006 1.789 5.146.687 1.971 1.121-.377-.019-.546 1.284-.83 2.202-.313.366.562-.077.63-1.55 1.647-1.367.397-.45-.029-1.204.542-.804.453-.458.665-.824 1.712-3.648 4.427-.927.74-2.626.79-1.879-1.311-1.075.457-.066 2.463-1.42 3.602-1.533.51-1.423-.552-.975.34-.57 5.22-3.65 4.94-1.596.405-1.286 2.17-.968 3.235.11.284-2.329 1.4-1.859-.277-.738.257-.785 1.584.162 1.686.33.47-3.602 1.513-3.274.562-1.786 2.424-4.432.806 2.238 4.023-4.876 1.34-1.384.474-1.946-.125-1.332-2.389.05-.67 1.815-.229 2.48-4.688.075-3.084-.973-1.255-1.77-1.012.017-6.966 1.158-1.23.08-1.953-1.461-.328-6.005 1.95-1.262.135-2.527 1.707-3.688-.24-1.237 2.581 3.78 2.524.355.857.799.52 1.118 2.248.798 4.47-.738 1.585-1.4 1.12-1.457-1.523-.322.103-1.004 3.007-.411 2.255-.946 1.862-1-.558-1.15-1.382-.293-.95-1.213-.234-2.35.81-.567.569-.141.645-1.415.55-3.561 3.953-1.402 1.17-.012 4.172-4.125.543-2.377-2.129-.728-1.543-5.73 2.551.836.818 1.284 3.744-.85 1.84 7.446 4.39 1.95 2.758-3.3 5.074-2.38 2.507-6.194 3.601-1.276-3.18-6.31-5.232-2.311-4.215-.787-4.15-.651-2.177-.598-.349-3.908.206-1.609.778-.94 1.308.662 2.636-.65 2.399-1.604 2.14-1.37-.679-1.713.544-1.464-.214.035-1.911.405-.615-.552-3.803-1.799-3.703-.8-.618-1.313-.33-1.175 1.143-.835 2.646.786 3.673-2.547 4.307 1.855 4.255-2.114-.19-1.647-2.077-2.94.744-1.878 4.014 1.182 1.718-3.131 6.183.035.963-.504 1.07-2.171-1.087-1.564-2.342-1.359.584.037 1.465-.642 3.657-1.09 3.43-2.022-5.436-.32-2.374-1.258-.61-.777.293-.638.657.497 1.637-.547 2.08-.788.163-1.71-.979-1.31-.06-.206.195-.69.651.07 2.93-2.63 2.69-1.058.05-1.877-2.793-.558-1.453-.865-.621-.709.474-1.322 2.32.898 1.446-3.01 6.575-.853-.073-.706.658-.033 1.467.299 1.643-.92 2.846-1.728-.236-1.063-.786-1.466-2.64-2.929-.706-1.367-1.456-.102-1.334.3-3.345-.74-3.47-3.075 1.918-2.282 2.301-1.387-2.188-5.108.472-1.074 2.516 1.085 3.68 1.302 2.874.235 3.317-2.769 4.8-4.986 3.688-.722 5.108 3.514.676 2.303 5.312-.917.524-7.812.422-2.774.358-1.227-.648-3.666-1.132-3.047 3.873-3.424.54-.593-1.435-3.511-1.771-.708-1.178-1.302-.908-1.855.138-1.806-1.104-2.951-4.843-.291-2.149-.787-2.311-.768-.758-.031-3.055-2.364-2.654-1.035-2.442-.769-1.762 1.536-3.478 1.735-2.123 2.042-.92 3.767-.582 4.702-3.244.606.378.528-.17.336-.587-.19-2.291-2.157-4.514-1.059-1.37-1.34-.173-.494.782-.222 2.037-3.65 4.443-.832.353-.951-.07-.956-1.02.128-5.47.412-2.743-1.529-1.92-1.363-.298-1.098.452-.75.923-.574 1.476.851 5.324-.775 3.08-.002 1.528.514 1.18.023 1.557-.782.286-1.901-.156-.817-2.187.364-2.02 1.223-1.484-1.266-6.21-.79-.356-1.424 1.027-.738 3.4-.908.562-1.402-.348-2.357 3.146-.716.284-3.223-1.24-.914.194-.644.832-.184 1.01.287 2.013.881 2.37 1.448.532.768 3.656-1.293 1.926-1.422 2.904-.54 3.378.127 1.003.357 1.084 1.234 1.558 2.76.165 1.132 2.064-.103.886.6 2.226 1.456 2.4-.033 1.057-1.532 2.34.282 1.818.748 1.18-.262 1.81-.579 1.271-5.536 2.226.13 4.432-2.382 1.424-2.98 2.368-2.008 4.257 5.182 1.953-4.151 2.364-.819 2.37-1.904 1.174.259 1.426.62 3.415 2.627 2.36 2.747 3.191-3.162 7.205.548 5.762-2.418.558-2.739-1.613-3.538 3.058-.793-3.839.091-5.805-1.412-6.218 3.603-.817-.814-4.698-1.204-1.91.083-2.153.06-1.537-3.836-2.399-5.81-5.94.066-4.693-2.201-3.294-.369-4.098 3.509-2.392 2.146-3.361 2.873-3.882-3.384-1.341-3.827-2.292-3.855-3.842 1.044-2.353 2.557-2.526-3.223-2.057-2.474.36-.648.57-.814 1.425-3.661 2.797-5.03-.9-.192-.957.432-3.934.617-3.29.566-.769.427-1.99-.63-2.808-.534-7.388.971-4.184 2.122-1.484.305-3.082 2.53.367-.435-3.371.325-2.46.741-3.498-1.119-4.833-1.835-2.977-.78.202-.547.141-.417 3.329.532 1.636-1.398 1.07-3.123 2.574 1.316 2.912-.428 2.038-4.619 3.812-3.29 3.69-.972-.553-.686-1.592-.315-1.18.11-.364-.79-1.21-.599-.305-3.226-.98-.898 1.882-.687 2.044-2.27 2.103-5.586.664-2.482.144 1.197 2.297 1.01 3.958.883 2.296 1.802 1.134.972 1.311 2.043 4.18-.947 6.956-.68 2.122-3.126 3.953-3.857.399-.198 4.482-1.859 3.72-1.8 1.743-.13.128-1.673 3.26-.527 1.89.132 2.155-1.396 4.214-.411 5.333-1.046 1.325-2.594.107-.32.896-.177.916.223 2.8.627 3.055-.724 2.665-3.218 2.917-.033 2.392 1.436 1.718.46.088 1.982-1.167 3.164-1.001.863.057 1.167.592 1.822 2.867-2.666 3.628-.26-.14-.013-1.065-.861-.32-1.291-.088-.561.509-1.869 2.707.956 1.994.894 1.391 3.35 5.677.486 1.632-1.008 1.7-2.643 1.775-1.545 3.702-2.837-1.25-5.759.737-2.317-1.196-4.533 1.018-1.533 3.788-2.986 3.917-1.46 4.473-1.146 1.418-3.572-.85-4.917 1.006-1.36 10.883-6.096 1.718-.061-2.131.985-3.597-1.208-4.126 1.311-3.427 2.94-3.398-1.844-2.336-1.2.592-1.942-1.114-2.038 2.619-.05 2.948-4.867 1.284-1.889 4.125-.177-2.968 1.508-3.373 1.973-4.726-.605-4.073-1.492.645-2.707 1.17-5.51-.206 1.258 4.693-.31 2.812-.834 2.362-1.706.59-7.206 6.385-.445 2.446-2.73 6.884-1.843 1.39-.202-1.302.474-1.657-1.085-5.206-.682-1.57-3.034-1.327-.877.346-.233.446.039 1.183.869 2.492-1.225 4.356-.873.146-1.61-.841-.692.091-.44.445-.511 4.09-1.594 1.077-2.481 1.038-.275-.29.224-2.396.968.07.977-1.177.537-4.472-.864-1.668-1.57.18-1.38 2.837.012 1.662-.332 1.277-.953 1.048-1.437-2.249.103-1.406-.826-.55-2.369 2.093-.563 4.184.347 2.946.327 2.763-1.538 2.63-1.046-2.613-3.209-5.577-.009-.926-1.077-.84-.76-.167-.098.031-1.267.405-1.455 2.787-.482 2.018.098 1.898-.43 1.251-1.34 2.263-2.07 1.524-2.127 5.561-2.653 1.441-10.288 3.417.976 3.162-.73 1.2-2.825-.538-.598-.263-.403-4.215.392-1.915-.511-1.735-1.537-.494 1.075-3.558-1.157-3.678-2.266-.55-.529.21-2.512.992-1.963-.623-1.795-1.134-3.453 3.078-.737-.638-.766.214-2.237 3.733-1.897 1.346-1.478 4.283-1.419 3.144-5.539-.572-1.634-1.685-3.932 1.347-1.29 1.47-2.038 1.917.493 3.668-1.238 1.996-3.118-2.402-5.694.187-2.646 1.394-1.4 3.353-2.288 3.077-2.469 2.582-.288 2.226-1.635 5.854.407 1.387 2.094.903.586 4.71-1.498 1.627-1.702.134-1.839 4.06-2.809-.354.237-2.683-2.795-.458-1.648-1.996-5.7 3.914-.01 3.362-2.195.345-1.164-2.991-3.853.997-.092.097-1.276 1.34-2.96 4.776-.972 2.436-.16 1.98.347 3.828.405 1.207 2 2.678 1.594-1.193 4.835-.051-.939 2.643-1.783 1.354-2.914.167-1.382 1.06-2.38 3.317.127 1.302-1.154 2.252-1.476.558-.255-.3-.761.054-2.404 1.085-1.055 1.413.473 2.126.92 1.589.288 2.536-1.989 1.33-2.218-.417-2.995 2.85-.858.642-1.096-.847-1.97-.58-2.597 1.316-2.604-.92-2.85 1.532-3.064 3.207-1.493 2.448-1.302 5.491-2.516 3.345-1.518 4.554.4 2.535 2.358 3.589-.17.924-1.886 3.88-2.565 3.866 1.958 3.469-.945.66-2.373-1.158-2.097 3.374.067 4.05-1.965 1.488-.008 1.202-.698 1.744-2.83 3.499-.174 1.065-1.67 3.697-1.19 1.276-5.017 2.181-.074-2.47-.197-.47-.456-.432-1.84.016-2.139.25-.708-.065-.621-.88-2.323-.64-.187-.205-.817-1.924-.528-.722-.252-.206-1.775-.56-.739-1.121-1.578-1.338-2.318-2.355-1.783-1.273-1.066-1.026-.196-.448-.17-.756-.074-1.305-.435-1.096-.121-.798.83-2.405.265-1.869-.064-.576.359-.674.362-.254.089-.284-.176-1.131-.517-1.561.078-.44.118-.173.565-.334.494-.115.228-.296.045-.467-.18-.551-.05-.477.719-3.25.146-.233.48-.333.601-1.596.01-.186-.336-.65-.343-.175h-.23l-.087-1.32-.232-.54-.011-.111-.803-.526-.056-.036-.279-.138-.26-.09-.21-.072-.895-.307-.585.103-.222-.141-.378-1.274.04-.23.221-.146.086-.18-.636-.703-1.382-.591-.503.341-.494-.256-.218-.24-.023-.535-.223-.752-.283-.44v-.003l-1.468-1.157-1.447-.56-.172-.159-.115-.952-.413-1.182-.584-.327-.97-.273-1.513-1.459-.211-.425.584-.71.416-.402.18-.566-.285-.784-.346-.103-.472.097-.371-.43-.415-.368.146-.362.007-2.177-.545-.025-.16-.098-1.175-1.027-1.061-1.092-.127-.324-.065-.783-.07-.487-.697-.156-2.328.52-.252.303-.55-.334-.191-.686-.39-.734-.569-.204-.499-.433-1.12-3.165.148-1.087-.329-.97-.825-1.479-.38-.512.01-.15-.242-.716.031-.928.139-.548-.37-.624v-.439l.069-.426.732-.274.071-.652-.03-.339-.454-.523-.132-.428-.031-1.834.087-.527.662-1.094.794-.552.556-.217.591-.55.455-.795-.136-.764.108-.473 1.244-.715.032-.473-.076-.568-.634-1.015-.154-.644.124-.694.386-.676.636-2.146-.134-.688-.455-.803-.017.002-.238.068-.78-.241-.313-.257-.188-.535 1.026-.707.103-.404-.241-.3-.08-.496.492-1.102.807-1.398.453-.338.257-1.905.524-.37-.09-.346-.225-.307.492-1.322.023-.838-.422-.367-.063-.174.054-.823-.167-.631-.672-.621-.119-.21-.019-.333.055-.477.19-.456.005-.001.998-.163.088.21.013.021.775-2.206-.157-.272-.227-.113-.259-.343-.095-1.223-.208-.353-.723-.376-1.025-1.33-.253.06-.4-.39-.084-12.06-.446-16.695.002-.22.03-2.175.047-.697-.174-8.34-.373-8.614-.003-.063.201-10.266-.02-12.507.115-4.39.017-27.36-.085-11.353.007-.06-.033-33.322.063-2.83.007-.083-.05-5.674-.035-3.732.051-8.507-.137-8.158-.149-20.88-.153-5.747-.147-12.674.029-21.206-.286-17.659.014-4.159-.446-19.472-.611-18.674-.283-15.046-.14-1.062-.564-30.214-.218-8.01-.17-14.308-.633-12.705z"/></svg>