<svg height="1000" width="1000"><path class="americon" d="M723.77 328.79l2.198.382.438 1.374.985.995.116 2.334-2.265-1.482-1.718-1.577zm-56.761 20.986l.757-1.094 1.11.594.226 1.05-.542 1.644-.85-1.079zm-5.743-2.109l.687-.948 1.566 1.69.689 1.058-.86 1.046-1.329 1.075-.746-1.049zm-.926 16.626l.405-3.142.507-.128 1.244.402.703.716 1.466 2.268.55 1.43 1.42 3.7 1.11.804 4.033 1.703 2.398-.365 2.168.653 6.114 2.578.574-.22.536-.658.14-1.029-.205-.836.224-.161.87 1.357.805 1.832 4.771 1.713-.023.346-1.363 1.942-.174 1.502-2.188 1.55-.126.344.171.761-1.174.771-1.311.125-1.13-.642-2.117-.201-1.835-.588-1.498.246-1.7-.916-.68-1.053-.205-1.393-1.606-1.39-2.551-3.661-1.184-.897-2.06-.894-.573-.578-.277-.934-.706-1.345-1.506-1.533-1.232-1.876-.545-.487-1.054-.36-1.123-.934zm-74.447 12.62l1.72-4.933 1.623-.685.957 3.151-.763 2.741-1.817 1.097zm-13.055-7.4l2.756 1.096 4.684 3.687-.004 2.912-1.245 1.523-4.485-1.79-2.477-2.877zm-10.741 33.334l1.042-3.8 1.134-1.07.42-1.044-.038-1.203-.431-1.51.459-3.438.41-.997 1.02-1.32.71-.393 1.155-1.53.731-2.774.043-2.124-.234-.715-.062-1.042.136-.37 1.695.432.581.845.817.149 1.043-.007 1.922-.608.489.045.36 1.177-.615.5-.508.058-.692.945.48.198 1.216 1.173.458 3.014.012.995-.886 1.075-.336 1.42.232 1.538.332.891 1.023 1.757.317 4.457-.44 1.664-1.813 1.898-.885.512-.895.188-.341.336-.388 1.594-.714.452-2.072.402-5.69-1.527-.471-.49zm-7.127-19.923l1.312-1.592 3.715.61.237 2.967-2.316 3.722-2.484-.103zm-9.442 36.586l1.054-1.38.734.213.627 1.424.022 1.797-.295 1.052-1.528-1.69zm-9.165 5.481l2.502.52 2.354 1.707.878 3.482-.799 3.767-3.99-6.29zm-18.99 43.635l.595-1.734.922-.875.618-.161 1.147.182 2.775.42 1.296.44.384.256 1.267 1.854.01 2.556-.422 1.105-.416 3.757.123.912.572 1.135.004 1.497-2.106.952-1.595-1.155-.682-1.152-1.74-2.18-1.548-1.284-.626-.8-.172-.558zm-9.63 18.663l.234-1.093 1.368-3.19.369-.4 2.077-.759 2.52 1.046 1.419 1.568-1.468-.144-.376.217-.337.559-.168.495.06.683.767 1.498-2.288 1.237-1.844.296-2.158-.83zm-52.764-88.712l1.513.532 1.137 1.101 2.12 3.045 1.762 1.757.563 1.643-.2.854-1.55 2.025-1.197-.2-1.157-4.49-2.995-3.193-2.028-2.23zm-9.884 14.553l1.713-.2 1.19 1.78.643 2.903-1.379 1.43-1.882-1.896-.698-2.198zm-18.609 550.454l5.393-3.513 6.823-4.99 4.28-3.69 6.822-7.149 2.473-3.59 1.82-3.528 3.046-8.542 6.359-12.442 1.3-3.038.58-1.937 2.14-2.361 7.026-9.076 2.146-3.066 2.305-3.799.982-1.62 3.931-8.333 2.825-6.997 1.486-5.37-.04-1.076.916-1.692.341-.878 1.41-3.628 1.384-5.362 1.134-8.842.644-3.688.829-2.718.295-1.678-.274-6.36.28-1.066 1.2-2.866.784-3.696.081-.386.26-4.04-.042-4.512-.018-1.902-.052-.703-.177-2.412.01-7.301.176-3.823-.313-3.613-.142-5.238-.93-10.24-.627-4.063-1.167-5.022-.605-1.161-.026-1.402-.405-2.427-1.782-5.182-.899-2.616-3.665-8.769-8.196-17.976-1.23-3.29-2.75-8.622-1.352-5.217-1.316-5.95-.64-2.898-1.052-3.454-4.166-9.1-.937-2.477-.88-3.546-.207-2.302.05-1.676.29-2.077 1.046-2.778 2.063-2.997 3.096-3.823 2.212-3.113 1.811-3.61.869-2.587.747-3.887.008-.503.046-3.12-.244-2.185-1.12-5.017-.177-4.154-1.449-7.766-.008-.019-1.426-3.123-.427-.936-.173-.38-1.873-3.07-.712-1.6-.575-2.23.036-1.49.653-1.412.896-1.11 5.71-4.322 1.822-1.982.895-1.323.051-.075 2.22-3.955.302-.635 1.2-2.525.741-1.56 1.851-2.688 1.228-3.089.873-2.928 1.759-1.932 1.23-3.064 1.704-3.469 3.38-5.357 1.88-8.081.447-2.901.008-2.012-.327-2.463.057-2.01.32-2.553.551-.854.55-1.847.581-2.407 1.078-4.46.36-2.57-.429-4.059-.627-2.12-2.199-5.703-.488-2.272.285-3.356.198-.748.69-1.022 1.668-.991 6.255-2.023 1.248-1.081 4.039.088 1.548-.432 1.774-1.489L515.34 524l.478-1.674.06-1.246.186-3.82.627-2.433.017-1.934-.466-4.443-.104-2.812.173-1.606.454-1.417.82-.763 2.116-.653.719 1.22.987.675 1.243.496 1.73-.063 1.275-.872.773-1.246.604-2.126.58-.876.92-.743 1.111-1.955.376-1.48.723-.607 1.615.086 1.86.93.618.62 1.172 2.11 1.03.63 1.594.142 1.866-.29 2.131-.762.83-.6 2.798-4.055.227-.744.231-2.535.508-2.113.977-1.192 1.615-4.014.578-.626 2.933-1.436 1.702-1.56 1.509-2.343.565-1.857.09-1.546 1.947-4.27 3.844-5.914.556.313.15.51.48.382 1.417-.001.724-.266 2.182-1.753.294-1.153 1.099-1.475 1.078.086 1.394 3.022-.487 1.745-.555.557-1.563.869-.973 1.214-.045.287-.102.231-.082.144-.102.058-.163.028h-.204l-.172-.202-.379-.05-1.69.328-.958.56-1.496 3.138.508 2.037 2.64 6.123 1.006.427.741 1.333-.014 2.255-.414.34-.39-.303-.59-1.71-1.05.431-.737 1.677-.264 2.723-.975 1.25-1.313 1.236-.816.293-.603 1.337-1.415 2.771.8.857.816.2 1.31-1.067 1.467-2.374.234-.046.19 2.424.004 6.892-1.99.516-.423.29-1.494 4.469-.582.956-.364 1.396-.37 3.614.081 2.536.993 3.026.465 3.013-.4 2.106.058.075.422.542.834.559 1.772.349 1.189-.106.588-.413.275-2.196.968-3.463 3.715-8.15 1.337-1.326.241-2.404-2.349-.175-.62.405-.508-1.036 2.559-3.116.635-1.3 1.384-5.012-.192-.926.214-1.053 2.819-2.29 1.784-.173.483 1.495.561 2.855-.175.321-.575-.08-1.385.833-.577 3.776-.13 2.808.395.946-.975 5.258-.433 1.4-.665 1.149-1.079.364-2.148 1.616-1.651 2.304-.45 1.187-.037 2.96-1.673 4.275.54.716 1.749.957 1.654.284 1.142-.202 2.322-2.877.088-.706-.132-1.256-.411-.834 1-2.394 2.558-1.61 1.226-1.465.256-1.538 1.877-3.503 1.695-3.165.29-1.94 1.73-2.43 1.067-2.79 1.798-9.797-.345-2.872.102-4.045.315-1.36 1.143-1.93-.052-6.939-.58-1.347-.446-2.409-.36-5.5-.638-1.247-.074-2.614-.115-4.004 1.731-5.148 1.64-1.727 2.08-1.628 1.125-1.35 1.655-1.416 1.3-.475.538.34 1.604-.204 1.095-.59.806-.893.289-.75 1.68-1.235 2.629-2.545 1.315-.54 1.445-.031 3.935-1.395 4.841.464 4.183.397 1.19.366 1.045.03 1.07-.794 6.396-1.385 4.37-2.512.324-1.406-.05-1.003-.336-1.133-.597-.612-5.983-1.032-.92.261-.072.34-.423.273-4.67-1.89-2.921-3.237-1.919-2.543-2.144-6.44-.642-2.563-.45-4.271.107-.888.671-1.54 1.845-2.07 1.4-2.454.381-.954.074-.802 1.345-1.487 4.64-1.767.833-.697.587-.705.476-1.223 2.54-2.418 2.71-3.473.311-1.665-.168-.954-.886-1.207-3.182-2.147-2.07-.27-.86-.574-.312-.339.71-.413 1.24.468 5.707-.048 1.374.42 1.442.98 4.361-.335 2.623 1.028 3.45-.24.71-.145 1.071-.753.735-1.275.144-1.236-1.273-1.26-.085-.283 1.28-.987.754-.308 2.138.922.959-.213.79-.595.169.038.623.14.748 1.33.312 1.642 3.437 1.395.256 1.02 3.507 1.265 4.07 2.584 3.15 1.58 1.84 1.142.229.53 1.458 1.157 7.874 5.348 1.941-.374.676-1.358.784-.748 1.395-.057 1.36.853 2.426 1.078 4.697-1.36 4.045 1.52 1.984 1.186 5.57 1.33 1.137 1.078.841.799 1.619 2.39 2.422 2.735 1.82 1.631 1.106 1.624.255.812.003 2.047.532 2.678.604 1.536.78 1.12 1.375 1.104 2.057.927 1.992.124 1.622-.672.362-.372.752-.16 1.953.263 1.15.535 2.046-.482 3.923.035 3.042.988 2.868 2.504 2.438 2.971 1.77 1.623 3.604 2.228 1.82.343 1.578-.174 1.81.852 1.85-.042 1.56-.388 2.56 2.387 3.03 1.577 2.508 1.795 4.606 2.62 2.96.678 2.022-.593.343-.272.081-.836.754.008 1.885 1.516.567.093 1.773-1.662.807.213 1.19 1.98 3.42 4.403 1.32.955.838.965.311.861 2.223 1.54 1.317.337.337.382.37.74-.566 2.048-2.449 1.415.053.997.722 1.675 1.972 2.83.357.513.268.007 1.412 3.016.138 1.398.477.853.404.484 1.152.175 1.185 2.04 2.243.664.03.284-.333.347.137 1.263 1.242 4.275 1.029 1.209.879 3.057-.017.951 1.225 2.365.337.16.608.941.633 1.61-.555.518-1.702-.376-1.484-.792-3.948-1.189-1.824-1.246-1.07-1.65-3.293-1.053-3.465 1.973-.81.98-1.077 2.317-.065.503.88 2.176 1.16.65.429.549-.427 1.173-.32.011-1.083 1.459.84 5.478.558 1.635.639 1.13.824.863 2.167 1.08.652 1.768.523.469 4.315 2.293 3.35.686.06 3.203.015.802.76 1.532 1.485 1.742.73 5.265.044 5.07-.116.525.15 1.27.779 2.422.716 1.062 1.151 1.1-.217 3.577-1.098 5.334-1.738 3.434-.609 3.092-.037 1.988.37 4.423.58 2.34.094 1.229-.876 3.744.021.39.205 3.732-.727 6.095.047 2.21.344 2.056.351.85.016.672-1.084 4.708-.075 2.116.379 2.543-.423 1.116-.686.486-.887-.346-1.272.014-.943.736-2.802 3.89-1.263 1.108-.479 1.002-.6 2.256-.396.42-1.338.682-.362-1.157-1.828-.732-1.726-.122-2.16.583-.866.453-1.607 1.829-1.28 1.997-1.086 3.086-.313 2.429-.038 1.864-1.023 5.064-.227 1.12.02 4.26.16 1.03-.472 2.697-1.495 2.175-.316 1.11.144 1.408.728 1.85-1.783.36-2.096-.15-3.03.65-3.027 2.44-.794 2.315.94 3.848-1.354.836-3.705-1.749-1.626 1.51-.3.406-1.772.587-2.533.057-4.35-.432-1.988 1.154-.681.682-.108.651-1.348 1.78-.866.242-.753 1.856-.459 1.772-.035 1.663-1.715.815-.073 1.116-.168 2.527-.62 5.391-.622 10.14-.28 1.518-1.63 2.556-.995-.118-.124.244.21 1.261 1.73 5.126 3.328 6.179 1.35 1.224 4.85 2.667 2.219-4.012 1.285-.323 1.977 4.697 4.737 1.329 2.721 1.092 3.452 3.083 1.757 1.567 3.707-2.125 4.12-5.42 2.43-4.293.119-.16 1.945-2.631.011-.016 1.794-2.901 1.707-1.122.575-.492.521-.193.283.125.284.6 1.598.85L788.55 673l.748-1.931-.11-.342-.207-.635-1.456-1.114-.934-4.145 1.605-3.198 1.51-2.543.054-2.351 1.438-2.663-.146-2.16 1.622-3.868 2 1.136-.876 3.18.7 1.961 2.56-1.138 2.1-1.485 2.535-1.543 1.56-3.764-1.834-.716-2.657-.653-2.896-.59-.692-1.534 3.384-.008 5.946-.02 1.338-.763 2.374-2.367 1.3-2.7.676-1.912.008-.66 3.577-1.235 3.289-.444 1.59.086 3.657-1.222 1.084-.587 1.447-1.202 1.334-.392 3.01.19 1.38-.393.747-.45 1.218-1.44 1.593-3.794.528-.608 2.648-.311.882-.38 2.331-2.633.92.012.23.35.98.12 1.892-1.138 1.346-.224 2.872 2.728 1.503.795 4.545.986 4.28 1.788.582 1.367.566.609 1.927.276 2.047 1.482.81.917 1.22 2.412 1.877 3.276.262.19 1.937 4.333 1.814 4.926 2.559 2.193 1.408 2.188.073.883-.467.306-.02.266.4.734 1.176.866 2.122 9.074-.025 1.835.266 1.35.58 1 1.004 7.187.235 1.684-.03 1.38 1.061 9.718.372 1.878.503 1.23 1.147 5.45 2.434 5.91.065.855 1.525 4.765 1.698 3.82.146.866-.073 1.36.88 7.946.026 2.877.826 2.121.212 2.575-.237 1.555 1.621 11.76.523 1.833 1.222 2.292.832 4.055.218 1.063.942 2.593.586 3.74.615 2.28 1.728 2.107 1.697 3.789 4.136 7.648.755.313-.672.853-.15.465-.007.524.195.678.33.614.855 1.047-.322 1.558-1.16 2.223-1.885 2.209-.763 1.65-.77 3.798-.522 2.097.035.89.374 3.28-.026 1.006-.278 2.312-.552 1.745-.237 2.462.076.457.153.472 1.146 2.641.525 2.148.05 1.09-1.522 4.27.096 2.311-1.016 2.595-1.46 5.36.285 4.114-.777 3.51-.445.973-2.58 2.454-.156.233-.443.965-.173.24-1.44 1.391-.776 1-.185.268-.435 1.698-.604.53-1.608.393-.261-.024-.447-.21-.663-.587-.898-.343-.933.074-.794.349-.187.104-.634.616-1.342 1.332-.485 1.032-1.263 1.973-.775.574.064-5.474-1.041-.312 1.146-2.54-1.027-2.034-1.397.443-.974-.64-.258-1.027 1.266-1.365 1.493-.035.797-.908-.287-.933-.975-.894.015-.314 1.579-.014 1.159-.202-.466-1.683 1.57-1.766 1.425 1.227 1.027-.097.682-1.791-.342-2.043-1.736-.981-1.256.488-.759-.908-1.638-1.166-1.24-.38-1.675.156-.517.91-.185.02-2.006.209-2.833 2.07-1.232 2.135-1.63.596-1.282-.368-.525.189-1.668 2.035-.615 2.177.19 1.473.909.757 2.447.993.194.752-.113.841.164 1.448.8 1.622-.05 1.01-.22.19-.536-.687-.846-.344-2.645.17-1.417.496-1.225 1.127-.336.743-.138 1.014-.856 1.078-.09.167-1.428 2.633-.707 3.37.027 4.33 1.6 2.982.026.05-1.428 6.412-.183 1.479-.553 1.332-.454.615-1.778 1.166-.412.568-.96 2.272.58 1.068-2.317.808-1.483 1.21-3.152 1.212-3.237.544-4.944 1.999-1.652 1.423-1.726 2.822-.196.624-1.199 3.82-1.742 3.314-.016.605-.233 8.937 1.693 7.22-1.108 5.643-2.644.497-1.155 1.826-2.145 1.156-.029.683.25.086.205 1.326-.173 3.122.275.268.004.013.542 1.477-.566 1.77-.355.224-1.995.25-.025 1.387-.788 1.1-.718-.064-.557.305-2.201 2.307-.789 1.927.022 1.332-1.285 1.795-1.981-.72-.982-.014-.757.279-1.393 1.124-1.063 1.67-.743 2.668-.157 2.622-.565 1.478-1.918 1.878-.732.378-.744-1.31-1.035.575-1.483 2.727-1.36 3.429-1.369 1.25-1.3.603-.571.826-.204.682-.083 2.917.755 2.873 1.241 2.863.412 1.4-1.125.59-1.938.455-.205.282-4.883.294-.221.037-.412.03-.1.003-8.995.638-.035.002-.922.06-.155.005-4.603.346-.334.025-2.925.214-2.157.144-2.622.276-6.017.424-.013.001-10.725.658-2.317.239-.017.002-2.14.077-11.025.764-2.286.082-12.803.87-25.164 1.474-.014.001-4.01.178-.335.017-4.29.22-34.753 1.505-6.254.392-.01-1.702-.024-1.95-.023-1.845-.008-.7-.016-.823v-2.553l-1.445.039-.696.017h-.008l-11.942.157-3.159.063-.078-.016-1.112.012-.14.025-7.237-.014-.18-.027-8.665.092-.65-.004-5.468.043-2.718-.008h-.015l-4.014-.003-4.384-.014-.082.013-.085.022-2.047-.025h-.009l-.688-.01-1.089-.008-1.112.019-1.39.001-2.177.013-3.224.005-5.39.023-.548.003-9.294.033-.255-.025-9.941.03-.085-.017-1.592.014-.265-.007-.86-.015-1.666-.002-.34.001-1.004-.005-7.212-.04-2.834-.02h-.053l-2.735-.028h-1.817l-8.981-.123h-.33l-1.539-.026-9.58-.163h-.01l-1.816-.036-5.534-.15-2.399-.032-6.955-.1-.044.001-.266-.008-9.99-.063-.944-.015h-.003l-4.385-.1-26.3-.397-1.952-.026-.546-.013-12.89-.323-.127.003h-.02l-11.7-.34-.176-.003-5.842-.195-.01.001-.098-.002-.317-.009-2.136-.057zm-57.593-825.438l1.41-.545 1.399-.772 3.077.433.474.84-1.417 1.454-1.652-.066-2.05-.473zM219.616 64.513l.887-1.697 2.038-.842.585-.727.012-1.023.703-.777 3.55-2.753 8.251-4.102 7.496-2.989 2.37-1.228 5.188-2.115.906-.232.355.31 1.19-.075 1.959-1.062-.094-.395.274-.403 5.665-2.756 1.854.08.515.28 2.227-.965 1.525-.964.1-1.261.764-.765 1.93-.956 1.61-1.197 2.208-1.155.96.124 1.073-.677.868-.608-.035-.63.227-.31 1.727-1.604 4.165-1.959 3.412-.873 3.053-1.596 2.018 1.474 2.25-.282.916-.979.968-.575 2.128-.431 1.168.19L300.961 25l.327 1.518-.228 1.351-.736.52-2.108.373-.997.618-.974.748-1.638 2.058-2.594 2.116-5.41 3.651-1.124 1.259-.084.897.215.414.132.9-.145.658-.491.749-8.913 6.165-4.718 2.028-5.204 1.668-1.872.194-3.91 1.703-1.972-.14-4.48 1.421-1.852.973-.594 1.043-3.83 1.804-3.962 1.865-.281 1.7.923.75 2.226-.352 1.663.755 5.2-1.36.052.253-1.285 1.243-8.487 2.834-2.338 1.117-2.086.257-1.162.37-5.05 2.058-1.599.898-3.232.433-3.002-1.283-.22-.275.12-1.075-.821-1.36-3.087-.423-.076-.298.112-.219.597-.336-1.602-1.954-.4.063zM92.582 241.156l7.27-4.294 2.124-.828 1.991.898 4.241-1.884 2.782-.609 7.455-2.36 6.306-.833 5.56-1.408 1.737-.73 3.386-2.414 1.117-1.334 1.257-.917 1.709-.804 4.045-3.015 2.812-3.03.39-.36 4.248-3.932 1.722-1.054 4.185-1.726 6.986-1.153 4.596-.041 1.216.406 1.725.952.648.888 1.513.202 4.962-1.475 3.365-.319 2.18-.688 1.444.14.728.508 1.907.298 3.38-.057 2.178-.479 4.336-1.6 12.419-5.681 2.16-1.225 2.745-2.41 3.57-4.666 2.677-2.577 1.423-1.009 1.02-.162.456.726.64.454 1.883.297 2.324-.305 2.394-1.396 1.04-.177.52.894 2.385.13 1.106-.202 1.442-.6 1.358-.825 1.597-1.557 1.15-1.65.948-1.36 1.154-2.365 1.26-3.76 1.541-1.96 3.39-1.737.703-.07 3.458-3.54 2.503-1.203 1.135.136 1.367-.671 3.61-4.068 3.061-2.522 2.753-1.874 1.602-.83 1.556-.072 1.662-.696 1.38-.85 2.432-.353 1.082-.454 6.26-5.333 1.182-1.009 2.378-2.708.811-1.976 1.177-1.678 4.15-4.223 2.91-1.725 6.426-2.372 2.047-1.124 1.828-1.353 4.475-.843 1.162-.67.913-.876.167-.547-.057-.464 3.518-1.089 3.015-.194 1.065-.316 5.261-.63.842.213 2.609-.162.107-.027.048-.704.754-.109 5.905-.205 4.758.32 2.563.358.406.328 7.757.757 1.521-.118 4.186 1.971 2.418 1.754 1.37 1.38.324 4.794-.216.673-.853.017-2.003-.767-.866.07-.75.26-.6.594-3.43.776-1.495.98-1.12-.244-.714-.646-1.263-.68-.809-.111-2.453-.14-5.742.521-1.503.33-.855 1.786-.09.819.251.88.71.849.702.224.771 1.272.022.639-.534.886-.299.22-1.157-.08-.995.217-2.043 1.32-2.744 2.198-3.751.963-.522.322-1.16 1.23-2.623 3.49-1.17.258-.86.521-1.508 2.15-3.17 3.157-3.058.847-1.018-.231-.733.115-1.536 1.273-.145.12-.836 1.354-.601 2.031-.184 2.32.254 1.052.253.277.478-.021-.062.515-.796.89-.774.453-.186-.045-.088-.572-.411-.51-.73-.258-.887.19-.977.705-.774 1.174-.072.437.153.183.03.708-.157.83-1.02 2.233-4.245 2.342-.653.125-.338.41-.37 1.023-.158 1.563-.636 2.578-.99 2.876-.669.955-1.19 1.04-1.999 2.913-.687.728-3.227.64-.656 3.602-.28 1.089-.571 2.213-2.288 5.197-.488 5.043-.718 2.652.07.794.74 2.897.916 2.842-1.96.475-1.607 2.47-.008 1.175 1.905 1.11 2.169-1.288 1.836-3.811.502-.943 1.96-2.496 3.08-3.068.419-1.56-2.125-.454 1.546-2.673 1.7-.647.266 2.153 1.902-.367 4.042-3.948 2.955-2.255 1.98-1.165 1.773-1.92 7.721-3.779 1.197-.826 1.147-.17 1.019.687-1.809 2.562-3.816 3.323-2.455 1.298-1.718 1.442-1.444 1.816-.936 1.936-3.375 5.42-.126 1.284 1.524.264 1.736-3.033 1.06-2.302 3.165-3.272 3.663-2.737 1.296.014 3.44-.527 2.545-.925 1.915-.37 1.61.35 1.966.965 1.158.567 2.723.404 1.763.23 2.952-.303 5.423.161 2.401 2.553 2.705 1.36.487-.043 1.404-.701 1.02-.16.327.46 1.907 1.113 1.04.184.519.47.034.592-.25.299.167.521 1.02.831.981.166.93-.67.548.049.506 2.182-.2.407.173 1.473.238.833.385.522 1.316.36 1.878-.156.9-.727-.178-.954.09-.365.638-.081.565.814.077 1.342-.135.5.206.528.92.79 1.034.435.947-.15.83.267.468 1.012 1.865 2.47 1.208.828.271 4.29.656 3.241.876 1.473 4.705 4.76-.172 1.552 1.933 4.38.97.743 2.403 1.085.118.587-.13.757.278 1.644 1.202 1.318.843.482 3.082.273.74.951 1.886.376.16 1.868-1.153 1.037.006.24.954 2.492.614.96-1.468.599-.412 1.33.417 1.263.743 1.055 1.384 1.48 1.511.994 3.926 1.39 5.105.717 5.56-.181 2.725-.873 4.674.657 1.071-.13.897-.11.9-1.043 2.167-1.612 3.097-.566 1.612-.76 1.29-1.1.824.144 3.1.97 1.182 1.47.138.993 1.459 3.633.052.79-.337.384.224.615 1.877 1.128 2.37-.159 1.415 1.133.475 1.091-.032 1.355.849.63 2.458.52 1.25.023 2.127-.475.543-1.672.253-1.562.541-.854 1.584-1.543 1.916-.143 1.81.04 1.388.59.464.509.013.53 1.917 3.363.705.81.5.12 1.213-2.312-.21-1.178.261-1.212.351-3.775-1.182-.756-.555-1.218-.616-4.645 1.384-1.557 1.738-.819.224.575.474.093 1.428-.248.362-.292 2.42 3.898-.22 2.223-.327 1.321-.253.616-.66.57-.465 1.192-.106.894.934 1.092.907.13.695-.892.268-.792.593-.537.273.051.196 2.073-.234 1.183 2.233 1.04 2.878-3.39 3.283-2.5 3.002-2.73 1.12-1.564.221-.961 1.27-1.222.924-.054 1.518.572.713-.104 4.638-1.949 4.023-2.05 16.075-10.607 2.616-2.173 2.3-.463 1.778 2.266.755.327 1.205.077 2.52-.423 3.671-1.36 4.123-.817 4.062-.412 2.917-1.094 4.532-.84 1.309.116 2.301.203 4.515 1.153 4.342.563 3.55.053 4.48-.439 4.332.242 3.649.62 4.396.067 3.238-.209 2.69-.658 11.012-4.753 7.827-4.42 3.227-1.255 1.857-.336 6.341-1.153 10.718.774 2.667-.384 2.638-1.272 1.929-.468 2.43-.08 1.042.203.24.266-3.494 3.455-1.949 2.463-1.213 2.277-.707 2.15-.24 1.814.184 1.378-.663 7.168-.131 3.437.173 2.78.402 1.836.2 2.042.22.094.192 1.052-.154.481-1.811.776-.727.701-.307.905.127 1.684.511 1.54 1.599 2.323.81.66 1.027.468 4.513.458 1.392-.58.784-1.027.996-.273.278 1.277 1.244 1.472.669.345 2.148.283 1.809-.213 1.339-.463 1.165 1.376.594 1.653 1.43.643 2.896-.337 3.042-1.08 4.495-2.162 3.292-2.282 1.101-.554 2.43.748 2.248-.405 1.458 1.841.873 2.153 1.609 1.614-.706.742-.486 1.215.326 1.046.494 1.325 1.283.216 3.13-.765 4.67-3.033 1.016-.177 1.389 1.086.752-.258.897-.967.667-1.867.005-1.273-.806-.653 1.74-3.12 2.42-1.768 2.522.218 1.915-1.384.104-.063 2.995.142.584.295 1.233.772 3.208.971 1.695-.036 1.022-.246.11-.097.95-.845 2.69-4.794 3.17-.926 1.645 1.825 1.124.075 1.274-.328.63-.415.696-.173 1.04.277.582 1.303.542.46.704 1.917-1.248 4.894-1.919 7.438.867 6.615 2.072 5 1.323 2.127-1.301 1.027.557 6.698 1.803 1.638-.973 2.214-.976 1.066-.676.17-.953.13-1.098 1.05-.116.118-.204.059-.15.003-.094-.052-.04-.107-.023-.188-.032-.232-.71-.753-2.313-.267-3.637.574-1.327 1.17-1.54 2.554.43 1.984-.206 1.825-.36.582 3.063 1.777 2.408-.495 1.87-2.602.569.313 4.636.114 1.021.852.185.75 1.365 2.565.439.426.652.172 2.877-.027 3.416 1.998-.417 1.226-.771-.331-1.293.866-.917.93-.745 1.384-.299 1.054.08.608.563.706 1.477 1.15 2.463 3.446 2.207 1.41 1.693 1.648 2.583.652 1.232-.206.737-.368.5.309.386 1.26.438.35 2.278.86.852 1.782 2.755.714.484-.25 2.156-4.46 1.535.44 1.273 2.824 2.437.882 1.723-1.258 1.053-2.067-.053-1.95-.935-2.78-2.29-.683-1.66-2.364-1.27-4.298.797-.725.34-.02 1.972.895 1.316 1.177.825.337 1.57-.213 2.776.09.472-.424.318-1.047 1.575-.383 4.264.314 2.588-.613.946.22 1.045.863 1.693.791 1.724.012.55.859.383 1.221.03.722.758 1.124 1.14.396.735 1.558.434 1.52.328 2.282.84 1.398 3.855 1.563.648-.022.786.458.706 1.07.093.591-.79 1.833-.688.474-1.985 5.739-.634.843-.886.746-3.52.992-2.138-.412-4.991-2.194-2.603-1.813-2.957 1.542-3.167.285-1.37-.471-.98-.023-2.333.47-.249.46-1.73-.137-1.51-.561-.253-.825-.491-.32-1.459.287-.464.408-.796-.065-.58-1.549-.558-.05-1.866-.851-1.5-.927-.152-.282-2.965.45-1.012 1.111-3.118-.985-3.298-.15-1.112.843-2.098.4-6.286-1.54-1.019.536-1.515-.783-.198-.6-.401-.21-.31.059-2.64.493-3.11 1.398-.59-.433-6 .355-1.643 1.692-7.503.123-2.284 2.14-2.29 1.438-5.292-3.704-.932-2.195-.56-.582-1.975 1.319-1.75-1.242-.273-.64.054-.46-.163-.402-2.323-.382-.682.576.041 2.292-1.09.408-.736-.114-.21-.473-.035-.772.39-1.911-.329-2.056-.785-1.969-.348-.477-1.965-1.35-1.711.229-.54.648-2.242.056-3.89-3.293-.9-.412-1.007.325-.901.655-1.125 1.613-.526 1.137.021 1.445.71 5.427.194.234-.081.583-.242.318-1.622.072-1.9.544-.704.883-.84 2.225-.046.572.648 1.284 1.418.758.547 1.012.044.62-2.061 1.323 1.33 4.749.595 1.14 1.455 1.83-.106.38-.407.265-1.448.097-.19.216-.282 1.382-2.128.233-4.626-3.272-3.89-1.88-.723-1.357.074-1.085-.475-1.31-1.071-.266-2.049-1.377-.666-.861-2.32-1.105-1.466-.994-1.994-3.62-3.673-4.31-3.02-2.853-1.042-.66-4.162-1.753-3.32-.733-1.409-.583-2.755-1.94-1.04-.502-1.116-.156-3.848.46-.686.397-2.499-2.264-4.375-.72-2.125-.93-2.85-2.055-1.958-.858-2.022.074-1.037.763-1.471.68-1.239-1.928-1.815-.858-1.479-.077-1.496.885-.037.266.21.193-.679 1.067-3.346-1.616-1.941-.085-1.255.315-.886.496-1.926 1.672-6.299 7.049-1.403 3.142-3.1 3.545-.616 1.436-.932.954-3.328.967-2.698-.771-1.936.021-2.724-.907-1.961-.912-1.976-.373-.712.086-.829.447-.688 1.223-.982.35-1.87-.435-.424-.017-1.703-.067-1.076.186-1.6 1.16-1.38 1.538-.361 1.463.01.861.873.63.69.823-.355.38-.68-.23-3.326-2.282-4.457-2.111-5.187-1.677-2.104-.473-2.265-.23-2.883.243-2.228 1.03-.451.407-.925.092-3.699-1.408-1.163.012-1.237.57-.874 1.47-.462.39-1.441.114-.667-.555-2.339.908-3.863 3.792-.848 1.304-.976 7.792-1.7 2.51-.668 4.136.323 1.046-1.24 1.14-.616.105-2.597-.118-.572-.827-1.441.206-.9.565-.373.592-.06.44.167.503-.121.492-.386 1.125-.797 1.006-1.606.518-.432-.18-.615-.257-1.314.309-.732 1.542-1.02-.402-.785-.733-1.046.251-.387.662-.528 1.6-.245 2.258-.846 1.416-.408.35-.42.027-2.911-1.26-1.051.625-.516.997.035 3.303-.327 2.235-.615.106-1.769-.632-.927.36-.484.46-.298.647.978 5.604-.037 1.987-.682-.948-.927-.74-1.541.29-1.764-.864-2.082-1.86-.138-.828-.627-1.199-1.282-.179-.92-2.748-.003-1.328.266-.95 1.09-.975 1.608.477 1.314-.545 1.092-1.467.04-.98-.37-.273-.19-1.398.904-1.194 1.565-.49 1.475-2.132-.125-2.29.451-2.653 1.379-.187.508.614 1.44.604 1.443-.38.687-1.462-.411-.484-.06-.433.513-.95.583-.56.777.158.632-.52.184-.762-.324-1.278.416-1.34.561-.613.415-.057.69-.502 1.003-1.844.11-.564-.08-2.592-.319-1.114-.825-1.106-1.196-.924-1.4-.61-1.565.213-1.033 1.945-1.04 1.198-1.027.07-1.247 1.077-.772 1.167.014 2.413-1.386 1.324-7.49-1.84-.73-.498-1.34-2.33-.708-.46-.884.052-2.393.958-.23.794.1 3.557.495.41.242.797.095 1.487-1.31 2.396-1.635 2.044-2.05 1.34-.24.695.27.685-.109.518-1.75 2.162-.367 1.832.282.98-3.229 1.673-.648-.278-1.856.01-.887.253-1.754 1.633-2.332.227-2.12 3.265-.253-.33-.002-1.43-.217-1.012-1.146-.692-.287-1.356.278-2.018.516-1.267.347-3.5-.56-1.894.082-3.751-.605-2.668-1.58-3.085-1.354-1.072-1.263.199-.856.405-1.277 1.742-.582 1.335-.19 1.574-.027 3.22-.643 1.801-.067 1.105.166.802.681.275.25.52-.505 1.592-.448.563-.939 1.995 1.051 1.514-3.646.962-.407.336-.048.486-1.241 1.306-1.808.547-4.404 2.73-2.6 3.593-2.879 5.232-1.157 1.478-3.095 5.203-.106.272-2.697 6.91-1.89 3.702-1.429 1.478-1.452 2.508-.137.702.074.786.307.727.408.29-.218.675-.903 1.405-1.529 1.046-.919 1.11-.551 1.613-2.956 2.711-.864 2.817-3.397 4.637-.625 1.55-.234 1.741-2.783 2.796-5.07 6.909-3.917 4.574-1.516 1.028-2.369 2.465-1.66 2.764-.95 2.065-.333 1.282.144 1.344.95 1.652.967.996v.166l-.175.076-2.318-.874-.672-.366-.61-.16-.117-.107-.068-.19-.196-.138-.469.025-1.23-.116-.428-.346-.478.134-.288-.004-.124-.116.017-.62-.559-.828-.386-.3-.14-.183-.534-1.296-.024-.164.271-.406.027-.14-.77-1.347-.44-.496-.39-.317-.267-.159-.564-.12-.286-.16-.383-.374-.067-.195-.307-.44-.662-.348-.502-.599-.137-.34-.31-.324-.307-.204-.431-.11-.094-.106-.035-.167.16-.61-.55-2.834.014-.166.253-.557.336-.352.874-.44.189-.2.022-.47-.09-.508.05-.406.483-.61.136-.507-.049-.233-.294-.235-.02-.227.118-.24.631-.711.126-.054.37.042.127-.06.092-.134.018-.76.296-1.352.161-.528-.125-.294.66-.942.449-.325.049-.381-.077-.667.156-.696.524-.87.331-.36.32-.857.019-.256.902-1.088.394-.282.854-1.187.226-.1.167-.158.24-.443-.024-.731.05-.168.19-.214.421-.229.828-1.202.103-.84.006-.793-.067-.223-.212-.233-.293-.071-.284-.65.108-.587-.055-.666-.065-.213-1.589-1.252-.083-.165.007-.518-.043-.118-.78-.394-.288-.556-.434-.179-.372-.026-.604.259-.475.336-.257.225-.174.37-1.094.496-1.553 1.817-.475.674-.065.198-1.296.407-.076.123.003.349-.284.322-.82.115-.697-.435-.225-.012-.255-.013-.94.175-.478-.438-.234-.13-1.027-.07-.99.294-1.305-.258-.06.144-.138.127-.21.016-.28-.225-.287-.048-.28.171-.18.647-.147.189-1.066.591-.181.027-.114-.137-.01-.143.175-.327-.034-.413-.227-.3-.586-.154-.223-.128-.253-.276-.13-.259-.032-.175-.026-.326-.125-.284-.152-.064-.224-1.603-.018-.291-.372-.523.042-.333.201-.278.282-.241.645-.277.553-.408.294-.692-.26-.49-.01-.125.075-.241.846-.39.18-.273.002-.816-.074-.316-.12-.21-.426-.453-.378-1.088.07-.875-.161-.512.034-.2.693-.967.815-.368.292-.598.907-.316.318-.378.068-.203.529-.418.656-.242.845-.57.013-.28.164-.266.609-.716-.002-.18-.136-.389.063-.295.84-.837.07-.202.086-.704.163-.457.323-.519.079-.227-.013-.731-.555-.207-.3-1.16-.13-1.515-.01-.949.04-.45.135-.375.005-.182-.347-.773-.63-.764-.488-.525-.828-.545-.492-.476-.063-.103-.043-.445.227-.785.241-.096 1.55.59.757.367.86.145.526-.111.158-.144.221-.257.06-.285.149-1 .017-.933.086-.206.12-.157.454-.229.427-.388.156-1.335-.073-1.65-.285-.79-1.112-.36-.376-.319-.01-.466-.07-.225-.722-.8-.512-1.437-.68-.78-.446-.26-.22-.233-.019-.876.218-.404.04-.278-.114-.265-.006-.304.076-.113 2.023-.453.465-.505.365-.156 1.393-.22.066-.09.037-.219.024-.704-.126-.396-.527-.618-1.38-1.025-.3-.292-.386-.583-.006-.09.433-.444.008-.205-.067-.272-.408-.507-.213-.164-1.897-.609-.58-.311-.917-.797-.84-.728-.82-1.507.08-.793.086-.058-.093-.38-.373-.562-.519-.162-.226-.507-.395-.156-.246-.002-.973.06-.425.235-.233-.042-.158-.15-.11-.446-.132-.205-.187-.186-.121-.035-.191.003-.123.136-1.32.128-.446-.396-.247-.123-.563.3-.96.053-1.032-.192-.49.128-.414-.143-.119-.184.082-.188-.276-.479-.534-.356-.436-.121-.944-.417.34-.72.163-.047.105-.268-.134-.866-.465-1.483-.177-.26-.158-.09-.444-.027-.582.166-.56.247-1.055-.09-.62.311-.37.113-.39-.026-.24-.095-.62-.003-.052.054-.086.397-.401.374-.391.15-.224.216-.766-.001-1.39-.003-.42-.214-.18-.39-.137-.108-.886-.007-.54-.165-.526-.68-.356-.186-.267-.909.093-.178.025-.18-.197-.38-.194-.142-.65-.104-1.308-.816-.223-.303-.373-1.13.124-.378.154-.2.613-.551.504-.32.247-.481.682-.672.264-.174.266-.03.258-.214.896-1.262.991-.775.153-.223.279-.704.257-.347.096-.016.402.202.246-.133.252-1.013-.056-.528-.748-.746-.214-.107-1.196.106-.43-.189-.143-.338-.27-1.899-.049-.074.011-.535.072-.511.127-.348.287-.519.293-.246.392-.201.004-.185-.094-.306-.607-.692-.176-.045-1.065-.066-.153.065-.17.073-.338.039-.446-.13-.115-.138.022-.114.141-.198-.12-.224-1.323-.708-.47-.461-.045-.081.015-.16-1.206-.602-.44-.02-.09.097-.604-.193-.242-.235-.261-.572-.231-.33-1.139-.793-.216-.087-.427-.104-.133.026-.472.443-.008.67-.778.089-.156-.045-.368-.37-.701-.258-.159-.037-.428.125-.517.014-.64-.26-.273-.214-.18-.265-.115-.295-.064-.356.08-.302-.005-.613-.275-.113-.102.008-.003.061-.464-.08-.17.106-.313.45-.918.24-1.51.266-.932.522-.287-.035-.151-.37-.38-.366-.83-.505-.723-.269-.37.125-.747-.63-.166-.281-.426-.434-4.364-3.526-.514.175.074.31-.494.756-.663.292-.373-.004-.372-.153-.712.178-.125.072-.405.503-.207.012-.332-.226-.254-.27.085-.23-.097-.258-.25-.327-.775-.346-.158-.285-.374-.356-.331-.052-.573.1-.154-.068-.366-.488.062-.391-.039-.196-.413-.293-.675-.224-.527-.076-.401.299-.063.309.095.285-.21.251-.306.13-.782.079-.562-.206-.466-.457-.059-.178.136-.269.006-.105-.174-.208-.136-.017-.474-1.888.005-.54-.088-.172-.225-.138-.5-.137-.853.01-.342-.208-.568-.089-.143.035.02.142-.148.255-.44.451-.214.136-.971.068-.404-.323-1.04-.165-.62.236-.16.28-.806.648-.845.223-.071-.08-.26-.876-.02-.413-.049-.101-.4-.382-.334-.016-.263.188-.39.724-.466 1.075-.048.648-.22 1.165-.126.259-.231.141-.744-.178-1.013.03-.082.058-.096.347-.191.011-1.982-.741-.358.046-.16.003-.076-.056-.103-.114.057-.213.084-.147-.024-.123-.338-.28-.344-.594.04-.132.083.005-.09-.746-.266-.802-.425-.453-.41-.116-.822-.232-.68-.396-.593-.073-.578.232-.303.504-.527-.12-.244-.782.049-.487-.344-.379-.567-.327-.921-.168-.653.177-.593.282-.194.15-.246.314-.237.076-.14-.048-.351-.328-.142-.03-.094-.014-.097.03-.052.034-.074.059-.044.088-.115.223-.672.396-.376.048-.208-.175-.139-.638.007-.295.05-.195.528-.617.031-.343-.053-.09-.51-.152-.74.048-.422-.265-.48.5.413.483.027.288-.078.177-.527-.052-1.033.241-.36-.125.026-.09-.097-.145-.387-.36-1.06-.551-.362-.125-.275.005-.25-.15-.312-.3-.33-.612-.071-.249-.167-.214-7.895-5.314-1.007-.68-.517-.359-4.023-2.723-.008-.005-9.606-6.566-3.265-1.09-3.56-1.292-.498-.186-2.689-.916-.656-.26-.193-.099-.231-.072-1.213-.456-.176-.06-5.494-1.93-.038-.014-21.226-7.62-3.683-1.403-10.128-3.61-2.82-1.081-9.365-3.372-13.858-5.148-.165-.066-.861-.264-.999-.371-18.412-6.898-.07-.058-.002-.132.035-.072.172-.135.099-.359-.054-.281-.05-.132-.025-.197.113-.29.235-.12.086-.16.046-.644-.145-.6-.079-.08h-.006l-.12-.007-.125-.07-.035-.165.02-.194-.004-.141-.314-.5-.416-.368-.246-.399-.04-.452.001-.004.315-.874-.158-.139-.126-.024-.374-.433-.422-.792-.155-1.012-.125-.306-.426-.33-.384-1.183-.055-.648.156-.951-.009-.313-.325-1.745-.268-.45-.016-.25.006-.078-.753-.038-.313-.155.024-1.8-.065-.53-.838-.406-.141-.173-.213-.445.157-.34.271-.177.092-.15-.025-.133-.388-.533-.773-.583-.197-.32-.607-1.801-.205-1.143.02-.252-.147-.273-.365-.268-.179-.013-.649.203-.153-.037-.048-.237.026-.185.19-.462-.072-.252-.118-.03-.495.347-.72.205-.266.036-.204-.094-.887.013-.162.163-.19.078-.247-.016-.208-.17.029-.178.014-.161-.121-.174-.194.01-.165-.042-.038-.13.03-.187.027-.17.013-.132-.374-.569.325-.594-.044-.2-.402-.519-.128.08-.075.22-.485.445-.224-.017-.674-.365-.157.143-.022.146-.393.112-.52.009-.283-.176-.114.002-.494.14-.135.119h-.005l-.288-.188-.023-.622.355-.276.313-.677.257-1.148-.02-.362-.848-1.07-.427.06-.188-.096-.108-.282.077-.312-.386-.467-.483-.159-.752.218-.375.684-.307 1.265-.075.1-.146.024-.185-.085-.176-.413-.126-.05-.069.039-.369-.2-.83.05-.459.15-1.322.677-.61.095-.175-.207.002-.34-.227-.943-.105-.247-.038-.003-.156-.014-.308-.488-.153-.683-.589-.783-.012-.001-.024-.842z"/></svg>