<svg height="1000" width="1000"><path class="americon" d="M31.783 280.74l.28-2.342 6.685-56.014 3.546.38.756.13 36.024 4.115 21.569 2.458 35.46 3.357 3.603.323.281.031 22.024 1.919 9.222.855 1.912.302 1.753.198 1.547.08 8.265.777.664.061 11.204.904 3.198.318 12.64 1.045 8.643.545 14.8 1.045 1.406.135 11.994.733 5.794.428.459.02.241.021.272.014.375.029.2.008.25.015.31.018.17.008 5.514.342.084.008 60.431 3.292 3.676.17 10.36.508.222-.03 10.868.559v.003l6.843.324.006-.004 19.319.792 17.115.526 19.711.514 8.634.147.056-.002 10.649.184 11.164.162 4.51.148 6.93.02 16.46.205.046.005 3.257.027 13.047.065 36.693-.012.829-.02 2.634-.068 1.233.053 3.902.01.052.002 7.272-.052 2.614.036 14.099-.086.02.005 4.418-.006.444-.005 33.473-.551 4.087-.084 18.653-.457 39.399-1.251 19.535-.688 5.733-.311 13.61-.585 41.03-2.043.597-.026 7.351-.416 1.302-.097.002.036 1.553-.083 7.767-.489.479-.016 6.946-.405 2.076-.123.226-.027.677-.049 9.02-.562 4.55-.291 6.234-.446 9.759-.705 4.315-.298 9.28-.652 2.784-.236.373-.02 2.137-.165 4.137-.304 8.176-.63.3-.012 1.222-.095.288-.012 2.335-.182 5.787-.475.91-.078 15.329-1.24 13.445-1.137 16.83-1.561 7.65-.738 36.476-3.65.169 1.443.226 2.277.039.333.037.538.035.21.056.595.013.248.081.71.04.333.07.753.256 2.418.06.59.058.477.259 2.55.036.472.02.195.08.726.034.202.196 2.064.612 5.658.101.956.29 2.576.144 1.609.065.473 1.003 9.333.015.115.05.485.015.159.087.849.02.143.189 1.648.079.785.018.154.038.617.227 2.383.105.838.35 3.247.272 2.596.106.929-.009.08.085.547.082.91.18 2.013.107.66.33 3.049.175 1.594.003.047.07.595.023.15.3 2.802.105 1.13.252 2.299.019.14.001.014.19 1.638.029.068.377 3.596 1.028 9.657.033.186.121 1.006.012.18.04.359.57 5.367.027.162.186 1.834.147 1.34 2.082 19.029.035.37.27 2.413.234 1.924.071.558.776 6.621.383 3.254.228 2.335.344 3.799.044.325.029.238.6 6.354v.022l1.41 13.862.113 1.45.133 1.026.932 9.05.725 7.305.235 2.383.467 4.665.005.044.279 2.508.34 3.597.138 1.308.023.208.648 6.052.034.347.035.287.057.517.008.104.02.237.547 5.496 1.111 10.054.392 3.95.144 1.325.005.302.183 1.674.08.73.048.44.164 1.457.037.374 1.117 11.007.089.825v.014l1.21 11.786 1.306 12.049.039.371.012.097.074.854.07.588.825 7.697v.006l1.226 11.516.38 3.57 1.437 14.45.255 1.95.304 2.868.21 1.993.54 5.095 1.896 17.84-.029.126 1.418 14.254.778 6.312.885 7.288.124 1.154.059.412 1.542 13.649 2.403 22.187.112.832.136 1.339.485 4.131.03.391.074 1.07.421 3.241.883 8.012.26 2.228.343 3.344.108 1.092 1.533 14.264 1.096 10.2.046.106 1.514 14.345.071.232-.898.207-.614.081-15.831 1.557-18.096 1.786-.025.002-15.925 1.485-.103.039-5.047.368-2.752.308-.43.026-20.861 1.732-.085.02-.492.048-1.07.087-.013.001-3.146.273-63.598 5.031-5.393.32-.064.117-1.097.82-7.975.55-19.711 1.293h-.01l-51.643 2.75-.339.01-13.053.604-2.003.03-.82.086-1.726-.167-1.652.003-.71-.051-17.964.662-11.624.48-9.569.442-.085.011-11.724.444-13.305.395-7.1.194-.272.048-12.301.382-5.713.218-1.625.083-.925.112h-.007l-1.803-.046-18.983.514-5.4.01-1.04.031-3.543.078-36.485.64-1.717.02-1.698-.72-13.237.178-.485.01-8.805.131-.888-.028-15.546.31-7.394.012-7.205.1-3.951-.08h-.017l-6.375-.152-9.874-.044-2.523-.069-.066-.007-6.93-.086-7.407.83-7.221-.16-3.114-.31-1.464-.008-1.7-.203-3.34.746-7.05.061-4.89-.093-.436.018-12.648-.249-3.751-.736-.888-.251-1.932-.396-21.452-.333-.066-.001-.838-.02-.29 7.653.04.273-.315 7.833-.33 13.681-.003 2.886-.173 6.931-.12 4.852.043 17.737-1.147-.266-4.969-2.207-.71-.758-.62-2.039-.28-2.197-1.306-1.29-.609-.117-.724-.609-.519-1.738-.577-.509-.974-.574-1.968-.683-.394-.72-.017-2.337.65-1.918-2.283-3.323-.854.142-1.157-.737.732-1.463-2.17-4.06-2.201-2.676-1.455-.614-.584.432-.624-.272-.87-1.291.052-.453-.676-.968-.186-.133-.648-.462-.747.277-.351.67.27.263-.426 2.479-1.358 1.433-.816-.413-.424-.733-.764-.073-3.666 1.264-.322.11-.288.309-.094.551.392 1.499.556.628.75.385-.42 1.613-2.773 3.395-1.493 2.576-.377.984.09 1.096.373 1.503 2.174 2.676 1.875 1.097.09.888-.345.422-2.44.004-1.431-.535-.477-.512-1.857-1.092-.843.276-.519-.103-1.887-.968-.508.139-.825.827-1.124.571-.244-.065-5.327-1.427-1.893-.114-.493 1.156-.526.763-1.82-.016-.782.239-1.085.78-.264.45-3.8 1.442-.14.53-1.149.238-1.68-2.045-.498-1.64-1.654-2.917-1.454.011-1.345.67-3.715-.11-.334.776-2.522 1.462-1.212.091-1.521-.88-1.555-.576-.215.455.048.587-.275.857-1.354-.623-1.293-.296-2.071.739-.288.785-.454.257-.435-.018-1.493-.977-.29-.928-.596-.453-2.345-.319-1.313.954-.354-.023-3.099-1.381-.616-.733.254-.664-.23-.896-1.029-.678-1.319-.233-2.306.007-1.858 1.179-.464.46-.2.4-.046.957-.368.31-2.478-.079-.471.335-.435.776-.024 4.203-.236.794-.941 2.203-1.679 2.161-3.932-1.875-2.01-1.697-1.05-.565-2.379 1.87-.933-.45-.002-.469-.538-.661-1.883-1.068-.712-.152-1.948.356-.892-.096-1.416-1.215-4.96.336-.314-.1-.526-.597-2.988-1.559-.936-.21-1.372.53-1.221.86-2.747.584-1.52 2.12-2.709 2.621-.8 2.287 1.078 1.859.671 1.827-.154 1.662-.101.123-.558.68-2.138 1.37-.872-.26-2.068-2.526-.245-1.849-2.43-.956-2.878-1.83-2.428-2.227-1.708-2.058-.12-2.47-.911-1.232-.512-1.84.814-.767.963-1.641.027-.884-2.816-2.088-.247-1.055.691-.847.129-.676-1.868-1.647-.677-1.551-.97-.718-.06-.772.928-1.317.708-.361.745-.1.29-.28.41-.936-.121-.899-1.08-1.531-.172-.835-.089-1.355.26-.566.051-.78-1.086-1.473-1.298-.8-.171-1.317.076-2.399-1.155-1.143-1.378-1.814-.182-.875.56-.507.058-.948-.73-.502-1.428-.583-.48.194-1.227-1.048-.284-.774-.842-1.065-1.211-.895-2.374-.758-.628-1.077-2.671 1.019-1.606.986-.424.484-3.45 1.419-.967-.878-.03-.44.698-.353.063-.197-.667-2.301-1.623-1.884-.545-.337-3.138-.835-2.514-2.863-1.228-5.422-1.225-2.05-.504-1.77.41-.706 1.138-.118.487.213.598.13 1.575-.529.482-.71.048-1.902-.106-1.005.128-1.621.826-.928-.766-3.362.157-1.27-.123-1.55-.662-.708-.388.22-.725.071-.932-.281-2.617-3.651.826-.744.407-.836-.483-.965-2.033-.127-.718.268-.674-.122-1.503-1.93-1.311-4.504.485-1.246-.666-1.705-2.874-2.777-.726-1.846-.161-.765-.511-.826-.662-.615-.691-.422-.357-.01-.468-.555-.478-1.381.09-.663.335-.617-.041-.839-3.407-5.143-.215-.54.023-1.851.554-2.196.44-2.341-.011-.599-.087-.262-1.224-1.306-.812-.506-.311-.503-.165-.895.47-1.083-.066-.434-1.336-2.493-.044-.366 2.202-2.84-.129-4.667-.977-.403-1.48-.122-.513-.005-.542.337-2.058-.26 1.613-5.194 1.352-1.53.16-.435.102-.977-.22-1.127-1.23-1.304-3.005-1.542-2.056.61-1.468-.7.314-1.718.364-.813-.1-.485-.215-.357-1.24-.96-.737-1.615-.212-1.225-.646-.54-2.2-1.838-1.184-.555-2.424.783-.329.345-.21 1.348-.068 1.265.393 1.443-.137.482-.356.6-1.192-.101-2.97 2.192-1.308 1.801-.182.84.017.824-.42.639-1.16.465-1.807.091-.839 1.075-.09.215.27.436-.076.403-.578.888-1.635.391-2.06-.003-.581.638-.604.992-.892.043-1.862-1.43-1.643-.079-.384.909.25.557-.06 1.04-1.41 3.202-.839 1.06-.747.577-4.61 2.081-.954-.155-1.13-1.76-.229-1.926-.211-.288-1.527-1.328-2.137-.993-1.606-3.222-.895-.835-.463-.212-.124-2.032-1.05-.33-2.064.723-.622-.495-.83-1.118-.646-.368-2.01 1.002-.717-.664.273-2.24.411-.683 1.453-1.682-.443-1.19-.703-.372-.625-1.495.034-.674.238-.27 2.16-1.048.511-.152.578.401 1.276-1.003.755-1.108.706-3.935-.094-.867-.469-1.384-2.302-2.186-2.09-4.249.36-.673.635-.678.926-.52 2.954-4.083-.28-.53.021-.33.256-.534.477-.509.899-.516 2.301.133 1.227-.316.592-.397 2.033.593 1.046.53 2.027-3.393.158-.78-.507-1.477-.723-.303-.628-.986-1.192-2.931.01-.266.307-.158.371-.488.658-.381.371-.487.617-.356.255-.628-.059-.652-.407-.544-.136-.766-.609-.43-.436-.49-1.194-.512-2.31-1.059-.454-.63.036-.953.41-.845-.371-1.629-.448-.006-.357-.312-.178-.568-.044-.63.252-.528 2.051-1.58.703-1.805.34-2.124-.987-1.88-1.103-.17-2.507-1.647-.24-2.454 1.217-2.387 2.03.192.8.864.468-.112 1.288-.815.966-.342.52-3.322-.002-2.007-.167-1.976-.124-.491-1.222-.987.018-2.149.494-.629.914.337.979-.243.497-.28.72-.75.182-.48-.445-2.082.196-.59 1.688-2.77.5-2.823-.01-.699-.65-2.425 1.207-1.437 2.037-1.132.982-3.528-.055-1.996-.23-.743-.87-.442-.366-.917-.012-2.49.254-.38.41-.079.75-.074.807.363 1.349-.28.589-.273.875-1.26-.464-1.18.081-.488.418-1.66.617-1.75.694-.85.092-.67-.154-.587-.029-.63.125-.452 1.092-2.091.291-3.66.218-.447-.24-.786-.569-.86-.014-.022-2.106-1.146-2.704.246-.752.535-.615.195-1.031-.46-2.387 1.1-.166.944-1.094.974-1.51-.268-.878-.639-3.811-1.14-1.15.176-1.81.851-.785-.029-.144-.084-1.494-.866-.062-.458.412-.431-.158-.889-.502-.38-1.106-.247-.402-1.63.142-.698.825-.464.765-.8.355-1.806-.4-.67-.463-.345-1.104-2.115-1.961-.666-1.667-.566-.188.022-1.143 2.495-.271.27-1.1-.043-1.027.23-.7.987-.151.328-.237.264-1.18-.078-1.426-1.798-.094-.33.887-1.809.48-.114.594-.755.234-.735.142-1.463-1.727-2.545-1.414-.556-.765.065-.843-.24-.437-1.037-.66-.434-.864-.932-.213-.408-.024-.808-.211-.24-1.296.11-.628.31-.709-.602-.41-1.158-1.195-.679-.483-1.006.035-.834.437-.46-.319-.866-.907-.233-.512-.429.422-.957.37-.084.644-.835.103-.602-.275-1.791.188-.486.647-.883.088-.48-.138-.642-2.27-1.426-.232-.355-1.54-2.373-.941-1.896.02-.482-2.07-.643-.077.28-.226.164-1.287.102-.116-.155-.404-1.886-.598-1.171-.093-2.976-1.014-2.808-.764-.468-.373.153-.325-.241-.929-1.503-1.024-2.07-.147-.74.033-.972L81.26 444l-.116-.775-1.066-2.204-.764-1.016-1.643-1.304-1.57-.324-.737-1.522.093-1.356-.388-.85-1.877-.374-1.037-.671.046-.663.516-1.297.35-.447-.073-1.281-.258-.527-.597-.599-.361-.013-.362-.457-.456-1.377-.025-1.279-.881-.752-1.58.08-.515-.288-.383-.471-3.015-.212-.754-.947-.062-.523-.37-.329-1.192.033-1.038-.169-.983-.923-1.243-.325-1.786-1.2-1.048-1.036-.266-1.285-1.059-2.201.036-2.028-.363-.41-.646-.119-.435-.382-.46-1.275-2.203-1.834-.575-.263-1.739.255-.355-.41-.21-.999-.575-1.257-2.345-1.924-1.485-.483-.62-.437-.15-.42-1.349-.324-1.59.245 1.104-2.114 1.541-.222.915-.816 1.997-.242 1.634.513 1.742-.015.773-.44.741-1.366.33-.68-.013-.008-.42-.284-1.629.255-.78-1.198-1.534.056-.4-1.545-.942-1.718.048-1.275.954-.353-.312-.767-1.066.046-1.788-.888-.393-.569-.019-.697.2-.673 1.098-1.266 1.146-.895 1.14.018 1.54-1.906-.012-3.226-.936-1.473-.496-.17-1.047-.82-.325-1.452.962-1.881.535-2.762-.434-.94-1.486-1.584-.449-.315-.388.154-.635-.085-.308-.311-.432-1.14.418-1.575-1.1-1.742-.492-.167-1.658.535-.497-.475-.207-.618.142-1.028-.118-.563-.158-.63-.47-.634.24-2.739.305-.61-.347-1.535-1.32-.951-.224-.982-.39-.78-1.562.575-.374-.41-.83-1.377-1.228-3.097-1.313-1.875-.234-1.402-.243-.502-1.016-.32-.688-1.25-.006-.877-.17-.588-.53-1.36-1.465-2.84-.601.16-.689-.713-.027-.045.002-.017.283-2.555.846-6.792.045-.745.136-1.195.683-5.382 1.168-10.295.275-2.425.213-1.384.305-2.792.534-3.958 1.318-11.684z"/></svg>