<svg height="1000" width="1000"><path class="americon" d="M251.667 912.852l-.205-2.097-.26-.197-.023-.257.319-1.504-.048-1.608.758-3.494.222-.24 1.5-.528 1.572-.795.938-.9 1.241-1.524.364-.682.028-3.387.397-1.615.284-.415 1.065-.585.234-.442.07-1.074-.704-3.718.248-2.617-.048-1.538-.196-1.197-.287-.803-.321-.3-.517-.152-.58-.775-.167-.482.132-.82.537-1.024 3.752-2.956 2.835-.32.998-.586 3.136-.62 1.564-1.496 1.402-.783.659.153.667.691.78-.097 2.145-2.325 1.198-1.61.015-.42-.64-.766-.332-1.273.191-1.475.497-1.226.821-1.139.817-.437 1.376.29.831-.204 1.023-1.176.336-.666v-1l-.209-.59-2.21-1.933-1.079-.588-.514-.78-.876-2.28-.141-1.094.604-2.718.203-1.726-.514-1.31-.96-1.223-.24-.625-.122-1.27.247-.759.734-.97 2.477-2.193 2.595-2.845 1.462-2.066 1.013-1.704.245-.659.051-1.131-1.03-3.037-.993-2.213.184-1.02.507-.915 1.56-1.36.475-.99.134-.527-.052-2.047-.772-1.379-1.322-1.572-.511-.956.056-.35.528-.11.046-.267-.055-1.318-.262-.306-.614-.287-1.095.05-.976-.653-1.267-2.82-.055-.71.167-.378 1.014-.882.276-.549.077-.61-.11-2.298.114-3.21-.173-.716 2.08-2.113.411-.638-.077-.915-1.48-2.572-.206-1.219 3.073-3.085.344-.624-.198-2.299-.49-2.295.04-1.39.795-2.267.881-1.88.194-.937.032-.157-.133-.563-.631-1.242-.576-2.179.116-3.173.644-1.657.314-.372 3.667-1.76 1.68-2.88 2.094-4.188 1.76-7.484 1.706-3.49-.082-.596-.47-.903-1.29-1.234-1.602-2.695-.384-1.002-.035-.47.366-.99 2.208-4.133.46-.655 1.05-1.021 1.219-1.655.228-.708-.545-.352-2.202.033-.932-.165-2.483-1.738-.341-.566-.1-.595-.173-3.896.18-1.344.614-1.488 2.133-2.05.395-.706 1.083-6.96.066-1.554 1.164-5.736.11-2.767.476-2.233.768-1.686.177-.7-.471-5.074.046-.835.266-.514 1.896-1.952.419-.654.348-1.491.389-3.079.034-1.136-.132-.646-.991-2.525-1.249-1.349-1.767-1.549-.533-1.02-.036-.952.765-2.594-.015-1.214.478-1.28.932.065.43-.36 1.57-2.508.807-2.068-.138-5.132-.382-2.763.051-.608.897-3.62 1.7-1.93 2.459-1.511 3.723-1.436 4.7-4.186.735-.295.296-.217.234-.681-.13-1.522-.333-.572-.83-.713-.52-1.543.115-1.727.569-2.118.907-.689.475-1.287-.03-.234-.55-.617-.04-.66.145-.332.464-.436 1.3-.76 1.932-.8.315-.596.077-1.368-.302-1.047.308-2.458.31-.83.547-.46 1.372-2.47.397-1.08.263-1.656.103-1.467-.317-1.123-.431-.706.245-4.636.682-2.527.85-1.39 1.284-.876.717-.841 1.417-2.142.58-1.126 1.326-1.543 1.008-.87 1.323-2.568 1.828.015 5.095-3.197 3.279-1.855 2.43-3.457.424-.72.531-1.379.54-.76.427-.28 1.5-.416.87-.565.625-.605.115-.112-.154-4.02.067-.8.33-.588 1.869-1.404.396-.538.637-1.161.664-2.221 1.57-1.402.413-1.264-.206-1.587-.576-1.222-.543-1.937.09-.631.547-1.468.778-1.365.312-1.212-.13-4.04-1.152-3.112-.13-.918.85-2.639.49-.702.941-.298 1.213-.062 1.928-.986-.589-1.564-.547-1-.425-1.287.224-1.472.305-.596.278-.371.886.11 1.687-.387.425-.393.183-1.619.768-1.58 1.172-1.657 1.663-1.289 2.622-1.698 3.737-3.217.483-.722.317-.85.365-3.868.005-.494-.554-2.9.083-.777.23-.532.678-.285 1.153.002 1.316-.612.385-.421 1.527-2.58-.065-.445-.501-.722-2.613-2.25-.87-.21-.116-.3.01-.417.438-1.201.164-1.042.225-3.38-.266-1.122-1.006-1.442-.064-.92 2.108-2.184 1.384-.825.054-.507-.34-1.883-.08-1.19.745-.8.939-.208.86-1.523.156-.78.277-.489.535-.46.406.062 1.366-.049.896-.896.138-.573.36-.446 1.145-.677.172-.412-.12-.665-1.007-1.799-.046-.69.164-.53.428-.616.656-.467 2.224-1.22.977-.835.18-1.428.847-.857.444-.26.22-.338.764-1.867 1.371-1.59-.066-.81 1.595-1.18.732-2.406-1.953-1.512-.38-.644.292-.627.38-.239 1.624.296.974-.164.525-.324.369-.47.27-.696.24-1.677-.052-.774-.45-.569-1.015-.54-.728-.098-3.937-2.495.047-.73.634-2.811 1.555-1.449 1.176-.623.318-.003.49.382.348-.026 1.013-2.476-.137-.359-.94-.465-1.066-1.239-.187-5.136.044-.357.696-1.259-.019-.463-.14-.344-.427-1.04-1.354-.37-1.397-2.23-1.13-4.205-.983-2.01-1.243-1.763.437-2.604.27-.546.916-.715.287-.603.252-1.435-.133-.781 1.426-3.135.155-.713-.31-1.406.093-1.211.785-2.733.736-1.779-.14-.989-.421-1.033-1-1.054-1.478-3.316-.339-2.676-.862-1.686-.498-.125-.332-.964.629-2.267 1.732-3.255 1.45-1.535 1.838-.522 1.91-1.611.517-.494.939-1.46.245-.678.067-1.062.021-3.295-.375-.582.183-1.094 1.064-.73.85.133 1.723.62 1.194-.226 1.188-.324 1.998-1.044 3.651-1.75.477-.523.498-1.82.912-.45 4.667.376 1.304-.35 3.364-.05 1.582.7.949.034 1.636-.646 1.054-1.607 1.997-1.625 2.735-.618 1.187.292 5.29 2.676 1.56 1.039.878.274.666-.118 2.075-1.131 2.419-.265 2.162-1.199 1.738-1.29 1.143-.849 1.823-.67 1.924-.33 1.167-.577.378-.363.183-.656-.068-.407-.645-1.893-.296-1.407.175-.463.692-.582.156-.378-.047-.377-.73-.752-.134-.316.369-2.345.327-.314 1.118-.38 1.39.197.817-.339.11-.607-.923-1.612.002-.546.297-.54 2.193-2.128.84-.356 3.13.18.834-.48.676-.712 1.276-.847.756-.412.063-.013.718-.144 1.521.232.453.3 1.242 1.318 1.171.22.495-.106.207-.257.623-1.599.543-.776.497-.412 1.142-.343 1.379-.13 2.878.332 1.827-.535 2.234-1.48 2.21-1.868 1.314-.785 1.532-1.63.208-1.547-.2-.685.174-.347.487-.247 2.186-.294 1.232-.66.613-.704.73-1.681.446-3.29 1.03-2.353.266-.224 1.876.21.575-.43.634-.89-.114-.633-1.475-1.066-.339-.402-.08-.742.126-.4.467-.73.72-.545.983-.43 1.688-2.193.462-.156 3.464-.502.438-.083 1.643.58 2.61-.763.404-.696.63-2.192.064-.836.966-1.06.8-.3.818-.3 1.362-.17.314-.05.289-.28.148-.49-.181-.306-1.412-1.226-.446-.679-.256-1.193-.248-.447-1.346-1.126-.479-.712-.074-.704.363-.48 1.486.206.355-.083.833-.63 1.452-2.145.627-1.21.371-.96-.016-.605-.545-1.043-3.327-2.533-2.253-2.02-.339-.72.083-.638.429-1.35.571-1.055.473-.473.496-.209 3.782.333 1.528.724 1.6-.16.917-.327.33-.526-.108-1.162.09-.71.812-2.693.588-.91.53.1.485.45.47.223.651-.265 1.238-1.176.618-.82.379-1.325-1.123-.728-2.236-.984-1.078-.1-.301-.844.042-.95-.404-1.078.06-.76.244-.612.247-.687-.058-.91-.636-2.682.205-2.582.282-.46.197-.008.191-.447.37-.345-.751-1.665-1.93-1.586-.133-.249v-.81l.973-.224.214-.604-.14-.935-.826-2.118-.68-.942-.446-.375-.387.11-.265.732-.401.382-.497.04-.768-.087-.24-.506-.06-.423.155-.505-.079-.404-1.79-.337-.485-.432-.445-.602v-.591l.343-.873.173-.662-.275-.83v-.59l.3-.339.502-.739.14-.463-.264-.472-1.12-.033-.685-.223-1.616-1.282-.025-.215.445-.711.116-.786-.57-1.174-.412-2.084.305-.761-.462-1.117-.387-.33-.157-.356v-.33l.403-1.109-.14-.52-1.327-1.026-2.101-3.903-1.352-1.33-.041-.472.28-1.497-.058-.314-.362-.132-.907.546-.173-.009-.425-.447-.177-.464-.005-1.72.149-.735-.03-2.488-.442-1.175-1.079-.53-.22-.595.023-.77.161-.286 1.884-.68 1.537-.269.951-1.005-.007-.708.643-1.346.908-.475.93-.752.807-1.565 1.396-1.213.031-.307-.196-.414-.07-.568 1.023-1.37 2.201-1.069 1.126.092.274-.213 1.46-2.102.395-1.066-.365-1.127.7-2.65.334-.64-.03-.639-.937-.567-.583-1.15-.093-.902.304-.73 1.643-2.08.708-.306.099.28h.271l.37-.264 1.174-3.539 1.015-.594.383-.619.054-.518-.167-1.026-.611-1.332-.44-.407-.014-.704.309-.628.497-.57 1.36-1.232-.008-.537-.494-.916.032-.744.165-.355.93-1.28 1.48-.902 1.415-.388 1.39-1.397.067-1.217.14-.322.436-.463 1.086-.62 2.582-3.412.148-.478-.61-.57-.066-.294.122-.247 1.337-1.106 1.576-1.814.353-.62.4-.123.654.197.288-.273.489-2.148-.125-.33-1.634-.972-.948-1.634-1.21-1.575-1.532-1.403-.455-4.473.206-.412.164-.966-.339-1.469.5-4.028-.356-2.103-1.57-.627-1.228-2.656-1.135-.849-1.58-2.986-.208-1.402.41-2.164 1.757-1.98 1.294-.804 1.275-.149 1.38-.603 4.39.023 2.514 1.058 2.029-.715 3.404-3.274.307-.607-9.198.11.26-.301-.025-.42-.206-.24.256-3.71 1.51-2.898.725-2.682.015-.684-.528-.757-1.027.43-.598-.031-.344-.158-1.11-1.326.032-.965.14-.33.451-.091.567.247.714-1.014.41-3.728-.586-1.64.122-.346 2.234-.624-.001-.453.71-1.782.887-.233.672-.785.073-.297-.247-.32.032-.19 1.396-.317.995.08 1-.959.66-2.227.706-.183.524-.554.424-1.353.728-.958.764-.299.81-.81.227-1.212-.083-.403.776-1.576 1.281-.399 2.064-2.165.917-1.239.408-1.257.113-.832-1.618-2.962-.691-.633-.364-.963 1.02-2.466.81-.834.583-.282.238-.363.691-2.177.097-.651-.259-1.721.655-.587.753-1.08.723-2.474.175-2.15.155-.577.482-.496 1.057-.613.863-2.91-.076-.757 1.98-1.957-.051-.865-.282-.963-1.066-2.417-1.052-.525-.435.076-1.634-.498-.132-.115-.026-.436-.272-.633-1.053-.986-2.64-1.688-1.726-1.444-.52-.798-.582.068-.255-.239-.001-.576.13-.239.27-.297.952-.167 1.404.482 4.031.738 1.318-1.173 1.253-.975 1.098-.39 2.086.488.644 1.439.634.788.962.648.18-.05.442-.561.759-1.427.08-.634.554-1.294.237-.256 1.203-.523.902-.086 1.36-.591.956-.979.496-.875.13-.52-.03-.863-.698-1.98-.684-.739-.249-.608.097-.428.546-.801 1.437.43.394-.027.45-.183 1.02-1.058.913.34 1.932-.692.612-.809.071-.527.487-1.155.826-.423 1.91-.437.635-.843 1.03-.861 1.344-.08.538-.588.495-1.294.952-1.486 1.16-.952 3.061-1.184.181.163.292.97-.046.642.513.829.386.072 1.744-.626 1.464.75.412.408-.455.801.762 3.058.207 1.916.232.468.645 1.026.804-.037 1.542 1.481 1.24.108.256.262 1.32 2.23.781.283.232.278.977 2.47-.364.695.487.66.78.002.562-.724.963-.673.351.87 2.242.224 2.213-1.4 1.207.008.411.236.46 1.106.796.29 1.097.711.934.99.26.796.054.593.43.433.27-.117.316-.439.265-.809 1.043-.987.534.07.965-.493 1.159-1.032 1.184.563.63.818 1.93 1.443.855.052 1.36-.266 1.375-.447.514-.456.988-2.98.868-.583 1.146-2.537-.06-1.242.938-2.38.795-.92.613-.22.851-1.144.406-1.403-.926.108-.208-.278-.153-.567.51-1.585.876-2.049 1.846-2.634 2.09-.983.99-.33.415.005 1.968 21.064 1.314 23.761.94 13.292 3.117 50.157.308 1.754 1.556 24.974 2.364 30.977 2.147 32.315.278 6.91 1.75 29.31 1.485 35.225 1.16 21.04.672 9.535 1.757 34.666.82 13.54.53 14.13.326 6.196.496 9.419-.006.139.1 4.703 2.47 55.332-.008.1.965 18.847 1.955 45.43.128 7.296.94 20.765.412 17.059.01.104 1.244 14.274.895 13.834-.028 1.16.108 3.612.013.367 1.954 27.683 1.014 20.017.693.617.416-.118 1.798 2.132 1.228.573.37.57.247 2.025.455.55.385.171.28.44-1.126 3.719-.023-.034-.16-.344-1.646.344-.007.002-.283.771-.057.795.056.551.212.34 1.16.983.324 1.035-.03 1.371.117.283.728.579.022 1.393-.72 2.23.396.494.173.567-.841.653-.29 3.18-.725.594-1.239 2.38-.736 1.866.168.817.422.48-.142.679-1.652 1.248.352.874.538.403 1.312.345.39-.13.029-.006.812 1.3.273 1.132-.9 3.61-.59 1.15-.156 1.16.302 1.058 1.126 1.64.168.936-.018.788-2.013 1.278-.145.792.28 1.258-.697 1.353-.94.956-.908.4-1.277.974-1.02 1.866-.107.88.186 3.043.25.7.793.836.073.56-.07 1.088-1.196.508-.083.712.03.729.661 1.008-.19.92.015 1.543.455 1.17-.006.25.668.822 1.477 2.396.617 1.585-.168 1.816 2.09 5.172.86.682.96.297.7 1.19.368 1.125.936.514.396-.522 3.827-1.032 1.168.208.152.804.164 1.295.235.528 1.841 1.736 2.025 1.62.273.15.906.003.146 3.612-.215.612.714.58.648.687.776-.195.582.146.529 1.28-.256.953-.662.698-.918 1.22.382.691 2.616 2.312 1.631.382.993.5.772 1.932.26 1.572.297.253 2.443.822 2.52 1.815v.004l.502.71.424 1.232.078.886.378.382.84.39.81-.603 2.337.88 1.107 1.12-.13.306-.355.259-.052.384.721 2.087.378.218.964-.214 1.509.445.351.104.44.13.473.208.094.056 1.372.815.027.184.424.878.239 2.186.382-.016.583.265.605 1.054-.003.31-.883 2.692-.77.587-.227.397-.955 5.448.117.787.339.902-.042.778-.356.508-.813.227-.913.596-.183.296-.097.734.971 2.553.374 1.865-.127.479-.582.448-.546 1.144.147.952-.304 3.12-1.202 4.052.26 1.317.8 1.786.217 2.161.339 1.243.358.728 1.843 1.625 3.052 1.983 4.018 3.74 2.717 2.106 1.308 1.808 2.986.799.434.324.929 1.16 1.494 3.134.327.325 3.9.894 1.095 1.415 1.18.055 3.53-.57 3.054-.159.789.685.36.765.302 4.093.007.092-2.615 1.352-.09 3.577.193 1.534-1.388 3.594-1.12 1.138-1.403.647-.52.818-.441 1.1-.116 2.02-.43 1.333-.293.41-1.305.399-.904 1.168-1.334 4.634-.03 1.025-.202.366-.76.17-.629-.186-.417.173-.654.694-.603 1.035-.795 2.392-.149 1.785-1.727 2.702-.022.59.613.74-.535 1.146-1.018 1.525-.93.164-.349.374-1.249 1.858-.367 1.26-1.083 1.708-.876 1.072-.972 3.635-.193 2.115.148 1.234-2.08 1.638-.719 1.393-.348 1.195-.15.98-.01 5.336-.789.97-.489 1.3-.27 2.351-.044 2.785-1.203.168-2.417 1.123-1.753 1.466-3.011 1.533-10.211-7.834-4.498-1.384-3.264.028-.004-.01-3.422.507-.851.28-.24.15-4.68 3.034-4.63 2.664-17.397 3.827-3.52 3.822-.819 1.737-1.605 4.061-2.765 9.885-14.029-4.09-4.45-1.3-4.623 2.208-4.271 2.534-.563.483-1.792 2.147-3.13 4.034 1.306 19.531-7.134-2.04-.025-.008-.02-.007-4.225-1.214-2.565.458-3.264 1.088-2.603 2.202-.114.097-3.303 3.884-2.951 5.404-4.105 5.276-9.744-.025-5.865-.33-75.757-2.318-1.19-.038-29.654-.944-41.36-1.706-8.139-.35-14.224-.489-27.036-1.342-11.664-.594-42.84-1.937-.803-.037-46.636-2.605.022-.824-.655-1.526-1.797-2.974-1.389-1.756-.417-1.779-.286-2.57-.431-1.312-.459-.697-1.477-.916-.402-.537-.355-.889-.887-1.15-1.135-.322-.706.124-.232.34-.143 1.076-.398.507-1.99 1.16-.784.23-.604-.036-.79-.797-.158-1.004.53-1.009 1.275-.635.49-.503.102-.835-.2-1.12-.753-1.557-1.077-1.654-.666-.781-5.642-5.317-.836-1.357-.802-5.7-.294-3.193.041-1.833-.28-1.636-1.284-1.747-.988-2.338z"/></svg>