<svg height="1000" width="1000"><path class="americon" d="M67.138 944.612l.218-3.326.004-.002 1.29-23.355 1.373-27.222.185-2.416.235-5.602.201-3 .107-1.598 1.231-24.26.106-2.466.544-9.483.045-.852 2.99-57.1 2.173-43.057.042-.835.032-.617.03-.582.791-14.178 2.42-48.947.012-.169.268-3.777-.006-.167.363-7.5.004-.073.584-11.916.315-6.898 1.063-19.315-.009-.05.012-.624.053-.564.064-.4.19-5.824 1.902-36.027.899-19.216.349-6.382.883-16.157.967-20.847 4.467-86.848.001-.026.475-9.41 1.598-31.765.217-2.377.02-2.417.183-2.354.058-2.376 1.113-21.687 1.755-35.632.605-12.291.838-18.722 1.54-30.07-.002-.02.584-11.147.018-.373 2.187-43.224.069-1.464.303-6.09.006-.005.627-12.528.965-18.78.466-10.594 2.679-51.993 3.022-61.032.006-.066.773-15.266.009-.1.24-4.81 11.208.574.58.029 43.379 1.893.08.01 31.232 1.222 7.596.279.034.003 4.164.15.041-.004 4.865.176.163.094 32.316.936 67.42 1.85 7.904.178 70.653 1.212.958 1.268 15.497.176 9.747-.009 1.857-.002 4.24.052.01-.003 1.498.041-.004.006 15.156-.016 3.16.008 17.31.023 6.481.078 5.8-.05.125.005 6.011.034 25.33-.202 1.191-.014h.171l36.1-.226.26-.002 6.727-.052 4.843-.006 12.16-.141 2.787-.012.475-.024 5.674-.075 2.33-.03.624-.004 3.01-.012 21.84-.245 3.99.012 8.522-.16 4.451-.088 11.91.231 3.726-.156 34.89-.768.01.006 11.308-.26 2.531-.1.126-.13 13.686-.255 23.447-.628 11.467-.532 31.52-1.313 35.511-1.635.145-.002L879.073 26l9.062-.448 10.89-.552.748 14.389.054.325 1.594 30.945.337 7.209.531 9.45.132 2.358.603 12.416.242 4.271-5.18.264 1.568 29.742.016.12 2.342 42.898 1.792 35.655-.01 2.053.157 1.826.124 2.894.144.792.43 8.586.962 19.185 3.089 61.303.02 1.456.29 4.842.264 4.733v.001l.005.06.01.142.022.553.143 3.177.106 2.407.032.324.073 1.183-.01 1.744.215 2.495 1.356 25.732.476 9.017.391 8.155.504 9.6.388 7.425.652 12.615.095 3 .318 5.52 1.293 26.062.026.479.001.018.036.665.442 8.332.036.795.027.593.033.563.025.544.015.293.032.616v.046l.001.185-.007.444.007.209v.017l.578 11.096v.003l.094 1.683v.006l.145 2.183.294 5.408 1.266 23.967.219 4.143.082 1.426.119 2.716.106 2.181.053 1.073.018.204v.13l.04.707.066.762.132 2.449.114 2.397.208 4.835.124 4.843.232 6.562.05.794.273 8.556.164 4.28.444 13.102.003 1.424.24 5.984.205 4.942.048 2.381.005 1.29.099 1.426.067 2.086.385 9.854 1.035 30.525v.004l.402 9.884.073 2.39.288 9.211-.03.693.272 6.217 1.025 29.781.019.566.183 4.778.068 1.748.305 5.975.05.887.534 9.94.163 3.478.075 1.855.101 1.792-.011.074.074 1.33.215 3.516.004.158.378 7.233.01.167.04 1.062.446 8.54.163 3.023.159 3.023.062 1.37.354 6.107.168 3.693.208 3.826.01.248.114 2.094.592 11.107 3.396 63.81.207 3.722.322 6.101.762 14.68-3.087.171-.406.024-18.272.925-7.484.378-.01.026-.384.018-1.172.042-6.907.344-57.07 2.58-3.666.153-18.317.668-15.079.642-6.387.252-73.083 2.3-.027-.033-15.705.4-.376.001-29.434.689-10.163.213-22.886.427-.224.012-5.685.108-1.922.026-.222.005-2.209.043-.298.002-.531.01-34.078.475-5.284.06-.22.008-.102.006-43.55.232-2.763-.091-14.926.055-4.627.084-2.082-.014-14.042.001-18.386-.019-8.117.077-2.72.041-.751.003-15.483.003-9.162.02h-.044l-2.47-.064-2.419.013-22.212-.042-.131-.005-3.16-.024-1.06-.013h-.478l-.065.003-2.796.016-.147.979-.6.63-1.1.192-.772.688-.446.91.188.601 1.156.956.525.102.299 1.64-.184.608.055.501.33.282-.133 1.254.179.792.03.722-.061.299-.41.814-.645.587.152.504.74 1.637-.365.304-1.119.405-1.044.874-.68 1.002-.028.514.05.135.343.331.683.222.607.428.463.476.212.46-.237.682-.597.883-.15.503-.015.899 1.165.97.29.738.559.588 1.034 1.092 1.272.043.086.069.46.259.008.817-.498 1.987.364.495 1.287.032.689.38.144.103.845 1.13.113.274.589.6.911.042.598-.523.49.123.071.256.65.124 1.632.54.257.394.09.123.37.375.007-.007.9.61.072.187.027.072.058.167.24.718.007.013.075-.014.285-.03.37.274.03.128.015.11-.057.37-.02.333-.02.313-.504-.134-31.685-.255v-.033l-35.184-.426-.68-.007-.336-.007v.028l-42.893-.811-18.157-.364h-.036l-31.648-.798-29.993-.832-29.377-.926-22.724-.796-1.007 28.98-.767 19.392-.008.009L188.704 975l-38.95-1.514-33.91-1.416-11.837-.4-9.106-.416-1.448-.072-27.579-1.392z"/></svg>