<svg height="1000" width="1000"><path class="americon" d="M606.9 627.175l11.775-7.015 9.052 1.69 7.003-7.371-.391-7.19-12.452-13.711 1.53-3.256 8.469-9.948-.158-11.616 14.4-17.823 2.017-13.347 5.544-14.186 7.51-12.546 4.867-2.046 2.613-4.207 9.362-32.554.796-8.767-2.32-4.78 2.718-4.957 16.816-16.187 14.504-1.66 11.332-14.686 11.514-5.35 7.478-18.074 1.023.305 2.609.622.002-.083 8.044 1.894 4.314 1.167-.06 3.155.004.435 17.99 4.225 6.608 1.374 8.7 2.43.407-.003 1.466.424.188 1.476-1.325 19.03-.004.07-.874 13.93-3.851 4.937-.784 8.513.558 9.433.28 2.504 2.541 2.747 4.853 9.371.262 1.751 7.85 76.328 1.704 26.902-13.269 3.922-3.416 4.39.743 4.441-22.026 15.905-2.218 8.113-18.65 6.712-1.597-1.195-1.558-2.256.178-3.968 5.286-14.766-.167-6.548-7.58-8.105-.272-4.075-5.485-4 4.46-16.54-10.63-34.183 3.832-27.475.507-32.26-4.032-10.22.14-8.945.304-5.117-3.397-2.7-19.93 6.935-2.16 34.535 6.162 13.836-.174 42.375 1.542 3.6 5.56 4.588-1.143 7.362-8.98 22.913 1.74 14.93 1.153.319.366 3.46-3.179 9.276-4.875 3.2.524-10.182-5.497-4.982-9.893-3.216-17.008 1.28-7.713 3.802-7.43 32.56-5.7 4.058-1.065-.65-.035-3.481-7.104-1.063-13.274 7.353-10.955-2.029-9.55-10.404zm-4.514-213.557l17.323-6.616 5.012 8.927 2.09 11.764 3.053 4.528 4.942 8.407 9.398 6.104 7.634 8.536 1.866 17.331-3.237 9.383-8.147 16.143-7.006 5.042-4.158-1.872-3.891-6.06-.932-9.564 2.635-12.17 3.398-3.538 2.37-7.646.56-8.572-6.067-6.013-10.8-2.889-3.856-3.855-9.472-17.018zm-27.354 217.897l3.687-34.09 7.681-.955 6.159-12.958-9.895-10.46-.954-10.77 6.138-35.159 4.409-12.03 4.382-5.939 2.786-.825 5.414 3.36 3.063 15.834-2.587 59.211 2.429 20.508-16.74 9.383-2.122 10.662-4.64 4.566-.792 6.064-7.57 7.049zM401.062 959.75l6.249-23.875 8.697-6.824 4.481-8.916 7.667-9.04 2.41-10.782.53-10.62 2.365-4.37 10.423 4.622 5 8.066.77 4.221-2.787 9.191-5.475 10.016-1.346 12.015 3.932 8.945 8.834 10.27 4.755 2.048.473 3.923-2.615 8.346-4.033 2.149L417.037 975l-5.178-.652-9.632-6.902zm-203.86-171.39l1.33-3.96 17.696-14.955 7.773-11.418-5.152-10.27-1.41-10.473 5.055-8.012-1.422-14.867-7.046-11.852-1.037-11.423.767-4.384 2.396-2.456 17.421-8.068 16.914 3.23 7.65-196.209.002-.063 1.6-46.798.596-17.487-1.856-74.594-.004-.179-.91-49.508-1.207-39.917-.008-1.813-.964-34.193.005-1.043-2.589-102.39-.713-78.848 26.789-1.71 128.748-3.678 23.65-.716 14.076-.26 25.65-.716.242-.109 21.272-2.184.805-.109 1.327-.025 32.354-.632L588.8 25l.06 36.662.034 19.853.087 2.061-.02 45.47-.08.218.099 32.024 4.119-.882 2.262-.441 2.262-.225 4.523-.775.566-.11 1.777-.223 6.3-1 1.615-.223 11.307-1.887-.465 5.213.001.217-1.163 12.815 5.58 20.936-6.56 19.032.33 1.193 5.375 8.886-1.935 1.963-1.611 1.853-4.274 4.362-1.842 5.33 6.536 15.293.246.76-.317 1.957.01 2.281-1.198 4.569.089 2.064 1.142 2.169 2.842 1.618 1.541.32 1.387 2.385 2.373 5.968-.062 4.564 1.225 2.276 8.206 4.748.004.002 45.845 25.648 29.199 44.085.746 1.197-2.466 5.452-10.6 8.494-3.51 3.161 6.335 14.343L708.634 401l-5.006 5.39-9.604 7.246-.973 12.554-10.024 4.53-2.27 3.493-2.277 3.504-10.282 1.881-7.88-9.584-3.416-4.157-1.82-.478-1.935-5.224-1.995-19.341 2.772-9.99 3 .23 4.69-7.444 1.471-15.58-11.885-17.34-7.378-5.562-17.298-1.18-6.795-12.188-6.397-9.617-2.456-1.847-3.923-2.95-3.72-16.561-.431-13.87-5.222-6.34-7.903-2.092-.96.224-6.547 1.532-.206 5.298 4.358 11.04-.03 9.08.807 3.073 3.289 12.527-.17 7.712-.153 12.535 3.684 6.16 10.239 4.596-1.424 6.285.061 18.126-5.825 24.352-3.979 6.463-3.366-.72-6.378-4.969-.755-9.49 1.082-3.044-.911-.727-22.353-.062-18.904-2.392-1.423-2.017.96-1.875-3.273-1.21-2.75 4.076 3.988 25.002 11.72-3.432 3.718-3.537 13.146 8.825.566 9.598 4.145 70.18-35.757 9.794 4.223 16.676 17.11 29.563 3.475 3.647 2.128 12.422-.072 7.432-5.246 19.266 1.222 15.11 1.652 2.921.285 4.51-.625 5.756-2.241 3.018-1.505-3.041-6.325 2.244-.136 5.428 2.457 6.67-.572 5.855-4.03 9.996-3.307 4.032-2.884-.32-6.326 3.415-5.625 5.998.435 27.28-15.95 23.86-6.835 15.694-24.643-3.226-10.904-2.103-23.453 3.626-56.59 13.536-52.089 19.588-11.124 6.359-15.671 5.847-43.405 3.764-10.051 2.4-39.22 10.846-19.462 10.06-4.356-3.815z"/></svg>