<svg height="1000" width="1000"><path class="americon" d="M48.211 366.367l.883.038 1.313-.066-.042-.342 1.457-20.53-.038-.16 1.006-14.603 1.406-20.424.12-1.56.353-4.784.19-3.196.756-11.478.216-4.66.164-1.521.054-.558.348-5.926.143-1.915.05-1.198 2.148-31.782 1.228-19.57.02-.594.113-1.651.569-10.466 43.27 2.888.883.056v.001l9.611.589 2.108.154 14.227.825.282.013 1.647.118.772.032 4.115.316.729-.017 9.768.555h.002l7.548.408.892.047 5.674.293 2.333.133 4.949.262 2.228.112 3.528.175 2.496.134 3.49.2.038.003.626.024 5.496.295 2.48.132 4.624.221 20.158.946 3.542.127.184.013.666.02 1.733.053 1.041.053 9.652.465.877.057 8.615.332.973.044.916.05 1.514.062 2.417.105.004.008.597.011 1.13.044.479.033.873.056.255.002.414.006.008.005 4.416.182.104-.01 2.892.141 12.69.491 4.7.185h.034l1.985.068.17.006.18.003 1.27.045 1.16.053 1.132.028.093-.023 4.263.182.28.003 2.782.097 6.93.246h.002l.027-.01.198.01.01.001.74.038.308.01 1.812.06 1.876.056 8.122.24 3.933.135 2.26.065 4.416.14.524.007 2.746.098.102-.005.117-.004.652.008 3.283.111.769.05 1.68.018 3.102.068.143.023 2.64.06 3.34.102 7.644.2.56.037 15.807.42 5.309.031.354.019.621.03 3.615.062 2.37.048 2.998.068 1.806.018 5.468.133 2.326.063 2.84.05.393-.007.532.013.901.023 1.975.045.404.007 4.113.044.632.034 13.884.17.475.04 1.398.026 2.926.034.392.02 5.226.049 13.86.168.879.009.004-.006 1.343.038 3.4-.03 8.061.125 2.663.026 13.32.082h.019l1.431.01 4.203.031 3.71.003.71.014.492.008 1.125.017 13.381.061 1.011.024.14.03.98.006.098-.004 11.963.07 2.157.003 1.192-.005 3.613.016.215-.005 2.798.009 1.743.017 7.313.01 4.571.002 9.84-.03h.026l4.764.03 10.162-.02.104-.005.019.003.167-.001 3.43-.027 2.889-.034 2.421-.043 6.995-.08 2.576-.031 11.01-.02h.332l10.242-.147 1.807-.035.814-.012 3.86-.043h.02l3.096-.045 2.372-.024 1.531-.031.886-.015 2.132-.016 4.083-.075.069-.001.924-.025.123-.001 12.682-.256 1.093-.027 10.026-.177h.013l11.528-.198.12-.003 20.722-.397 11.392-.248 24.269-.473 26.331-.875.114-.004 13.127-.504 7.167-.273h.011l2.44-.078.934-.034 2.307-.086 20.03-.772.865-.05 9.239-.414 17.716-.83 2.708-.141h.01l3.112-.124 1.14-.062 18.744-.956.771-.045 9.637-.532h.004l9.57-.556 3.094-.21 1.7-.18 9.612-.456 2.212-.106.191-.089 22.23-1.309 1.562-.168 10.358-.652 2.375-.14 2.384-.129 2.394-.116 2.384-.172 1.282-.068 1.116-.058 2.357-.166 1.519-.1.002 1.491.08.854.054.248-.265.454-.04.21.099.624.125.156.145.234-.283.686-.092.42.076.692.057 1.24-.022.52-.281.251-.036 1.695.14.758-.265.852.048.297.203.552.028 3.068-.198.537-.092.34.059.797-.18 1.221-.32.984-.423.622-.676.472-.38.37-.534.94-.583 1.247-.513.802-.618.602-.79.573-.262.297-.168.348-.092.513-.626 1.28-.201.599-.06.796-.2.931-1.044 2.238-1.109 1.422-1.094 1.125-1.612 1.17-2.674 1.562-3.75 2.896-.579.501-.706 1.345-.39.596-4.343 3.459-2.86 2.537-.136.19-.591.262-.339.365-.531.756-.343.97-.65 3.394-.043.762-.435.991-.095.518.513.576.522.527.639.72.047.058 1.067 1.243 4.199 4.845.347.176.647.542 1.14 1.495.5.855 1.982 2.296.613 1.046 1.031 2.052 1 2.175.255.695.063.627.134.312.527.835.259 1.103.562 1.302.174.274.89.865 1.722 2.312 1.136 1.705 1.197 1.406 1.086.892.395.15.586.01.596-.094.953.193 1.66-.295.856.094 1.097-.074 1.581.086 1.98.686 1.995 1.112.723.52.902.343 1.116.555 1.94.709.736.068 1.043.237 1.1.4 1.679 1.187.74.342 1.604 1.29.882 1.74.452 1.073 1.192 2.091.152.267.107.722.107.317.179.23.59.506.553 1.008.144.65.356.326.16.561.191 2.294.157 2.527.002.023.764 9.945.067.686.02.289.266 4.078.623 9.053.008.233.364 4.573-.008.218.49 7.022.02.235.083 1.304.767 10.786v.003l.14 2.455.638 8.66.07.667.173 2.764 1.033 14.073.001.017.059 1.298.055.9.029.303.19 2.379.195 2.398-.008.215.53 7.022.14 2.544.808 11.978.002.025.01.081.988 14.467-.007.07-.002.019.168 2.784.143 1.66.121 1.683.377 5.65.013.363.17 1.746.207 3.152.587 8.672.063 1.006.265 3.936.054.885.108 1.594.055.52.007.264.139 2.1.017.352.162 2.113v.217l.173 2.244.008.276.112 1.896.021.501.156 1.794.034.503.154 2.293-.022.117.662 9.662.002.02 1.805 26.56.007.323.118 1.849.024.28.213 2.49.016.337.12 2.041.018.311.156 2.113.01.373.14 1.826.023.106.17 2.64.012.285.848 11.833-.014.012.014.262.331 4.606.001.017.543 7.457.138 2.303 1.187 17.121.168 2.462.77 10.952.032.404.225 3.26.018.193 1.034 14.598-16.869 1.14-.943.073v.003l.02.749.106.151.47.266.36-.202.15.001.548.505.164.194.593 1.4-.621.573.231 1.189.083.254-.353.825-1.394 1.415-.275 1.064.045.21 1.2 2.545.176.155.632.209.72-.138.835.02.643.492.086.176-.1.646-.29.787.646.297.758.7.7.967.591.413 2.053 1.395.724-.143.118-.144-.013-.192.117-.04.47.209.19.25.41 1.519.146 1.633.012.226-.077.456-.48.65-.106.042.083.986.193 1.755.179.58.129.023.034.156-.836 1.504-.344.4.314 1.315.666 1.995.447.663-.026.42-.423 1.72-1.256.847-1.45.556-.288-.31-1.018.07-.094.006-.6-.083-.21-.184-.133-.243-.246-.15-.824.22-.074.19.094.207.123.118.062.219.064.454.293 2.066-.362.703-.24.052-.03-.328-.077-.053-.313.456.197.91.298.181.744-.155 1.077.885.57.372.511.128.388.005.235-.17.226.13.093.227.145 1.12-.07.655-.741.412-.737.205-.67.942.416 1.23 1.078 1.171.179.004.199-.125.108-.237.162-.12.83-.08.415.139.596-.002.512-.365 1.135.528.625.485.17.45.214.079.829-.205 1.415-.473.496-.524 1.372-.186 1.08.293.15.153.125.62.431 1.297.216.377.006.36-.294 1.097.099 1.515.226.69.456.159.205-.01.264.241.042.156-.083 3.058.042.755.215 1.57.21.455.679.632.14.017.4-.164.662.28.955 1.362.148.836.181.694.123.256.16.187.387.163-.256 1.195-.974 1.677-.415.706-1.001 1.01-.247.617.048.303.92.188.115.214.085.44-.002.14-.027 1.417-.281 1.295-.286.619-.265.197-.619.234-.218-.023-.415-.22-.448.23-1.133 1.25-.16.263-.054.436-.18.13-1.383.462-.433.014-.47-.182-.164.023-.92 1.399.16.299.203.132.227-.089.28-.038.335.424.007.104-.149.823-.239.347-.003.26.19.435.113.179 1.02.762.505.066.646.748.397.796-.072.791-.166.568-.257.53-.13.122-.596.225-.564.132-.312.259-.316.651.116.436.03.488-.504.797-.49.216.098.46.591.769.667.23.563-.054.144.076.267.433.453 1.466-.508.841-.327 1.065-.134.585-.15.14-.504.158-.588.706-.637.767-1.802 2-.051.33.03.321.196.33.39 1.327.082.321.135.525.124.8.919.44.337.691.048.32-.157.227-.827.045-.699.215-.025.138.275.452.162 1.29-.708.706-.307.047-.107.135-.25.602-.024 1.115.01.097.551.967.348.996-.132.235-.637.437-.362.05-.1.238.091.419.272.285-.768.458-.246.036-.247.54-1.068-.072-1.058-.088-.221.113-.052.661.625.8-.003.183-.715 1.525-.14.17-.634.498-.496-.048-.119.145.096.78.443.056.165.148.028.123-.134 1.225-.254 1.404-.848.947-.104.696-.089.123-1.394-.24-.477.196-.242.831-.499 1.012-.456.479-.228.019-.1.44.197 1.148.478.646-.136 1.229-.174.82-.392.817-.431.699.159.356.946 1.614.69-.194.207.063.16 1.9-.298.762-.305.207-.071.512.133.124 1.315.75 1.233.875 1.788.912.604.033.759.12 1.34.661.975 1.03.178.039.844 1.093 1.804 1.191.392-.007.174.097.623.863.073.553-.061.699.092.274.557.458.894.34 1.43 1.736.156.466-.04.455.951 2.028.694 1.272.688 1.812.009.234-.124.371.065.228.153.11.397.124.275.308.033.29-.096.23-.04.319.093.232.536.381.612.122.114.173v.252l-.1.234-.293.259-1.068 1.74-.024.039.587.657 2.23-.042.114 1.64.035 1.85-.192 1.038.139.537-.087.382-1.32.753-.235.537.419.798.84.3.518-.172.26.247.588.993 2.263 1.731 1.382.218-1.726.907-.713.547-1.205.614-.4.097-1.349.012-1.515-.345-.573-.297-.385-.31-1.006-1.226-.24-.433-.196-.66-.288-.65-.624-.892-.488-.485-.382-.298-.84-.448-1.376-.318-1.124.105-1.24.513-.553.403-1.393 1.446-.821.47-.602.176-.936.09-.688-.082-.336-.126-1.9-1.152-.318-.557-.5-1.223-.227-.783-.092-.506-.091-1.4-.337-1.246-.388-.712-.76-.913-.607-.518-1.392-.855-2.213-.737-.71-.445-.587-.552-1.588-2.024-1.24-1.456-.41-.714-.26-.73-.143-1.122v-.447l.177-.79.237-.592 1.168-2.173.482-.79.416-.376.14-.336.059-.65-.039-.392-.085-.17-.484-.493-.829-.448-3.882-1.066-.932.013-1.425.253-.298.103-.218.249-1.576.507-1.775-.058-1.914-.394-.713-.333-.296-.24-.176-.411.117-2.073-.125-1.377-.214-1.063-.629-.876-.889-.327-.802-.184-1.268-.033-1.769-.499-.848-.46-1.37-.896-1.576-.464-1.766-.082-2.58-1.302-1.683.508-.445.216-.72.706-.783.562-.522.35-.95.416-.866.102-.72-.07-.252-.12-.174-.299-.134-.346-.046-.434.469-1.644.027-.43-.062-.259-1.095-2.26-.847-.638-.49-.272-.388-.056-1.313.262-2.89-.187-1.134-.074-.679-.178-.4-.35-2.406-.586-1.692-.241-.782.026-.926.207-.748.274-1.323.2-.644-.024-1.288.128-2.482-.29-.415-.412-.373-.735-.01-.345-.173-.41-.86-1.09-.822-.882-1.235-.639-.451-.234-.397-.118-.644-.106-.801-.007-1.15-.208-1.605-.02-.545-.143-.7-.436-.203-.225-.2-.384-.177-1.206-.165-.473-.39-.794-.072-.301-.026-2.376-.198-.385-1.683-.84-.756-.265-1.351-.308-.4.015-.606.292-1.38.303-2.754-.346-1.614-1.641-.59-.299-.269.065-.264.268-.844.484-.784.255-.229.133-.253.318-.268.2-.658.31-.617.189-2.278.304-.279-.038-.883-.514-.874-.732-.19-.365-2.14.275-.669-.065-.665-.46-.487-.075-.627.2-.44.268-.72.846-.21.512-.043.269-.752.91-.853.799-.386.17-1.23.094-.532-.124-.31-.22-.367-.126-1.114-.16-1.791.106-.829-.171-.603-.243-.373-.316-.174-.335-.571-.185-1.341.872-1.95.719-1.926.45-1.795.17-1.59-.278-2.196-.604-.934-.362-.578-.329-1.002.043-1.039.351-1.842.966-1.376.72-1.361.573-1.288.333-2.263.209-1.82-.146-2.447-.505-3.738-.176-.427.101-1.362.048-1.216-.06-1.772-.531-1.64-.714-1.986-.553-1.13-.928-.345-.2-.707.032-1.373.242-1.56.518-.946.422-1.17.755-.175.745.027.293.172.393-.006.44-.359.705-.05 1.411-.554 1.584-.394 1.546-.194.373-.491.605-1.229 2.234-.467.695-.832.889-.673.293-1.364 1.786-.45.437-1.632 1.114-.414.116-1.065.102-1.948-.125-1.828.896-.965.356-.273.01-.407-.137-.899.355-.522.002-2.235-.213-.27-.248-.623-.246-.339-.107-.87-.091-.639-.317-.414-.322-.213-.874-.228-.53-.584-.596-1.985-1.552-.638-.22-.867-.566-1.324-1.507-.387-.352-2.532-1.517-.2-.18-1.183-1.91-1.17-1.162-.142-.027-.62.185-1.256.375-.53.058-.448-.015-2.353-.678-1.87-.817-1.949-1.001-.563-.381-.298-.367-.696-.552-1.902-1.165-.394-.571-.254-.158-.814-.236-1.255.086-1.454-.09-2.205-.782-1.547-.37-1.225-.293-.802-.305-.484-.313-.356-.338-.14-.17-.317-.69-.28-.349-.568-.505-.486-.306-1.499-.758-2.186-.88-1.41-.848-1.622-.635-1.08-.521-1.64-.995-.691-.006-.575.12-.43.402-.342.153-.304.044-.553-.16-.221-.227-.173-.759-.165-.217-.497-.317-.81-.82-.399-.167-.723-.508-1.526-2.666-1.516-2.4-.708-1.69-.406-1.776-8.256.288-.48-.009-11.766.369-.236-.01-9.531.304-2.73.078-4.583.137-2.817.063-9.43.271-.4-.021-1.983.06h-.012l-5.32.12-4.755.112-2.675.045-.048.022-7.166.137-.232.016-6.715.138-.384-.027-1.502.058-1.272.004-4.198.143-4.876.062-2.463.07h-.02l-1.025.002-3.146.07-7.357.113-2.65.056-.31.013-.39.014-2.646.02-9.411.174-.395-.014-2.02.018-.434.01-4.938.079-.165.002-4.21.06-16.14.198-.275-.017-2.202.038-.946.01-2.03.015-3.154-.009-2.45.04-1.497.019-.375-.013-.751-.013-1.552.043-3.499-.005-1.23.044-1.235-.014-.97.006-5.056.038-1.148-.003-2.828-.015h-.063l-1.278-.001-5.41.015-2.863.005-.817.003-10.546-.015-.885-.002h-.059l-8.882.04h-.003l-9.857-.025-.735-.017-8.177-.009-.728-.005-14.573-.14-7.65.006-1.203.031-1.132.006-8.978-.038-.785.078-29.28-.314-2.537.034-2.337-.034-6.415-.065-.723-.025-4.502-.003-5.304-.151-22.77-.375h-.044l-.155.001h-.137l-.139-.01-33.542-.577-15.525-.237-10.942-.359-16.921-.95-28.86-.939h-.007l-44.424-1.726-5.805-.233-37.804-1.77-25.888-1.37-16.22-.911-.15-.008-25.767-1.461-7.902-.439-12.457-.754-.015-.001-.115-.008-.05-.003-8.645-.54-.08.006-5.126-.31-4.277-.396-7.706-.424-12.24-.874-.204.003-13.546-.858-5.111-.488-3.072-.212-7.696-.356 3.391-48.905.086-1.223.047-1.24.236-3.638.756-10.976.437-6.405.584-8.245.302-4.257.003-.043.633-9.315.272-3.496.044-.698.002-.057 1.924-27.475.038-.558 1.188-17.324 1.04-13.945.033-.26 2.46-34.043.476-6.584.717-11.664 3.104-44.778.307-4.277.328-4.62 1.427-20.078.015-.424.096-1.097.26-3.829-.004-.05.517-7.375.003-.046 1.1-16.464.161-1.32z"/></svg>