<svg height="1000" width="1000"><path class="americon" d="M892.526 512.96l.296-.327.488.191.558 1.072.684.507.953.155.246.676-.586.75-.402 2.782-.563.213-1.276-1.024-.468-3.124zm1.342 81.775l.834-1.727-.953-1.113.343-4.089.395-2.019 1.712-2.887 1.078-2.432.548-5.13-.43-1.563.037-2.592.5-1.547 1.588-3.288-.349-1.084-.026-.908.358-2.612.852-3.117.989-1.846.189-2.139.026-.295-.479-.923-.041-.761 1.574-5.22 1.532-3.249 3.353-5.533.9-1.117-.16-.858.034-1.872.9-2.235 1.487-.766.842-.749.678-1.8-.12-.868.345-.907.319-.536 1.35-1.176.917-1.877-1.115-1.934-.779-2.09 2.653-1.944.96-.38 1.571.23 3.04-.453.727-1.436 1.379-.577.686-.964.149-1.57.52-1.428.673-.313 1.358-1.788.415-1.647-.354-1.812-2.554-1.873-1.214-.118-.432.269-.221.419-2.916.255-.645-.108-.128-.235.203-.656 4.812-4.792.912.946 1.139-.253 2.526-3.017.531.17 1.064.497.882-.273-.223-2.77.364-.442.273-.887.372-.504.445-.746.127-.313.175-.168.356-.119.21-.192.106-.627 20.702-3.455.785-.128 3.293-.537L975 483.122l-5.443 9.94-2.17 5.284-1.901 3.992-1.362 2.924-1.266 1.721-.888 1.042-.774.675-.607-.065-.365-.507-.321-1.109-.718-.702-3.1.097-1.51.196-1.469.908-1.593 1.81-2.21 2.791-3.218 5.232-3.055 7.027-1.135 1.71-.54 1.792-.658 3.503-.756.933-.689 4.268-1.044 5.023-1.044 2.705.317 3.281.122 1.218 1.407.4-.132.965-1.401 2.263-2.707 5.035-3.138 4.9-1.463.8.372 2.154.839-.113 1.346-.181.777 1.745-.75 1.825-1.214 1.566-2.102 3.414-2.311 4.68-.642 1.844.206.262-.055 1.177-.913 2.13-3.094 4.392-1.443 1.27-.22.005-.462-.507-.815.098-.702.647.498 2.654.24 4.276-.811 1.571.05 1.258-.665 1.618-1.096.594.558 1.42-.135 1.255-1.452 1.472-.347 1.483-2.333 2.216-2.234 3.362-.911 1.398-1.174 1.202-1.037.598-1.007.339.406-1.54-1.89-.952-1.627.81-.343.674-1.038.16.341 1.973 1.116.662.194 1.558-1.408.891-1.89-.124-.96-.916-.02-1.174.908-2.621-.025-1.453-1.112-3.983-2.539-4.325-.881-.817-.86-1.454-.176-1.96.279-1.76-.42-.518-1.472-3.048zm-6.732-96.415l.032-.002 1.252-.012.072-.02.858-.058.086-.003 2.996-.093-.983.822-1.514 1.882-1.512 2.913-.463-1.95-1.357-3.395zM25.118 673.243l.19-.212.867-.083.24-.122.732-.652.992-.614.209-.839.37-.182.622-.033.523.316.708-.111.457-.119.613-.347.44-.448.246-.35.788-.376.27-.077.146.027.139.126.264-.007 1.893-.454.823.012.9-.48.497-.344.387-.381.996-.274.781-.034.65-.246 1.052-.668.028-.197.145-.23.275-.15.282.053 1.28-.122.506-.172.541.102.63-.005.183-.142.22-.025.46.095.541.387.699.272 1.815.361.624.026h.023l.329-.1.363.172.756-.01.849-.159.48.14.55.001.919-.053.49-.117.902-.255 1.887-.703.111-.105-.063-.205.04-.068.744-.724.383-.198 2.182-.694.42-.237.217-.011.203.187.113.01.33-.131.222-.191.119-.069.327-.072.136-.131.817-.348 3.156-.733.317-.103.195-.156.5-.117 2.22-.167.104-.02.15-.159 1.19-.305.338.055.37-.07.676-.304.929-.042 1.083-.414.906-.185.236.046 1.91-.478 2.374-.7.6-.238 2.147.151.938.13.678-.049.57-.284 1.199.149 1.115-.1.276-.478.41-.425.37-.12.01-.789-.046-.216.272-.426.115-.03.01-.019-.742-.482.035-.17.134-.203.297-.374.106-.804-.3-.863.372-.527.632-.133.507-.37.575-.891.488-.576.333-.23.608-.596.603-1.036.048-1.236-.082-.276-.196-.271-.03-.216.044-.125.358-.358.889-.303.277-.206.25-.295.853-.277.513-.005.201-.554-.143-.822.382-.54.363.169.334.267.247.047.418-.268.887.323.553.07.387-.143.253-.18 1.744-.027.111.037.132.522.266.262 1.025.46.381.027.362-.057.301-.533.664-.64 1.12-.275h1.08l.655.133.151.2.19.026 1.103-.61 1.088-.435 1.61-.042 1.785-.817 1.202.041h.015l.154.04.294-.072.066-.129-.066-.23.018-.215.198-.127 1.256-.252.635-.259.298-.349.356-.2.588-.044.11-.064.102-.314-.043-.198-.023-.11.272-.302.375-.119.401-.608-.265-.252-.51-.688.166-.31.297-.275.197-.15.613-.598.248-.403.21-.182.191-.26.226-.127.184-.349.093-.241-.024-.455-.033-.052-.154-.633-.11-.275.1-.78.084-.135.108-.452.471-.45.058-.185-.307-.054-.216-.297-.246-.267-.15-.041-.134-.024-.17-.737-.3-.35v-.071l.206-1.15.105-.32.114-.138.101-.07.078-.025.133-.095.234-.12.25.26.297.02.14-.107.071-.438.333-.398.124.04.133.075.212.16.504-.011.454-.401.138-.027.169.025.305-.236.276-.426.358-.184.23-.566-.13-.493.096-.364.177-.294.386-.054.265.325.103-.029.253-.242.193.02.265-.128.226.283 1.5-.268.36-.218.136.174.038.258.09.12.152.07.3-.16.054-.068.162-.093.024-.021.763.041.467-.575.142-.382.633-.018.584-.701.097-.302.858-.54.572.145.238.153.114.224.32-.135.318-.636.325-1.62.154-.213 1.014-.15.202.167.6.233.184-.08.276-.315-.067-.362.064-.68.152-.772-.141-.663-.23-.63-.02-.875.394-.329.23.064.38-.047.196-.202-.03-.332-.099-.168-.26-.182-.246-.465-.148-.992.078-.149.258-.17.131-.98.006-.626-.43-.904.013-.444.036-.125.504-.574.445-.267.223.04.987-.414 1.433-.758 1.288-.525.58.076.294.107.623-.452.463-.466.611-.23.572-.126.359-.767.174-.09.189-.071 2.066-.196 1.052-1.16.888-.677 1.075-.626 1.258-.49.558-.431-.037-.24.095-.105.672-.349.896-.348 1.603-.972.005-.003.837-.44.518-.424.405-.203 2.161-.942.357-.21.493-.14 1.881-.931.054-.045 1.055-.544.292-.054 1.038-.36.105-.083 1.52-.52 1.17-.312.682.045.602-.567.331-.17 1.533-.269.532-.006 1.495-.551 3.717-.943.272-.057.75.083 1.395-.553 1.04-.049.51-.231 1.059-.931.084-.955.541.196.625-.312.79-.089.673-.574.205-.476.058-.373.13-.169.156-.136.631-.55 2.066-1.514 4.439-3.428 6.101-4.773.115-.145 9.048-6.851 7.3-5.754 1.411-1.28 9.687-7.554-.137.483.178.223.937-.288.222.016.04.135-.062.145-.055.473.108.197.344.08.867-.474.219.122-.002.094-.42.369-.032.344.056.168.358.402 1.168.381.712.712-.047.162-.121.111-.013.013-.494-.005-1.012.295-.218.111-.14.223-.001.573-.237.132-.357-.087-.298.03-.153.095-.116.205-.061.525.016.112.151.17-.008.266-.07.068-.443.012-.854-.327-.67.47-.81.704-.176-.01-.123-.126-.6-.066-.47.087-.358.25-.459.86.05.975.308 1.279.542.884.232.092.569-.377.43.027.781.848-.07.162.394.504.782-.117 1.024.39.36.794.324.059.193-.069.261.018.345.311.019.285-.316.588-.328.414.333 1.311.466.691.978.597-.144.525-.147.096-.177-.005-.315.202-.111.509.253.523-.088.591-.577.624-.418 1.178.081.312.218.12.097.51-.138.202.369.872.03.022.346.298-.233.55.201.251.094.236.45.15.088.148.033.287.373.595.53.03.049.073.068.02.296.715.06.098.104.056h.047l.244-.025.084.105.383.196-.002.117.325 1.194.058-.005.077.006-.001.09.102.185.1.002.587-.113.083.065.21.02.474-.042.152-.124.097.05.02.415.547.563.048.251.259.389.31-.008.766.767.025.249-.439.222-.208.288-.034.088.048.094.048.064.285.406.264.139.419-.258.175.034.048.823-.04.049-.059.065.071.736-.09.479.03.518.386.371.349.1.416-.11.096.01.405-.09.48.156.108.131-.121.199-.02.186 1.041.37.61.05.333-.046.4-.153.313-.25.155.004.22-.013.227-.334.239-.03 1.08.21.044.186-.069.188.02.074.485-.363.68.295.404.39-.018.365.217.227.282.16.006.006.766.123.303-.11.154-.008.12-.018.118-.04.169.074.282.192-.027.292-.004.114.013.158.266.339.228.168.081.152.09.067.404.134.168.113.052.324-.017.453.252.438.15.056.071.107-.331.897-.003.247-.11.232.02.235.505.55.078.084.587.05.589-.21.233-.087.35.022.374.403.347.508.019.787 1.812 1.59.4.677.941.114.346.251-.056.048.045.774.199.296.304.18.037.142 13.278-.08.266-.197.114.069.045.062.088-.016.29-.132.526-.724.499-.888.09-.08 1.298-.313.648-.31.765-.12 1.382-.734.173-.167.157-.768.015-.736.196-.448.096-.338.127-.343.522-.746.123.023-.005.1-.08.085.033.272.244.332.379.221.98.096.387-.055.444-.546 1.643-.6.255-.363.023-.19-.07-.234.197-.124.531-.051.594-.338.095-.137 1.75-.22.54.264 1.284-.253.616-.98.25-.512-.012-.115.068-.172.678-1.46-.131-.317.34-.39.46-.164.163-.21-.049-.265-.142-.211.036-.4.516-.794.713-.462.162-.073.1.06.093.18.087.038.441.127.32-.071.326-.01.217-.214.17-.547.44-.469-.037-.268-.131-.164-.005-.179.148-.077.13-.289.092-.197.478-.228 4.485 5.63 10.294 9.572 2.337-1.055 3.085-1.99 1.28-.642.922-.316 1.885-.459 3.407-1.183 2.023-.505 1.226-.2 5.298-.62 1.737-.484 1.526-.214.896-.22.522-.217 1.862-.316.045.242-.37.631.083.366.128.107.697.21.828-.07 2.119-.446 1.12-.582.803-.337.463-.098.888-.318 2.15-1.172 2.369-1.881 1.298-1.321.422-.261 1.815-.839-3.606-5.367 2.44-3.858-.177-.338-.067-.401.018-.414.249-.658.426-.68h.001l.115.182.012.02.147.163.43.036.276.129.473.394.237-.014.297-.331.447.06.131.189 2.7 2.477.315.186.26.313-.1.389.096.466.626.352.177-.003.96.053.682.176.088.257-.017.303.114.235.597.711.011.064.682 1.624 1.157-.316 1.279-.688.359.004.852-.316.734-.281.914-.472.923-.315 1.172-.514 1.547-.957.814-.381 2.244-1.282.096.002.849-.448.356-.262.875-.344 1.028-.72-.063-.155.023-.115.343-.25.232-.12.678-.149.415.016.073-.374.612-.472 1.89-.891 1.013-.713.136-.258.506-.46 2.235-1.332.558-.436 1.07-.502.812-.136.565.041.718-.244.124-.097.452-.021.543.082.942-.207.198-.119.235-.307 1.963 3.439-.536 1.817.23 1.38 2.111 1.775 1.223-.417.867-.84.674-.231.952-.55 1.995-1.605 2.601-1.403.337-.273 1.976-1.083.477-.13.723-.36.29-.35.717-.461-.392-.7 2.61-.957 1.322-.19.559-.216.738-.475.66-.274.62-.258-.053-.135 1.142-.598 2.04-3.513-1.025-.448-2.015 1.236-2.313-1.313.33-.525.35-.136.353-.042.77-.361.239-.293-1.735-2.599 3.813-1.94 1.415-.911 1.373-.765.766-.295.527-.286 1.044-.908 1.08-.657 1.638-1.808.305-.433.284-.64-2.01-1.447-1.673-.703-.005.003-.974-.413v-.002l-.171-.065-.005.002-.261-.077-.025-.014-.313-.406.003-.007-.98-1.168-1.342-3.794-.008-.035-.395-1.111.234-.286.79-.34 1.39-1.577.35-.511.871-1 .705-.24.583-.731.1-.19.031-.36-.91-.544-.256-.686.66-2.485.112-.038.531.085.209-.17-.056-.592-.094-.236.51-.741.619-.145 1.065-.844.183-.374.331-.074.63.1.46.225.08.103.046-.053.097-.144-.01-.636-.299-.19-.165.014-.846-1.226-.168-.091.038-.328.252-.589.981-1.511.185.044.08-.043.595-.376.51-.463.082-.414.35-.74.37-.452.568-.585.94-.82.515-.073.269-.191-.44-1.005.068-.539.146-.289.571-.17.536-.838.012-.292.358-.692.777-1.109.952-.921.559-.7.178.138.127.212.458.27 1.135-.944.103-.166.072-.35.104-.13.671-.52.067-.013.263.19.322-.131.038-.402-.176-.206.021-.225.24-.371 1.144-1.157.445-.583.704.128 1.102-1.585.699-.826.61-.564.11-.362.897-.677.323-.105.77-.527.058-.061.6-.631.294-.082 1.382-1.44 1.364-1.235 1.244-1.007.07-.244-.033-.204.08-.166.374-.3.712-.259.355-.425.375-.717.089-.323-.049-.35.107-.288.556-.747.442-.123.151-.338-.1-.21.021-.15.615-1.174.21-.205.188-.024.165-.108.18-.345.18-.495-.17-.375-.01-.178.307-.601.346-.469.969-2.228-.014-.7.666-1.634.098-.151.494-.377.767-1.018.46-.434.356-.246.097-.157.042-.21.324-.307.384-.474.152-.324-.366-.294-.515-.084-.405-.154-.097-.123-.596-2.816.24-.382.996-.145.533-.589.044-.654.009-.07.364-.738.03-.031.236-.053.503-.54.451-1.78-.018-.08-.11-.05h-.205l-.103-.288.037-.313.213-.394.023-.349-.48-.284-.018-.06.465-.464.1-.088-.014-.266.219-.296.38.077.54-.142.856-.551.626-.947.07-.353.04-.137.048-.178.398-.373.182-.08.24.017.576-.432 1.738-1.783.753-.987.737-.303.445-.929.139-.149.246-.067.604.055.263-.081.107-.14.02-.288.124-.362.236-.296.619-.101.465.318.153.009.275-.174.257-.285-.089-.293.005-.199.173-.433.25-.308.62.18.562-.31.34-.624.242-.06.66-.162.134-.145.165-.642-.229-1.108-.601-1.282-.26-.26-.543-.012-.05-.648-.071-.273-.38-.438-.275-.473v-.235l.166-.379.518-.62.5-.445.166-.28.187-.602 1.181-1.017.739-.09.69-.539.364-.879.406-1.26-.089-.354.319-.433.75-.135.227.031 1.251.498.384-.013.667-.357.287-.478.303-.228.252-.053.121-.137.043-.084-.018-.322-.098-.661-.095-.124-.309-.077-.13-.165.214-.974.405-.935.411-.337.608-1.679.497-.478.442-.627-.013-.352.283-.51 1.895-2.172-.023-.2-.11-.16-.074-.343.038-.437.207-.41-.204-.532.283-.452.085-.13-.004-.896-.053-.259-.231-.708-.482-.752-.365-.119-.067-.575.07-.164.383-.372.153-.063.089-.377-.223-.065-.157-.44-.062-.372.351-.976.25-.31.107-.04.323.087.6-.71.156-.444.011-.52.137-.333.69.038.388.384.154-.441v-.013l.041-.145.134-.124.21-.123.241-.039.156-.193-.092-.45-.404-.79-.323-.369-.196-.087-.15-.17.47-.763.217-.57-.296-.719.056-.853.484-1.589.272.06.365-.26-.145-.534-.096-.155.251-.739.133-.054.232-.442.8-2.131 8.401 4.09.601.092 1.178.337 1.4.998.467.202.152.127.375.663.02.21.138.268 1.123 1.26 2.316 5.096 2.47 5.7 11.623 4.324 6.35 2.211 1.343-.41.256-.215.227-.235.43-.207.142-.157.23-.026.171.058.137.184.289.164.312-.371.056-.478-.063-.183-.033-.19-.205-.33-.019-.259-.01-.088.06-.06.849-.59.271-.143.512-.128.233-.482.216-.277.052-.115.201-.488.74-1.097.15.02.626.358.517-.119.089-.403-.011-1.02.221-.77.623-.44.307-.141.655-.336.163-.18.357-.393-.045-.595.26-.363.424-.252.51-.508.063-.184.002-.007.034-.18.205-.636v-.043l.104-.433-.435-.549.575-2.39.485-.459.501-1.242.389-.796.497-.696.54-.57.358-1.174.464-.78.195-.11.04-.03.391-.22.034-.155-.107-.336.09-.35.31-.627.506-.627.533-1.284.045-.223-.076-.085-.016-.937.53-.739-.13-.378.024-.28.456-1.312.472-.7.025-.025.453-1.2.33-.39.23-.11.062-.369.071-.243.091-.184.009-.048.21-.273.279-1.005.143-.251.823-.667.219-.054.95.074.565.493 1.465-.455.024-.461.19-.908.353-.628.39-1.773-.13-.323-.271-.182-.293-.337-.161-.937-.03-.131-.021-.303.685-1.912-.073-.573.199-.628.385-.711.254-.698.34-.627.296-.404.122-.35.024-.404.843-.96.426-.32.373-.488.033-.167.058-.713.122-.614.208-.195.24-.04.033-.182-.041-.573-.087-.168-.206-.196-.14-.336.078-.377.656-.696.262-.194 1.458.159.425.002.218-.153.46-.907-.04-.558-.109-.154.046-.768.494-1.214.306-.292.523-.054.436-.264.153-.195.043-.111-.02-.224.132-.53.307-.92.365-.497.017-.124-.15-.622.228-.27.455-.382 13.55 12.193.368-.565.242-.665 1.69-3.237 1.416-2.307.318-.403.545-1.009.663-1.308.658-1.482.454-1.12.3-.916 1.3-2.574.5-.417.166-.346.222-.705.218-.288.741-.714.696-.202 1.488-.949.196-.373.3-.353-.016-.258.448-1.18 1.257-1.572 1.378-.51.234.01.175-.077.43-.4.152-.246-.274 1.328-.05.37.03.17.007.07.033.262-.155 1.454.12.549.126.188.16.036.11-.074.383-.536.9-.918.753-.054.642-.92.345-.362.721-.15.127.073 1.058-1.186.441-.755.076-.332.411-.576.329-.235.432-.893.29-.964.621-1.043.886.181.642-1.106.001-.313.173-.364.14-.179.42-.24.565-.005.06.183-.006.55.143.454.472-.248.34-.04.308.89.73.714.028-.27.27-.42.311-.092.298-.242.49-.931.623-.956.1-.416.164-.304 1.077-1.536.944-1.044.249-.401.483-.455.28-.175.2-.237-.75-.46-.247-.427-.397-.259-.193.056-.083-.051-.66-.79 1.283-1.342.35-.413.267-.493.703-.842.222-.138.17-.225.417-.555.918-.825.556-.24.413-.398.636-.91.088-.346-.058-.244.471-.432.427-.525.403-.388.903-1.061.087-.28 1.171-.896.631-.348.12.06.212.268.234-.095.317-.27.078-.159.309-.232.733-.073 2.192-2.633.177-.458.114-.873 1.001-1.544 1.436-.802.144-.227.954-1.04-.357-.477-.542-.251-1.558-1.386-.261-.618.47-.691-.067-.16-.643-.402-.628-.056-.216-.192.17-.24.527-.693.103-.144.146-.178.203-.223.422-.482.65-.764 1.313-1.912.058-.95.08-.448.487-.374-.013-.035-1.014-1.166-.597-.437-.16.046-.266-.09-.092-.195.556-.9 1.219-1.617.103-.179-.05-.067.382-.572.57-.235.488-.78.169-.401-.007-.276.144-.204 1.19-1.435.334-.358.466-.345.268-.999.334-.103.165.036.116-.24 1.338-2.74.088-.267-.236-.234.024-.095.396-.463.126-.01.131.169.214-.426.034-.18-.168-.499-.885-.167-1.462-.41-.496-.206.451-.504.828-1.22 1.23-2.4-.735-.557.057-.61-.922-.958-.217-.67.057-.488.289-.47.573-.657.305-.536.172-.444-.135-.452-.574-.817.581-.532.13-.283.048-.417-.139-.283.037-.42.119-.393.066-.832-.468-.374.252-.53 6.386 5.12 2.723 1.98 3.685 3.172 2.534 2.217 1.954 1.523 3.169 2.829 1.873 1.32 3.497 2.918 8.221 6.548.038.03 22.348 18.03.015.013.627-1.077-.011-.383-.089-.377.007-.321.146-.651.314-.405.542-1.367.2-.357.232-.144.329-.542.091-.253.065-.533-.036-.191.698-1.88.021-.197-.096-.74.029-.152.373-.792.095-.534.512-.722.53-1.24.25-.398.338-.34.698-1.052.414-1.762-.357.005-.032-.05.009-.767.04-.1.137-.064.104-.174.16.041.394-.16.104-.641.057-.097.257-.616.031-.151.279-.754.053-.087.219-.303.003-.088-.038-.327.06-.425.25-.827.306-.8 1.287-2.447.514-.462.897-.41.179-.171.041-.226.395.086.875-.145 1.11.386.482.016.627-.216.572-.533.492-.067.137-.019.492.34.573.638 1.646.833 1.16.33.45.054 2.185.659 1.077-.157.76.235.663.068.483-.102 1.039-.478.906-.176.371.024.371.3.155.274-.079 1.033.232 1.156.854.94.232.466.574.592.177.257.12.376.29.27.667.346 1.3.426.164.08.15.171 1.221.613 1.279.191 1.066.457.236.198.43.611 1.057.971 1.206.828.232.304.052.154-.019.418-.1.237-.098.233-1.08.978-.366.486-.23.894.122.985-.239.624-.129.187-.784.506-2.059.551-.578.51-.602 1.071-.486 1.38-.355 1.764-.253.315.088 1.24.264 1.318.521.949.506.313 1.701.608.517.115 1.001.498.5.496.48.731.522 1.076.34.847.772 1.395.13.15.356.19.586.162 1.674.219 1.55.483.84.04 1.18.242.582-.054 1.472.353.6-.13.55.197.817.01.843-.15 1.016-.044 1.081-.147.521.156.165.105.038.206.593.223.446.168 1.022.573.455.016 1.059.32.866.396 2.037 1.677.95.278 1.166.234.758.411.003.002.265.27.17.664-.229.746-.518.488-.388 1.266.318.926.42.268.102.192-.138.897 1.662 1.293.263-.453.07-.06.175.004.179.198.39.694.384.274 1.091.235.235-.146.624.191.123.137.546.138.995-.126.569-.198 1.208.147.423.002.117-.101.174.009 1.55.259.318.106.174.106 1.001 1.212.661 1.083.497 1.019.874.765.21.263.155.484.363.506.795.827.34.856.247.244.836.7.387.226.878.295 1.318.127.21.12.1.08.458 1.466.606 1.174.332-.002.124.122.342.534-.013.28.25.341.301-.093.07-.24-.118-.261.13-.046.233.16.305.382.176.427.032.32-.037.211.886 1.9-.082 1.231-.96.24-.272.008-.029.087-.05.153.026.53.16.205.094-.087.153.01.224.202.135.498-.077 1.009.134.806.253.09-.276 1.978.028 1.28-.052.076-.06.17-.01.637-.027 1.684.043 3.716.008.727.113.5.015 1.873-.072.84-.33.598-.821.641-1.32.09-.718-.12-.107-.13-.72.303-.73.496-.586.397-.765.694-.402.054-.343.22-1.71 1.59-1.096 1.71-.272 3.365.46.77-.021.42.244.86-2.987-.108-1.851 1.76-2.933 1.064-.253-.077-.112-.85-1.278-1.91-.661-.02-1.997-.06-.651.536-.215.93.445 1.092-.092 4.215-1.876 1.14-.086.355.547 2.083-1.657 2.595.061 1.048-.54 1.499-.194.537-.796 1.352-1.027 1.252-.176.326-.823 1.528-1.248 3.787-.242 2.567.816 4.33.987 2.796-.138.945-.286.2-.245.849 2.38 1.869.91 1.423.009 1.148.252.59v.001l.75 1.043 1.6.837 2.78.144 4.43-1.427 2.205-.207 1.814-.624.804-.732 1.795-2.418 3.673-.353 1.113.239 1.08-.114 1.59-1.395 1.45-2.61.492-.42.862-.232 2.109 1.863 1.486 1.669-.416 4.621-.387 1.755-.993 2.507.521 1.238 3.26 3.355.835.55.976-.07 2.197 2.417.54 1.85.073.958-.518.894-.458.093-.075.333.613 1.821 2.829 1.55 2.24.295.684.353 4.04 3.357 4.066 1.087 1.6-.079 2.33-.692 1.596-.227 3.124.256 1.188.585.756.693.329.573.18.88 1.946 1.177 1.89-1.704.27-.917 1.806-.177 2.228 1.162 2.389-.177.475-.471 1.04-.261 1.74.56 1.19 2.739.454 2.609 2.451 2.043 4.115 2.354.842 1.013 1.651 3.723.356 1.08.377 1.144 2.77 1.203 2.528.414.467.447.372 1.625 4.007 2.864 1.3 1.382 2.802 1.02 3.499.753 1.843.622 8.853 4.675 3.387 2.975-.753 3.874-.515 4.088-1.535 2.278-.984.711-.595.036-.238-.202.043-.56-.35-.582-.961-.015-1.487 1.527-.206 2.476.463.854-.389 5.393.929 2.866-.825 1.387 1.218 2.184.362 1.27-.237.908-1.036.66-.344.005-.538.595-.49.541-1.552 3.034.88 1.395 2.935.409 1.591.763.537.587 1.035 1.867-.074.64-3.267-1.01-5.861 1.883-2.198-2.255-1.019-.425-1.014.282-5.052-3.135-3.329-1.757-1.919.018-.233.375-.548 2.36-.422.481-.959.242-3.061-2.876-.159-.749.163-2.629-.28-1.594-.345-.768-2.407-3.204-1.936-4.107-.942-1.57-1.084-.515-.228.173-.683-.121-1.526-1.073-3.058-1.512-1.037-.513-.823-1.46-2.534-2.56-1.38.459-.984.05-2.356-1.886-.588-.766-.701-1.347-.663-1.858-1.07-1.439-2.034-.407-.44-2.78-3.427-3.548-2.504-1.033-1.771-.084-1.138-2.005-.711-3.417-1.868-1.413-3.651-1.984-.677.004-1.312.01-.933 2.455 2.532 1.22 1.954 2.836 4.821 4.536 4.53 2.927 2.544 3.717.231.89 1.948 3.135 1.764 2.233 2.009 3.518 1.214 1.387.944.336 2.865-.01.688.51.225.452-.148.335.028.778.023.669.304.815.455.483 1.482.538 2.669.032 2.288.779.273.334-.428.634.2.937 1.539.85 1.072 1.024.165.597-.216.554.056.873 2.211 4.345-.344 1.357 1.1 2.103 3.67 4.078 1.016.57.743.142 10.231-.63 1.784 1.919 1.158 2.334 3.135 1.103 2.83-.212 2.837.393 3.683 1.012.27.567-.497.918-3.02 2.238-1.062-.227-.996.295-.626 1.324-.553 1.172.158.815.802 1.168 2.658 1.297 2.505-.473.972-1.368.118-.623-.234-.193.073-.392.446-.171.623.308.837.853 1.956 3.652 1.632 4.747.381 3.573.544 2.488.26 2.434-.282 1.668-1.019 1.902-.455.195-.253.49-.762 3.18.181 1.83-.321 1.746-.845-1.257-1.017-.668-1.97-.652-.445-1.215-3.015-3.537-3.35-1.337-2.35-1.395-.516-.716-.317-.787.08-.305-1.317-.247-1.18-.222-.372.629.137 1.796-.463.544-1.677.298-.798 1.913 1.235 1.638 3.338 2.916 2.244 3.48.325 1.905.563 1.218 1.391.794 1.859.058.371.603-1.417.59-3.399.89-2.737.261-.465 1.26-.818.301-5.25.61-.803-.574-1.146.806-.581 1.222-.493 1.034 1.134 1.15 2.555 1.226 8.693-1.659.502.286-.375 1.282-.198 1.845.808 1.04-.14 1.935-.653 2.221-.176.595.57.36 1.52.197.659-.755 1.707-1.17 1.231-.348.64.602-.178.253.121.578.495 1.19.736 1.045.415.336.684-.196 1.524.557 2.189 1.587.634 1.271 1.587 3.179.425 1.4-2.129 7.103-.682 3.763-.396 1.078-.874.182-.343-.171-.004-1.086-.368-.548-.05-.074-2.565-.087-.785 1.241-.916.58-1.918.735-1.079.756-.469.542-.936 1.08-1.301 1.93-.325.908-.823-.136-1.156-.789-2.8-3.888-.076-.911.289-.05.171-.41-1.954-2.735-5.566-3.647-.675-.042-.952-1.04-.222-.742.148-.262-.002-1.096-1.241-.825-.607.37-1.403.857-1.043-.192-.436-.403-1.397-2.236-4.502-3.046-.78-1.068.204-2.142.57-.356 1.337-2.254-.286-.93-.485-.026-.006-.015-.657-1.656-.418-1.852-.482-.915-.784-1.104-1.314-1.262-1.016-.657-4.437-.108-1.082.58-3.578.875-.33 1.372-.594 1.273-.329.404-.824.387-.83-.191-1.876-1.973-.78-.436-1.576-3.048-3.288-1.639-4.07.461-1.656-2.968-.34.262-3.55 2.723-3.194.642-.772.673-.57.497 2.328 1.907 2.304 1.934 1.99.38 2.797-1.443 3.34.315 3.835.952.677 1.238 4.652 3.775 1.103 1.524 1.19.578.79.08 1.681-.436 1.955-3.81.367-1.678.063-1.36.694-.468 1.854 2.095.741 1.346-.04.405-.474.621-.272 1.15.075 2.36.59.528 1.242 3.97-.067 1.855-.967 2.952-.182 1.705.216 1.297.705 1.294 1.003.895.92.382 3.835-.059 2.938.86 1.048.837.11.162 1.648 2.43 1.349.634 3.073 2.022.23.381-.117.398.384.713.895.692 1.49.343 1.524 1.761.528 3.31.022.138.238 1.492.125 2.304-.111.696 1.604 1.83 1.72-.24.142-.425-.107-.806.678-1.518.642-.438 1.187.175 2.653.866.079.026 2.248-.395.05-3.37 3.641-.085.661 3.89 2.186.76 1.435.499.31-1.553.027-.92-1.356-.116-.326-1.592-.429-3.336.256-2.965.523.02.805.503 1.805-1.528.177-.377 1.423-.148 1.963.508 3.862 2.58 1.543.726 3.644.983 1.48.237 4.288.686 5.088 1.78.858-.017 3.32-1.34 1.638-1.586 1.058-.677 2.24.06.714.207 1.33.928.612 1.561 2.686 9.614.974 4.192 2.174 7.188 3.662 9.65 3.958 8.527 2.262 6.566 1.056 4.664-1.451.075-.103.006-.605.03-.069.004-.617.032-.148.022-.103-.009-1.062.07-.148.007-.492.025-.274.014-1.21.062-3.518.194-.069.003-.263.013-.217.011-7.894.394-.915.031-10.01.489-21.805 1.01h-.002l-17.38.689-2.995.155-5.703.291-.033.002-3.867.093-18.616.675-1.294.134-3.616.091-2.948.113-12.448.218-.119.197-.015.67.156.312-20.476.54-3.4.193-3.189.082-1.36-.281-.594-.124-2.342.232-1.707.275-10.49.267-51.805 1.073-1.991.052-12.374.312-.81.016-1.992.043-15.922.308-.055-.002-.776.014-9.92.179-.048-.005-12.833.062-.139.012-8.837.159-12.863.262h-.557l-1.804.043-1.582.032-.026.002-4.456.202-2.26.024-.378-.001-8.273.024-6.64-.11-.77-.001-7.332.034-2.777.01-.806.02-3.533.004-13.531-.046h-.1l-3.044-.026-.028.005-3.24-.019-.142.004-17.501.008-.154.004-1.357-.037-8.096-.026-.091-.004-1.048.007-3.56.024-10.636-.095-11.787-.126-.031.003-2.757-.006-4.646-.015h-.036l-17.834-.39h-.055l-5.438-.117-19.726-.461-.493.004-1.5.015-7.129-.146-.06-.005-6.837-.141-2.996-.07-7.862-.193-5.416-.204-.24-.01-6.15-.225-.325-.025-7.662-.21-15.572-1.315-.116-.015-.854-.07-19.63-1.624-1.454-.123-3.261-.22-5.871-.634-2.917-.103-4.961.122-3.456-.192-3.8.102-.063.003-.036-.003-7.276-.637h-.012l-4.85-.367-.189-.027-6.604-.313-.865-.147-5.407-.574-.345-.02-2.436-.141-4.743-.462-1.94-.122-3.351-.352-.623-.154-8.343-.538-1.422-.16-5.157-.382-5.217-.188-.018-.001-2.456-.103-7.684-.658-3.882-.694-1.489.13-1.187-.17-2.416-.215-9.077-1.365-8.737-.592 3.666-3.207-10.268-.587-10.23-.796-10.922-.874-1.484 3.054-24.172-1.446-.285-.018-.246-.008-2.653-.147-.372-.045-.397-.046-.882-.088-2.504-.234-.058-.016-1.221-.067-.198.001-.26-.019-.106-.006-1.887-.112-5.81-.35-.325-.02-19.352-1.043-1.364-.246-.975-.096-7.654-.366-.625-.03-.148-.01-5.49-.265-8.063-.488-1.813-.124-15.345-1.078-6.564-.425-11.062-.843-4.797-.372-.126-.016-25.124-1.907-.109-.02-.046-.008-1.23-.09-1.682-.745-11.236-.78L48.093 676l-9.639-.815-7.481-.727-2.59-.497-2.782-.347-.001-.005-.6-.054z"/></svg>