<svg height="1000" width="1000"><path class="americon" d="M67.49 162.695l.892-11.613-.046-.408.845-11.349 1.243.075.097.006 31.838 1.658 2.848.692 1.304.422 5.53 1.297 18.769 1.061.65-.003 7.256.406 10.472.296 5.001-.925 2.513.396 2.173.091 4.608.632 10.715.637 11.045-.824 10.288.51.098.016 3.743.241 14.66.615 9.46.58.025.002 5.864.337 10.705.255 10.982.394 23.107.414 1.316.092 13.085.302.72.011 19.67.484 2.483 1.164 2.55.068 54.228 1.13 5.268.086 1.545.012 8.021.297 28.227.328 2.676.172h.01l1.38-.112 2.419-.029 8.499.007 18.294.145.408-.056 10.557.124 19.787.19 17.443.026.127-.012 14.241-.096 17.296-.028 26.726.077 1.052.117 2.455.095 2.555.35 1.223-.081 2.977.075 19.428-.121.505.005 76.891-.992h.016l29.366-.73 11.883-.331 1.68-1.153.102-.17 8.034-.147 94.816-3.575 4.693-.211.018-.001 1.596-.063.735-.04.127-.025 31.111-1.28.641-.011 4.109-.288 7.524-.232.156-.052 23.76-1.21.038-.003 27.009-1.52 23.629-1.315 1.565 21.247.015 1.386 1.154 17.167.003.048.49 7.694.012.051.265 3.993.052 1.146.044.441 1.32 20.946.304 4.82.278 4.462 3.033 46.697.885 12.15.428 6.868 2.21 35.51.001.273.875 14.55 1.195 18.06.037.581 1.856 28.645.006.06.052.727.208 3.648.651 9.709.003.045.284 4.438.55 8.596.447 6.675.757 11.44.266 3.79.125 1.287.083 1.275 3.357 50.97 2.82 43.46.059.814 1.163 17.675.162 2.848.055.542.193 3.392.002.031.009.138 1.217 19.641 2.8 42.893.093 1.467-.044.003.959 14.157.068.617.278 5.257.074.617.12 1.565.364 6.386.159 2.504.622 9.475.082.968.17 2.599.036.542.035.66-.005.066.21 3.32.05.524.632 10.34.11 1.573.224 3.686 1.782 27.118.401 6.328.597 9.423.077 1.255.171 2.722.14 1.65.23 3.83.365 4.998.135 2.064-.006.014.118 2.056.024.365.222 2.997.076 1.178 1.15 17.511.142 1.825.15 2.571v.017l.672 11.221.158 1.686-.018.034.042.853.456 6.808-.014.034.02.497 1.254 21.166.548 7.677.118 1.7.179 2.64-.015.1.845 12.872.006.222.167 2.769-1.86.102-2.592.156-2.512.165-2.577.149-11.919.753-.368.027-.069-.012-34.316 2.073-3.99.167-.013-.004-24.261 1.489-20.82 1.383-3.487.395-11.96.58-42.287 1.897-.238.014-2.76.12-.039.002-60.804 2.534-.763.03-44.947 1.357-17.585.354-3.673.07-14.086.083-8.869-.168-.747.01-5.316.009-.88.01-.291-.027-1.944.026-54.904.8-19.418.083-32.705.376-10.414.023-6.75.007-35.099.207-39.805-.147-17.417-.144-18.313.1-9.439-.055-33.985-.518-3.537.028-14.195-.369-34.39-.756-22.549-.693-16.795-.52-7.915-.459-2.554.11-33.97-.808-4.658.008-19.219-.776-5.088-.179-.209.005-18.868-.684-.136.003-16.326-.769-3.305-.044-.118-.009h-.001l-.781-.119-5.704-.214-9.937-.385-.557.073-15.235-.54-1.74-.205-16.98-.662-16.97-.871-5.29-.58-23.775-1.354-4.839-.375L25 846.079l2.968-45.525v-.016l1.256-19.525.242-3.049 2.232-33.6.16-2.551 4.731-75.235 1.558-25.079.074-1.15.391-5.992.134-2.151.985-15.281.782-12.186 1.807-27.583.104-1.447.882-12.327 1.906-24.744 1.65-26.93 1.033-15.809.057-.888.067-.985.466-7.703.012-.238.022-.453.045-.346.003-.046.018-.276.024-.505.15-2.142.028-.57.018-.293.093-1.503.058-.968.062-1.035.021-.361.05-.73 1.167-18.469-.002-.02.085-1.27.063-.845.063-1.117 1.3-21.159 2.006-32.612 1.705-27.744.223-3.848.013-.681.018-.16.016-.357.342-6.003.049-.787.016-.072.945-15.584 1.058-16.21.691-11.664.076-1.486.148-2.882.007-3.54.49-7.052.004-.076.038-.36.6-9.078.03-1.77 2.467-39.943.304-3.71.666-10.62.027-.39.427-6.277.895-26.326.442-7.195.63-10.28.16-4.282z"/></svg>