<?xml version="1.0" standalone="no"?>
<!DOCTYPE svg PUBLIC "-//W3C//DTD SVG 20010904//EN"
 "http://www.w3.org/TR/2001/REC-SVG-20010904/DTD/svg10.dtd">
<svg version="1.0" xmlns="http://www.w3.org/2000/svg"
 width="879.000000pt" height="879.000000pt" viewBox="0 0 879.000000 879.000000"
 preserveAspectRatio="xMidYMid meet">
<metadata>
Created by potrace 1.11, written by Peter Selinger 2001-2013
</metadata>
<g transform="translate(0.000000,879.000000) scale(0.100000,-0.100000)"
fill="#000000" stroke="none">
<path d="M757 7154 c-7 -8 13 -54 24 -54 9 0 -9 -49 -24 -65 -7 -6 -7 -5 -2 5
4 8 -2 4 -15 -8 -18 -19 -20 -26 -10 -35 9 -9 11 -9 7 -1 -4 7 0 15 9 18 25 9
27 7 13 -11 -11 -13 -11 -17 -1 -20 17 -6 15 -48 -3 -67 -8 -8 -18 -35 -21
-60 -5 -30 -12 -46 -21 -46 -8 0 -21 -7 -30 -15 -17 -18 -33 -11 -33 13 0 13
2 14 9 3 6 -9 11 -10 15 -2 4 6 16 11 28 11 13 0 18 5 15 14 -3 8 -1 31 6 51
8 28 8 38 -2 44 -7 5 -12 11 -12 15 4 26 -4 35 -41 51 -83 34 -113 50 -150 79
-20 15 -42 26 -49 24 -14 -5 -22 -33 -19 -68 2 -14 3 -65 4 -115 1 -66 5 -92
15 -99 12 -7 11 -11 -5 -23 -14 -11 -16 -17 -8 -31 12 -19 1 -62 -16 -62 -5 0
-10 -9 -10 -20 0 -15 9 -22 30 -26 16 -4 28 -10 25 -14 -2 -4 -15 -5 -28 -3
-27 5 -33 -6 -62 -112 -9 -33 -30 -86 -45 -117 -16 -32 -27 -58 -24 -58 2 0
-2 -13 -11 -30 -8 -16 -16 -33 -17 -37 -4 -32 -75 -176 -97 -200 -12 -12 -21
-26 -21 -31 0 -5 -9 -21 -20 -35 -13 -17 -19 -37 -17 -54 2 -15 -2 -41 -8 -58
-8 -18 -11 -65 -9 -120 2 -74 -1 -97 -17 -128 -10 -21 -19 -43 -19 -51 0 -7
-16 -31 -36 -54 -43 -51 -55 -88 -38 -122 38 -78 48 -127 30 -149 -6 -7 -13
-41 -17 -75 -5 -48 -2 -69 13 -98 10 -21 16 -38 13 -38 -4 0 3 -13 15 -30 24
-34 27 -52 16 -95 -4 -16 -5 -27 -1 -23 4 4 18 -6 32 -23 19 -23 28 -27 39
-19 7 7 10 18 7 26 -3 8 1 14 11 14 17 0 22 -15 7 -25 -10 -6 -9 -32 4 -78 4
-15 5 -30 2 -33 -6 -6 -39 53 -35 60 2 2 0 7 -4 11 -8 9 -18 -40 -20 -96 -1
-50 14 -81 46 -95 15 -7 20 -17 19 -39 -1 -16 -9 -34 -16 -40 -23 -17 -26 -52
-7 -82 9 -15 25 -53 35 -83 10 -30 29 -72 42 -93 14 -22 22 -45 19 -52 -2 -7
4 -23 15 -36 12 -14 16 -26 9 -33 -5 -7 -9 -21 -8 -31 0 -11 -2 -31 -6 -45 -5
-20 -2 -31 14 -45 12 -11 24 -19 26 -17 8 7 64 -10 64 -19 0 -5 7 -9 15 -9 30
0 63 -23 78 -55 18 -37 50 -62 85 -68 31 -5 45 -21 46 -54 2 -20 8 -29 23 -31
38 -6 120 -117 127 -173 2 -20 0 -42 -4 -49 -9 -14 13 -69 28 -71 4 0 16 -2
27 -4 11 -2 49 -7 85 -10 36 -4 76 -9 90 -11 14 -3 48 -7 75 -9 107 -10 149
-21 117 -32 -18 -7 -15 -30 6 -37 9 -3 44 -24 77 -46 33 -22 67 -43 75 -47 7
-4 81 -46 163 -95 81 -48 150 -88 152 -88 2 0 30 -15 62 -34 57 -34 103 -50
173 -60 19 -2 71 -10 115 -16 44 -6 96 -13 115 -16 19 -4 49 -8 65 -10 17 -1
49 -6 73 -9 23 -3 42 -2 43 2 1 4 2 20 3 34 4 36 14 61 24 55 8 -5 62 -13 147
-21 28 -3 66 -8 85 -12 19 -3 39 -5 44 -4 14 3 35 -20 52 -55 9 -19 21 -34 26
-34 12 0 41 -31 91 -97 18 -23 36 -43 41 -43 18 0 66 -54 66 -72 0 -10 7 -30
16 -43 8 -13 15 -34 14 -47 -5 -46 13 -87 54 -127 39 -38 148 -111 167 -111 5
0 9 -4 9 -10 0 -17 39 -5 63 20 12 14 21 28 20 32 -2 5 2 8 7 8 5 0 9 3 8 8
-6 21 34 71 62 77 16 4 32 10 35 15 6 9 45 1 45 -9 0 -7 54 -14 98 -14 12 1
22 -2 22 -7 0 -4 27 -33 60 -65 41 -41 66 -76 81 -114 12 -31 25 -60 29 -66 4
-5 13 -28 20 -49 7 -22 25 -50 41 -63 15 -13 31 -34 34 -46 4 -12 22 -35 40
-52 28 -25 34 -38 37 -81 2 -28 11 -63 21 -77 9 -14 22 -44 29 -66 11 -36 37
-59 59 -53 4 0 15 -8 24 -18 10 -11 25 -20 34 -20 9 0 27 -7 39 -16 12 -8 44
-17 70 -20 25 -2 58 -12 72 -22 27 -19 34 -20 69 -5 22 9 22 10 6 26 -9 9 -14
17 -11 17 3 0 -4 25 -15 57 -21 63 -25 108 -8 119 8 4 7 9 -2 16 -12 8 -12 10
0 15 11 4 8 10 -10 25 -16 14 -18 18 -6 14 9 -3 17 -1 17 5 0 6 4 7 10 4 6 -4
7 1 3 11 -4 11 -3 15 4 11 7 -5 9 1 6 15 -3 17 -2 19 5 10 7 -11 10 -11 15 3
4 9 3 14 -2 11 -5 -3 -16 5 -25 19 -16 24 -7 43 14 30 6 -4 18 -1 27 7 15 12
15 11 4 -10 -7 -13 -10 -26 -7 -29 14 -14 28 65 15 82 -5 7 2 12 17 13 21 2
23 -1 14 -17 -16 -30 -12 -32 13 -8 12 12 18 25 13 28 -15 11 2 39 24 39 11 0
20 -4 20 -10 0 -5 -5 -10 -12 -10 -6 0 -8 -3 -5 -6 4 -4 26 9 49 28 24 19 54
39 68 43 14 4 55 27 93 51 48 31 67 50 67 65 0 16 4 20 17 15 10 -4 14 -4 11
0 -4 3 -1 13 7 20 14 14 10 43 -8 55 -12 8 33 50 45 43 5 -4 7 -17 3 -31 -3
-15 -2 -22 4 -19 5 4 12 2 16 -4 4 -6 12 -6 23 0 111 60 210 73 315 39 74 -24
123 -19 121 13 -2 24 41 41 56 23 7 -8 16 -13 20 -10 4 3 15 -6 24 -20 9 -14
21 -25 27 -25 15 0 34 -22 34 -39 0 -8 22 -20 49 -29 49 -16 49 -16 71 10 27
31 70 29 62 -3 -6 -22 18 -15 53 16 14 13 32 21 40 19 48 -11 90 -31 90 -41 0
-18 25 -16 40 2 10 12 7 19 -16 40 -17 15 -36 24 -46 22 -11 -3 -24 3 -33 16
-20 29 -20 30 14 45 18 8 28 19 25 27 -3 7 1 17 8 21 9 6 6 10 -12 15 -16 3
-31 0 -42 -9 -17 -14 -48 -11 -48 5 1 8 90 77 100 78 3 0 10 3 16 7 12 8 63
13 79 8 6 -2 33 0 62 4 46 7 52 11 55 34 2 16 9 27 18 27 8 0 14 -6 12 -14 -2
-7 5 -22 14 -32 9 -10 13 -22 10 -27 -3 -5 38 4 92 20 134 41 206 38 291 -11
75 -42 79 -45 83 -61 2 -8 8 -18 13 -22 13 -10 51 -10 41 -1 -8 9 64 44 75 37
5 -3 6 2 3 10 -4 10 -1 16 8 16 8 0 24 11 36 25 40 46 94 25 187 -72 44 -45
79 -73 92 -73 23 0 41 -17 46 -46 2 -10 9 -30 14 -44 10 -24 9 -49 -4 -100
-10 -42 -8 -64 12 -93 15 -23 20 -26 27 -14 9 17 1 47 -14 47 -5 0 -6 5 -3 10
4 6 15 3 30 -7 26 -19 25 -44 -2 -75 -13 -15 -13 -20 4 -42 10 -14 21 -26 26
-26 4 0 7 -6 7 -12 1 -21 54 -85 68 -81 6 3 10 9 6 14 -3 5 0 9 6 9 6 0 10
-10 8 -22 -2 -16 9 -34 35 -59 20 -20 37 -45 37 -56 0 -22 29 -53 50 -53 8 0
28 -10 46 -22 30 -21 40 -36 49 -78 6 -26 35 -40 61 -30 13 5 24 7 24 3 0 -3
9 2 20 12 19 17 21 17 33 1 11 -15 14 -13 29 19 11 25 12 35 4 32 -17 -7 -18
34 -1 59 10 16 13 44 9 105 -7 126 -12 149 -46 209 -17 30 -39 69 -48 85 -9
17 -31 52 -47 79 -22 35 -30 59 -27 80 3 24 -5 40 -44 85 -110 130 -195 313
-194 421 1 45 18 139 27 148 3 3 0 11 -6 19 -9 9 -8 13 0 13 6 0 11 9 11 20 0
10 8 23 17 29 10 5 15 13 11 17 -4 3 1 18 12 32 11 13 17 28 14 33 -3 5 -2 9
3 8 22 -4 33 3 33 19 0 9 20 31 45 47 24 17 45 35 45 41 0 7 7 14 15 18 8 3
15 11 15 18 0 7 16 27 35 43 25 21 36 40 39 65 5 45 16 80 26 80 5 0 11 8 14
18 8 23 58 51 107 58 37 6 40 10 39 49 0 3 7 20 16 38 25 48 102 116 141 123
18 3 30 11 27 16 -4 6 2 8 15 3 12 -3 21 -3 20 2 -4 21 2 34 13 27 7 -5 8 -2
3 7 -22 37 -27 40 -46 23 -24 -21 -37 -11 -15 11 25 26 21 55 -9 55 -14 0 -25
3 -25 6 0 12 29 34 34 25 17 -27 96 -10 96 21 0 6 7 20 16 29 14 16 15 23 4
49 -16 38 -40 40 -41 3 l-1 -28 -9 27 c-9 24 -13 26 -35 18 -13 -5 -24 -7 -24
-4 0 2 -9 0 -21 -6 -21 -12 -49 1 -49 22 0 5 8 2 17 -7 16 -16 18 -16 34 4 9
11 24 21 33 21 9 0 16 6 16 14 0 8 9 12 24 11 19 -2 24 1 23 15 -1 10 -4 17
-8 15 -3 -3 -15 5 -25 17 -19 20 -19 21 3 14 l23 -7 -22 40 c-22 42 -67 68
-86 49 -7 -7 -17 -6 -32 2 -12 6 -19 14 -16 17 3 3 12 0 21 -7 12 -10 16 -9
21 5 4 10 1 21 -7 26 -8 4 -15 17 -15 28 -1 11 2 18 7 16 4 -3 10 -2 13 3 5 8
-28 42 -42 42 -4 1 -20 12 -37 26 -16 15 -23 23 -15 19 8 -5 22 -14 31 -22 14
-12 19 -12 33 3 9 9 15 21 13 28 -5 16 -78 56 -102 56 -11 0 -31 7 -43 16 -12
8 -26 13 -32 9 -5 -3 -14 3 -19 14 -8 15 -7 22 7 32 15 12 16 12 4 -2 -11 -14
-4 -19 60 -40 40 -13 76 -23 81 -21 4 1 7 -3 7 -9 0 -5 5 -7 10 -4 8 5 7 12
-2 22 -38 46 -60 103 -54 137 4 18 0 38 -9 52 -13 21 -12 25 15 54 16 17 29
34 29 38 0 3 4 8 10 10 16 5 14 -25 -2 -35 -22 -13 -26 -39 -11 -62 14 -19 13
-21 -3 -21 -17 -1 -17 -1 -1 -14 12 -9 14 -16 7 -23 -8 -8 -5 -15 11 -23 18
-9 20 -14 9 -20 -10 -7 -11 -16 -3 -37 11 -32 41 -43 46 -17 2 12 9 5 23 -24
11 -23 27 -42 36 -44 13 -2 15 -8 6 -28 -12 -30 -15 -44 -18 -84 -3 -33 15
-76 26 -64 10 9 24 78 25 115 0 17 6 38 13 45 21 21 30 52 39 137 2 25 -7 44
-37 77 -20 22 -44 55 -55 76 -11 20 -23 38 -28 40 -5 1 -12 14 -16 28 -6 24
-6 24 5 3 11 -21 71 -57 97 -58 8 0 20 -11 27 -25 13 -24 14 -24 20 -5 4 11
22 52 40 90 30 63 33 78 31 145 -2 63 -6 77 -22 85 -23 12 -20 50 3 41 8 -3
20 -3 26 1 7 4 18 8 25 9 27 4 88 38 142 78 74 55 82 63 70 71 -5 3 -10 3 -10
-1 0 -3 -6 -1 -13 5 -11 8 -19 5 -35 -14 -12 -13 -34 -27 -49 -31 -31 -6 -64
-19 -105 -41 -16 -8 -28 -10 -28 -5 0 15 123 112 141 112 9 0 29 6 45 14 16 8
55 26 87 41 50 23 57 30 51 48 -7 24 -7 25 -5 46 1 11 4 11 16 1 10 -8 12 -16
6 -19 -6 -4 -6 -12 -1 -21 7 -10 10 -11 10 -2 0 6 11 12 25 12 15 0 25 6 25
15 0 8 9 19 19 25 18 9 19 7 16 -31 -3 -30 -1 -38 8 -31 11 10 16 11 35 12 4
1 -4 7 -17 14 l-24 13 39 27 c21 14 44 26 51 26 14 0 17 29 5 45 -4 6 -16 17
-27 25 -19 14 -20 14 -2 -6 21 -25 14 -50 -16 -58 -16 -4 -32 6 -65 42 -24 26
-51 46 -60 44 -12 -3 -14 3 -8 29 3 18 12 36 19 41 8 5 5 13 -12 29 -18 17
-22 28 -16 53 4 17 8 42 9 56 6 50 45 116 85 144 22 15 42 34 45 42 3 9 10 13
15 9 14 -8 31 28 28 61 -1 21 2 28 13 26 11 -3 10 1 -3 16 -16 18 -16 20 -2
26 9 3 13 2 10 -4 -3 -6 1 -13 10 -16 8 -4 22 -18 30 -33 14 -25 14 -25 10 17
-6 44 0 52 19 26 11 -14 17 -10 47 30 19 25 41 46 50 46 10 0 20 11 23 25 4
14 10 23 15 20 5 -2 16 6 25 19 16 25 17 24 -31 86 -2 2 -16 4 -31 5 -15 0
-27 5 -27 10 -2 35 -17 66 -33 64 -31 -3 -42 1 -42 15 0 7 -18 70 -40 140 -32
98 -46 130 -66 142 -31 21 -72 26 -81 10 -8 -11 -58 -46 -67 -46 -3 0 -11 11
-18 25 -7 13 -18 21 -23 17 -19 -13 -73 -187 -68 -215 3 -15 1 -33 -4 -40 -6
-6 -8 -28 -6 -47 8 -62 4 -103 -9 -111 -7 -4 -13 -20 -14 -36 -1 -15 -3 -29
-4 -30 -2 -2 -3 -9 -4 -15 0 -7 -11 -14 -23 -16 -13 -2 -23 -7 -23 -12 0 -4
-8 -7 -17 -6 -11 1 -17 -7 -18 -27 -1 -15 -4 -29 -6 -32 -3 -2 -54 -16 -114
-31 -61 -14 -117 -29 -125 -32 -8 -3 -24 -7 -35 -9 -11 -1 -40 -9 -65 -17 -25
-8 -61 -17 -81 -20 -20 -3 -47 -10 -61 -15 -30 -11 -81 -68 -107 -119 -10 -20
-29 -46 -41 -57 -38 -35 -43 -52 -18 -74 12 -12 19 -24 15 -27 -3 -3 -1 -17 4
-31 8 -22 4 -30 -35 -70 -28 -28 -56 -46 -76 -50 -18 -2 -42 -8 -53 -12 -12
-5 -35 -5 -52 -2 -34 8 -35 8 -90 -4 -65 -13 -101 -38 -97 -66 2 -13 8 -26 13
-27 5 -2 14 -12 19 -23 8 -15 6 -26 -12 -51 -28 -39 -119 -128 -131 -128 -5 0
-17 -10 -27 -23 -10 -13 -43 -35 -74 -50 -30 -15 -75 -47 -101 -72 -26 -26
-55 -45 -68 -45 -12 -1 -40 -9 -62 -20 -36 -17 -42 -17 -63 -4 -13 9 -26 13
-29 10 -3 -3 -21 1 -40 9 -19 8 -39 12 -44 9 -15 -9 -10 20 11 58 10 20 17 46
15 57 -2 13 3 25 15 31 11 6 17 16 14 24 -6 16 21 46 42 46 11 0 14 11 13 38
-2 39 -41 179 -62 222 -15 30 -57 38 -80 16 -9 -9 -20 -16 -26 -16 -10 0 -16
-21 -12 -42 1 -12 -39 -30 -55 -24 -16 6 -19 66 -3 66 5 0 17 16 25 35 8 19
19 35 25 35 5 0 8 4 4 9 -3 5 -1 12 5 16 6 4 8 10 6 14 -3 4 -6 24 -8 45 -1
20 -8 42 -15 48 -15 12 -17 38 -3 38 6 0 3 11 -5 24 -13 19 -90 59 -117 61 -4
0 -13 6 -19 13 -7 6 -19 12 -27 12 -7 0 -11 4 -8 9 3 5 -1 11 -9 14 -9 4 -12
1 -8 -9 4 -12 0 -14 -20 -8 -18 4 -32 1 -42 -9 -17 -17 -20 -57 -5 -57 20 0 9
-16 -18 -26 -26 -10 -28 -15 -26 -57 2 -32 -2 -47 -12 -51 -16 -6 -30 17 -19
34 3 5 3 15 -1 21 -4 7 -11 2 -18 -12 -6 -13 -20 -28 -31 -34 -23 -12 -26 -21
-31 -89 -3 -28 -11 -63 -19 -80 -10 -19 -12 -33 -6 -39 6 -6 8 -29 5 -51 -5
-33 -1 -51 21 -90 31 -55 38 -83 38 -148 0 -69 -46 -172 -88 -198 -46 -28 -71
-32 -88 -12 -27 33 -61 117 -63 160 -2 24 -10 72 -19 107 -12 48 -13 69 -5 91
6 16 11 51 12 79 0 27 4 58 10 68 5 10 11 40 13 68 1 27 8 56 15 64 7 8 9 15
6 15 -4 0 -1 10 6 23 7 12 13 24 14 27 0 3 4 13 9 23 4 10 5 20 2 24 -8 7 -37
-22 -37 -37 0 -6 -10 -21 -22 -34 -13 -13 -28 -32 -34 -42 -6 -11 -18 -20 -27
-22 -14 -3 -15 1 -5 30 6 18 16 37 21 43 5 5 28 48 51 94 22 46 46 84 51 83 6
0 17 5 25 12 27 23 44 31 34 15 -11 -18 -14 -39 -5 -39 11 0 41 39 41 53 0 7
12 14 28 15 36 3 82 22 82 34 0 14 68 1 98 -18 12 -8 23 -12 23 -9 1 3 2 10 3
17 1 7 29 12 84 14 89 2 103 7 84 26 -10 10 -17 10 -33 0 -17 -11 -24 -10 -45
7 -14 11 -20 22 -14 26 7 4 7 12 0 24 -5 10 -6 22 -2 26 8 9 -40 -4 -50 -14
-4 -4 -26 -5 -48 -3 -37 4 -40 7 -40 33 0 32 -3 34 -31 18 -21 -11 -37 -15
-97 -25 -18 -3 -48 -16 -66 -28 -22 -15 -51 -23 -85 -25 -49 -2 -55 1 -85 34
-25 27 -41 36 -69 37 -20 1 -43 -5 -52 -12 -13 -11 -15 -9 -15 14 0 14 5 26
10 26 6 0 10 6 10 14 0 7 16 27 36 44 29 25 32 31 17 34 -28 6 -64 -13 -113
-62 -48 -49 -108 -90 -131 -90 -8 0 -34 -14 -59 -31 -36 -24 -51 -29 -75 -24
-16 4 -35 7 -41 8 -13 0 -6 34 9 44 6 4 7 1 2 -7 -6 -9 -4 -11 4 -6 7 5 10 10
7 14 -3 3 2 11 12 19 9 8 11 12 5 8 -7 -3 -13 -1 -13 5 0 6 -5 8 -10 5 -6 -4
-7 -11 -4 -17 4 -6 1 -9 -7 -6 -8 3 -32 -5 -54 -17 -57 -31 -105 -46 -121 -37
-9 5 12 33 74 98 96 99 129 125 183 143 20 6 45 21 54 31 18 19 17 20 -13 20
-17 0 -33 4 -36 8 -3 5 -20 7 -38 5 -18 -1 -44 2 -58 8 -19 7 -34 5 -64 -10
-28 -15 -43 -17 -55 -10 -71 44 -84 49 -106 43 -18 -4 -25 -2 -25 9 0 8 -8 18
-17 21 -10 3 -29 13 -42 20 -17 10 -31 11 -55 4 -17 -5 -38 -12 -47 -15 -9 -2
-23 2 -31 11 -9 8 -18 13 -21 10 -4 -4 -83 14 -95 21 -3 3 -11 36 -18 80 -5
28 -27 55 -45 55 -4 0 -9 -19 -11 -42 l-3 -43 -160 1 c-149 1 -527 11 -675 19
-149 8 -443 30 -530 40 -25 3 -67 7 -95 9 -81 7 -167 16 -205 22 -19 3 -53 7
-75 9 -61 6 -145 17 -265 36 -36 5 -81 12 -100 14 -19 2 -46 6 -60 9 -14 2
-43 7 -65 10 -22 3 -92 15 -155 26 -63 11 -126 23 -140 25 -14 2 -41 7 -60 11
-19 3 -42 7 -50 9 -32 5 -155 30 -195 39 -5 2 -28 6 -50 11 -64 12 -107 22
-150 32 -16 4 -32 7 -35 8 -3 1 -18 4 -35 8 -50 12 -67 16 -135 31 -36 8 -108
26 -160 40 -52 14 -107 27 -122 30 -15 2 -32 7 -38 11 -6 4 -22 9 -37 11 -14
3 -74 18 -131 34 -115 33 -116 33 -125 24z m-63 -249 c-10 -8 -23 -14 -29 -14
-5 0 -1 6 9 14 11 8 24 15 30 15 5 0 1 -7 -10 -15z m7010 -2454 c11 -4 15 -10
10 -13 -5 -4 -18 0 -29 8 -20 15 -12 17 19 5z"/>
<path d="M727 7122 c1 -2 -3 -10 -10 -17 -9 -10 -14 -9 -23 3 -9 13 -11 12 -9
-6 2 -32 25 -55 41 -41 7 6 18 8 24 4 5 -3 10 -1 10 4 0 6 -8 11 -17 11 -13 0
-14 3 -6 8 10 7 10 11 0 23 -6 8 -11 13 -10 11z"/>
<path d="M734 6965 c1 -8 8 -21 14 -27 9 -9 12 -8 12 4 0 8 -6 21 -14 27 -11
10 -14 9 -12 -4z"/>
<path d="M5508 6476 c-49 -32 -59 -46 -33 -46 8 0 33 18 57 40 51 47 41 50
-24 6z"/>
<path d="M8610 6209 c0 -5 5 -7 10 -4 6 3 10 8 10 11 0 2 -4 4 -10 4 -5 0 -10
-5 -10 -11z"/>
<path d="M8550 6185 c0 -8 5 -15 10 -15 6 0 10 7 10 15 0 8 -4 15 -10 15 -5 0
-10 -7 -10 -15z"/>
<path d="M6037 6043 c-11 -10 -8 -43 3 -43 5 0 9 11 8 25 -3 28 -2 27 -11 18z"/>
<path d="M5975 5890 c3 -5 8 -10 11 -10 2 0 4 5 4 10 0 6 -5 10 -11 10 -5 0
-7 -4 -4 -10z"/>
<path d="M8535 5559 c-10 -15 3 -25 16 -12 7 7 7 13 1 17 -6 3 -14 1 -17 -5z"/>
<path d="M7913 4244 c9 -11 17 -26 17 -32 0 -7 5 -12 10 -12 14 0 -3 32 -27
51 -17 13 -17 13 0 -7z"/>
<path d="M307 3964 c3 -8 11 -14 19 -14 21 0 17 17 -5 23 -14 3 -18 1 -14 -9z"/>
<path d="M350 3966 c0 -12 53 -27 62 -18 5 5 3 9 -4 10 -7 0 -23 4 -35 7 -13
4 -23 4 -23 1z"/>
<path d="M568 3770 c10 -12 18 -16 21 -9 2 6 -3 15 -10 20 -24 15 -29 10 -11
-11z"/>
<path d="M531 3694 c1 -21 16 -47 21 -38 4 5 0 18 -8 29 -8 10 -14 15 -13 9z"/>
<path d="M5721 2647 c-8 -10 -7 -14 2 -14 8 0 14 6 14 14 0 7 -1 13 -2 13 -2
0 -8 -6 -14 -13z"/>
<path d="M5230 2511 c0 -10 36 -21 44 -14 3 3 3 10 0 14 -7 12 -44 12 -44 0z"/>
<path d="M4221 1930 c0 -8 4 -22 9 -30 12 -18 12 -2 0 25 -6 13 -9 15 -9 5z"/>
<path d="M7289 1680 c-46 -38 -33 -46 26 -16 44 22 46 25 28 34 -16 9 -26 6
-54 -18z"/>
</g>
</svg>
