<svg height="1000" width="1000"><path class="americon" d="M264.898 914.987l1.253-.595 2.052.87-.054 2.69-.257 2.48-4.697-3.203zm-39.72 32.21l1.13-3.71 1.841 1.083.315 4.16-.1 4.152-1.696 1.414-2.629-2.973zm-11.7 23.773l4.64-.417 2.762-.109 4.745-1.13 6.345-1.093 8.392-1.228 3.29.075 2.68-.473 2.299-.28 1.084-2.29.056-2.045 6.516 4.96 2.046 2.22-.188.6-.517.212-2.49.82-2.594 3.118-6.487-2.961-3.815-.531-7.227.723-12.615 2.635-4.542.065-3.373-.442zm-15.656-334.114l.937-7.241.053-.58 2.887-21.174.018-.17.328-2.478 3.125-23.631.014-.145 1.534-10.878.627-4.46 1.46-11.606 1.628-12.93.253-1.206 1.828-13.811v-.023l.827-7.035 2.342-18.342 1.223-9.6.01-.055 2.047-16.774 1.014-7.074 2.987-25.166 1.341-10.64 1.542-12.246 1.982-16.142 2.829-21.848.407-3.78.532-3.46 1.667-13.252 5.517-44.02.12-.79.442-3.441.923-7.22.095-.407.094-.791.188-1.591.199-1.362.034-.44 2.157-17.216.038-.158.308-2.531.042-.589.455-4.074.66-4.975.953-7.186.248-2.744.554-2.971.911-7.109 1.757-12.585v-.022l.02-.237 3.078-22.735.701-5.693.685-5.512.714-5.74 1.571-11.594.3-2.885.56-2.855.226-3.16 1.9-14.216.202-1.621.443-3.682 1.507-11.668.054-.424 1.85-15.607 3.128-23.056.145-1.185.091-.275.857-6.504 2.967-19.746.41-4.28 1.688-12.686 1.876-15.643-.33-.375-3.96-1.667-1.836-1.083-.474-.407-1.035-.946-1.286-1.588-1.065-2.175-1.58-4.267-.606-1.435-.595-.975-1.155-1.473-1.74-3.206-.18-.867-.11-.419-.153-1.49-.143-.51 32.288 1.088 2.406.058 17.02.391.037-.008.815.003 3.04.058.018-.006.243-.012 12.462.342.952.046 1.386.036 7.862.239 1.14.044.284-.004.59.035 4.047.118 1.16.02 6.224.043 3 .056 28.266.488 1.125.033.66.009 4.152.097 1.63.065 3.469.088 1.597.045 7.97.21 4.643.138 6.283.22 1.033.037 1.173.043.943.03 31.776.899 1.778.013 4.076.129.286-.019.379.014.496.03 16.715.498 1.967.007.53.012 1.608.02h2.502l5.894-.035h.003l16.882-.056h.142l.377.012.558-.001 1.79.036h2.93l6.557.075 1.764.002 2.826.024 2.445-.003 4.36.036 9.665-.056 5.393-.11 5.847-.152 12.492.001h1.193l71.24-.35 5.607-.05.687-.007 34.923.026 1.05 6.378.124 1.33.654 3.99.005.032 2.173 12.369 3.92 21.393 1.603 8.101.005.036 2.005 9.967.001.016 1.245 6.138.043.238 1.244 6.833 1.831 8.95.58 3.385.038.194.001.004.283 1.15.672 3.31 1.068 5.186.025.112 5.123 25.166.647 3.171 1.536 8.148.623 3.3.117.722.494 2.508.06.422 4.708 24.47.251 2.09 1.187 6.549.301 1.665 2.512 13.65.145.431 1.319 7.02 2.304 12.185 1.689 8.921 2.932 16.046.25 1.17.59 3.493 3.609 18.97 4.378 22.946.176 1.113.018.08 1.802 9.19v.003l2.007 10.74 10.997 58.588.795 4.22 1.75 8.94.267 1.385 6.384 32.615.608 3.834.28 1.764 5.237 3.523-2.228 6.234 5.923 5.683 1.902 1.674-2.703 2.71 1.509 1.604 1.985 2.11.775 2.032-1.33 2.955 1.505 5.922 3.626 3.048.903 2.308-2.728 2.682 2.966 4.238 1.263 2.977 2.054 4.839 8.15 7.739 2.692 3.7.646 2.714.174.728 1.463 6.144.118 4.367 4 1.942 1.534 3.985-3.154 6.217.08 2.786.083 2.89-3.971 5.393 1.134 2.881 11.581 4.363 7.275 6.702-4.516 6.624-1.638 2.402-6.278.139 1.088 4.087-8.228 3.871-7.732 9.092 2.26 9.623-.235 4.98-.463 9.772-1.063 4.704-1.031 4.563-1.718 5.478-5.669 9.508-2.348 3.222-2.053 7.707 1.904 4.28.864 7.43.264 2.27.237 1.162 1.228 6.032-.904 7.565 7.825 8.146 4.075 6.458.331 9.877 2.9 5.15-.37 5.31-.092.218-4.157 9.898 1.18 7.386-2.264 4.256.483 2.464-2.342 7.136 1.133 4.559-.187 6.296-.081 2.737-4.137 3.88 2.95 8.705-.025 4.575-1.194 4.717 2.566 4.773 2.915.999 4.31 7.397 3.036 2.18 1.717 5.425.555 1.08 2.233 4.349 2.006 9.698-.146.883-3.747.115-.587.02-.447.018-.18.006-3.609.122-.468.014-.47.014-15.222.424-1.079-.008-.022.012-.385.01-15.374.415-42.145 1.81-1.672.07-.066.002-13.985.412-29.35.803-.053.093-24.763.699-18.125.392-6.265-.004h-.014l-3.005.054-.646.032-10.47.175-7.93-.06-1.051.006-1.074-.006-.868-.033-1.197.005-8.825.028-3.124.134-5.657.065-2.648-.022-10.403.001-.753.002-.91.007-2.42.078h-.012l-.567.006-2.238.041-8.588.11-.624-.037-7.18.175-2.223-.06-1.225.098-7.505-.361-.716.026-16.747.176-2.363.006-1.705-.007-3.104-.015-3.299-.43-.33-.001-.19.029-2.905.095-6.97-.13h-.047l-7.689-.083-.248.004-7.08-.053-2.613.009-6.844-.035-12.188-.22-1.014-.134h-3.923l-1.597-.024-.625-.052-2.371.084-1.781-.019-.789.007-8.664-.096-1.052.12-2.722-.16-3.771.076-.075.002-10.644.311-2.232.141-2.98-.401-.106.013-.243.002-.166-.015-.298.016-.147-.005-.866-.021-4.026-.046-.36-.005-1.823-.03-.426.045-1.405-.06-3.759.001-3.74-.027-1.44-.007-.661-.021-9.992-.055-1.124-.035-3.021-.044-1.017-.02-.509-.02-.514.032h-.025l-.87-.005h-.01l-2.039-.03-.172.002-.093-.002-6.775.047-5.005-.128-3.922-.037-4.75.022h-.019l-.046.349.401 1.638.562.943.117.569-.264.513.006.25.175.68.358.72.286 1-.529 2.604-.861 2.075-.25.467-.417.34-.352.56-.91 1.958-.086.52-.348 1.058-.29.416-.425 1.204-.14.866-.19.556-.82.497-.26.283-.065.77.265.76.017.49-.226.417-.406.138-.886.911-.099.488-.888 2.365 1.142 1.175.34.61.14.56-.2.497-.154.787.212.299.333.162 1.172 1.095.322.674-.103.47.85.427.897.28.375.544.326.707.186.912 1.062.748 1.107.407 1.032.544.858.865.813 1.549.672.3.674.58.707.813.096.367.797.68.325.04.155.14 1.195 1.546-.066.918-.143.419.664.919.885 1.014.094.232.176 1.338-.003 1.005.463 1.274 1.547 1.063 2.049.987 1.123 1.47.481.958.83.305.129-.045 1.684.393 1.003.413.24.317.038.42.879 1.277.697.271.457.731.237.174 1.622.678.967-.443.352.184.994.88.222.39.423.449.654.372.98.015.942 1.073.923.694 1.174.4.998.594.067.232-.101.447.205 1.048.879 1.92.092-.014.5.584.181.788-.18.47.209.84.383 2.646-.04.782-.125.365-.209.365-.145 1.138-.002.166.238.206.003.125-.409 1.32-.347.626-.334.242-.596.198-.348.695-.41 3.274-.713 2.109-.313-.05-.306.201-.369.482-.028.097.268.318.047.343-.354.9-.399.232-.258.043-.067-.19-.097-.01-.468.268-.335 1.192-.626.78-.614.128-.084.092-1.986 4.44.014 1.367.246 1.087-.043.194-.23.08-.143.19-.084.143.01.294.515.605.258.146.615.034.245.263 1.215 1.946.095.95-.431 1.25-.462.885.154.264.537.31.172.223.162 1.215.774 1.02 1.796 1.696 1.184.194.55.713.834.392.522.086.856-.194 1.88.32 1.809.671.36.456.296.842.053.775-.285.653-.524.586-1.917 1.518-.755.479-1.628.57-.545.501-.531.744-.3.24-.944.274-.75-.048-1.045-.253-.61.014-.613.176-.599.54-.39.664-.449 1.148-.527.319-.602.884-.094.586.049.385.374.935-.003.263-.558.903-1.28 1.182-.408.644-.092.444-.027.951.147 2.844-.234.435-1.362 1.565-.53.46-.333.138-2.877 1.33-1.648.658-.977 1.05.565 1.262 1.248.593 3.771-.538-.503 1.925-7.456 1.958-1.589 1.66.002.703-4.597.912-2.376.219-4.084.998-13.27 3.783-13.792 1.627-11.422 2.111-6.644.33-15.336-.92-6.33.052-6.623.635-2.566.635-2.427.201-.146-.324.957-1.536 10.025-.861 3.208-4.184 2.283-.951 3.083 1.711.764 1.123 2.305 1.32 1.263.488 2.423.175 3.377-.285 7.46-2.71 2.736.297 2.513-.2 3.723-1.583 2.036-2.995v-2.821l-2.949-4.196-4.147-2.599-2.164-1.758-3.53-4.333-1.231-3.162-1.35-1.667-1.51-.236-1.94-1.04-7.118-5.375-.43-.992-.792-6.47-.936-4.972-.708-1.117-1.322-1.035-.229-1.27 4.012-7.708 1.053-2.349.68-2.678-.37-3.06-.622-1.451-.604-.647-.577-1.957.533-6.03-1.11-4.113-1.973-3.396-.962-.974-3.34-.352-4.313-3.36-4.68-2.084-.71.343-1.71 1.846-.854 2.483-1.4 1.54-1.698.198-3.098 1.485.308 5.217.945 1.353-1.996 4.846-1.779 1.862-1.91 3.119.602 3.436-.28 3.552-1.404 1.01-1.825 2.755-.543 1.777.101 1.594.97 4.466-.7 1.973-1.047 1.693.301 5.153-.778 10.114-1.516 4.153-1.669 2.99-.615.617-1.499 3.568-3.396-1.384-2.84.443-3.457 1.476-.7-.875-.389-3.57.373-.956 1.373-.265.016-.622-1.948-2.931-.775.038-9.713-4.337-3.827-.194-1.46 2.42-3.668.28-.852-.24-.484-2.107-2.17-1.696-1.578-.25-3.965.195-1.87.436-3.64 3.18-.503-28.628-.1-4.501-.011-2.074-.005-.344-.184-15.7.052-1.8-.077-1.076-.089-6.416-.103-7.593-.001-1.336-.02-3.52-.003-.278-.01-.772-.36-26.412-.115-1.748-.38-24.805-.006-.379-.008-.19-.452-22.779-.416-23.274-.012-.24-.046-3.143.065-1.155-.532-20.728-.004-.023-.24-13.027.007-.078-.076-2.92-.122-4.737.03-4.425-.143-3.737-.435-24.34-.028-.47-.394-14.792v-.014l.02-4.87-.228-13.682-.081-12.034-.016-.087-.11-4.75z"/></svg>