<svg height="1000" width="1000"><path class="americon" d="M25 77.87l48.696 1.653 53.898 1.777 22.369.661 17.54.404 31.614.658 21.992.504 29.852.615 21.192.4 4.153.073 31.788.512 51.616.44 2.88.018 12.632.067 39.503.115 6.663.03 33.953.088 37.96-.207 5.672-.042 25.555-.225 59.497-.815 5.647-.094 36.56-.132 8.138-.046.422-.003 52.828-1.216 20.601-.542 44.348-1.257 3.524-.107 35.951-1.062 15.482-.493 51.961-1.268 12.69-.347 2.694 8.278 2.382 10.498 12.605 6.307.777 6.914.429 12.73-9.35 9.238-7.341 12.488-6.198 3.813-5.846 3.592-2.492 10.824-11.028 6.696-8.018 15.9-5.196 12.352 15.286-.717 35.466-1.744 27.677-1.345 11.148-.56 32.192-1.736 9.435 12.115 6.94 5.906.85 4.206.411 2.038-14.237 5.707-1.036 6.246 1.592 9.017-13.877 6.99-12.495 8.893-10.018-1.306-7.318 14.449 11.583 10.11 4.57 5.573-10.615 4.933-1.885 11.405-2.47 4.537-15.393-1.412-1.06 12.86 4.983 9.127-4.096 10.168-4.973-1.67-8.014 3.454 5.223 10.973-6.04 14.257-8.422 7.479 13.594 5.337 1.355 11.1-.894 9.308 2.232 10.95-13.657-1.979-3.817 9.097-2.706 9.83-13.232 2.998-6.822 3.003-1.394 7.97 13.212 13.416-.829 7.28-11.727 8.69-.392.292-16.999 9.326-1.247.053-10.96.46-1.54 11.097-6.093 6.021-7.493 15.233-.508 9.285-4.331 7.285-2.613 4.39 7.867 11.183-3.637 10.503-2.336 15.945 1.996 10.437-12.86 7.93-3.415 11.68-13.846-6.429-7.004 5.35 2.854 12.806-11.887 2.705-5.11 10.575-10.784 3.118 2.619 9.57-2.178 5.7-8.628 3.166-1.021 6.942-.121.825-.26 1.763 9.11 3.308 5.453 5.31-3.28 10.988-9.984 2.388-7.344 4.518-4.868 5.695-8.726-1.734-7.933 5.92 10.656 3.99 2.128 8.588-6.81 7.526 1.998 12.839 5.656 4.27-.074 10.232-11.873-2.804-5.21.566-6.239 6.775 13.835 7.602-4.846 13.146-15.524 2.635 9.77 9.514-11.52 8.658-3.218 7.156-1.934 4.295 5.501 8.71 3.715 7.354 5.071 8.418 7.05 8.102-5.522 10.837 3.76 16.607 8.035 1.418 3.773 9.804-2.884 12.728-3.781 12.068-9.934-.625-5.469 9.057 12.561 10.387-7.765 10.714-1.282 1.767-20.11.273-34.989.392-4.994.048-5.878.053-78.803.66-39.607.138h-.009l-31.378.015-56.875-.671-45.357-.662-.243-.005-50.296-1.048-3.586-.048-42.599-.65-8.41-.13-28.275-.476-23.14-.496-6.22-.14-41.278-1.018-16.66-.367-1.968-.045-46.609-1.158 1-34.305.701-26.951.374-14.383.723-25.544.686-28.01-.08-.072-5.68-5.13-14.152-1.738-8.037-3.75-6.25 5.042-5.05-1.633-13.179 2.548-6.974-.855-3.26 2.469-6.764-2.421-6.157-3.045-12.955-15.143 2.098-36.505 2.205-36.636 1.14-18.972 2.38-40.966 2.362-40.777 2.077-35.494 1.785-30.557 1.39-22.509 2.384-38.647.66-10.374 1.953-30.686 3.226-50.871 1.5-22.305-.33-4.011-.134-1.632-2.028-24.746-3.367-33.886-2.844-28.787-.215-2.18-5.37-52.328-2.829-27.225-1.47-14.212-3.38-32.799z"/></svg>