<svg height="1000" width="1000"><path class="americon" d="M85.28 763.648l.29-.151.585.14.349-.04.365-.192.358-.279.126-.51-.256-.298-.578-.08-.303-.29.108-.29-.233-.467-.054-.066-.18-.225.417-.515.623-.562.647-.848.05-.511-.37-.392-.136-.63.028-.17.292-.262 1.198-.434.059-.046.218-.171.266-.438.092-.336-.03-.614-.175-.233.236-.69.015-.118.021-.168-.135-.262-.204.038-.109.19-.06.295-.36.266-.444.184-.55.529-.653.207-.522-.209-.124-.31-.049-.586.205-.651.553-.323.703-.324.389-.498.078-.375-.318-.462v-.297l.188-.4.365-.487.025-.124.112-.56.021-.243-.22-.851-.108-.138-.494-.255-.26-.362-.107-1.023.026-1.402.322-.694 1.181-.575.242.104.472.38.408.131 1.349-.47-.08-.61.075-.263.146-.202.187-.204.126-.137.691-.35 1.493-1.067.06-.115.11-.205-.017-.234-.202-.357.029-.225.992-.924.765-.487.777-.95.053-.59.124-.232.27-.506.18-1.084 2.166-3.289.066-.137.035-.778 1.116-1.42.491-.935.304-.472.32-1.012.091-.195.012-.025.1-.214.144-.195 1.2-1.621.572-.64.167-.002.27.144 1.352 1.28.636.056.79.197.215.078 1.34.405.283.03.938.1.082.01 1.108.21.6.114.013.002 1.872.355.615.166.53.143.017.005.84.227.385-.013h.012l-.012-.167.175-.777.298-.057 4.18.142h.01l.187.007.069-1.24 2.437.125.07-1.22 1.83.07h.002l1.738.064.077-1.2 1.732.062-.045-.56-.095-1.163-.42-1.2-.064-.45.144-.934.082-1.459.149-.38.292-.461 1.008-.855.249-.309.106-.348.664-.939.772-.8 1.25-.56.688-.307.079-.03.314-.148.6-.547.004-.004 1.077-.984.004-.003 1.014-.926 1.03-1.039.723-4.959.012-.737.002-.039.089-.612.458-3.144.076-1.016-.071-.633-.1-.248-1.247-1.317-.388-.53-.295-.799-.213-1.182.04-.296.35-.577.66-.742.485-.68.27-.55.224-.603.1-.727-.005-1.041-.15-.922-.26-.31-.719-.22-.612.223-.14.263-1.046.305h-.213l-.38-.337-.159-.426-.164-.986-.132-1.924-.248-2.103-.373-1.237-.41-1.005-.681-1.117-.475-.54-.215-.186-.492-.43-.477-.188-2.073-.516-2.067-.195-2.574-.574-.494-.01-.45.173-.462.453-.509.7-.322.2-.4.1-1.587.058-2.484-.427-.966-.425-.338-.289-.761-1.38-.7-1.089-.278-.284-.595-.368-.443.337-.932 1.576-.42.53-.293.18-.349-.019-.375-.227-.772-.725-.368-.677-.154-.956.197-1.61-1.664-2.406-.254-.88v-.514l.132-.613-.05-.199-.48-.32-.288-.088-.917-.072-.495-.14-.237-.2-.16-.502.044-1.062.31-1.312.424-1.395 1.115-2.873 1.017-1.068.447-.702.414-.974.376-1.172.443-.7.118-.57-.154-1.145.213-.832.508-1.113.1-.661.048-.45-.32-1.931-.047-.652.44-1.217.402-1.391.046-.649-.099-.405-.465-.83-.609-.806-.847-1.778-.006-.198.2-.248 1.986-1.178.361-.468-.026-.333-.565-1.657-.456-.595-.519-.438-1.378-.702-1.16-.418-1.152-.3-.918-.352-.515-.333-.213-.196-.987-2.46.014-.269.2-.275.933-1.019 1.869-1.327.42-.45.418-.708.682-1.515.54-2.56.017-.691-.083-.772-1.024-2.648.082-.668-.025-.321-.14-.276-.688-.725-1.202-1.827-.307-.613-.019-.289.044-.164.216-.237.537-.2 1.277.174 1.286-.123.584-.398.135-.185.06-.327.127-.172 1.1-.416 1.963.043 2.12.99.774.06.465-.096.896-.476.334-.265.85-.676.82-.866.396-.887.794-2.306-.096-1.166.084-.343 1.576-2.3.68-.647.912-1.053.3-.474.154-.409.238-.633.872-1.428.487-.48 1.116-.615.944-.134.602-.25 1.256-1.197.07-.253.01-1.015.238-1.058.094-.178 2.439-1.664 2.503-1.51.04-.24-.308-.649-1.136-1.95-.039-.063-.508-1.943.044-1.805 1.188-1.707.293-.421.02-.03.214-.307.352-.347.674-.377-.017-.485-.71-.754-.161-.55-.279-.382.05-.666.118-.182.557-.177.393-.724-.12-.7-.052-.307-.43-.437-.121-.123-.472-.79.03-.536.385-.45.765-.21.948.049.541-.323.088-.357-.163-.318-.24-.153-.495.008-.791-.239-.508-.517-.234-.493.128-.897.081-.282.116-.4.384-.556.557-.507.693-.4.953-.423.359-.082.684-.158 1.212-.59.12-.253.287-1.569-.045-1.09-.193-.799-.56-.537-.241-.409-.182-.589-.344-.428-.467-.295-.272-.359.066-.126.568-1.075.344-.778.248-.766.064-.896-.037-.64-.003-.044-.248-1.26-1.17-3.466-.374-1.877-.975-2.634.133-.199.638-.434.299-.495.133-.553-.05-.403-.345-1.276-.268-.563-.484-1.601.06-.613.13-.44.024-.083.09-.138.163-.255.319-.17 1.064.11.3-.071 1.295-.878.254-.234.138-.368.005-1.172-.116-.316-.77-.688-.782-.932-.978-1.3-.143-.34-.106-.902.118-.1.287.1.886.579.364.01.392-.17.321-.242.109-.19.026-.332-.07-.385-.367-.851-.905-1.117-.918-.838-.406-.253-.663-.406-.048-.03-.137-.35-.024-.062-.018-1.027 1.046-2.145.986-1.254.867-.371.63.208.232-.026 1.373-.688.708-.807 1.486-1.376.25-.36.125-.4.13-.173.79-.49.687-.57.48-.783.246-.086.542.03.298-.06.219-.268.101-.373-.018-.048-.124-.325-.236-.217-.712-.473-.131-.224.005-.376.24-.578.193-.157.166-.038 1.165.27.647-.236.91-.557.476-.503.34-.53.331-.897.245-1.605-.038-.807-.367-1.282-.082-.605.04-.678.34-2.324.371-1.28.206-1.118.026-.146.119-.166.771-.693.29-.695.83-1.03.664-.664.6-.37.22-.059.582-.155.632.011 1.472.33 1.604-.909 1.379-.19.39-.159.88-.792.607-1.113.48-.426.695-.19 1.639.145.617-.147.99-.234.536-.288.251-.198.974-.769 1.462-1.82.1-.125.36-.449.002-.001.907-1.13.786-.598 1.665-.196.948.365 1.968-.515 1.41-.902.504-.578 1.538-.548.098-.079.284-.226.324-.823-.069-1.314.105-.306.26-.237 1.116-.587.526-.407.51-.638 2.497-2.446 1.794-1.412.031-.025.237-.246.071-.194.243-.45.178-.285.343-.136.577-.228.297-.323.096-.275.115-.301.19-.3.301-.187.392-.012.48.041.858-.176.327.004 1.268.343.303-.083.257-.31.055-.387-.444-1.055-.223-.91-.033-.44.163-.627-.15-.74-.113-.557-.061-.68-.049-.535.224-.837v-.381l-.344-.462-2.147-2.076-1.436-3.66-.514-.93-.526-.741-.56-.503-.588-.39-.746-.322-.288-.238-.822-.682-1.949-.265-1.663-.647-.468-.517-.572-1.313-1.438-1.558-.446-.428-.545-.354-1.501-1.931-.43-.212-1.716-.186-.9-.404-.245-.224-.2-.286-.189-.476-.016-1.08-.33-.644-.804-.936-1.491-1.05-.907-.556-.956-.28-.044-.107-.516-1.254-.296-.476-.31-.339-.571-.258-.409-.02-1.845.198-1.023.28-1.416.073-.276-.155-.399-.447-1.014-1.298-.077-.432.042-.252.565-1.365.292-.922.004-.035.03-.27-.118-1.834.146-1.131.157-.571.265-.683.244-.63.057-1.529-.205-1.774-.05-.428-.159-.326-.935-1.925-1.232-2.89-.692-1.621-2.252-1.943-1.543-2.04-.261-.48.025-.231 1.226-.346.307-.253.15-.24.08-1.343-.573-.721-1.32-1.192-.029-.138-.265-1.321-.007-.226.22-1.102-.126-.717-.35-.682-.68-.84-.392-.363-.587-.487-.145-.275.153-.342.878-.774.084-.315-.126-.3-.356-.452-.068-.311-.056-.446-.131-.369-.701-1.333-.375-.913-.303-1.768-.026-.96-.222-.64-.143-.271-.272-.179-.487-.114-.358-.163-.263-.12-.292-.249-.24-.204-.098-.084-.525-.978-.135-.148-.504-.397-.993-.593-.922-.432-.834-.564-.566-.761-.193-.433-.38-.561-.513-.657-1.4-1.11-.855-.82-.746-.875-.753-1.193-.384-.879-.504-1.157-.622-1.424-.389-1.915-.043-.39-.134-1.2-.545-1.818-.696-1.616-.7-.942-1.075-1.081-.47-.39-1.253-.799-.533-.34-.27-.172-.526-.5-.355-.472-.456-.604-.047-.062-.447-1.105-.084-.332-.005-.022-.127-1.777.035-.561.226-.995.716-1.961.064-.585.019-.17-.285-1.565.008-.189.001-.024.014-.3.003-.045.088-.452v-.001l.01-.047.095-.486.397-1.312.034-.718.01-.293-.2-1.085-.07-.237-.308-1.04.013-1.03.118-.64.733-1.902.028-.15.137-.727.024-.948-.076-.475-.422-1.198-.372-1.167-.004-.093-.08-1.853.217-1.28.68-1.49.289-.424.486-.715 1.373-1.054.015-.011 1.486-1.14.458-.85.132-.714-.195-1.04-.462-.617-.602-.803-1.219-.987-1.716-.913-.957-.51-.097-.181-.388-.73.358-.648 1.34-1.27.706-.669.859-.302.52-.183.931.079 1.206.102.444.037.214.018 1.555-.365.781-.466.501-.3.86-1.603.096-.61.002-.017.528-3.358.094-1.506.116-1.855-.232-2.652v-.008l-.016-.176-.322-.891-.66-.65-.317-3.363.126-1.34-.341-4.022-1.11-5.757.442-4.64-.891-4.717-.828-2.59-1.77-6.753-3.166-3.398-1.228-2.545-.274-.88-.106-2.863-.748-2.483-.567-1.351-.062-.86-.06-.834.049-.285.331-1.917.491-.7 1.485-1.01.731-.95.18-.632-.05-.332-.35-.495-.189-1.03.019-2.993-.151-.787-.213-.54-.267-.455-.206-.219-.201-.112-.424-.378-.107-.183.016-.093.095-.097.664-.43.29-.096.529-.27.4-.058.222-.1.796-1.684.23-2.16-.46-1.051-.275-.426-.331-.207-.217-.022-.225-.14-.16-.258-.212-.83-.574-1.258-.515-1.053-1.49-1.66.032-2.181 1.008-1.89.144-.27.274-1.186-.313-.657-1.403-1.025-.894-1.032-.5-1.192.042-.54 1.25-3.566.401-3.643-.647-2.185.51-3.438-1.618-2.71.325-.64.86-.678 1.12-2.267.153-.573-.141-.254-.722-1.187-.493-1.377.419-.564.787-.138.453-.105.422-.667 1.292-.693 1.65-.21.97-.63.147-.296-.188-.44-.518-.206-.612-.561-.736-1.135-2.812-2.944-1.003-1.781.264-2.57-.633-.655-.913-2.152-1.109-2.506-.025-.42-1.295-2.277-.338-1.565.576-1.12-.325-2.381.09-.558.327-.536.486-.373 1.096-.844.87-.922.117-.287-.19-.383-.503-.332-.608-.741-.425-.121-.57.063-.257-.395-.001-.945.31-.59.524-.807.1-.67-.507-1.226-.327-.794-.959-1.438-.433-.956.252-.774.514-.549.358-.633 1.503-1.127 2.518-.413.993.042.802-.058.97-.301.395-.306.267.005.46.2.382.296.313.118.388-.1.651-.66.443-.281.995-.005.302-.22.583-1.016 3.634-2.794.498.237.715 1.49.668.366 1.144-.573 1.523-1.26 3.518-1.298 1.306.093.776-.2.862.317.735-.157.527.044.812.445.072.207.453.07 1.946-.405.806.216.89.894.096.215-.033.412-.39.22-.546.45-.293.491.072.55.474.469.77.13 2.006-.412 2.07-1.403.67-.1.93.317.529 1.183.613.837.445.09 2.268-1.647 1.64-1.367.82-.269 1.41.262 2.196.83.65-.233h.172l.427.001.744 1.033.875 1.549 1.771 1.607.965 1.36.32.612.764.244 2.715 3.89.315 1.146-.481.946-.678.552-.282.659-.024.243.1.247.212.236.448.131 1.156-.01.495.218.319.287.31.667 1.38.741.265.1.568-.09.396.182.226.76-.072.674.5 1.326.452.576 1.12.911 1.791 1.002.727.076 2.602-.104 2.326-.589 2.183-.738 1.823-.39 1.78.738.693-.215.283-.917 1.025-1.13.496-1.347.025-1.758 2.011-3.726 1.318-2.338-.654-.994-.6-.57.033-.78.518-.71 1.055-.738 1.13-.197.66-.568 2.029-4.053 2.188-4.665 1.448-1.732 1.856-.697.35-8.759-.02-2.05-.004-2.25.122-3.008.332-3.858.021-2.662.52-7.774.435-9.597.164-5.126-.058-4.305.44-20.196.071-3.189.164-8.023.461-13.632.148-4.368.001-.022v-.002l.045-1.328.055-1.622v-.01l.14-4.104v-.002l.83-18.613.2-6.921 10.974.494v.008l44.524 1.584h.004l6.518.21 1.821.059 8.192.254 3.759.114 1.054.032 6.247.184 9.975.284 1.515.042 1.888.052 4.133.112 25.239.637 8.234.19.788.017 5.688.125 1.695.034h.028l2.015.04 1.233.025 3.755.072 9.039.166 13.61.23 14.888.224 5.68.097.91.015 1.391.016.41.005.59.019h.023l.231.003h.018l1.124.013h.003l3.284.036 2.615.028 14.128.136h.012l.82.007 1.46.034 63.857.446 29.882.027 1.7-.002 7.31-.012 2.345-.006 5.279-.015 12.202-.048h.144l.717-.004h.036l.046-.003h.1l.436.003 1.331.007 3.523.02h.117l.686.004.308.001 5.1.024h.018l.404.002.379.002 1.546.006h.23l2.327.01 3.04-.12h.203l1.979-.008.387-.002h.009l.49-.002 11.389-.055h.005l.24-.002h.18l.831-.005 8.718-.344.835-.011h.003l40.122-.638 6.322-.133 9.889-.217.012.05 3.384-.066 12.813-.37 1.271.087.438.138 2.267.713.339-.007.035-.001 24.814-.58h.006l12.99-.335h.007l3.351-.09.418-.012.09-.002 1.503-.041 14.598-.414 2.71-.059.028.084v.002l8.627-.292h.037l7.543-.264 21.511-.655 1.366-.043h.001l9.536-.312 16.89-.726 3.079-.114h.003l11.536-.439.173-.007.413-.013 2.9-.117 1.928-.078 2.719-.11 6.443-.266.244-.006.625-.029 2.134-.1 1.694-.056 6.824-.282L873.438 25l.209 4.802v.1l.07 1.645.422 9.83.16 3.726.002.04v.067l.025.59.03.677.07 1.595v.015l.258 5.843.337 7.64v.013l.034.763 1.733 39.333.197 4.457.183 4.349.002.028.051 1.223.292 6.913.397 9.401.015.35.237 5.623.096 2.286.027.63.213 5.044v.008l.092 2.178.055 1.284.012.286.045 1.068.475 11.24.328 6.595.004.078v.001l.194 3.896.796 18.75.21 4.766v.007l.338 7.734-.005.006.02.467.098 2.218.12 2.699.03.695.017.358.052 1.102.351 8.088.012.274.051 1.183.11 2.508.203 4.697.15 3.446.223 5.141.113 2.603v.002l.1 2.306.212 4.885.022.515.012.272.009.198.142 3.268.163 3.766.017.371.029.698.094 2.263.1 2.384.096 2.303.053 1.271.047 1.136.002.043.043 1.033.004.018.07 1.635.197 4.592.102 2.357.102 2.389.097 2.262.106 2.46.093 2.186.062 1.444.036.826.119 2.774.192 4.477.112 2.62.002.046.003.056.004.066.007.157.051 1.027.155 3.129.047.965.029.572.08 1.629.083 1.664.119 2.407.121 2.455.113 2.28.11 2.226.009.195.105 2.34.111 2.47.039.854.06 1.322.12 2.683.108 2.405.064 1.417 1.539 34.148.394 9.169.24 5.544.09 2.091.208 4.847.166 2.366.04 2.356.207 2.403.008 2.383.532 12.055.868 19.653.415 9.393.001.027.316 7.305.651 15.077.918 21.21.664 15.364.032.731.541 12.503.628 14.51.35 7.204.393 8.108.266 5.49.65 16.134.256 6.373.924 19.174 1.52 35.968.362 5.803-.025.405.001.565.047.62.013.05.774 19.287.08 1.622.26 5.26.55 11.893.004.073.236 5.06.114 2.425.022.164.093 3.778.003.17.709 15.434 1.136 24.755.398 8.66v.001l.562 14.158.025.581.026.617.038.833.26 5.78 1.677 37.196 2.469 57.002.037.85.015.383.349 9.087.13 2.46v.002l.709 15.718.383 8.494v.017l.046 1.58.087 3 .019.345.274 5.082.008.16.047 2.416 1.238 27.17.583 14.301.368 9.02-.004.002.102 3.323 1.154 25.129-33.281 1.189-3.191.13-.491.02-27.782 1.081-4.984.184-.33.013-.871.031-.611.023-1.498.054-1.279.046-.17.007-12.5.442-21.21.707-5.385.171-12.723.474-.2.008-5.71.206-6.27.222-.36.008-20.032.413-9.412.282-10.07.29-27.106.719-23.623.391-20.234.283-5.025.062-7.989.182-5.887.13-3.28.07-2.202.046-.495.01-1.433.03-.527.012-2.94.06-1.685.034-3.472.069-10.816.106-7.437-2.785-35.184-12.912-12.315-4.562-15.881-5.914-9.148-3.38-21.355-7.936-30.308-11.377-38.514-14.513-17.135-6.473-1.543-.504-1.78-.713-1.624-.651-29.944-11.322-37.147-14.228-36.976-13.974-13.009-5.315-16.564-6.68-22.634-9.194-36.468-14.802-4.367-1.858-25.437-10.399-40.634-16.814-35.05-14.521-8.814-3.645-8.079-3.351-1.327-.551-2.582-1.074-9.58-3.992-2.436-1.018-2.31-.965-.593-.248-.65-.272-.014-.006-1.17-.49-1.824-.763-4.319-1.81-.027-.501.264-.463-.166-.72-.142-.235-.225-.242z"/></svg>