<svg height="1000" width="1000"><path class="americon" d="M88.271 749.36l-1.163-4.031 6.592-5.094 7.036-11.331 2.17-3.735 5.343 1.518 7.147-.784 6.662-.738 5.798-5.626 9.382-10.099 1.284-9.491-1.73-3.744-.265-8.164-3.806-8.83-.795-.236-8.072-2.403-7.518.544-5.918-1.47-4.383-11.55 4.235-8.884.79-11.846.724-4.208-6.54-5.792 2.448-5.801.55-8.894-2.254-4.882 7.284-1.842 5.44-.463.934-1.765 4.924-9.318 10.63-9.782-.192-9.115 1.003-9.139 3.06-5.106 1.382-4.301-.816-6.942-1.614-11.321 2.347-5.979-.13-6.074-3.403-4.815 3.743-4.614 7.984-8.57 2.91-5.136 1.031-6.002.393-2.289 3.186-2.973 8.14-3.44 7.838-5.015 8.818-2.971 7.477-8.5 5.489-3.02.064-7.245.004-.464-4.097-6.666-12.112-9.89-9.35-8.51-5.938-.328.593-10.952-5.525-10.907-4.968-18.553-3.23-5.729-10.87-15.51-7.372-9.9 1.209-11.543-.013-9.724 1.69-10.923 1.136-8.721 2.795.236 3.697-2.735-.926-20.448-4.156-24.456-4.669-6.823.814-12.303 2.013-14.094-4.458-6.906-.36-13.539-.169-13.294 4.939-8.035-3.748-6.212-3.736-7.105-.975-10.88.408-9.15.033-.752 1.235-5.478 9.297-1.647 5.298-3.608 7.447-1.365 7.948.494 3.087 3.677 5.041.728 4.33-2.965 5.896.706 4.336 5.943 2.464 7.465 5.81 4.745 7.389 3.617 8.259-1.114 1.984-4.601 5.529-10.986 7.477-11.545.31-12.222.457-9.249 1.578-45.395 1.478-38.886.97-25.537 10.974.494 129.58 3.905 8.726.173 9.038.17 36.89.58.846.011 23.462.265 122.575.39.897-.004 16.551.077 27.47-.538 40.96-.65h.001l36.396.203 60.889-1.455 65.511-2.292L873.291 25l.862 20.21 5.403 123.407.81 18.75.866 20.052 1.89 43.523 1.756 41.17 1.438 31.085 1.64 35.43 2.756 62.865.414 9.42 4.759 107.503.695 16.132 2.654 61.517 1.513 33.613 3.264 72.412 2.588 59.165 2.506 57.852 2.067 48.745 3.44 78.944-113.581 4.098-91.885 2.568L619.539 975l-42.677-15.474-144.6-54.378-138.58-53.64-59.109-23.744-149.186-61.777.556-4.796 2.515-4.616-2.507-2.472z"/></svg>