<svg height="1000" width="1000"><path class="americon" d="M118.066 307.86l26.318-26.596.195-.197 29.045-29.361 11.723-9.86 2.102-1.769.63-.665 8.87-9.371 15.373-16.242 8.61-9.098.366-.36.16-.158 20.164-19.834.117-.115 7.06-6.946 4.12-4.055 1.695-1.667 6.626-6.52 10.824-10.652.018-.017 21.073-20.742 7.552-7.435 2.227-2.193 8.217-8.09 14.996-14.767 30.037-29.587 4.946-4.766 2.607-2.512 2.025-1.952 18.603-17.929 15.081-14.537L404.494 25l15.312 14.3 1.115 1.04.588.55 9.382 9.242 8.952 8.818 16.434 16.185.223.22.16.157L478.584 97.1l6.63 6.526.187.185 4.823 4.748 6.25 6.15 6.52 7.008 9.932 10.011 8.94 9.011 1.055 1.064 1.897 1.981 18.745 19.58.046.047.33.345 3.074 3.062 9.155 9.12 5.914 5.889.465.463 19.837 19.754 8.613 8.575 5.773 5.747 7.21 7.177 27.211 27.081 2.206 2.195 14.288 14.216.514.51 20.272 20.166 4.818 4.791 12.323 12.254.02.02 7.462 7.42 9.53 9.475 3.74 3.717.05.05.63.626 5.373 5.342 43.913 43.638 7.396 7.347.002.002 24.79 24.622 12.005 12.3.824.844 1.14 1.168 13.422 13.75 14.64 14.995.284.291 12.9 13.21 23.589 24.151 1.98 2.026 2.073 2.123 4.883 4.998.382.391 5.293 5.418-5.084 5.139-5.751 5.744-3.212 3.207-.148.148-19.007 18.98-.054.054-2.704 2.7-3.27 3.27-2.29 2.305-2.76 2.779-8.675 8.734-.227.228-21.265 21.403-13.929 14.016-.312.315-4.24 4.266-3.537 3.558-12.891 12.968-15.093 15.181-11.13 11.193-.16.161-10.729 10.787-.6.54-13.948 12.535-16.167 16.65-.032.033-13.799 14.208-5.57 5.735-7.154 7.365-4.12 4.241-15.427 15.879-.154.158-5.368 5.525-1.883 1.938-24.221 24.92-10.9 10.164-9.025 8.412-8.599 8.016-6.227 5.804-8.388 7.818-4.929 4.593-.386.427-11.455 12.667-9.15 10.116-2.449 2.709-3.156 3.49-5.098 1.863-.306.312-.04.04-19.422 19.756-64.169 65.235-47.987 48.75-5.204 5.285.057-5.242.1-9.19.173-16.044.108-9.953.027-2.413.361-3.947 2.243-24.508.727-7.94 2.05-22.4.337-3.686-2.69-6.667-2.483-18.712-1.113-8.392 3.696-33.627-3.979-16.824-7.266-7.02-5.094-.476-3.28 2.797-5.082-7.016-.332-17.752 1.87-5.073 1.055-2.863 9.096.016 11.453 4.457 14.592-5.633 10.417-46.876-.484-1.797-7.856-29.183-19.201-33.518 1.466-7.003-.71-10.742-5.429-14.486-3.594-4.805-6.2-8.288-.563-.415-7.062-5.202-4.365 1.393 3.62 8.88-2.56 7.933-10.185 2.784-7.977-11.69.745-9.338-10.871-18.233-3.99-4.21-11.105-.289-18.982-39.925-4.18-15.103-9.523-34.418-3.264-2.808-4.254-2.602-2.64-1.616-1.9-.246-1.573-.204-24.632-3.196-1.888-.245-1.895-.246L264.6 461l-10.542-1.37-2.32-.863-26.719-9.947-12.695-7.97-24.27-21.742-2.241-2.009-.668-.599-7.968-8.425-5.776-16.012-4.675-12.96-3.84-4.264-21.861-24.285-11.568-17.306-.777-2.72-3.893-13.63z"/></svg>