<svg height="1000" width="1000"><path class="americon" d="M416.96 169.7l5.964-2.069.18.516-.273 3.305.609 4.714.82 3.514-.33 2.018.402 1.703.453.59-3.186.41-3.02-5.818-2.127-6.713zm-5.746 15.917l11.293 7.68-2.498 6.085-7.383-1.81-3.111-5.072zm-108.576-53.33l-.018-.797.201-12.35.001-.175.094-14.669 7.76.038 3.995-10.866 3.032-6.4 3.855-7.062 4.58-6.938 4.17-5.36 4.973-5.671 5.304-5.333 8.283-7.182 7.987-5.713 12.148-6.82 11.16-4.865 3.567-1.213 9.134-2.577 11.244-2.112.45-.082.643-.118 7.225-.708 4.906-.314 16.265.58 10.924 1.315 10.244 2.058 9.198 2.87 9.357 3.618 5.019 2.386 13.44 7.563 6.787 4.967 5.053 3.752-2.707 1.29-14.487 6.9-6.477 6.365.25.206.48.221-1.59 3.695-3.715 2.182-2.04 3.134.158 1.975-3.24 10.014-2.58 5.546-.635 3.008-.029 1.597-.942 2.726-.1 2.828.287 1.515-.394 2.265-.68.818-1.469-.499-.734-.659-1.1-.204-1.736.668-1.46 2.535-2.569 6.61-4.09 2.112-1.635.921-.986 1.668-.368 5.724-10.488-4.433-17.07 24.454-13.073 3.869-13.068 19.778-.623.686-.118.458-.365 1.341-.457 1.614.343.895.485 1.081-.168.338.22 3.514-.13.373.003.02-.17.435.981 5.884.017.109 3.791 5.114.554.656 5.965 3.688.126.218 2.226 1.761.285.284.31.94.31.294 7.571 7.324.429.306 4.07 3.443-.85 1.58-.52.964-1.974 12.224-.032 1-.507 8.12 5.066 4.612-3.277 8.322-5.003-.635-5.96 8.756-.001.672-2.83 11.042-.002.813 1.652 10.909.242.826 4.868 6.854.668 1.985 4.176 3.689-.449 2.45 8.402 5.846 9.16 9.467 1.335 4.863 6.536 12.164 1.003 2.537 4.583 14.84.33.34.308.318 3.44 4.116 5.875 3.114 1.248 1.891-1.228 3.599.515.72.771 1.068.693.783 5.569 3.652-.062.612 5.626 3.933 4.708 1.763 11.324 10.143 1.11 2.737.741 8.09.094.594 3.937 7.946 10.385 13.903 2.877 6.884-.974 5.972-.582 1.552.134 13.543.516.799 4.17 4.457 2.07 7.953-.92 11.06-2.01 1.193-.828.111-4.295 8.105-1.232 12.583 5.088 46.204-.422 14.988.928.848 2.396 4.404-.25.91 4.46 4.589 4.282 1.624 18.196 16.358 2.604 3.349 12.071 21.74 1.83 5.08 1.813 9.002-.463 11.366.004 1.224.34 2.306.022.15.184.73 4.809 3.845-5.158 9.9 4.406 7.83 21.97 24.486 16.715 22.641 14.35 14.255 7.966 11.304 16.013 10.646.928.703 13.418 5.376 11.074-.593 4.915-2.258 2.904-11.483 2.532-.627 2.351 4.525 4.046 17.17 1.15 15.135.594 8.154 7.758 53.01.31 19.69 1.897 16.166.357.18.423.403.241.207 6.197 83.453.63 24.187-1.926.009-.525.003-6.931.043-1.933.025-38.844.328-23.482.267-36.323-.083-4.117-.047-43.604-.175h-.052l-7.85-.005-8.233-.048-12.146.02-.66-.03-8.686-.15-7.527-.134-2.103-.04-27.208-.685-11.327-.305-1.522-.052-9.897-.303h-.77l-5.952-.211-13.732-.428-.39-.012-7.648-.293-5.12-.306-3.08.09-2.036-.084-2.69-.316-17.474-.758-17.472-.634-1.479-.102-15.07-.894-1.458-22.219-.162-2.82-1.064-17.59-.705-14.267-.701-12.406v-.002l-.952-16.787-.27-4.78-.908-15.607-.042-1.052-.189-3.46-.176-3.323-.385-6.3-.002-.034-7.38-128.393-.28-5.26-.01-.188-.137-2.162-.563-9.29-.028-.755-.748-13.99-.138-.786-8.942-154.611-.993-13.885-.158-3.689-.746-15.586-.007-.163-.832-14.733-.848-8.87-2.402-46.689v-.014l-2.028-34.6-3.224-55.175-.006-.106-6.866-118.116-2.933-54.808-.27-4.694-.562-14.157z"/></svg>