<svg height="1000" width="1000"><path class="americon" d="M737.937 964.476l7.916-12.513 10.423-6.864 11.595-5.6 1.747-2.904 16.826-8.602 18.54 8.188 8.45 11.727-13.074 5.556-7.914 2.225-5.645-2.71-9.738 3.297-10.324 4.276-11.921 5.207-16.958 2.132zm-27.074 4.004l4.094-5.546 15.354-.636-6.575 12.674-14.587.028zm-23.119-4.505l5.823-7.032 7.684 4.708-1.834 8.338-10.5.614zM42.955 31.404L42.66 25l.013.001 9.372.741 11.085.813 13.43 1 17.638 1.253.052.003 27.755 2.209 11.338.841 5.472.43 11.523.891 14.753 1.115 20.69 1.413 2.801.187 21.039 1.327 18.021 1.09 16.745.973 17.061.658 20.178.785 9.66.357 1.151.041 18.374.641 22.21.824 13.59.574 3.413.134-.555 3.252 2.423 5.648 5.385 8.292-.075 6.19 1.583 8.656 6.042 8.636.146.012 6.005.484 40.27 3.741 11.165.899 11.343.896 19.122 1.472 4.913.42 9.09.767 22.224 1.83 9.208.76 15.742 1.272 13.328 1.052 6.086.523 10.881.923 5.772.484 20.615 1.689.619.05 30.346 2.287 22.435 1.662 12.611.905 14.85 1.039.024.002 4.854.463 23.968 2.244-1.273 6.06 3.433 6.433-1.094 6.936 3.664 7.77 4.413.707 5.836.332 5.243-1.09 1.225-.254-.18-4.605 1.612-6.148 1.1-11.653.25-9.798-4.088-7.448.885-5.117 1.04-8.095 4.455-4.94 6.124-5.782 4.436.799.432.077 4.051 3.855 7.16.31 5.403 2.188 3.748 3.313 7.632.6 4.2 2.034 8.56 1.827 3.97-1.134 2.513.021 7.552 1.718 2.019 1.59-1.655 13.504 1.256 10.867.649 2.266.374 1.307 1.854 2.013 2.056 19.716 2.853 12.08 11.146 46.907 2.324 4.437 1.925 13.718 5.932 15.839 6.025 16.03 7.77 17.82 7.248 16.558 10.383 22.223 7.518 11.589 15.487 26.214 7.666 11.644 10.368 15.696 8.185 11.081 7.888 19.303-7.586 7.106-2.06 10.589.662 11.135 2.113 11.24 5.843 18.153 13.377 26.33 8.605 16.86 7.33 20.052 1.997 5.663 8.853 25.03 7.654 16.415 6.164 13.178 2.186 8.191 2.99 5.49 4.848 14.414 5.317 15.761 2.26 12.29.04.214.069 13.72.409 9.145-.209 6.195-1.092 8.263-.052.39-2.238 27.273-.855 10.372-2.136 22.66-.08.84-.092 16.214-.004.546-.047 8.044 1.57 14.067-1.5 8.102-.214.862-.39 1.569-2.935 11.815-2.972-2.73-7.064-6.626-4.417 10.915-4.422 6.7-1.255 10.813-2.662 10.782 3.884 10.91 9.746-5.04 7.186-14.686 2.059 9.951-8.476 17.063-.757 1.52-14.864 25.82-17.561 23.044-19.853 20.076-41.213 24.272-18.113 6.043-6.162-5.875 14.393-9.414 25.125-12.201 30.698-23.553 12.063-13.286 1.836-8.99.475-6.304-6.223-.762-14.176 2.948-7.768 5.556-4.878.88-8.644-5.394-6.037 1.401-2.268.525-5.216 4.948-12.306 2.617-9.252 1.176-8.44-9.178-3.966-9.077 2.735-12.718-.055-10.88-8.355-13.982-4.507-13.58-6.667-10.685-8.716-4.188-3.82-10.55-7.637-3.693-3.993-1.935-18.731-10.882-3.29 2.424-4.18 3.078-7.182-7.231-4.106-13.432-6.906-21.873-4.88-25.268-.252-.38-10.096-15.223-4.273-2.225-7.387.099-7.85 4.372-6.674-2.01-6.995-5.723-8.395-17.928-2.48-13.992-.068-8.379-2.046-4.656-4.345-9.9-7.046-12.563-10.665-19.084-11.06-25.036-8.97-13.517-4.75-5.854-5.507-6.798-6.42-13.416 2.927.32 8.737.862 8.38-10.369 4.019-7.034 4.88-8.556 4.618-2.476 5.75-6.416-2.116-5.965-5.164-1.79-8.055-3.684-1.566 1.72-2.538 2.788-3.572 4.088-.996 1.14-.307 6.709-3.48 4.601-3.148 5.041-3.51 5.614-3.55 1.743-.638-9.336-.942-7.52-5.496-8.607-7.028-8.957.782-11.77 1.668-11.771-2.47-10.418-.303-1.28-.999-9.894-.028-.278 11.985-9.88 4.125-11.413 4.293-13.438.833-1.86 3.225-7.213 1.067-8.53-1.384-10.965-.035-10.147v-.192l-5.388-3.584-.046-11.193-2.085-7.038 5.137-7.791-4.286-6.763-3.874-6.693-.464-.803-.008-6.693-7.827-6.33 3.057-2.177-3.426-6.194-12.266-1.556-8.46-1.357-2.533 7.385-4.531-.81-3.073-9.32.593-7.163-3.981-2.978-7.126-2.914-.445-.183-.64-7.633-3.21-7.015-4.583-5.492-6.613-.751-1.538-4.358-11.321-7.792-.275-10.128-.952-9.884-.06-.626-8.308-4.051-6.511-3.54-5.352-9.08-4.91-9.816-6.398-8.73-13.078-8.43-17.053-9.048-7.17-7.175-.99-.993-7.49-.909-1.593.278-5.911 1.03-6.61 2.25-3.437-1.712-9.968 3.563-9.423 6.492 2.786 6.57.029.204.74 5.195-1.967 3.7-9.02-1.142-5.529-3.183-7.994 1.755-5.134 2.94 1.144 10.892-4.845 3.214-10.859 2.835-10.594 9.529-12.313 4.635-20.851 8.799-13.315-8.394-8.476-4.105-3.727-1.81-11.417 2.494-5.449-14.114-1.11-11.783 4.361-10.744-.524-.467-4.267-3.803-7.39-1.937-9.71-9.585-3.321-4.341-11.236-6.232-13.173-12.055-21.52-13.813-.445-.287-10.541-5.173-15.569-6.493-20.65-5.992-1.735-.506-26.292-3.924-20.14.278-6.05.073-8.323 1.082-28.686 3.659-8.989.454-4.6.228-6.164-.8-12.237 1.929-11.975 1.373 8.611-8.193 3.1-7.995 8.153-4.022-5.517-3.31-3.034-7.234 2.051-5.794 4.196-7.205.693-7.296-4.62-5.298-9.158-7.077-1.888-4.211-9.88-14.478z"/></svg>