<svg height="1000" width="1000"><path class="americon" d="M879.097 921.84l2.94-2.295 3.133-3.94.778-1.584.714 1.407 1.34 2.682-2.278 3.228-3.883 2.482zm-12.988 8.206l.022-2.16 2.193-.85 2.162-1.956 3.194-1.135 1.638.454-.959 2.417-.271.95-.716.878-3.22 1.667-3.418-.173-.55.068zm-36.148 15.041l5.325-2.676 5.642-2.877 6.991-2.642 6.79-3.81 3.844 1.095-.9 2.633-14.263 6.54-7.044 4.115-3.91.263zm-91.395 21.806l1.591-3.754 5.013-7.09 2.071-2.645 9.712-5.94 11.625-5.615 1.751-2.91 4.653-1.481 4.998-3.98 7.218-3.165 8.823 4.425 7.06 2.083 2.706 1.7 1.815 6.523 6.658 5.235-1.904 1.46-7.342 2.647-6.636 2.514-5.16 1.181-1.48-3.382-4.18.666-4.465-.365-4.092.542-1.207 3.128-5.555 1.798-6.988 3.627-4.293 1.625-2.806.28-2.66 2.179-12.02 1.358-4.983.78zm-27.144 4.016l5.08-.833 7.771-2.13 4.278-1.47 1.6 1.257-1.731 1.764-3.147 3.686-8.096 1.817-5.891-.91zm-20.016-2.866l1.83-1.914 1.003-2.513 1.02-.518 1.357-.087 2.825 1.332.422.523.229 1.786-.66 1.673-1.643 1.778-5.705.166-.774-.577zm-14.325-310.631l1.1-.716.078-.68 1.11.245.524 1.737-.441.83-.072.745 1.182 3.088 2.479 5.117.529 3.38 2.323 6.208 1.207 4.64 1.278 3.644 1.494 1.819 2.162 1.732 2.303.071 1.488.49 4.102 2.633 1.476-1.586 1.854-.593 3.133 1.889 2.948.275.245.085-.023.318-6.335 3.883-1.536.5-1.022.007-1.968-.408-3.701-1.614-2.864-2.754-3.136-1.746-.532-.56-.481-.677-1.926-2.21-2.947-8.119-1.236-2.601-2.005-3.518-1.247-6.275-1.693-3.057.334-2.606-.648-1.353zm-88.445 300.275l2.25-.495 4.903-1.04 2.194 2.826-4.132 1.923-5.394-.676zm-205.359-744.8l3.785-.735 5.004-2.574 2.677-2.221 1.433.337-.116 3.465-2.389 2.233-4.985 1.998-4.649.561-2.26-1.526zM36.432 41.258l.091-.33.652-.585.286-.075.175-.276.011-.338-.147-.535.081-.526.193-.183.587-.303.157-.373.137-.589.348-.807.22-.273.289-.71.083-.354.719-1.304.268-.367.303-.214.193-.31.69-1.386.487-1.765-.15-.702-.212-.511-.088-.476.007-.172.206-.34-.054-.397-.342-.675-.198-1.145.048-.237h.013l3.267.21 2.695.21 3.434.324 4.66.288.065.006.118.007 1.401.116h.006l.598.045.017.001.356.003.349.037.698.062 2.075.173.77.077 6.868.51.453.046.99.074 2.57.195 2.585.177.964.108.294-.01 1.252.107.248.02 2.766.222.594.056.1.01.207.004.113.018.167.01.073-.005 2.03.418 1.542.009 7.333.29.052.003 2.596.127 1.864.24.729-.033 5.953.478.542.033 1.224.097 1.635.055.427.065 1.097.093 2.697.187.691.14 8.37.732 4.704.35 1.797.119 4.866.374.171.01 5.283.423.032.003 4.787.422 2.002.074.132-.011.227.016 2.247.454 2.135.158 1.171.087 1.625.11 11.525.68.493.016 5.144.609.847-.009 1.525.148 4.946.224.427.056 5.912.337 1.54.08.39.022h.009l1.668.064.626.039.518.035 7.154.5 1.82.142 3.893.228 2.154.058 6.07.406.824.055.595.064.738.056.724.046 5.45.425 7.209.385.446.01 2.07.107.009.001 4.308.306 12.484.608 17.064.72.04-.06 20.226.875 9.638.398.046.001 1.153.035 29.075.814 10.595.468.266.011.016-.007.741.059 10.491.455.325.013.322.014 2.488.093.124.004.309.01.404.015 2.584.105.07.003-.013.5-.155 1.407-.443.968-.015.383.085.328.121.176.475.337.013-.042.26.053 1.128.378.374.196.262.274.262.608.047.321-.024.597-.353 1.07-.119.592-.102.774.047.307.286.303.632.29.485.38.156.868.296.665 1.208 1.396.423.753.295.693.796 1.268.139.117.156.14.218.16.145.138.157.312-.04.523-.259.383-.109.39.061.352.227.424.12.29.063.308-.09.368-.105.302-.004.568.227.404.362.384.139.29.042.352-.01.24-.142.3-.316.382-.281.47-.149.431-.071.872-.078.544.056.483.499.955.28.762.036.32-.162.76.061.586.175.41.972 1.721.06.309-.092.525-.284.837.583.69.042 1.06.089.184.28.164.57.106.389-.152h.346l.308.081.175.118.98 1.262.238.956.154.34.976.747.648.803.564 1.462.147.01 3.223.235 22.843 2.042 4.583.454h.016l7.98.699.516.052 7.232.754 11.204.745.68.044 11.036.952.15.012 3.74.262 14.927 1.26 2.052.225 2.872.215 3.158.235 1.27.102.572.06.25.014 3.861.336h.004l15.179 1.234.012-.003 2.987.264 4.103.34 1.236.13 7.995.653 7.993.644.325.029 7.459.626h.003l13.365 1.01 6.096.553h.005l1.057.07 1.249.094.012-.003 4.715.375 1.268.11 2.61.222 1.99.169 3.512.295.262.026.032.002 4.416.362 10.158.82 1.553.127 1.329.092.854.064 2.348.237.62.063 30.241 2.282.183.01 21.364 1.61.034.005 1.093.074.027.002 12.618.861 1.765.119.45.048 1.477.099.971.08 1.057.069 1.359.098 7.808.548.025.002 4.875.351 5.28.376 10.491.752 3.507.254.99.094 4.199.301.002.01.053.218-.501.358-.533.168-.506.304-.557.666-.436 1.587-.023 1.073.107.573.507.877.165.826-.116.486.417.982.23.34.784.505.683.755.773.955.607.933.064 1.495-.439.778-.367 1.167.025.498.178.198.149.51.106 1.022-.298 1.036-.404.596-.047 1.148.752 3.24 1.361 3.14.374.394.73.308.457.707 1.03 1.217.175.13.586.123.414.023.437-.29 1.783-.493 3.234-.567 1.39-.145.28.068.132.176-.045.17.86.63 1.636.267 1.513-.062 1.022-.166 1.198-.288.015-.008.243-.123.857-.967.464-1.081.108-1.033-.647-1.608-.105-.895.093-.935.14-.602.71-1.131-.061-.793-.336-.9.117-.55.732-.897.22-.356.321-1.446.198-1.33.708-1.09.092-.517-.046-1.234-.116-.619.277-.478.117-2.44-.131-.718-.141-.165-.23-.621.054-1.025.599-2.638.914-1.873-.326-1.881-.498-2.33-.44-1.101-.095-.108-1.255-.502-.048-.08.09-.916-.243-1.185-.658-1.078-.444-.507-.283-.538.098-.555-.062-.303-.326-.853-.462-.319-.41-.523-.13-2.883 1.018-2.248.63-1.98-.146-1.676-.195-.63-.223-.263-.338-.632.31-.643.134-.46.037-1.416.079-.214.357-.244.397.043.507-.046 1.248-.604.623-.843.125-.255-.763-1.764-.742-1.011.019-.491.116-.182.69-.515 1.096-.185.347.163 1.2.78.496.616.27.215.88.45.264.047.62-.293 1.332-2.518.061-.545-.063-1.11-.04-.722.062-.608.285-.442 1.183-.889.79.002.573.23.356.639.095.097 1.221.387 1.616.22.553-.162.3-.276.166-.256.352-.12.437.074.339.251.198.46 1.035 1.495.704.773.997.93 1.906-.252.762.534.51.472.202.1 1.592-.37 2.205-.173.225.044 1.665.713 1.022 1.496.208.506.419.256.495-.042.286-.171.252-.412.27-.208.575.012.486.335.514.419.455.167.444.082.151.077.154.117.104.161.091.221.045.328.044.098 1.27 1.316.615.368.864.31 3-.561.236.18.124.43.101.16.25.192 1.928.324.32-.185.094-.154.12-.462.11-.142.326-.135.29.007.675.187.533.366.051.305-.044.639.053.467.164.357.151.14.367.147 1.535-.3.432-.395.538-.092.382.25.135.227.154.65.238.387.979.173.216-.172.227-.478.2-.274.334-.123.908.36.82.229 1.569.173.276.093.63.52.543.304 1.09-.207.407.133.272.223.27.048.24.049.21.032.195-.02.193-.125.25-.283.12-.222.053-.268.146-.246.267-.178.268-.073.822.102.635.032 1.062-.113 2.107-.472.264-.002.428.299.98 1.255.38.195.978.3.538.077 1.349.128.548-.059 1.378.91.646.685-.344 3.988-1.314 9.55.167 6.368 1.092 4.527-1.018 1.779-.502.877.851.823 1.695.103 1.858 2.018.596 8.354 1.203 2.966.264 8.448.664 5.096.805 4.118.728 2.91L785.35 165l6.122 26.898 1.767 5.683.801 1.866 1.545 2.032.786 2.416.764 3.473.257 5.256.909 5.024 2.043 6.337 1.517 3.41 2.087 6.135.17.5 6.172 15.57 5.087 11.249 2.831 6.604 7.14 16.611 10.41 22.28 2.809 5.163 4.73 6.456 1.774 3.92 1.99 3.562 11.764 18.8 7.099 11.683 2.925 4.804 8.058 10.922 3.964 6.016 4.242 5.093 1.174 1.741 1.03 3.2.93 4.453 3.32 7.282 1.456 2.677-.17 1.104-4.443 2.111-1.36 1.462-1.633 2.447-.957 2.891-.786 3.813-.321 3.912-.044 3.58.708 7.584 2.119 11.27 3.302 11.612 2.556 6.587 5.218 10.989 8.277 15.201-.008.171-.008.147 8.562 16.792 4.505 13.76.216 2.03.841 1.705 1.788 2.61.93 4.022.492 1.67 1.366 4.636 1.461 3.426 1.014-.035 3.904 11.278 1.713 5.774 2.753 5.414.958 2.626 3.803 8.421.859 1.9 4.325 7.978 1.157 3.33-.756.886 1.346 2.787 1.602 4.54 2.998 5.504 3.214 7.608 2.102 6.83 4.877 15.814 2.265 8.966.04 3.354.002.216-.543.063-.114.71.879 7.327.08 2.072-.233 3.584.41 9.168-.208 6.211-1.146 8.676-.954 9.409-.688 15.664-.214.167-.253 2.082-.042.345-.294 7.866-.655 2.21-.396 2.534-1.092 12.22-.223 7.47-.183.48-.325.858-.514 14.636.059 1.625.312 8.606-.207 4.745.386 6.102-.183 3.367-.55 3.9.026 2.758-.983 2.836-.138.397-.801 1.41-.957 5.556-.05 2.85.269.939-.288 1.65-.774.116-2.206-2.853.717-3.736.715-1.666-.271-1.025-.902-1.26-1.593-1.063-1.7.235-4.05 1.873-1.43 1.259-.507 1.053-.624 4.25-1.866 4.382-.122.953-1.245 2.203-1.443 1-1.046 1.246-.577 1.315-.442 2.952.09 2.588.507 1.105-1.413 4.196-1.384.567-.53.45-1.235 4.883.104 3.022.377 1.89 1.283 3.24 1.044.83-.708 2.1.204 3.627.735.926 1.337.213.495.762-.41 1.658-3.108 5.129-2.222 1.375-1.2.387-1.592 1.526-.238 1.684-.076.54 1.554 2.402 3.615-.81 6.198-4.485 2.275-4.332.223-.573 2.46-6.308 6.013-13.407 2.988-5.326.105 5.135-3.188 10.53-5.748 10.38-.17.332-3.982 7.76-5.398 9.914-3.713 10.447-6.226 7.36-5.379 4.709-5.565 6.92-10.145 11.1-11.193 8.597-1.475-1.507 8.99-8.799 6.965-6.951 6.203-5.3 3.485-6.7.799-5.945-.11-4.28 2.274-4.095-2.951-2.796-4.031 1.483-1.284-.95-1.335-1.798-.947-.315-2.674 2.3-3.528.602-1.868.318-.554.094-2.925.137-3.805 1.528-3.308.597-1.721 2.67-3.302 2.402-1.309.237-1.562-2.023-2.515.414.001 2.073-.495.36-5.03-3.004-1.302-1.93-2.335-.473-1.294 1.76-2.447-.313-1.094-.184-1.19.274-.024.006-2.278.388-3.207 1.879-.175 1.207.38.89-.19 1.172-2.037-.187-3.585 1.092-1.885-.138-1.891.3-3.593 1.51-1.383-.14-1.786-.54-3.638.247-3.853 1.473-1.968-1.164-2.364-2.64-1.169-.974-1.726-.546-1.01-1.086-.225-2.792-.621-1.468-1.202-2.16-2.232-2.025.078-3.447.32-1.076.712-5.368.34-1.286.9-1.033.408-1.837-.417-.97.478-1.18 1.03-1.238.81-.291 1.66.583.403-.952.093-1.423-1.56-3.695-1.703-.087-1.218-.834-.057-1.742.447-.752.04-.48-3.054-8.139-1.45-1.657-1.674-1.324-2.2-2.897-.291-1.735.865-2.534-.173-.688-.677-1.4-2.16-1.392-.983-2.15-.083-1.923-1.016-1.792-4.107-2.147-.241-3.433-2.232-2.867-.2-4.294-2.868-2.187-3.424 1.52-1.605.474-.747-1.978.03-3.665-3.588-2.951-.272-3.961-4.015-.916-1.282-1.46-5.842-1.298-.522-1.969-5.636-3.065-4.324-1.528-4.575-3.869-4.246-2.447-1.148-.446-2.168-.062-.584-.017-1.29.652-1.202 1.173-1.097 4.217-.718 1.657-.855-.266-.629-.791-3.166-6.473-.597-.642-1.236-.735-.676-3.518-.822-1.514-.986-1.096-.559-1.564.19-4.905-.376-.598-.888-.272-.658-.819-5.237-11.85-1.03-9.26-.782-3.02-.336-4.918-.546-4.273-1.702-8.34-1.527-4.783-.169-.383-3.065-6.946-4.303-4.613-.11-.765-1.178-1.578-1.55-1.358-1.924-1.197-2.361-1.034-.99-.8-.38-.705.114-.318-.439-1.65-1.452-.63-2.11-.547-1.543.127-.616-.974.58-2.078-.828-3.405-3.34.606-2.2-3.39-1.292 2.505.153 2.573 1.343 2.806-1.918.184-2.963 1.263-1.411.008-.863-8.208-.906-2.898-.459-2.65-2.045-8.36-1.567-2.396-4.09-3.957.212-2.154.81-.75 2.81-.344 1.629.158 1.704.488.894 1.237 1.647 3.387.819.658.885-.42.798-2.82.207-2.486.653-2.074 1.678-3.736.559-4.003.077-.553-.013-2.152.8-1.908-.388-2.81-.089-2.398.203-2.896-.311-2.561-.964-.82-3.103-.891-.31-2.561.355-2.399.88-.666 1.99-.012.733-.5.067-1.076-.232-1.65-1.7-1.147-4.05.107-1.175.502-.951 1.244-1.606 2.818-3.168.099-.956.335-.733.912.308 2.809 2.169 6.521 1.225 8.928-.513.913-2.804.675-.734.914-1.225.25-2.65.542-1.432-.278-1.368-.265-1.505.693-.965.476-.369 6.517-1.871-.352.341-5.279-.631-4.005-.285-.696-2.248-5.5-1.63-1.982-6.421-9.592-3.095-5.408-3.192-5.585-2.384-5.14-3.391-5.727-1.867-5.64-.638-1.55-.456-.413-1.037-3.963-4.497-9.51-3.485-6.712-.686-.96-1.769-1.121-1.364-1.525.07-2.741-.86-1.54-2.74-3.79-3.328-3.796-2.398-3.945-.002-.003-4.085-4.962-2.114-1.853.108-1.017-2.11-6.2-.842-1.833-1.26-1.892-2.334-2.508-.34-1.11.42-.073 4.339 2.284.63 3.657 1.599.226.508-.112-.058-1.545.421-.727 1.145-.925 1.599-.452 1.432-.039.601-1.488 1.777-2.62 2.546-2.754-.12-1.659.163-.349 1.931-1.247 1.502-.279 1.779-1.834.627-.974.908-3.278.512-.923 2.2-3.964 2.897-4.658 2.45-1.907 1.571-.13.608-.445.17-.988-.105-.755-.653-1.06.5-.514 2.627-.901 2.891-1.681.335-.534-.253-.854 1.88-2.808.084-1.343.953-1.096 1.006-.258 1.191-3.543-.516-2.011-.653-4.413-1.425-2.678-2.316.016-2.427-.884-1.06-.583.05-.755-.31-.45-2.012-1.086-1.48 1.15-.164.727.465 2.778-.083 4.479.997 1.471 1.073.842.35.577-.454 2.956-.358.223-1.837-.23-2.69-.774-5.386-2.921.133-2.03 1.802-.31.681-.826.417-.968-1.182-1.07-.44-.799.135-.442.748-.611.567-.84-.297-4.145-.94-2.28-1.594-2.565-2.776-.35-6.727-4.152-1.44-2.609-.93-.507-2.646-1.445-2.27.361-.3.048 1.347 3.912-1.699 2.3.986 1.711-3.997 1.896-.505.368-.458 1.095.496 1.668 1.267 1.159 2.313.493.814 1.228 1.748.477 5.431.387-.778.952.26 1.796 2.776 2.515 1.453 2.272.453 2.022.69 1.1.348 2.709-2.642 2.531-1.12 1.567-.818 1.143-.994 3.7.686 3.027-.09.813-1.005 2.337-.786.954-1.607.509-1.313-.29-1.097-.517-.72-.046-.243 1.6-.007.047-1.83-.8-2.512.212-.66.947-.544 2.967.172 1.043.663 1.787.474.682 1.825 1.12-.884 1.931-3.559 1.747-.437-.624-1.046-4.22-.081-1.925.925-2.591.074-4.04-.283-1.628-.736-1.872-.944-.718-.903-1.274-1.133-3.244-1.641-2.276-.89-1.117-3.792-3.178-1.018-1.22-2.236-4.582-.32-1.27-.23-3.293.436-3.402.898-3.835 1.216-3.546.455-8.256-2.409-8.058-.171-1.694-1.202-11.895-.028-.279-.11-6.102 1.796-1.625 2.074 1.5-.04 6.563-.029 4.751 1.222 6.29.9 4.635 3.732.858v-.008l-.1-7.161.33-3.027-.652-2.477-.508-1.07-1.04.095-1.183-.435.437-2.468.931-2.213 4.42-4.413-.226-.151.062-3.448.636-1.371 1.617-1.01 1.695-4.358-.329-1.202.516-3.502 1.966-2.89 1.225-3.195-.007-4.72 1.12-2.667 1.662-1.108.675-.768.113-.129.385-1.075-.692-2.162 1-1.067.925-2.788.075-.617-.235-1.211-.466-.489.1-2.708.176-1.178.54-.28.88-2.069-.625-.7.012-.623.579-1.965.372-3.229-1.225-2.233-1.299-5.81.74-6.607.022-.191-5.402-3.594 1.767-5.097-3.904-13.18 5.15-7.812-1.685-3.868-.76-.43-1.852-2.482-1.456-2.858-.248-3.105-2.597.33-.203.026-.428-.936.582-.972.737-2.8-.745-3.91-2.904-1.486.348-1.262-4.48-.396-.811-3.203 1.75-.796 1.025-.063.257-.78.033-.543-.829-2.168.132-2.363-2.739-1.679-3.824-.566-3.572.051-4.348-1.162-1.206.255-1.587-.002-3.61-.464-.595-.133-.93-1.174-.552-.085-.555.36-2.748 3.732-.119 1.421-1.41 1.016-2.805.423-.43-2.178-1.391-.982.923-2.503-.02-.726-.49-1.185-1.673-1.77-1.06-2.755 1.654-4.427-.3-1.038-1.428-1.588-2.263-.359-2.207-1.425-.296-.55-2.25-.934-.407-.085-1.351.429-.655-.327-.425-.212-.84-3.369-.165-1.929.175-.188.188-2.168-1.693-2.654-1.346-1.484-.18-2.895-1.87-3.688-2.724-1.817-2.866-.406-.993.486-2.772-.833-1.47-3.074-.072-1.296-.441-.962-1.425-.178-.971.155-2.289-1.967-.792-1.492-1.659-.024-1.089-.53-.557-1.334-1.98-.627-.147-.852.231-1.366-.567-6.367.06-2.421.719-2.43-.502-3.916-.944-3.68-.056-.22-.232-.291-2.612-1.002-1.021.016-.438.26-.87-.18-3.355-2.024-.033-1.131-1.215-1.402-2.293-1.173-3.02-.974-1.138-1.305-.926-1.471-1.295-2.664-1.557-1.001-.681-1.092-.146-1.203.377-.367.151-.664-.436-2.767-1.125-2.295-1.164-1.199-1.603-.863-2.243-6.169-2.631-1.934-2.287-2.703-.86-.748-8.491-4.96-3.76-2.744-4.823-.972-1.982-2.127-10.293-5.971-.254-.297.226-.418-.18-.302-3.115-2.681-3.797-2.746-1.06-1.744-2.823-1.058-2.955-.065-1.732.211-1.6.786-.859.422-.482.013-.919-.424-.973.164-1.373 1.101-1.317-.75-1.333 1.024-2.65 1.37-1.288.145-1.356-.283-2.287-2.126-.37-.017-.22.289-.569.137-3.504-.208-1.016-1.072-.188-1.14-1.071-.402-1.587.812-.402.73-.218 1.29.409 1.077-.081 1.03-.803 1.071-1.532.385-.98-.065-4.859 3.368-3.608 3.206.414 2.94.227.428 1.485.13.527 1.28.155 2.01.16 2.072.34.5.256 2.639-.313 1.497-.959 1.852-.7.36-3.64.408-3.122-1.233-2.282-.319-1.253-.506-1.103-1.08-.909-2.171-2.277.566-2.987 1.383-2.103-.435-2.925.812-5.147 2.946-3.194 1.533-1.235 1.097-4.326 2.776-1.06 1.247-.034.512-1.639.695-1.713-.4-.997.283-4.761 2.935-3.164 2.46-.899-.077-7.599 4.003-1.59.271-3.854 1.742-1.69 1.138-.822 1.578-.542-.056-1.059-1.875 1.535-2.757 1.667-2.332-1.985-1.8-1.226-.202-1.35.364-.764 1.43-2.247 3.093-1.029.686-2.132.281-.674 2.126-1.026.782-2.014.796-5.37.326-4.201-1.29-3.598-.112-2.425.304 2.379 4.474 3.115 1.634.325 4.654 6.96 2.884 13.72-5.833 12.717-4.313 5.881-4.834 6.253-4.839 1.07 1.602-10.622 9.554-12.344 4.647-8.916 4.306-6.967 3.059-5.022 1.457-4.61-4.15-6.807-2.94-9.55-6.554-.411-.062-4.206-.639-3.758-.56-3.482.205-3.032 1.193-.53.652-.644 1.01-1.908-3.074-1.21-2.504-1.862-5.984-1.567-8.403-.292-4.08.263-1.918.429-1.426 1.026-1.756 2.36-1.674-.283 4.642-.326 3.888.1 4.054.782 4.957 1.162 6.137 1.07 1.933 1.991.816 2.065-.774 2.293-3.738 1.024-10.043-.083-1.543-.258-.433-.774-.495-.33-1.124.025-1.162.238-.227-.51-.952-.877-.89-.878-.173-.508-.498-1.114-3.232-1.85-3.86-2.401-3.2-.456-.498-1.892-2.069-2.456-1.713-4.118-1.553-1.094.198-2.197-.587-2.52-1.557-3.71-3.588-3.505-4.465-1.068-1.64-.705-2.522-1.557-.19-2-1.38-2.244-1.21-1.896-.729-5.125-2.929-3.86-3.175-2.264-2.69-2.928-2.918-4.155-3.302-7.784-5.636-5.183-3.416-8.604-4.83-.45-.254-10.568-5.186-15.61-6.51-8.98-3.263-7.763-2.081-3.944-.81-1.755-.36-7.022-.942-4.251-.05-2.709-.816-12.378-2.126-14.19-.34-5.974.345-6.092.346-7.168.69-1.17.16-28.767 3.904-6.176.487-7.448.197-1.76-.592-1.466-.778-2.953.568-3.768.371-8.5 1.562-12.007 1.377.032-.482 1.17-1.065 5.214-.992.437-1.299-2.615.191-.83-.466-.328-.893.72-.676 1.164-.373 2.039-.778.235-.08.386-.29 1.01-1.01.181-.289.034-1.96.063-.652.085-.301.31-.423.936-.751.426-.594.014-.181-.213-.66-.015-.267.092-.398.456-.579.377-.194.362-.768.3-.437.437-.343.43-.092.42.02.705.223.513.068.662-.143.217-.15.4-.487.399-.317 1.145-.316.541-.293 1.39-.952.387-.377.227-.435v-.536l-.163-.593-.226-.33-1.21-.546-1.277-.31-.598.093-.355-.083-.553-.31-.345-.515-.804-.19-1.154-1.25-.483-.737-.054-.842-.108-.163-.354-.237-.093-.19.359-.585.355-.838-.02-.658-.743-1.394-.156-.193-.42-.052-.171-.113-.325-.44.007-.202.065-.095.106-.123.162-.044.04-.132-.119-.758.056-.94 1.575-2.957.062-.06.428-.058.467-.507.286-.803.334-.162.066.012.037.134.18-.018.285-.14.286-.602-.016-.238-.17-.23.025-.066.276-.314.22-.124.213.05.589-1.416.437-2.23.272-.462.419-.108.241-.15.268-.414.344-.887.003-.086-.153-.153.009-.115.153-.774.161-.242.104-.244.064-.536-.138-1.836-.103-.587.146-.315-.087-.55-.317-.425-.064.005-.513-1.361-.091-.73.09-.303-.035-.162-.657-.455-.788-.33-.602-.521-.596-.783-.673-.056-.432-.287-.27-.328-.134-.279-.641-.652-.234-.143-.685.259-1.083-.543-.155-.13-.28-.524-.465-.22-.544-.918-.006-.291-.15-.23-.67-.331-1.139-.35-.09.025-.556-.249-.286-.681-.702-1.063-1.362-.775-1.013-.804-.258-.897.05-.691-.059-.928-.053-.164-.56-.739-.414-.663.119-.28.089-.629-.749-1.118-.1-.104-.221-.043-.516-.505-.049-.257-.448-.591-.435-.432-.448-.237-.485-1.103-.55-.636-.683-.422-.742-.332-.694-.564-.085-.636-.191-.501-.232-.392-.604-.235-.563-.333.092-.318-.19-.479-.753-.808-.222-.127-.131-.215.142-.534.161-.332-.069-.392-.205-.435-.73-.861z"/></svg>