<svg height="1000" width="1000"><path class="americon" d="M95.747 25l21.5 1.074 1.214.06 13.419.44 3.457.032 9.144.088.46-.006.652.02h1.149l2.783.021.28.009 1.773.033 1.659.03 3.186.036.854.026 1.396.04.214-.013.443-.007.214.007 5.033.083.88.01 22.228.455.022.006 10.707.122.474.007 3.507.057 1.84.04.84.01 12.804.336.539.022 4.308.049 1.278.089.58-.028.525.044 1.073.052.043.003.212.012h.174l5.3.077 7.363.103.589.026 16.83.355.569-.06 18.324.408.137-.002 18.746.316.159-.005 11.836.113 31.582.595h.016l16.342.211 1.412-.008 2.611.023 11.302.092h.038l17.298.168 13.338-.002 21.336.308-.03-1.102 11.63-.052 10.917-.184 26.298-.493 21.734-.783 13.43-.305h.001l.51.862.157.713.021.692-.403 1.328-.496.42-.323.953-1.367 1.509-.227.96.114.933-.529.75-.435.296.05 1.01.633.844.285.365.119.285-.098.428-.241.216-.425.205-.477-.211-.233.144-.14.449.08.564-.108.285-1.65 1.215-.434.034-1.101-.488-.543.178-.43.412-.348.84-.479.373-.672-.114-.575.198-.364.733-.536.669-.804.537-.316.712-.928 1.042-.636.322-.72.023-.465.563-.94.27-.2.69.563 1.127-.728.908-.668-.025-.6-.503-1.113.942-1.506-.353-.515.374-.844.203-.258.28.088.56.025.622-.398.61-.782.247-.232.488-.03.934-.465.489-.415.508-.19 1.09-.139.333-.183.163-.4.123-.282-.129-.385-.154-.383.001-.516.225-.379 1.626.446.891-.136 2.28-.502.594-.732.319-1.237-.893-.275-.344-.841-.286-.198.396-.032.738-.487.826-.489.093h-.357l-.32.024-.169.184-.094.206.001.23.246.48.051.937-.405.323-1.67.504-1.66 2.051.653 3.21-.172 1.677.159 1.156-3.065 3.484-1.676 1.028-.725 1.718.126 2.516.002.026.18.308.07.244.197.998.343.562-.018.363-.298.545-.055.363.094.317.261.294.523.521.374.453.336.453.168.408.006.06.051.575.057.363.41.294.98-.164.818.366.64.395.336.315.151.24.354 1.097.331.074.905-.269.707.142.525.597.106.827 1.32 1.66 1.044.66 1.429 1.212.99.592 1.606.317 1.16.52 1.16 1.202.616 1.084.649.357-.001.04-.444 1.27 1.925 1.342 1.718.265 1.622-.198 1.958.497.465.48 2.902-.418.996.168.57.343.07.317-.067.374-.16.646.121 1.287.332.28 2.272.553.34 1.99 2.114 2.061 1.696 1.259.414-.062.71.372 3.155 4 .075.71.067.65.167.245.883.127.71-.29.792.17.488.22 1.125 1.228.02.219-1.462 1.206-.052.374 2.958 2.761.654.199 1.27-.528.56.161.84 1.564.197.37.756.888 1.51 1.06.365.092.53-.228 4.396 2.388 1.3-.08-.037-.637.428-.693.075-.026 2.094-.72 3.137.116 1.003.938 1.208-.473 1.068-1.317 2.06.366.452.479.482.076 2.4-.826.944-.109 3.298 1.36 1.003.735.51.76-.166.528-.165.18-.095.444.17.461 1.686.626.532.31.243.264-.016 1.2.128.354.735 1.147.244 2.354.52 1.095.457.594.15.657.073 1.716.93 2.465.116.49-.102.973.084.477.831 1.494.252 1.766-.025.952.074.625.22.366 1.721 1.065 2.26 1.765 1.973 1.729.496.066.197.238.488 1.753-.054.73.115.78.715 2.648.864 1.498.254 1.247 1.118 1.593.47.668.951.769.386-.096.16.099 1.172 1.08.874 1.039.543.894-.328.467-.015.142.81 2.209-.138 1.523.03.384.505 2.568-.24.579-.154.492.674 1.048-.013.26-.296.936.086.747.135.255 1.427 2.698.137.439-.035 2.54.085.444.183.494.918 1.227.36.778 1.006 3.095.362.468 1.894 1.422.736.332.708.093.564-.042.297.137.694.766 1.506.546.355.374 1.213 1.927.223 1.324.856 1.167.257.17.217.674.088.085.766.55.31.126.67.204.196.164.93 1.121.091.272-.032.394.094.114.094.147-.029.264-.397 1.013-.399.463-.066.607.292.766.587.93.769.525.406.019.432-.148.676.409.818.987.155.321.057.504.31.623.983.895.639 1.385 1.119 1.016 1.167.852.273.36.092.565-.28 1.499.04.484.201.438.455.988.463 1.792.512.593.482.37.952.298.256.125.117.212.035.231-.16.247-.318.211-.29.34-.09.38.01.54.172.544.35.547.48.583.824.682.27.382.374.98.09 1.054.195.577.01.014 1.32 2.082.397.304 1.915.552.562-.13.943-.439 1.235-.042.375.077 1.96 1.262.907 1.101.698 1.083 1.294 2.526.545.74 2.177 1.556 1.741 1.805 1.788 1.276.735.946 1.188.812 1.286.468.316.238 1.282 1.369.338.238 1.075.405.827-.11.603-.237.989-.213.754.158.572.421.818.847.882.375.943.537.89.66.937 1.096.429.352.453.283 2.917 1.15.84.418 1.556 1.417 2.27 1.4 1.67 1.697.244.46.743.656 1.04.585.457.453.164.339.072.626-.078 1.896.04.292.192.304.562.323.421-.117.457.067.674.387.813.795.585.804 1.234.81.46.044.271.178.19.2.117.455.204.304.635.335.239-.042.47.14 1.341 1.412.246 1.26 1.015 2.299.237.811.63 3.327-.216 1.323.472 1.544 2.045 2.207.696.558.308.379.842 1.418.423 1.118.22.378 1.32 1.033.159.581.034.84-.198 2.176.845 3.29 1.8 1.93 1.085.979.941.554 2.111.457.608.176.35.211.505.458.41 1.08.392.572.646.476.375.275 1.595.725.753.107.54-.177.906-.86.642-.339.205-.008 1.005-.038.534.18 1.295 1.853.427.454.381.261 1.132.407 2.444.574.696.416 1.951 1.701.477.272 1.014.08.448.201 1.557 1.824.445 1.106.33.541.816.29.831.832.013.568.623.574 1.267.568.152.068.26.258.44 1.43.087.1.478.17.516.354 1.666 3.146.282.74-.063 1.326.292.845.592.696.91.486 1.208.255 1.11.379 3.531 1.72.805.324 1.295.313.808.488.54.575.987 2.188 1.292 2.154.021.33.03.452-.467.886-.748.45-.713.364-.293.558-.057.76.416.708.657.367.304.359.032.504-.14.486-.486.517-1.257.33-.743.18-.336.376-.042.598.33.684.87 3.59 1.052 1.18-.138.613-.815.625-.683-.14-.866-.71-.695.058-.432.356-.051.672.356.661 1.72 1.583-.116.816-.69.892.03.568.432.253.764.002 1.348-.4 1.167.733-.16 1.457.144.321.87.651.357.38.168.453.186.237.482-.012.377-.641.242-.61.388-.185.366.286.223.405-.005.65-.034.431 1.844 1.048.459 1.31 1.425.573.888-1.142.419-.235 2.445.692 1.098.691.213.592-.571.89-.334.212-.227-.218-.747.04-.705.344-.24 1.857.337.52 1.628.506 1.352.961 1.013 1.126.007.789-.285.426-.412.103-.817.07-.902 3.198.187.646.028.033.955 1.121 1.642.79.92.81.672.959 1.424.389 1.359.532.364.235.272.643.066 1.159.108.22.364.235 2.569.54.972.034.943-.372.23-.311.013-.733-.657-.98.146-.268.285-.15.753.121.888.729.231.339.766 2.441.335.377.587.29.208.426.027.055-.581 1.767-.369.214-.492.075-1.102 1.394.004.163 1.026 1.946.42 1.047.257 1.234 1.408 1.57 1.983 2 3.392 2.347 1.258 1.064 2.176 1.485.257.054.559-.139.495.027 2.308.727 4.336 1.807 2.098 1.689.708.264.871.015.847-.23 2.456-.344.453.035.144.072.273.136.337.26.243.556.008.608-.04.398-.028.418.046.146.146.069.368.005.537-.6.329-.032.25.14.367.577-.008.392-.17.471-.134.348.031.342.155.339.812.367.326-.015.323-.275.372.062.832.755.506.865.478.752.96.94.68.112.368-.06.343-.207.24-.18.124-.003.082-.003.124-.004.146.07.232.213.049.243-.033.237-.066.551.093.34.152.241.233.213.58.178.305-.132.847-.517.433.035.309.327.074.078.37.854.23.284 3.336 1.932 1.097.095.344.144 1.657 2.53 1.708 1.12.15.254.106 2.087-.028.488-.452 3.367-.715 2.923-.055.198-.257.192-.339.004-.326-.003-.2.128-.112.226-.044.225-.044.204-.113.186-.01.243.027.283.062.363.205.561.539.616.802.607-.012.258-.506 1.044.072.678.462.544.817.18 2.1 1.93.602 1.686.193 1.587 1.777.871.53.226.332.413-.088.373-1.021 1.152-.148.022-.904.635-.359 1.316.627.682.958.249.397-.097 2.436.45.185.221.292.885-.225 1.834-.47 1.144.378.875.248.361.235-.002.301-.256.764-.4.22.061.162.101 2.839 1.81.871 1.114.198.8.541 2.643-.07.52-.202.401-.667.68-.13 1.767-.009 1.572.067.785-.501.572-.155.437.137.484.326.335.395.245.369.16.178.253.032.23-.018.202-.015.26-.232.295-.345.134-.153.17-.068.147-.067.175.01.258.052.142.205.047.457.19.397.304.455.56.21.482.235.51-.196.64-.032.49.11.371.155.311.44.13.248.164.155.283.057.257-.039.289-.037.318-.11.32-.186.223-.963 1.36-.254 2.533-.06 1.69-1.016 2.096.141.206 2.4 1.6.253-.111.072-.169.064-.168.13-.088.107-.022.182.068 1.315 2.971.057.542-.493 2-.369 1.093-.105.199.025.212.358.806 1.199.002.793.55.148.392-.254.413-1.504 1.313-.257.154.18.9.267.242-.013.169-.73.94-.35.143-.162-.055-.228-.303-.356-.9-.232-.007-.38.277-.233.303-.003 1.087 1.239 2.205 1.288 1.43 1.349 1.104.58.644.828 1.385.014.01 1.463 1.122.311.119.512-.058.506-.61.278.01.318.15.142.242.144 1.182.295 1.456 6.697 3.006 1.419.296 1.985-.364 1.436-.435.453-.054.209.07 2.705 1.169.005.004.368.366.764 1.894.057.212.043.616-.229.537-.13.648 4.309 3.342.532.142.332-.154.493-.035 1.373.155.427.198.129.505-.128.314-.317.19-.285.257-.045.268.1.591.866 1.505 1.08.903 2.721 3.012 2.222 2.109.92.56.416.045.547-.184.19.033.235.258-.077.249-.864 1.384-.813.892-.58.122-.242.244-.106.333.013.343.158.339.195.29.009.219-.067.33-.16.32-.327.247-.46.252-.193.326.664 2.475 1.857 2.451.93.826 1.605 2.153.677.958-.1 1.46-.477.877.147.165 1.235 1.384.734.619.12.383-.09.404-.198.37-.044.228.138.282 1.492 1.015 1.206 1.185.02.265-.015.334.062.153.068.064.077.03.122.018.206-.008.262-.021.256-.176.096-.182.132-.383.61-.372.26.03.29.297 1.326 1.61.156 1.327-.655 1.01-.09.373.358.725 1.904 3.065.265.112.184.28.12.386.558 3.22.05.408-.287.648-1.078 1.724-.472.367-.972.428-1.538 1.968-.368 1.718-1.188 1.908-.155.44.122.494.457.761 1.298 2.157.63 1.045 1.176 1.61.13.161 1.375.815.948 1.463.95 2.454.083.798-.297.853-.084.517.199.313.001.357-.291.114-.56.593-.61.644-.202.456-.03.272.218.238.932.272.2.218.415 1.73.367 1.814-.121.478-.087 1.613.613 3.4.713.877.392.231 1.862.097 1.23-.059.331.08.14.773.483.606.84.618 2.979 2.026 1.147.54 1.793.38 2.089.088.964-.24 1.876-1.197.922-1.379.68-.593.9-.237.782.195.437.194.993.865.48.68.755 1.407.84.911.767.442 3.43 1.101.88.506 2.05 2.135 1.771 2.037 1.235 1.158.71.489.876.287 1.256.12 3.095.235 1.302.016 4.693 2.041 1.163-.664 1.614.434.565 2.633-.16 1.79-1.008 3-2.336 3.997-3.395 2.26-2.505 2.168-2.31 1.189-3.131-.114-.307-2.403-3.18.025-4.03 3.453-.43 3.655 1.326 1.547 2.482.732 2.277-.346 1.229.732-2.12 2.76-4.058 3.931-3.54 4.328-1.324.24-2.564-2.106-4.8-1.603-4.147-.018 1.321 3.92-.02 1.587-.605 1.13-2.27 1.864.123 1.458 3.309 1.176 1.092.018.505-.535 1.437.33.527.688.072 1.406-1.75 2.102-3.352 7.17-1.504 1.602-3.495 1.814-5.574 6.494-1.355.415-2.886-.975-1.064-.36-5.664-.836-.927 1.514-.856 1.398 3.165 3.581 4.5 1.914 1.112-.553.444-.953.434-.201 1.744-.194 1.48.798-.686 2.56-.07 1.79.982 4.16-.06 6.43-2.655 6.27-1.643 4.82-2.12 3.082-1.006.116-.814-.904-.566-1.625-1.453.04-1.746.05-1.714 2.249-4.558 1.262-2.404-.66-.972 1.617-.554 3.264.094.337.828.356 7.2.1.772-.208 2.389-2.04 1.157.32 2.072 1.602.619 1.069.227 1.094-2.074 2.865-2.444 6.389-7.016 10.67-1.923 3.867-3.278 7.817.025 3.328-.447 5.115 1.486-.002 1.16.375 2.4 1.727-.997 2.426-1.51 2.006-.806 1.071-.123 7.195-.979 2.19-.972 3.939.238 2.979-.841 1.011-2.052.107-1.646-.307-4.243 4.507-2.664 4.18-.965 2.376.305 1.386-1.484 2.67-3.271.803-2.284-.108-.367 1.823-.16 3.793.597 4.33.085 2.768-2.133 9.63-.88 2.11-.735.652-1.371.19-.409-.33-.06-.654-1.457.287-1.462.287-1.092 1.127-.225.956-1.721 2.063-3.709 2.422-.494 1.557 1.243 1.605 2.013.687.59-.834.972-.243 2.392 1.029 1.161 1.796 3.64-.098 1.09-3.663.74-.672 1.301-.154 1.044 4.076.043 10.324-3.664 15.062-.366 1.089-1.589 2.089-1.135 2.32-1.356 4.093-.706 4.396-.067 3.378.367 2.423 1.987 5.423.98 1.192-.819.103-2.02-.158-.806-.1-1.47-.423-.574-.28-1.498-1.853-.649-.434-.394.009-3.138.761-1.586.198-.95-.032-1.23-.131-.4.117-.395.273-.212.372-.073.4-.172.337-.367.429-.285.191-.29.036-.315-.042-.36-.067-.406-.065-.414-.326-.61-.189-1.625.338-.821-.44-.955-.76-.415-.133-2.351-.217-1.232-.32-1.368-.516-.495.193-.293.415-.326.72-.32.264-1.468-.234-.366-.572-.246-.967-.209-.338-.577-.363-.803.152-.635.603-2.288.488-.552-.211-.23-.205-.254-.53-.091-.697.05-.956-.086-.455-.806-.533-1.015-.262-.434-.003-.483.21-.161.216-.167.693-.136.233-.475.285-2.892-.434-.377-.282-.155-.234-.198-.642-.358-.262-4.47.917-1.3-.441-.928-.535-1.934-1.935-.069-.146-.075-.488-.143-.328-.159-.24-.233-.17-.228-.11-.667-.112-.684-.238-.78-.614-.734-.487-.862-.004-.398.318-.365.623-.423.263-.74.076-.633-.372-.324-.751-1.566-2.211-2.509-1.023-.337-.06-3.293.315-2.371.595-.305-.145-.774-.692-1.153-.778-2.844.426-1.514-1.366-1.074-1.138-1.585-2.208-.308-.683-.512-.367-.656-.1-.523.189-.242.387-.441.42-.823.256-2.422-.286-1.836-.548-.145-.143-.548-.945-.863-.33-1.181.018-1.746 1.359-.415.669-.078.909.08 1.078.122 1.66-.077.816-1.928 3.8-.919.453-.397-.063-1.326-.652-.41-.313-.757-.91-1.815-1.135-.522-.235-1.633.305-1.02.787-.169.276-.016.734 1.135 1.493 1.186 2.618-.18.386-.91 1.275-1.851.935-.757.082-.595-.054-.528.374-.111.322-.02 2.118-.188.691-.447.97.52.936.341.388.307.937.262 2.502-.893 2.978-1.463 3.388.266 4.307.626.773.7.465.509 1.267.1.451-.132.834.437.796.678.748 1.01 1.595.393 1.766-.11 1.373.074.118 1.889.719.146.159.685 1.635.804 3.472.537 2.805-1.32 2.825-.828 3.96-.055 1.535.36.924.215.243.215 1.07-.114 3.654-.4.721.187.923.101 1.845-.124.774-1.031 1.65-.262 1.995-.444 2.172-.32.538-1.072 1.359-.161.826.525 1.338.111 1.184-1.033 1.71-.193.905-.116 1.401.18 1.337 1.01 2.388-.135 1.548-.668 1.629-1.257 1.469-.36.19-.023.012-1.784.462-1.525.274-2.262.131-2.455-.356-1.302-.922.063-.256-.2-.26-.423-.094-2.075.252-4.824.93-2.654.785-.648.444-.62-.025-.879-.168-.266-.19-1.571-1.795-.703-1.047-1.099-.441-.57-.581-2.115-4.662-1.206-4.83.04-1.717.59-.901.42-1.558-.185-1.526-.235-.76-.272-.29-.05-.746.52-1.755.637-1.175-.133-2.234-.933-1.38-1.18-1.41-1.04-1.111-1.185-.735-.353-.504-.648-1.458.16-.73-.268-1.231-.78-1.3-.173-.855.006-1.604.613-2.385.816-1.011.75-.468.791-.265.742-.547-.085-.323-.004-.016-6.286-.345-1.484-.115-5.252-.293-15.712-.86-7.906-.432-7.3-.404-.037-.002-11.693-.627-2.034-.113-1.583-.076-1.455-.097-2.21-.11-.676-.062-2.642-.134-18.895-.979-.04-.002-1.637-.084-.05-.007-31.995-1.889-.272-.01-45.288-2.689-.929-.079-3.517-.3-1.279-.074-1.99-.106-2.326-.152-15.213-.989-6.613-.436-.048-.004-.393-.032-5.26-.359-2.979-.205-3.91-.272-1.9-.134-7.06-.452-.019.005-1.87-.11-1.583-.08h-.006l-9.13-.686-20.015-1.202h-.005l-11.17-.767-.487-.035-11.971-.781-11.973-.796-1.852-.164-6.144-.416-4.474-.329-.018.005-22.731-1.504h-.006l-5.78-.416-.377-.017-.858-.075-1.9-.125-4.729-.282-4.3-.257-3.075-.291-22.355-1.554-5.6-.31-.223-.016-16.528-1.181-1.018-.052-16.774-.87-10.834-.973-.773-.067-11.95-.874h-.025l-6.865-.58-34.21-2.57-4.825-.283-.22-.013-.875-2.174-.985-1.188-1.476-1.097-.238-.505-.376-1.424-1.492-1.868-.264-.173-.462-.115-.518.008-.578.235-.855-.146-.423-.24-.136-.273-.086-1.584-.886-1.02.407-1.258.127-.788-.096-.46-1.49-2.554-.27-.61-.103-.875.225-1.138-.06-.48-.435-1.133-.766-1.417-.094-.722.105-.815.09-1.305.212-.649.411-.709.464-.576.208-.453.01-.36-.072-.524-.213-.43-.55-.568-.347-.6-.006-.85.151-.453.127-.552-.101-.46-.186-.43-.348-.63-.099-.526.155-.584.38-.578.047-.783-.24-.464-.22-.202-.33-.237-.236-.205-.21-.172-1.217-1.88-.455-1.03-.649-1.117-1.836-2.062-.455-.988-.252-1.294-.733-.56-.952-.42-.433-.446-.077-.46.137-1.159.166-.888.505-1.606.023-.893-.077-.48-.403-.903-.4-.405-.561-.284-1.695-.543-.39-.073-.02.062-.716-.493-.185-.261-.134-.489.015-.573.642-1.456.203-2.106.01-.749-.106-.003.202-.9L172.097 829l-2.042-4.61-.507-1.144-1.447-5.687-2.996-2.423-4-7.87-2.941-1.202-2.36-5.065 1.508-4.785.296-4.709-2.522-9.136 4.488-3.75.246-2.812.564-6.471-.897-4.76 2.833-7.209-.352-2.565 2.582-4.248-.779-7.673 4.865-9.946.106-.217.694-5.445-2.68-5.474.242-10.188-3.814-6.89-7.576-8.848 1.377-7.734-.91-6.282-.174-1.211-.138-2.351-.452-7.7-1.708-4.52 2.568-7.814 2.607-3.179 6.397-9.454 2.09-5.539 1.332-4.637 1.37-4.78 1.053-10.034.536-5.113-1.761-10.04 8.495-8.906 8.7-3.501-.88-4.273 6.471.227 1.828-2.376 5.04-6.555-7.097-7.329-11.667-5.172-.998-3.033 4.405-5.32.085-2.98.081-2.873 3.613-6.215-1.345-4.194-4.004-2.234.135-4.503-1.146-6.412-.135-.76-.506-2.831-2.554-3.969-7.937-8.446-1.831-5.103-1.125-3.139-2.805-4.537 2.966-2.601-.794-2.43-3.555-3.35-1.202-6.186 1.543-2.964-.679-2.139-1.92-2.288-1.459-1.74 2.942-2.632-1.86-1.835-5.765-6.197 2.66-6.288-5.186-3.935-.185-1.832-.4-3.983-4.662-33.954-.195-1.44-1.277-9.309-.572-4.39-7.894-60.964-1.437-11.176v-.001l-1.32-9.568-.012-.084-.117-1.156-3.167-23.88-2.607-19.742-.404-3.63-.189-1.22-2.083-16.692-1.218-9.283-1.662-12.68-.948-7.304-.124-.452-1.79-14.2-.214-1.733-.84-6.812-.137-2.166-3.421-25.468-.038-.438-.362-2.612-.079-.749-.449-3.434-1.107-8.479-.482-3.303-3.81-26.208-.019-.116-.798-5.402-.499-3.448-.224-1.2v-.004l-.03-.202-.4-3.518-1.364-9.322-.883-7.108-.031-.248-.925-6.392v-.016L102.45 80.77l-.003-.037-1.179-8.435-2.794-22.253-1.52-12.862-.003-.032-.441-4.146-.05-1.377z"/></svg>