<svg height="1000" width="1000"><path class="americon" d="M753.394 653.945l7.714-7.08 5.253-6.277 4.881-1.26 5.957-5.741 4.07-8.563 6.355-7.002 4.369-2.662 1.092-8.185-4.48-6.89-7.234-11.51-2.219-10.107 2.056-14.79 6.604-3.127 9.67 3.223 11.023 5.835 5.849 5.824 11.94 7.195 7.058 5.322 6.932-1.406 10.052 3.179 20.55 8.64 21 9.657 18.692 14.22 7.616 7.568 6.965 7.821-.602 15.007.896 9.164 7.416-2.377 6.963-.029 4.702 9.14 1.422 10.895 4.981 5.29 17.14 10.236 6.923 3.48-.163 5.606-10.599 13.06-11.932 10.028-13.533 9.891-16.534 8.06-8.269 4.382-8.3 1.562-10.608-2.37-8.706 4.615-8.396 8.088-5.396 1.555-11.196 9.54-9.3 2.795-8.877 13.189-6.258 11.858-4.13 7.168-4.299 5.527-6.096 4.7-9.864-9.848-14.54-8.392-13.658-4.235-5.973-11.9.294-15.267 1.617-15.139 2.06-7.73.325-9.363-3.744-12.818-2.853-7.304-4.837-6.203-3.274-13.167-1.638-9.915-3.528-6.569-5.6-1.357-.793-3.632-5.598-11.663zM638.365 438.583l3.386-11.186 10.79-8.879 9.947 2.218 7.695 11.573 6.584 10.624 13.655-3.293 12.372-5.75 15.84 1.606 8.413 8.604 10.912 5.726 12.842 9.513 9.904 2.777 3.235 9.636-2.854 8.707-7.355 6.278-15.153 7.096-14.168-.153-13.065 6.052-16.449 3.407-9.565-3.724-2.066-10.906-2.577-15.19-.664-3.252-1.979-6.928-5.705-1.65-5.59 3.947-2.963-1.455-13.546-6.66-9.782-13.107zm4.848 67.912l10.566-6.337 7.697-2.069 4.238 4.683.57 9.892-8.237 2.979-14.59 1.256-5.882-5.255zm-67.915-67.036l8.653-2.987 12.711.956 11.26 5.84 6.294 5.893 4.966 8.153-5.321 10.465-9.173 3.643-3.314.975-10.358.75-3.94-7.717-.115-9.539-3.304-5.272-8.507-5.753zm-37.67-46.441l4.875-4.807-1.82-7.763 10.216 1.326 12.877 3.489 15.398 2.145 4.513-1.79 5.304-2.108 3.702.046 7.227 8.135.568.014 13.334.307 17.383-1.444 5.775 3.325-5.338 8.846-11.055 8.235-13.149 3.247-13.415-3.268-12.62-4.41-9.513-2.529-15.943 1.939-14.174.394-10.155-2.755zm-164.841-82.94l18.526-.065 8.13-7.527 5.264-7.926 10.29-6.624 4.124-.783 7.377 11.657 7.89 14.357 6.84 8.621-1.737 11.783 5.394 5.062 8.667-3.758 7.314.54-.521 10.453 2.228 8.433 10.095 8.544-.593.854-3.222 4.64-4.79 3.692-9.916-2.818-4.018 2.307-5.206 1.308-7.128-5.177-6.707-4.262-10.57-1.362-5.355-.758-7.525 1.059-11.177 1.695-2.621.104-4.326-8.898-.252-.781-1.515-4.69-6.63-5.882-.474-4.836-8.478-10.988.5-6.768-7.804-10.482zM107.793 210.32l6.923-5.74 2.91-7.763 4.474-3.392 16.51-7.055 5.447-3.861 6.366.623 5.55 3.626 4.137-4.646 9.587 2.19 5.127-2.12 6.892 3.74 8.219 6.118 2.85 11.309-4.831 11.257-2.948 3.549-.002 7.89-1.262 8.926-8.524 6.858-10.65 7.71-14.05-3.472-8.148-2.034-4.972-.125-7.667-8.115-9.773-5.567-7.96-3.466-5.131-7.896zM25 252.595l4.325-13.57 6.381-5.858 10.082-4.35 2.693-2.513 1.962-5.93 7.082-1.132 2.273 1.416 1.128 2.915-3.472 3.008-3.033 6.676.853 5.869-7.999 3.174-5.582 1.353-3.442 3.735-2.837 4.414-3.214 7.842-4.136-2.124z"/></svg>