<svg height="1000" width="1000"><path class="americon" d="M25 336.2l.596-.743.569-.884.317-.918.332-1.394-.457-.812-.062-1.349.177-.491.265.01.593-.486.719-1.092.398-.921.575-.157 1.57.476.12-.13.22-.786 1.11-.967.493-1.58.33-1.39-.015-.145-.169-.194-.5-.127v-.912l.157-.149.564.126.8-.483.186-.175 1.04-1.652.03-.21-.605-1.009.155-.754.27-.098 1.205.253 1.219.234.36-.584.289-.007.949-.416-.272-.368-.046-.494.15-.26.424-.006.796-.411.184-.252-.257-1.196-.496-1.191.002-.113.188-1.28.374-.655.142-.141.36-.01.915-.711-.002-1.507-.252-.56.05-.155.834-.147.958.066.213-.237-.009-.376-.29-.843-.993-.637-.029-.94-.08-.622-.049-.381-.258-1.584-.18-.407.012-.373.106-.373 2.36-2.043.843-.791.777-.728.603-.111.192-.138.238-.654.528-1.18.705-.894-.312-1.752-.245-.536-.155-.108-.655-.018-.734-.36-.57-.97-.047-.542.593-.18.694-.844.035-.566-.07-.518.457-.705.395-.252.669-.072.716-.173.169-.122.37-.573.272-.63.197-.9-.343-.973-.636-.953-.571-.147-1.066-1.023-.105-.222-.155-.529.04-.298.325-.364.289-.926.006-.121-.325-.536-.327.004-.274.07-.216-.182-.14-.366 1.258-1.478.193-.003.514.276.5.046 1.657-.335.227-.123.125-.493.221-.28L52 273.527l.549-.2.445.312.249.058.745-.18.333-.19.417-.67.508-1.45.234-1.628.023-.16-.035-.52-.103-.261-1.03-.348-.013-.356.372-.673 1.297-1.02.579-.753 1.36-1.79.466-1.34-.422-.243-.158-.238-.105-.312-.109-.824-.051-.983-.904-1.705-.723-.416-.482.132-.16-.04-.69-.824-.177-.554-.023-1.837.06-.874.532-3.508-.026-.185-.27-.316-.236-.017-.503-.248-.162-.827.103-1.758.496-1.219.044-.416-.195-.464-.31-1.555-.056-.731-.15-.197-1.202-.492-1.605.018-.646.532-1.696.343-.983.117-.235-.121-.132-.543-.65-.647-1.23-.77-.642.347-.685-.083-.459-.219-.966-.026-.204.114-.158.259-.247.114-.205-.03-1.073-1.502-.303-1.474.906-.988.876-.131.912-.368.175-.745-.008-1.308-.075-.274-.24-.182-.296.161-.445-.06-.57-.22-.603-.51-1.113-1.173-.878.073-.317-.252-.097-1.075.425-.48.08.072-.011.381.283-.024.517-.758-.042-2.42-.009-.532-.04-.26-.125-.153-.078-.253.113-.207.979-.136.261.208.118.299.215.241.68.181.11.007 1.18.065.287.398 1.748-.434 1.567-.794.733-1.919.089-.48-.42-.828-.481-2.39-.174-1.56.453-.41 1.176-1.61-.016-.186-.146-.044-.122-.694.028-2.047.045-1.147.127-.033.646-.679.154-.514.018-.262.065-1.9-.255-1.807-.183-.315-.512-.307-.14.028-.012.224-.156.149-.854.06-2.163-1.897-.623-.56-.666-1.213-.773-.914-.7-.434.446-.864.206-.73-.073-.215-.67-.656-.959-.143-.849.056-.697-.33-.181-.204-1.018-3.1-.022-.248.469-1.186 1.806-1.43.524-.9-.06-.303-.096-1.401.796-.571-.482-1.696-.161-.247-.558-.659-.173-.023-.444.182-.502-.374-.101-.19.084-.864v-.003l1.096.05 19.579 1.093 14.507.772 2.698.123 17.498.88 1.426.086.04-.003 20.634 1.01 27.268 1.253h.03l3.767.16 1.867.08 11.322.48.107.005 32.113 1.24 3.976.07.01-.006 1.659.048 2.894.058v-.017l.04.002 2.86.156.012.01 6.585.242H211.302l1.78.045.075.004 17.588.547.03.012.845-.128 4.248.194 4.905.172 1.781.032.084.025 1.755.116 4.592.076 1.102.05 8.612.208.11.021 2.773.07 2.808.065 2.81.145 2.857.08 2.826.082 2.822.07 2.795.08h.046l.016.001 3.87.088 1.856.036.215.004 1.781.047.331-.005.471.011 33.922.772 7.143.183.686.004 12.854.244h3.324l.597.02h.002l7.426.146 1.866.048 18.412.28 19.633.252h.257l1.952.02.206.002 17.364.305 24.879.19.214-.003 11.101.048 1.059.004.548.001.792.002 7.225.026 4.466.013 5.745.016 2.573.003 3.761.013h.526l4.419.005h.008l1.292.008.89-.013 1.308.015.603-.014 5.696-.006 4.19-.007 18.093-.027 6.106-.069 25.547-.165 3.521-.03h.012l2.342-.026 19.565-.185 11.368-.14 5.435-.173 6.366-.085 2.065-.028.534-.008 2.339-.033 2.738-.04.587-.009 13.652-.27h.005l12.599-.232 2.211-.056 5.702-.148.385.02 2.535-.052 2.756-.05 12.77-.266.235-.011 11.178-.266 2.831-.103 10.657-.265 1.978-.04 1.424-.029h.022l18.467-.461 1.142-.046 16.626-.509 2.514-.069.317-.023 3.642-.129.229.011 2.313-.058 3.264-.08.268-.016.459-.027.421-.024h.02l4.189-.116 4.246-.125 1.772-.063.996-.017.919-.046.732-.033.59.002h.16l.036-.01 1.225-.09.686-.013.48-.018.073.002.228.015.625-.018h.009l2.808-.097 5.69-.198 1.393-.044 1.053-.046 6.075-.243 3.692-.119.52-.025 2.198-.07.59.007 6.314-.325 2.897-.03.756-.12.325.01 15.276-.633 2.144.013 4.12-.18-.053.653.143 1.214.381 1.203-.077.72-.541 1.952-.549 1.157-.676.6-.368.523-.117.444-.005.513.19.82.544 1.04 3.24 3.892.243.398.368.602.305.753.149.623.01.827.204 1.062.225.738.085.76-.138 1.086-.217.776-.532 1.404-.145.774-.174.266-.825.734-.215.42.048.416 1.27 2.57.4.508.308.134 1.985.212.997.288 1.476.912 2.368 1.107 2.533.888.66.311.54.307 1.695 1.306 1.535 1.051 3.266 4.138.902 1.748.95 1.536.312.646.049.626-.14.76.039.437.145.212.258.135 1.166.012.3.16.17.266.124.45.013.273-.207 1.071-.365 1.078-.515.784-.745.844-1.001 1.402-1.115 1.3-2.799 3.133-.801.756-.747.532-.41.63-.216.74-.029 1.113-1.282 2.706-.241.204-.363.69-.334 1.284-.216 1.41-.385.806-1.354 1.918-.59.491-1.395.687-.677.563-.228.565-.108.589-.014.766.126 1.225.487 2.924-.097 4.634.054 1.428-.195.482-.074.623.25.624-.01.426.68 4.565 1.081 3.753 1.784 5.43.125.646.013.067.106 1.887.17.476.708 1.007.454.84.233.543.204 1.003-.002.335-.428 1.98-.075.91.028.336.697 1.915.205.738.105.728.008.439-.24 1.13-.023.519.022.49.104.364.14.391.203.247.782.143 3.035 1.435.284.217.514.673 1.213.968.527.548.398 1.418.013 2.243.207.889.375.881.539.784.074.266-.408 2.956.187.811.58.286 1.058-.192.613.426-.03 1.456.294 2.706.473 2.162.506 1.504.23.923.126 1.475.22 1.15.959 1.079.451.395.035.365-.17.405-.239.15-.341.052-.01.73.18.48.657.056.312.23.276.364.238.514.038.82.174.444.367.228.19.01.49-.073.338-.3.69-.005.584.199.518.54.166.375.063.563.174.567.444.483 1.423.857.228.056.876-.216 1.404.714.687.46 1.023.936 1.275 1.876.431.399.521.285 1.35.337 1.888 1.188.475.216 1.124.29.66.057 1.03-.192.893-.312.36.002 1.147.431 1.966 1.23.496.173 1.398.486 2.978.598 2.158.669 1.261.285 1.638.2 5.23.91 1.293.308 1.382.115 1.357.234 1.343.39 2.459.584 1.84.327 1.61.449 1.643.842.44.355.56.646.307.837.15.78.964 1.523.327.802.698 2.173.078.904.145.553.238.415.969 1.554.36.434.655.484 1.714 1.613.45 1.974.809 1.54 1.294 1.081.285.717.61 2.481.659 1.747.027 1.087-.812.976-.736 2.092-.997 1.318-.062.498.086 1.103.387.99 1.13 1.248 3.395 2.397 2.698 1.324 2.36.67 1.24.54 1.688.452.417.238.414.304.762 1.117.285.852.172 1.482.108.336.402.597 1.045.543 4.563 1.754 1.604.75 1.012.59.67.584.85 1.006.484.36.377.101.651-.053.428.14.483.382.048.051.55.585.897 1.715.34.417 1.532 1.49.96.396.376.34 2.148 3.52.804.796.61.39.36.37.402.651.114.471-.023.276-.12.279-.406.47-.125.32.158.867.048 1.25-.434 2.412-.348.537-.488 1.317.044 1.184 1.123 2.29.352 1.263.478 1.05.471.527.9.73 1.53 1.591.767 1.179.212.796.573.68 2.46 1.976 1.512.764 1.254.937 2.778.263 1.476.366 1.595 1.325.027.022 2.904 1.065 2.486 1.588 1.97.747 2.028.413.785.023 2.301 1.063 1.629.976 1.232.581 1.02.744.344.688.197.705.224 1.262.677 1.576.63.513 1.039.411.441.044 2.425-.101.537.508.75 1.098.184.573.195 1.46.039 1.479-.144 2.254-.585 2.386.57 2.577.177 2.307.226 1.75.173.326.71.482.735.888.418.46.112.23.209.56.138.763.182.519.697.978.456 1.155.232 1.115.006 1.442-.703 1.606.054 1.35-.313.628-.72.87-1.07 2.615-.233 1.032-.03 1.457.208.769.52.781.585.495.687.977.181.398-.01.416-.064 2.655.076 1.782-.403 1.735-1.016 2.896-.647 1.5-.279 2.065.07 1.737-.257.767-.83 1.838-.058.288-.192 1.4.008.632.458 2.057.287 2.098-.015.523-.123.463-.84.828-4.186 1.81-.77.485-2.856 2.196-.889.682-1.426.982-.653.673-2.217 1.077-3.376 3.65-1.084 1.62-.577 1.618-.107 1.078-.123 1.241.087.864.71 1.72.086.387.077 1.012-.049.87-.148.656-.353.65-.365.41-1.462 1.234-.314.379-.274.531-.155 3.005-.798 3.55.088 1.213 1.048 8.361-.206 1.608-.22.572-3.016 1.809-2.525.742-2.42 1.015-2.141 1.498-.42.502-.855 1.784-.715.58-.796.443-.79 1.122-.923 1.648-2.275 2.641-1.88.863-2.308.426-1.593.127-1.879-.197-3.024-.914-1.19-.175-2.26.501-1.567 1.421-.569.27-1.611.326-1.318.529-.607.391-.976 1.05-.218 1.808-.225.57-1.782 1.932-2.023 1.363-1.093 1.136-1.406 1.73-.806.621-1.537.38-1.525.038-2.123.945-1.505.457-3.316.666-2.068.528-1.877.194-3.226-.065-.888-.056-1.315-.26-3.15-.16-2.607.128-1.904-.138-1.36.162-1.04.296-.58.259-1.409.974-1.798 1.513-1.59 1.201-1.407.921-2.769 1.242-.72.58-.835.33-2.98-.413-.518-.158-2.058-.898-1.307-.726-.697-.035-.756.125-3.06 1.684-.906.263-2.35.39-1.364.778-.396.316-.592.55-.268.375-.26.648-.279 2.18.01 2.495-.066.457-1.873 3.316-.185.779-.527 5.138-.005 1.211v.047l-.015 3.982-.172 1.58-.366.765-1.34 1.55-.707 1.523-1.194 4-.454 1.033-.824 1.24-.53 1.234.156 1.72.218.47.437.468 1.364 1.147 1.242 1.526 1.81 1.562 1.337 1.397 1.131 1.478 1.75 2.674 2.21 3.83 1.754.441.425.014 2.181-.609.746-.086 1.488.657.461.367.842.944 1.376 2.551 1.69 2.436.842 2.073 1.382 1.633 1.733 2.815.074.377-.198 2.076-.068 2.348.057.418.025.071.598 1.68.235 1.887.173.717.296 2.024.046.753-.32 3.106.11 1.471-.085 1.091-.451 2.276-.762 1.728-.38 1.43.038.624.513 1.337.434 1.538.149.765-.001.84-1.08 3.6-.265 2.299-.336.682-.53.527-1.509.793-.917.721-1.936.896-.735.63-.867.959-.524.815-1.146 2.58-.853 1.012-1.372.892-.336.31-.795 1.082-.374.76-.384 1.25-.847 2.07-.333.432-1.236.92-1.495 1.792-1.825 1.841-.412.733-.5 1.922-.07 1.216.122.618.809 1.885.208 1.233-.008 1.41-.562 2.55-.265.796-.61 1.264-.815 1.27-.29 1.099-.63 4.118.117.653.214.466.523 2.238.07 1.006-.1 1.26-.068.151-.414.914-.503 3.225-.154.633-.225.432-.216.316-2.08 1.75-2.409 1.572-4.61 3.319-.23.165-1.654.31-3.147-.337-4.481.195-.792.119-.778.291-.999.6-1.696.401-4.577 1.394-4.958 2.76-1.344.817-.777.662-.86.989-2.042 3.946-.776 1.668-3.2 3.14-.537.99-.151.571-.04.862.136.973.345.705.537.45.972.415.99.258.557.406.43.527 2.078 3.083.197.406.642 2.076.127 1.17-.003.823-.106 1.203-.409 1.934-1.398 3.73-.236.872-.192 1.23-.018.704.179 1.435.582 1.803.664 1.676.245 1.283.065 2.068-.04.423-.377 1.472-.393.46-.526.432-.96.582-1.31.414-2.449.265-.404.196-.548.65-.465-.522-.524-.293-2.418-.667-3.652.338-2.963.383-.747-3.219.08-.498.01-.283-.104-.087-.204.008-.573.4-.678.128-1.112-.28-.232-.157-.113-.235-.26-.243-.768-.327-.676-.004-.61-.173-.358-.212-.297-.521-.12-.658.053-.643.743-1.36.33-.98-.03-.307-.13-.167-.774.067-.638-.136-.581-.485-.136-.305-.007-.5.237-.397.86-.817.301-.374.108-.331.015-.442-.151-.816-.199-.298-.168-.151-.377-.062-2.318.255-1.368-.076-1.723-.386-.606-.24-1.096-.642-.896-1.046-.192-.368-.152-.362-.166-.884-.603-1.612-.637-.997-.604-.523-2.131-.942-.7-.446-.648-.464-.405-.457-.305-.581-.184-.858.007-.539.456-1.877.063-1.56-.183-1.012-.176-.342-.29-.287-.506-.226-1.988-.343-2.509-.649-2.554-.266-1.652-.367-1.096-.84-.338-.492-.135-.464-.013-.532.812-2.425.038-.425-.162-.394-.393-.496-1.182-.915-2.436-1.307-.747-.676-.521-.586-1.46-2.39-8.65.71-1.44.122-.725.052-2.107.152-1.654.118-1.166.115-5.468.514-10.804.7-.58.078-.7.094-3.55.172-4.22.254-4.721.273-5.832.369-.247-.019-1.953.17-.132-.01-1.475.071-.535.065-12.718.578-2.498.152-.84.038-2.43.087-2.88.128-9.5.427-4.949.24-.036.02-2.949.15h-.004l-4.406.246-11.298.469-1.2.01-3.065.14-.107.011h-.335l-14.597.816-8.792.404-.203.009-7.244.315-.483-.008-3.776.119-4.219.131-2.316.092-10.786.202.01.016-1.081.02-3.407.065-.861.047-2.466-.005-1.62.079-2.1.059-5.809.084-2.466.088-19.505.778-1.798.092-.185.01-5.694.264-19.059.517-8.704.059-4.252.044-4.42.047-10.291.1-3.594-.046-.243.018-8.741-.082-.532.009-.087.014-3.071-.013-.871.022-.445.013-.312.01-.284-.024-.678.031-.087.014-.058-.009-4.76.118-8.99.208-.468.003-.403-.006-1.059.02-1.26.019-2.022.043-4.905.028-.903.015-1.36-.004h-.84l-1.14-.045-3.056.006-.628.003-6.284.027-.495.036-3.392.038-1.944.025-6.824.072-.151.013-.239.012-1.999.025-3.319.043-.096.009-.119-.029-.234.026-.188.017-3.667.057-1.971.007-5.917.09-2.848.04-7.041.065h-.037l-1.334.004-.288-.022-21.563-.064-8.42-.04-1.14.02-2.43-.074-2.144-.022-1.801-.028-.023.005-3.3-.034-10.909-.115-4.638-.062-1.613-.005h-.086l-2.76-.026-6.812-.134-.485-.014-.193-.003-.536-.02h-.05l-7.917-.188-5.808-.163-7.72-.286-4.934-.192-.266-.006-8.75-.356-5.678-.247-1.342-.069-.576-.06-11.149-.439-.709-.046-2.052-.092-6.14-.282-1.733-.081-3.844-.075-11.789-.57-1.65-.074-2.727-.112-1.467-.033-.471-.023-.055-.01-.238-.012-1.313-.076-5.137-.245-1.458-.076-5.829-.283-1.395-.068-.028-.002-.171-.01-.094-.005-.63-.034-.202-.011-.418-.023-17.403-.778-3.389-.162-2.453-.164h-.004l-6.327-.324-8.224-.4-8.553-.424-.196-.016-.991-.06-3.32-.201-2.91-.178-5.645-.324-4.689-.332-6.956-.306h-.009l-8.987-.478-2.927-.176 1.06-.714.91-.74.507-.827.206-.577.063-.68-.132-.706-.224-.455-.993-.987-.943-.71-.353-.354-.3-.512-.15-.642.036-2.183-.1-.83-.203-.633-.48-1.02-.813-1.201-.675-.83-.427-.446-.889-.64-1.32-.56-1.494-.2-1.32-.392-1.376-.855-1.563-1.333-.287-.49-.16-.556-.189-2.339-.254-.805-.389-.844-.978-1.207-1.65-.96-.715-.362-.263-.045-.908-.7-.3-.72-.445-2.183.07-.888.357-1.152.513-1.129.747-1.022.904-.872.527-.384 1.287-.593 1.379-.494.96-.56.598-.47.63-.667.316-.375.276-.525.197-.768-.002-.154-.013-.803-.171-.58-1.09-2.688-.178-1.522.109-.796.161-.47.88-1.667.24-.991.054-.838-.537-2.082-.801-1.755-.175-.897.006-.493.15-.649.14-.278.465-.683.244-.194.59-.361 2.106-.474.839-.454.574-.458.62-.855.23-.48.225-.904-.01-.847-.147-.5-.358-.774-.117-.255-.634-.805-1.745-1.717-.335-.464-.476-.903-.176-.623-.228-1.628-.02-1.438.444-2.122 1.34-2.597.3-1.696-.084-.668-.162-.537-.453-.887-.778-.8-.796-.643-1.22-.497-1.112-.75-.492-.442-.536-.877-.25-.883-.014-.692.196-.654.418-.924.969-1.561.176-1.235-.047-.822-.103-.444-.186-.317-1.16-1.207-1.39-1.683-.323-.798-.057-.644.199-.951.531-.856 1.176-1.08.823-.992.272-.618.231-.97-.056-1.077-.264-1.514.078-3.327-.362-1.377-1.42-2.745-.43-1.2-.135-1.388.02-.8.374-.984.057-.072.741-.944.684-.566.348-.126.344.034.334.2 1.827.56 1.004-.216.684-.852.124-.775-.373-1.137-.881-.878-.973-.502-1.192-.292-6.784.484-.73-.172-.543-.345-.698-.891-.004-.01-.375-.947-.168-1.309.47-1.78 1.577-2.29.41-.783.298-.947.02-.44-.04-.801-1.305-4.159-.036-1.221-.375-2.012-.497-1.387-.102-.744.064-1.437.369-1.203 1.103-.49 2.157.134.229.27-.054 1.218.699 1.957 1.288 1.167 1.192-.566.857-.702.638-.852.264-1.249-.382-2.275-.477-1.1-.698-.87-.819-.516-1.57-.489-2.181.104-1.236-.234-.53-.244-1.977-1.427-1.093-1.088-.876-1.198-.49-1.142.019-.738.308-.506.42-.321 1.712-.723.85-.581.71-.788.378-1.062-.033-.96-.798-1.934-.202-1.324-.065-.426.119-.652 1-1.912.205-1.02.008-.763-.298-1.405-.065-1.462.167-.489.24-.385 1.068-1.12.33-.449.207-.438.139-.716-.03-.73-.299-.851-.444-.742-1.037-.927-.567-.304-.762-.248-.672-.01-1.605.597-.794-.035-.464-.16-1.155-.813-1.398-.555-1.198-.173-2.025-.485-.6-.367-.417-.453-.642-1.096-.425-1.03-.028-.283.1-.248.514-.648 1.337-.93 1.472-1.362.277-.42.358-.543.186-.44.055-.43.018-.621-.127-1.228-.702-3.078-.22-.502-.558-.596-.724-.338-.955-.154-.482.046-.533.25-.643.626-.184.284-.435 2.439-.686 2.85-.378.741-.233.2-.397.165-1.104-.09-.816-.356-.609-.553-.807-.97-.54-.86-.783-.976-1.077-.68-1.129-.53-.211-.247-.582-1.521-.237-1.593.084-.732.403-1.455.294-.548 1.111-1.293.386-.66.212-.597.032-.6-.074-.625-.207-.595-.327-.495-.417-.374-1.869-.898-.427-.337-.697-.772-.61-1.107-.264-.707-.217-.856-.048-.7.06-.766.295-.827.333-.463 2.109-2.199.48-.8.472-1.518-.004-1.071-.318-1.2-.261-.48-1.659-1.578-.494-.556-.436-.655-.393-.708-.063-.976.004-.05.099-1.097.21-.514.386-.593.892-.665 1.037-.378 2.135.598 1.216-.09.994-.65.46-.645.128-.363-.008-.386-.113-.38-.24-.527-.628-.966-1.135-.893-2.171-1.266-.407-.742-.082-.59.016-.657.327-1.243.295-.41.805-.507.876-.226 1.067-.526.749-.877.274-.725-.004-1.943.267-1.275.693-1 1.06-1.126.315-.8-.02-.643-.322-.89-.319-.589-.831-.895-.79-.502-1.87-.614-.644-.313-.783-.623-.536-.73-.23-.617-.175-.892.01-.526.534-1.87.02-.806-.285-.9-.51-.87-.314-.366-1.002-.787-1.073-.495-.663-.493-.525-.656-.424-.53-.332-.612-.207-.633-.075-.51-.018-1.449-.186-.67-.457-.808-.842-1.052-.48-.948.002-.742.205-.486.265-.387.731-.435 1.806-.501.4-.271.467-.77.116-.533-.036-.725-.918-2.076-.121-.833.173-.582.162-.27 1.123-1.2.34-.682.698-1.836.086-.909-.071-.39-.419-.607-1.248-.743-2.238-.52-.61-.025-1.1.169-.918.379-.455.085-1.034-.125-.291-.157-.607-.687-.127-.266-.064-.486.434-.944.757-1.184.168-.449.055-.44-.132-.532-.469-.756-.933-.511-1.692-.203-1.372.442-.383.545-.679 1.254-.326.367-.238.131-.633.033-.974-.45-.594-.61-.18-.319-.03-.396.106-.803.505-1.038 1.682-1.175.666-.762.312-.69.007-.667-.245-.764-.252-.385-.913-.826-.903-.43-1.237-.167-1.157.371-.24.261-.734-.214-.397-.196-.674-.522-.384-.55-.191-.457-.003-.009-.343-.95-.342-1.69-.032-1.965.076-.74.415-1.446.431-.876.374-.53.684-1.45.224-1.396-.037-1.393-.2-.67-.45-.977-.374-.492-.59-.566-.928-.472-2.23-.594-.696-.39-.59-.565-.51-.784-.394-1.376-.339-.708-.882-1.006-1.718-1.222-.614-.685-.722-1.291-.23-1.051-.038-1.073.547-1.814-.038-1.594-.136-.504-.31-.658-1.035-1.505-.087-.549.29-.688.228-.196.01-.008 1.714-.37.881-.072.413-.145.655-.494 1.303-1.58.147-.305.016-.43-.978-1.357.17-.32.266-1.595-.127-.947-.307-.947-.63-1.098-.752-.894-2.111-1.57-.002-.002-.608-.7-.669-1.227-.328-1.201.114-2.328-.054-.94-.085-.506-.232-.665-.471-.85-1.217-1.558-1.716-1.078-.943-.703-.703-.682-.799-1.228-.483-1.622-.022-.641.078-.793.15-.536.499-.863.918-1.964-.049-1.072-.725-2.406-.005-1.358.356-1.486.294-.579 3.753-4.08.531-.922.619-1.77.14-1.002-.07-2.023-.479-2.282-.073-.28-1.37-1.973-1.9-.793-2.094-.385-3.128-.493-1.558-.45-2.355-2.315-.534-1.227-.264-.32-.62.123-.923-.465-.367-.978.348-.585 1.625-.676.155-.427-.083-.638.37-1.167.224-2.132.104-1.903-2.571-.27-.58-.84.033-.042 1.478-1.848.374-.257.147-.254.037-.29-.107-.216-.686-.227-.561-.515-.075-.28.092-.362.144-.25.004-.339-.272-.393-.44-.199-.16-.149-.042-.271.195-.41.024-.27-.532-2.183-.615-1.562-.804-2.469.111-.518-.113-.558-1.396-2.201-.98-.52-.574-.606-.067-.33.17-.794-.005-.647-.593-1.081-.186-.137-.452-.048-1.904-1.628-.815-1.379-.198-.07-.976-1.324-1.446-.952-.855-.247-.69-.124-1.926-1.305-1.294-1.184-1.405-1.05-.135-.162.155-.578.38-.195.452-.833.088-2.208-.228-.103-.822.124-.857-1.991z"/></svg>