<svg height="1000" width="1000"><path class="americon" d="M188.113 637.966l.782-.387.801-.767.162-.284.781-1.725.354-.867.179-2.833-.054-.781-.105-.726-.367-1.53-.256-.52-.106-.46-.003-.295.103-.398.103-.184.765-.293.5.133.217-.03.884-.825.624-1.04.199-.451.135-.472-.009-.422.204-.467.461-.777.392-.485 1.396.002.607-.208.877-.861.334-.576.552-1.266.192-1.568-.453-.688-.017-.304.242-.565.361-.367.437-.193.41-.286.81-.82.135-.305.013-1.357.59-2.806.296-.731.324-.63.644-.273 1.05-1.798.385-1.521-.143-.737.135-.993.473-.531 1.102-2.036.037-.345.172-.734.716-1.101.828-.385.214-.402.221-2.029-.141-.75 1.847-2.36.591-.387 2.407-1.07.741.144.69-.018.68-.35.549-.41.87-.723.498-.603.2-.167.402-.16 1.729-.305 1.202-.613.207-.127.298-.436.122-.36-.004-.15-.2-.484-.054-.314.02-.27.285-.803.31-.475.764-.782 1.532-2.705.494-.894.498-.9 1.27-1.295 1.822-1.597.854-1.344.48-.903.217-.798.492-1.57.432-1.293.397-1.16.493-.709.153-.319.027-.22-.313-1.046-.97-1.516-.373-.909-.055-.236-.555-2.587.18-.743 1.105-2.065.15-.205.061-1.877-.083-.431-.191-.45.014-.117.68-1.097 1.094-.553.49-.322 1.651-1.668 1.127-1.256 1.39-2.206.002-.278.008-1.232.097-.738.111-.291.782-1.288 1.972-1.064 2.37-3.42.165-.286.093-.306.532-2.488.044-1.158 1.56-4.202.117-.583-.063-1.34.047-.298.654-2.718.795-1.987.49-1.206.435-.54.586-.364.536-.54.112-.197.202-.916.083-.774.006-1.228-.112-2.209.118-.964 2.098-3.915 2.707-4.89.767-1.345 2.118-1.888.547-1.949.475-2.083.674-.794.53-.458 1.169-.99.217-.133.661-.208.034-1.33-.327-.994.005-.15.59-2.396.507-1.503.475-.497.84-1.438 1.22-2.86 2.062-2.625 1.212-1.021.7-.315.102-.116 1.838-3.292.072-1.749-.147-.301-.425-.368-.269-.586-.4-.873-.436-1.18-.462-1.343-.595-.817-1.607-2.015-1.059-1.035-.387-.53-.621-1.404-.07-.664-.066-2.464.309-2.588-.124-.416-.824-1.87-.22-.246-.416-.102-.544-.262-1.627-1.72-1.407-1.532-1.116-.374-2.51-.625-.361.167-.37.304-.636.173-1.244-.073-.526-.287-1.328-1.61-.578-1.734-.883-1.893-.08-.1-.948-.61-.31-.166-.344-.081-1.945.005-.404.215-.459.395-.554.362-.411.183-.426.103-.336-.068-1.758-1.253-.494-.901-.06-.21.03-.439.15-.46-.004-.546-.19-.76-.362-.843-.144-.336-1.589-2.63-.453-.473-.981-.775-1.234-.84-1.215-1.647-.22-.427-.577-1.327-.253-.93-.447-2.87-.963-1.868-.48-2.14-1.64-2.02-.39-.89-.105-.16-.12-.449-.3-2.486-.688-2.898-.897-2.906-.51-.952-.776-1.043-.278-.132-.26.048-.63-.143-.81-.47-.253-.67-.023-.601.01-.263.079-.202.288-.37.179-.119.275-.127 1.356-.123.417-.41.422-1.179.07-1.03.092-.614.194-.317 1.289-2.168 1.294-2.4.151-.537-.04-.406-.175-.425-1.568-1.96-.942-1.178-.943-.867-.245-.512-.044-.55.052-.26.68-1.36.35-.811.1-.654-.262-1.545-.454-1.489-.197-.497-.305-.59-.2-.282-.305-.38-1.009-.963-.326-.48-.014-.286.06-.253.608-1.229.043-.396-.168-.537-.27-.378-.669-.533-.932-.329-.79-.83-.372-.493-.135-.364-.044-.365-.008-.838.081-.34-.007-.773-.057-.166-.343-.387-.261-.22-.343-.15-1.01-.202-.571-.205-.382-.245-.415-.485-.157-.477-.004-.148.066-1.56.175-.321.348-.473.555-.544.219-.148.252-.359.533-1.661.037-.405.383-1.436.179-.226.097-.293.127-1.107-.147-.58-.283-.39.227-4.981.04-.917.011-.295.425-9.349.958-21.133.64-15.363.076-1.379 1.755-40.109.16-3.65.155-3.603.124-2.846.13-2.952.186-4.483.53-11.667.09-2.508.042-1.168.167-3.206.072-1.767.131-2.98.164-3.768.087-1.923.21-5.902.027-.69.013-.71.1-3.353.011-.042.12-2.064.554-13.77v-.007l.01-.24.01-.423.126-3.07.091-2.158.078-1.665.006-1.166.013-.132.038-2.086.005-.048.03-.486.014-.215.107-1.599.26-5.786.055-2.197.75-16.819.072-1.457.447-8.996.256-5.268.254-5.195.42-6.462.032-.433-.013-.119.016-.286.003-.07.001-.036.014-.382.004-.049.223-3.1 1.24-21.446.002-.045.287-6.78.005-.054.036-.878.001-.039.39-9.181.774-15.882.057-1.018.222-3.725.562-12.212.635-12.676.186-3.719.688-16.288 23.658.892-.004-.02 29.212 1.018 3.568.06.596-.064 27.515.82-1.692 65.523-.071 2.74-.305 8.917-.262 13.656-.19 4.634-.05 3.262-.097 1.624-.056 2.834-.236 12.031-.208 6.296-.028 1.397.029.866-.243 7.945-.05 2.984-.001.02.036.05.873.75.678-.251 2.002 3.126.76 1.514.26.662.102 1.013.93 1.371 1.21.26.334.553.423 1.597 1.721 2.024 1.755 3.448 1.109 1.501.476.434 1.743-.834.536.86.366 1.11 1.628.957.567 1.736-.286.74.02 3.191.611.683.251.71.197.639-.053 1.204.306.691.626.495 1.859-.797.586.14 1.46 1.894-.312 1.866.622 1.27.39.327.743.029.433-.22.552.315 1.89 1.67.602 1.04-.319 3.25-.908 2.278.533 1.643 1.3.835.59.142 1.242 1.602.364 3.726-1.573 2.37-1.32.103-1.229 1.158-1.13 1.582-.159.8.098.803.515.615 2.163.833 1.226-.169.444.853-1.064.51.082 1.48 1.275 1.883.63 1.742 1.766-.23 1.032 1.3 1.855-.472.516.282.016.009-.308.82-.709 1.66-.845.592-2.012.206-1.943-.416-2.282.496-.968 1.043-1.758.422-1.046 2.563 1.81-.455 1.595.228.22.47.763.437 1.768.397 2.917 1.969.801 1.39.351 1.131.456.437 1.981-.484.693.241 2.743 1.88.671 1.424.544.395.759.066.464.436.178 2.346 1.462 2.429.446 1.455 1.324 1.085 2.193 1.192 1.47.241 1.237.96 1.217.083 1.374-.167.462.34.13.597.973 1.012 3.506-.081.493.502.626.278 1.817-.263 1.099.773.168 1.474.676 1.542.467.489.42-.024.754.627.354.58.224 1.473-.357.554-.455 1.554.018.77 1.27.664 2.21.23.54.939.04 1.576 1.014 1.679 1.85.203 2.039 1.329.992 1.09 1.47 2.43.218.884 2.705 1.79.067 1.125.25.84 1.407 2.28 1.235 1.635.402.244.414-.217.933.457 1.476 3.133.428 3.427.819 1.288.67 2.134.151.167 1.475-.257.243-.213.058-.332 2.46.518.03.56 1.292 2.087 2.035 2.573.305.386 2.777 1.4.23.727-.051.564-.652 1.089-.164.582.511 2.038-.054.707-.653 1.034-.418.137-.383 1.15.637.44 1.073.172.462.965-.456.578.05.967.667 1.11 1.453.654.6 1.293.883.62.692-.427 1.484-.268.27.254.115.93.29.45 1.098.982.81.429.616 1.15 1 .187.875-.159 1.693.489 2.27 2.752-.006 1.704-.19.874-.605.936-.541.184-.83 2.184.145.371 1.841 1.922 1.371-.038.245-.33.138-.395.702-1.216 1.16-.376 1.276-.068.283-.342 1.05-3.004.215-.046 1.985.473 2.337.557 1.502 2.322.573.348.534.73-.214 2.124-.797 1.006-.903.625-.089.82.64 1.84 1.305.164.62.386.279 1.008-.429.542.12.523 1.819.838.176.081.909-.05 1.998-1.18 1.307-.327 4.524.905 1.082.642 1.772.147 1.157-1.243.09-1.107 2.636-1.529 1.24.42.69-.291.81-.7 3.094-.575 2.555 1.096.019.023.75.932.361.881-.203.539.059 4.257-1.035 2.53-.095.537.101.724.242.66-.034.784-.71 1.056-.523 2.087-.302 1.96-.041.572.662 1.312-.874 1.55-.65.379-1.526.468-.97-.332-.859.167-.464.136-.252.464.282 2.874.522 1.018 1.052.417.345.832.28 2.298-.752 4.177-2.229 1.527-1.238 1.79 1.013 2.728.087.805-.272 3.311-1.648 3.38-.162.703.739 2.355-.158.573-.75.942-.543.378-1.104.387-1.09-.29-.503.779.212 2.481 1.517 1.006.196.554.407 2.262.22 2.316-.24 3.89-1.078.499-1.399 1.08-.528.18-1.016-.911h-2.363l-1.146 2.885.543 2.806 3.07 1.628 1.292.076 1.342 2.064-.162 2.486-.615 2.16-2.195 2.045-.234.637.12.721.266.636.446.322.517-.042.604 1.84-.38 1.019.061 1.104.592.677 2.78.971 1.433.461.557.519.748.43.24.868.53.584.138.746-.226.752-.673.478-.375.601-.718.512-.375.602-.336.217.016.307 1.693 3.253.832 1.069.866.27.745 1.65-.097.917-1.971 4.134-1.265-.498-2.409-.464-.64.523-1.38.497-2.67.096-.98.693-.495.64-.238.644.01.382.383.58-2.966 5.031-1.011.7-.658.852-.343.815 2.872 4.674 2.893 2.272.69 1.546.203.99-.387 4.616-.75 1.359-1.362 1.296-.71-.4-.573.23-2.378 1.445-.245.336.033.781.884 1.658.851.352.64 1.325-1.493 2.097-.4.832-.071 2.614.9.688 2.208-1.375.785.355 1.08 1.199.77.503 2.302-1.057 1.248.265.363 2.33.557.195 1.124.866 2.201 3.54 2.572.914 1.905 1.365.276.31.473 2.195 1.494 1.908 1.117.075 5.09-2.901.8-.747.851-1.313 1.278-3.846-.042-1.205-.35-.616.344-1.089 1.904-.086 2.302 1.446 1.025-.147.588-1.21.6-.798 2.377-.22 1.843-.628.57-1.087.043-.473-.358-.473.081-.258.851-1.33 2.073-.301 1.288-.663.415-.782-.108-.947.118-.989 1.313-2.219 3.187-2.85 1.386-.013.346-.73.106-.57-.61-1.622-.059-1.466.098-1.578.341-.433 2.71-1.166 1.425.512 2.737 1.883.804.552.376 1.39 1.025 1.783 1.534.972.287.388.168.549-.332.977-.176 2.014 1.769.648 2.305-.925 3.632 1.454 1.56 1.37.374 1.276-.012 1.137-.137.519-1.393 1.91-1.298 6.165 2.401.076.588-.447.591-.05 1.72-.02 1.172.359.654 5.368-2.233 3.512.09.418 1.81 2.728.124.494-.424 1.3.286 1.013.414.547.991.495 1.552 1.374.129.292.077.689-.253 2.747-.402 2.59.174 2.138.307.6 4.484 5.559.138.962-.318.748-.033.774.7 1.54.6.588.413-.026.842.41.83.639.678.897.269.864 1.037 2.049 3.613 2.89.951 1.892-.424 1.489 2 5.05 1.941 2.06.79.069.799-.387 2.356-.074.661 1.06-.379 1.007-.87.947 3.41 3.925 1.105.223.828-.16.424-.297.838.745.31 1.773-.043 1.48 1.247 3.791-.852 1.159.028 1.883.23 1.146.152 2.197-.478.87-1.758.78-.703-.084-.584-.193-1.3.259-.395.859.772 1.984 1.635 2.23 2.001 6.114 3.208 3.026 3.705.622.665.33 2.074 1.994 1.018 2.579-.051.234-.766.483.082.503 1.208.907 3.822-2.008.436-.604 1.743-1.31 2.967-1.464.841 1.174 2.817.616 1.492.9 1.085 1.136.41.86 1.528 1.076.532-.276 1.708.517.896.5.036 1.097-.59.645.303.988 1.784 1.941 1.454 1.192.172 2.771.34 1.498 1.581.782 1.41 1.578.027.905-.238.68.248 1.552.29.943 1.408 1.647.238 1.021-.372 1.124-.304.352-.847.197-.776.492-.928 1.617.155.883 1.194.722.947 1.713 2.33 1.696-.075.792-.703 1.05.397 1.188 3.47 2.1.065 1.021-.932 1.994-.855.972.79 2.064 1.183 1.32.405 2.832 2.19 2.185 3.037 2.3 3.512 1.797 2.902.838.483 2.103 2.653 2.684 1.033.206 2.313-1.81.57-.843.103-.153-.003-1.93-.97-2.032-1.442-2.024.673-2.72 2.836-3.31 1.521-2.606 3.1-.969 1.313-1.123 1.524-.759 1.1.141 3.609 1.472.67.631.372.081 5.676-.923 1.761 1.247 1.038.014 2.205-.62.836.098 2.283 1.026.691.704.053.539 1.123.418 2.538-2.41 1.27.537 2.498 1.737 4.729 1.735 1.7-2.669.845-2.638.187-.94-.426-4.841.417-.941.507-.437 2.862-.177.39-.396-.051-1.106.188-.482.484-.58 2.013-1.558 2.655-.256 1.544.126 1.257.67.361 1.007-.22.791.788.778 3.717 1.257.41-.012 1.409-1.24 2.734.115.736.458.433 1.037 1.824.964.502-.026.495-.345.247-.935 2.306-1.074 1.52.203 1.626.572.225-1.017-.119-.671.199-.547 1.852.496 1.846.85 1.385-.235 2.747-1.954.301-.929 4.288-.274 1.477-.915 1.673-.168 2.218 3.179.748 1.835 2.155 2.174 1.296-.398.104-.624 4.22-2.068.257-.548 1.165-1.014.874-.358 2.097-.177.524-.935.443-1.384 2.192-.072 6.285 1.072.288.049 1.233-.779.86-1.04.571-.214 2.276.911.608.063.941-.407 2.255 1.058.604.538 1.704.462 2.809-.265.352-.524-.199-1.012-2.276-1.062-2.79-2.848-.589-1.69-.221-1.252.328-1.173 1.442-3.125 2.83-4.206.31-1.901-.905-.363-.707-.664-.611-1.684.048-.645.299-.385.359-.162 4.085-1.848.887.002.568.8.983.388 1.41-1.796.225-2.899-.339-.273.333-.81.83-.399.796.463.228.133.882 1.042-.012.527 1.14 1.394.747.246.627-.56 1.74.551 2.82 2.846 2.932 4.442-.685 1.762 1.41.725.967-.255 2.983 3.581-.542 2.277.269 2.69.53.785 2.339.576 1.183.556.718.525.783 1.945.899.623.713.07 1.641 1.344.558 2.5.93 2.28.9.796 5.953 2.009 1.35.184.3 4.887.017.305.55 8.263.137 2.896 2.103 31.08.155 1.37.448 7.068.007.282.004.06.33 5.492.35 2.734.176 2.24.09 1.155.64 9.073.813 12.621.838 12.127-.006.057.042.613.34 4.67.024.277.001.125.059.527.215 2.993 1.478 21.593 1.74 25.383 1.131 16.47.064.869.037.66.062.988.004.015.964 14.38.036.569.02.281.056.805.053.754.08 1.17.016.228.036.443.1 1.669.033.392.014.215.002.037.001.271.029.352.015.185.418 5.996.048.767.046.692.8 12.313 1.452 20.964 1.035 19.304.567 9.61.067 1.129 1.402 21.487.633 9.492.791 11.903.116 1.676.306 4.667.06.897 1.347 19.53-38.056 2.524-.519.025-.478.022-4.72.433-3.699.247-.054.003h-.002l-25.064 1.425-12.966.791-4.038.21-.022-.002-9.942.516-10.042.584h-.002l-5.612.384-.08.006-.89.058-2.054-.546-4.763.206-2.665.15-12.517.516-6.648.278-.025.02-20.36.876-6.337.229-8.174.372-4.599.208-.004-.006-4.904.22-.18.006-2.812.109-7.19.297-2.232.074-25.65.994-.17.087-9.22.348-1.809.166-4.02.038-.592.026-3.03.118-6.715.213-.441.08-27.248.964-3.26.1-2.695.128-7.35.162-10.412-.515-4.944-.087-.675.007v-.013l-1.398.017v-.02l-4.702.061-.018-.018-18.03.106-19.2-.092-3.17.127-.001.005-10.339.024-12.657-.528-8.853-.525-2.552-.063-4.63.103-2.413.183-1.548-.008-12.16.46-.668-.005-21.969-.239-.365-.083-6.155.009-28.211-.55-4.036-.15-25.244-.445-.97-.18-.827-.041-10.255-.322-2.62.001v-.001l-.696.027-.002-.006-1.22.02v-.002l-.807-.023-.003-.007-12.629-.358-.32-.016-17.442-.495-3.694.019-9.817-.368-2.02-.118-.282-.006-1.442-.034-.2-.09-.9.001-1.534-.118-5.875-.252-.49.046-4.029-.151-.083-.055-35.346-1.618-4.145-.064-.926-.213-.812-.11.748-16.349.047-2.168.248-4.596 1.199-26.437.09-2.96 1.522-34.056 1.164-25.13.004-.022.007-.038 1.301-29.949.005-.034 3.388-75.819.005-.157.076-2.048.018-.329.033-.591.016-.213.051-1.199.028-.951.014-.468.034-.526.06-.927.205-4.478.063-1.524.042-.73.017-.292.118-3.173.062-1.178.1-2.474.025-.14.454-10.137.53-1.354-.132-.779-.88-.89.383-1.22.448-.29.659.028.547.208.391-.3.153-.53-.275-.493-.847-.36-.307-.327.188-.616 1.035-.407 1.167-.272.166-.025.582.164.182-.052.676-.437.065-.152.326-1.509.456-2.11-.006-.786-.061-.621-.165-1.299 1.363-.198.588-.534.066-1.285-.727-.598-.108-.609.403-.602.416-1.202.06-.89.17-.625.075-.344-.414-.305-.623.092-.553-.89.72-.455.903-.705 2.138-.136.218-.945-.606-1.387.68-1.21.286-1.443-.008-.35-.224-.77-.553-.88-1.22-1.042-1.56-.872-.062-.092-.057-.581-.137-4.336.32-.386.706-.33 1.003-.067 1.372-.257.535-.37.423-.405.57-.97.073-.286 3.234-5.746.132-.234.18-.514.034-.282-.1-1.516-.392-.778-.244-.367-2.141-1.739-.967-.371-.499.013-.473.257-.23.046-1.732-.465-.17-.07-.414-.383-.134-1.474.082-2.44.252-1.318-.13-.592-.213-.4-1.053-.405-1.378-.049-1.553-.069-.318-.106-.477-.354-.22-.061-.422.015-.4.231-.651.52-.381 1.453-.165.3-.298.112-.288-.047-.329-.26-.238-.88-.732-.955-1.042-.849-1.035-1.186-.127-.289-.201-1.246-.087-.221-.357-.638-.341-.46-.185-.165-.332-.127-.385-.005-.634.206-.303.171-1.012 1.062-.174.32-.074.38-.093.168-.466.47-.481.128-1.337.042-1.285-.251-2.143-1.748-.47-.413-1.739-2.064-.492-1.281.028-.188.248-.318.254-.778.11-.138.16-.113.962-.318.22-.158 1.183-2.07.07-.132.2-.725.018-.214-.557-1.359-.109-.147-.885-1.105-.336-.357-.599-.364-1.02-1.113-.66-.833-.655-2.364z"/></svg>