<svg height="1000" width="1000"><path class="americon" d="M234.93 413.706l.3-1.306.217-.424.557-.705.15-.446-.08-.383-.158-.735-.046-.782.086-1.055.407-1.475.051-1.261-.2-.45-.055-.343.106-.428.37-.774.324-.37.369-.274.118-.224.95-1.79.092-.48-.055-.424-.271-.882.015-.909.064-.5.426-1.317.543-1.234 2.014-3.99.316-.851.479-2.033.633-1.328 1.36-1.862.608-.904.216-.45.2-.221.734-.55 1.308-.597.375-.258.975-1.029.504-.51.353-.139 2.079-.062 1.13-.263.846-.427.472-.328.36-.362.414-1.214.061-.354.082-1.745-.122-1.096-.45-1.454-.371-1.556-.057-1.22.062-.59.242-1.023.257-.719 1.421-3.048.47-1.601.17-1.006.056-.693-.03-.993-.404-1.79-.14-.354-1.547-2.732-.327-.472-.442-.377-.817-.283-.79-.413-.424-.414-.243-.616-.052-.828.09-.723.165-.47.517-.8 2.9-2.433.763-1.353 1.978-3.188.789-.776.697-.507 1.185-.598 4.356-2 3.944-.872 1.454-.227.88-.44.674-.194.675-.047 3.785.13 2.628.49 1.413-.152.205-.125 4.098-2.491 2.132-1.165 1.865-1.337.203-.252.218-.35.171-.522.636-2.682.408-.742.067-.123.167-1.054.007-.852-.293-1.919-.15-.406-.055-.557.8-3.427.317-.906.769-1.016.597-1.024.276-.652.64-2.11.099-1.187-.094-1.052-.558-1.64-.061-.529.138-1.02.548-1.585.394-.59 1.658-1.43 1.376-1.41 1.102-.694.308-.342.85-1.689.405-1.027.365-.615.74-.858.304-.24 1.213-.66.785-.797 1.134-2.098.495-.652.793-.75.66-.483 1.689-.627.82-.546 1.323-.569.48-.41.328-.552.375-1.918 1.145-2.96.056-.708-.075-.654-.265-1.324-.344-1.16.01-.528.413-1.179.755-1.405.53-1.887.142-.913.004-1.246.473-2.595.012-.638-.117-1.723-.099-.615-.074-1.606-.393-1.453-.017-.062-.02-.355.211-1.973.303-1.736-.037-.323-1.276-2.484-1.057-1.466-.573-1.801-1.263-2.162-.992-2.24-.647-.85-.364-.339-1.21-.65-.634.023-1.877.37-.357-.04-1.448-.486-1.61-3.37-1.3-2.368-.856-1.318-1.033-1.265-1.423-1.434-.946-1.366-1.074-1.056-.337-.423-.153-.41-.019-1.459.527-1.005.776-.99.45-.84 1.267-3.29.695-1.237 1.23-1.218.359-.621.248-1.32.274-3.352.003-.04.083-1.02.78-4.293.207-.644 1.795-2.67.085-.381.156-2.103.377-1.818.261-.529.25-.297.535-.425.355-.24 1.2-.566 2.005-.175.78-.162 2.689-1.219.644-.055.585.075 1.054.696 1.674.892.426.167 2.484.543.724-.224.645-.44 2.414-.865 1.245-.684 1.419-.907 1.614-1.158 1.25-.728.505-.18.896-.181 1.157-.048 1.595.241 2.204.064 2.644.341 1.09.305.744.105 2.714.266 1.594-.04 1.777-.308 2.838-.345 1.297-.285 1.851-.658 1.287.068 1.32-.219.72-.47 1.298-1.366.995-.885 1.793-1.016 1.63-1.51.225-.466.303-1.509.891-.82.537-.29 1.145-.36 1.38-.168.496-.19 1.415-1.095 1.936-.273.991.225 2.488.969 1.57.29 1.35-.003 1.973-.208 1.641-.603 2.09-2.076.887-1.328.738-.894.7-.321.64-.441.838-1.447.387-.396 1.901-1.122 2.107-.696 2.176-.46 2.66-1.326.224-.467.279-1.341-.334-7.115.005-1.027.906-2.94.328-2.521.265-.43.29-.299 1.313-.944.334-.32.34-.526.169-.544.098-.728.001-.859-.047-.331-.485-1.497-.017-.733.186-1.038.16-.902.593-1.325 1.02-1.295 3.084-2.853 1.94-.763.594-.524 1.266-.734.794-.516 2.552-1.663.68-.358 3.646-1.25.763-.644.134-.381.047-.44-.104-1.787-.251-1.765.035-.532.254-1.167.067-.24.82-1.495.267-.629.056-1.468.37-1.723.644-1.221 1.046-2.374.454-1.436.053-1.507.229-2.234.035-.35-.126-.347-.515-.869-.46-.455-.388-.693-.125-.661.121-1.227.264-.854 1.073-2.134.665-.686.305-.508.043-1.142.698-1.308.089-1.215-.122-.955-.308-1.004-.524-.87-.12-.45-.066-.652-.139-.485-.08-.202-.321-.414-.561-.798-.568-.452-.124-.287-.075-1.489v-1.957l-.31-2.209.65-1.973.269-1.89.064-1.25-.069-1.243-.117-.495-.56-.975-.42-.464-2.05-.073-.37-.066-.849-.415-.496-.474-.468-1.373-.106-1.078-.12-.607-.244-.603-.812-.693-1-.571-1.31-.93-1.87-1.046-.66-.072-1.682-.48-1.612-.76-1.991-1.5-2.379-1.089-.02-.02-1.258-1.221-1.22-.406-2.325-.403-.996-.872-1.224-.743-1.944-1.827-.44-.61-.125-.685-.57-1.044-1.186-1.442-.71-.674-.363-.474-.334-.917-.214-1.088-.797-2.004.04-1 .497-1.08.33-.429.523-2.006.041-1.056-.076-.741.126-.26.373-.371.12-.227.037-.231-.065-.405-.296-.575-.28-.335-.489-.37-.625-.724-1.58-3.107-.296-.311-.783-.396-1.194-1.357-.26-.374-.644-1.504-.425-.529-.037-.046-.383-.354-.35-.146-.554.002-.31-.11-.385-.335-.65-.903-.528-.537-.814-.563-1.303-.737-3.732-1.777-.846-.526-.3-.53-.069-.29-.048-1.26-.184-.738-.57-.991-.329-.284-.336-.227-1.394-.492-1.01-.536-1.945-.719-2.188-1.292-2.706-2.242-.871-1.126-.262-.86v-.936l.084-.416.927-1.045.757-1.716 3.09.146.387.014 6.05.224 1.18.044.58-.017.783.016.056.002 1.489.058 4.992.107 1.51.07h.554l4.672.16 1.309.044 2.518.082 4.343.055.344.007.643.024 7.247.075 3.814.064.435-.025.27.02 1.726.082.308-.024 3.38.021 2.108.041h3.018l2.12.002 2.641.065 5.901.14.245-.041 2.384.018 6.773.266.201.03 2.182.067.258.03 1.424.075.07-.005 3.667.19 3.485.02h.078l10.937.173 4.396.065.27.007h.708l1.682.037 1.313.018 3.357.023 6.025.103.419-.012 2.77.063 2.128.075.757.021 3.79.126 1.217.073.434-.016.643.039 3.741.165 5.157.156 3.613.082h.075l1.024.02 7.286.15.152-.014.167.024.194.016 2.41.035h.002l4.36.04.028.003.523.043 8.706.214 4.946.15.466-.022 2.304.015.247.015 7.337.117.225-.015 4.903.06.585-.006.42.013 2.211.065 3.435.042 3.48-.016 3.585.016.017.001 2.589.002h.012l6.075.127.354.01 18.945.4 1.256-.016 1.371-.017 7.143-.312 8.467-.322 16.233-.153 5.61-.026 5.42-.073 13.887-.23 4.066-.074 2.659-.212 4.089-.086 2.06-.051.078-.002 10.38-.224 8.073-.01 7.345-.018 2.33.033 8.756-.028.313-.002 6.668-.042 3.417-.018 1.897-.047.38 3.368-.443 8.556-.1 6.008-1.3 3.396-.512.514-.006.007-.65 3.042-.475 2.218-.352 4.829.895 5.27L708 71.455l1.61 3.947L714.9 84.6l2.295 3.981.003.006 2.202 3.38L721.158 94l3.645 3.19 1.435 2.88.143.894-.15.844.448 3.148 3.734 11.512.219.675.599 1.843.632 1.945.004.02.89 4.309.103.497.149.367.389.095.318.556.43.763.234.007.085.186.007.253-.12.248-.185.145.097.659-.363.36.1 2.26.962 3.955 1.2 3.059 1.755 2.54.807 1.169.058.264.607 2.794 2.064 3.303 2.3 2.27 1.536.611.95 4.05.09 2.632-.085.961.067 1.85.309 9.533v.421l.062 1.665.296 9.962-.03.691.16 4.966.206 10.014v.028l.089 2.779.399 12.26-.008 4.226.243 9.72v.022l.688 22.27.011.376.007.638-.004.109.03.927.024.8.048 1.615.09 3.07.51 16.332.094 2.41.006.038v.001l.524 16.65.092 2.763-.047.234.129 2.299-.015.155.17 4.29.549 19.89v.01l.999 34.176-.007.05.218 7.393.001.057.056 2.392v.047l.001.208.035 2.292.653 35.974.01.108.188 9.914.07 3.71.072 3.733v.017l-.022.64.083 1.92.52 20.698v.016l.061 1.953.006.386.025 1.76.031 1.668v.457l.022.671.388 15.012v.022l.38 12.305.046 1.2.04 1.312.072 2.478.644 19.98.13 3.21.01-.004.221 6.642.247 7.41.102 3.109.093 3.24.198 5.38.028.654.07 2.498v.002l.044 1.325.019.54.101 2.87.078 2.012.006.185.417 15.222-1.666-.812-1.315 2.171-3.174.118-1.395 1.159-1.398 3.634.392 2.295.068.529-1.591 2.477.702 3.607.203.28 1.468 2.02 1.342.627.635 1.807.685 2.482-.292 1.26-1.476 2.33-4.172 4.08-2.577 1.458-.268 1.59-.367 2.182.458 2.798 1.5 1.654-.062.76.018.643.102.642.262.423.679.41.839.192.271.744.114 1.072.438.74.683.518 1.635.436 3.287 3.752-.21 4.004.787 2.5-1.17 3.1.171 2.203 6.618 2.709 2.408 2.944-.726 5.4-1.101 2.708-2.14 2.235-.34 3.369-.743 2.138.404.64 2.204 1.153 1.155.603.681 3.812-.716 1.48 4.346 6.693-.214 3.596.41 2.585-2.582 4.636-.29 3.313-1.497 2.319-1.895 1.166-6.435 1.953-3.426 4.92-.203 3.57-.605 2.338.474 1.453.049.512-.331.514-.389.2-1.125.285-1.762 3.567.169 2.057-1.283 2.655.765 3.419.286.653-.023.947-.371.83-.875.758-1.964.832-1.956 1.853-2.785 1.486-2.258.262-1.168.662-.51 1.276.089 1.513 1.035 1.017.787 1.098-.06.627-1.367 1.305-.357 3.659-.093.955-4.542 6.725-3.506 1.423-2.19 2.866-1.263 3.853.177 3.048.172 1.36-.225 1.05-1.056 2.321-.66.612-1.178.253-1.167-.82-.473-1.672.724-2.686-.38-.762-.795-.406-.826.376-.764 1.144-.502 1.86-.374 1.355-1.33 1.04-1.417 1.922-.584.092-.656-.322-.252-1.005.498-1.128.732-1.228.044-1.108-.987-.61-1.15.15-1.655 1.117-.62 2.347-1.294.848.45 1.747.946.64-.525.876-1.357.666-.34 1.168.133.84-.292.524-.7.138-.491-.159-.235-.597.078-.434-1.672-2.232-.717-.208-.05.165-.069.227-.077 1.171.236 1.382.314 1.845.053.312.165 3.17 1.193 2.077 2.275 2.284 3.093 2.045.496 1.349.03 1.393.877.739.291.982-.299.823-.988.39-1.36 2.255-1.444-1.057-.626.153-.938.013-.457.57-.468 1.413.067 1.64-.766.6-.957.172-1.555-.198-2.004.904-.47 1.1.673 2.065 1.02.206 5.743-2.92.774 2.026-.56 1.748-.772 1.96-2.9 2.064-1.702.74-4.648.169-.843 2.27 1.526 1.265 1.798-.739 1.389.944-2.097 2.425.27 3.38 1.345 3.257-.01 1.828-.444.874-.617.4-1.003.185-.518-.02-.637.311.129 2.454-2.432 1.74-.796-.123-1.221.941.547 1.533 4.818.828 1.396.222.987 3.118-.708 1.138-1.09-.433-1.965-.088-1.99.134-2.222-.75-2.064-1.68-1.293.009-.291.752.43 1.353.41.443 1.895 2.046 1.615 3.98 1.374 1.393 3.356.969.991 1.86-1.877 1.566-1.052.13-1.69-.161-1.924-1.06-1.327-.15-.97 1.014 1.102 2.34 2 1.686 1.559-.215 1.806-1.177 1.205-.19.857 1.013.202.758-.595.51-.45.784-.377 1.333-.245 2.135-.22.868-.963 2.292-1.286 2.025-.566.702-1.184.958-1.283.53-.542.326-1.339.964-.82.917-.715.384-1.466.61-.625.517-.352.458-.974 1.754-.249.988-1.507 1.582-.832 1.321-.87 1.857-.152.473-.099.744.028.567.213.91.067 1.593.237 1.242.604 1.728 1.51 3.301.218.795.086.678-.084.768.148.768.547 1.065.401 1.041.003.007.249.216 1.413.81 1.014 1.024 1.23 1.024.627.834 1.197 2.017.676.774.26.159 1.135.353.814.543.459.606.824 1.65.11.38-.016.95.216.484.007.016-.142 1.624-.201.691.17.456.11.055-.013.213-.257.58-.473.526-.109-.055-.543-.276-.764.612-.83 1.318-.479.296-.376.007-.11-.112-.003-.172-.648-.044-1.882.152-2.57.376-.643-.17-.349-.006-3.021.876-2.034.27-.482.327-1.841.365-2.532.344-2.499.534-1.769.132-2.413.052-3.658.787-2.223 1.047-2.03 1.12-.672.782-.505.265-1.293.962-.349.374-2.067 2.912-1.377 1.047-.01.007-.418.336-.54.23-.8-.174-.313-.277-.578-.95-1.428-1.142-1.355-.882-.948-.424-.652-.177-.594.139-.245.144-.51.3-1.02.46-.995.235-.85.319-1.486.84-.807.577-1.35 1.405-.596.758-.863 1.65-.24 2.07-.476 1.831-.047 1.697-.236 1.63-.332 1.056-.457.802-.516 1.292-.872 1.737-.607 1.75-.486.795-.385.849-.424 1.33-.163 1.211.908 1.851.383 1.175-.323.796.185.325 1.025 1.156 1.18.884.722.755.327.574.757 1.945.222.41.912 1.23.672.538 1.154.596 1.146 1.12.411.611.845 2.526.356 1.273.248.3.638 2.467-.041.316.329.656.225.283.255.156.528.926-.046.443-1.328 4.132-.154.242-1.039 2.794.002.119.112.116-.238 1.623-1.946 4.375-2.39 1.009-.938.206-1.01-.12-.03.007-1.975.476-1.387.023-.991-.05-1.422-.264-1.94-.47-2.058-1.028-.539-.438-.78-.634-1.034-.627-.697-.818-1.076-1.581-.663-.362-1.02-.921-1.45-.977-2.03-1.155-.662-.264-1.03-.043-.967-.26-6.019-2.838-.87-.303-1.2-.25-2.465.372-.45-.093-1.214-.473-.818-.441-1.142-.876-.982-.541-1.727-1.38-1.486-1.06-.496-.648-1.052-1.058-1.462-1.087-1.17-.647-2.126-.617-1.974-.737-4.823-2.285-4.653-1.652-1.97-.864-.55-.08-.997-.32-.52-.168-.185-.026-1.26-.18-3.446-.174-2.29.22-2.465.76-1.052.672.364-.11-1.124.899-2.224.873-1.055 1.265-.514.186-2.333 2.478-2.532 2.394-1.434 1.671-.892 1.607-.391 1.06-.127.735-.33.917-1.69 3.842-.613.575-.682.402-.216.377-.426.443-1.377.972-.128.19-.332.927-.431.534-.738.553-.447.155-.21-.115-.448.277-1.898 2.576-.53 1.058-.537 1.073-.512 1.588-.277 1.176-.16 1.584.234 1.829.262 1.037.755 1.67.346.585.656.83.81.576 3.117 2.622.774.531-1.106.465-.462.05-.809.263-1.665.856-1.156.434-1.013-.103-1.157-.461-.926-1.137-.413-1.714.001-1.804-.484-2.048-.323-.779-.594-.68-2.862-1.936-1.2-1.088-.587-.979-1.032-2.618-1.296-2.496-.702 1.391-.636-.13-2.223-.076-.436-.103-.027-.162-1.448-.11-1.914-.408-.08.225-.357 1.835.197.724.28.586.368.504.473.453 1.424.805 1.884.751 1.599 1.31.878.948.334 1.367-.832 2.708-.381.657-.467.509-.65.509-.62.319-1.892-.62-2.868-2.963-.633-.654-.813-.585-1.144-.677-2.074-.985-2.294-.82-2.218-1.664-.47-.598-.318-.603-.103-.318-.101-1.206.036-.46.888-2.232.45-1.752.017-.952-.428-1.518-.758-1.524-.54-.74-.749-.654-1.954-1.428-.596-.563-.38-.447-1.543-2.317-1.333-2.433-.422-1.612-2.467-4.711-.793-2-.11-.671-.679-2.603.022-.638 1.297-3.236.067-.39-.054-.782-.08-.28-.257-.336-.274-.167-1.094-.327-1.209.048-1.328.263-.165.033-.895-1.258-.819-.926-.618-.843-.984-1.515-.43-.834-.179-.627-.003-.675.1-.47.275-.579.162-.692.083-.778.313-1.231.301-.6.214-.243 1.269-1.013.55-.575.557-1.145.307-.35.429-.252.24-.142 1.342-.434 2.76-.182.997-.203 1.604-.687.447-.455.435-.855.219-.734.871-4.256.142-1.247-.034-.771-.155-.884-.475-1.809-1.122-3.39-.775-1.812-.512-.864-1.03-1.391-2.792-2.879-.595-.861-2.27-3.962-.77-1.914-.344-1.4-.367-.86-.623-1.13-.678-.961-.555-1.007-.081-.3-.543-2.888-.108-1.21.033-.955.027-.797.008-.24.041-1.189.067-.38.14-.277.453-.304.36-.052.607.12 2.138.715 1.105-.123.685-.366.497-.505.213-.757.016-.483-.078-.446-.258-.58-1.014-1.45-2.852-3.137-.54-1.172-.703-.822-.281-.834.083-.447.178-.307v-.915l-.123-.923.106-2.07.315-1.498.264-.767.01-.791-.306-.769-.332-.496-.722-.652-.52-.345-.783-.335-.996-.132-3.86-1.093-.937-.334-1.345-.74-.532-.744-.554-1.065-.716-1.623-.8-.634-.87-.563-.513-.065-.425-.406-.08-.337.04-.68-.061-.171-.122-.098-.93.098-.55.167-.741.404-1.66-.07-.567.102-1.226-.396-.67-.413-.3-.359-.326-1.29.217-.818.329-.749.415-1.254.14-.922-.013-.916-.127-.334-.362-.455-.765-1.594-.649-.54-.439-.365-.717-.48-1.875-1.157-.86-.439-1.998-1.57-1.627-1.644-.449-.6-.5-.873-.466-.603-1.386-.023-.57.103-.446-.223-.63-.536-.442-.2-1.248-.073-.755-.316-.301-.211-.602.578-1-.937-.32-.43-.57-1.593.077-.476.302-.49-.04-.95-.173-.325-.626-.262-1.328-.837-3.074-2.486-.871-.6-.293-.07-.862.267-1.648 1.21-.561.583-1.34 1.763-.679.635-2.19 1.362-.627.303-1.577.01-1.353-.196-1.94-.726-.11-.074-1.688-1.139-.257-.298-2.551-5.609-.268-.421-.075-.272-.077-1.305.91-.811.842-.494.374-1.01h1.676l1.316-1.001.752-.217.985-1.14.083-.293-.028-.73-1.196.136-.285-.08-.14-.255-.101-.689-.586-.899-1.763.58-3.3.624-1.012.089-1.478-.2-.409-.238-1.115-.993-3.23-4.407-1.835-.861-.433-.296-.304-.33-.202-.406-.084-.442-.244-.614-.25-.422-.284-.21-.773-.244-.99-.037-1.192.254-.998-.076-.75-.37-2.266-1.551-.93-.912-1.173-1.582-.048-.57.103-1.144-.041-.752-.227-.828-.352-.475-1.862-1.192-1.893-1.025-.414-.034-.254.09-1.218.797-4.653-3.267-1.622-1.14-3.274-3.24-.915-2.168-.315-.442-.024-.043-2.938-5.229-1.09-1.207-1.026-1.062-1.31-.858-1.37-.605-.844-.17-.744-.386-1.233-1.064-.36-.415-2.59-4.204-.2-.43-.097-.209-.435-1.227-.552-2.063-.37-2.383-.08-1-.383-2.025-.11-1.126-.25-1.38.06-2.183.323-1.709-.039-3.293.269-1.761.377-1.153 1.69-3.447.955-2.968.507-.725.369-.54.05-.074.329-.35 1.698-1.808.854-.606 3.748-4.252.921-2.007.505-.856.188-1.312.723-3.689.47-1.219.159-1.156.52-1.685.372-1.74.725-2.477.013-.035.486-1.304.356-.626 1.24-2.18 3.437-5.174.288-.236.737-.384.908-.882 1.041-.794.896-.986.581-.767 1.025-2.16.823-3.026.122-.792.068-1.554-.407-2.91-.026-.143-.158-.861-.484-1.633-1.146-2.23-.925-1.036-.914-1.623-.348-1.56.033-1.07.078-.585.217-.808.652-1.04 1.904-1.83 1.075-.654.979-1.294.179-.998.53-1.078.655-1.006.023-.035 2.68-1.748 3.217-2.533.747-1.316.43-1.597.816-3.85-.023-1.052-.51-1.001-5.073-3.162-1.972-1.62-2.723-1.548-.453-.215-.655-.098-.32-.16-1.527-1.64-.566-.606-1.255-1.218-.966-.617-1.511-.712-1.13-.8-.504-.206-.396-.055-.779.057-.941-.399-.795-.172-.22-.048-.835-.073-2.012.073-.992-.042-.445-.112-1.075-.675-.879-.348-1.24-.656-1.704-1.293-4.86-2.629-1.682-.825-1.403-.464-.9-.154-1.553-.112-1.2-.327-.842-.335-1.432-.102-.003.001-1.566.557-.73.416-.592.498-1.436 2.444-.132.398-.022.292.074.988-.604 1.49-1.824 2.642-1.014 1.293-1.291.65-1.947 1.977-1.782 2.03-.251.174-1.331.523-1.466.298-1.366.055-.891-.142-1.58-1.078-3.932-2.445-.438-.522-.939-2.15-.52-.76-1.064-.688-.675-.713-.53-.725-.534-.828-.25-.533-.266-1.064v-.004l-.427-2.42-.33-.718-.505-1.71-.046-.633.086-3.148-.204-1.34-.487-1.207-.21-.224-.515-.931-.137-.343-.137-.835-.3-.78-1.037-2.167-.913-2.295-.472-.794-.24-1.242.013-.273.146-.254 1.43-1.425.15-.83.107-.233 2.437-2.785.108-.293.17-1.806-.398-2.244-.185-.73-1.131-2.077-.71-1.01-.312-.577-.279-.765-.328-1.335-.146-.735-.024-3.064-.054-.593-.477-1.55-.347-2.092.023-.924.118-.672.028-.634-.052-.603-.58-1.768.114-1.04-.042-.44-.63-3.187-.373-.821-.519-.565-.666-.499-1.29-.42-.356-.234-2.063-2.565-.777-1.829-.227-.396-1.056-.777-.887-1.012-.114-.7-.223-.442-.764-.638-2.287-1.339-.575-.56-2.41-2.952-.957-.858-1.51-1.092-4.514-2.879-.811-.885-.324-.527-.022-.373-.25-.328-.408-.255-.876-.223-.828-.323-.473-.263-.536-.43-.673-.808-.2-.9-.128-.373-.078-.228-.202-.34-.224-.22-.98-.634-1.204-.295-1.312-.548-.648-.397-.66-.733-.703-.395-1.412-.474-1.286-.839-1.065-.902-1.51-1.085-1.884-1.733-1.879-2.41-.805-1.183-.364-.915-.132-3.523-1.407-1.454-.561-.857-.807-1.64-.798-2.108-.928-1.647-1.834-.475-1.622-.25-2.835-.71-.692-.445-.628-.844-.63-.968-.593-1.112-.157-.798-.165-2.122-.281-1.736-.047-.231-.414-.851-.49-.786-.51-.436-3.988-1.858-.866-.456-.769-.585-1.511-1.633-.289-.524-.283-.738-.355-.625-1.49-1.45-.777-1.393-1.178-1.545-.918-.784-1.347-.844-1.113-.875-.35-.753-.169-.165-1.414-1.374-1.763-1.41-1.742-1.602-.94-1.042-1.882-2.427-.273-.609.09-2.139.394-1.497.192-.347.14-.469-.061-1.068.094-1.7.14-.76.446-.957.039-.42-.211-.908-.543-1.32-.886-1.482-.354-.427-.995-.77-1.547-1.014-1.061-.957-1.063-.643-1.915-1.413-.426-.488-.377-.862-1.183-4.302-.14-1.298.157-.862.519-1.782 2.002-2.338 1.106-1.175.142-.28.178-.948-.034-.956-.288-.91-.484-.838-.408-.525-.808-.807-.203-.203-.551-.856-.686-1.429-.296-.999-.591-1.053-.497-1.337-.083-.153-.528-.355-.199-.375-.156-.563-.056-.58-.223-.81-.956-2.373-.811-1.798-.402-.677-.89-2.3.835-3.546-.656-2.334-.248-1.257-.323-2.18-.554-2.953-.325-2.359-.097-1.047-.051-3.26.036-.37.474-1.183.023-.228-.395-2.195-.09-1.384z"/></svg>