<svg height="1000" width="1000"><path class="americon" d="M192.202 946.793l3.737-5.937 5.202-16.687-2.242-16.75 8.177-5.744 5.364-10.554 6.954-12.294-8.812-11.318 1.3-7.77.285-1.704 11.634-7.158 14.714-8.879 10.216-15.012 5.747-11.384 2-3.966 5.35-10.502 11.44-7.401-1.058-7.031 2.473-6.067 2.117-5.199 3.599-12.139 14.169-8.807 9.135-19.003-3.876-16.56-2.39-6.256-2.131-5.582 3.635-7.173.21-.413v-15.36l-9.052-7.303 1.52-13.268-9.53-10.859-2.067-13.344-.342-2.212 11.971-10.307-2.836-8.732-.165-2.849-.741-12.776 4.219-6.44 8.639-1.6.653-28.915.033-1.84.563-30.953.248-13.675 1.205-51.748.709-30.46.954-32.28.717-24.255 1.726-53.382.11-3.38.335-10.414 1.081-47.444.85-37.313.517-26.957.065-3.4.711-33.134.663-30.92v-.03l1.13-40.268.389-13.898 1.076-41.71 9.112 8.486 9.65-3.386 8.52 13.867 18.101 2.481 6.798-1.882 17.004-4.733 17.167-5.448 16.689-9.561 4.16-2.39 14.76-7.62 31.94.388.224.002 20.161.131 3.907.02 47.989-.037h.004l28.462.016 47.21-.155h.004l22.904-.269 63.975-1.033 10.328-.206 6.276-.126 64.671-1.531 3.349-.091.356 14.963 1.21 38.752.761 24.333.13 4.153.917 32.074.125 4.378.88 30.735.88 30.978.445 15.687 1.301 45.698v.004l.915 36.712.413 16.591.158 8.59.486 26.555v.02l.123 10.075.578 47.962.372 24.179.321 20.883.692 45.135v.015l.703 37.727.202 10.877.576 30.982.279 20.624v.005l.25 18.573.763 29.035-7.34 6.72-6.606 6.312 3.761 4.958 5.404 7.113 3.369 9.346-8.14 10.038 2.52 1.494 6.419 3.803 8.295 3.378-2.141 5.559-.793 2.056-1.385 15.511-8.238-.776-19.635 3.404-10.813 4.923-9.409 4.271-13.769 11.346-7.52 2.025-2.754-2.303-7.012-5.869-6.955-4.346-10.655 1.71-1.55.247-11.128-.317-8.957 5.555 2.088 12.921.704 14.622.935 2.866 3.114 9.535-3.178 5.381-.03.05-7.668 4.877-4.483 8.667-16.656 4.484-6.273 8.1-2.305 9.324-2.116 8.553-6.92 11.485-12.658 6.767-8.245-2.35-4.099-1.17-4.354 10.427-10.326 12.424-.203 2.058-1.639 16.594-3.137 19.877-5.55 3.347-4.601 2.77-4.037 2.996-6.826 5.06-11.893-9.25-21.031-3.072-13.717-18.46-8.072-11.784-6.657 2.917-5.842 2.554-8.809 9.01-.09.093-7.213 9.748-3.068.605-6.417 1.26-.71 16.901 2.94 15.78-17.226-1.02-3.005 12.995-5.985-2.948-2.217-1.094-12.129-5.708-10.86-15.507-5.788-9.853-.524.264-11.889 5.972-9.964 8.529-9.542 2.118-6.219 1.375-6.38 10.685-2.979 11.452-9.33 14.32-5.942-9.668-7.988-8.367-14.227-6.508-2.85-2.006-6.334-4.464-5.21-3.675-16.347-9.135-5.771 2.506-7.247 3.141-12.329-1.53-11.039 6.167-3.583 11.232-10.607-1.229-5.848-6.712-1.93-2.216-16.179 3.638-11.972-11.398-9.456 2.89-.754 1.98-2.634 6.91 6.163 12.96-6.316 6.593-6.623 1.696-10.894-4.536-7.06-13.957z"/></svg>