<svg height="1000" width="1000"><path class="americon" d="M54.706 255.156l26.21 1.665 34.613 2.063 15.675.858 10.216.54 3.765.194 27.918 1.413 36.032 1.603 2.39.106 31.296 1.305 33.888 1.193h.001l1.889.062 43.581 1.264 22.148.464.35.007 14.78.269 38.602.64 11.191.144 2.223.026 40.76.341 13.475.06 13.078.044 27.574.013 23.69-.079 17.255-.103 13.2-.108 5.307-.05 43.23-.567 5.58-.087 43.071-.824 11.096-.274 5.094-.132 8.14-.207 40.163-1.164.746-.024 26.845-.913h.004l10.14-.358 15.573-.66 1.603-.065 26.604-1.12.422-.02 53.136-2.559 3.776-.197 9.703 8.263 11.033 6.95 7.596 4.841 7.193-6.003 3.026-.366 4.988-.607 2.99 3.607 6.44 7.41.161.947 1.257 7.354 1.52 3.584-4.433 4.269-8.614.662.315 5.742-7.647 5.709-.433 6.182-.205 2.923-3.392 3.079-4.24 3.827 2.858 3.083 5.374 5.787 8.683 7.949 2.16 2.836 2.517 3.301 7.053.716-1.652 10.917 6.668 7.432 4.127 4.795 3.512 5.402.98.688 6.397 4.485 7.349-2.697 7.145 3.894 2.688-.005 1.222-.003-1.442 6.647.662 10.893.595 9.787 1.333 21.166 1.056 16.767.023.41 1.697 30.035.625 11.056v.004l.948 14.027 1.612 23.855 1.715 28.137.222 3.644.476 7.808 2.814 48.527.098 1.446.211 3.105 2.628 38.614.479 7.45.264 4.105 1.83 28.436 1.14 16.518.639 9.254-12.107.82-36.1 2.153-1.575.096-8.419.507-31.83 1.828-10.873.587-14.677.767-6.544.332-27.26 1.318-18.08.818-4.624.204-4.674.203-27.73 1.143-36.175 1.372-3.238.102-28.704.841-44.909 1.162-6.026.139-30.37.623-9.913.171-39.23.546-4.304.053-31.122.312-8.535.058-30.117.124-.887.002-24.408-.122-31.667-.282-26.683-.263-16.538-.213-35.54-.59-6.298-.138-10.87-.251-14.92-.372-43.202-1.347-.944-.025-11.124-.309-59.277-1.936-10.321-.318-28.449-.954-11.493-.457-15.477-.644-18.551-.816-35.024-1.615-8.942-.45-44.383-2.4-16.072-.941-1.794-.107.48-6.714.74-11.423 1.585-24.206 1.367-20.893 2.656-40.604.827-12.651.14-2.331 3.582-59.41 1.49-23.643.064-1.002 1.152-18.283 2.296-36.417.818-12.987 3.46-54.978.799-13.525 2.229-37.731 1.848-30.442.056-.92 2.322-38.27z"/></svg>