<svg height="1000" width="1000"><path class="americon" d="M45.612 686.648l1.037-2.154.346-1.494.073-.696.127-.497 1.924-3.632.351-1.159.522-2.632.272-.888.136-.282.616-.761.733-.611 1.173-.448 1.63-.285 1.234-.11.81.067.108.009.998 1.192.542.815 1.318 2.608.748 1.69 1.798 2.649.839 1.052.432.42.973.66.209.047 2.76-.103 1.187-.32 1.315-.976.532-.586 1.61-3.265.392-2.584.303-1.155.221-.502.719-1.06.657-.76.594-.523 1.139-.821.008-.009 1.369-1.425.76-.926-1.152-.95-.39-.126.326-.303.227-.55.071-1.146-.153-.54-.612-.84-1.116-1.22-1.35-1.787-.388-.66-.113-.651.021-.884.248-1.31.305-.795.868-1.167.95-.943.65-.348 1.343-.433.28-.006 1.2.658.66-.002 1.173.22.815.592.639.083.535.03.497-.454.457-.748.412-1.19.113-.757-.064-.505-.382-1.04-.347-.525-.006-.008-.65-.416-.531-.122-1.376-.113-1.454-.22-.605-.322-.9-.793-.3-.42-.696-1.485-.138-.427-.028-.47.12-.564.12-2.317.126-.497.135-.178.513-.597.395-.243.456-.127.922.067.276-.107.512-.482.736-.036 1.215.05.86-1.525.81-2.242.974-1.616.328-.694 1.366-5.04 1.104-2.92.221-.74.001-.005.384-2.146.017-.554-.04-.497-.356-.833-.754-1.126-.65-.635-.391-.269-.827-.31-.476.005-.518.155-.656-.52-2.612-2.522-.686-.562-.532-.779-.272-.541-.57-1.531-.17-.939-.095-1.641.238-1.399.319-1.029.552-1.381.543-.921.536-.909 1.846-2.175.415-.22.18.116.407-.111.69-.447.416-.448.352-.805.125-.161 1.284-.78.406-.369.216-.321.631-.317.58-.473 1.738-3.315.35-.796.157-.645.413-.92.891-1.374 1.378-1.399 2.399-1.976 2.226-2.061.47-.134 1.015-1.061 2.032-.641 1.055-.73-.33.075.976-.534 2.24-.525 2.05-.056 3.055.366 1.11.237.163.035.453.18.867.345.484.106 1.7.889 4.038 1.754 4.15 2.328 1.711.777 1.855.679 1 .647 1.235 1.056.87 1.007.402.605 1.258 1.034 1.451 1.335.84.541.963.85.7.442 1.052.495.394.11 2.216-.18 1.051.296.756.323 5.181 2.895.843.29.914.101.573.276 1.736 1.152 1.23.958.85.882.568.362.86 1.473.57.771.88.62.656.613.452.422 1.768 1.042 1.697.537 1.249.323.878.105 1.236.064 1.786-.302.026-.004.892.169.848-.127 2.188-.75 2-3.772.311-1.43-.093-.11.006-.105 1.096-2.422.152-.206 1.436-3.595.068-.391-.413-.857-.218-.154-.182-.265-.253-.604.056-.279-.416-2.234-.202-.282-.239-1.154-.596-2.3-.328-.568-.951-1.068-.99-.6-.565-.521-.736-1.15-.172-.379-.554-1.777-.256-.53-.595-.717-.996-.858-.841-1.092-.145-.3.336-.689-.269-1.069-.694-1.702.22-1.067.458-1.159.395-.731.482-.677.647-1.52.882-1.492.539-1.119.456-.685.36-.92.31-1.435.146-1.507.535-1.6.341-1.827.87-1.416.576-.638 1.288-1.167.753-.463 1.375-.658.775-.23.901-.15.935-.346.473-.236.226-.113.538-.087.569.198.817.435 1.152.868 1.2 1.104.456.88.262.267.702.204.494-.171.393-.274.01-.006 1.288-.846 2.019-2.465.334-.311 1.209-.777.466-.205.646-.654 1.876-.873 2.042-.794 3.304-.476 2.15.102 1.583-.01 2.256-.32 2.275-.15 1.661-.212.45-.262 1.825-.114 2.744-.595.31.027.562.191 2.31-.176 1.684-.02.573.08-.007.153.09.107.336.016.444-.234.82-1.122.718-.497.467.278.093.056.454-.439.264-.5.024-.189-.093-.056-.124-.416.22-.603.228-1.436-.006-.015-.162-.444.073-.845-.075-.345-.632-1.518-.37-.569-.692-.533-.989-.384-.221-.157-.554-.73-.941-1.87-.507-.78-1.031-.988-.84-.973-1.208-.808-.209-.208-.002-.006-.292-.951-.422-.982-.085-.692.122-.68-.034-.608-.146-.72-1.14-3.032-.432-1.575-.134-1.12.038-1.423-.134-.822.01-.507.134-.656.164-.411.889-1.6.821-1.125 1.44-1.315.282-.865.974-1.5.342-.387.589-.422 1.341-.452.66-.298.787-.766 1.252-.776.502-.256 1.174-.394 1.113-.78.547-.59 1.27-1.723.998-1.98.25-.76.349-1.886.417-1.163.449-.67.561-.418.876-.298.724-.047 1.267.338.914.428.477.32.224.276.479.31.34.079.95.635.537.547.17.442 1.192 1.399.902.272.495-.07.27-.164.252-.265.816-1.931.348-.263.158-.323-.005-.528.31-.367.63-.31 1.047-.305 1.009-.425.541-.359.307-.748.134-.808-.346-3.102-.265-.915-.522-.988-1.455-1.48-1.027-1.481-.213-.432-.198-.692-.095-.645.052-.646.125-.667.231-.476.207-.268.603-.707.56-.535.088-.117.698-.928 2.194-2.542.841-.369.687-.033 1.107.313.718.375.564.497.812.96.279.509.47 1.431.168.339 1.374 1.226.102.176.337.693-.02.666.044.168.361.413.5.403.399.143 2.753.327 1.571.056.528-.045.556-.107.346-.172 1.347-.995.258-.256 1.101-.674 2.731-.465.836.083 1.168.405.697-.05.901-.168 1.217-.473.029-.014 1.544-.728.535-.137.449.054.555.232.507.399.585.6.164.36.213 1.242-.02.641-.185.656-.273.46-.348.397-.548.457-.287.371-.828 1.524-.094 1.474.11.904.157.675.417.73.369.421.709.29 1.382.277 1.14.068 1.24-.122 1.336-.266 1.197-.402.376-.275.744-.72 1.962-2.714.367-.66.086-1.21-.272-2.87-.645-.834-.573-.54-.778-.51-1.392-1.318-.346-.608-.328-.851-.23-.835-.034-.819.452-1.026.781-.76 1.099-.897.594-.759.388-1.428-.192-.396.023-.573.195-.583.315-.546.59-.333.47-.136.38-.016.472.112.575.333.379.31.367.605.128.797-.155 1.205.23 1.154.406.985.289.524.757 1.083.95.927.642.453 1.719 1.057 1.354.624 1.038 1.002.493-.028.792-.347 1.356-1.116.519-.53 2.628-1.992 1.796-1.08.09-.054.333-.139 1.346-.223 1.023-.058 1.215.053 1.937.459.174.168 2.525.966.935.586.047.054-.088.176.044.083 1.022 1.23.235.217.406.087.426.37.245.34.912.803 1.147.6.154-.094.294.003 1.422.44 2.095 1.19.033.019 3.34 2.524.531.498.14.192.675.925.912.889 4.108 2.966 1.03.487 1.234.419 2.706.465 1.137-.11.726.196.306.174.41.369.634.873 1.333 2.562.501 1.402.46 2.355.403.883.25.252 1.008.373.992.084 1.39-.287 1.152-.456 1.665-1.254.846-.864.375-.63.322-.677 1.008-2.607.335-1.208.572-2.839.298-.933.715-1.695.118-.657-.02-.76-.071-.637-.198-.557-.03-.357.157-.602.37-.69 1.118-1.256 2.892-1.943.87-.398 3.016-1.122.015-.005 1.21-.372.519.089 2.47-.107 1.386-.179.687.017 1.037-.235 1.52-.945.591-.47 1.306-1.48.907-1.285.457-.477.682-.485.69-.68.439-.612.467-.484.91-.72.857-.4 1.71-.532 1.448-.766.42-.06.584.096.062.033.463.249 1.913 1.318.5 1.397.283 1.128.92 2.557 1.73 3.772 1.644 3.087 1.929 2.581.39.359 1.122.29.465-.062.289-.14 1.035-.641 1.976-1.53.75-.689.63-.284.965.04 1.48.322 1.314.41.36.319.185.329.153.65-.003.647-.1.525-.518 1.35-1.244 2.557-.374 1.019-.177.898.079 1.126.392.875.359.263.337.143.55.046 1.202-.173.494-.163 1.055-.507 1.313-.838.751-.38.567-.431.83-1.396.107-.43-.014-.204-.223-.514.151-.877.035-.641-.18-2.592.05-.858.186-.65.297-.51.948-1.045.253-.169.765-.116 1.718.19 2.158.719.95.171.804-.003.725-.235 1.118-.526 1.021-.593.398-.412.154-.29-.033-.889-.267-.945-.377-.7-.716-.768-.227-.414-.382-1.208-.144-.944.08-2.11-.062-2.569.05-1.358.144-.888.052-.886-.04-1.439.418-1.611.305-.446.263-.21.68-.267 1.435-.173 1.132.037 1.267.041 1.038-.078 2.42-.613 1.734-1.506.686-1.032.364-1.771-.458-1.269-2.988-1.554-.602-.752-.27-.875.04-1.185.361-.743.276-.289.488-.51.9-.399 2.196.215 1.558 1.336 1.633 1.875.415.071.67-.358 1.147-2.589.92-.701.547-.2 2.779.388 2.113-.083.832-.548.62-.943.288-1.294-.549-1.079-3.357-.876-2.192-.754-.673-1.128-.045-2.241.368-.77.183-.383 1.65-.812 1.528.56 1.781 1.957.335.283 1.545 1.304 1.567.808 1.969 1.556 1.892 3.158.05 1.204-.99 4.88-.032 1.427.569 3.399.74 1.53.05.083.674.695 1.361 1.09 2.05 1.046.904.95.616.84 1.687.965 1.881.873 1.447.818.828.228.595.016 3.22-.82 1.65-.06 1.142.13 1.224.307 1.504.717 1 .604.906.676.559.612.17.235-.12.325.388.959.805 1.808.374.67.94 1.216.659.661.395.178.349.041.512-.2.27-.361.21-.45.13-.893-.21-1.685.04-.556.32-.816.368-.39 1.089-.525 1.413-.357 1.245-.178.292-.042 2.518-.511 2.169-.139.837-.144.422-.233.613-.337.438-.242.599-.532.544-.597.597-.791.245-.521.133-.285.131-.535.236-1.384.167-2.035.182-1.182.172-.715.314-1.066.876-1.975.218-2.183-.056-1.675-.476-4.498.12-3.268 1.153-2.958.236-.605.36-.647 1.788-2.29 1.437-1.317 2.1-1.716.737-1.09.719-1.463.223-1.763-.003-.96.404-1.652.681-1.34.686-.582.926-.363 1.655-.295.792-.256.244-.183.303-.106h.002l1.287.026.92.364.892.89.023.123-.1.309.662.794 1.221.737.74.115.747-.335 6.732-3.99 1.043-.899.776-1.418 1.077-1.367.767-1.188.917-2.44.918-2.86.097-.721-.052-1.653.06-.539.001-.008.633-2.366.366-1.024 1.023-2.28.16-.71-.021-.219 1.574-2.493.462-.43 1.952-1.288 1.515-.425 2.657-.079 2.03-.332 1.135-.336 1.24-.47 2.19-1.055.903-.995 1.037-1.696.2-.412.218-.95.22-.585.403-.888.26-.34.67-.616.505-.357.487-.276 2.028-.89 1.04-.572.026-.022.863-.72.328-.439.698-1.416.21-.861.042-1.401-.063-1.257-.487-1.545-1.01-1.973-.947-1.849-.153-.53-.137-.568-.09-.77-.004-3.39.213-2.55-.117-1.609-.727-1.662-1.28-1.855-.119-.46-.058-.627.125-1.005.469-2.11.393-.619.795-.997.544-1.01.447-.469 1.45-.826.648-.22.687-.123 1.255.172 3.39.838 1.017.016 1.45-.178 1.301-.346.95-.337.27-.096 2.977-.761 2.023-.118 1.656.19.94.196 1.057.33 1.485.914.49.86.454.577 1.52 2.625.595.693.948.848 1.055.577.351.12 1.334.454.389.052 1.223-.125.552.048 1.97-.647 1.117-.493.983-.58.676-.496 1.403-1.37 1.734-1.479-.01-.13.44-.57.281-.23 2.254-1.34.696-.627.533-.322 1.4-.527 1.474-.916.842-.668 2.081-1.07 1.416-.727 1.414-1.24.48-.318.711-.254 1.355-.146 1.946.18 1.791.415.79-.059.97-.298 2.125-1.026 1.598-1.015.95-.484.721-.152 3.73.655 1.081.318 1.476.576.837.16.881.007.808-.219.21-.248.13-.476.009-.554-.285-1.145-.315-.784-1.289-2.04-.343-1.041-.015-.805.29-.661.49-.665.738-.656 1.66-1.14 1.026-.993.107-.104.322-.432.318-.58.293-.8.138-.898-.085-.787-.143-.273-.21-.23-1.46-1.118-1.504-.612-.758-.046-1.368-.263-3.63-.033-.842-.221-.283-.191-.06-.095-.777-1.227-.219-.674-.057-.417.176-.654.828-1.372.715-.877 3.511-3.578.3-.54.32-1.222-.098-.848-.35-1.016-.444-1.002-.328-.494-.876-.92-.285-.553-.112-.357-.799-1.267-1.595-2.145-.947-.803-.578-.49-.749-1.038-.632-1.341-.349-.433-.028-.765.411-.785.593-.605 3.35-1.833 1.314-1.567 1.191-1.09.984-1.026.588-.35.724-.208.76-.162.182-.095.175-.315 2.014-.601.728-.37.436-.428 2.027-3.168 1.453-1.258.44-.112.786-.023 1.446.447.707.377.913.743.544.67 1.464 2.091 1.478 2.259.59.562.91.328 1.325.032 1.066.372.83.575 2.161 2.266 1.044.346.434.144 1.454.016.744-.144 1.1-.624 2.41-.64.967-.828.749-1.162.364-.435.426-.267.87-.058.263.074 2.006 1.049.609.007 1.166-.262.433-.224.476-.247.65-.565.084-.086.246-.257.697-1.285.798-.934.555-.377.674-.363 1.013-.06.802.203.667.39.55.498.56.73.625 1.128.34 1.224-.127.279-.07.861.21.443.048.876-.047.815.108.829.32 1.425.238.503.265.289.514.318 1.747.784.525-.008.19-.11.814.156.872.001 3.162.534 1.73.648 1.17.61 1.184.811.803.814.76.772 1.102 1.6.665 1.599.27.963.105.673.212 2.614.861 1.909 1.016 1.616.609.552 1.73 2.265.463.513 1.407 2.464.365.586.31.344.705 1.17.278 1.366.036.591.042.864.015.307-.17 2.975.086 1.678.27 1.862.114.48.032.134.611 1.357.4.595 1.123 1.219.887.464.873.24 5.114.826 2.517.785 2.355.994.83.518 1.755.58 2.759.677.968-.125 1.288-.063.125-.006.862.109 2.552-.749 2.025-.83 1.274-.3 1.979-.846 2.003-.09 1.034.163 1.158.367 1.898 1.347-.008.367.195.094 1.18.264.516-.027 1.081.22.007.002 2.029.343 1.686.449.806.322.915.502.855.805.419.645.323.746.203.742.26 1.084.041.515.11.422.14.36.485.613.33.276 1.488.954.967.303.913.105.942.275.96.437.437.325.436.582.484 1.643.395 2.104.185.682.469 1.315.35.442.523.347.321.112 1.519.343 1.418.22 2.104.133.35.215.126.242.434.306.638.252.344.003.158.002 2.26 1.145.736.266 1.378.264.507.007.552-.118.462-.19.299-.142.373-.343.442-.669.323-.976.325-1.429.038-1.035.203-1.357.13-.414.25-.434.827-.955 1.325-.773 4.891-1.461-.04.144.72-.191.857-.416 1.496-.573 1.904-.57 1.485-.19 1.015.172.999.349 1.35.74.846.603 1.248 1.17.533.621.506.393 1.002.254.33-.064 1.23.55.797.095 2.437.064.99.265 3.302.404 1.026.227 1.176.414 1.253.656 2.023 1.218 1.533 1.21.669 1.038.265 1.211.088 1.027.14.583.204.455.766.888.45.37.722.383.944.212.632-.237.28-.205 2.082-2.522.082-.485.016-.02.409-.506.341-.196.787-.133.401-.45.657-.288.726-.126.862.126 1.142.485 1.483.808 1.042.212 1.328-.148 2.244-.493.953-.007.939-.109 1.67-.762.495-.514.405-.545.682-1.34.29-.785.372-2.168.524-1.08.627-.89.573-.568.552-.345 2.205-.667 2.347-1.308 1.307-1.11.948-1.535.271-.44.42-1.259.274-.593.332-.577.245-.28.022-.026.325-.232.731-.283 1.186-.243 1.509.045.641.097.964.316.807.014 1.268-.484 1.138-1.002 1.84-1.357 2.292-1.143 3.5-1.148.604.051 1.195.66.507.626.15.281.23.428.176.486.242 1.717-.02.942-.072.574-.406 2.085-.142 1.178-.038 1.113.373 1.119.668.689.816 1.339.527 1.351.467 2.188.027 2.036.2 1.855.229 1.126.419 1.39.558 1.393.375.648.606.7 2.425 1.975.513.282 1.968 1.08 1.268.444 1.249.089 1.893-.297 2.917.088 1.038-.089.748.224.652.578.688.451 1.743.88.429.325.846.918 1.863 3.07 1.297 1.44.008.01 1.081 1.33 1.092.945 1.333.854 1.676.656.7.37.582.369.426.455.298.513.556 1.243.566 3.44.542 1.633.429.737-.286.652-.065.746.03.454.31 1.317-.294.97-.16.314-.04.435.069.25.516.906-.001.001.068.234.275.93-.091.506-.294.711-.087.39-.03 1.079.12 2.003.191.31.491.16.352.2.227.247.347.685 1.064.846.584 1.439.12.462.006.336-.1.257-.614 1.04-.34.792-.167.567.038.208.401.562.082 1.049.108.487.282.643.277.419.074 1.677-.37 1.421-.384.982-.252.356-.244.128-1.08.077-1.138-.233-.048.002-.086.004-.209.216-.55 1.558-.021.239.318 1.19.196.473.406.371.671.308.245.23.068 2.536-.029.587-.528 1.511-.745 2.53-.252.214-.713.222-.744-.192-1.658-.02-.468.264-.183.64.768 1.32.1.706.075 1.34.152.681.11.18.277.172.997.237.504.197.127.214.064 1.355.112.268.115.108.405.062 1.16-.15.501.362.31.135.27.214.573.757.229.138.494.136.268.279.133 1.381-.014.59.203.548 1.277 1.267 1.027.178.806 1.172 1.031.266.222.334.062.853.273.293.316.384.04.659.122.324.353.555.506.479-.002.388-.174.46.07.371.486.773.588.508.412.167.161.176.05 1.06.445 1.002.39.668.262.192.047.322-.036.414.065.195.178.189.332.023.41-.264.317-.057.912.321 1.234-.016.254.071.236.396 1.818 1.29.573.164.194.115.16.204.047.482-.086.538-.507.615-.307 1.932.129.107-.011.135-.37.673-.672.93-.485.504-.326.133-.922-.16-.168.04-.068.143v.003l.021.4-.33 1.009-.178.282.023.241.492.737.303.18.98 1.339.097.173 1.716 2.507.259.15.158-.025 2.851-.919 1.135.58.371.483.5 1.081.391.233.943.362.223.273.084.266.039 1.084.1.418.137.26-.492 1.067-.233.154-.01.207.102.212.195.133.11.728.167 1.108.005.106.39.159.52.023.124.08.46 1.243.14.171 1.047.812 1.552 1.744.145-.007.169.116.747.973.151.394.18.817.316.116.604.033.277.16.291.344.083.235.156.201.327.14.627.056.232.106.713.885 1.038.12.096.08.204.78-.07.339.036.219.17.222.206.125.321 1.258.018.141.344.335.215.103.259.011.833 1.014-.015.65-.813.476-.615.84.045.323.04.034.8.691.892.242.104.094.077.107.096.825.256.948.574.401.086.22.086.623.467.852.2.139.584.058.37.291.191.26-.063.407-.54.588-.093.4.193.443.482.445.193.096.025.138.234 1.217.045.048.07.71-.062.177.054.279.332.186.45.118.197-.306 1.055-.036.77.927.51.187 1.382.808.593-.056.995-.685.379-.149.172.04 1.703 1.213.08.174.113.764.187.372.538.223.34.231.01.214-.259.645-.135.182.014.135.716.949-.092.212.273.115.47.022.653-.146.114-.056.102-.216.152-.072 1.103.296.615-.24.07-.104.657.085-.104.446.143.324.615.533.965.754.044.49.125.207.458.05.938 1.7.144.612 1.036.236.233-.284.578-.424 1.193.187.24.297.392.739.278 1.176.17.18.004.217 1.106 2.56 1.653-.171.112.093.051.208 1.591.238.569.06 1.176-.13.227.111 1.18 1.572.115.396-.112.46.065.332.14.096.257.017.46-.165.331.002 1.185-.856-.067-.418.027-.344.226-.27.479.04.125.15.172.644 1.044.73.435-.118.504-.383.261-.022.26.3.161.65.248.104.59.016.216-.08 1.614-.707.17-.12.394-.677.192-.061.63.123.197-.097.52-.51.76-.212.669.504-.036.291-.326.545-9.67 9.492-1.386 1.58-7.28 7.22-9.058 8.643-.108.172-6.089 5.997-4.435 4.314-2.074 1.918-.623.682-.154.169-.121.2-.017.417-.165.548-.667.713-.854.197-.646.42-.617-.148.027 1.058-1.044 1.153-.53.318-1.134.184-1.46.781-.831.003-.291.097-3.957 1.499-1.569.792-.582.073-1.647.487-.341.227-.59.698-.751.036-1.246.488-1.6.762-.104.103-1.093.525-.313.097-1.089.728-.053.056-1.945 1.257-.523.215-.365.275-2.25 1.304-.418.273h-.001l-.515.53-.862.587-.005.004-1.635 1.266-.94.495-.691.467-.091.127.07.258-.557.543-1.318.694-1.1.821-.888.855-1.008 1.403-2.24.473-.198.102-.18.12-.297.886-.611.21-.642.33-.449.569-.626.573-.336-.08-.645-.011-1.346.738-1.476 1.01-1.03.578-.25-.016-.453.349-.48.692-.025.142.041.488.586.937.072.688-.021 1.09-.262.219-.067.173.288 1.068.326.48.31.167.13.171.074.36-.19.246-.41.1-.261-.041-.39.41.131.956.331.663.238.708-.07.866.016.753.118.389-.263.379-.19.111-.688-.18-.242-.157-1.093.29-.142.255-.153 1.816-.27.737-.333.188-.152-.23-.281-.139-.645-.088-.873.7-.069.344-.551.842-.692.099-.108.437-.44.69-.842.05-.023.026-.166.122-.05.081-.31.212-.175-.056-.114-.12-.074-.279-.17-.173-.368.284-1.61.482-.284-.282-.275.174-.213.002-.248.297-.109.045-.331-.323-.417.108-.156.344-.06.411.205.524-.181.65-.37.246-.249.502-.305.297-.188-.006-.148.047-.448.496-.55.076-.253-.148-.155-.067-.14-.027-.317.477-.022.49-.14.134-.329.016-.306-.254-.242.161-.133.121-.082.038-.103.088-.107.167-.076.364-.081 1.286.008.077.375.347.278.786.15.01.17.027.302.26.275.299.344.02-.04.212-.461.552-.062.51-.074.158-.013.867.156.288.248.674.043.053.084.496-.072.276-.158.406-.232.167-.178.31-.206.226-.22.473-.598.732-.198.19-.29.338-.143.36.645.69.323.244-.364.717-.396.177-.26.365.04.118.07.213-.073.357-.112.083-.638.122-.365.265-.283.42-.664.364-1.346.433-.2.164.007.238.101.245-.056.149-.314.115-.173-.023-.017.002-1.323.105-1.855 1.12-1.76.25-1.136.613-1.134.807-.21-.004-.192-.2-.734-.064-1.184.136-1.195.441-.647.785-.263.623-.39.108-.42.018-1.183-.375-.323-.254-.21-.556-.127-.026-1.91.249-.254.23-.406.203-.615-.006-1.013-.243-.426.346-.277-.02-.398-.25-.42-.141-.351.64.26.884-.15.633-.562.07-.9.41-.238.355-.278.262-.937.444-.347.437-.032.142.06.233.248.273.125.293.103 1.36-.53 1.213-.592.73-.336.294-.463.692-.52 1.049-.508.47-.677.225-.34.625.437.909-.016.895-.279.447-.121.239-.017.19.874.437-.008.02-.123.048-.244.502.077.231.088.867-.39.178-.395.517-.243.558-1.21.25-1.334-.011-.59.383-.736.137-1.045-.023-2.373.104-.629.337-2.513 1.066-2.035.765-.265-.022-.97.318-1.136.59-1.013.162-.702.418-.398.124-.379-.018-1.266.485-.144.193-.112.036-2.412.461-.534.192-.195.195-.334.153-3.369 1.2-.852.485-.133.162-.349.12-.122.09-.218.237-.346.185-.126.004-.245-.18-.238.04-.43.312-2.305 1.036-.395.265-.726.888-.035.08.096.216-.11.13-1.98 1.008-.957.392-.523.19-1.002.175-.602.067-.544-.092-.91.281-.829.106-.42-.144-.347.153-.026.002-.687.05-2.037-.167-.8-.21-.641-.357-.518-.046-.238.055-.183.178-.69.085-.606-.044-.533.253-1.389.294-.315-.021-.284.197-.13.271-.006.22-1.069.866-.682.35-.852.137-1.058.425-.376.467-.503.44-.926.64-.904.09-2.02.736-.288.04-.167-.12-.164-.011-.287.118-.816.512-.227.415-.425.546-.63.459-.486.187-.762.21-.614-.28-.677.114-.384.247-.123.946-1.01.8-.721.806-.248.164-.94.2-.182.256-.09.36-.015.35-.18.32-.292.4-.432.311-.545.802-.151.444-.232.29-12.398.137-13.298-.066-4.586-.078-7.173-.129h-.03l-17.612.102-12.57.128h-.018l-4.285.112h-.001l-1.24.038-21.652-.298-7.2.011-5.446.138-10.319-.387-19.359-.366-.868-.018h-.007l-2.314-.12-4.96-.093-2.104-.187.003-.011-10.621-.879-3.9-.445-1.46-.167-4.814-.396-7.788-.368-1.224-.085-12.507-.44-10.195-.147h-.001l-1.807.01-.67.097-.016.002-.545.218-3.056-.019-1.194.25-12.098.612-.795.065-6.545.536-7.956-.146-.068-.009-15.848-.46-6.812-.406-7.15-.28h-.003l-1.618-.104-3.867.023-5.25-.301-10.843-.821-1.998-.1-7.168-.365-.046-.008-.658-.07-5.322-.564-.161.013-14.552-1.081-.916-.074-.077-.008-1.348-.139-.028-.01-.336-.042-.386-.017-8.956-.852-4.988-.626-3.274-.228-1.851-.079-.153.048-4.58-.213-7.187-.34-.465.003-.154.01-.01.001-4.313-.212-4.574 1.771.06-.525-.836-.164-.18 1.069-1.599.658-.034.014-3.177-3.057-1.907.013h-.17l-13.53.11-5.683-.094-.551.003-6.267.034-.397-.022-.28.005-1.858.017-2.66-.02-6.517-.09-.07.005-13.221-.025-6.213-.075-6.818-.089-14.547-.399h-.064l-2.092-.065-3.87-.114-.391-.02-6.858-.21-1.026-.031-.461-.006-8.374-.245-1.346-.05-1.45-.008-15.934-.361-.236-.01-9.598-.22-6.682-.128-6.37-.127-13.664-.146.672-4.754-2.818-.345-17.479-2.69-4.137-.349-3.237-.178.152 2.893.41 1.417.675 1.217.172.445.144.766-.056.82 1.126 4.382.352 2.974.112 1.788.42 1.758.154 1.58.082 1.745-.28 1.487-.256.807-.195.325-.092.431.04.503-.093.622-.235.53-.783.957-.682.6-.368.443h-.01l-9.337-.683-24.383-1.556-.643-.042-.618-.04-10.79-.622-4.259-.29-.302.02-2.524-.166-2.081-.123-.017-.001-2.86-.223-.044-.01-.515-.018h-.01l-3.624-.267-4.045-.253-10.568-.667-6.82-.474-4.065-.273-6.565-.39-2.163-.144-1.292-.086-.036-.002-.923-.068-.03-.001-5.028-.243-1.247.038-1.879-.2-8.187-.52-4.48-.362-.852-.063-.455-.034-3.048-.24-3.05-.233-1.668-.125-2.27-.174-3.449-.265-.285-.027-5.46-.508-.026-.002-6.032-.588-8.516-.732-.4-.071-2.262-.217-5.808.207-1.339.064-2.978.066-.22.04-1.176.07-1.62-.127-1.686-.106zm-20.584-5.365l.28-.853.448-.926.51-.675.696-.698.728-.522.854-.378.466-.056 1.876.049.648.2.44.267.522.18 1.792.368 1.864.844.472.358.208.261.628 1.351.55 2.099.169 1.694-.128.97-.45 1.33-.564 1.147-.672 1-.723.725-.425.7-.892-.111-.692-.069-5.186-.394-.387-1.135-1.289-1.997-.447-.833-.212-.542-.55-1.86-.45-1.2-.112-.473z"/></svg>