<svg height="1000" width="1000"><path class="americon" d="M961.537 685.135l2.063.745 2.901 3.005 2.88 4.46 1.535 2.899 2.075 5.94 1.717 7.633.292 9.617-1.084 9.025-.885 4.963-1.788 6.147-3.066 8.417-2.276-.474.08-3.339.892-3.443 1.081-3.151 1.25-3.377 1.074-3.322.363-5.82.952-4.82-.091-7.762-.665-4.727-.439-3.698-2.319-6.76-1.119-3.663-2.624-2.81-2.02-3.151zm-84.828 2.73l4.642-2.34 2.257-4.861 12.43-9.792 7.583-6.05 1.447 2.576-5.13 7.455-2.399 4.432 1.384 4.98 6.512 1.303 2.483 4.27-1.84 2.341-3.518-.233-1.578 3.277 2.156 3.77-2.519 1.8-2.613-1.354.22-4.446-2.41-4.06-3.854-1.664-2.851 3.897-.947-.204-5.08-1.24-3.705.47-1.541-.29zm-19.146-17.326l3.152-2.066 1.338 2.024-1.949 3.301-1.823.296-2.679-2.345zm-28.912 131.173l2.95-.403 3.971-2.523 2.543-.587 2.018 1.225-2.465 2.554-2.12 2.961-1.628 2.477-3.468-2.632zm-136.96 95.904l2.98-3.634 1.526-1.302 1.597.517 7.643 11.2-2.517 1.797-3.236.847-5.245-8.297zm-34.071 3.981l6.481.516 8.778 3.134 7.376.485 3.609 1.47-4.371 2.032-8.534-.369-9.226-3.125zm-35.953 9.038l4.43-1.653 5.322-1.672 6.905-.594 1.853 3.084-5.768 1.687-12.228 2.486-3.147-1.053zM383.835 798.192l1.594-1.772.728-.81 4.22-2.383 4.043 1.128 3.9-.29 2.234-4.747 5.077-.423 2.65 1.278 3.687-.27 3.378.546 3.22 3.307 4.525 2.43.732 2.46 3.355-1.159 1.509 2.183 2.127 1.871 3.506.14 2.412-1.398.346 3.91 3.8-1.466-.39 2.956-4.1 3.31-5.584 3.294-1.623 4.253 1.116 3.117-3.337 1.562-3.235-1.012-2.055 1.25-1.295 1.744-4.638-1.142-2.022-4.442-2.458-.793-2.517.454-3.144-2.616-2.693-.974-6.318-3.798-2.67.074-1.554-1.6-8.032-3.835-2.796-2.428zM29.86 137.855l.566-15.581.049-1.844.041-.768.053-.98.026-.351.026-2.184.565-15.37.021-1.863.028-.107.001-.025.087-2.425.04-1.275.042-2.308.201-5.786.121-3.671.47-13.198.265.015.974.042 1.366.048.61.006 36.508 1.134 1.676.049 14.2.402 33.352 1.077 1.146.03.682.022h.004l5.23.168.066.002.176.004 3.909.062 15.638.452 6.399.125 5.558.156.038.006 12.103.293h3.995l3.173.156 7.49.168 9.204.2.081-.008 3.402.033 1.438.033.43.03 14.262.35 3.057.074 4.276.15 13.751.367 2.322.02 1.72.037.036.008 2.31.11 5.96.255 11.02.246 1.427.017.043.001.207.007 1.335.002.8.029 36.107.827.416.003 5.503.079 17.31.398 1.292.027 4.694.088 7.523.094 12.154.272 26.755.271 20.39.17.34-.02 13.032-.053 20.898.1 3.4-.129 18.948.107 1.576-.025 1.5.025 5.082-.023.028.01 1.273-.099h2.233l10.335-.061 1.905.11 5.01.017 1.223.004 3.06-.079 1.796.002 8.608-.033 7.485-.019.565.017.587.003h.677l1.826-.003 4.808.001 3.372-.053 17.224-.007-.016.388-.456 2.104-.739 1.264-1.521 1.566-.834.518-1.79 2.384-.383.266-.376.493-.023.806.153.486.316.55-1.378 1.662-.558.951-.359.787-.195 1.198.017.649.21 1.055.223.512.592.88 1.498 1.403.526.352 2.657 1.076 1.09.287.902.114 1.788-.124 1.44-.446 1.143-.755 1.89-2.556.321-1.135.13-.79-.006-.651-.78-3.336-.429-1.363.111-.784.092-.173.569-.362.359-.394.087-.277-.044-.323-.374-.56-.787-.615-.19-.371.51-1.732.19-.184 1.61-.88 2.313-.799.9-.132 1.687.5.47.418.598.655.726 1.009 1.162 2.78.286 2.275-.274.356-.24.147-.203.32.214.649.263.32 1.472 1.095.272.37 1.03 1.972.173.781-.152 1.284.235 2.107-.014.552-.103.55-.624 1.908-.412.685-2.76 3.212-3.263 3.162-1.817.598-1.505.183-.552-.034-1.73 1.288-.978.894-.246.391-.79 2.432-.418.951-.862.604-.202.318-.556 2.053.079 2.59-.483 2.955 1.029.97.293.152-.11.898-1.248 2.938-.136.863.102 1.36.351.888.846.73.728.22.74.106 3.242-.319 1.494.044 1.67.566 4.05.748 2.354.708 2.886 1.006.665.389.451.684-.037.631-.381 1.39-1.18 2.025-2.093 1.94-.882.559-3.068 1.258-.986.609-2.396 1.773-1.633 1.84-.543 1.354-1.153 1.733-.186.179-.581.114-.401.262-.937.843-.4.533-.107.157-.168 1.154-.003.821.06 1.062.421 2.131.93 2.44.383.73.523.702 1.045 1.143 1.307 1.057.496.265.923.07.212-.075 1.017-1.066 1.236-.161 3.126-1.334 1.441-.772 3.17-1.024 2.022-.408.137-1.328.966-1.518.305-.912.16-1.54.336-.822 1.42-1.606.765-.536 1.174.55.858.687 1.338 1.899.603 1.326.102.476.02 1.64-.266 1.024-.961 1.65-.602.74-.435.312-1.162 1.081-1.385 1.792-.896.803-1.268.704-1.02.566-3.486 2.254-.075.055-1.843 1.35.911 2.013 2.435 2.104 1.865 1.13 7.053 2.872 1.03.558 1.954 1.535.839 1.277.301.692.07.543-.07.626-.414.724-.987.813-.494.28-.875.113-2.273-.298-1.235-.294-1.734-.661-.744-.385-1.37-1.042-.91-.945-1.727-2.522-4.136-2.965-3.07.31-.966 2.236-1.666 3.106-.091 1.065.263 2.477.706 1.45.592.846 2.413 2.739 2.4 1.696 2.057 1.075 3.064 1.352 4.116.96.578-.196 1.705-1.257 2.042-1.158 1.011-.938.897-.157 1.843.34.864.413 1.602 1.547.186.29.306.534.078.34.114 1.887-.035.79-.257.576-.581.77-.576.559-1.09.801-2.337.951.076 1.477-.145.941-.259.884-.748 1.35-.643 2.827.01.71.185.54.614.918 1.154.743 1.234.458 5.676 1.14 2.045-.055 1.428.183 2.43.563 1.562.52.797-.882 1.723-2.273.946-3.4.539-.567 1.872-.305.477.433-.029 3.064-2.985 6.243-1.54 1.803-.446.861-1.895 2.52-1.054 1.05-2.046 1.767-2.419 1.473-.62.07-.295-.172-.43-.451-1.042-1.455-.347-.62-.19-.12-1.325-.108-.52.086-.28.145-.57.583-.216.482-.55 2.401.226 2.014.357.738.246.305 1.494 1.545.36 1.084-.105.178-1.069.766-.718.95-.462 2.562-.005 1.08-.014 1.024-.44.727-.467.435-.448.247-.539.195-.542-.018-.386-.154-.296-.102-.227-.13-.424-1.088-.246-.622-.625-.43-2.135-2.055-.91-.53-1.369-.563-.832-.155-1.321.27-.662.679-.254.735-.21 1.36-.343.674-1.094 1.29-1.737-1.52-.71-.198-1.517.147-1.477.564-1.45 1.274-1.402 2.047-.791.345-.19-.028-.564.014-1.21-.91-.792-.421-.302-.1-.599.057-4.288 2.455-.705.62-.367.453-.662 2.152-.499 2.119-.43 2.575-.132 1.936.203 1.245.33.99 1.134 2.068.47.328 1.378.076 1.89.362 1.394.613.918.23 3.106.057.457.14 1.33-1.059.443-.242 1.678-.54 1.774-.106.813.092 1.416.401 1.346.936 1.492.536.286-4.168.174-.232.286-1.029-.235-1.501-1.082-1.322-.589-1.559.204-1.278 1.313-.25 1.497.793 1.773 1.374 1.237 1.089 1.492.332 1.855.785.404 2.253-.148.692-.238.61-.927 1.854-1.008 1.27-.42.341-1.23.542-.67.112-.02.003.055 1.299.056 1.292-.722 1.496-.682.596-4.932 2.776-2.343 1.326-.262.297-.03.419.538 5.326-.189.4-.37.173-2.91-.126-.892-.385-1.903-1.647-1.776-2.82-.811-.972-1.127-.78-.784-.282-1.027.098-.652.26-1.227.978-.784 1.098-.223.547-.064.502.008.628.131.542.418.79.488.683.878.7 1.125.55 3.557.726 5.265 1.056 1.321.61.665.617.328.582.335 1.083.172 1.073.717.301-2.469 3.525-1.05 1.124-1.406.962-2.351.724-8.331 1.054-1.02.746-1.263 1.23-1.294 1.629-.61.97-.132.735.065.9-.107 1.425-.629 2.248.055.146.322.164 1.135-.203.183.395-.188 1.971.685.766.095.439-.458.383-1.061.411-.281.276-.313.59-.212.129-.655.197-.624-.097-.317.255-.399.801-.648.783-3.187 3.256-1.393 1.743-2.34 1.498-2.883.952-.371.256-.21.338-.222.84.044.733.13.439.271.395.986 1.045 2.794 2.683.107.359-.39 1.917-.478.961-.967 1.08-1.132.706-1.282.056-1.342-.446-.627-.37-.36-.332-.49-.749-.53-1.21-.295-.94-.14-1.045.116-2.769-.76-2.778-.233-.06-5.718 1.213-1.224.368-.815.428-.81.93-.471.843-2.367 9.142-.71 3.99-.152 2.103 2.884.917 4.69-.44 3.731.16 2.71-1.143 2.172.16 1.94.856.626 1.19-.66 1.438-2.144 1.902-2.884.086-4.434.037-.356.003-2.867.29-3.647.56-4.43 1.893-.149.064-2.849 4.453-.139.42-.352 2.417v2.036l.425 5.347.447 3.88-.062 1.029-.368 2.733-.471 1.243-2.755 1.544-.823.336-1.52.056-1.271-.262-4.86-1.577-1.886-1.034-.989-.748-.505-.542-.884-1.148-.455-.823-.492-.684-.31-.152-.57-.07-.287.151-1.427 1.184-.892.92-.552.917-.21.64-.211 1.826.13 1.087.122.344.644 1.031 1.846 2.33 1.56 1.156.988.56.61.268 1.039.138 2.343-.144 1.572-.328 3.78-1.586.998-.324 1.43-.138 1.003.159.735.182 1.639 1.161-.243 2.796-.206.947-.228.548-1.239 1.524-2.044 1.615-1.99 1.782-1.122.787-1.087.597-5.303 1.998-.287-.06-.47-.396-1.023-.35-1.878.361-1.182-.064-.805.08-.491.115-.33.252-.998 1.475-.193.386-.065.471.014.493.415.898.687.297.333.346-.033 1.415-.348 1.05-.158 3.136.242 4.815.352 2.388.324 1.009.549 1.146.717 1.565 1.162 2.292 1.808 1.628 1.775 1.737.604 1.383.876.387-.007.944.044 1.955.17 1.098-.237 1.178-1.14 1.35-4.544.036-.705-.273-1.427-.834-1.06-1.02-.927-1.19-.981-1.974-1.314-4.987-.013-.817.44-1.113-.025-.205-.64-1.383-.176-.198-.61-.274-.619.08-.766.42-.366.45-1.855 1.089-.876.839-1.096 1.897-.347 1.399-.01 1.008.802 1.716.493 1.306.42 1.478 1.14-1.184.364-.284.867-.396.585.155 1.122.66-.07.271-.587 1.032-.177 2.667.028.646.364 1.381-.003 1.42.607.73 1.725 1.127.521 1.076.28.298 2.378 1.765 1.531 1.36.253.354.126.46-.03 3.603-.095.882-.57 1.576-.625 1.262-.53.62-3.435 1.691-2.905.93-1.85.31-1.854.085-2.389-.254-3.41-.682-2.646-.388-2.937.044-.644.164-1.33.992-.483.574-.475.797-.172.83.02.346.528 1.574 1.39 1.736 3.474 1.74 4.256 3.662 1.196 1.384.907 1.739.112.537.095.46.054 1.671-.06.515-.436 1.155-.99 2.035-.477.825-.8 1.069-3.13 3.744-.457.665-.16.39-.103.658-.127 2.034.09.47.812 1.395.539.614.69.623.95.585 2.691 2.117 4.914 4.454.637.704.527 1.246.258 1.43-.077.974-.152.694-.562 1.536-1.307 1.946-1.207 1.222-2.171 1.44-2.892 1.295-3.363 1.252-2.132 1.27 2.14.04 15.631-.144 6.988.097.493-.07 12.963-.107.385.001 32.048-.434 3.918.015.14-.002 8.66-.1h.012l12.276-.11.032.005 4.94-.082 2.27-.035 1.457-.029 29.937-.628 12.43-.168h.036l7.613-.164.703-.016.701-.02h1.203l1.91-.081 4.383-.012.014.001 15.064-.377.448-.004 10.86-.275.237.004.528-.032.168-.003 2.953-.075 3.542-.08 11.01-.256.157-.013 1.555-.033.245-.011.331-.02 5.719-.126.136-.005.792-.02 1.899-.058.856-.028 7.52-.207 2.017-.15 4.002-.111h.002l.222-.007 15.634-.49 17.157-.562.071-.011 5.948-.157.54-.042 14.05-.469 3.82-.115 1.336-.067 3.047-.11 5.405-.245.477.047 8.253-.283.73-.026 4.626-.255.87.003 6.48-.29 3.788-.128.067-.003 1.975-.07 1.48-.056 11.534-.365.105.348.122.1.415.014.35-.146.348-.45.604-.273 1.674-.355.529.172.277.306.002.027.013.284-.329.267-1.001.044.269.858.405.237.628-.02.165.22-.316 2.385-.085.507-.29.352-.675.072-.17.163-.04.222.205.338 1.42.646.245.294.02.487-.168.192-.23.067-.373.037-.466-.15-.314.085-1.297 1.438-.071.321-1.322 1.537-.869 1.71-.028.328.149.503 1.072.76.227.387.017.226-.198.642.387 1.348.559.181.143.383-.049.35-.325.673-.585.629-.726.054-.62-.441-.361-.017-.568.316-.276.397-.033.346.17.531.376.228.327.067.607 1.066-.048.45-.295.355-.35.227-.803-.1-.955-.488-.309.066-.195.174-.071.315.33 1.388.42 1.673-.979.195-.296.098-.25.47-.083.79.23.366 1.823 1.419.088.169-.017.364-.613 1.964-.15.22-.386.1-.748-.512-.53-.152-.31.136-.12.163-.05.324.125.337.543.74.148.482-.062.156-.37.065-.87.275-.43 1.312-.08 1.24.077.24.186.102.469-.053.542.67.566 1.515-.208.462-.618.448-1.095-.897-.897-.235-.154.042-.206.14-.24.384.098.822-.1 1.008-.608 1.54-.097.16-.629.434-.351.164-.18.202-.049.198.117.126.429.507.285.202.155.108.25.165.043.194-.067.22-.289.334-.699.245-.264-.077-.104-.301-.184-.45-.088-.367-.466-.464-.207.007-.285.185-.327.584-.064.286.083.541-.525 1.919-1.208 2.586.732 1.92.466 2.335-.014 1.055.476.266.719.042.51.108.13.145-.066.303-.173.142-.732.171-.843.035-1.392-.03-.289.16-.248.347.034 1.367.119.208.597.072.922.336-.298 1.854-.339.208-.787-.142-1.67 1.937-.132.238.133.43.434.334.34-.055.429-.318.227.015.437.933.13 1.772-.236.134-1.369 3.412-.372.998-.227.869-.043.165-.3.1-.299.401.081.365 2.004.498.908.226.505-.064 1.567 1.66.608 1.122.764 2.093-.86 2.407.358.62.113.327-.25.812-.115 1.325.372.22.787-.343.278.001.272.17-.105.336-.442 1.13-.423.886-.015.307.258.553.397.206.782.01.94.843-.105.324-.352.248.623 2.665-.22.695.035.168.34.084.438-.144.684-.28.992-.099.778.424.12.196-.06.266-.412.491-.767.318-.668-.395-.222.006-.238.183-.175.493.023.359.198.201 1.516.232.56 1.047-.033.581-.366.12-.225.04-.024.145.017.188.281.123.513.17.46.107.833.053.68-.137.126.05.81 1.137.743 1.797.182.509.182 1.25.393 1.444 1.374-.208.333.56.107 1.507.085.111.972.582 1.185-.07.69.806.088.29 1.44.498 1.562.401.287.13.652.674.322 1.143.73 1.112.622.038.419-.185.115.092.777 1.139.74 1.508 1.098.35 1.082.726.061.078 1.224 1.543.154 1.264-.313 1.349.273.956.295.177.302 1.081.485 3.148-.275.564-.19-.012-.222-.31-.326.086.133 1.433.876 1.216 1.254 2.228.536 1.433 1.54 2.312.417 1.637.62 1.457.831.177 1.122.602.208.244.102.673 1.663.82 1.242.946-.071 1.353.193 2.524.644 1.157.08.252-.952 1.083-.461.247-1.03.246-.093.116-.215.636-.186 3.433 1.083.521 1.187 1.096.188.652.217 1.983-.122 1.091-.1.085-.173.34.106.679.935 1.065.578.37 1.433.477.39.58.043.657-.279 1.33-.156 1.665.034.402.222.502.636.762.36.284.56.19 1.182.167.88.88 1.527 2.387.318 1.072.32.647.967 1.217 1.195.91.801.267 1.433-.504 1.367-.778.669-.75.31-.523.373-.334.99-.529.51-.105.982.173.555.531.489.725.701 1.662-1.2.826-1.108 1.183-3.21.33-1.417.51-.96 1.046-.673.786-2.668 2.172-1.456.219-.574-.514-3.618-.713-.948.9-.677.642-2.538 2.409-2.776 4.412-2.18 1.726-1 .093-.633.475-.604 3.59-.158 3.31-2.676 1.277-2.648.398-2.62 1.466-.613 1.104-.038 1.682 2.977 4.487.001.402-1.494.858-1.595.145-2.51-2.155-3.152-1.91-3.582-.566-6.619.673-3.792 4.22-2.569 3.567-.532.74 1.166 5.668 1.66 4.632 1.125 2.056 1.798 1.34 2.067 1.011 2.515.243 5.315-1.22 4.91-1.974 3.691-2.896 1.676 1.02 1.194 1.523-4.238 2.308-1.181.122-.595 1.658.857 4.244 6.012 5.938 3.623 2.119 3.787.11 2.068.908 4.157-.406 4.525-1.902 2.7-2.079 1.15-3.374-.382-4.301 1.586-3.145-.117-2.954 1.378-3.012-.099-5.172-1.37-2.287 1.767-1.179 3.68-1.379 8.913-6.395 1.325-1.532-.191-2.085-.924-1.687.95-2.87 2.066-1.563 4.366 3.16 2.66.42 2.942 1.734 1.97.448 8.439-1.42.756 1.56-.592 2.28-1.549 1.394-2.288.23-4.044 2.162-1.216 1.113-1.77 1.666.035 3.583.226 2.645 5.17 2.57 2.174-.224 2.664.417.518 9.407 2.026 1.64 6.627-1.217 2.965-1.699 5.41-10.924 1.695-4.445 4.116-2.005 1.306 1.034-.947 4.655 5.907.34-.946 2.35-1.015 7.818-2.565-.856-3.355.272-3.108 1.11-6.79 6.01-.635 2.335 2.052 1.125 4.111.062 3.093-1.474 5.65-.861.975.563.093 2.062-3.245 2.82-2.797 1.097-4.601.812-4.149 1.52-8.37 1.457-3.727 1.618.184 1.816 1.94 1.01 5.101.875.728 4.588 2.073 1.612 2.543.254 4.5-3.239 2.907-1.101.076 1.699-1.226.906.136 5.467 2.933 1.815-.273.985-6.329.159-2.04-.762-1.793-2.354-2.381-1.356-3.077-.352-2.365 1.44-3.601-2.765-1.545.917-.713 3.07-2.681 4.006-2.434 2.414-.12 6.19 6.482 3.334 1.681 3.29-3.012-.26-3.897-3.219-.285 4.076-1.124 4.805-5.849 1.233-1.23-4.528.435-5.545-3.823-5.59-7.03.148 1.282 7.288-2.442 4.803 4.38 2.544 4.47 5.605.525 1.272-.22.726-.036.12-3.401-2.226-3.46-1.553-2.34-1.86-8.965-.554-4.98 3.247-5.719-1.789-4.499 1.202 12.071 6.558.147 6.006-6.653-2.836-2.241-3.413-4.868-2.726-1.795.46-.6 2.106.777 2.578 2.607 3.029 3.86.13 1.683 2.368-3.972 2.54-3.859.392.099 2.605.765 3.52 4.461.296 3.397 6.023 6.013 2.576 7.2-1.055-.305 4.043 4.012 2.36 4.293 1.7-.519 4.334.115 1.9 2.75 5.341 1.952 2.934.656.001 3.242-1.698.514-.906.302-1.887.92-1.114 1.391 2.036 2.467 1.682 6.532.266 7.889-.583 1.327.93 3.33 1.059 2.839-.09.722.651-1.933 2.92 1.774 1.971 3.412-1.7 1.223-5.49 7.722 7.556 1.407 1.19 1.47 1.752.94 2.975 2.488 2.617 3.077-.936.098-.921.63-1.39 2.665-3.18.749-1.266-.071-.695 2.123.463 1.883 1.082.453.922-.08 1.771 2.701 5.008 1.449 1.294 3.29 1.05 1.226 2.462-.452.9 1.458 1.994 2.854 2.597.048 7.16.91 3.66 4.114 2.21 4.602-1.602 1.596-2.872 5.776-1.272 4.504 7.354-1.811 2.874-3.555-2.795-3.386 2.367-7.117 1.22-3.775 3.123 2.633 2.863 10.804.194-4.611 9.84-3.823-4.325-2.466-1.176-1.361 1.403-.538 6.543-.998 1.566-2.64.839-2.838 4.243-.124 4.734 2.182 2.219-.687 5.895-14.537-5.972-.108-7.126-1.717-2.873-4.966-2.735-1.19 5.388-6.16 3.938-12.668 17.032-6.594 6.935-3.516 1.032 4.523-12.536 5.57-5.628 3.066-8.902 2.602-.784 3.558-3.372-.69-3.497 1.818-2.312-2.013-4.15 2.943-2.049.02-1.562 3.167-.988-.746-4.738-.353-4.62-2.554-3.63-4.427-.383-1.764 2.439.66 2.867-.89 6.146-3.327 4.237-7.425 1.614-3.571-.768-1.662-2.257-2.16-1.159-.783-.936-2.988-6.222-1.674-2.596-3.231-3.42-2.037-1.527-10.237-4.124-13.23-2.868-.409-2.597-2.973-.952-3.107-4.46-5.987.552-4.821-1.458-5.457-1.372-10.511-1.139-4.944-.403-6.41-.84-7.536 2.776-3.816 2.742-7.278 5.224-1.143 2.38-1.016 1.548-12 8.478-6.606 7.16-3.796 3.064-1.91 1.381-6.064 4.38-8.776 6.51-9.751 6.76-1.592-.525-2.65-1.143-.862-3.125 3.118-.645-.313-3.894-2.725-1.972-5.488-.8-1.614-7.509 4.057-.67.686-4.095-2.542.19-6.282-14.228-3.373-1.375-4.248-3.375-.998-3.24-5.084 3.535.934 5.089-5.56 6.795.502-5.931.366-4.32.502-3.77-1.672-2.778-3.263-2.493-2.476-4.8-2.821-.084-1.956 2.58 1.297 3.033-3.206 5.078-1.767 1.332-3.25-.639-3.197-1.315-2.615-.371-4.962 4.151-2.314-3.946-2.547-1.607-3.312 1.875-.395 3.164 2.35 3.636-.246 3.875 5.315 3.814-2.408 1.673-5.743-2.198-1.312 1.248 1.22 1.735-1.02 2.07-3.87.176-1.9 4.694-.554 5.178-5.48-1.04-1.675 1.863.734 2.034-2.288 6.69-3.17 1.938-2.293-4.165-2.355.338-1.62 3.688-4.083.952-1.048 2.25-2.917-.901-1.914 2.535-1.28 6.8-1.151 4.818-5.282-.788-5.16-2.01 2.994-3.971-1.666-4.409-3.343-2.072-1.504-2.577-2.467-3.032-5.252-4.583-3.047-1.935-1.207-2.498-2.494-1.399-3.747 2.123-3.486.428-4.488-1.068-1.492-1.565-5.027.174-6.647-1.185-3.947-4.28-2.716-1.667-13.214-.989-3.641-.976-11.239-4.527-4.511-3.849-6.098-6.97.384-1.514 4.38-.021 3.256-1.249 2.79-3.99.4-3.23 1.615-3.467 5.288-2.283-.18 4.442 3.06 5.246 4.985 4.313 4.453-4.255 1.818 1.464-1.336 3.083.31 3.35-.76 4.656 3.389 2.445 3.393.977 2.753-.305.378-3.229-1.646-1.488-.79-2.612 2.178-3.186-.702-4.166-1.816-4.504-3.274-.777.13-1.844-8.102-3.666-1.403-3.929-3.328-1.433-.462-1.762 1.015-2.391.469-1.105-1.047-2.475-3.633-1.093-.263.001-3.532.013-3.45 6.178-2.098 1.357-2.719-2.114-1.471 2.712-4.483 1.977.748-7.522-6.392 1.34-.085-3.161 3.102-1.96-1.063-2.193 3.715-1.812 2.32-3.298-3.753-2.132-3.248-5.215-4.048.172-2.752 3.29-4.257 2.608-3.267.61-4.84 2.703-4.638-6.202-.19-4.828-1.84-3.674-3.918 1.996-2.561-.367-.09-.82 1.032-2.268.05-1.274-.698-1.427-1.541-1.548-.885-6.08-2.205-8.195-1.375-.97-1.8-.194-2.088.259-3.398 1.304-4.626 1.087-3.482-.928-.952-.638.049-.658.402-.582.608-.184 1.08-1.49 1.85-3.196.391-2.042-.333-2.79.539-3.098.978-2.478.06-2.11-.652-3.142-2.106-1.514-6.361-.66-8.113 1.494-4.887-2.196-2.78.246-5.818 1.636-8.67 4.67-4.351 2.422-5.012-1.214 4.045-3.087.11-1.773.105-1.708-2.764-.809-1.183-1.85 3.334-3.558 1.762-3.98 1.59 2.683 2.651.276.74-2.427-.035-4.106-1.1-4.42-5.31.693-5.482-2.116-2.206.552-2.626 3.006-4.12.557-6.196-3.743-.208.182-1.97 1.721.14 2.86.696 2.57-5.042 1.926-10.649 4.627-9.824 6.304-1.424-2.977-2.392-2.969-2.456.908-4.666.747.695 4.206-5.32-2.888-1.546 1.922 1.484 3.95 5.727 5.467 3.788 1.093 5.712-.699 2.723 1.154-6.225 5.462 1.882 5.213 3.362 6.3 3.123-1.304 6.054-.533 4.518-1.957 3.286 3.36-5.94.28-3.073 2.27 3.155 2.434 1.203 1.224-4.21.23-7.699-.16-9.8.981-10.052 4.054-7.328 4.913-5.316 1.239-8.018.369-7.663-1.752-8.39-1.774-11.83-3.004-11.751-2.822-5.782-.83-8.731-1.837-.416-.131-6.981-2.205-15.964-5.761-8.333-4.173-17.24-8.612-12.425-6.283-8.408-3.359-7.003-2.788-10.518-2.923-16.352-4.878-9.23-1.691-7.501-.287-5.222.535-9.48 2.44-6.306-.78-10.8-.973-6.718-.23-11.739.968-9.734 1.375-8.263.38-8.988.954-10.87 1.993-4.508 1.327-6.245 2.853-3.733 2.275-3.608 2.763-4.453-7.284-1.186-2.477-.711-.511-2.726-1.04-.506-.526-.348-1.808.616-1.825-.525-1.216-.824-.942-4.338-3.016-.727-.987-.374-1.618-.033-1.254.272-1.419 1.034-1.923 1.224-1.275 2.973-2.464 1.9-1.26 3.429-1.703 1.678-1.126 1.604-1.426.153-.186 3.07-3.714 1.554-2.405 2.236-4.295.49-1.244.614-3.051 1.22-4.103 3.606-6.979.478-.575 8.65-6.344.263-.507.16-1.836.344-.981 2.786-2.874.378-.39 3.113-.175.587-.406.28-.625-.19-.946-.284-.393-2.596-.852-2.723-2.669-.426-1.044.312-.584 1.637-1.062 4.039-3.84.369-5.236.554-.247.586.746.388.004.894-1.285-1.683-2.51-.977-4.493-1.19-1.467-1.194-2.75-.55-3.507.37-1.837 1.117-1.396 1.627-3.672-.072-.307-.286-1.23-.207-4.66.38-.772.14-1.202-.329-1.524-.435-.662-.569-.635-.795-.178-1.014-.056-2.6-1.916-3.8-5.663-.719-.085-.265-.666 1.878-4.797.176-3.083-.384-3.487.186-.705 1.174-1.21 1.122-.123.963-1.084 3.394-3.82 3.65-1.85.954-2.23.015-.69-1.38-2.992-1.757-7.743 1.274-2.592-.693-2.599-2.402-1.577-.899-.936-1.301-2.076 2.05-1.058.686-2.553-.288-2.024.03-1.606 2.894-2.97 3.605-1.147.599.36.403.258.544-.193.585-.729.279-.767-.16-.69-.44-1.082-.211-3.642.461-3.283 2.425-3.59 2.872-2.492 3.067-.524 1.552-1.414 1.692-3.176.11-1.895.892-2.062.931-.837.33-1.068.002-1.279-1.395-2.005-.241-.753 2.157-3.254 2.748-1.265.611-2.897.145-1.884.985-2.085 1.097-1.11 1.655-.15 1.119-.658.295-.314 1.477-3.6.134-2.153-.798-1.043.082-6.097.002-.127-1.208-1.065-.343-.9-.006-2.067.679-1.407 1.441-1.316.207-2.06.713-1.549.502-.486.43-.095.332.151.456.175 2.117-.89.898-1.138.033-1.98-1.08-2.412-3.04-3.548-1.911-.93-1.309-1.45-.658-2.051.439-1.91.35-1.009.371-.63.622-.285 1.262.471 2.929-.89 4.166-3.094.129-1.24-.08-.642-1.112-1.138-1.365-2.956-.134-.76.52-.473.727-.621.444-.968-.518-1.18-.881-.852-1.624-.74-1.149-1.082-.748-1.733-.085-1.299.4-1.656 1.552-1.72.363-1.75-.08-1.484-.76-1.5.006-1.529.032-1.202.181-.875.697-.733.629-.414 1.038-4.654-.262-.775-.316-.25-2.488-.274-.656.193-.02.006-1.512.612-1.581.993-1.797 2.093-1.685.343-1.81-1.967-.258-.319-.348-1.355-.743-4.84.591-2.066.032-1.16-.15-.712-.37-.662-.422-.52-1.088-.936.007-2.241.404-1.471.107-1.63-1.085-2.483-3.998.21-2.535-2.647-2.05-3.478-1.152-.678-1.542-.197-.49-.73-.147-.987 2.024-4.29 1.721-4.695.483-.444.223-.523.187-.483-.023-.408-.197-.412-.68-.548-.107-1.143.298-.684-.045-.896-.25-1.655-.225-1.304-.419-.923L83 408.167l-1.031-.017-.577-.342.084-1.685 1.327-1.963-.54-1.987-1.491-1.14-7.024-5.608-.03-1.386.022-.768.376-.415.407-.202.676-.309.852-.203 1.152-1.543.428-.969.553-1.52-.099-1.581-1.19-.376-1.042-.415-.17-.431-.12-.639-.063-.518-.311-.564-.613-.189-.544-.058-.367.117-.352.046-1.12.261-3.71-.415-1.214-.449-1.819-1.463-3.535-4.475-.369-.725-.328-2.092-2.024-3.861-.714-2.725.287-1.613 1.887-1.992.678.51.942-.04.387-1.66-.052-5.332-1.277-2.796-.105-1.242.832-1.454.814.407 2.397-2.765.41-1.566-.014-.966-.11-.612-.665-.765-.534-.278-.751-.435-.195-.942.078-1.496-.542-2.076-.95-1.192-1.01-2.426.152-1.83.525-.994.936-2.948-.14-.327-.697-.576-.652-.541-.595-.665-.36-1.149.035-1.137-.52-.946-1.089-.752-1.26-.762-3.046-2.48-.652-1.031.114-3.97-.774-.73-.834-.787-.656-1.972-.114-2.263-1.347-1.236-.828-1.426.167-1.23-.608-.992-.835-.56-1.138.022-.66.422-.778.163-.655-.366-.824-.874-.396-1.738-.511-.675-.973-.377-1.764-.477-3.16-2.161-.98-1.297-5.886-11.77-.977-1.954-1.848-1.114-1.644.662-.607-.013-.108-1.441.409-11.865.52-13.353-.036-1.1.104-2.671.16-4.207.071-1.823-.004-.014.198-6.08.15-4.622.354-10.744v-.016l.668-19.579.065-2.038.11-3.951.05-1.592.01-.154.232-7.264.045-.913.218-6.353.012-.2.006-.325.02-1.063.023-.47.008-.842.013-.47.076-1.31.092-2.56.026-1.765.315-9.555.044-.99.354-9.548.056-1.689.027-.781.147-3.805.03-.657.06-2.427.227-7.884z"/></svg>