<svg height="1000" width="1000"><path class="americon" d="M886.228 765.922l4.01.021 3.101 1.515 1.327.83 1.232 2.768 2.909 1.786 5.612-.162 3.287-1.687 19.342-.305 8.654-1.66 2.694-.57 5.14-3.614 4.284-4.77 3.764-6.457.442-7.391-.656-2.678-1.193-1.649-.933-1.488-1.997-2.515-1.117-1.506.094-1.365 4.239 1.973 4.245 6.02 16.702 31.672.196 5.08-1.023 3.612-.325.766-2.438 1.9-7.068 3.117-3.658.618-10.18-1.366-8.22-.356-3.659 1.387-5.864-.357-14.158-4.426-18.185-9.097-5.166-1.79-2.92-2.187-1.874-2.484zm-147.927 21.591l2.477-.777 1.407-1.172 1.495.964 1.349 1.29-.663 3.221-2.152.057-2.452-.532-3.024-2.581zm-3.67-124.119l2.27 2.796.822 3.88-.234 1.732-2.202-.87-2.305-3.92zm1.115 90.551l5.763-.947 3.243.639 4.609 2.054 2.227-.523 1.605-1.488 10.357-16.13 1.296-.46 3.134-3.609.206-2.37 2.604-5.589 3.815-3.802 9.924-7.268 12.107-7.886 1.379.412.652 3.294 5.772 1.178 1.986-1.1 1.109.72 2.812 5.725.167 3.418-.609 4.493.725 2.465 1.55 2.872 2.54 2.302 2.644 1.422 2.963.408 2.875 1.196 1.308 2.919.342 2.36.64.362 2.208.2 1.657-.99 3.085-4.672-.2-3.443.568-1.489 1.813-2.289 3.582-.645 1.34 8.641-.674 5.768.506 9.578-.71 1.984-12.103.904-11.347-.634-16.364.254-29.697 3.322-6.261 2.092-3.8 2.32-4.401 4.114-.985 2.436.518 1.065-.643 1.897-1.86 1.01-7.196-4.608-4.747-4.575-5.333-7.071zM25 487.462L70.349 338.25 95.46 255.35l62.834 3.244 24.054 1.216 31.46 1.528 75.936 4.073 15.129.763 44.84 2.321.774.033 41.188 1.696 11.215.527 25.994 1.187 13.675.416 7.826.305 39.765 1.486 28.509.797 1.144.032 72.831 1.953 5.64.295 9.366-.01 3.927-5.087 2.817-5.205 3.162-3.746.11-.093 2.493-2.126 3.134-1.058 2.464-.45 4.066 1.152.02.007.023.007 6.865 1.937-1.324-18.771 2.994-3.889 1.715-2.07.54-.466 4.096-2.452 4.437-2.139 4.283 1.235 13.5 3.882 2.623-9.512 1.529-3.91.781-1.672 3.37-3.687 16.711-3.74 4.443-2.577 4.487-2.932.231-.145.817-.273 3.289-.499.003.01 3.138-.04 4.328 1.316 9.844 7.496 2.889-1.484 1.68-1.416 2.32-1.088 1.156-.165.022 7.663 3.677 24.272 3.429 12.208 5.587 12.658.513 2.2-2.066 2.27.001 1.734 3.76 2.753 4.088.55 1.137.611 3.886 4.348.293 2.022 10.342 3.536 1.764-.463.205-2.772 4.587-5.497 4.713-4.283 3.884-1.241 2.648 1.605-.647 4.269-.168 3.725.3 1.625 2.1 1.097 5.016-1.06 1.063 4.167.138 3.074-.626 1.71-3.02.113-3.29 2.287-4.273 10.15-4.846 6.483-2.637.692-.827-.443-.05-1.285-.129-1.514-.528-.913-.573-.714-.828-.115-.799.115-.672.445-.77 1.544-3.59 4.135-8.076 2.243-1.955-1.86-5.237 2.37-12.157 3.364-2.903 2.674-2.045.994-6.57.574-5.954 1.445-.234 1.227 1.708 7.18 1.719.743.68-.384 3.939.641 2.972 5.586-1.2 4.666-1.446 1.054-1.54-1.357-2.712.472-5.658 4.174-1.729 3.078-.374 1.106.196.777-1.808 1.449-3.645-2.07-2.517-.35-1.118.48-1.464 2.081.283 9.286 3.704 2.428 1.271.867 1.704 1.711-.945 1.47-8.052-.546-1.907-6.412-.17-5.618-2.158-.155-2.222 2.324-.033.845-.036.892-5.71 6.215-1.193 2.608-.71 3.417.39 1.59 1.084.183.46 2.05.835 1.667 2.007.52.669.675-.4.348-.192.723-.033 1.166.15 1.575 5.112 9.728.102 2.032-2.785-.983-3.017-3.145-1.322-.172-.616.174-4.173 1.172-2.233 2.074-.45 1.53-1.473 5.007-.282.958.462 2.43 4.246-.787 1.634 2.855 1.377 2.408-4.381 3.966-.646 2.555.358 1.91 2.372 4.051 1.862 1.314 5.71-.34 2.913-.977-.369-3.29.913-1.682 1.335-2.462 3.454-3.77 4.65-1.347 2.597-.824 6.505-.451.448 2.904 2.813 5.28 2.44 3.407 2.863 2.685 5.267.21 1.696.5 3.415 1.005 6.11 3.093 2.117.718 2.584.874 1.666 1.794 2.804 5.418 1.956 2.4 4.462 3.781 2.203 1.017 1.098 8.195 1.272 5.69 2.158 1.965 5.736 10.597 1.591 2.371 4.229 6.296 6.417 6.878.499 2.5-2.303 1.917-.164 2.812 1.447 6.242-.262 1.76-1.73-.09-4.82 3.35-.495 5.61 1.165 3.207-.872 1.633-2.064.852-2.168-2.54-2.388-.159-4.296 2.137.63 2.851 3.013 4.372 9.856 9.246 2.875.614.854-1.076 4.617 3.893 2.104 2.522 1.884 1.053 2.202-.224 2.618-2.577 3.826-.88 8.277 7.074 1.842 4.552-.233 1.723.426 1.693 3.82 6.184 1.983 10.95-2.475 6.959-1.682 2.934-.237 2.438.639 3.086 1.034 1.723 1.28 2.134 4.168 4.843 6.357 5.943 6.09 4.252 15.875 5.738 9.938 1.752 22.51.996 4.275 2.8.823 1.69 2.372 2.516 1.187.024 6.287-7.24 4.905-3.442 7.045-3.418 1.921.335 10.691-3.598 5.217.282 6.81-2.961 8.375-2.51 10.36-5.512 4.17-4.926 1.138-2.797-.523-10.797-1.64-13.43 2.221-3.75-.764-1.18-2.464-.398-3.312-2.448-.471-4.577-1.52-6.174-3.841-.196-2.479 1.035.142 2.283-1.763 3.992-.406 6.237-1.352 2.728-2.366-6.025.441-13.07-1.425-16.651-1.976-9.396-1.676-4.526-1.678-2.775-3.411-3.73-4.047-2.75-6.78-3.456-1.885-.107-3.766 1.063-2.26 1.247-2.143 2.189-1.905 3.966-.18 1.895.669 2.326 1.857 2.179-.095.502-1.092-.012-1.574-.81-3.079-2.867-2.978-5.298-3.966-4.112-1.512-.942-1.233.003-.519-1.112 1.836-3.307 3.232-2.13 4.91-1.315 4.64-.29 7.732 1.093 11.787 3.557 8.949 4.347 6.524 4.885 6.872 7.841 6.034 9.787 7.299 14.06 5.079 13.342 6.969 23.477 2.917 12.676 2.766 24.243.705 17.675-2.732 7.596-1.865 9.106-.897 1.672-1.518 7.356-2.414 3.086-4.16 11.282-.78 9.355-.6 4.055-3.171 2.13-2.257-2.134-.718-2.522 1.254-2.522 3.015-4.461.837-11.877 1.585-5.897 2.026-4.041.962-5.814-.764-2.396-5.663-4.619-2.891-1.475-1.924-.078-3.987 1.64-6.947 1.258-8.969 1.006-13.638 4.845-4.734.137-8.6 2.104-14.455 6.413-2.683 2.856.242 1.122-1.05 2.416-1.54.59-.593-.548-.629-2.435.07-2.85-1.51-2.526-1.837-.735-2.483.043-2.622 2.104-2.926.83-2.672-1.036-2.264-1.394-2.19-.57-3.606.685-2.293 1.353-1.172 1.585.068 1.088-1.292 2.815-2.441 1.682-5.678 1.925-2.134-.29-7.65.911-2.03 4.881-4.1 7.25-3.89 4.856-2.454 1.581-2.034.835-7.754 1.283-9.99.455-13.706 2.213-5.991 1.82-2.637 2.166-2.705 4.825-2.574 1.84-1.511.278-1.564.288-7.867 5.863-7.73 3.852-6.016 5.99.212 1.406-1.14 1.821-7.79 5.373-7.292.41-4.91 1.405-5.711 5.866-2.507 1.256-9.605.63-6.796 2-2.415 1.528-2.98.914-.716-.914.298-1.274 5.734-5.796 1.202.177 6.065-1.435 5.536-1.35 6.65-4.022 7.118-2.828 7.04-1.706 3.775-4.987 3.331-1.084 5.625-5.397 2.312-3.16 13.283-9.087 9.543-6.541 1.117-2.362-.34-2.701.335-2.747 1.334-1.712 1.594-.932.444-1.776-.335-2.045-2.947-7.855.087-1.78 3.092-5.222-1.468-3.16-1.997-1.49.538-2.288 3.09-1.931.245-1.844-2.493-8.471-.813-.88-3.256-.223 4.047-4.384 5.433-1.863.41-3.118-.809-1.982-4.406-1.84-.464-.194-1.695 1.2-1.464.143-3.74-2.248-10.117-3.026-2.842-1.651-2.001 1.113-.629 3.332 2.106 3.696 1.159 6.758-.504 3.216-2.64-1.07-4.06-3.073-2.901.998-1.518 6.285-.173 3.245 1.154 2.304.2 2.482-2.007 4.572-1.026.173-1.183-1.367-.6-1.458-.254-.571-8.685-1.872-1.107.294-.634 1.038-.123 2.432 3.15 1.673 1.249 3.337-.212.805-2.431 1.701-6.679.24-2.129-1.376-.267-.173-2.217.776-.69 1.003 3.358 9.8-1.84 1.117-.747 2.231-.056 1.834-3.732-6.471-.595-5.061.097-2.86-.355-1.047-.826-.775-4.447-1.744-1.38 3.165-2.803.125-2.145 1.686 2.37 3.144 1.31 6.004-.368.364-2.538-1.032-1.61-4.256-.952-1.173-1.898-.129-.672.645-.023 3.23.732 2.268-.999 3.542-1.737 2.453-.985-1.279-1.423.003-.493.74.43 1.917 2.579 2.97 1.821 8.936-2.74.06-1.587 3.715-1.357 5.312-2.236-5.22-4.788-.189-1.053 3.525.496 3.765-5.785-.575-4.29 1.154-4.28 3.57-1.474 1.587-4.695-3.98-7.313-1.093-9.297 4.354-.598-8.83-2.689-25.05-.088-.575-1.607-3.07-.838-.898-.096-.822-.197-3.097.245-2.796 1.257-1.626.267-4.575.002-.023.407-6.25-.064-.485-.482-.137-.133.001-2.86-.785-2.172-.441-5.913-1.361-.002-.143.015-1.036-1.418-.377-2.644-.61v.027l-.858-.2-.336-.1-1.514-2.402-6.395-10.158-.247-.392-9.65-14.433-15.09-8.355-2.702-1.547-.405-.746.014-1.499-.788-1.955-.459-.782-.506-.102-.936-.528-.378-.71-.032-.678.386-1.501-.006-.75.101-.643-.082-.249-2.167-5.012.597-1.752 1.397-1.438.526-.611.632-.647-1.777-2.91-.11-.391 2.127-6.258-1.863-6.866.364-4.21v-.07l.144-1.713-3.71.636-.53.076-2.067.337-.583.076-.185.037-1.484.26-.742.078-.743.148-1.35.295-.08-10.514.027-.071-.059-14.93-.031-.676-.04-6.518-.072-12.037-20.288.506-10.621.254-.436.01-.264.037-6.98.747-.08.036-8.42.272-4.622.106-7.763.268-42.266 1.39-8.793.6-.371-5.52-21.862-.282-1.977-.027-25.533-.963-20.145-.252-10.223-.607-8.863-.532h-.007l-30.092-.712-17.882-.26-36.887-1.146-13.884-.252-5.007-.095-11.946 1.314-2.434 1.904-2.09-.03-4.415-.172-.233-2.068-9.3-.711-13.932-1.788-15.842-.058-.468 1.024 1.05.446.464.684-.638 1.698-.935 1.568-.181.026-.63-.36-.424.106-.053.623.243.57.42.431-.412.848-.54.631-.027 1.087-.773.715-.189 1.67-2.126.271-11.14 1.411 1.106-13.832-8.88-.31-4.35-.375h-.03l-35.895-1.083-2.429-.127-11.756-.622-19.547-1.212-27.067-1.721-.332-.033-16.374-1.15-.35-.024-36.527-2.33-14.408-.1-2.527-.092z"/></svg>