<svg height="1000" width="1000"><path class="americon" d="M513.684 796.349l7.756-4.283 4.159 12.012-6.184 10.153-8.903-6.874zm-330.772-314.33l7.007-1.164 4.111-6.978 9.551 3.176 5.43 7.83 2.556 12.442 7.351 1.235 1.83-8.029.742-3.26 3.383-5.246-1.462-6.506 2.235-7.543-2.791-5.224 6.898-6.479 3.915.718 3.71 6.383 7.867 1.298 6.524 2.502.123-9.568-5.84-5.476-7.008-12.74 5.643-11.434 6.039-7.225 8.988-6.77 6.004-7.9.005-.006 16.152-7.439 9.691-6.442-4.595-11.169 2.971-4.752 10.251-9.558 10.757-7.756 1.162-9.121-1.808-6.395-7.124.04 1.647-7.963-2.095-4.371 1.81-9.064 6.194-8.412 4.163-8.908-7.466-9.407 5.517-12.923 3.54-8.096 4.062-3.242-.129-6.758 6.941-6.248 6.413-4.883 5.76-5.552 3.988-3.952 4.998-30.86 4.19-26.02 26.634-38.132 37.182-53.07 18.565-26.558L466.799 25l9.197 1.297 6.893 3.223 9.93 2.88-2.071 9.434 2.069 28.276 10.705 6.86 9.52 7.239 14.063-8.095 18.42-5.832 10.27-1.558 2.248-6.91 11.707-3.323 6.874 2.159 12.183-1.502-1.366-7.366 3.183-6.154 13.253.177 9.495 2.81 7.43 5.33 10.383 8.764 12.506 11.255 6.752 4.473 9.545 16.276 14.722 10.943 1.521 57.855 1.297 41.31 2.765 69.118 1.63 51.784.645 21.588 4.547 4.245-7.706 10.667 6.19 8.332-5.684 10.586 3.559 10.792-2.866 11.362-.057.226 13.993-.701 5.585 10.3 6.652 1.871 14.8 5.166 11.95-2.38 5.033 6.862 1.45 15.129-8.97 1.322-.817 9.827 9.223 16.644-4.543 16.034-2.775 7.07 4.275 5.727 10.235 18.533 7.969 5.915 6.209-4.795 3.799-9.774 10.413 3.885 6.592 1.6 7.892 10.67 3.684 9.323 1.672 8.431 8.245 19.164 8.003 7.641-.958 11.812 6.926 6.624-11.318 11.19-7.072 6.002-6.384 8.065-7.847 9.895-9.773 5.797-8.864 8.597-11.803-5.124-4.598 4.964-7.665.761-6.396 9.85-4.248 10.22 3.024 7.106-11.589 10.799-8.957-12.377-3.098-8.37-8.178 5.44-13.476 1.941-6.73 6.75-2.421 9.94-6.795 5.709-5.855-3.595-1.119.938-5.361 4.491-5.495-.577-5.23 13.123-8.658-7.164-3.516-4.9-9.858 3.1 2.622 9.877-2.771 4.802-5.713 8.8 8.81 8.802-20.748-1.57-1.155 8.262-2.22 19.646-16.925-1.618-10.077 3.746-4.449 2.22-8.239 4.104-5.037 13.532-6.281 1.444-2.112-15.87-17.316 4.237-14.828 7.208-4.946-11.358-4.82-11.586 7.303-6.428-7.334-9.444-2.67-3.445-10.856-2.514-2.999-.698-2.205 13.6-3.29 9.105 6.92 11.136-5.675 8.62 3.837 7.314-5.201 7.18-8.6-.514-6.855-.18-5.985 12.184-4.72.567-5.872 8.605-6.51 5.01-5.277-13.408-4.078-5.686-2.012-2.808-4.567 7.303-2.542 2.953-10.39 15.723-7.803-.85-4.13 3.931-11.483 4.205-7.146 1.637-3.376.772-5.973 10.604-8.492 3.38-4.213 5.843-3.424-.801-.982-11.925-3.985-1.725-4.447-1.927-10.893 6.6-2.9 7.431-9.758-.8-1.353-.112-4.077 9.056-11.465-.824-3.691 6.433-4.397 10.668 1.588 8.632-6.354 3.841-12.118 2.484-2.808-.245-3.581-.313-4.096 9.196 9.185 6.475-9.278 9.848-5.43 11.318-8.065 4.406-8.272-1.033-2.692 2.158-3.226 2.583-5.317 11.29 1.081 9.32.159 1.365-3.612 12.805-4.408 6.27-7.35 12.7L227.23 975l-8.362-4.696-9.905-9.851-1.339-1.334.868-11.156.004-.017 2.123-8.217-9.2-11.96-7.865-12.3-9.308-11.632 2.94-11.623 1.533-9.824 1.218-7.828-1.224-6.74-1.206-6.65-.525-28.774-.177-20.229-.088-10.164.037-55.644.05-36.317-.05-5.677-.034-3.735-.076-8.536-.192-21.756-.114-13.026-.394-51.57-1.318-57.385z"/></svg>