<svg height="1000" width="1000"><path class="americon" d="M25.206 76.946l.737-.874.412-.32 2.613.2 8.025.557h.008l6.212.375 4.186.365 5.04.372 2.597.201 2.965.229.884.068.176.017 7.636.505 7.344.478 5.65.382h.004l2.19.184 3.025.194 15.541.954.374.026.18.013.563.04.083.006.153.012.025.001 1.246.082 5.204.34 1.302.09 4.588.295 1.172.088.212.014.049.01.42.028 1.311.051 2.435.14 1.475.091 10.526.687 3.434.125 1.547.098 5.484.346 1.832.113.633.052 9.957.561.514.062 1.198.083 5.07.306 7.815.452.237.01 4.407.247 6.895.373 5.187.235 7.073.29h.045l.479.026.172.007.433.02 6.085.224 2.467.066.077.002 1.441.03 4.144.126 9.748.272 2.948.081.02-.003 1.61.052 1.916.054 2.17.103h1.02l7.523.168 19.27.396.258.023 1.192.017.032.001 6.294.053 2.546.01 5.29.013 1.761.025 3.279.007.168-.012.21-.02.105.028.086-.006 2.967.015 1.787.008.213-.006.136-.01 6.1.045 1.737.009 3.032.02.443-.025 5.617.076.561.008 2.732.043 1.018.06.75.012 1.216.026.807.001 4.384.054 1.807-.007 1.127.003h.947l.36.012.418.005 8.039-.042 4.255-.028.052.009.078-.01.607-.018.253.025.279-.003.398-.004.779-.006 2.744.061.078-.01h.475l7.812.215.217-.013 3.211.1 9.2.078 3.951.03 3.8.03 7.78.09 17.043-.149 5.093-.142.166-.006 1.609-.052 17.446-.372 2.205-.038 5.194.021 1.877-.017 1.45-.044 2.203.046.77-.028 3.047-.001h.966l-.009-.014h9.645l2.071-.043 3.772-.047 3.378-.043.432.016 6.48-.16.18-.004 7.866-.213 13.06-.481.3.005.096-.008 2.74-.074 1.074.012 10.107-.227 3.941-.143h.005l2.638-.085.032-.016 4.429-.13 8.497-.22 2.576-.064 2.174-.036.752-.02 2.235-.093 11.378-.297.48-.049 1.32-.037.117.011 1.748-.119.221.021 5.219-.229 4.224-.162 3.778-.153 3.176-.092.626-.072.52-.06 9.67-.437 4.897-.365 1.043-.082 1.48-.077 1.887-.098.65-.034 1.289-.084 7.743-.482 1.264 2.16.456.534.655.617 2.154 1.212 1.04.838.343.451.138.355-.041.379-.768 2.153.002.476.113.417.293.446.965.77 1.47.357 2.278.283 2.231.624 1.77.342.45.21.253.262.151.31.146.906-.084 1.394-.44 1.67-.016.481.149.77.263.524.353.416.57.427.619.41 1.888.88.53.478.552.902.51 1.452.133.793.13.326.165.333.783.95.968.593.537.226 1.533.375 1.22.092 2.077-.187.336.062.148.138.172.27.12.732-.02.395-.103.294-.276.329-.783.715-.218.35-.003.447.116.275.51.444.569.133.693-.046.112.151.021.274-.311.871-.688 1.202-.06.574.096.59.257.471.315.196.543.165.603.016.681.306.228.222.097.212.205.145.988.269.609-.102.519-.348.183-.003.09.08-.013.252-.08.444.61 2.89 2.654-.29 3.27-.237 2.15.64.462.27.407.475-.969 1.147-.38.296-1.346.711-.742.625-.198.247-.201.488-.587.994-1.323 2.05-.588 1.443-.381 2.178-.283.918-1.884 4.341-.498 1.338-.369 1.418-.037.533.04.961.34.916.085.444-.068.513-.894 1.95-.112.244-.373.313-.32.41-.344.842-.085.458.08.36.239.463.023 1.336-.34 1.583-.026 1.12.097.825.21.767.11.399-.132.481-.546.779-.202.462-.238 1.399-.007.455.179 1.458.552 2.295-.01.242-.429 1.28-.015.393.254 3.442.167 1.1.488 2.474.767 3.086.475 2.284.34 1.313.836 2.426-.664 3.8 1.08 2.375.467.69.968 1.852 1.156 2.448.285.844.095.608.2.585.232.385.58.342.098.157.606 1.382.69 1.077.374 1.037.812 1.468.635.87.227.203.904.803.463.53.563.856.36.943.095 1.009-.13 1.013-.133.304-1.097 1.31-1.972 2.593-.44 1.915-.11.92.226 1.363 1.514 4.473.451.889.481.489 2.11 1.376 1.162.614 1.18.945 1.698.976 1.098.754.4.429 1.028 1.51.654 1.363.279.945-.016.448-.411 1.037-.102.813.005 1.801.13 1.126-.119.503-.182.379-.323 1.606.035 2.265.326.627 2.137 2.448 1.058 1.044 1.939 1.586 1.949 1.381 1.579 1.365.189.163.415.775 1.23.857 1.474.808 1.019.772 1.34 1.56.907 1.424 1.662 1.44.413.639.345.762.337.536 1.697 1.633.848.57.943.43 4.327 1.717.566.43.566.8.49.873.063.241.403 1.818.305 2.23.215.835.695 1.137.725.984.715.854.759.427 3.039.577 1.728.164 1.967.39 1.08 1.682.973 2.177.953 1.685.646.87 1.575 1.45.356 3.714.44.944.924 1.2 2.132 2.43 2.098 1.716 1.66 1.053 1.181.888 1.41.807 1.52.414.768.374.742.733.709.38 1.418.499 1.292.237 1.073.61.25.219.234.346.096.236.158.387.267.938.76.812.593.421.515.25.895.29.94.182.447.244.283.331.046.393.374.536.912.885 4.945 2.764 1.66 1.061 1.064.848 2.727 2.97.642.556 2.497 1.274.846.628.263.454.164.73.998 1.015 1.164.757.263.404.933 1.884 2.336 2.583.39.226 1.389.364.734.486.582.565.445.844.86 3.327.072.463-.058 1.105.722 1.832.092.633.01.671-.084.718.033.977.494 2.187.598 1.608.094.624.213 3.234.2.768.428 1.389.341.79.366.592.81 1.023 1.323 2.124.24.76.558 2.345-.068 1.918-.097.315-2.402 3.09-.1.255-.107.884-1.422 1.593-.14.277.003.29.33 1.296.548.81 1.104 2.368 1.228 2.224.366.806.195.873.166.353.6.952.237.224.587 1.244.299 1.404.101 3.328.088.667.637 1.774.394.739.599 2.529v.003l.347 1.108.297.548.614.84.604.734.757.712 1.166.661.596.771 1.123 2.211.494.525 4.303 2.34 1.733 1.042.95.095 1.44-.141 1.528-.405 1.374-.634.255-.198 1.757-2.254 1.934-2.207 1.324-.765.991-1.428 1.764-2.9.547-1.612-.14-1.038.006-.31.115-.428 1.367-2.669.595-.562.745-.484 1.62-.684.002-.001 1.52.02.908.302 1.287.271 1.648.024.96.107 1.51.404 1.826.769 5.293 2.478 1.878 1.26 1.35.618.949.313 1.176.647.477.09 1.05-.016 2.12-.2.886.027.235.037.85.133 1.018.364.819-.108.421.033.544.188 1.243.775 1.639.66 1.059.59 1.399 1.21.634.606 1.713 1.637.347.15.699.064.49.2 2.97 1.467 2.182 1.59 5.55 3.028.599 1.026.088 1.11-.626 4.114-.356 1.712-.709 1.435-3.24 2.871-2.724 2.01-.021.038-.63 1.102-.494 1.17-.128 1.065-.954 1.426-1.095.756-1.899 2.049-.624 1.139-.18.865-.046.623.03 1.132.464 1.626 1.064 1.657 1.04 1.036 1.346 2.285.61 1.694.22.9.037.15.608 3.046.023 1.645-.08.844-.684 3.245-.95 2.342-.566.846-.885 1.096-1.051.901-.905.987-.754.45-.29.268-3.31 5.672-1.176 2.378-.337.682-.434 1.407-.011.038-.613 2.658-.286 1.86-.446 1.81-.096 1.23-.422 1.317-.537 3.938-.119 1.397-.48.934-.85 2.175-3.695 4.719-.864.692-1.682 2.013-.324.389-.05.082-.356.592-.49.796-.827 3.192-1.571 3.742-.328 1.24-.175 1.876.243 3.474-.235 1.824.07 2.307.349 1.441.184 1.182.529 2.115.147 1.05.537 2.492.708 2.144.535 1.269.116.215.236.44 2.993 4.278.406.417 1.366 1.047.81.361.9.128 1.484.554 1.435.825 1.148 1.058 1.225 1.207 3.422 5.339.028.043.359.448 1.099 2.232 3.654 3.217 1.782 1.104 5.11 3.163 1.238-.916.263-.11.438.01 2.062.966 2.038 1.144.4.479.29.86.09.791-.038 1.213.085.599 1.336 1.597 1.037.906 2.487 1.498.813.345 1.058.018 1.242-.341 1.047-.021.832.21.312.203.29.43.295.634.115.46.24.417.34.33.475.285 1.99.796 3.678 4.453 1.238.979.446.226 1.572.12 1.063-.155 3.443-.861 1.826-.72.672.912.15.72.163.262.306.067 1.254-.218.074.769-.07.315-.97 1.263-.78.275-1.327 1.136-1.768.105-.333 1.087-.859.573-.91.912.161 1.373.096.282.309.428 3.035 5.762.29.299 1.851 1.098.12.071 2.093.647 1.44.125 1.663-.109.642-.357 2.228-1.572.677-.712 1.306-1.942.557-.649 1.664-1.378.894-.335.313.055.955.58 3.397 2.435 1.452.802.677.238.203.333.1 1-.288.535-.053.507.7 1.646.364.434 1.112.927.6-.647.33.205.816.287h1.321l.479.185.698.527.484.207.595-.143 1.464-.06.529.606.58.89.512.607 1.817 1.635 2.204 1.534.934.41 2.05 1.105.786.463.485.36.717.529.905 1.635.41.458.155.344.07.966-.092.981-.361 1.35-.301.81-.178.876.423 1.34.337.36.734.396 1.317.342.59-.142 1.757-.028.757-.471.57-.21.976-.16.134.095.076.177-.002.72.106.35.473.403.545.037.953.54.883.62.854 1.67.65 1.089.606.752 1.465.699 1.01.294 4.139.918 1.058.078.847.305.57.333.8.642.382.504.369.792.039.835-.232.826-.24 1.598.014 2.192.186.966.056.965-.169.335-.06.477.348.862.791.824.642 1.204 3.201 3.134 1.16 1.468.306.596.11.466.013.51-.18.811-.492.564-.7.428-1.159.198-2.299-.624-.648-.09-.376.078-.46.348-.13.3-.047.406.03 1.258.006.253.02.842.024 1.01.188 1.27.749 3.012.104.312.647 1.028.775.973.725 1.154.44.885.45 1.455.93 1.972 2.636 4.04.68.872 3.121 2.865 1.172 1.405.594.88.928 1.863 1.391 3.508.612 1.879.218.923.083.81-.073 1.324-.659 4.544-.186.787-.405.928-.444.508-1.65.822-1.04.276-2.9.362-1.39.54-.243.163-.437.294-.302.387-.518 1.242-.544.64-1.277 1.146-.21.27-.281.65-.255 1.318-.04.826-.128.74-.255.628-.077.502.045.711.227.65.505.854 1.131 1.538.704.851.92.926 1.02 1.272.173-.045 1.385-.36 1.272-.123 1.174.278.299.158.293.34.1.29.106.822-.047.414-1.17 3.493.016.674.875 2.704.158.702.96 2.06 2.89 4.817.544 1.675 1.555 2.484 1.769 2.348.429.448.663.557 2.149 1.387.83.644.614.747.893 1.56.544 1.575.041 1.005-.367 1.876-.8 2.409-.01.486.18 1.266.129.329.373.616.532.602 2.44 1.62 2.47.723 2.248.911 1.248.644.894.567.707.65 3.206 2.95 2.032.537.636-.374.654-.577.46-.565.362-.716.712-2.907-.436-1.421-.985-.945-1.766-1.284-2.033-.676-1.55-.762-.527-.45-.42-.508-.33-.6-.253-.752.265-1.957.07-.242 2.044.313 1.533.026.039.17.465.082 2.35-.057.678.1.655-1.511 1.52 2.553 1.249 2.698.68.995 1.33 1.074 3.137 1.866.669.682.388.801.636 2.13.11 1.902.54 1.783 1.046 1.142 1.248.415 1.075.047 1.192-.529 1.703-1.004.837-.327.484-.081 1.139-.558.584-.26.56-.076 1.017.24.5.257.86.65 1.054 1.21.543.926.122.578.063.654-.13 2.58v.005l-.15.904-.86 3.596-.851 6.128-.283.865-.902 2.046-.616 2.757-.782 1.921-1.437.122-.86.153-.53.644-.307.166-1.094.06-.516.218-.43.344-.513.778-.132.23-.074.603.207 2.742-.057.68.103.549.227.481 1.041 1.64.415.45 1.176.797.76.288 1.742.04 1.634-.073.642.065.827.39.008.01.487.564.604 1.166.15.583-.019.907-.306 1.46-.425.948-.516.61-.633.043-.763-.002-1.047-.573-1.412-.083-.775.1-1.51-.592-.327.049-1.515.71-.712.506-.975 1.251-.845 1.501-.24.98-.094 1.578.107 1.041.23.75.555.717 1.855 1.898 1.494 1.267.846.896.26.611.089 1.359-.185.68-.337.404.477.09 1.496.944-.754 1.202-1.396 1.881-.008.011-1.215 1.137-.62.703-.66.991-.684 1.355-.186.623-.182 1.402-.075 3.097-1.402 4.08-.537.768-1.4 1.345-1.348.553-3.228.535-.252-.023-1.243-.63-.571-.429-1.145-1.111-2.51-2.844-1.132-1.876-1.941-2.867-.76-.877-1.351-1.252-.128.006-.963.043-1.433.314-1.874.58-1.312.701-.77.829-.61.987-.118.351-.186 1.086-.22 3.172-.238 1.415-1.718 4.558-.074.604.018.829-.182 1.807-.897 2.69-1.444 5.508-.318.975-.429.866-.876 1.447-1.04 1.444-1.65 1.956-.658.62-1.069.644-.546.206-1.13.096-.729-.119-1.485-.625-.705-.691-.424-.835-.161-.57-.053-.509.086-.513.854-3.076.166-.482.396-.886.741-.96.64-1.278.492-1.433.329-1.631.004-1.16-.452-1.966-.962-2.384-.94-1.495-.285-.276-.608-.35-2.318-.712-2.162-.165-.64-.134-.557-.246-.792-.14-2.214.225-.54.135-.946.573-.777.723-.715.925-.499.87-.387 1.156-.201 1.044.09.97.203.54.708 1.342.926 2.105.33.605.651.913 1.815 2.154.625 1.277.766 1.172 1.87 1.79.33.475.202.595.05 1.567-.145.953-.308 1.016-.239.494-.288.471-1.936 1.964-.353.538-.21.73-.026.788.072.672.188.623.317.652 2.743 3.524 1.85 2.806.6 1.188.156.606-.01.269-.384 2.583-.762 2.149-.517.738-.62.613-.695.491-.921.375-1.032.182-2.324-.054-3.224-.695-2.842.029-.761.179-.736.372-.732.85-.532 1.249-.006 1.221.173.417 1.224 2.111 3.42 2.118.856.604.926.891 3.736 1.78.752-.225.38-.336.268-.017.827.534.293.375.368.866.239 1.62.054 1.721-.637.735-.35.192-.466.1-.64-.1-.713-.363-.672-.095-.633.057-.41.178-1.283 1.23-.529.322-1.443.594-2.25.372-.623-.01-.706-.14-2.033-.65-1.905-.796-.824-.221-1.565-.147-3.814.64-1.242-.166-.787-.442-.596-.098-.481.43-.168.42-.51.954-.24.669-.017.33.06.29.128.2.762.83 1.114 1.04 2.051 1.59 2.405 1.635 1.44.86 1.588 1.31 1.237.9 1.153.61.872.376.87.547 1.772 1.553.987 1.188 1.062 1.647.38.979.149 1.12.006 1.581-.09 1.115-.115.476-.694 1.048-.429.453-1.934 1.157-1.446 1.137-.475.263-2.188.716-2.173.95-1.31.687-.847.784-.892 1.392-.163.41-.195 1.91-.185 3.868-.26 3.321-.156.908-.502 1.66-1.567 2.412-.29.58-.153.764-3.951.264-.675.049-.013-.008-4.886.242-.042.005-14.92.87-.843.052-.075.002-.076.007-3.162.17-.706.045-8.795.463-.078.003-.18-.013-.64.089-1.095.015-19.843 1.019-3.4.245-.148-.001-4.758.246-19.652.965-.022.001-.518.025-7.115.34-.48.045-3.948.164-1.386.076 3.8-5.982 1.665-3.85.774-3.845 2.173-1.581-.205-2.698 2.847-1.654.71-2.78 2.347-.924 3.417-1.944 2.926-2.432-.114-3.675 2.061-4.87 1.625.451 1.308-1.954 1.616-1.584.955-.936 3.984-1.839 1.956-2.593 2.374-.444-.048-2.622 1.487-4.205 4.635-1.454.612-3.054 2.111-2.796-2.526-2.8.21-4.188 1.955-3.052-.625-5.452-2.257-2.607-4.383-.432-3.313-1.913-1.976-1.664 1.345-2.325-1.267-4.286-.225-2.277-2.748-1.603.835-2.643-.092-.274.28-.22-6.2.277-3.497.145-.506.01h-.004l-1.228.065-16.598.562-23.14.814-.067.002-.768.022-11.363.38h-.01l-1.371.037-1.34.052-1.668.055-1.064.017-5.376.196-.711.016-5.949.185-2.725.121-8.148.218-2.51.07-.292.008-9.88.285-3.49.188-.42-.033-.045-.019-.352.019-12.185.325-.362.011-6.807.207-1.408.075-11.658.327-.06-.002-4.527.142-13.593.35-.193-.006-1.31.02-26.568.633-.034-.007-.299.015-.018-.002-3.898.047-.48-.013-1.464.01-.558-.008-7.508-.1-4.437.035-1.062-.008-.373.014-1.467.016-7.043.11-.765-.021-4.508.094h-1.67l-4.454.04-2.048.044h-.238l-5.844.113-5.905.092-2.785.042-2.213.049-.38.002-.59.003-8.743.134-.24.003-17.936.236-.441-.008-4.585.032-1.418-.011-4.033.025-.208.001-2.659.002-3.506.015-3.286.01h-.017l-2.593.044-1.88.024-7.35.09h-1.805l-.403.006-.34-.007-13.924.146-1.346.037-4.77-.003-3.726.115-1.462-.118-5.308-.007-3.555-.113-10.885-.044-1.84.022-5.257.06-31.155-.03h-.001l-9.922-.118-.039.008-2.271-.006-5.982-.02-.05-.003-26.065-.315h-.159l-2.713-.03-.202.008-5.537-.002-25.073-.429-3.271-.061h-.002l-11.882-.211-.204-.032-4.627-.063-12.036-.277-1.063-.015-10.443-.206-17.344-.411-1.464-.041-1.337-.03-1.297-.006-.07.001-20.764-.45-5.892-.137-2.351-.061-5.59-.148-.707-.02-16.935-.474-3.217-.084-.249-.006-1.56-.03-.12-.006-37.357-1.373-23.679-.767-5.953-.274-8.77-.318.118-2.9.02-.52.1-3.067.033-.336.002-.166.305-7.577.147-3.977.054-1.437.049-1.069.365-10.28.01-.28.214-5.943.44-12.095.566-14.984.193-6.074.182-3.142.097-2.678.117-2.736.011-.633.076-1.47.072-1.663.038-.666.317-8.252.008-.279.032-.499.068-1.873.228-5.836.13-3.01.114-3.384.057-2.01.009-.092.049-1.307.002-.033.025-.556.039-1.35.056-1.702.138-3.068.02-.479.156-5.156.086-2.695.04-1.184.082-1.402.134-3.432.016-.08.154-3.76.013-.225.053-1.527.033-.524.653-15.36.087-2.447.02-.29.196-4.753.002-.035.009-.571v-.024l.215-5.315.11-2.682.14-2.697.12-2.634.096-2.762.038-1.03-.001-.02.04-.87.03-.824.124-2.599.3-6.958.028-1.16.14-4.735.031-.705.08-1.787-.002-.828.008-.073.244-6.933.026-.178.162-4.914.102-3.021v-.018l.114-3.578v-.004l.043-1.674.06-.816.012-.187-.005-.462.201-5.89.078-1.385.317-7.958.452-8.543.188-3.326.057-1.42.188-3.276.09-1.724.028-1.07.091-1.563.14-2.742.043-.848.098-1.753.186-3.351.01-.46.04-.747.046-.659.042-1.03.015-.283.138-3.584.13-3.077.07-.855.345-8.163v-.02l.151-4.22v-.006l.036-1.067.014-.264.607-15.114.092-1.99.097-1.333.209-4.147.103-1.861.027-.587.119-2.515.011-.294.058-1.417.078-1.974.216-5.976.114-3.575.011-.276.102-2.032.086-2.253.02-.972.025-.778.055-2.09.154-5.236.034-.953.14-3.494.028-.679.063-2.012.587-13.555v-.006l.064-1.013.004-.222.062-1.33.442-10.224.003-.056.03-.347.182-4.882.064-.65.003-.004.199-5.32.085-2.047.087-.824.053-1.895 1.01-18.73.025-.474.02-.317.668-12.504.173-3.004.078-3.582.054-1.422.043-1.13.048-1.104v-.152l.007-.2.101-2.66.374-9.663.02-.096-.02-.476.013-.364.247-7.246.544-11.327.19-3.931.095-2.91.069-1.436.147-4.335.086-1.082.203-.502.79-1.117 1.165-1.303.397-.804-.182-2.664-.56-.513-.79-.375-.994-.202-.99.054-1.165.574-2.293.55-1.5-.24-1.625-.7.373-1.887-.418-2.027-.726-.556-1.561-.48-.978.108-1.316.847-2.566 1.383-1.349.201-1.815-.109-.754-.212-1.443-.604-1.471-1.28-.94-1.875-.653-1.955-.001-.001-.301-.543-.499-.497-.319-.197-.49-.113-1.745.228-1.685-.175-1.255-.421-.427-.245-1.064-1.148-.25-.348-.19-.529.048-.577 1.076-1.803.269-.769.089-.622-.195-1.492-.512-1.182-.85-1.153-1.144-1.15-1.47-1.034-1.444-.792-1.485-.662-.58-.423-.606-.6-1.086-1.45-.632-1.116-.386-1.122-.264-1.044-.292-2.14-.168-4.492.12-.76.099-.306.315-.437.702-.633.503-.35.313-.115.835-.127.823-.488.567-.607.36-.951.004-.74-.206-.758-.521-1.094-.533-.5-.396-.178-.437-.064-.965.098-1.118.666-.9.418-.48.193-.55.1-1.47-.255-.483-.2-.344-.273-.316-.295-.462-.811-.076-.33-.03-.74.1-1.073-.197-.546-.444-.583-.488-.41-1.548-.693-.375-.34-.554-.503-.472-.929-.23-1.742-.433-.802-1.079-1.073-.767-.394-2.769-.965-1.728-1.073-.666-.5-.549-.536-.437-.51-.64-1.13-.177-.465-.128-.995-.091-2.545-.073-.566-.207-.46-.555-.746-.412-.413-2.451-1.457-.71-.607-1.333-1.428-1.346-1.715-.481-.804-.34-.856-.495-2.138.111-.936.909-2.627.158-.248.465-.437.592-.319.477-.146.871-.034 1.754.854.626.146h.398l.677-.131.714-.334.378-.243.307-.334.83-1.249.34-.988.149-.799.005-.371-.166-.857-.648-1.421-.041-.249-.194-1.157.06-.602.26-.959.6-1.338.744-1.143.81-.919.248-.58 1.47-2.209.45-.529.909-.753.43-.234.887-.232 1.07-.082 1.09.032 1.32-.173.367-.126.75-.462.738-.881.217-.469.16-.7.189-2.61-.24-2.863.031-1.114.132-.505.765-1.224.759-.69.688-.446.371-.033.54.09.544.244.746.54 1.232 1.178 1.573 1.26 1.125.593 1.024.33.457.05 1.06-.11 1.072-.298 1.21-.62.796-.708 1.066-1.476.407-1.167.16-.747-.108-1.707-.302-.774-.27-.518-.252-.3-.338-.232-.208-.027-1.441.253h-.005l-.35.18-1.398 1.022-.01.008-.029.021-.022.016-.14.102-.032.024-.555.33-1 .29-.84-.022-.613-.316-1.268-1.06-.455-.492-.605-.85-.129-.361-.04-.599.112-.76.37-.554.442-.343.574-.242 4.543-.048.375-.08.882-.434.462-.542.71-1.7.104-1.154-.027-1.323-.045-.574-.205-.51-.306-.447-.79-.79-.347-.182-.44-.082-1.457.033-.937-.145-.954-.35-1.24-.993-1.53-1.598-.276-.4-.351-.86.057-.806.257-.594.29-.447 1.06-.976.446-.658.198-.7.015-.67-.058-.39-.212-.488-.645-.862-1.261-.917-1.044-.48-1.063-.252-.568.072-2.024.573-1.284.088-.456-.081-.427-.161-1.42-.535-.639-.064-.657.087-.796.431-.832 1.079-.13.266-.122.529.05 1.434-.059.381-.39.921-.597.55-.815.469-.612.105-1.444.013-4.042.295-.48-.052-.704-.26-2.133-1.189-3.042-1.046-.889-.528-.312-.286-.458-.626-.257-.772-.066-.63.185-1.089.005-.465-.138-.717-.293-.423-.484-.342-.87-.276-.53.022-1.768.813-1.008.307-1.401-.048-.582-.16-.749-.401-.347-.26-.489-.788-.053-.234.005-.464.107-.546.58-1.287.232-1.023-.029-1.094-.394-.879-1.251-.83-.368-.153-.517-.112-1.514.044-.78-.064-.63-.215-1.195-.727-.968-1.176-.53-1.063-1.032-1.638-.65-.524-2.017-1.11-1.709-1.288-.593-.89-.079-.276-.058-.57.072-1.125-.005-.397-.321-1.03-.13-.295-.4-.503-.368-.226-1.426-.513-1.037-.675-1.343-1.725-.295-.2-1.098-.458-.98-.046-2.66.657-.589.032-.595-.083-.589-.207-.916-.505-.61-.491-.824-1.003-.402-.89-.296-.957-.221-1.91.171-.651.354-.688.529-.571.714-.776.239-.862-.062-.908-.125-1.337.482-1.15 1.075-.885.43-.329.433-.534.186-.516.074-.848-.039-.602-.245-.663-.42-.673-.766-.509-.69-.222-1.332-.166-.75-.432-.52-.535-.287-.527-.132-.48-.12-.924.003-1.232-.108-.562-.185-.498-.565-.672-.283-.192-1.634-.684-.777-.51-1.345-1.468-.673-.952-.363-.68-.224-.531-.173-.688.019-.913.091-.595.677-1.403.662-.839.322-.678.223-.741.108-1.15-.06-.528-.252-.963-.617-1.231-.69-.678-.428-.302-.585-.237-1.357-.192-2.097.09-.88-.22-3.371-1.914-.702-.55-.24-.282-.057-.195-.175-.597.036-.548.758-1.817.119-.875-.063-.494-.205-.46-.702-.87-.454-.311-.803-.363-1.868-.184-.745-.414-.368-.3-1.1-1.252-.857-.543-.717-.294-.414-.07-.615.056-.737.187-1.844.762-.833.251-.423.036-.838-.225-.37-.241-.386-.554-.077-.337.067-.553.195-.652.427-.539.824-.49 1.974-.565.547-.275.681-.556.318-.718.09-.444-.083-1.035-.122-.484-.281-.662-.552-.844-.714-.77-.502-.936-.156-.627.016-.932.105-.578-.158-1.56-.658-1.714-1.203-2.327-.246-1.322.131-.514.387-1.005.32-.744.15-1.068-.28-1.302-.893-1.726-.809-1.04-.707-.663-.95-.631-1.137-1.15-.186-.382-.19-.811-.023-.533.109-.582.176-.796.143-1.255-.112-.988-.485-1.149.608-.181.497-.27 3.358-1.04.883-.374.883-1.076.612-2.587-.119-.687-.285-.865-.819-.649-.394-1.233-.795-1.114-.95-.041-1.163.275-.997.614-.163 1.11-.301.989-.166 1.458.265.71-.342.818-1.623 1.155-.166-.414-.554-.646-1.103-.226-.381.04-.838.373-.844.223-1.556-.152-1.132-.374-.76-.473-.52-.605-.216-.47-.054-.462.157-.656.563-.935.173-.454.06-.446-.031-.556-.132-.556-.823-1.706L25 77.768z"/></svg>