<svg height="1000" width="1000"><path class="americon" d="M38.471 223.686l40.339 4.629 21.575 2.46 35.472 3.358 3.603.324 22.313 1.95 14.438 1.437 8.272.728 11.867 1.016 15.843 1.363 23.45 1.592 19.2 1.297 68.328 3.78 3.677.17 21.456 1.037 26.176 1.117 17.12.526 19.718.515 19.343.392 15.681.248 6.933.02 19.768.238 49.755.056h.83l17.713-.04 18.543-.085 33.927-.556 22.747-.543 39.411-1.247 19.542-.687 5.734-.311 13.615-.583 41.64-2.07 28.388-1.668 9.022-.562 4.552-.291 20.315-1.449 31.041-2.308 6.7-.552 15.333-1.24 13.45-1.137 24.487-2.299 36.488-3.65 1.765 17.14 2.553 24.012 1.678 15.763 1.288 11.823 1.82 16.696 3.014 27.74v.002l.302 2.783 2.11 19.06 2.256 22.721 2.37 23.454.75 7.417.023.208 2.461 23.1 2.26 22.105 2.64 25.166.886 8.288 1.232 11.525.382 3.57 2.205 21.269.538 5.096 4.067 38.545.876 7.292.24 1.989 1.493 13.229 2.403 22.194.837 7.765 2.015 17.923 1.533 14.269 1.096 10.202L975 687.695l-1.513.29-79.672 7.37-1.07.092-3.16.274-63.618 5.025-14.57 1.351-19.681 1.748h-.011l-51.658 2.75-38.28 1.175-46.323 1.741-7.1.223-20.78.704-20.863.607-10 .205-36.482.552-3.417-.7-38.973.599-18.556-.054-16.27-.111-27.27.197-31.538.271-6.574-1.383-21.458-.334-.005.054-1.465 15.689-.334 16.571-.173 6.934-.12 4.853.042 17.743-6.117-2.474-1.611-4.996-4.71-4.838-1.73-5.66-3.563-5.383-4.372-6.739-4.352-3.28-.64-.482-4.618 3.904-1.615 2.87-1.058 1.878-4.602 11.17-3.774 3.121-4.536-.394-7.276-.643-8.913 5.345-4.982-6.365-13.83 2.485-7.664.725-8-2.152-5.248-3.198-6.322 4.34-2.88 9.363-6.995-4.138-10.706-1.887-8.79-1.92-2.31.32-8.2 6.186.278 4.147-.43.238-4.791 2.64-5.555-4.638-4.256-6.756.354-5.483-4.086-7.2 1.375-6.036-3.707-9.559-2.078-6.74-9.15-7.459-4.703 2.49-5.978-4.636-3.683-1.173-3.743-8.287 2.48-4.831 1.379-6.169-.733-6.184-4.499-5.094-5.005-3.713L182.908 672l-6.191-11.075.803-6.93-2.141-5.156.757-6.135-3.1-5.199.408-9.189-4.237-2.847-2.847-2.622-3.642-4.776-1.71-2.246-3.608.228-.352 4.884-6.01 5.335-8.962 6.062-5.386.435-2.807 6.438-7.137-2.049-6.63-6.592-3.86-2.135-1.13-3.144-.937-2.61.662-5.051 3.12-1.862.144-6.189-4.032-7.11 4.256-6.142 7.787-1.547 3.075-2.864-1.7-3.547 1.397-5.696-2.842-3.396-2.69-5.118 2.32-7.555-4.598-3.698.978-4.842 5.554-.214.35-7.307 1.06-4.163 1.15-4.183 1.53-8.72 3.245-2.57-.55-10.12 4.16-.721 2.314-7.861 1.543-7.87-1.102-1.058-1.828-1.757-7.491 1.617-7.462-.13-3.373-1.25-2.32-.861.179-6.317-3.735-2.544-1.65-1.127-5.37-.353-1.352-4.745-6.728-4.48-4.27-6.918 1.766-5.163-2.441-2.404-5.035-4.971-2.499-6.088-3.406-4.868-4.499-8.518-4.622-5.524-2.39-4.304-2.134-5.534-3.36-1.432-7.416-3.071-4.344-3.848-2.928-6.417-9.489-6.917 1.849-4.332 4.789-2.28-5.663-6.501.244-4.99 2.67-5.115-2.806-3.917 1.497-4.644-7.67-8.266-.058-6.207-3.844-3.673-3.746-6.761-4.353-9.143-.438-1.347-.594-1.824 1.711-14.118 1.232-10.292 1.264-10.568 2.295-19.31.28-2.342z"/></svg>