<svg height="1000" width="1000"><path class="americon" d="M943.733 396.407l.87-.561 1.368-.045 1.516.227.538.484 1.206.44 1.736 1.128-.33.466.176 1.251.917.182 1.948 2.373 2.328 3.683-.238 1.158.841 4.13-.59.877-.402.009-1.637-1.107-3.1-.444-.812-.822 1.513-1.197-.253-3.117-.352-.933-1.105-1.578-.92-.145-1.862-2.194.02-1.037-.608-.73-2.365-1.18-.431-1.026zm-23.719 115.285l1.239-2.102.912-1.129.226-1.131-.208-.998.099-.878.524-.673 1.114-.203.778.39 1.252-.313 3.192-2.22 1.403-1.039 1.688-1.176 5.665-3.208 2.147-.741.658-.27 1.193-.667.831-.768.764-.8 3.328-.886.054-.031.888-.506 1.174-.246 1.69-.769.934-.656 1.009-1.019.47-.268.676-1.122.36-.252.223-.014.736.545 1.173.044 2.472-.994 1.094-.679 1.515-1.474 1.69-1.072.034-.636-.01-.741.088-.373 1.257.331.393.295 2.22-.42 2.646-1.076.546-2.065.322-3.959.424-2.414.4-3.515.417-3.218.354-4.912.319-3.954.504-4.085-.208-1.654-.204-1.395.07-2.292.453-1.695.259-1.922-.405-6.045-.751-2.823-.776-2.767-1.187-3.015-1.048-1.804-1.242-5.308-.31-1.852-1.514-4.552.56-.315.509.554 1.982 3.299.797 1.834 2.232 6.393 2.892 10.57-.015 2.007-.014 3.645-.294 9.732-.873 11.62-1.02 9.491-1.79 11.46-.755 1.106-1.22-.261-1.682-.367-2.129.259-3.174.684-2.658 1.126-3.885 1.801-5.876 2.76-2.157.81-.895.336-1.242.436-2.073 1.203-5.28 3.07-7.538 4.636-3.296 2.107-1.948 1.788-1.963 1.549-1.9 1.993-1.211.779-.221-.448zM27.291 497.933l.31-1.805.02-.053.71-3.704 1.241-5.93.464-1.936.584-3.146.433-2.453.057.122.172.043.533-.233.09-.164.835-.838 1.693-.792.326-.539.56-.387 1.088-.396.322-.236 1.003-1.18.462-.37.45-.12.78.21.46.29.602.893.006.185.233.35.036 1.056.137.42.096.14.731.14.372.44 1.066-.003.18-.21.742-.385.192.016.755.366.101-.045.182-.248.391-.047 1.308.056.357.122.337.212.321.172.289.065.183-.026.176-.082.076-.267.16-.369.079-.052.411-.074.625.08.018.09.06.094.117.023.534-.134.552.25.085.095.501.137.594-.293 1.07-.848.03-.235.205-.282.707-.21.444-.043.768-.32.871-.126.35-.209 1.148-1.013.825-1.29.774-.398.134-.069.502-.354.283-.715-.46-1.077-.224-.163-.656-.264-.065-.124.073-.64.404-.959.016-.158.047-.266.212-.233.139-.347-.168-.44-.12-.063-.48-1.555.078-.19.24-.11 1.162-.309.142-.03.383-.402.128-.262.49-.658.875-.824v-.95l-.12-.51-.132-.234.083-.23.293-.437.007-.092-.551-1.018-.11-.101-.303-.103-.067-.098-.241-.598.005-.426.148-.307.336-.149.318-.08.355-.418.74-.664.343-.192.277-.327.08-.117.165-.598.195-.375.476-.528 1.04-.48.583-.673.568-.1.026-.48.211-.32.173-.025.334.093.157-.048.45-.503.072-.434.01-.117.004-.053.344.018.248.12.24.39.008-.001.37-.04.722-.457.11-.277.592-.513.793-.176.522-.032.561.112.297-.008.56-.274.305-.46.178-.602.306-.59.455-.222.148-.26.026-.142-.117-.152.015-.167.663-.646.284-.029.11-.1.93-1.198.226-.565.28-.183.816-.252.659.082.77-.063.562.147.556.28.905-.232.916-.35.474.051.187.123 1.784-1.24.137-.266.719-.624 1.718-.606.74-.362.819-.867.19-.597.752.133.533-.084.305-.123.721.377 1.554-.448.267.323.995.243.299-.171 1.494-.569.356.034.177.124.153.013.308-.072 1.458.044.851-.126.325.197h.729l.35.059.206.137.328-.107.498.155.792.385.532.007.362-.108.154-.13.378-.092.267.177 1.592-.688.734-.659.433.047.303.168.755.753.627.827.045.39.155.153.379.062.613-.13.431-.166.678-.013.714.209.75.113 1.218-.09.698.186 1.465-.017.283.38 2.044.131.748-.456.662-.129.6-1.064.247-.32-.051-.47.03-.071.408-.163.302-.212.025-.336.15-.144.944-.234.79-.66.394-.61.615-.712.17-.4.49.043.928.302 1.15-.083.068-.049.08-.24.937-.387.644-.384.275-.129.75-.132.444-.28.496-.919-.002-.161.91-.084.238.044.147-.271.347-.278.166-.037.182.158.234.016.135-.06 1.004-1.052.237-.343.11-.297.002-.3.213-.36.256-.294.254-.113.208.064 1.04-.27.31-.293 1.446.448.305.52.51.586.237.063.885-.151.559-.184.406-.519.322-.662.09-.716.178-.233.876-.373.62-.176.452-.233.258-.498.43-.25.454-.184.357-.337.302-.523.099-.705-.083-.33.134-.402.114-.304-.001-.379-.084-.348.025-.163.468-.452.843-.286.155-.135.183-.397.908.148.998.061.284-.041.312.132.25.19 1.158-.202.373.185.199-.008 1.086-.492.285.006.428-.706.163-.433.397-.634.614-.23.18-.005.646-1.073-.034-.537.065-.162.386-.42.26-.183.538.115.635.04.125-.1 2.065-.255.78.295.725-.475.342-.07.623-.295.03-.097.247-.094.218.057-.01-.009.011.006.332-.149 1.243-.91.108-.277.716-.436.502-.04.177.235.86.274h.261l.348-.17.61-.133.424.268.22.257.228.081.153.002.346-.158.355-.06 2.46 1.15.656.227.449.638.595.119.404-.082.889-.477.625-.563.453-.52.533-.343.591-.004.15-.237.072-.113-.048-.314.162-.693.316-.35.336-.576.055-.25.446-.807.757-1.064.186-.116.69-.178.491-.702.172-.44.472-.263.45-.062.357-.292.138-.408-.148-.824.245-1.222.14-.444.214-.265 1.653-.749.183-.251.08-.378-.038-.315-.121-.32-.283-.435.045-.275.217-.335.022-.346-.253-.55-.168-1.37-.444-.984.028-.902.09-.55.092-.134.451-.007.319-.154.123-.166.096-.203.036-.818.397-.942.161.072.457-.045.952-.467 1.06-.394.362.115.132.194.881.464.876-.165.275.19.859.842.121.211.67.717.317.283.124.013.28.437.31.96.07.094.622-.244.556-.335.218-.045.426.035.236-.227.022-.145-.277-.695-.03-.21.042-.132.62-.777 1.43-.962.295-.908.008-.43.097-.175.161-.131.578-.218.339-.643-.147-.258-.224-.132-.182.045-.155-.035-.37-.444.108-1.319.654-.56.12-.58.151-.228.145-.16 1.144-.313.662-.118.496.016.477-.194 2.006-1.4.429-.092.293.056.993-.544.074-.185v-.347l.054-.219.823-.148.47-.274.236-.247 1.317-.474.373-.423.107-.386.134-.136 1.149-.496.503-.298.615-.24.583-.18.253.069.501-.178.732-.612.696-.353.515.042.385.492.977.84.134.255-.107.386-.04.547.48.105.4.219.34.528.337.172.208.327.182.436.258.313.12.305-.094.463-.512.526-.472.442-.882 1.517-.222.184-.061.153-.098.413.169.834.04.069.588.205.25.648-.285.36-.51 1.28-.098.39.046.526.32.2.77.225.586-.061.312-.119 1.152.173.336.197.074.65.153.122.789.414 1.004.272.543-.85.396-.455.789-.443.344-.128.482-.074.382-.28.916-.114.224-.144.454-.148.403.06.597-.204.179-.017.58-.607 1.41-1.1.004-.01.297-.143.114-.127.034-.314.138-.194.87-.251 1.061-.78.42-.148 5.084-8.217.833-1.347.555-.52 1.59-1.131 1.015-.26.203-.447.356-.347.444-.079.516-.138.614-.355.066-.127.574-.493.557-.167.153.162.16.103 1.061.093.484-.24.33-.047.435-.23.392-.005.356-.16 1.036-.678.16-.253.482-.34.562-.26.876-.242.104.044.808.902.177.049.49-.093.314.25.228.086.326-.058.262-.313.34-.453.425-.007.32.044.138.203.447.198.335-.233.126-.194.207-.355.415-.251.144-.09.104-.101.077-.123.717-.605.383-.423.2-.612.139-.272.384-.102.492-.142.272.026.659.286.308.29.255.306.393.372.35.173.425.142.31.338.11.136.11.097.386.073.346-.058.194-.18.186-.134.306-.011.88.051.528-.179.85-.142.367.71.297 1.058.406.985-.032.665-.176.532.69 1.75.355.279 1.254.033.658-.308.395-.099.389.267.323.08 1.328.023.592.066.017.002.047-.102 1.36-.655.617-.115.603-.964.02-.416.217-.369 1.065.232.605.59.501.114.487-.487.282-.627-.026-.131 7.572-12.432 2.388-3.536.67-1.12 1.689-2.823 1.131-1.893 1.125-.659.327.049.78-.228.85-.56.348-.285.21-.397 1.235-1.382.635-.57.69-.323.566-.349.474-.365.868-.487 1.13-.144 1.016-.25.504-.377.801-.48.58.053.338.411.16.405.268.409.35.147.289.014.343.189.914.725.288.341.392-.028.174.096.28.1.37.074.69-.012.357-.04.53-.236.488-.128.413-.022.523.129.507.244.388.339.408.285.608-.114.172-.426.088-.434-.24-.551-.62-.463-.456-.151-.305-.366-.133-.226-.087-.49-.023-.31.018-.441-.189-.607-.506-.694-.163-.324.089-.439.168-.39.123-.658-.058-.311-.098-.225-.234-.33-.413-.359-.154-.58.027-.662.164-.523.43-.319.47-.252.999-.885.325-.797.13-.565.194-.434.011-.264-.021-.354.051-.395.121-.349.014-.51-.072-.315.04-.5.721-.62.76-.23.192.04.135-.095.295-.401.11-.695-.026-.154-.146-.141-.057-1.205.18-.883-.087-.239-.03-.359-.1-.144-.17-.11-.019-.321.035-.05.22-.407.076-.104-.042-.347.013-.117-.161-.404-.01-.18-.044-.168-.043-.136-.18-.674-.495-.772-.04-.784.052-.53.838-.047.015-.375.277-.593.41-.598.414-.383.115-.484-.086-.488-.197-.405-.02-.398.253-.376.392.12.681-.064.314-.26-.002-.48-.164-.593-.081-.862.285-.326 7.978.455 8.297 1.16 2.207.172 1.085.143 1.357-.132 3.55.596 7.018.527 2.242.07.016.001 4.762.123 4.71.299 1.3.133 7.618.412.57.135 3.06.289 1.773.093 4.332.377 2.225.106.315.015 4.94.473.79.126 6.03.224.171.023 4.43.289h.011l6.645.514.033.002.058-.003 3.466-.128 3.156.143 4.525-.157 2.663.066 5.363.525 2.978.171 1.329.099 17.927 1.301.78.057.106.013 14.221 1.058 6.993.122.298.02 5.613.15.22.007 4.943.138 7.175.104 2.735.038 6.24.068.055.004 6.507.07 1.367-.027.45-.009 18.004.247 4.963.058h.05l16.276.2h.033l4.24-.027 2.515-.018.029-.003 10.756.013 9.706-.005 3.248-.052.956-.016.083.003 7.388-.045 1.238.022.14-.005 15.969-.157.129-.005 2.958-.01.025-.005 2.777-.002h.091l12.348-.073 3.223-.033.735-.024 2.534-.033 6.69-.092.703-.005 6.06.044 7.548-.09.343-.002 2.063-.04 4.064-.222.024-.002 1.443-.043 1.646-.053.508-.005 11.735-.345 8.061-.217.127-.012 11.708-.16.044.003 9.05-.243.708-.02.05.002 14.526-.409 1.817-.055.739-.021 11.287-.383 1.817-.064 47.258-1.384 9.57-.325 1.555-.264 2.135-.23.543.108 1.243.246 2.909-.098 3.1-.203 18.679-.648-.145-.284.009-.611.106-.18 11.357-.293 2.688-.125 3.299-.11 1.18-.132 16.98-.756 3.527-.113.03-.002 5.201-.307 2.732-.164 15.852-.755h.002l19.889-1.081 9.129-.518.834-.035 7.2-.415.198-.012.24-.014.062-.004 3.208-.201 1.105-.065.25-.015.448-.027.135-.008.968-.07.095.007.135-.02.562-.034.063-.004.552-.033.094-.006 1.323-.079 1.45 6.5 2.896 9.92 2.21 8.346 2.87 8.592 2.888 7.497.103.266 1.549 3.133 2.633 6.42 2.444 5.152 2.564 4.566 4.493 7.176 10.682 19.871 2.2 5.242 1.647 3.138.692 1.267-.3.971-.719.104-.585-.703-.473-1.238-1.205-.476-.796-1.988-.774-1.03-1.548-2.76-1.497-2.833-2.498-3.114-.185-2.183-.805-1.983-.816-1.438-1.277-2.313-1.5-1.904-.736-.184-.196-.905-.418-.869-.82-1.084-4.792-.903-.421-.938-.03-1.375.379-1.504-.096-.648-.47-.383-1.083.033-.41-.766-.18-1.124.13-1.488-.096-1.095-1.478-5.893-.49-1.113-.218-1.336-.456-1.546-2.179-4.72-1.152-2.67-.87-2.04-.12-.111-.464-.424-.581-.624-.893-1.01-.057-.478.292-1.563-.866-3.313-.933-.767-1.162.002-.432-.283-.859-1.39.234-3.001.909-1.428-.03-.96-.614-2.142-.778-.982-.448-.11-.499-.93-.15-.678-.134-4.04-1.435-1.834-1.745-.582-.87-.702-.476-2.44-1.046-2.75-.797-.432-.608-.033-.436.094-.685.52-.34-.07-.909-.96-2.6-.423-1.298.121-.218 1.202-1.576-1.003.824-2.5-.69-1.636-1.059-.262-2.73.293-.33 1.4-1.642.864 1.314 3.58 1.402 3.028.906 1.401.922.676 1.504.572 1.036.115 1.993 2.258 2.246-.34.41-.576.357-.613.444-.152.52.335 1.033 4.73-.011.763-.569 2.037.065.77.646 1.04.264.147 2.35 4.127.943 3.36.703 1.099 1.003.188.8-.296.495.5-.025 1.853-.472 1.846.468 2.185.673 1.643 1.082.725 1.228 2.072-.25.84.268 2.164 1.83 2.34.242 1.602 1.027 1.124 1.566 3.058 1.162 3.909-.162 1.39-.618-.084-3.978-2.368-1.305-1.146-2.301-3.163.044-1.85.113-2.333-2.218-3.469-3.1-3.124-1.472-4.084-2.988-1.618-.984.347-.54.19.843.803 1.42 3.236-.933 3.24 2.188 2.114 2.085.954 1.345 1.023-1.584.007-.476.193-1.527-.162-5.992-1.29-2.35-.947-.22-.242-1.168-1.724-1.609-.964-1.239-2.413-2.915-.98-5.66-6.185-3.102-.253-2.494-.794-.093.691-.208 1.532.659.652 1.269 1.256 2.309.122 3.886 6.266 3.86 1.712 1.79 4.365.656 1.28.112.758-.48.747-.757.511-2.163.695-8.994 2.114-3.037-1.675-2.387-2.609-1.003-1.5-1.183-.557-.713-1.142-1.58-.644-.476.117-.076.019-.281.536 1.499 1.635 1.77 1.21 2.202 3.952 4.037 2.844-2.535 1.677-2.35-.286-2.813-.675-7.021-3.353-4.623-.39-2.262-3.153-.062-.037-5.837-3.484-.676.375-.132.832.324.286 8.52 7.51 3.096-.238 1.274 1.256 3.878 1.064-.496 1.126-1.997 1.136-.88.184-.572-.314-1.884.097-5.82 1.398-.084.352-.1.414-.755 1.551-2.212 2.45-.864.525-.705 1.48-.031.483-3.401.994-2.28 1.73-3.526-.38-1.665.08-1.31.545-.506-.114-.997-1.053-.565-.772-1.041-1.422-1.25-.56-1.724.013-2.256.518-2.492-.994-2.987-7.45-2.368-5.914-.09-6.73 4.212-8.988-1.68-1.221-.255-.186-2.62 4.622-2.364 4.163-.424 8.552 3.538 10.382 4.519 8.443.495 1.079-.502 1.192-1.055 1.287-.447 1.19.354 1.637.587.835.069.098 1.947 1.15.677.175 1.103-.258 5.163-.448.426-.434 1.766-.359 1.985-.184 4.174-.388 2.187-.864 1.078-.742 2.409-.876 1.328-1.305 6.492-2.151.916.504.89 1.056.115 1.164 1.83 2.264.253.314 2.384-.261 2.365-.605 4.602-3.616 6.059-2.321 3.905-.901 8.742-.45 1.138.349 2.197-.538 4.163 2.654 1.079 1.315.079.41-.438 3.054.69 1.7-2.173 4.159-2.487 4.916 1.693 6.024 1.05 11.567 1.311 3.541-.662 3.33-.162.818.717.976 1.107.182 1.557-2.668.076-.13 2.028-12.978-.547-8.976.528-7.912 1.208-.346.373-.297 1.413-2.563 1.384-1.115.44-.095.255-.428-.01-1.101-1.248-1.304-.623-.17-.357-.392-.088-.546.904-.742 4.016-1.821 2.097-.332 2.003-.052 1.127.208 4.41 1.936.486.659.52 1.208 2.016 1.047.06.96.468 1.28 1.192 2.132 1.967 2.91-.056.9.655 2.44 1.554 1.628.915 2.111.148 1.477-.458 2.74-.494 1.65-.06.961.444.414 1.333 3.158.83 3.705.468.781.317 1.233-.023.591-2.802 3.05.078 2.206.674 2.17.854 1.2.023.367-1.722 2.173-1.618.985-1.522 1.57.403 1.67-2.29.806-4.218.7-1.616-.935-.899-.978-1.057.575-2.603 1.415-1.146 1.912-.149.526.07 1.176-.776 1.079-3.08.699-.454.469-.444.616-.9 2.046-.01.886.36 1.012-.098.375-2.502 1.4-.83 1.23.21 1.538-.284 1.345-1.173 1.545-.228 1.268.192 1.245-.313.83-.613.848-.463.322-1.302-.664-1.393-.142-.978.795-.382.686.05.884.342.719.187 1.171-.924 1.752-2.452 1.395-3.17 1.508-1.009.278-1.003 1.46.073 1.326-.705.334-1.7-.201-.384-.423-1.475-.51-2.525.138-3.22-1.599-1.923.104-.442.762-.833.192-1.819-.198-2.474-1.2-2.411-.02-.834.19-.54 1.211-.953.197-1.706-.355-1.007-.834-.849-.104-.601.03-1.15 1.094-.968-.099-.143-.436-1.24-.675-1.223-.382-.585-2.038-1.359-.67-.72.035-.7.479-1.022 1.232-1.442.072-1.507-1.255-4.572-3.608-5.535-12.64 11.669-.93 1.906-5.192-1.241-.63-.377-.191-1.193 2.585-7.74 1.596-4.71-1.037-3.452 3.862 3.825 6.316 2.735 9.553-2.763.132-11.36-4.731-5.2 1.319-7.822-3.468-12.003-2.847-9.031-5.092-.089 3.229 6.684 6.653 8.002.211 24.874 10.448 6.18.834.44.06 1.585.367 3.615-.026.623.413 5.215.632 1.976.936 1.208 2.453.599 2.335.103 2.065-.967 2.415-.587.325-.672 1.068-.04 1.63-.311 1.05-1.049.791-1.714 2.008-1.453 2.438-.312 1.051.47 2.197.05 1.034-.964 2.563-1.166.945-.312 1.052-.775 1.518-.697.626-2.504 3.378-1.41.955-.967.046-.94.637-.812.779-16.899 12.19-17.392-10.231-2.702-1.596-.658 2.02 1.552 5.28 9.304 5.863 14.308 4.27 8.084-5.845 5.291-3.835 5.053-.545 2.259-.998 2.892-.437 3.953-1.083.697-.627.448-.763.01-2.223.972-2.42.487-2.393.582-.718.566-.17 3.103 2.279.403 1.15.197 2.377.885 3.842 2.161 1.764.914 1.358.316.171 6.882.206.575-.733-.417-1.383-2.424-3.808-1.21-1.155-.42-.68-.024-.467 1.313.166 3.718 1.444 2.753 1.307.602.483.02 1.123-.218.396-.298.324-.216.705.037 1.376.679.912 1.686.977.127.93-.21 1.839-.667.457-2.765 3.662-.834 1.684-1.387 2.136-1.428 1.387-2.23.022-.923.751-.235.669-.239.753-.451.229-.734-.246-.648-1.15-1.201.73-.038 2.667.003 1.198-.304.608-.353.147-.63-.741-.562.34-.734 1.555-1.336.583-1.27 3.994-.934 1.948-1.285 2.149-1.715 1.7.448 1.382-.136.365-1.333 1.257-.655 1.78-.4 3.344-6.78-1.897-.023-9.111-2.546-2.484-1.692.489.877 9.25-6.19.18.054.967 16.645 6.516 8.005-12.847.357-1.61.759-.916 1.966-1.933 1.079-1.688 1.914-2.284 1.082-1.272 1.104-.996 2.177-2.552 1.869-2.537 5.02-5.036 4.148-4 3.913-5.071 3.545-3.943 4.884-5.987 1.882-1.979 2.32-3.69.524-.216 2.345.802.572.622.338.78-3.774 3.97-6.604 5.995-9.737 11.404-7.954 7.443-7.818 9.353-6.422 9.594-4.384 7.157-2.968 6.305-1.103 3.605-2.268-3.517.073-1.625.35-.353.023-1.958-3.362-1.767-4.338-1.429-2.659-.545-2.186-.942-1.53-.937-1.887.172-3.628-.387-4.673.184-5.124.647-9.572 1.855-9.043 2.122-4.389 1.294-8.757 3.233-2.58.95-3.514 1.576-4.205 2.404-3.375 2.443-8.626 7.181-15.008 9.012-3.083 2.12-2.788 2.158-4.158 3.212-2.702 2.298-5.595 5.596-2.843 2.428-2.712 2.92-2.758 3.468-.276.295-2.576 2.748-2.518 3.639-6.851 11.203-1.304 2.938-2.924 8.248-.434.483-.39 1.034-3.79 12.89-1.278 3.55-.981 2.235-.968 2.204-1.026 4.612-.285 3.265-1.124 1.199-4.04-1.793-.364-.35.04-.856-1.086-2.699-8.525-2.168-4.6-.719-4.506-.184-10.858.467-11.877 1.598-13.738 5.065-3.514 1.968-4.403-4.44-3.98-4.018-.608-.598-3.24-3.188-.14-.138-1.218-1.198-4.49-4.568-.82-.711-.231-.27-6.378-6.378-4.693-4.705-4.847-4.869-2.147-2.159-3.89-3.883-5.95-5.949-3.54-3.547-8.31-8.345-7.923-7.994-.904-.915-4.305-4.357-.143-.17-.76-.748-1.864-1.906-3.162-3.238-.533-.546-4.038-4.348-2.178-2.348-1.81-1.878-.176-.218-.706-.739-2.941-3.106-9.976-10.015-1.056-1.058-.169-.145-.047-.04-.756-.649-.313-.248-.836-.985-1.181-1.216-3.126-3.113-.133-.133-3.701-3.715-.783-.747-7.55-7.536-.286-.288-4.43-4.475-1.385-.028-.229-.007-.297-.006-5.543-.125-.088-.005-3.023-.056-.084.002-10.52-.012-2.247-.077-3.918-.136-7.898-.293-2.915-.11-1.657-.069-3.265-.124-.467-.003-2.252-.085-.106-.002-3.484-.133-3.04-.118-7.629-.303-.46-.018-5.379-.171-2.28-.074-1.702-.056-3.212-.106-5.392-.182-1.856-.084-.153-.018-.125.003-.684-.043-.967-.039-1.507-.076-.314-.015-3.635-.114-.712-.023-.862-.078-6.7-.165h-.001l-6.447-.23-.516-.02-.009.003-2.011-.09-.21-.009-4.057-.133-9.496-.324-.64-.022-2.147-.065.072-.538.251-1.857 1.733-12.854-2.548-3.637-.034-.047-1.54-2.207-1.957-2.94-4.619-6.954-2.237-3.103-.015-.02-2.947-4.114-2.52 1.875-2.886 1.904-6.299 4.148-.878-1.415-.593-.66-.201-.31v-1.416l.136-1.7.594-1.318.225-.328.39-.226.993-.224.265-.198.247-.512.043-.26-.043-.49-.37-1.17-.224-.5-1.213-.66-.064-.082-.012-.209.404-1.37.084-.184.301-.355.108-.059.06-.11-.078-.086-3.607-.392-3.436-.375-.165-.014-2.937-.252-10.852-.944-.25-.022-5.256-.422-4.009-.324-4.136-.338-.01-.001-8.466-.712-.727-.062-.966-.083-3.43-.296-.094.006-5.456-.45-3.918-.325-3.558-.325-3.411-.314-3.654-.338-3.8-.355-2.383-.184-3.17-.247-.46-.036-3.188-.25-7.752-.69-5.487-.425-4.682-.436-3.437-.323-4.098-.315-.938-.072-4.413-.343-5.282-.57-3.079-.226-.986-.06-.924-.12-1.066-.13-2.217-.253-1.53-.17-.042-.005-2.842-.386-1.858-.282-.816-.014-.645.133-.765.44-1.28.192-.839.21-.11.048-.234.36-.609.372-.38-.054-.379-.245-.01-.299-.224-.223-.103-.008-.449.194-.16.003-.066-.038-.098-.31-.35-.23-.595.003-.371.061-.864.142-.2.146-.043.214-.004.235-.098.19-.524.366-.25.026-.2-.11-.37-.312-.295-.339-.11-.359-.02-.216.08-.31.168-.295.062-.28-.162-.565-.312-.723-.007-.382-.654-.673-.267-.015-.312.272-.88 1.104-.867.216-.692.273-.24.187-.545.698-.449 1.275-.744 1.599-.19.394-.431.22-1.012.055-.238-.042-.16-.5.044-.476-.01-.272-.262-.374-.476-.12-.872.415-.464-.023-.404-.136-.85.176-.375.151-.386.345-.547.682-.47.058-.674-.065-1.067.001-.096.05-.043.048-.218.198-.251.275-.501.25-.442.125-.278-.016-.216-.182-.128-.238-.022-.08-.45-.162-.434-.024-.313-.017-.335.088-.271.176-.147.141-.086.295-.013.232-.147.141-.267.092-.232-.107-.318-.009-.271.177-.157.31-.278.304-.474.187-.451.179-.258.033-.119-.087-.445-.129-.23.015-.487.49-.622.133-.443-.197-.79-.045-.3.09-.157.083-.064.106-.396.166-.348.064-.424.53-.19.322-.291.214-.383.02-.221-.076-.368-.254-.424-.172-.334.087-.377.194-.307.233-.246.368-.487.312-.495.139-.777-.042-.302-.187-.074-.217-.173-.307-.175-.285-.426-.131-.297.025-.269.155-.07.354-.04.266-.102.06-.148.147-.188.244-.08.187-.028.189.056.236.185.393.018.298-.144.286-.608.71-.408.147-.257-.058-.31-.039-.356.126-.903.422-.55-.075-.317-.16-.383.004-.226.272-.07.179-.04.361-.149.183-.558.452-.291.41-.372.127-.496-.135-.334.066-.194.349-.036.3-.34.485-.394.189-.726-.064-.62.32-.8.128-.473-.38.171-.284.077-.179.014-.232.099-.188.209-.411.147-.58-.229-.307-.252-.135-.007-.013-.223-.147-.497.046-2.403.684-9.612 2.414-11.222 2.74-.963.25-10.983 2.849-8.814-.42-14.273-.492-17.25-.894-7.16-.385-7.62-.505-.032.723-13.961-1.192-8.736-.618-11.322-.914-.025-.002-7.398-.586-1.709-.136-.925-.06-10.693-.9-.01-.001L25 509.683z"/></svg>