<svg height="1000" width="1000"><path class="americon" d="M59.958 241.31l.001-.322.07-1.15.02-.307.07-.741.277-4.03.039-.755.062-.933.248-3.823.091-1.188.028-.528.063-1.124.046-.388.07-.94.003-.334.085-.846.028-.527.256-3.597.122-2.286 6.548.489.413.024.598.035.166.01.174.017.514.029.811.067.101.007 5.282.335.15.012.355.023.174.005 4.719.308 1.348.077.303.011.509.038.266.023.44.03 55.544 3.362 2.334.013 48.572 2.445 10.298.47 73.878 2.997.664.022 6.938.178 2.361.065 12.89.356 46.178 1.138 14.59.208.433.014 4.667.144 26.942.401.085-.005.517.027.534.005 10.592.209 23.914.162h.308l.503-.012.761.019 55.232.243-.044-.029.317-.006-.004.037 29.064-.056 31.394-.212h.008l6.095-.084.004-.009 39.19-.581 17.465-.338 43.906-1.156 15.257-.473 107.163-4.153 20.336-.995 42.481-2.259 21.221-1.273-.237.633.002.217.155.459-.029.37-.368.438-.325.602-.094.552.122 1.327-.07 1.156.061.372.17.21.604.22.136.253.087.27.028.473-.088 1.383.037.273.534.52.145.404.102.866.27.795.706.371.15.328.035.396-.171.51.04.493.154.408.61.267.22.233.07.477-.159.74v.306l.294.651.352.293 1.062.434.118.26.033.778-.188.524.294.74.007.356-.074.473.123.327.928.79.332.158.187.19.072.218-.14.833.046.265.203.21.378.177.286.362.174.834.444.644.036.577-.138.387-.016.224.38.667.11.762-.042.19-.158.206-.523.352-.07.294.055.666.425.72-.197 1.147.194.454.202.294.373.337.662.157.351.224.103.238.012.2-.102.338.016.263.307.745.068.79.091.376.215.192.374.09.13.192-.057.422.039.636.097.17.36.197.11.147-.036.594-.105.183-.03.22.055.173.128.212.158.112.672 1.131.025.416-.378 1.143.048.304.126.168.85.628.48.738.079 1.51.088.258.452.346.072.216.01.64-.094.359.073.238.173.21.964.667.265.329.423.969.642.718-.04.775-.227.324.118.478 1.232 1.547 1.214.63.145.211.041.196-.03.223-.247.48-.053.312.194 1.462.015.615-.167.217-.109.36.264.492.052.593-.12.422-.305.355-.138.327-.17.888-.36.595-.069.291.312.701.212.79-.003.31-.11.223-.228.226-.405.105-.693-.177-.509.275-.066.114.024.375.219.27.04.376-.068.314-.095.116-.526-.011-.123.383.1.436-.058.467-.168.121-.377.046-.149.186-.055.534.124.345-.068.557-.259.767-.215.301-.087.248-.002.443.222.343.096.312-.078 1.272-.072.25-.14.17-.408.102-.138.279.043.461.108.325.02.552-.05.378-.214.415-.66.347-.126.34.029.705.073.238.237.273.303.18.228.362-.012.288-.104.206-.276.024-.577.382-.134.207-.058.247-.013.502v.02l.23.226.2.197.703.357.433.37.218.452-.008.354-.3.571-.076.911.812 3.665.08.327.18.32.732.464.203.43.04 1.438-.102.29-.403.347-.116.25.072.46.23.163.18.299-.055.29-.194.19.005.795.15.522.185.387.923.451.19.21.053.616-.07.757-.375.598-.056.27.037.594.052.13.277.204.13.434-.05.623-.127.318-.337.485.031.264.189.431.279.257.023.384-.136.43-.586.317-.081.18.076.487.496.11.37.713.127.905-.065.46-.456.906-.417.412-.145.29-.032.247.105.941.216.478.35.364.112.31.02.314-.164 1.133-.222.54-.245.191-.099.287-.027.318.078 1.259.52.935.488.163.257.24.055.247-.083.566.1.51.772.573.084.246-.05.757-.296.771.039.47.13.141.299-.034.423.18.052.19.007.427-.233.517-.159.184-.04.221-.056.512.092.489.128.192.468.225.127.18.06.972.487.384.032.092-.035.283-.09.126-.468.056-.15.156-.033.337.059.518.205.176.224-.019.398.298.6 1.14.146.393.035.282-.799 1.558-.142.152-.573.241-.167.318.008.28.124.127.29.064.189.334.022.36-.243.39-.007.174.052.25.217.348.05.187-.062.336-.157.197-.475.13-.507.683-.073.228.046.457.395.592-.002.25-.46.33-.16.234.08.467.2.319.372.193.046.158-.015.343-.153.198-.033.365.09.244.236.13.07.31.023.341-.243.374.078.48.337.357-.01.526-.344.258-.105.282-.023.33.192.927-.34.736-.022.196-.49 1.19.042.26.182.238.206.08.141.161.073.469-.002.236-.075.215-.316.48-.045.15-.097.318.024.524.366 1.066.299.392.287.178.102.23.027.445-.045.397-.07.402-.206.522.052.55.103.242.867.262.304.388-.045.348.06.322.356.461.206 1.055.202.51.712 1.275.127.34.032.29-.042.197-.219.513-.047.271.07.24.425.2.776-.193.21.036.244.198.187.868.447.326.129.292.027.297-.171.323v.255l.056.162.38.212.32.562.086.673-.107.842-.372.54-.049.27.033.117.18.125.638.066 1.435 2.219.516.403.903.494.211.259.246.549.293 1.114.363 2.505-.016.257-.295.894-.013.412.214.38.173.122.527.06.204.107.054.322-.266.348-.142.329.422 1.959.273.443.91.485.182.224.071.24-.027.416-.269 1.346-.26.947-.009.252.304.61-.067.274-.408.583-.02.253.058.158.305.25.627.392.22.436.016.43-.266.736-.029.308.152.493.453.493.759.365.702.063.385.173.092.498-.178.604.228.543.762.42 1.518 1.304-.016.307-.66.438.813.451.261.487.072.553-.247.286-.38-.102-.409-.35-.165.064.13.513.504.525.032.304-.429.46-.084.562.766.653-.01.234-.663.564-.018.47.266.378.502.292.189.311-.102.295-.483.373.012.179.244.236.48.149 1.459.158.366.246.123.226-.199.283-.293.127.05.23.489.456.173.052.29.347.211.792.171 1.79-.169.233-.032.261.686.642h.758l.681 1.254-.021.677.08.154.299.206.032.488-.093.073-.06.189.097.848.341.706-.093.319-.23.293-.008.279.085.206.578.695.033.352.13.217.192.067.223-.081.689.127.338.463.713.418.09.183.001.148-.497.292-.22.27-.193.436.021.262.116.079.295-.073.694.584.027.648.86.116 1.336 1.142.32.675-.16.393.096.393.3.326.364.24.022.267-.179.156-.012.282.042.095.642.332.093.408.038.565-.076.347-.409.574-.022.224.08.279.302.482.725.907.77.727.08.15-.094.25-.451.518.011.289.4.275.097.387-.039.353.049.36.586.396.09.168.08.389-.086.238.014.207.19.15.107-.057.174.21.25.56.288.377.055.202-.315.515.049.305.128.136.207.028.228-.151.25-.437.15-.018.187.14.125.226.495 2.62.19.2.41.048.118.174.177.26.036.367.33.378.222.513.007.341-.197.499.147 1.036.529.484.075.201.03 1.317-.19.185-.428.214-.034.233.807.84.507 2.295.397.225.677.16.039.083-.04.135-.348.394.063.198 1.642.156.398.228.229.347.103.43-.205.735.174.248.235.18.14.336-.023.192-.155.114-.017.278.377.562.108.39-.12 1.773-.331.696.087.427.237.226.066.29-.33.471-.249.104-.034.192.08.323.18.075.057.134-.05.298-.186.358.025.206.153.353.377.332.187.366-.045.365-.213.29-.036.158.038.204.263.276.03.118-.023.33-.224.48.057.323.176.195.063.237-.627 1.205-.22.101-.269.27-.176.322.013.189.397.801.074.544.238.235.372.152.522.06.096.093.064.427.19.228.06.186-.033.209-.145.202.008.531.027.46.202.335.015.115.036.296-.605.696-.104.18-.05.296.012.172.344.27.036.187-.037.313-.21.17-.06.141.017.258.057.151.408.335.05.238-.107.473-.36.542-.07.35.088.727.378.638-.045.538-.237.292-.03.243.051.238.205.263.002.207-.1.33.036 1.063.3.713.014.206-.24.602-.016.278.214.4-.24.585-.008.225.062.237.252.26-.08.384-.385.337-.147.251.018.258.09.132.3.154.025.134-.095.35.039.146.504.692.597.217.097.218.011.313.602.457.393.456.032.119-.072.66.07.358.475.279.142.197.03.257.012 1.035-.516.501-.105.853-.226.292-.451.1-.113.292.229.26.397.21.05.175-.1.248-.315.194-.01.19.392.44.07.686.162.317.167.213.323.116.125.285-.149.908.18.575.482.912.512.376.128.492-.283.659.04.239.296.221.118.2.029.412-.147.424.13.527-.012.173-.101.232-.498.258-.085.127-.015.813.197.142.485-.003.167.088.394.655.032.465-1.207 2.156.017.549.393 1.047.239 1.261.002.269-.205.402-.081.524.093.166.348.115.106.182-.084.317-.26.139-.054.245.026.206.156.058.086.22-.01.363-.07.195.224.347.031.12-.061.297.056.135.616.441.11.408-.002.311-.265.416-.1.248.013.19.081.167.533.477.084.076.048.248-.067.212-.314.212-.16.409.054.457.236.353.008.12-.367.302-.044.21.139.32.305.168.056.308-.066.575.403.577.04.24-.022.191-.198.377.047.17.222.157.184.282-.07.177-.562.54-.098.283-.003.312.09.27.191.23.474.226.245.312.023.171-.133.46.022.153.14.337.141.163.266.103.178.195.05.221-.017.26-.27.538-.034.176.04.239.583.444.123.251.023.69.318.342-.007.415-.214.31-.054.245.033.136.257.227.047.133-.029.126-.622.455-.36.578.01.067.03.19.13.164.02.31-.243.57.127.302.389.375.158.574.022.327-.1.595.165.352.416.391-.013.403-.058.297-.15.101-.107.256.063.238.81.745.095.358-.168.38-.036.375.15.2.353.212.12.2-.002.329-.181.618.03.275.183.247.08.825-.188.359-.038.297.215.383-.15.727.072.268.152.163-.013.54-.239.357.125.441-.039.124-.287.28-.034.192.133.853.227.265.076.254-.095.163-.228.12-.024.33.282.673.436.507.13 1.047-.176 1.034.059.342.247.329.05.378-.02.243-.3.263-.007.243.066.273.356.374.086.219-.156.305-.833.367-.366.327-.367 1.024.1.147-.084.925-.109.233.003.208.06.186.327.398.564.459.155-.062.396.322.023.35-.135.346.02.518.289.554.487 2.286-.187 1.149.045.309.307.327 1.244.559.845-.427.177-.013.27.311.092.305-.105.583.099.884.12.233-.003 1.022.212.159.605.027.18.27.27 1.215-.142.627.03.551.088.237.088.08.442.056.252.555.25.034.319-.526.596-.514 1.415-.86.19.059.196.214.017.241-.177.515.012.173.049.187.29.257-.153.357-.027.297.076.237.206.229.028.24-.43.273-.081.8.09.547-.204.812-.224-.002-.39-.263-.343.604-.27 1.453.507 1.943.218.112.25-.144.21-.015.101.193-.084.75-.135.373-.184.03-.553-.27-.605-.14-.114.154.153.407.15.19.035.59-.11 1.012-.23.483.025.363.215.366.052.24.005.242-.078.248.027.553.156.198.231.088.154.162.014.208-.195.43-.035.349.128.303.02.276-.119.182-.361.094-.052.108-.007.243.113.253-.017.278-.2.361-.485.19-.025.158.336.566-.032.228-.208.084-.275-.059-.723 1.049-.238.507.155.757-.103.359-.191.201-.054.175.15.193.634.264.102.159.05 2.944.12.299.41.367.226.35.073.359-.151.565.045.31.055.1.411.11.1.237-.082.526.085.376.48.418.1.219.006.103-.154.167.033.31.26.312-.103.233-.185.082-.134.46.021.312.52.623.058.5-.117.314-.057.444.123.565.446.36-.002.68-.277.784.375.5.213.158.105.305-.024.823-.57.48-.082 1.397-.51 1.688.048.138.417.43.2.82.014.555-.098.302.144.529.24.09.118.149.005.311-.435.608.07.37-.124.27-.486.207-.04.107-.024.349.178.492-.13.547-.502.744.032 1.315.315.835.812.717.25 1.342.011.465-.09.406-.025.68.163.284.665.334.003.002.093.132.052.24-.059.352.12.686.615.097.126.269-.077.266.081.307.46.246.123.235-.14.74.13.321.348.185.042.1-.058.374.03.402.02.247.3.34.455.003.382.585.168.106.107.167-.03.593.087.22.496.26.18.18-.007.417.199.108.334-.006.09.098-.077.596.054.257.157.198.436.074.235.296.354 1.453-.207.971-.18.17-.061.317.105.305.184.231.333.655.04.223-.202.71.363.236.112.218-.016.123-.234.242-.005.105.021.12.358.323.033.31-.234.417.021.294.34.7.483.556.238 1.47.21.742-.249.766.373.53.017.243-.173.778.311.495.245.112-.082.546-.345.839v.348l.132.339.216.176.073.186-.123.461.004.226.17.214 1.057.375.054.417.263.156.29.049.117.113.092.116-.03.263.134.356.415.615.253.208.14.737-.025.961-.344.381-.037.16.126.425.139.095.07.152.06.481-.158.476-.059.377.094.307.35.358.465-.033.345.132.237.453.091.447.114.079.386.025.19.143.087.377-.11.495.016.208.146.372.429-.048.14.112.08.273-.04.3.053.222.304.222.683.16.107.391-.047.284.116.27.417.127.343-.173.171.07.306.445 1.365 2.599-.012.984.446 1.644.157.151.965.145.091.518.41.8.593.379.54.17.043.275-.087.46.233.889.224.28.514.022 1.06-.472.311.177.007.388.12.166.994.286.375.577-.25.556.074.216.702.444.891.819.9.196.171.125-.016 1.978.398.896.047.347-.28 1.56.185.666.156.212.08.256-.16.622.14.268.313.167.129.229.056.806-.225.557-.049.317.066.24.407.589.083.277-.131 1.328-.229.786-.06.293.128.252.382.112.19.282.14.286.012.314-.087.302.07.292.229.157.2.09.08.117.047.153-.025.142-.075.127-.153.22-.224.153-.458.439-.047.275.323 2.513.34 1.415.528.266.727 1.458.306.987.07.037.14.557-.046.55-.072.156-.322.383.042.623-.079.398.063.81.154.285.047.154-.003.28-.009.21.015.208.035.137.095.15.138-.01.147.022.187.53-.05.11.157.475.311.291.255.174.114.41.071.552-.184 2.127.168.651.297.463.351.304.823 1.668-.014 1.217-.154.252.205.344.937.707.073.59-.498.312.188.496.375.697.545.503.188.459.232.935.18 1.88.271.51-.291 2.195.016.17.213.394.018.747-.21 1.216-.173.535-.622.778-.747 2.525-.395 2.05.124.596.117.306.362.943-.088 1.57.276.632.087.383.313 2.307.138 1.701.48 3.01.881 2.36.374.455.129.368-.035 1.572-.12.346-1.676.121-2.601.2-1.231.074-1.415.084-2.63.207-2.642.147-2.631.161-2.62.17-11.43.798-1.724.197-24.528 1.608-.211.1-2.44.132-10.609.573-1.875.212-3.412.254-10.562.681h-.004l-10.634.656-.851.055-20.685 1.186-1.259.076-3.433.158h-.012l-2.989.175-19.551 1.037-10.196.52-.956.06-22.106.986-2.546.11-1.03.044-2.694.101h-.013l-7.91.349-14.487.641-.126.005-29.064 1.134-26.789.672-12.575.343-22.874.563-.133.004-12.726.286h-.014l-11.067.254-1.207.036-14 .356-.136.002-1.02.032-.075.002-4.507.106-2.354.03-.978.021-1.69.043-2.618.04-3.418.066-.024.001-4.26.07-.899.018-1.994.048-11.307.219-.367.003-12.154.08-2.844.049-7.722.127-2.673.06-3.189.054-3.786.047-.185.002-.022-.003-.114.005-11.22.078-5.259-.009h-.029l-10.862.084-5.047.023-8.074.025-1.924-.01-3.09.005-.237.006h-3.989l-1.315.012-2.382.009-13.208-.018-.108.004-1.083-.001-.154-.032-1.116-.022-14.774-.002-1.242-.013-.543-.006-.783-.012-4.097.014-4.64-.013-1.58-.005h-.02l-14.707-.027-2.94-.017-8.9-.1-3.755.05-1.482-.037-.005.007-.97-.005-15.303-.123-5.77-.03-.433-.02-3.23-.025-1.544-.023-.524-.042-15.33-.126-.697-.034-4.542-.03-.446-.007-2.18-.041-.996-.022-.587-.012-.433.01-3.136-.043-2.569-.06-6.037-.123-1.995-.012-3.31-.063-2.616-.043-3.991-.053-.687-.03-.39-.02-5.862-.011-17.453-.4-.62-.038-8.44-.19-3.687-.1-2.915-.056-.158-.024-3.426-.063-1.854-.014-.85-.051-3.624-.11-.72-.006-.13.005-.112.006-3.032-.098-.579-.006-4.875-.137-2.496-.064-4.343-.134-8.967-.233-2.072-.054-2-.06-.342-.01-.816-.04h-.01l-.22-.01-.03.01h-.002l-7.651-.246-3.073-.097-.309-.001-4.707-.186-.102.027-1.25-.028-1.28-.054-1.402-.045-.2-.003-.187-.006-2.192-.067h-.038l-5.19-.187-14.013-.497-3.192-.146-.115.01-4.877-.185-.009-.005-.456-.005-.282-.002-.964-.059-.529-.034-1.248-.044-.658-.01-.005-.01-2.669-.107-1.671-.063-1.013-.052-1.074-.045-9.512-.338-.968-.06-10.658-.48-1.15-.057-1.914-.053-.735-.02-.203-.013-3.91-.128-22.26-.98-5.105-.23-2.739-.138-6.069-.31-.69-.024-.042-.002-3.854-.212-2.756-.139-3.895-.183-2.461-.118-5.464-.273-2.577-.14-6.265-.308-.985-.049-8.334-.429h-.003l-10.786-.585-.804.02-4.544-.337-.852-.033-1.82-.125-.311-.014-15.709-.873-2.328-.164-10.612-.625v-.002l-.976-.06L25 766.704l.504-10.012 1.662-22.516.079-.188 1.888-28.214.539-8.058.214-3.15.305-4.535.131-3.099L32 664.107l.375-5.646 1.209-18.212v-.01l.797-12.173.051-.931.116-1.347.007-.153.04-.587 1.224-19.062 1.301-18.626.002-.022.085-1.305 1.233-17.39.042-.591.138-2.307.043-.697.074-1.155.167-2.647.073-.472.133-2.094.457-6.24.981-15.91.629-8.68.033-.375.015-.164.052-.818.022-.455.04-.547.622-9.571.022-.33.136-2.069.44-5.675.242-3.97.004-.07.529-7.369.274-3.763.838-11.537.984-14.303.07-1.63.213-2.28 1.53-21.903.008-.033.771-10.028.02-.377.018-.517.486-5.992.272-3.686.277-5.155.57-10.489.039-.885.152-3.051.228-3.818.044-.585 1.863-30.104.13-2.12.203-2.899v-.258l.553-8.486.033-.567.03-.283.08-1.595-.001-.298.987-15.27.375-5.685-.026-.112.143-2.594.001-.023.008-.222.224-3.637.14-1.783.28-4.43.005-.24.05-.942.01-.074.153-2.522.303-4.823.01-1.053.258-3.173.115-1.435.015-.874.036-.12.082-1.471.27-4.103.325-5.137.06-1.328.285-3.76.105-.969.013-.244.087-1.239v-.001l.146-2.61.008-.227.092-1.342.017-.25.053-.767.008-.183.932-14.758.025-.753.207-2.537.236-4.076.097-1.512.559-8.948z"/></svg>