<svg height="1000" width="1000"><path class="americon" d="M26.252 544.197l1.868-23.18 1.274-16.263.002-.013 1.828-24.152.527-6.971.908-11.887 2.016-26.415 1.287-16.352.162-2.053 2.519-32.817 2.661-35.044 1.247-15.644.214-2.678 3.903-51.63 55.914 3.982 2.957.196 48.52 3.075 21.325 1.221 39.183 2.034 33.332 1.536h.006l87.378 3.1 23.294.6 82.076 1.124 35.656.12 32.34-.063 28.616-.21 41.597-.56 35.755-.762 2.124 4.853 4.666 4.692 4.964 1.392 8.141 4.26 2.935 1.531 4.988 1.804 8.226 2.564.47.146 4.586 4.284 7.356 5.98 8.707-1.041 4.505-4.254 2.63-7.632 1.882-1.808 5.844.788 10.369 1.61 6.689-1.379 3.688-.764 8.563.003 3.206.393 3.383.413 3.484-2.933 7.845 1.066 3.95-1.547 6.665 1.453 2.667 4.505 5.208 3.758 3.598 2.59 11.01.796.988.78 5.363 4.22 5.99-1.61 10.475 4.097.603.235 2.687 4.881 8.327.083-.77 7.827 5.509 4.94 3.495 5.333 1.87 2.848 8.891-1.1 2.691 3.708 5.706-1.45 6.888 3.653-2.721 7.32 1.024 10.29 6.309 7.577 1.799 2.156.37 6.449-.058.578-.676 6.821 8.692 6.966.18 9.36 5.37 3.13 9.97 6.137-2.183 9.276 3.795 5.97 2.226 3.498 5.004 6.367-1.753 10.15-1.712 6.588-.298 1.149-.181 7.819 3.272 7.216 1.51 4.567 7.824-2.776 1.53 5.163 1.533 5.165 6.54 1.535.143 9.337.043 2.825.805 6.754 4.218 5.946-1.858 5.868.625 6.606.092.974 5.614-.783-.274 3.836-.364 5.098.935 5.803.21 4.356.242 5.037 4.48 6.101-.525 6.84 2.319 3.654.976 1.538-2.866 6.073 1.393 8.733.017.108-5.4 7.066 5.149 7.31 7.225 3.672 4.118 6.843-1.65 2.72 1.544 8.367 4.624-.517.255.476 2.222 4.155 1.446 4.226 4.515 9.299 1.233 4.175-.908 6.357 6.132 1.367 5.144 2.281.852 3.775.052.23.119.525 8.388 2.646-.388 6.865 5.872 6.364 4.523 4.35-1.803 5.676 3.97 5.829 3.718-.616 4.778 3.829-3.464.278-48.759 3.713-.387.027-24.418 1.706-1.472.1-14.293 1-9.31.584h-.004l-24.647 1.513-.684.04-36.882 2.071-7.475.392-4.68.247-10.19.526-39.566 1.816-5.126.216-39.722 1.571-4.876.175-12.131.418-15.859.51-21.774.638-25.348.645-12.023.268-12.39.264-37.478.642-2.044.029-10.292.127-35.504.307-13.594.093-.322.001-20.374.081-40.099-.17-1.737-.014h-.001l-31.186-.334-28.805-.502-2.2-.044-33.168-.676-25.703-.686-3.467-.096-9.405-.273-14.433-.448-31.874-1.149-24.14-.968 2.028-48.04.064-1.55.535-12.982 1.512-36.768.305-7.419 1.442-35.992h-.01l-54.195-2.449-6.891-.35-3.479-.18-45.366-2.536-32.795-2.001-20.496-1.344-.08-.005L25 560.223z"/></svg>