<svg height="1000" width="1000"><path class="americon" d="M251.816 696.879l-.1-.3 1.001-1.987 1.714-1.152 1.06-1.01 1.592-2.13.847-.026 1.248-.413 2.589-3.064-.027-.236.156-.272 1.236-1.71 1.228-1.199 1.147-1.829.911-2.225.792-4.309-.116-.316.261-3.295.583-.953.95-.516 2.376-1.182 1.537-3.786.863-1.448 1.006-.37.633.127.417.386.842.3.399-.465.246-1.302-.151-.875.082-1.63.566-1.562.03-.92.393-1.728 1.534-3.173 1.954-5.742-.074-1.14 1.202-1.788 2.16-1.225.948-2.115-.275-.132-.142-.12 3.787-3.612 8.407-3.85 1.571-.72-2.878-2.206 3.442-2.149 4.018-3.007.235-.196 5.461-4.556 5.312-4.76 3.834-2.37 3.426-1.108 2.171-.288 4.084-.096 4.9.604 6.692-.183 8.369-1.934 2.538-.764 4.232-1.722 3.073-1.771.136-.08 4.587-4.307 1.819-1.434 1.9-.491 9.72-.187 1.6-.574.91-.855.668-.7.065-.098 2.007-3.02.795-1.562.91-4.54-.644-2.043-.797-1.81-.642-2.239-.309-2.589.165-5.171.685-2.855 1.035-1.676.969-.932 2.326-1.666 3.348-1.892 4.336-1.572 1.534-.302 4.999-2.078 3.64-4.285.295-.348 2.373-4.683 1.272-1.715 2.32-1.59 2.815-.982 4.34-1.516 1.324-.696.965-.7 5.43-5.527 1.81-2.103 2.771-2.334.119-.073 8.99-5.554 3.666-2.018 2.07-.89 1.35-.15 2.663.482.87-.114 6.358-2.165 2.281-1.165 4.917-1.312.87-.584.331-.469.485-1.524.512-.977.631-.702.99-.701 2.31-1.088 1.62-1.247.871-1.171.698-3.05 1.327-3.361.752-1.406 1.08-1.093.988-.31.808-.037 1.046.277 3.646 1.613 3.558.948 1.077.041.898-.193 3.781-3.254 1.984-1.325 1.192-.582 1.07-.262 2.811.2.898-.077.688-.312 4.473-4.018.407-.592.051-.117.459-1.056.3-1.486.032-1.799-.238-.86-3.43-5.44-1.015-1.214-2.06-1.332-2.269-.903-.07-.068-.705-.676-.388-.588-.386-1.056-1.099-3.716-1.875-3.444-1.04-2.66-.284-.349-2.934-2.394-4.201-3.097-7.212-3.576-1.31-1.176-3.693-1.848-1.785-1.686-1.272-3.248-1.924-4.265-1.003-3.012-1.178-2.809-1.243-2.387-1.041-1.77-3.68-4.077-1.928-1.844-1.336-1.06-1.426-.826-2.054-.204-1.487-.514-2.7-2.16-2.787-2.747-1.868-1.454-1.956-1.923-.958-1.425-.243-.361-.38-1.864-.254-3.895-.793-2.918-1.457-4.424-3.023-7.497-.445-.819-1.21-.956-3.894-1.841-.809-.591-1.014-1.114-2.218-.698-.676.166-1.402.867-4.13 1.228-2.248.447-1.05-.174-2.46-1.153-1.488-1.22-.417-.67-1.005-.86-2.855-.908-.81-.785-.772-1.872-.396-4.123-1.295-5.83-.914-2.675.004-.462.994-3.35-.212-1.415.093-1.657 1.035-1.54.635-1.788.1-1.938-.114-2.078-.824-5.073-.199-2.355.069-3.422.245-2.592-.36-4.051-.244-1.192-.395-1.031-2.912-2.39-5.044-6.315-1.36-1.34-3.122-1.139-1.883-1.005-5.75-1.03-1.53.166-1.623.812-3.306 3.037-1.315.452-1.698-.021-1.98-.363-2.314-.94-1.054-.81-1.644-1.906-.494-.784-.235-.912-.069-.429.144-.875 1.16-1.898.206-1.37-.061-.5-.528-4.305-1.06-1.612-.253-.7-.49-1.14-.831-1.23-.128-.998.33-.452.837-.372 2.132-.223.421-.595.22-1.22-.684-5.203-.35-1.107-.353-.576-2.044-1.82.013-.904 1.138-2.289 1.745-2.638.867-.72 1.54-.827 1.578-2.565.214-1.213-.224-.787-.873-.643-1.165-.248-1.668.199-.124.015-1.865-.766-1.165-1.646-.863-2.344 1.586-5.357 1.301-3.382.54-.718.952-.806.919-2.327 1.163-2.306.129-.622-.205-.83-.864-1.415-2.791-3.22-.282-.65-.147-1.154.102-.596 1.412-1.62 2.594-1.343 1.187-.982.47-.902.199-1.747.379-1.632.68-1.24.525-.625.61-.277 1.73.049 4.192 1.437 3.022.486 1.387-.05.325-.137.547-.706 1.675-3.128.827-1.051 1.848-.998 1.621-.2.196-.107.644-.352 2.295-3.367.158-.535.039-.71-.161-.968.142-.812.596-1.049.634-.744 1.667-1.426 1.528-2.345.437-.969.041-1.296-.492-.89-2.751-2.75-.601-.873-.162-.636.002-.806.112-.633.43-.934 1.425-.808 4.2-.235.921.37.794.608 1.417-.068.498-.286 1.141-1.813 2.135-2.66.682-2.235.062-.934-.19-.84-.625-1.34-1.456-1.563-1.014-1.808-.957-1.326-2.474-2.542-.411-.775-.177-.597.239-1.731-.246-2.679-.246-1.105-.67-1.563-4.74-4.023-.637-.987-2.261-3.753-.174-1.314-1.597-3.291-1.768-1.923-.324-1.3-.274-2.054-.12-.383-.094-.544.266-.962-.19-.698-.022-.026-.607-.697-1.902.44-.67-.122-.703-.664-.503-1.105.011-1.188.725-1.281.295-.925.177-.91-.013-1.548.313-.849 1-1.103 1.112-.835 3.778-2.317.44-.745 2.479-.995 1.508-.827 1.55-1.707.157-.483 2.551-.87 1.788-.1 1.313-.568 8.782-5.038 1.82-1.929 1.116-.637 1.445-.53.104-.35-.268-1.45.202-.791 1.924-2.505.576-.976.408-1.053.182-1.165.802-1.96.424-.48h1.392l1.992-2.471 1.401-1.006 1.618-.674 1.974-.32 3.406-2.356.766-.967.488-2.181-.108-.395-.094-.344-.574-.293-.762.194-.957.573-1.769 1.624-1.017.505-1.018.12-.804-.144-.233-.216.036-1.223 2.814-6.176.689-.84 2.04-1.116 1.054-.205.88.083.587-.217 4.806-3.592.17-.34-.106-.719.778-1.067 4.077-1.661 2.337-1.835 5.262-6.771 1.024-2.217.182-.959.433-.894 3.011-2.864 2.137-2.797 1.075-2.581.067-1.157 1.25-3.118 1.982-3.95 2.02-3.365.226-.629.092-.553-.439-.703-1.743-1.77-.164-.35.363-1.69 1.212-2.118.113-1.536 1.33-2.863.335-.433.39-.16 1.656-.258.6-.822.309-.63.252-1.204-.426-1.365.057-.581 1.519-3.057.814-2.44 1.256-1.479 1.175-2.355 2.386-2.564 1.8-.89 1.071-.775 1.51-1.932 4.168-2.884.166-.391-.11-.949-.998-1.717.229-.732.852-.795.88-.313 2.185-.363 1.947-.033.96-.29 1.42-1.345.937-1.163.929-3.39 1.268-1.79.795-.45 5.12-.146 1.526.209 2.747-.54 3.609-2.067 1.187-.506 1.115-.197 1.651-1.11 15.512 9.504 9.948 5.842 31.395 19.473 12.263 7.367 23 15.104 3.556 2.146 13.391 8.07 5.569 3.766 19.793 11.382 6.237 3.322 9.045 4.811 25.16 14.43 1.266.724 15.14 8.69.001.001 38.097 21.969 1.43 1.076.603.335.684.105 2.55.004-.65 6.029-3.008 11.77-2.297 10.366-.588 2.107-.056.747-.147.04-.356 1.537-.005.022-2.61 9.323-1.254 2.932v.001l-1.336 2.885-2.917 6.374-1.625 4.064-2.603 8.237-1.412 2.43-.904 1.71-3.912 7.393-7.02 13.25-1.323 2.74-2.031 11.38-.93 7.01-4.775 3.682-1.863 3.778-3.547 4.648-3.085 6.964-3.283.633-1.586 3.013-3.958 1.383-3.571.31-4.658 1.425-4.457.725-5.364-.762-2.731-.388-3.19-.434-1.874.734-3.712 4.714-.526.669-.348 2.28.338 3.311-.36 3.878 1.305 2.609-1.239 2.811-1.102 3.887-1.133 4.95-1.55 4.473-3.125.252-3.485 1.691-2.937 3.413.16 4.69.73 3.376-1.536 2.705-2.012 4.389-.599 1.484-2.992 5.177 1.323 4.785 1.396 4.756 7.499 2.636 3.473 1.73 4.544 2.264 1.09 2.605 1.212.68 2.434-.823 1.477-1.981.962-2.69 1.433-1.987 1.539-.04.38 1.142 1.503 1.502 1.764 1.077 1.85.316 1.524-.205 2.24-1.657 1.187-1.422.702-.43 1.27.058 3.483 2.719 4.095 2.276 6.022 2.038 3.553 1.797 5.155 4.237 3.313 1.447 12.365 2.903 2.341.05.857-3.352 1.02-9.157-3.585-2.135-.553-4.336-4.199-4.485.253-2.613 6.069.423 4.61 10.906.31 10.84 1.625 4.77 1.842 14.34.115 9.253-1.57 19.016-1.168 7.813-3.265 16.352-1.88 8.082-8.616 36.956-1.08 7.72.674.802.164.196-.662.408-1.68 7.095-1.59 9.168-5.38 30.959-3.654 26.75-3.671 43.575-1.719 12.626.07 1.89-.594 1.377-.748 1.328-3.625 6.103-8.286 20.217-14.667 25.398-14.781 27.717-2.568 2.739-8.496 13.406-4.297 2.53-5.901.428-.412 2.696-.361 2.36 1.647 3.897 1.086.386.797 1.573-.636 2.951-9.161 15.581-9.723 11.86-12.034 9.707-.024 1.418-.424 3.486-1.35 1.682-14.351 6.282-18.828 12.351-5.978 5.363-2.955 2.649-.693 2.612-2.287 3.251-6.114 3.108-5.156 4.725-5.05 5.6-6.66 9.4-3.143 3.485-1.48 5.295-6.112 7.408-13.145 23.67-.3 1.149.361.893 2.977 2.676-.45 1.943-9.955 11.128-12.447 20.382-2.346 9.067-1.963 3.205-4.673 2.377-3.521 2.578-9.68 9.798-4.235 5.57-.226-.407-1.626-.838-3.635.692-7.626 3.829-4.115 1.111-4.049.225-9.19-1.105-1.167-.884-1.436-2.759 5.241-24.04 1.84-5.672 3.46-7.705 10.725-20.588 1.821-4.483 1.628-5.667 2.08-12.008-.36-6-5.483-6.383-2.98-1.042-14.483-5.077-4.24-.825-6.648.363-8.609-.989.867-4.4-.879-3.321-3.39-3.364-3.359 2.52-12.94 1.648-6.17-.703-4.036 5.052-.95 3.859-2.96 3.085-4.48-3.24-5.135-5 1.369-3.445-.783-4.447-3.237-7.984-4.373-1.205-4.208-6.712-2.03-.074-8.844-4.56-.723-1.425.37-1.133-.429-2.025-2.212-5.625-6.028-1.692-3.373 1.928-.858 2.687-1.099 1.034-5.164-4.85-2.761-3.532-3.42-8.662-.183-2.68-1.885-2.412-2.49-1.355-4.143.293-2.913 2.499-7.533-6.744-1.282-2.18-.219-3.015-1.213-3.203-2.419-1.003-4.481-1.86-2.925-2.05-3.164-4.244-6.733-14.52-3.369.267-2.2-1.095-6.645-4.863-.787-2.454-8.512-.694-1.902-3.921-.39-3.609.614-6.666 4.443-.538.3-.782-.67-.45-.209-1.633.083-2.14 1.105-6.207-.01-1.889-.247-1.513-1.173-.627-.715-1.536.522-1.006 1.954-2.018 2.157-2.685 1.338-2.815.886-1.954-.18-4.085-.74-1.094-1.318-1.001-.597.054-1.23-.397-1.629-1.573-.998-.959-.812-1.019-.697-.525-.123-.054-1.206-.654-.431-.315-2.42-2.09-.692-1.513-.257-.344-.216-.985.207-1.16-.442-2.032-.31-2.721z"/></svg>