<svg height="1000" width="1000"><path class="americon" d="M70.023 890.707l2.609-48.825 3.035-57.952 3.068-59.27 3.645-72.548 1.688-33.676 3.196-61.622.837-16.159 5.434-107.695.478-9.437 3.187-62.976 1.704-35.499 1.494-31.145 2.122-41.238 2.205-43.597 1.019-20.085.952-18.781 6.166-123.62 1.029-20.242 55.166 2.497 31.306 1.215 49.186 1.65 67.42 1.85 7.903.179 70.654 1.212.958 1.268 51.166.264 17.304.012 43.748-.142 1.19-.008 36.271-.225.26-.002 23.731-.2 14.899-.156 21.84-.245 3.99-.052 8.523-.118 4.45-.066 50.537-.688 51.097-1.372 42.988-1.804 35.656-1.678 84.004-4.129L899.026 25l.802 14.714 1.93 38.154.664 11.808.845 16.687-5.18.264 3.926 72.76 2.626 51.807.973 19.184 3.63 72.335.319 6.34 1.64 31.478 1.785 34.196 1.064 21.135 1.968 39.861.595 11.098.09 1.683 1.693 31.565.3 5.57 1.698 42.488 1.496 42.49 1.058 30.527.982 28.396 1.818 43.726.768 18.479 2.33 44.06.594 11.106 3.395 63.81.518 9.824.773 14.68-37.722 1.927-57.069 2.588-37.067 1.471-6.383.237-89.191 2.668-29.434.691-10.167.215-33.973.627-85.997.691-35.673.186-29.226.04-25.441.014-34.791-.105-1.721 4.956.876 9.742-1.861 7.22 7.803 9.875 7.647 5.298-.504-.134-66.87-.714-43.909-.774-18.156-.387-113.778-3.352-1.782 48.38L188.704 975l-72.86-2.93-22.391-.888-27.58-1.392z"/></svg>