<svg height="1000" width="1000"><path class="americon" d="M25.321 321.89l1.017-10.285.178-1.954.713-7.837.6-5.969 2.453-25.64-.005-.275 1.134-11.923 1.617.367.126.006.666.066 14.816 1.235 2.675.222 1.862.208 2.281.24 2.002.279 1.908.286 4.695.766 36.892 3.265.008.01 10.176.857 5.644.549 2.589.227 13.974 1.175 1.321.107 1.513.112 2.992.212v.003l10.566.747 32.442 2.18.13.002 4.868.306h.002l3.902.252 3.639.242 7.586.466.123.003 3.85.237 1.996.123.203.008 15.634.912.154-.001 15.622.868.031.002 1.388.079 4.42.24 1.74.123 5.497.313h.01l4.415.205.035-.023 1.36.098 3.888.222 4.466.194.881.05 4.386.235.928.028 2.413.175 6.369.265 4.56.214.384.008 4.143.171.009.004 4.174.171.116.022 37.79 1.67.855.032.149.02.521.018 7.757.336 2.833.143 9.045.445.34.017.138.007.657.038 12.938.537 9.653.486 1.21.06.06.002 12.593.566.97.117 2.512.083 7.274.28 1.832.06 3.517.11.484.018.154.006.246.01v.008l1.735.052 3.039.124 5.316.162 3.42.03 10.575.414 3.176.098 12.824.392.494.014 8.126.249 2.201.007 3.138.093.641.02 12.3.328.061.008 1.142.024 7.782.186.404.01h.192l3.28.05 4.662.132.427.025 18.34.366h.022l13.454.293h.21l1.003.02 5.937.165.748.01.104.002 11.729.16 1.969.044 1.22-.008 3.311.038 3.26.016 3.834.046 7.207.046.59.003.64.003 25.049.135h.001l2.034-.007.006-.016 1.593.037 7.742.021 5.043-.009 1.442-.007 3.307.062 4.543.003 1.95-.003.065.006 2.012-.004 5.886.004 1.137.004h.007l8.365-.03 1.352-.006 24.297-.131 2.717-.007.25.002 1.73-.012h.393l6.581-.048 1.05.001 5.894-.061.886-.015 3.539-.033 1.376-.024.521-.01 1.469-.008.154-.004 2.789-.04.948-.008 4.836-.049 2.984.009.34-.048 4.565-.03.926-.046.506-.013 2.822-.035.547.002 19.446-.226 2.734-.037 9.175-.226 2.285-.058 12.453-.253.293-.006 6.357-.109 1.896-.036 1.65-.062 3.324-.068.177.01.289-.004.277-.004.425-.025.217.016 15.176-.354 3.95-.134 2.947-.102.959-.022 1.938-.065 3.57-.093.205-.006.142-.004.762-.015 6.368-.163 2.292-.091 1.95-.044.953-.037 1.945-.054 2.578-.08.342-.013.487-.028 1.483-.024 1.103-.052 2.394-.071 3.698-.117.619-.025.91-.03.41-.007 4.165-.134 4.235-.144 1.295-.037 1.172-.033 11.226-.392h.012l8.25-.32.31-.01h.03l.593-.022 13.748-.554 1.945-.071 2.369-.097h.02l8.823-.357 2.593-.117 1.258-.042.813-.037 2.04-.089.413-.014 1.331-.06 15.35-.587.367-.017.96-.037 1.041-.045 5.834-.262 4.097-.182.231-.008 2.636-.142 1.185-.06.222-.01 8.047-.372.782-.07.009.365.012.204.297 6.023.015.487.054 1.215.039 1.074.032.46.09 1.999.101 1.954.068 2.297.25 4.43.547 10.936.454 8.824.226 4.336.01.205.393 7.5.033.78.053 1.049.148 2.9.264 5.53.01.122-.003.246.123 2.236.02.38.1 2.116.381 1.944.22 1.18.342 1.986.944 5.342.417 2.25.092.426.345 1.962.976 5.653 1.099 6.183 1.252 6.74.002.073.272 1.279.146.864.028.127.072.37.395 2.197.08.384.698 3.666.14.721.424 2.237.003.02.247 1.303 1.331 6.742.64 3.239.024.136 1.803 9.4.132.694.174.794.236 1.211.567 2.951.018.052.528 2.7.045.227.213 1.072.04.167-.003.013.004.075.789 4.389 1.491 7.58.307 1.665.184.984.222 1.242.281 1.461.063.355.034.159.138.778.091.467.676 3.41.177.87.067.37.735 4.06.091.42 2.281 11.886 1.138 6.046.128.697.051.222.12.626 2.134 11.682 2.802 13.92-.015.06-.237.901.026.126.16.77-.05.623.262.907-.04.304.055.616.152 7.745-.01 2.063.017.551.08 1.59-.032.226.01.407.066 2.914-.053 1.089v.403l.082 1.142.07 2.741-.008.332.013 1.553.03.509.069.878.038 2.115.016.38.157 5.532.012 1.25.184 7.873.415 17.707.122 5.247.032.235.029.495.046 2.11.052 1.919.011.364.013.452.427 17.446.29 11.876.062 1.106.343 12.032.018.36.151 5.227.352 12.157.02.708.045 1.627.172 5.976.006 1.036.672 22.479.696 23.314v.006l.016.302.217 8.657.017.49.062 1.793.015.441.243 7.824-.016.04.107 4.156.083 2.945.11 3.796v.033l.03.965.014.934.142 4.555.008.37.011.397v.03l.132 4.712.043.751.054 2.752.038.512.063 3.419.068 1.403.078 2.151-.125 1.253-.434.557-1.488.697-1.839.67-.664-.334-.325-.351-.142-.77.153-.335-.136-.647-.498-.425-.648-.007-.562.315-.612.032-.424-.306-.129-.525.24-.363-.027-.793-.125-.443-.6-.42-.876.168-.467.188-.24-.029-.184-.277.015-.369.278-.545-.088-.405-.364-.472-.5-.465-.337-.572-.823-.146-.43.226-.349.509-.355.385-.712.036-.516-.096-.493-.343-.644-.622-.519-.178-.724.485-.309.63-.519.516-.872.247-.38-.103-.3-.558.02-.982-.096-.567-.16-.483-.326-.393-.807-.121-2.914 1.23-2.689-.222-.267-.164-.097-.485-.03-.62.124-.495-.226-.833-.453-.2-.486-.11-.325.149-.248.234-.163.452-.275.413-.484-.065-.583-.594-.062-.178-.196-.565.144-.851-.264-.876-.398-.603-1.233-.296-.7.033-.458-.29-.59-.77-.071-.708.185-.764-.056-.397-.2-.345-.339-.118-.483-.065-1.636 1.32-1.021.27-1.247-.607-.348-.34-.629-.014-.507.201-.322.237-.112.76-.205.365-.323.193-1.25.146-.887.02-2.354-.768-.642-.43-.299-.413.163-.462-.096-.733-.395-.56-.262-.076-.546.158-.265-.357-1.665-1.186-.47-.244h-.601l-.996-1.059-.077-.452.028-.64.256-1.036v-.433l-.139-.564-.198-.196-.294-.214-.308-.123-.452.043-.444.247-.392.109-.436-.003-.558-.203-.546-.796-.142-1.065-.998-1.25-.789-.247-.241-1.577-.424-1.722-.3-.155-.226.065-.311.276-.583 1.079-.185.137-.596.076-.492-.181-.36-.679-.573-.68-.962-.458-.9.693-.673.249-1.72.013-1.095-.276-.292-.2-1.266-3.11-.308-1.168-.536-.575-.677-.251-.863.485-.558.733-.743.03-.418-.355-.174-.46-.001-.765-.432-.692-.276-.306-.302-.193-.878.13-1.053-.348-.294-.38-.034-.428.097-1.339-.425-.451-.745-.283-2.118.17-.745-.067-.605-.054-.655-.27-.248-.252-1.815-1.144-4.128-1.395-.813-.022-.465.184-2.436 3.869-.061.55.083.341.212.42.106.98.005.554-.214 1.075-.292.36-.596.433-.319.115-1.018-.35-.321.053-.284.134-.212.255-.055.33-.087 1.275.008.656-.177.725-.495.409-.801-.031-1.72-.619-1.888-.68-.912-.047-.121.074.008 1.247-.45 1.125-1.52.208-2.647.034-3.75.407-4.581-.189-1.862-.416-.105-.144.262-1.445-.173-.302-.237-.104-.578.104-.961.981-1.531.677-1.186.053-.445-.214-.058-.304-.007-1.074-.46-.518-.61-.119-.549.272-.58.554-.898.633-.746.2-.626-.032-.372-.329-.461-.775-.057-.833.298-.969.006-.924-.262-.912-.723-1.708-.303-.43-.19-.184-.282-.08-2.608-.231-1.582.084-.427.996-3.75 2.986-1.185.127-1.462-.387-.632.154-.526.335-.763 1.222-.882 1.003-1.379.741-1.603.143-.31-.07-1.758-1.14-1.055-.283-1.133.064-1.03.467-.22.287-.382 1.015-.036 1.259.09.195.127.28.4.399.503 1.584-.082.347-.411.557-.639.316-.958.604-.14.002-.35-.172-1.39-1.517-.234-.18-1.283-.454-.497.002-1.773.447-.116.259.004.165.134.65.142.318.08.552-.038.234-.155.313-.224.259-.62.394-.425.137-.645-.048-.292-.11-.444-.33-.222-.248-.506-.567-1.14-1.012-2.553-1.066-.729-.429-.688-.58-1.419-1-1.247-.734-.79-.342-1.454-.425-.107.041-.115.306.053.314.144.276.044.228.012.504-.134.628-.502 1.266-.342.261-.835.412-2.372.153-1.028-.382-.399-.699-.54-.329-.304.008-.245.098-.354.261-.101.483.057.754-.023.466-.07.16-.782.792-1.635.73-.214-.178-.08-.18-.062-.408.06-.417-.045-.25-.346-.152-.495-.033-.203.234-.65 1.341-1.33.699-.76-.23-1.001-.43-2.41-.655-1.793-.14-.155.18.018.137.07.206.195.249.19.618.04.725-.214.319-.545-.023-.69-.215-.964-.741-.56-.277-1.84.156-1.055.214-.234.276-.159.548.37 1.767-.221.313-1.556.034-1.342.362-.116.099-.227.476.206.752.263.435.25.188.31.157.415.196.55.234-.049 1.027-.715 2.613-.579.91-.386.452-.97.6-1.533.627-2.373.712-.986-.066-2.258-1.478-2.536-1.258-.858-.167-1.751.499-.271.235-.76 1.55-.143.404-.33 1.383-.131.839.115 1.143-.031.948-.312 1.33-.774 1.618-.207.317-.267.236-2.477 1.183-.652.096-.888-.09-.738-.636-.115-.332-.033-.952-.456-1.409-.322-.772-1.161-1.233-.558-.592-2.29-2.206-.587-.672-.589-.898-.339-1.162-.172-.406-.288-.551-.318-.413-.883-.348-.726-.18-1.344-.113-.284.067-.653.646-.334.118-3.11.365-1.643.088-.236-.118-1.133-1.098-.478-.871-.032-1.551-.082-.588-.404-1.133-.473-.934-.33-.38-.301-.168-.422-.115-2.114.575-1.742.114-.77-.07-1.653-1.214-.684-.394-.97-.46-2.547-.957-.718-.546-.089-.285.025-.463.087-.216.404-.581 1.525-1.76 1.18-.548.496-.325.824-.787.294-.504.236-.657-.016-.324-.294-.483-.068-.013-.513-.094-1.685.15-2.394.071-.212-.128-1.63-1.442-1.852-1.462-.522-.076-.32.05-.392.287-.321.372-.208.443-.626 1.805-.267 1.672.172 1.051-.007.385-.27 1.531-.383 1.16-.282.652-1.004 1.532-.557.569-.421.278-.493.206-3.876.878-.924.156-.872.047-.54-.14-.367-.276-.153-.297-.726-1.71-.061-.861-.293-1.357-.117-.3-.343-.473-1.256-.73-2.144-.497-2.242-.279-.602.492-.269.414-.112.663-.073 1.497-.491.551-.54.252-.636-.032-1.205-.775-1.033-1.012-.904-1.036-1.51-3.936-.18-.908.07-1.442-.373-2.835-.357-1.15-.333-.72-.25-.387-.461-.543-.578-.528-.27-.154-.403-.087-.248.061-.916.492-.291.188-1.126.725-.882.653-2.323 1.244-.146.015-.365-.241-.335-.572-.15-1.052.038-.37.149-.462-.01-.145-.221-.026-.754.244-.337.277-.394.49-.122.265-.088.776.146 1.347.122.424.619 1.457.456 1.888.127 1.777-.177.775-3.688 5.095-.691.831-1.723.842-.276.072-1.131-1.217-.575-1.272-1.419-.647-2.209.993-.365 1.2.817.605 2.97.804 1.043 1.288.094 1.08-2.291.431-1.226.249-1.085.566-.471.65-.302.778-.05.612.158.707.716 2.078.314 1.194.075.768-.002.954-.165 1.285-.556 1.232-.346.577-.352.446-.85.73-.508.327-.5.21-.908.234-.58.036-1.325-.232-1.378-.452-.66-.34-.94-.675-1.055-1.14-1.132-2.547-.7-1.923-.31-1.593-.51-.581-.987-1.666-.257-.576-.031-1.16.07-1.26.169-.413.437-.768.255-.345.19-.141.247-.072.86.053.565-.07 1.123-.557.552-.708.017-.963-1.535-6.245-.145-.41-.537-.762-2.398-1.877-.553-.245-1.8.206-1.792 1.172-.327.444-.141.383-.335 3.514-.575 1.363-.161.227-.114.058-1.722.108-.442-.091-.435-.183-.797-.55-.956-1.094-.581-.522-.373.001-.579.277-.795 1.563-.173.16-.269.101-.476.027-.208-.15-.271-.921-.125-.175-.187-.074-.435.001-.413.226-.33.724-.171 1.03-.854 2.279-1.172 1.932-.807.872-.373.32-.485.282-4.332.093-1.863-.075-2.048-.607-1.025-.662-.696-.841-.439-1.001.158-1.084.222-.523.225-.252.71-2.2.057-2.848-.823-1.424-.267-.322-2.732-1.642-.285-.171-.964-.315-.704-.054-2.103.835-.705.262-.86.72-1.216.734-.958.464-.4.092-.377.025-.336-.061-2.49-.455-.542-.237-.209-.201-.81-1.371-.094-.57.016-.329.096-.26.124-.119.413-.729.316-3.293-.089-.232-2.244-2.026-2.842-1.837-2.583-1.15-.608-.187-1.185-.08-1.875.656-.588.402-.558.883-.726 1.943-.641 1.157-.822 1.017-.986.917-.808.602-.168.04-.327-.026-.221-.119-1.67.045-1.135.364.01.493.323.786.046.889-.096.225-.411.41-.194.097-.834-.122-1.278.525.386.799.072.778-.11.516-.47.68-1.959.753-.222.688-.228.419-3.356 2.694-3.64 1.13-.657.05-.686-.176-2.229-1.094-1.003-.78-3.598-2.207-.237-.098-.454.003-.432.13-.55.06-.833-.111-1.075-.462-.735-.592-.415-.454-.006-.007-.674-1.017-.09-.262.005-.226.118-.458.42-1.026.139-.158.212.001.436.635.375.283.626-.19.448-.407.404-.567.41-1.376.123-.71-.075-.969-.122-.186-.12-.058-.915.264-.292.004-.601-.136-.152-.11-.178-.332-.01-.354.177-.234.802-.392.626-.626.404-.91 1.297-4.146.027-.2-.085-.126-.126-.045-.59.126-.365-.006-.284-.101-.539-.476-.604-.88-.378-.685-.287-.18-.47.18-.53.474-.531.291-2.111.518-1.595.286-.944.053-1.55-.028-1.619-.347-3.176-.945-.278-.121-.336-.312-1.74-3.316-.212-.294.004-.355.171-.328.233-.15.463-.121.085-.1.087-.279.048-.506-.33-.561-1.763-1.914-.39-.67-.242-.705-.082-1.27.192-.444 1.758-1.887.581-.84.494-.953.319-.792.21-.7.112-.865-.05-.274-1.322-2.325-.58-.797-.274-.223-.578-.091-1.02.015-.86.546-.692.762-.26.44-.441.75-1.355 1.877-.355.31-1.356.859-2.565-.25-.989-.156-.416-.129-1.458-.593-.815-.465-.19-.301-1.797-.837-.801.321-.98.159-2.74-.213-1.555-.337-.722-.226-2.107-1.674-.433-.465-.327-.185-4.418-.91-.4.121-1.593.91-.368.43-1.654 2.455-.304.858.054.065.267.057-.063 2.336-.17.635-1.717 2.042-.394.278-.252.071-.259-.08-.098-.073-.24-.177-.372-.107-.42-.02-.918.166-.315.157-.108.136-.22.393-.03.343-.07.193-.31.268-3.017 1.226-.807.264-.493-.054-2.03-1.393-2.707-3.186-.265-.683-.63-1.053-1.655-1.695-.859-1.255-.17-.69-1.378-1.676-.528-.547-2.571-1.66-.482.035-.567.367-.15.056-.194.071-.564.009-.564-.12-1.603-.645-.852-.421-.557.001-.292.179-.596.662-4.024 3.402-.74-.066-2.242-.384-.164-.073-1.926.054-.137.074-.16.25-.055.33-.267.494-.294.253-.845.16-.889-.074-.294-.322.026-.273-.113-.49-.138-.197-.425-.369-3.015-1.09-1.66-1.726-.698-.369-2.073-.563-2.811.008-.201.069-.071.202-.083.955-.205.387-.281.104-.637-.088-.58-.564-.176-.29-.005-.19.324-.467.126-.353-.032-.28-.153-.22-4.144-1.616-1.016-.627-.267-.229-.27-.36-.478-.73-.074-.215-1.346-1.56-1.14-1.138-.221-.13-.018-.01-.68-.185-.268.108-.18.234.008.683-.05.238-.451.452-.31-.004-.58-.33-.272-.385-.227-.553-.28-1.027-.667-.522-.407-.068-1.15.524-.318.432.038.79-.337.287-.848.453-2.647-.582-.138.06-.184.243-.238.524-.298.358-.61-.017-1.057-.356-.08-.098-.035-.233-.129-.257-.688-.525-1.08-.42-.407-.053-1.46.265-1.922.768-1.205.195-.84-.198-.364-.205-.228-.42.046-.271.179-.39.3-.21.11-.213-.096-.372-.107-.11-.238-.097-.874.01-.678.59-1.747.767-3.475-.856-.287-.339-.058-.297.084-.465.254-.685-.003-.344-.103-.375-.474-1.085-.166-.593.095-2.304.316-1.585-.084-1.17-.072-.088-.455.03-.393-.12-.437-.231-.238-.401-.194-.823-.133-2.56.228-.45.26-1.513-.066-1.578-.26-.571-.476-.174-.279.011-.258.18-.479.027-.435-.126-.291-.264-.07-.24-.072-1.3-.302-1.292-.611-1.397-.674-.48-.283.116-.39.36-.453-.047-1.4-1.286-.402-.47-.04-.235.162-.128 1.082-.04.385-.19.26-.228-.216-1.704-.318-.238-2.9-1.418-.536-.105-.513.142-1.066.55-.933.222-.227-.02-.139-.084-.502-.79-.474-1.113-.589-.732-.818-.515-1.008-.866-.697-.724-.032-.385.045-.223.235-.424.029-.304-.453-.57-1.22-.432-.656-.041-.653.243-1.658 2-.317 2.496-.012.736.04.194.285.29.233 1.343-.785 3.82-.281.378-.391.208-.485.106-.191-.03-1.288-1.109-1.24.936-1.112-.136-.46-.815-.831-1.187-2.054-1.209-.475-.006-.277-.004-1.096-.26-.358-.253-.396-.715-.327-.423-.308-.271-1.623-.67-.38-.077-.699.292-.704.08-2.215-.254-.76-.294-.696-.396-.85-.182h-.534l-.658.201-.55 1.224-.142 1.318.054.96-.115.314-.262.413-1.04 1.172-.436.323-2.767.052-.753-.364-2.123-.617-.535.446-.601.273-.386.084-.373-.084-.596-.512-.778-.318-2.07-.25-1.272-.95-.528-.49-.227-.508.087-.453-.082-.41-.14-.29-.42-.5-1.126-.728-1.186-.534-1.487-.963-1.431-1.332-.04-.19.334-.459.013-.161-.083-.15-1.12-.977-.825-.052-1.168-1.366-2.228-3.18-.455-1.232.079-.394-.759-1.381-.85-.377-1.3-.983-.93-.703-1.719-2.289-.362-.635-.083-.454-.121-.246-1.382-1.712-.723-.746-.248-.191-.332-.052-1.856-1.485-.66-.62-.136-.6-.684-.329-1.848-.432-1.012.106-.255.22-.109.322-.007.201-.163.192-.795.717-.698.477-.37.104-1.267.116-1.325-.105-.327-.026 1.115-25.649v-.014l1.698-39.101.908-20.936 1.425-32.886 1.166-26.945 1.547-35.787 1.029-23.837 2.604-60.415-.366-.016-9.417-.404-9.955-.452-14.126-.669-.04-.008-.025.006-1.408-.075-1.125-.022-.003.003-1.896-.1-.001-.002-2.918-.139-.005-.01-3.81-.183-.01.003-.836-.048-.003.005-1.378-.07-.776-.04v-.004l-8.857-.428-.882-.055-.019.015-.08-.011v-.007l-1.628-.085-3.488-.197v-.004l-.574-.027-.017-.007-.984-.045v-.005h-.007l-6.08-.327v-.004l-1.027-.056v.002l-5.55-.31.001-.004-1.716-.095v-.003l-4.085-.229v-.005l-4.48-.253h-.003l-.356-.023-.001-.005-1.967-.105h-.002l-2.901-.178-.962-.054-2.664-.154h-.01l-3.746-.211-1.913-.11-1.974-.117-2.5-.149-7.443-.443-.773-.05-3.572-.176-58.722-3.937-2.838-.208-.407-.029-4.901-.344-1.156-.112-7.638-.56-.129-.009-.15-.01-.15-.01-.517-.034-4.183-.29-.006-.017-11.283-.97-11.116-.87-9.769-.78-.372.02-4.03-.323-8.978-.779-.599-.003L25 325.432z"/></svg>