<svg height="1000" width="1000"><path class="americon" d="M25 696.467l7.278-12.266 2.735-5.454.235-.56 2.46-5.884.796-1.419 3.347-11.555.787-4.273-.047-3.092 1.375-1.706 3.38-9.391 1.08-4.27.113-2.117 2.12-7.52-.535-3.412-.51-1.485-.736-.526-.246-.639 2.055-3.185 1.903-2.017 2.405-.446 1.508-1.33 3.61-5.886 3.91-7.662 4.483-10.593 3.25-8.868 2.339-8.633 2.523-9.331-.153-1.026.957-2.497.756-2.69 4.101-16.696 1.745-8.888 1.51-7.705 1.406-7.706 1.919-12.664 2.05-11.155-.17-3.579 1.527-7.43.584-4.277-.056-1.383.846-4.632.572-4.958-.04-.844-.577-.387-.106-.322.03-.267.184-1.665.902-2.77.181-1.01-.123-.766 1.235-2.774 1.4-6.223 1.378-7.333.54-4.215.394-5.986-.184-1.448.247-2.312 1.157-4.858 1.87-12.469-.168-.82.556-1.514.128-1.64 1.057-4.248-.095-1.725-1.052-2.384 1.016-3.154.862-5.587-.577-4.13-.967-1.49.443-4.34 1.192-5.333.458-.648 1.07-.405.738-1.878 2.433-8.147 1.107-4.4.024-1.366.35-2.148 1.329-5.317 1.86-10.013.037-.2-.012-.322-.595.11-.918-.473.4-2.414.547-1.95.781-1.226.132.09 1.86-1.483 2.139-8.254 1.393-9-.384-2.56 1.787-10.223.225-5.98-.795-3.284-.638-.36-3.336.124.06-.473 3.247-1.096.791-1.1 1.191-5.045 1.037-7.182-.215-2.995-.824-3.044-.183-3.624.69-.57.505.045 1.167-2.688 1.68-8.75-.972-1.104.764-2.304 2.145-12.234.417-7.583-.233-2.973-.266-1.026-2.304-3.999-1.532-.873.146-1.04 1.54-2.19.021-.132 1.418-8.653.195-5.317-.171-6.142-1.107-3.727-1.434-1.459.002-1.229 2.888-3.498 1.46-.773 1.762-.084.505-.235 1.393-5.138.16-5.237-.159-4.815-1.142-7.263-1.048-4.196-1.396-4.472-2.172-5.825-1.316-3.238-1.496-1.022 1.512-1.031 1.053-.11.42.347.94 1.38 1.629 2.44 2.455 1.54 2.452 2.167 1.512 2.06.816 1.691 1.407.815 3.988 1.443 1.365-.434.237-1.488-2.313-2.164-.317-.88.29-.282 2.859-.262 1.873.42 3.168-.78 1.217-.294 1.31-.715.584-.422.442-.745.656-.28 1.24 1.399 1.086.633.842.808 1.005 1.281 2.765.025 2.223-1.23-.004-2.294.2-.476.814-.408.639.348 1.826.607 1.324.074 1.45-.264 2.04-1.412 1.79-.532 4.407-2.925.155-1.746 1.078-.184 1.327-.38 1.16-.381 1.705-.692 2.389.43.523.237.651.567 2.231 2.492 2.052 3.416-.758 7.638 6.337 6.058.87.052 3.496.208 3.484.417 2.333.081 3.323-1.712 2.314-1.455 2.075-.932 5.333-2.4 5.609.861 1.158 1.28 5.848 4.158 1.038 1.218.821.363 1.267.901 1.398.558.566.384 4.44 4.884 6.406 3.685 2.039 3.878.518 4.712 2.345 2.817 1.852 5.521 2.522 3.314.688 4.651-.728 3.158 1.322 4.65 1.361 2.75-.167 2.772-.062 1.021-1.283 3.057-.058 2.432 2.748 4.877.773 3.503-.009 4.011-.272.932-1.356 4.642-.351 3.1 1.059 3.82.153.122 2.673 2.1 2.765 1.197 2.447 2.156 1.77 1.155 3.474 1.48 4.669.516 2.381.688 3.729 1.3 2.734 1.257 3.527 1.156 1.448.622.52.254 2.295 1.864 1.706.664 3.197-.549 2.183-1.048 1.312-.183 3.087 1.156 2.306 3.516 4.133.895 3.204.052.465-.063 1.566-.508 5.45-2.496 2.11-2.137 4.905-.962 1.264.29.006-.004.372.075v-.007l1.565.24 1.222-.307 6.616-4.036 2.497-.847 2.144-.07 2.37-1.054.377-.32 1.875-1.24.93-1.724.447-.214 1.887.174 1.483-.76 1.604-.822.87-1.213-.08-1.413 4.016-3.561 6.371-2.038 8.577 2.252 3.142-.059 4.447-1.573 4.207.152 11.158-3.34 1.206.324 2.618.666 4.054 3.225 2.457.704 1.967.563 2.47.217 3.326-1.607 3.942-.241 2.883.854 2.787 2.13 4.074 1.45 3.995 1.209 1.706 3.49.543 3.301-.174 2.078 1.424 1.678 1.813.076 2.535-.262.694-.654.85.366 1.117-1.011.587-.327-.333-.817 4.022-3.975 2.337-.733 3.487.283 2.964-.335 2.71.811.625-.157 2.83-1.18 1.032.057 3.168 2.47.27.212 2.033-.458 2.91-2.95 1.637-1.66 7.577-2.347 7.335-3.248 3.942-1.513 2.324-2.312 1.733-1.145 2.104-1.392 4.952-.109 3.584 1.33 4.243 4.616 1.824 1.586 2.66.904 8.874-.797 8.47-1.942 4.563-1.496.735-.182 8.072-.807 4.517-5.863 3.274-1.838 8.026-2.01 7.748-4.406.185-.096 3.788-1.964 6.568-.685 3.519-1.109.9-.212 7.359-1.97 3.356.269 11.588-2.005 5.104-7.978 2.532-2.3 3.242-1.007 5.333 2.628 4.15.292 4.192-1.87 2.063-.19 7.582-.701 4.67-1.977 7.325-1.26 3.559 1.08 3.417.7 2.93-.03 4.856-.975 3.656-1.696 3.501-2.647 3.818-1.821 2.032-1.697 2.312-3.395 5.147-.266 29.556-1 2.149-.077 2.175-.082.18-.002 3.472-.11 3.017-.096.472-.001.708-.034 3.621-.144 4.5-.131 2.947-.114 10.367-.393 1.186-.055 5.925-.212 3.527-.2 3.049-.07.43-.021 1.79-.07.857-.036 9.298-.447 1.687-.006.54-.024 14.497-.741 2.148-.09 29.152-1.301 12.867-.52 11.028-.512 2.773-.083h.003l.531-.027.024-.008 3.94-.342 5.515-.31 4.146.123 1.8-.48 13.556-.76.247-.01.215-.013 15.982-.863 2.107-.027 7.327-.493 5.071-.219 2.775-.044.583 1.014 2.226 2.203.853 2.499 1.396 2.111.909 3.376.423 1.08.863 1.513.319.482 1.668 1.814 1.586.843 1.276.8.603.508 2.244 2.94.216.383.543.962.327.883.075.654-.119.57.02.529.1.243.709 1.014 2.267 1.27.41.039.497-.18.468-.272.616-.506.498-.532.455-.31 2.326-.26.423.053.392.16 1.215.606.108.108 1.303 2.15.919 2 1.798 1.754.666.274 1.499-.074.737-.29.404-.413.41-.246 3.085.42 1.384.303 1.884 1.65 2.17 1.845.685.243.51.068.297.265 1.229 2.131.202.482-.032 3.136.4 2.94.17.785.926 1.599.532.583 1.402 1.102 2.186 2.2.818.9.728 1.547.674 1.355.594.993.398.666.557.384.215.342.142 2.102-1.77 4.178-.106.152-.797.467-1.318 1.381-2.126 3.409-1.085 3.581-.818 1.83-.503.657-.41 1.865-.393 2.943.013.18.52 1.146.134 1.596-.765.335-.242.188-1.268 1.337-.575.617-.703 1.038-.297 2.555-.4 2.403-2.287 2.535-.743 1.71-2.6 6.203-2 4.959-.014 1.169.422 2.628.154 1.47.001.937-.122 1.122-.108.25-.571.716-.653.513-.45.703-.429 1.506-.692 2.481-.427 3.338-.017.363.25 1.595-.063.712-1.318 5.231.1 1.392-.313 3.047-.07.378-.16.363-2.39 4.402-2.22 1.531-.767 1.643-.095.363-.02.896.153 1.474.034.333-1.375 2.822-1.183 1.65-1.759 2.212-.544.45-1.237.804-.67 1.401v.143l.287.512.156.505.173 2.255-.153.264-1.052 2.616-.119.912 1.004 3.023.096.275.565 1.039 1.359 1.686.512 1.211-.004.267-.14.401-.498.913-.323 1.44-.348 1.604-.383 1.943-.155.982-.457 1.144-.845 1.72-1.97 2.149-1.351 1.715-.478 1.143-.473 1.134-1.479 3.437-.813 1.036-.307.609-.236.997.01.326.106.37.304.552.023.178-.098.448-.3.56-.231.18-1.358.89-2.028.593-.46.243-.217.227-.518.786-.946.978-.602.563-.768.509-.823.112-.906-.075-2.74 1.595-.656.54-1.901 3.066.268.88v2.456l-.202.51-.94.568-.713 1.411-.11.9.002.419-1.052 2.58-.497.698-.03 1.206.266.863-.26 1.87-1.021 2.289-.734.411-.306.796-.259.914-.336 3.435.162 1.626-.123.381-.86 1.088-.453.397-.497.287-.384.488-.216.707.06.36.633.765-.025 1.901-.494 1.587-.324.733-.936 1.146-.699.328-1.671.181-.405.632-.45.99-.183.586.067.504-.1.582-.179.566-.61 1.326-.95 1.102-.254.066-.617-.094-.877.452-.1.233-.07.49.043.352.186.536.375.59.64 1.782.221.855.167.927.158 3.413-.31 1.085-.707 2.165-.156.362-.859 1.023-.884.566.014.914 1.095 2.742.898.91 1.367 1.198.765.357.449.382 1.203 1.206.15.162.845 1.553.008.259-.145.893-.067.167-1.143 2.633-.243.218-1.11.507-.176.155-.112.18-.203.965-.254.413-.01.228.758 1.468 2.352 2.241.617.432 2.793 1.81 1.57.132 1.594-.227.56-.217.495-.623.09-.213.038-.464.166-.406 1.072-1.403.34-.245.731-.33.461-.044.414.108.243.172.468.507.512.716.133.253.404 1.465.19.33 1.394 1.282 1.359.878 1 1.047.401 1.021.427.268.351.018.342-.172.158-.382.265-1.787.71-.708.449-.33.502-.073.271.044.618.361.395.085 1.866-.121 1.655-.123 1.314.346.308.45.232.692-.128 1.61.222 2.93.354 1.746.547.403.212.061 2.132.33.27-.087.532-.37.595-.08 1.206.317 2.79 1.798.34.408.571.88.32 1.8-.004.341-.149.638-.126.298-3.113 7.299-.05.35-.555 1.237-.452.54-.592.513-1.607.488-1.191.212-.801.487-.333.505.735 5.169.144.688.087.102 1.98.837 1.596 1.086.778.98.37.893.056.417-.153 1.763-.654 1.537.908 1.58-.138 1.16-2.54.443-.987.963-.8.64.778.99.733-.192.536.31-.044.422-.122.77.046 1.073-.34 1.492-.402.774.208.713.95.62.089 1.547-.633.715-1.605.417.368 1.532.156.735.11.94-.267 2.584-.191 1.848-.058.19-.752.612-.21.086-.718-.12-.195.052-1.36.48-1.185.622-.144.763.41.35 1.06.319.394.554-.112.653-.429.41-.681-.176-.793.053-.497.408-.297 1.509 1.169.949.261.914-.455 1.689.792 12.186-.012.171.208 2.973.08 1.418.277 3.811.019.352.046.879.126 1.831.345 5.383.05 1.117.03.634.043.562.093 1.141.097 1.44.01.257.038.712.022.395.178 2.461.015.189 5.965 91.137v.042l2.408 35.992-.003.046-.001.026 1.94 30.21 2.7 40.932.285 3.552 2.081 31.774.315 5.53.232 2.598 1.28 19.65-1.824.12-1.799.117-1.64.082-16.033.966-2.447.236-23.087 1.497-4.9.225-22.42 1.464-.275.076-30.739 1.57-40.206 2.115-37.747 1.814-12.52.728-11.749.77-9.884.185-.17.01-2.284.121-25.548.557-25.772.802-2.94-.1-2.38.12-9.1.155-4.477.071-10.504.044-34.97.498-8.009-.09-7.316.146-2.915.005-1.763.023-12.484.379-1.526.224.001.05-.236-.099-22.455.29-13.045.335-4.924.012-21.781-.05-18.178.112-5.605-.11h-.214l-14.723-.138-8.36.023-19.374-.066-7.43-.293-3.874-.266-15.115-.351-.432-.092-7.325-.105-3.037.117-.169.02-.595.042-2.454-.113-1.97-.088-7.324-.114-.576-.019-.986-.031-9.042-.292-7.537-.253-11.745-.515-1.716-.075-1.975-.072-.392-.017-17.216-.767-19.095-.634-12.623-.651-6.641-.472-.157.003-.467-.057-.11-.003-12.407-.335-3.528-.18h-.001l-11.01-.656-2.463.043-12.821-.4-16.625-.018-9.723-.265-10.828-.428-9.457-.263-2.218.012-5.914-.34-12.878-.577-2.52-.435-2.269-.19-7.67-1.001-1.121.149-4.673.206-4.782.032-14.546.055-4.248-.248-6.56-.745-7.964-.244-.008.008-.385-.03-1.972-.168-.91-.078-3.398-.054-8.942-.435-4.073.554-8.816-.828-7.599-.302-3.076-.015-.924-.12-1.574-.203-20.724-1.3-10.598-.81-.144-.013-1.538-.093-.086-.024-3.135-.214-10.58-.957-.238-1.27-6.52-7.089-2.089-.222-1.454-1.06-1.626-2.816-3.014-4.412-1.623-3.804-.075-.519.83-1.915.03-.863-.401-1.2-.704-.353-.45-1.468-.028-1.024.427.007.423-.587.132-3.085-.743-1.32-.647-.364-.184-.5-.118-.553.228-2.066-.154-1.683-.625-1.442-3.093-4.134-.026-.6.45-1.05.622-2.886-.316-4.928-2.014-4.21.291-.503.409-2.812.485-4.206.12-3.03-.096-4.169-.662-2.483.035-.874 1.854-3.385.083-2.954.361-2.11 3.304-7.807 1.342-4.354.18-1.35-1.067-3.872.425-3.399-.106-1.527-1.093-5.203-.403-.64-3.972-2.652-.067-.337.57-1.118-.051-.865-2.587-7.312-2.058-1.67-.836.059-.109.403-1.373.543-.404-.083-.137-.3.014-2.802-.558-6.064-1.116-4.141-.877-1.527z"/></svg>