<svg height="1000" width="1000"><path class="americon" d="M935.043 441.24l2.262 2.748 2.663 1.295 4.158.06 1.925 2.145 2.13.526 14.708-4.496L975 451.087l-.382 3.862-9.333 5.218-3.6 2.216-7.956 4.029-15.59-5.496-3.472-4.526 3.446-5.696-5.265-7.862zm-82.56 87.123l10.258-1.474 11.996-5.126 7.636-1.23 7.624-2.994 10.713-5.26 13.098-1.761 9.86 1.48 13.016 3.39 7.296 1.161 1.658-.348 2.269 1.466 2.576-.682 2.393-1.976 4.555 4.955-.352.923-2.465-.351-4.442 1.915-9.348.663-1.52.938-3.893 4.354-1.229.409-2.96-.151-1.929-.117 1.76-4.09-1.622-.626-3.663.213-2.704 1.245-.512 2.256.323 2.67-3.026.779-1.202-1.595-2.394.824-2.256-.167-4.175 1.025-4.152 3.169-.87 1.49-8.73 2.94-1.908-.593-3.162.067-1.047-1.8-3.874-1.312-9.589 1.86-5.881 3.635-6.252.375-5.815-1.578-3.756-2.146-.489-2.095-2.206-2.145zm-7.712-101.738l2.758-.284 6.792 4.713.432 8.07.632 3.784-1.162 2.123-3.305-3.162-3.186-9.128-3.294-2.471zM517.435 611.842l5.424-5 4.17.42-.001.605-.003 4.4-4.173 3.75-5.006 1.663zM261.486 436.308l2.657-1.148 7.54-1.799 4.313-1.03 3.41-1.37 5.197-2.822 14.73-9.282.187-.118 1.059-1.116.49-1.984-.425-5.568-1.736-5.118-2.482-4.753.041-4.452 1.727-3.251 7.476-6.564 1.601-.826 4.393-1.4 7.725-.965 3.382-.422 5.021.96 20.514 1.139 10.857 4.804 10.213 2.95.627.279.075-.015 4.487-.895 13.118 3.069 1.896-.354 11.856-2.218 6.162.048 4.423 1.156.106-.015 12.99-1.798 6.61.53 5.352 2.706 5.414 2.735 2.514.751 2.81.46 8.087.339 9.413-3.182 1.34-1.308 5.4-1.035 6.446-.338 7.386-1.971 13.157 3.42.94.243 6.553-.443.81-1.073-.196-.756 1.733.195 8.228 3.213.471-.15 1.396-.444 6.214 2.217 14.376 2.86 4.804.054 2.541-.76 2.55-3.214.658-2.118.399-.07 6.224-1.075 3.68-.46 5.585.046 5.915.619 1.554.115 8.062.499 4.147.255 7.75 3.983.155.016 8.285.838 2.627.046 2.457-2.18 2.363-.795 4.104 1.227 2.255 1.623 3.397 1.356 7.536.981 5.829-.067 1.554-.2 1.743-.224 2.501-.92 1.626 2.292 3.496 1.801 3.778 1.862 2.845-.397 3.748-3.618 1.469-3.535 3.031.475 1.577.248 2.85.735 8.513 1.165 3.086 1.64 3.232 1.422 10.7 1.572 1.331-.296 1.012 1.544.024.036 4.633 2.263 5.811-.209 3.24-2.056 1.46-2.796.047-.225.15-.706.542-.149 11.263 3.251 11.441 2.294 3.073.073 3.157-.858.952-1.487 9.193 4.553 13.896 2.254 2.574 1.82 1.062 1.203 4.139 4.692 3.794-.083 4.744-4.277 1.254 1.388 1.41 2.048 3.327-.416 1.538.356.285 1.27-.667 1.18 7.473 7.663.096.057 2.813 1.658 2.985-.673 1.233-1.405-.948-2.406.5-.931 4.387 1.13 1.549 5.698 5.352 2.951 3.215.438 2.246-.617 3.232 1.636 1.75.151 1.5.13 3.801-1.46 1.431-2.632 2.055-2.02 6.841-2.894 2.15-.273 1.452 2.145-1.862 5.396-4.803 7.346 2.468 5.69 1.272 15.93.375 4.695 6.372 5.815 10.323 3.557-4.877 7.83-3.417 5.768-3.893.793-2.478-6.03-7.357-.545.234 1.717 3.277 7.057-2.377 1.93-9.531-2.377-.574-.144-9.251 4.567-1.285 2.948 1.252 2.934-1.69-.102-5.285-2.755-.58-.797-1.914-.359-3.641 1.725-2.145 1.941-1.434 2.332-.1.227-1.54 3.508-5.25 2.758-2.834 3.035-3.662 7.094-6.535 16.804.16 1.438.566.447-.103 1.859-.576 1.374-1.754 4.182-2.565.653-2.798-2.39-3.04 2.197-1.814 2.526-1.077 4.31.722 8.859-2.509-.038-3.955 1.184-6.788 2.03-1.665 1.402-3.397 5.297-3.917-.61-3.212 2.34-1.822.796-4.961 2.162-18.159 3.23-2.787-.624-.289-.898-3.46-2.607-4.401-.544-3.354.374-.78.457-1.557.915-7.871 7.8-.858.113-3.229-1.705-3.681-2.595-.456-.006-4.007-.05-12.162 6.477-3.788.824-2.804 2.07-4.504 2.75-2.614 1.691-1.198-.155-3.081-1.33-2.598-.82-2.916-.066-3.549-.297-1.277 2.482-4.327 3.27-3.305 2.06-1.933 1.206-6.608-.474-3.74-2.323.93-4.679-2.28-1.492-2.34-2.827-3.973-1.361-5.304.665-2.429-4.66-6.768-6.446-2.353-.678-5.078.762-.083.013-8.45 3.044-.905 1.254-1.286 2.623-.983 2.304-4.717 4.6-2.166-2.51-2.707-1.88-4.625-2.34-11.693-8.136-1.713-1.417-1.584-1.31-2.262-1.286-10.53.002-6.57 1.708-10.656 3.727-14.972 5.23-2.247-3.01-1.658-.481-3.732.607-6.563-4.448-2.857-.631-4.806.904-4.262 2.072-2.317 2.332-2.956.658-9.204-4.125-3.759-1.685-1.232-2.088-1.246-.955-4.96-.502-5.303.462-1.788 1.294-1.724-.078-.762-3.013-.6-1.177-1.494-2.934-2.038.125-5.194 3.696.018 6.46-.812 1.99-7.382 2.649-4.973 4.08-5.682 1.654-4.795-1.895-1.464-.579-1.055.819-1.083.84-.361 2.708-4.823-1.23-.687-1.347-1.453-.359-5.689 1.525-1.729-.832-1.675.228-1.114.89-2.412 5.655-1.6 1.884-1.204.01-5.064-2.276-4.855.485-1.529-3.202-2.823-2.613-4.341-1.65-.185-.318-.561-.96.178-2.244-1.343-2.274-3.775-.332-2.769 2.686-3.498-2.845-3.42-.857L332 581.615l-4.945 2.192-4.711 5.982-4.097 1.732-2.989.274-6.396-.923-1.91-1.406-11.633-4.22-4.037-.673-1.74.751-1.869 4.3.419 1.75 1.717 3.149-.364 2.436-3.966-.663-.74-1.049-2.344-3.66-2.71-2.647-.19-1.256-.757-2.37-.25-7.751 1.192-3.499 1.518-1.836 10.48-3.896 1.267-.822.68-1.378.114-2.399-.557-1.156-6.805-2.757-5.805-1.381 4.735-11.386-.493-3.81-.332-5.271 1.427-1.831 4.005-2.733.625-1.77 2.123-15.632-.692-3.05-.738-3.22.042-.047 9.012-9.777.91-3.114-1.817-4.88-5.188-5.179-.786-6.383-4.265-6.902-.01-.075-.68-5.204-2.088-3.485-4.834-1.714-5.38-.671-.236-.03-3.147-1.214-11.066-19.668-1.31-3.386zm-78.384-8.992l3.766-2.846 3.288 1.702 2.421 4.588-3.358 3.267-5.354-2.146zM27.447 526.64l.816-.688 7.497-2.222 6.652 2.229 1.612.545 3.743-.51 2.35-1.681 2.91-1.156 4.555 5.175 1.67 4.987-.213 3.589-.61 1.152-2.757 1.326-4.464 4.61-2.106 2.773-8.6 1.841-2.929-2.557-4.991-1.568-3.131-2.072L25 538.22z"/></svg>