<svg height="1000" width="1000"><path class="americon" d="M385.88 952.728l31.451-77.239 39.363-5.763 9.296 66.486 12.239 35.225L416.925 975zM198.477 784.305l20.332-36.638-2.673-63.472 34.34-4.826 5.54-140.611 2.183-55.607.002-.063.131-46.917.257-91.97v-.18l-2.084-89.433-4.187-218.304 155.591-5 12.174-.413 25.514-.879 49.329-1.664 32.347-1.121L589.057 25l.075 36.664.073 35.652-.02 63.981 34.27-.323-.01 66.683 8.454 53.647 9.839 5.828 45.433 26.87 43.208 67.177 5.963 9.255 4.665 7.237 51.104 15.965-3.295 62.644 14.627 114.365-15.948 12.748-42.907 30.715-16.108-9.354-22.225-12.921-5.067-2.949-32.397-6.93-21.925 39.765-31.37.767-31.226-10.593-22.8 5.038-9.34 2.06-21.757 50.397-22.802 39.547-59.003-1.725-56.6 13.516-63.226 25.925-22.678 3.944-46.459 8.042-63.048 17.068z"/></svg>