<svg height="1000" width="1000"><path class="americon" d="M25 225.01l.947-1.997 2.037-1.131 3.806-3.97-.128-1.377.289-1.978-.61-3.834 2.07-2.344 2.003-.512.496-.362-.013-1.112-.266-.582.01-.271.122-.24.21-.209.38-.011.423.017.583-.085.619-.954.075-.872.255-.458.982.381.307.421 1.42 1.12.883-.34.624-.677.278-2.693-.482-1.079.53-1.905.623-.24.454.018.448.202.328.166.48-.125.224-.184.18-.387.282-1.28.518-.582.575-.555.084-1.104.299-.566.939-.252.502-.703.002-.737-.076-.667.32-.32 1.01-.197.629-.416 1.765.494 1.365-1.059.686.626.79.064.908-1.038-.609-1.364.27-.807 1.128-.272.58-.643.854.01.768-.35 1.153-1.186.41-.827.979-.595.67-.764.467-.85.691-.205.79.169.586-.417.455-.978.53-.466.652-.183 1.28.634.516-.018 2.015-1.355.143-.332-.067-.672.189-.525.283-.158.554.274.514-.222.296-.243.138-.502-.126-.343-.32-.447-.706-1.033-.008-1.198.53-.327.664-.862-.087-1.11.318-1.126 1.695-1.718.43-1.11.61-.473.545-1.552.01-.82-.15-.853-.56-1.047 19.673-5.68 1.724-.5 20.11-5.497 17.221-4.83 4.301-1.352.895-.108.41.254.013.023.461.233.429.542-.238 1.053-.356.751-.169.344-.013.42-.131.327-.294.52.873.662 1.434-.27 1.105-.607 1.312.079.7-.36.591-.893.049-.542.333-.64.6-.134.9.22.666-.247.504-.756.985-.843.261-.336.053-.655.118-.326.395-.502.69-.026.579.274.996.107 1.608-.805.636-.244.562.055.467.091.728-.284 1.063-1.312.245-.522-.047-.537-.354-.7-.112-.423.042-.343.135-.34.327-.45.26-.273.179-.114.062-.48.108-.644.478-.291.533-.06.776.214.328.507.328.545.145.387.553.323 1.404.037.887-.275.862-.586.427-.675.541-.436.671-.37.6-.173.773.29.675.44.403.128.69-.057.515-.4.326-.59.74-.977.624-.133.706-.319.11-.193.28-.16.537-.175 1.426.042.81.334 1.116-.27.855-.908.413-.039.81.21.218.152.463-.073.806-.343.845-.361.487-.562.267-.568.48-.333h.575l.425.182.476-.178.258-.262.013-.42.14-.535.258-.261.48-.333.601-.175.565.016.784.022.82.271.044.143.242.423.4.318.5.014.792-.247.892-.474.44-.509.384-.369.075-.09.17-.093 1.924-.054 1.22.085.844-.128.954-1.257.679-.641.671-.292 1.524-.36.735.226.838.019 1.554-.792.864.193.491.662.03.491-.054.86.312.895.431.065 1.823-.149.769-.42.322-.72 1.264-2.919.747-2.322.948-1.286.425-.35 1.235-.526 1.553-.432 1.535-2.035.55-.505.482.014 1.212 1.182.032.688.598 1.289.32 1.01-.1.51-.287.54-.13.563.048.39.215.641.548.597.683.545.367.188.45-.06.927-.683.167-.35-.004-.423.068-.387.353-.275 1.551-.298.667-.128 1.074-.034.642.396.192.556.12.064.29-.012.8-.372.186.008.416.393.032.539.694.422.69.08 1.08-.702.403-.66.198-.092 1.503-.42 2.3-.409 1.358-.832 1.157-.27 1.474-.016 3.365.419 5.145.557.077.007 2.768.233 4.012.348 1.93.184 1.671.17 1.782.06 5.566.256 9.556.773 7.978.403 1.696.085 7.407.368 6.217.415 8.467.56 9.918.5 14.018.869 5.762.296.83.043 5.732.291 4.309.217 6.871.455 6.607.433 6.17.401 6.434.415 7.081.398 9.865.546.168-.014 6.203.368 1.746.103 1.313.077 15.306.876h.018l7.477.41 7.247.393 9.501.508.452.028 19.62 1.18 5.309.314.3.018 6.215.512 6.525.534.146.15-.105.203-.191.112-.526.653-.144.336-.662 2.492.031.375.12.145 2.22 1.133.427.89.724 2.092.101.882-.066.471-.42.936-.47.37-1.779.452-.692.426-.39.602-1.009 2.406-.162 3.073.066 2.555.379.55 1.1 1.16 1.652 2.51 11.162-7.783 5.113-3.572 4.456-3.503 5.513 7.28.027.035 4.185 5.488 8.663 12.32 3.67 5.211 2.883 3.906.063.084 4.77 6.438-2.51 23.263-.364 3.362-.105.973 3.875.014 1.156.01 17.14.13 7.321.046.38.004 3.63.068h.001l.016-.005.932.011 11.636.107h.004l12.088-.021 1.56.1 1.285.006 6.56.034.566.01 2.721.067 1.747.024 1.235.044.225-.011.278.025 3.35.063 9.732.072 5.798.04 3.07.019 4.117.025 9.706.053.832.012 13.77.184 5.49.068 6.288.076.19-.003 4.066.048.842-.016 5.893.069 2.991.045 5.263.061 14.255.155 7.072.06 4.056.034 18.968-.474.152-.009 5.454-.04.158.005 10.001-.037.537-.002.413.001 2.5-.014 8.197 7.86.527.507 13.97 13.234 1.446 1.31 6.848 6.524.245.234 5.783 5.466 2.187 2.136 1.553 1.737.576.433 1.393 1.133.088.07.31.255 1.955 1.858 18.454 17.588 5.448 5.463 1.308 1.299.326.384 3.352 3.302 4.037 4.132 7.482 7.648.987.96 5.852 5.69 3.448 3.348 1.406 1.312.265.3 7.964 7.654 1.674 1.608 14.654 14.04 15.368 14.655 6.547 6.228 11.002 10.446 7.194 6.817 3.969 3.792 8.963 8.55 8.678 8.261 11.79 11.2.428.475 1.512 1.244 8.305 8.023 2.25 2.103.258.242 5.989 5.596 1.123 1.048 7.358 7.058 8.141 7.796-2.529.889-6.119 1.093-17.168 7.07-8.186 4.498-11.413 8.014-7.806 6.295-9.667 9.427-14.486 16.32-12.286 16.692-1.008 1.368-3.987 8.119-2.455 2.387-8.419 9.919-3.2 5.554-6.432 13.964-2.24 6.243-.718 6.608-1.158 4.402-.747 1.364-3.108 17.728.065 3.905 1.869 7.52-2.894 8.02-1.514 1.902-3.932 2.637-4.483 4.599-1.5 2.987-8.932 3.826-.168.072-7.622 4.987-1.356 4.31.413 1.667-.707 3.65-3.906 10.662-8.85.897-2.613-.638-1.455-1.964-7.576 1.988-4.514 1.65-1.144-3.495-3.784-4.016-3.16-.54-7.036 3.567-4.614 3.688-1.107 3.68-2.862 2.979-1.098 1.725-2.128 4.77.02 1.9 1.025 2.41 1.414 2.114 4.118-.213.829-1.2 1.35-.8.478.144.618 1.726-1.157 4.978-11.109 4.511-4.852 3.953-7.962 5.567-.832 2.535-.686 1.035-3.394 2.487.693 2.934-1.923 1.887-17.097 7.363-1.422 2.597-4.464 2.391-1.66.41-2.916-1.47-.185-2.298-1.499-1.728-3.17-2.282-7.55 1.603-.811 2.265-.17 4.435 10.089.654 2.26 3.835-.375 1.721-3.31 6.32.509 4.246-6.19 4.831-10.68 6.282-1.385.07-2.334 3.226-.95 2.44-1.811 2.576-1.994-.688-5.477-.255-8.103 1.794-9.02 3.227-5.492 2.995-3.806 4.561-.875 3.354-2.358 1.517-1.398-1.647-3.12-2.077-8.35 6.028-.653.378-5.388 3.128-.333.193-11.125 9.357-1.214-.141-1.16-2.92-4.125-1.25-3.413 2.395-1.237 1.845-1.168.855-4.28 1.168-.505-.337-.409-.969-.153-3.598-1.028-1.716-3.279-1.306-2.584 1.522-2.79.503-1.305-.394-.972 2.818-.67 1.944-.868 3.999.938 3.378 2.616 5.277 2.096 3.63 5.036-.134.637 2.153.156 2.944-1.001 3.528-2.244 6.063-2.31 3.29.352 2.533-2.28 1.79-10.563 5.03-4.417 2.892-1.28 1.212-5.217 2.171-5.207-.039-4.49 3.276-4.23 1.13-1.575-2.295.316-6.433-9.007-2.728-5.38-5.532-3.909 1.516-.707 3.272-3.36-.184-2.581 3.464.99 3.056 4.779 3.853 4.174-.695 8.25 7.415 1.806 4.772-4.044 3.866-6.692 9.899-5.687 4.96-8.434 4.317-4.642 3.114-1.864.285-1.418-1.128-.648.125-2.663.734-2.952 2.471-4.001 4.827-5.636 6.791 2.695 1.996 1.411 2.235-1.542-.085-3.659-.436-1.484-.206-1.023-.385-.818-.615-1.406-1.436-1.997-2.507-2.324-2.635-1.016-.645-4.013-1.48-.887-.563-.949-1.123-.823-1.708-.536-.83-1.134-1.076-.508-.253-.918-.271-1.078.235-.838.67-1.163 1.588-2.286 1.323-1.155.237-2.473-.212-2.107-.54-1.333-.7-3.429-2.553-.966-.776-.542-.743-.126-.925-.39-.11-1.46.007-2.203-.21-.453-.294-.801-1.075-.554-4.064.185-1.91.167-.559-.342-2.17-.405-2.073-.225-.269-1.092-.37-.246-.293.049-.321.263-.53.755-.733.695-.675.35-.12.017-.424-.22-.38.127-.61.396-.996-.059-.95-1.001-2.959-1.051-1.783-1.588-1.036-.147-.198-1.313-1.969-.693-1.271-1.43-2.624-.503-.925-.12-.593.207-.513 1.505-2.203.524-2.018 1.924-2.256 1.175-.457.578-.412 1.366-1.99.373-.753-.039-.487-.499-3.847-.122-.462-.204-.342-.308-.147-2.102-3.731-.387-.878.125-.437.827-1.164-.116-1.582-1.492-1.977-.328-.366-.308-.05-.741.41-.176.448-.123.21-.313.197-.311.011h-.245l-.144-.028-.09-.04-.077-.079-.066-.185.036-.395-.01-.316-1.37-1.465-1.72-1.28-.148-.341.064-.267.253-.43.127-.474-.123-.46-.838-.772-1.394-1.703-.166-.203.609-1.017.193-1.725-.754-1.171-1.793-2.635-1.062-1.026-2.077-3-.66-2.97.244-.376.559-.275.4-.277.206-.37.096-.39v-.259l-.216-.354-.17-.409.002-.408.143-.39.299-.276.693-.116 1.01-1.015 1.095-1.599.104-.29-.265-.318-.225-.05-.657.191-.492-.075-1.062-.71-2.527-2.614-3.074-3.71-1.234-1.125-.951-1.827-.088-.707.067-.315.35-.291.386-.21.168-.364-.127-.606-.497-.257-1.62-.253-.586.017-.401.165-.625-.195-4.938-4.181.187-.762.3-.625-.022-.733-.057-.254-.808-2.284-.419-.452-.005-.006-3.148-1.523-.244-.093-.54.04-1.725.443-2.372.331-1.667-.424-7.787-3.904-.277-1.74-.11-1.41-.156-.294-.37-.194-.328-.026-.631.698-.61.042-.363-.156-1.678-1.405-.015-.013-.911-1.683-.656-.794-1.543-1.377-1.455-1.761-1.356-2.677.059-1.288.292-.348.463-.309.276.02.376 1.086.255.37.19.073.421-.152.914-1.077.024-.2-.304-.3-.169-1.076.314-.17 1.85-1.48.321-.476-.156-.474-.912-.69-1.42-.064-.384-.974-.02-.253.136-.23.493-1.278.685-2.345-.04-.646-1.408-3.59-.212-.09-.129.022-.158.097-.084.196-.094.197-.306.118-2.764-2.018-.157-.251 1.312-2.433.157-2 .43-2.99 1.21-1.564.231-.256.147-.374.061-.375.06-.34-.054-.308-.17-.343-.285-.208-.515-.175-.169-.377-.11-.445.062-.58.265-.748-.253-.617-.224-.583-.51-.687-.457-.38-.531-.248-.24-.066-.056-.171.002-.307.088-.204.088-.17.19-.194.416-.142.29-.339.031-.307.031-.238-.026-.274-.198-.308-.429-.21-.456-.31-.37-.413-.137-.582.205-.51.624-.652-.04-.935.09-1.862.244-2.09.826-.771.26-.466.11-.612-.509-3.16-.193-.96-.977-1.363-3.274-2.29-.186-.129-.258-.084-.926.437-.37.287-.279-.009-.275-.44-.403-1.057.615-1.333.36-2.163-.302-1.063-.208-.27-2.865-.658-.475.094-1.123-.344-.709-.84.492-1.541 1.104-.708.177-.018 1.269-1.314.123-.438-.372-.506-.617-.295-2.063-1.123-.149-1.89-.627-2.03-2.391-2.394-.96-.256-.52-.668-.05-.808.652-1.21.027-.307-.92-.76-.607-.757-.214-.675-.056-.434-.017-.336.023-.289.144-.215.063-.24.063-.263.144-.263.244-.142.387.021.401.013.315-.215.075-.232.996-3.429.706-3.968.059-.577-.02-2.48-.166-.307-1.967-1.416-1.836-3.083-.4-.188-1.296-.167-3.856-2.46-.257-.349-.396-1.03-.084-.097-.35-.403-.511-.064-1.03.57-.368.142-.68-.24-.265-.265-.167-.293-.093-.408.106-.65.05-.28-.045-.29-.265-.265-.17-.09-.145-.001-.098-.001-.146-.002-.295.2-.417.228-.44.053-.799-.168-1.09-1.162-.529-.916-.557-1.051-.947-.937-.438-.092-.397.31h-.386l-.945-.476-.166-.41-.02-.407.176-.405.226-.55.03-.464-.405-.703-.29-.178-.392.022-.666.683-.437-.026-.17-.089-.046-.175.055-.494.067-.47.02-.72-.26-.672-.385-.325-.316-.175-.168-.092-.535-.065-2.929.283-1.015.229-1.032-.062-.825-.349-2.402-2.109-5.047-2.362-2.699-.979-.585-.056-.67.136-.302-.077-2.503-1.87-1.438-1.326-3.902-2.954-2.248-2.472-1.589-1.931-.24-1.477-.447-1.262-1.116-2.359.003-.193 1.377-1.596.587-.064.448-.235.778-2.064-.029-.067-.225-.517-.681-.372-.377-.464-.784-2.932-.257-.414-1.016-.908-.885-.183-.346.164-.186.31.729 1.195-.054.868-.288.357-1.137.393-1.15-.09-3.017-.77-.42-.297-.117-.267-.018-1.376-.291-.777-.42-.296-1.583-.7-1.667-.534-.749-1.17-1.05-1.008-1.904-1.019-1.076-1.377-.031-.04-.19-.775 1.232-3.744.972-.042.495-.102.359-.49.031-.935-1.143-1.386-1.553-1.208-1.905-.682-.372-.634.379-2.188.853-.372.887-.01.257.27.407-.235.723-1.025-.223-.712-1.266-.875-2.863-.944-.508.257-1.11 1.308-1.661-.752-.477-1.576-2.132-1.335.062-.509.04-.77-.244-.492-.42-.357-.47.199-.318.71-.478.741-.572-.01-.208-.29-.177-.545-.404-.469-.998-.815-.154-.389.264-1.718-1.346-.928-1.618.405-.906-.04-.498-.323-.008-.675.864-1.021.179-.961-1.959-1.964-.388-.802.095-.794.53-.4.826-.033.991.885.802.201.998-.7.194-.719-1.186-1.451-.848-4.3-.357-.827.08-.706.418-.429.89-.175 1.505-.327.602-.589.192-.568-.012-.6-.342-.44-.761-.469-.457-.86.107-.897.374-.647.865-.394.91-.497.596-1.026-.01-.536-.01-.393-1.421-2.618-1.059-2.643-.61-.71-.934-.618-1.519-.437-.936-.426-4.098-2.217-1.296-.506-1.419-.363-1.053-.622-.667-.855-.302-1.016.14-1.569-.295-.89-1.815-3.814-.593-.444-.558-.228-.098-.122-.449-1.717-.295-.319-.176-.088-1.473-.738-.709-.711.013-.674-.943-1.029-.952-.384-.363-.658-.47-1.334-1.754-2.24-.52-.26-1.198-.147-.551-.346-2.226-2.116-.804-.528-2.867-.805-1.32-.539-.439-.328-.482-.56-1.441-2.263-.623-.24-1.193-.005-.244-.002-.777.37-1.118.973-.649.182-.887-.165-1.853-.94-.43-.346-.741-.597-.435-.698-.432-1.3-.575-.567-.403-.269-.712-.24-2.478-.649-1.087-.704-1.235-1.214-2.036-2.378-.834-3.942.345-2.569.002-.997-.158-.696-1.51-1.292-.244-.46-.444-1.345-.925-1.724-.346-.464-.796-.697-2.312-2.719-.48-1.853.323-1.557-.578-3.974-.238-.973-1.087-2.775-.227-1.506-1.516-1.74-.552-.19-.284.037-.736-.43-.226-.37-.115-.545-.216-.246-.312-.225-.543-.076-1.42-1.023-.652-.982-.924-.983-.778-.493-.538-.102-.505.117-.65-.412-.212-.37-.033-.348.19-2.242-.054-.746-.176-.41-.52-.56-1.202-.745-.847-.816-.267-.558-1.89-2.095-2.62-1.774-1.772-1.758-.974-.537-3.397-1.511-.523-.359-.49-.439-1.054-1.346-1.02-.828-1.09-.684-1.026-.488-.926-1.045-.657-.53-.886-.224-1.182.202-.726.25-.986.088-1.253-.534-.388-.3-1.45-1.686-.362-.299-1.5-.62-1.366-1.022-.823-1.158-2.053-1.604-1.971-2.226-2.5-1.953-.608-.906-1.405-3.058-.771-1.319-1.02-1.35-2.257-1.596-.44-.11-1.466-.013-1.14.472-.671.126-2.241-.752-.455-.38-1.459-2.534-.01-.016-.202-.695-.053-1.253-.393-1.18-.3-.467-.942-.849-.54-.716-.386-.665-.175-.653.015-.641.127-.445.36-.388.386-.234.203-.284-.03-.276-.128-.257-.296-.161-1.113-.402-.551-.463-.578-.728-.457-2.147-.488-1.193-.217-.53-.023-.575.409-1.762-.08-.673-.305-.44-1.34-1.07-1.274-1.26-.686-1.673-1.119-1.111-.335-.753-.042-.6-.167-.389-.92-1.21-.78-.52-.519.154-.48-.043-.884-.662-.649-1.132-.306-.921.109-.716.496-.528.522-1.18.048-.312-.104-.178-.105-.14.058-.465-.094-.327-1.046-1.375-.223-.204-.783-.277-.361-.164-.88-.69-.1-.106-.222-.81-.297-.214-.954-1.427-.197-1.579-1.338-2.344-.403-.462-1.756-.723-.783-.943-.344-.177-.67.02-.834-.145-.855-.431-2.172-1.781-.405-.573-1.034-3.717-.387-.94-1.025-1.5-.191-.595-.078-.53.17-3.008-.14-.527-1.553-3.268-.147-.31-.063-.888.397-1.093.03-.308-.746-1.276.207-.575.314-.673-.468-3.068-.015-.456.24-1.798-.846-2.658.025-.167.412-.537-.598-1.086-.982-1.275-1.335-1.34-.184-.124-.461.093-1.089-.959-.522-.816-1.243-1.942-.237-1.49-.947-1.82-.713-3.172-.097-.93.102-.862-.489-2.102-.221-.29-.584-.105-2.25-2.148-2.586-2.206-1.985-1.349-.242-.444-.056-.745.079-1.126-.209-2.105-.909-1.81-.074-.57.17-1.149-.113-.585-.976-2.967.002-2.036-.146-.787-.51-.726-.561-1.324-.168-2.8-.814-1.396-.133-.425.08-1.421-.274-.324-.615-.396-1.964-.826-.179-.556.136-.52.204-.206.224-.617-.566-.925-1.15-.923-3.837-1.777-1.125.08-2.883.857-.567-.115-.511-.59-2.422-.538-1.332 1.505-1.455.499-1.14-1.162-3.71-.298-2.516.747-.09.027-.542.798.01.757-1.544.028-5.085-3.052-.638.243-.429-.126-1.734-1.334-.85-1.09-.215-.448-.914-1.895-.657-.22-1.53.561-.764-.268-3.363-3.421.08-.441 1.795-1.353-.014-.261-1.27-1.51-.566-.287-.93-.241-.856.307-1.039-.196-.185-.3-.047-.77-.051-.847-3.534-4.897-.822-.478-.494.053-1.944-1.577-2.398-2.55-.302-2.373-2.662-.77-.38-.35-.078-1.53.223-.757.1-.439-.068-.379-.658-.435-1.17-.25-3.458.348-.527-.593-2.293-.688-1.931.152-2.022-.402-2.21-1.686.59-1.482.003-.047-.75-.457-.674-1.315-1.314-1.483-1.347-.675-1.885-.457-1.143-.751-1.63-1.508-1.202-.835-1.48-2.034-.083-.984-.59-.734-.83-.204-1.086.272-.39-.104-.362-1.316-.167-.294-.381-.39-.739-.5-.95-.475-1.168.145-.471-.37-.049-.432-.031-.683-.004-.072-.179-.492-.375-.553-.42-.556-.592-.643-.294-.362-.095-.381.084-.427.38-.63.04-.428-.377-.684-.183-1.192-.07-.292-.198-.374v-.031z"/></svg>