<svg height="1000" width="1000"><path class="americon" d="M25.098 602.223l.411-1.126.79-1.396.465-1.212.21-.286.417-.204 2.96.407.161.107.025.289.102.157.64.303 2.855.627.636.229.916.597.206.048.563-.065 1.09-.784.491-.594-.028-.859.033-.963.112-.732.213-.758 1.8-3.927.692-2.78.415-.79.985-.913.619-.45.471-.265 1.293-.46h.212l.41.176 3.161 2.27.96.364 1.125-.145.447-.174.383-.234 1.447-1.261.55-.566.15-.222.112-.393-.116-1.435-.047-.108-.256-.263-2.308-.508-.277-.149-.368-.536-.328-.499-.351-.501-.233-.386-.249-.546-.088-.535-.21-.04-.32-.437-.299-.866.008-.366.221-1.067.795-.031 1.258.67h.105l.428-1.124.6-1.202.48.298.308.33.49-.06.306-.346.062-.756-.055-.465-.183-.552-.178-.475-.43-.576-.34-.554-.45-.912-.715-1.11-.159-.203-.596-.434-.545-.195-.706-.091-.795.057-.962.184-.926.06-1.265-.588-.692-.945-.749-1.688-.203-.627.017-.396.509-1.493.18-.387.311-.366.272-.212.629-.225.405-.069 1.1.681.804-.173.998-.486.205.013.504.19.915-.16.425-2.649.397-1.036-.62-1.455.162.037.171-.064.852-1.1.434-.735.398-.42.335-.033.308-.305.5-.72 1.112-2.021-.326-.07-.21-.118-.816-.811-.624-.38-.322-.284-.851-.904-.198-.265-.37-.74-.203-.226-.472-.24-1.483-.378-.521.07-.318.18-.444.372-.215.244-.207.383-.16.574-.004.598.198 1.032.784 1.542-1.06.207-2.359-.17-.653-.444-.619-.642-.074-.428 1.171-3.312.086-1.123.208-.463 3.317-1.775 1.234-.66.856-2.386.331-.78.273-.397.472-.47.778-.558.659.05.35-.21 1.516.065.522.305.827.883.442.645.06.194-.041.525-.548 1.41-.397 1.436-.051.764.297 1.475.872 1.162-.863.88 1.358.704.551-.544.64-.63.164-.326.154-.507.192-.261.243-.215 1.035-.579.069-.529.248-.484.237-.345.106-.295.006-.648.058-.394.317-.861.268-.408.42-.986.009-.406-.132-.343-1.521-1.52-.843-1.632-.216-.59-.231-1.08-.1-1.493.192-.938.38-.974.181-.27.358-.768.336-1.417.255-.295.542-.389.492-.214.53-.115.723.093.694-.38.336-.108 1.034-.084.66.094.392.125 1.387.927 1.86 1.772.179.329.076.665-.026.176-.243.405-.022.398.137.226.531.54.343.263.323.116 1.252.194 1.12.628.417.102.445-.142.402-.287.347-.406.17-.315.511-1.497-.044-.21-.122-.154-.347-.193-.041-.02-.17-.086.01-.32.13-.395-.066-.478-.356-.32-.353-.104-.739-.08-.538-.167-1.313-.763-.34-.532-.21-.458-.697-1.74-.23-.746-.1-.56.017-.239.154-.432.319-.49.358-.417.667-.52 1.474-.758 1.455-.504.861-.602.168-.055.5.22.679.189.306.043.297-.07 2.053-1.387 1.43-.475.828-.446.332-.5.277-.798.154-.8.025-.98-.21-.774-.548-.852-.25-.152-.382-.067-.818.208-.579.285-.162.169-.54.967-.244.305-.238.185-.399.143-.937.147-.794-.082-1.008-.285-.784-.39-.872-.7-.65-.81-.506-1.31-.76-1.042-.311-.56-.234-.587-.05-.664.099-2.194-.112-1.659.054-.522.316-.752.273-.36.426-.29 3.958-1.986.28-.306.361-.262.487.075 1.833 1.333.466.72.66.532.484.039 1.037-.792.698-.295 1.294-.69 1.47.202.882-.057.415-.111.769-.392.182-.154.422-.412 1.19-1.431.26-.62.04-.341-.203-.807.365-.563 1.693-1.565 1.828-.493.015-.23.824.157 1.592.718.988.01 1.19-.367.403-.271 1.57-.819.258-.26.264-.52.109-.536-.018-.375-.137-.438-.149-.222-.513-.462-2.152-1.31-2.14-.847-1.592-.82-.53-.472-.306-.499-.072-.32.005-.579.114-.61.152-.463.382-.919.371-.607 1.081-.853 1.72-1.077 2.875.236 2.86 1.427.639.98.493.608.798.377.425.021.885-.281.263-.143.553-.506.405-.525.339-1.26-.177-.506-.322-1.345-.184-.508-.39-.612-1.56-1.443-.566-.676-1.07-1.035-1.367-.94-1.088-.843-.449-.461-.421-.736-.076-.365-.003-.499.21-1.397-.033-.132-.953-1.084-.277-.465-.176-.516 2.861.116.17-.537.253-.395 1.314-1.613.49-1.154.181-.641.445-2.368.432-2.768.288-1.359.149-.281.75-.932.67-.498.994-.394 1.636-.514 1.63-.346.361-.152 1.128-.706 1.481-.682.343-.293.58-.7.12-.333.151-.795.118-1.138-.02-.817-.198-.733-.636-1.267-.618-.93-1.155-1.254-.583-.461-.597-.339-.783-.527-.82-.743-1.04-1.065-.97-.73-1.603-1.362-1.352-1.302-.72-.834-.484-.657-.078-.153-.02-.213.038-.236.225-.462.44-.647.153-.29.38-.272.42.117.533.379.88.216 2.793-.166 1.114.226.575.223 1.309.72 1.412.625.496.156.448.055 1.647-.094 1.084-.315.405-.191 1.018-.785.31-.097.458.008.477.12.485.317.452.122.342-.036.267-.112.516-.479.094-1.242-.046-1.184-.198-.651-.182-.292-.554-.449-.193-.008-.3.212-.558.104-2.55-1.57-.597-.712-.569-.501-2.296-1.788-.717-1.613-.093-.313.1-.878.479-.857.592-.555.558-.21.562-.07 2.046.199 2.265.749 1.667.218.757-.05.692-.2.538-.298.493-.393.429-.492.715-1.487.475-1.828.029-.193-.065-.448-.34-.9-1.114-2.162-1.701-2.747-.178-.494-.086-.463v-.489l.079-.564.208-.509.295-.36 1.545-1.263.244-.317.21-.337.3-.707.178-.674.085-1.131-.1-.444-.2-.367-1.207-1.432-.46-.903 4.454.25.593.047.767.08-.157.334-.852 2.147-.102.362-.001.37.072.423.24.633.454.552 1.02.565.515.141.82.02.41-.107.818-.38.522-.396 1.338-1.28.86-.958.742-.973.375-.59.305-.676 1.448.061 1.39.082 1.008-.08.187-.038 2.553-.107 1.147-.077 4.976-.276 1.943.147.345.054 7.313.484 5.182.403.022.002 4.69.343.246.018 2.96.169 1.95.111 1.432.08 2.62.147 2.617.155.39.022.732.04 3.847.234 7.028.31 1.615.14 1.068-.054 4.315.124h.026l.792.043.031.001 1.109.052 1.857.087 5.635.225 3.49.167 5.855.292 9.072.396 3.472.15 3.111.168h.01l.44.007.038.008 2.456.143h.015l1.787.072 2.166.1.259-.022 3.656.178 9.26.353.531.025.552.025 20.93.932 8.015.43h.01l.308-.385.574-.526.656-.833.193-.459.069-.534-.042-.43.071-.372.162-.282.207-.696.215-1.28-.1-1.494-.157-1.352-.39-1.5-.125-1.53-.35-2.545-1.038-3.739.035-.704-.136-.654-.155-.378-.598-1.033-.376-1.208-.177-2.478 2.777.1 3.554.231 15.03 2.019 2.421.25-.498 4.086 11.717-.098 5.464.005h5.73l8.233.033.202.004 13.668.05 1.242-.017 1.155.022 7.183.074.396-.002.88.01 5.882.068.336.011 3.32.036 1.794.02h.055l12.478.108 5.847-.034 5.327-.036 11.334-.191.06-.006 5.59-.028 2.28-.024 1.593-.045.24-.009.34.013 5.372-.13.472-.01 4.874-.012 11.597-.31.146-.002 1.634-.042 2.773 2.57.029-.013 1.36-.59.138-.918.719.127-.043.451 3.892-1.591 3.7.113h.01l.132-.012.399-.01 6.166.177 3.93.11.13-.043 1.588.038 2.81.143 4.286.458 7.69.589.332.008.289.03.024.01 1.158.096.066.006.787.049 12.49.697.139-.013 4.57.399.566.05.04.005 6.15.2 1.714.055 9.308.533 4.506.176 3.314-.08 1.388.064h.004l6.133.128 5.845.24 13.593.148.057.007h6.822l5.602-.56.681-.069 10.361-.71 1.02-.234 2.62-.032.463-.195.014-.002.573-.093 1.548-.037h.001l8.742-.031 10.727.183 1.05.054 6.682.195 4.132.266 1.254.121 3.35.321 9.118.59-.002.01 1.805.128 4.254.004 1.985.067h.006l.744.002 16.6.018 8.85.175 4.665-.202 6.171-.119 18.564-.072 1.062-.052 3.672-.16h.015l10.772-.3 15.094-.353h.025l6.151.002 3.932-.002 11.398-.142 10.624-.303.195-.252.123-.383.455-.695.366-.273.243-.348.15-.276.008-.301.569-.024.002.004 2.654-.02 2.49.145 7.109-.248 9.143-.433 10.49-.543 10.636-.663 1.67.49 1.165-.068.044.003.105.004 23.8-1.327.12-.001 4.545-.247 10.478-.58 6.208-.415 14.523-.89 1.715-.108 7.62-.541 5.181-.431.14-.01.59-.048 7.221-.605.926-.03 1.31.062 18.272-1.416.308-.022 5.49-.39 1.782-.128.101-.008.245-.014.186-.026 1.153-.088.056.008 2.377-.09.838-.027.378-.006.353-.003 2.505-.19.232-.023.27-.019 22.837-1.631 1.013-3.046 10.345-.53 9.687-.515 9.696-.718-3.04 3.459-.252.371.19.876.243.59.061.492-.29.307-.692.15-.418-.074-.213.418.07.407.252.391.15.492-.058.512-.378.445-.348.666-.21.644.03.387-.855.153.011.552.14.8.604.733.27.671.06.135.067.167.032.183.216.396.001.122.087.352-.065.116-.176.446-.03.055.06.328.188.092.12.136.076.366.12.235-.075.93.208 1.232.168.126.044.156-.026.728-.253.449-.126.116-.203-.018-.753.33-.664.728.021.52.113.313.049.527-.08.374-.005.412.066.362.022.273-.147.47-.062.597-.235.86-.917 1.035-.452.317-.403.382-.103.559.055.683.23.578.469.317.282.31.129.22.098.313-.045.692-.124.422-.037.461.209.314.606.65.27.6.037.457.062.316.15.492.165.216.36.338.488.1.695.398.314.537-.036.457-.124.46-.611.192-.455-.242-.441-.3-.552-.188-.554-.067-.421.074-.486.192-.516.309-.362.085-.709.099-.388-.03-.301-.069-.191-.076-.4.077-.339-.314-1.03-.633-.376-.15-.299.02-.378-.108-.326-.387-.216-.396-.4-.38-.602.016-.763.595-.472.45-1.014.383-1.144.29-.831.608-.442.435-.54.429-.669.419-.582.664-1.097 1.575-.168.435-.322.337-.805.68-.773.332-.342-.009-1.075.818-.928 2.087-1.385 3.114-.55 1.235-2.015 3.934-6.239 13.729.043.132-.212.68-.44.56-.529-.055-.696-.53-1.124-.106-.178.406.032.431-.5 1.067-.62.195-1.318.843-.035.11h-.018l-.617.007-1.369.142-.342-.043-.433-.226-.394.151-.638.4-1.294.121-.401-.241-.927-1.716.115-.569-.05-.687-.541-.963-.438-1.052-.465-.684-.857.252-.521.25-.91.057-.314.05-.175.162-.177.208-.348.103-.406-.027-.126-.086-.13-.126-.361-.309-.455-.093-.382-.135-.45-.333-.3-.283-.354-.26-.712-.212-.284.007-.488.208-.383.152-.108.297-.13.654-.341.484-.663.71-.063.137-.094.118-.137.11-.396.309-.169.391-.106.215-.314.282-.485-.148-.166-.192-.336-.005-.437.06-.293.508-.23.355-.328.1-.245-.06-.355-.218-.492.157-.188-.028-.944-.827-.112-.033-.871.359-.546.336-.452.411-.134.28-.981.827-.346.208-.403.054-.419.291-.334.09-.467.307-1.103.036-.177-.085-.178-.148-.553.241-.529.579-.052.138-.587.442-.513.206-.448.137-.322.401-.153.485-1.013.394-1.494 1.362-.506.604-.689 1.49-4.205 9.086-.414.205-.993.934-.864.368-.118.216.003.328-.1.144-.288.184-.004.011-1.312 1.307-.522.697-.182.04-.588.284-.423-.012-.448.21-.213.176-.927.23-.359.337-.486.136-.338.175-.756.554-.351.517-.452.942-1.067-.154-.864-.327-.172-.107-.157-.66-.371-.16-1.207-.034-.306.16-.596.137-.82-.136-.353-.165-.113-.536.052-.414.365-1.38.248-.405-.338-.636-.63-.138-.05-.066-.278-.837.049-.437.044-.165.205-.217.718-1.67.432-.514.46-.605.04-.488-.162-.299-.305-.29-.242-.425-.254-.31-.369-.136-.415-.501-.439-.175-.507-.048-.026-.568.061-.41-.169-.247-1.11-.741-.457-.458-.535.02-.672.45-.677.72-.493.246-.27-.038-.576.258-.604.323-.48.369-1.12.654-.121.157-.062.41-.331.482-1.296.65-.212.285-.45.34-.827.255-.03.233.045.356-.053.2-.955.683-.308-.021-.43.149-1.889 1.69-.466.259-.513.046-.667.204-1.137.463-.13.183-.127.253-.05.612-.604.659.053 1.37.436.411.165.017.182-.07.247.108.183.247-.27.704-.566.296-.15.156-.078.191.046.444-.19.97-1.351 1.17-.542.876-.026.141.057.212.371.68-.004.153-.215.263-.443.017-.218.073-.53.414-.61.329-.083-.089-.44-.948-.342-.415-.13.003-.361-.252-.779-.654-.15-.202-.99-.76-.306-.16-.88.278-.965-.367-.16-.184-.387-.072-1.04.537-.923.6-.464.103-.174-.055-.292 1.02.066.845-.075.221-.105.186-.31.199-.462.064-.079.148-.024.578.085.932.58.957.343 1.388.328.534.022.36-.182.37-.012.29.345.411.165.315.078.32-.035.398-.157.282-1.608.976-.187.3-.088.473-.1 1.289.255.829-.091.438-.33.344-.456.12-.453.33-.122.474-.417.784-.688.268-.177.143-.646 1.19-.358.886-.026.264-.274.633-.281.401-.08.733.088.317-.06.126-.124.262-.608.078-.506.42-.4.59-.574.659-.855.601-.406.135-.627-.048-.54-.6-.705-.152-2.675-.876-.357.106-.336.205-.158.018-.245-.055-.258-.237-.47-.223-.611.212-.337.218-.27.034-.918-.174-.211-.22-.512.103-.682.538-.077.298-1.165 1.092-.323.195-.012-.004.011.007-.232-.031-.242.128-.018.102-.605.383-.343.114-.686.579-.84-.206-2.094.52-.115.119-.66.039-.567-.052-.244.22-.345.481-.048.175.103.548-.53 1.185-.185.028-.604.313-.33.702-.113.466-.352.78-.295.03-1.056.641-.203.034-.408-.144-1.166.351-.28-.164-.338-.097-.287.079-1.035.061-.953-.038-.138.431-.143.158-.832.4-.425.523-.006.171.13.348.048.39-.079.327-.087.43.126.33-.014.738-.246.575-.324.392-.444.245-.412.312-.203.544-.437.297-.615.258-.855.493-.154.263-.003.748-.25.721-.352.586-.553.258-.892.266-.252-.035-.597-.54-.379-.497-1.545-.28-.282.34-1.037.408-.222-.04-.246.148-.228.335-.174.396.035.31-.075.319-.202.383-.902 1.208-.13.079-.244.012-.206-.14-.167.06-.323.329-.117.297-.251-.016-.925.2.021.167-.395 1.006-.422.345-.755.23-.267.166-.616.475-.915.516-.052.257-.065.06-1.173.228-.993-.194-.508.017-.126.433-.544.808-.33.68-.73.776-.942.36-.136.166.015.35-.284.255-.4.218-.022.076.112.48-.214.359-.484 1.17-.667.215-.712.564-2.12.12-.34-.356-1.505.201-.741-.104-1.243.244-.786-.023-.761-.126-.696.098-.423.225-.615.21-.398-.015-.178-.138-.095-.396-.75-.773-.87-.681-.333-.135-.452.006-.673.77-1.552.907-.298-.15-.377.144-.142.152-.36.156-.548.06-.863-.297-.532-.098-.324.151-.23-.115-.368-.017-.75.09-.359-.161-.86.235-1.506.137-.309.114-.158.005-.198-.105-.37.01-1.468.771-.286.214-1.055-.126-.315-.299-1.543.656-.79-.299-.298.165-.539.153-.79-.043-.122.638-.734.995-.717.465-1.693.838-.662.733-.107.291-1.682 1.5-.208-.104-.494.007-.9.475-.903.352-.606-.219-.598-.082-.784.162-.688-.002-.809.361-.266.224-.162.61-.807 1.348-.101.118-.29.065-.6.748.005.174.139.142-.01.149-.119.287-.44.286-.242.644-.108.642-.256.512-.543.352-.304.046-.592-.045-.533.097-.794.281-.547.602-.077.299-.686.562-.376.086-.008.002-.296-.372-.27-.091-.358.024.002.055.006.122-.02.455-.4.574-.156.07-.356-.054-.174.047-.178.356.034.497-.573.174-.517.765-1.01.625-.424.603-.153.41-.095.637-.068.13-.245.372-.33.24-.678.776-.313.475-.317.122-.328.196-.114.335.048.438.324.586.081.092.325.068.125.09.695.98.004.095-.247.487-.057.247.165.225.187.51.12.978-.798.957-.422.74-.1.284-.343.462-.143.05-1.157.463-.233.143-.057.205.69 1.541.13.05.228.433-.1.373-.189.267-.015.28.003.165-.295 1.038.004.668.083.119.708.19.25.14.61 1.051-.202.771-.473.428-.13.088-.747.506-.688 1.431-1.054 1.187-.334.259-.881.24-.751.424-.453.1-.7.305-.176.316-.002.245-.996 1.007-.574.377-.533-.08-.1-.086-.599-.188-.534.205-.122-.01-.074-.09-.03-.09-.653-.003-.415.127-.075.064-.118.4-.045.284-.171.106-.185.05-.305-.03-.352-.137-.374-.177-.383-.08-1.353.106-.397.097-.157.278-.098.058-.823-.282-.2.008-.716.49-.158.238-1.098.137-.438-.406-.77-.053-.116-.132-.194-.416-.17-1.083-.283-.33-.03-.19-.732-.845-.51-.24-.827-.12-.45.18-.429.439-.886 1.34-.3.284-1.072.544-.528.469-.268.596-1.644 1.027-.756.968-.071.18-.52.305-.183-.021-.073-.12-.14 2.581-.207 3.312-.235 2.051-.536 6.263-.267 3.902-.013.057-.094 1.898-.887 12.386-8.055.326-.108.009-12.761.42-.093.006-12.479.344-.384.06-11.46.327-.402.002-5.012.179-3.608.126-.119.006-.144-.001h-.761l-.359-.012-.394.038-.872-.017-2.933.112-.367.003-8.722.203-.572.021-1.252.035-2.387.08-.323.01-7.289.278-.014-.003-15.138.436-.599.023-3.427.112-.145.003-.302.02-.145.016-.95.018-.582.012-2.17.082-1.13.035-1.207.037-.19.003-1.895.08-.78.038-.445.008-.313.02-6.224.246-2.353.092-9.145.15h-.827l-14.665-.014-24.531-.202-.483.001-3.939.005-50.044-.142-.837-.006-8.775-.072-4.108.074-3.79.047-6.788-.015-3.063-.05-1.717-.012-1.985-.033-1.24-.012-4.605-.09-2.058-.017-1.257-.036-.392-.002-.265-.01-.1-.001-11.858-.059h-.002l-4.14-.01-1.75-.015h-.008l-1.13-.023-.371-.012-1.382-.016-11.738-.449-.349-.024-.265-.011-.202.01-2.862-.114-1.249-.02-22.314-.822-.662-.027-.824-.036-.725-.033-4.412-.193-3.261-.124-5.597-.197-1.121-.041-2.436-.084-1.144-.055-2.917-.094-.463-.01-.79-.03-19.85-.519-2.108-.058-4.371-.07-.814-.02-2.842-.11-.414-.028-.2.001-.8-.038-5.52-.218-.975-.034-.668-.038-8.75-.32-.171.007-.013.004-2.135-.06-.572-.007-.026.005-11.952-.384-1.69-.056-22.67-.976.096.36.097 1.047.075.295-6.01-.185-.479-.004-11.782-.418-1.898-.07-9.977-.42-.009.003-35.397-1.295-4.072-.16-3.127-.126-4.011-.283-4.28-.05-10.265-.481-1.051-.05-12.566-.512-.015.003-1.979-.045-4.627-.303-2.136-.14-15.108-.688-9.19-.436-5.798-.343-.761-.095-1.941-.16-14.858-.907-8.935-.507-1.95-.112-1.991-.077-3.976-.155-5.95-.345-3.89-.247-1.12-.082-46.385-3.21-.031-1.178z"/></svg>