<svg height="1000" width="1000"><path class="americon" d="M26.322 399.133l.108-4.868 1.127-2.357 17.208 1.987 12.59 1.41 14.466 1.612 17.665 1.901 42.605 4.48 16.854 1.601 5.046.467 14.612 1.317 44.317 3.723 3.175.244 18.442 1.376 28.416 1.965 18.797 1.196.455-7.317.304-4.897 1.955-31.817.339-5.54 1.352-21.977.67-9.207 1.584-21.79 1.125-14.14 1.208-15.207 1.667-21.17 1.564-21.187.167-2.782.946-15.767.05-.842.332-5.544 1.277-19.908.665-10.558 1.044-17.09.961-15.734.2-3.168 2.271-36.16.596-9.593 1.608-25.911 2.135-36.417 2.592.16 55.162 2.935 8.549.408 13.52.609 13.32.532 35.417 1.2 8.615.216 4.602.108 19.174.463 3.056.06 15.465.266 20.21.279.222.002-.411 36.393-.162 14.354-.244 21.544-.184 16.216-.224 19.786-.143 12.594-.267 23.523-.175 15.42.188-.05 4.684-1.243 5.914 5.851 1.621 1.6 3.617 4.398 4.662 4.541 6.615.566 1.08-2.738 7.505.926.277.034 3.465 1.339 1.756-5.12 3.053.42 5.148 4.197 3.694 5.089.689.948 1.533 8.292 3.992.403 5.012.657 3.845-.643 3.486.323.834.078 4.708 3.57 4.512.345 4.815 2.033 3.25-.211 2.868-2.637 2.608.657 2.296.578 3.43 4.457 3.702 2.51 3.537-1.523.625-.27 1.05-3.63 2.337-2.423 3.134.841 6.471 1.49 3.893 1.018 2.07-2.292 1.02-1.13 1.74 4.153.107 4.638 1.2 3.831 5.346.428 4.025.322-.3 5.571.184 2.763.072 1.068 5.978 2.288 4.255-2.675 2.928-3.831 5.949-5.676 4.386 1.823 1.002 3.81 2.471 1.855.21.158 4.921-1.805.171.254 2.37 3.516.624 3.92 4.953.208 3.669-3.933 4.894-3.103 2.732-1.257 2.93 5.492-2.597 3.222 4.16 7.2 4.012-1.243.106-3.263.525-3.25 1.446-3.645 4.77-2.75-.32-2.655 2.437-2.273.53-.057.71-.075 2.006-.215.702 3.669 3.412 4.52 3.828-1.966 1.305 2.195 4.495.676 1.94-3.844 1.393-3.403 4.636 2.608.325.182-.011 4.158 1.429.924 3.405-.072 1.666 3.658 4.54-.762 2.42 2.71 1.777 2.487 1.233 1.725 3.705-3.593 1.947-3.001 3.437 1.644 3.66-4.58 1.348-2.693 6.032-1.117 8.75-3.28 3.361.753 2.965.12 1.69.068 2.075-1.287 3.492-2.169 4.62-1.098 4.476-2.053 3.23-.182 2.397 3.324 5.476 1.048 6.578-.331 2.863-.693 1.846-.447 1.774-4.462 1.701-2.808 4.997 1.625.457.148 3.94 2.366 3.59 3.284 4.549.541 3.158 3.271 2.785 2.664 4.423 2.765 5.175-1.102 2.54 2.09 1.267 1.04 6.057 2.378 4.024-.016 3.36 3.766 2.883-1.57 5.04 4.685 2.232.803 2.415.565 1.022-.975 2.426.019 4.42-1.392 1.797.362 1.947-1.974 2.903.97 4.923.041 2.15 1.538.03.021.863 9.634.753 8.789.437 4.946.817 9.269 1.004 11.8.999 11.565.605 7.008.758 8.76.935 10.81 1.275 14.455.214 2.416 1.228 14.107.426 4.892 1.128 12.272.982.996 4.117 4.17 5.116 2.38 2.615 3.926 2.08 3.119 4.396 8.532-.365 6.702-1.025 3.191 3.862 4.675 4.64 1.56-1.424 3.155 4.066 3.067 2.553 4.32.058 6.331 4.792 3.117 1.452 6.444.133-.02 3.477-.519 1.257-.188.085 4.856 1.288 6.496-.253 3.73-.416 3.59 1.727 3.492-1.343 4.171-.23.714-.24 5.734-3.022 5.833-.424 5.077-3.614 5.052.319 2.778-2.92 4.385 1.71 3.154 1.158 6.483-2.425 2.614-.46.495-.576 5.843 4.36 4.293-.034 2.728-.02 1.619 1.12 4.331.59 5.238.356 5.022-.16.198-2.337 2.867-4.431 6.213-1.206 5.325-1.46 2.063-1.342 1.894-3.857 4.57 3.187 3.293 2.357 3.05 2.15 2.707-1.654 1.16-7.55.402-6.998 1.579-7.608 3.663-13.898 7.642-1.207.66-9.41 5.136-6.813 3.798-5.434 3.653-4.158 5.681.892 3.212-5.782 4.984-15.993 12.603-6.286 6.768-.715.768-4.762 4.189-7.51 8.28-6.099 6.321-4.316.922-4.95 3.314-6.009 4.012-7.013 4.727-9.459 6.61-14.03 7.514-14.457 8.312-9.978 7.396-3.679 3.146-.877.75-3.77 5.81-14.208 8.988-6.546 5.405-5.408 4.987-4.454 4.643-2.561 2.664-8.645 11.121-2.896 6.436-.084.185-3.412 4.412-3.683 6.24-5.23 10.808-.745 1.777-2.485 5.917-2.784 7.479-2.822 9.777-.726 3.556-.789 3.852-1.088 15.544 1.442 15.462 4.047 16.238 3.11 8.94 2.99 8.572 2.398 8.109 2.772 9.351 3.785 19.866.767 5.807.665 4.153-.818 2.016-4.099-.919-5.585 2.484-4.901 1.273-2.17 1.93.576 3-.948 2.617-4.025.107-2.706-3.417-3.406.041-3.833-3.477-3.245-1.505-5.135-6.027-4.318-1.392-5-.644-2.99-1.994-5.402-.092-.718-.012-5.897.002-5.375-.26-2.233 2.075-4.208-1.516-4.7.395-3.835.043-.641-.22-3.556-1.223-4.42-3.236-.425-.26-6.38-3.916-4.545-3.63-4.917-1.332-5.863-1.753-1.383-.674-1.628-.794-3.256 1.475-3.612-2.616-6.554-5.39-2.232-3.815-6.691 1.112-5.416-3.228-5.932-1.58-3.972 1.408-2.319-2.652 1.522-4.535-1.078-2.082-5.314-4.405-.436-1.767-1.905-7.736-.678-6.088-2.674-5.652-2.083-4.889-4.785-3.251-2.554-4.373-2.071-4.756-4.71-3.885.4-7.173.969-4.639-1.19-5.695-1.22-3.45-.194-.55-1.932-2.353-3.28-.996 3.345-9.402-.584-3.462-.175-4.331-2.416.133-.115-7.185-2.075-3.023-5.287-1.807-6.251-1.842-4.174-5.511-3.348-2.205-3.333-3.295-2.543-4.04-2.023-4.505-.979-3.769-1.097-4.389-4.076-2.07-3.314-7.284-3.566-4.594-7.594-4.898-1.765-1.568-5.346-4.759-1.468-4.483-2.444-5.392-1.186-5.72-2.327-4.424-1.521-3.402-.55-5.25-3.877-3.672-3.888-4.027-.39-4.795-1.932-4.104-.138-3.723-3.08-2.708-3.717-5.975-1.405-4.682-.86-6.504-.734-4.547-.23-1.421-3.953-2.647-3.349-3.507-1.62-5.192-.458-.455-3.461-3.443-2.809-3.239-8.098-5.048-4.638-8.402-5.8-1.466-4.038-4.18-4.687-.155-3.65-5.113.046-5.44-4.433-2.171-2.29-6.49-3.9-2.007-3.716-.56-4.279-2.762-7.073 2.28-4.465-.393-3.515-1.112-3.545-1.125-4.93-.543-6.752-1.448-4.196.231-3.938 1.167-3.129-.619-3.335-2.503-4.832-2.313-5.38-3.219-1.317.408-2.376.734-1.656 3.542-1.995 4.643-5.635-1.527-3.275-.217-3.007 2.258-4.653.107-4.869.587-1.522 5.265-3.645 4.523-3.267 5.487-2.517 2.82-2.075 6.655.254 3.899-3.813 3.9-1.785 5.544 1.251 4.033-3.782 4.206-6.057 2.196-3.347 4.862-3.18 1.309-2.147 4.995-2.253 3.76-7.628-1.317-4.112.548-5.924-3.609-7.394-4.688-4.327-5.028-4.95-2.904-5.007-2.164-4.753-2.14-4.433-6.082-.355-.178-4.61-2.319-8.84-1.916-5.824-3.497-6.275-5.062-2.528-3.945-3.207-5.028-5.68-4.234-4.546-2.01-5.639-5.748-6.01-6.81-1.225-8.298-3.42-6.717-3.46-6.086-.371-6.86-1.113-3.067 1.527-7.051.013-9.026-2.418-4.34-1.243-3.714-4.087-6.357-2.441-1.946-.223-5.906-.828-6.67-2.05-6.195-3.429-.79-.488-1.643-1.15-3.877-4.37-1.598-2.368-3.034-4.217-3.69-3.911-4.212-6.906-2.009-5.493-3.65-.082-3.1-5.979-5.28-4.645-4.513-1.21-4.004-2.915-5.726-5.628-3.841-4.351-3.084-1.21-3.161-4.636-7.91-4.72-3.096-.69-4.018-2.853-2.294-.57-.458-5.38-1.137-6.33-5.647-3.852-5.328-2.692-4.477-1.063-5.113-2.869-6.022-1.023-2.15-3.016-3.883-3.485-1.061-1.335.849-2.767-3.35-3.488-3.045L25 402.6z"/></svg>