<svg height="1000" width="1000"><path class="americon" d="M118.745 851.04l1.273-27.074 1.422-25.911 2.144-51.084.002-.031.788-19.314 1.259-29.464 1.36-32.05v-.01l.952-19.841 1.829-38.214.866-24.047 4.258-93.465.326-8.073 1.915-47.366.964-21.05 1.647-36.023.152-3.573 2.25-52.74.853-18.24 2.103-43.062 2.332-51.018v-.006l1.717-38.678 2.373-52.736 2.073-48.576L155.2 25l30.7 2.17 44.193.668 34.011.481 34.138.499 48.497.598 52.658.6 14.534.566 6.823.256h.003l49.318-.095 33.397-.09h.005l5.008-.026 13.368-.271 45.01-.488.977 78.136.033 2.65.305 38.06.218 20.287.507 47.254 71.342-.803 58.836-1.532 10.29-.325 6.72-.219 40.127-1.426 65.32-3.049 28.21-1.19 1.734 32.527 1.442 30.51.08 1.68 3.388 80.651.33 7.84 2.721 57.428 1.842 40.365 1.401 30.673 1.13 24.735 2.081 45.478 4.3 118.86 1.983 42.76 3.735 21.007.1 2.225 2.33 51.976 3.408 75.968 4.204 93.502-69.365 3-77.9 2.922h-.001l-72.41 1.869-43.284-.177-48.713.825-32.67.665-19.684-.08-1.066.006-145.775-.479-27.904-.337-1.006-.014-43.87-.738-10.75-.215-10.377-.22-154.092-4.957-13.049-.622.553-16.989 1.587-37.77 1.6-39.899z"/></svg>