<svg height="1000" width="1000"><path class="americon" d="M922.407 349.476l13.962-6.826 4.789 7.461-8.277 12.909-3.995 12.256-8.864-11.307zM368.187 30.978l5.157-2.339L385.905 25l12.434 3.753 2.2 4.04 4.53 11.502-1.789 5.254-3.544 4.103-12.334 1.654-5.795-10.168-4.475-6.042-7.763-3.6zM59.076 304.652l3.232-14.534 4.327-2.723 2.201-1.387 7.7-10.648 2.927-9.228 6.01-9.719 9.742-7.918 11.05-3.974 5.232-4.685 10.474-.101 3.586-5.89 8.31-3.2 5.821 1.051 2.259-7.43 6.514-4.31.75-17.08.782-17.844 1.621-35.594.733-16.09 1.471-34.394 12.211.196 3.402-6.126 5.882-7.23 6.074-.348 6.76 5.168 4.962 1.016 7.33 5.18 10.594-1.2 9.414.326 24.824-8.355 10.14-4.369 3.223.095 5.654.164 14.113-6.223 7.199-1.56 6.593-5.72 8.194-1.868 6.452-5.99 6.071 4.655 5.31-5.062 6.077-1.816 7.49-4.685 7.065-4.488-.455-11.613 9.179-3.854 9.822 8.213 6.432 4.975 8.4 9.232-7.722 14.462-8.896 11.656-2.866 5.22 3.825 8.344-8.928 8.304-2.606 8.396-3.336 5.033 4.274 1.104 3.784.975 9.88-6.623 4.857-1.75 5.628-4.301 2.668-9.4 10.293 9.767 13.638 12.564 2.4-.252 6.028-.634 9.593 5.86 2.755-.924 4.316 6.695 7.847-3.977 6.485 7.111 10 3.931 7.96 16.363 5.31 17.218 27.197 7.618 41.416 11.395 78.224 20.798 14.497 8.4 8.452 4.879 17.507 10.058 10.278-1.405 8.191 2.458.592.178 3.184 4.928 6.399-.436 2.623-5.125 9.591-1.425 16.972 8.016 4.182-2.593 10.331 6.354 9.042-1.03 9.902 2.954 8.944 4.717.221.116 6.28 9.414-8.404 11.432 4.416 4.574 7.087 2.619 1.241.458 7.485-2.936 4.404 6.335 12.634 1.42 7.003 6.365 4.194 3.806 3.722 5.982-6.136 4.537 7.163 8.827-1.105 7.15-2.03 10.493.2 10.678-5.812 6.239-.95 10.634-.644 8.345 9.175-.486 7.203-.59 6.18-6.235 7.326 2.818-1.002 10.922-5.803 15.024-4.015 10.18 7.245 9.372 7.258 8.875 8.6 1.934-4.756 10.638-.05 14.223-9.713.965-9.631 2.794-7.336 2.118-4.236 6.348 1.164 10.451-2.275 3.47-7.035 8.417-4.967 13.257-5.944 7.712-1.758 8.943-.565 2.867.92 11.401-6.034 7.89 5.561 6.771 9.259 1.646 6.325-9.532 4.476-7.342 13.359-6.98 1.931-3.09 1.798-2.879 1.52-2.128 2.496-3.494-.438-6.517 10.373-15.924 9.112-11.465 7.368-1.509 2.224-2.636 9.964-3.905 7.34-10.413 7.577-16.854 9.805-14.61 3.003-18.026 9.176-1.675 7.415-8.029 1.36-9.89 7.057-7.826 5.844-1.65 5.82 1.46.585 13.137-9.096 8.899.355 10.79-1.925 11.693-10.445 14.457-6.502 13.776-1.97 13.058-9.728 11.495-5.703 13.188-7.388 20.368-3.431 9.424-6.286 9.686-6.47 26.567-5.397 28.13-.25 1.294 4.122 12.686 2.621 10.185-4.392 10.922-8.894 6.274-7.71 10.79-5.55 24.594-3.829 15.66-.963 3.928 2.014 13.227 4.35 8.887-.808 9.394.688 9.103-11.763 25.045.038 4.225.094 10.594-6.685 15.492-6.456 24.134-.176 23.385-.004 1.052-.056 14.02 5.19 12.82-3.554 10.437 8.825 14.852 1.954 18.465 1.232 1.624 1.023 1.35 8.973 11.816-2.128 17.954-2.36 7.008-1.765 5.238.779 13.754 2.763 18.473-15.252.413-47.353 1.104-2.725.055-13.767.513-31.713 1.096-31.441 1.09-10.847.137-25.72.268-8.187.068-7.9.059-50.676-.056-5.59-.025-14.406-.082-54.037-.393-13.947-.158h-.082l-46.468-.493-31.877-.074-1.669-.007-32.287-.615-4.503-14.549-4.265-10.655-6.64-4.154-16.944-4.35-6.913-2.132-6.931-2.144-11.671-7.805-8.104-12.038-3.988-18.953-5.911-8.472-2.39-15.316-.498-2.49-2.179-10.903.157-8.795.205-11.512 6.52-8.267 7.409-9.888 4.685-6.688-7.33-12.76-7.212-4.628-7.886-8.376 1.36-6.17-1.647-3.502-3.158-6.722 2.47-10.407-1.998-13.603-2.895-7.553-2.768-14.025 2.766-12.364 2.216-9.921-6.262-15.717-.478-1.204-9.722-13.797-9.632-14.34-2.465-3.678-17.775-5.265-2.105-.627-11.01-8.141-10.298-13.908-14.52-7.9-5.351-7.1-5.485-7.294-2.876-18.328-6.759-9.461-17.732-9.564-3.889-2.105-17.845-7.31-1.846-1.92-6.527-6.806-2.965-11.116-.414-.282-6.453-4.39-5.62-.114-22.107-5.073-9.857-7.822-10.848-16.531-4.935-5.571-8.515-9.636-1.81-2.05 6.344-17.62.291-1.475.019-.095 3.234-16.429-.774-16.895-5.559-9.227 9.657-9.495-.377-2.152-2.626-15 .28-3.086 1.41-15.501 2.1-2.205 7.605-7.992 6.503-12.072 2.127-8.586-5.462-7.395-5.427-11.343-3.85-6.798-6.4-1.439-11.412-2.786-.262-13.61z"/></svg>