<svg height="1000" width="1000"><path class="americon" d="M25.377 677.202l.786-.36 2.657.25 1.167.407 1.174-.261.431-.31 1.53-3.959 1.048-2.354.123-.937.227-4.077-.362-.4-1.036-.584-.602-.648-.251-.784-.353-1.952.064-.38 1.09-2.426.363-.318.138.005.077.003 1.794.524 1.743.02.409-.174.45-.538.746-1.523.781-2.23.105-2.7-.39-.709-.366-1.067-.11-.796.008-1.693-.569-.955-.034-.337.343-.889.65-1.226 1.122-1.586.195-.397.036-.54-.133-.757-.747-2.385-1.593-1.497-.466-1.145-.331-.427-.538-.366-.766-.323-.266-.522.072-3.228.19-1.725.192-.614.566-1.103.212-.798-.317-1.528-.08-.385.003-.002-.708-1.522-.077-.409.122-.692.297-.484.6-1.516-.321-2.152.01-.733.203-1.187.544-1.008 1.001 1.608 1.565 1.387.533.357 1.5.677 1.678.536 2.106.355 1.874-.052 2.081-.307 4.312-1.248 4.17-1.678 5.291-1.468 2.472-.492 2.497-.69 5.814-2.12 2.907 1.333 1.555-.058 4.24-.817 3.814-.468 2.032-.822 1.269-1.147 1.21-2.105.888-2.511.337-1.987.417-1.742.89-1.843.455-1.383.283-2-.076-3.307.254-1.36.55-1.524.515-.954.446-1.279.627-5.398-.026-3.082.098-.668.453-.88.835-.871 2.57-2.68.556-.407 1.843-.642 1.867-.095 1.258.111 4.567 1.894.623-.057 2.676.066 2.21-.28.995-.441 1.349-1.056.942-1.066.439-1.156.675-2.663.045-1.662-.091-.922-.286-.876-.42-2.395-.403-1.526-1.186-2.689-.047-1.788-.27-1.472-.566-1.927.183-1.732 1.068-2.899.47-1.55.1-.816-.358-1.771-.342-1.647-.25-2.885-.247-.826-.67-.96-.375-2.804-.596-1.327-.495-.67-1.058-.916-1.8-1.143-.703-1.356-.164-1.51.042-1.829.89-2.08.557-.731 1.032-.958 1.974-1.436 1.61-1.554 2.272-.493 2.655-1.181.85-.521 2.765-2.986.564-.852.7-2.686.551-3.362-.112-1.322-.375-1.68-.555-1.6.19-2.026.312-1.577 1.668-1.813 1.166-1.059 1.594-2.706 1.865-2.8.23-.662-.025-1.263.38-1.278 1.702-2.456.342-.645.812-1.528.368-1.575.326-.685.494-.531 1.899-1.214 2.043-.888 1.974-1.237 1.412-1.028.479-.706.713-1.59.876-3.468.567-1.173.555-.68 1.69-.675 1.873-.374 2.014.173.912.443 1.37 1.37.667 1.03.788 1.603.596 1.623.171.87.103 1.557.16.337.337.294.365.136.687.083 1.177-.107 1.341-.294.308-.229 1.507-.164 1.833.72.945.736.684.697 1.216 2.541 1.544 2.737 1.04 3.057 1.074 2.273 1.113 1.904.364 2.006-.309 1.033-.19.26-1.47 1.684-.702.44-1.15 1.201-.27.487-1.5 1.774-.357 1.464.057.466.188.473 2.091 1.864 1.049 1.257.317.214 1.926 1.004 1.095.201.697-.086 2.81-1.645 3.12-2.165.582-.618 1.457-2.116.69-2.135-.13-.772.389-3.843 1.28-2.05 1.296-1.597.813-.528.452-.164 1.028-.08 1.046.231 1.538 1.037 1.83 2.418.566.58 1.467 1.023.84.362 1.366.483.836.075.681-.04.693-.277.522-.412.297-.517.485-1.378-.144-.896-2.393-2.91-.804-.743-.919-1.07-.348-.77-.179-1.48.413-1.931.838-1.954-.134-.327-.034-.767.25-1.224.305-.878.417-.774.936-.79.404-.602.193-.986.043-2.152-.553-1.174-1.045-1.555-2.58-2.626-1.276-.96-1.33-1.172-.563-.68-1.036-1.876-.496-1.099-.294-1.564-.114-1.882.088-1.433.302-.686.333-.29.54-.161.921.044.935.266 1.404.796.992.317.784.14 1.134-.051 2.071-.849.798-.503 1.64-1.401 1.005-1.34.359-.66.328-1.057.193-1.035.203-2.517-.414-2.49-.031-1.01.098-1.958.2-.764-.171-1.605-1.732-5.733-.354-1.44.1-.801.014-.112.592-.902.565-.437 1.607-.735.872-1.03.257-.597.515-2.361.681-1.473.585-.775.27-.184.236-.162 2.45-.624 2.057-.36 1.222-.783.433-.568.209-.368.062-.54-.19-1.474-.641-1.683-.16-.81-.054-.648.155-2.044.854-1.513.506-.685 1.141-1.188 1.025-.676 1.566-.516 2.69-.294 2.475.084 4.164.951 1.423-.393 1.051-.156.964.143 1.556.556 1.241.91.574.267 2.921.314.567-.732.423-1.35.111-4.367 1.034-5.907.148-3.18.433-1.967 2.956-3.43 1.524-1.299 1.95-.801 2.084-1.31 1.988-1.496 2.738-2.63 1.191-1.362 1.89-2.56 1.05-.873 2.23-1.323 1.833-.245 2.07.498 1.322.784 1.519 1.253 1.48 1.441 1.124 1.626.709 2.766.36 1.902.881 3.384.385.954.476.72 1.26 1.34.926.35.707.105.896-.078 2.743-.24 1.79-.616.951-.549 1.355-1.155 1.814-1.307 1.263-.75 2.85-2.247 1.4-.93 3.085-1.168 1.104-1.104.952-.514 2.085-.17 2.048-.79 1.382-.054 3.469 1.077.421-.023.777-.342.818-.747.275-.57.16-1.018-.095-1.214.118-.376.505-.879.582-.891.928-1.104 1.867-2.018.926-1.758.7-.684.455-.387 1.78-.982 1.36-.483 2.095-.47 2.742-.123.707-.314.365-.292.768-.758.732-.98.63-1.074 1.224-2.088h.134l2.63-5.127 1.808-2.4 2.968-3.1 1.03-1.552 1.954-1.649 1.608-1.605.39-.633.968-1.078 1.183-.915 1.63-1.26.673-.816.53-.924.736-.757 2.176-1.805 2.26-1.541.594-.522 1.141-1.472 1.73-1.529 1.572-1.618 5.08-4.105 1.312-1.394.688-.536 1.416-.629 1.56-.313 2.156.078 1.843.42.817.005 2.25-.962.834-1.566.957-2.92.107-.688-.056-.276.188-.986.604-1.405.214-2.493-.191-3.872.07-1.151.102-.816.404-1.287.377-.466 1.351-.94.493-.266 1.378-.211 1.063-.388.992-.602.383-.53.404-1.519.01-.541-.341-1.338-.36-.33-.208-.19-.383-.578-1.782-3.421-1.253-.799-.373-.383-1.997-2.63-.423-.951-.434-1.585.162-.69.527-1.318.624-.848 5.254-3.787 1.75-1.934.212-.615.535-2.607-.045-3.26-.101-.617-.596-2.046-.134-1.439.16-.633.352-.717.567-.691.917-.746 3.122-1.434 1.28-1.185.45-.866.117-1.22-.715-2.59-.407-.675-1.16-1.496-.719-1.401-.529-1.456-.124-.707.079-1.033.317-1.134.303-.538.496-.399.54-.163.906-.06 2.42.628 1.92 1.443.821.41 1.07.184h.364l.256-.136.188-.236.354-.86.095-.643-.157-.99-.848-2.092-.591-4.298.008-.896.21-.8.915-1.404.64-.567 1.67-1.143.585-.706.573-.41.272-3.514-.246-2.164-.194-.719-.176-2.155.029-.561.265-1.79.51-1.357.089-.541-.007-1.134.206-.573.564-.819.007-.02.333-1.01.117-2.255.001-.613-.408-2.355-.225-.222-.523-1.3-.26-1.595-.016-1.03.34-1.078 1.147-1.566 3.324-2.544.526-.661.207-.466.264-.956.19-1.347-.056-.589-.205-.977-.132-.204-.324-1.76.1-3.196.513-1.638.25-1.615.263-.792.315-.596 3.15-5.962.456-.638.317-.313.037-.018.414-.196 1.312-1.469.843-1.787.338-1.617.376-3.158.518-2.603 1.767-3.714 1.402-1.542 1.383-.93.019.196 2.728-1.836.598-.832.579-1.738-.113-3.182.355-1.64 1.549-2.913.69-.783.559-2.594-.113-.856-.448-1.64-1.474-3.18-.374-1.663.186-1.835.578-1.663.204-1.86-.391-1.32-.876-.93-.895-.733-2.15-.766-.16-.139-.372-1.222.26-.783.466-.327.299-.21 2.402-.98.559-.684.074-.293-.168-.93.074-2.665-.13-2.64.13-1.345.204-.709 1.171-2.175.093-.758 1.134-2.103.409-1.222.24-1.955-.13-.953-.689-1.784-.605-.405-1.229-1.29-1.662-3.064-.536-2.494-.243-2.013-.987-3.737-.552-.52-.487-.191-1.535-2.373-2.05-3.45-.534-.646-1.37-1.22-.78-.852-.16-1.082-.032-1.075.384-1.277.618-.945 1.368-1.206.225.016.419-.309 1.252-1.44 1.036-1.863.93-1.175 1.332-.938 2.07-.43 2.246-.822.947-.049.87.39.374.285 1.56 1.702.7.296.579.019.889-.302.758-.512 1.318-1.497 1.776-1.263.969-.21 1.176-.593 1.258-.848.49-.163.821.044.693-.227.54-.442.002 5.47-.009.001.012 6.402.006-.003.032 17.646.03 9.91.002.903.247 2.737-.027 15.358v.19l.014 7.557-.184 6.328.074 41.455v.007l-.004 3.203.064 19.995-.008.267.006 14.86.008 13.011-.002.235v.055l.004.689.007.674.019 4.285-.024.545.088 11.295-.062 20.827.054 20.84 18.528.003 21.17-.115.153-.005 44.014-.351 6.477-.04 23.743-.182 11.923-.111h.043l16.857-.258 28.961-.594.455.015 11.302-.116 13.577-.34.399 18.905-.069.302-.147.176.34 27.225-.664.013.037 1.726-.04.818.55 43.644-.324.007.096 11.827-.079 4.058.184.437-.039 3.197.21.053.06.015.1 14.555.003.001 2.082.509 1.299-.909 3.129-1.156 2.431-1.373 2.891-2.802-.152-1.359.873-1.3 1.578-.446 4.65-6.272 2.036-1.925 2.82-.5 1.432-.8 1.856-2.031.028-.26-.392-.63.219-.943 2.248-1.627 3.337-1.178 2.406 1.135 1.838.16.469-.157 1.183-2.574.243-3.315 1.827-1.504.546-.45 2.651-1.332.262-.339-.107-4.158.3-.644 3.114-.575 1.234-1.257 1.697.082 1.206-.563 2.023-3.148.903-2.06.446-.42.42-.056.746.345 1.918-.503.425-.946.45-.165.786.16.616-.32.285-.964-.196-.92.913-2.739.397-.288.381-.01.698.23.401.79.388.238.405-.01.381-.01.305-.194.201-.499.12-.928.222-.592.756-.267.853-.177.442-.412.145-.837-.11-.825.049-.718.93-.927.474.09.402-.103.277-.316.182-.344.053-.561.023-.598.419-.712 1.152-.629.69-.662 1.577-3.54-.158-.734-.416-.705-.167-.442.027-.292.15-.16.29-.187.341-.121.647.191 1.54.212 2.762-.849 2.314.8.29-.522.162-1.73.257-.554.359-.252.804-.146 1.828 1.676.27.843-.004.496.373.87.69.561.417.073 1.435-.519.646-.012 1.382 1.422 2.543 1.428 3.493 1.449 1.695 1.27.53.853.386.321 1.649-.494.227-.503.253-5.276 1.262-.652.853-.967.56-1.038-.065-.285-.461-.382-.228-.67.052-.34.653-.696.959-.631 1.251-.24 1.692.23.31-.178 1.4-2.545 2.433-3.866.73-1.701.96-.937 1.322.299.432-.025.382-.347 1.03-2.189.003-.276 3.074-4.866.157-.546-.08-1.446 2.342-1.89 1.581.429.76.657.965.456.871-.293.57-1.503-.332-.884-.985-1.185-1.195-.22-.023-2.83.22-.353 1.116-.069 1.21-1.848-.011-.695.473-1.867 1.441.261.27.38.494.067.36-.513.063-.932-.14-.856-1.2-3.232 1.02-2.445.94-.276 2.914-1.917 1.757-.746.171.585-.04.518-.492 1.173-.561.24-.272.378-1.006 3.106.014.432.19.225 1.524.512 1.216.091 1.196-1.042 1.524-.86 1.074.253 1.295.789.55 1.502-.026.395-.967 1.075-1.486 1.036-.416-.194-.041-.5-.421-.325-1.703.047-1.433.362-1.62 1.205-.22.482-.002.18.764.97.415.19.319.36.412.827.05.538.17.464 1.427 1.267.666.338 1.967.218.58-.307.541-1.236.326-.174.855-.102.181.715.288 2.041 1.135 1.878.283.88 1.951.284.28.12.93 1.259.304.22 2.388.562.353.303.167.288.122.768.402.448 1.35.428 1.32.811 1.308.006.931.802 1.262.378.276.082 4.751-.76.392-.2.022-.328 1.047-.116 1.632.415 1.474.566.198.185 1.024.178.527-.417.387-.12.331.068.15.18.21.63.295.39.698.51 1.553.27 1.228 1.022.925.575.385.099 1.653-.573.83.003.506.151.67-.097 3.517-1.03 1.232-.08 1.495.498 2.014.884.792-.092 1.772.208.753-.423.312-.04.645.11 1.26.623.572.012.474-.187 1.051-1.038.322-1.281-.054-.816-.194-.896.102-.425.371-.32 1.553-.25.282-.355-.044-.38-.072-.342.076-.309.432-.284.353-.014.655.503.708.582.37-.15.219-.589.044-.576-.027-.687.156-.541.644-.14.683.669.553.048.555-.136.318-.165.103-.387-.263-.678-.663-1.1-.644-.675-2.25-.99-2.35-1.723-.823-.814-.809-1.473.01-1.187.143-.532.49-.408.621-.328.977-.29.533-.005 2.872.983 1.022.603.577.57.27.135 2.04.541 1.33-.451.645-.454.382-.572-.059-.776-.408-.688-1.024-.789-1.972-1.084-1.52-1.14-.977-1.05-1.192-1.65-.3-.49-.133-.423.04-.57.55-.692.812-.341 1.02.09 1.484.664 3.274 1.107.996.936 1.391.734 1.033.14.648-.138.282-.232.163-.417-.04-.27-1.328-1.382-.767-.984-.106-.26-.014-.436.151-.776.364-.296 1.38-.325 1 .337.345.33.72.337.789.084.48-.186.344-.375.067-.295-.058-.46-.385-.643-.62-.5-.171-.606.22-.397.567-.249.628-.003 3.452.846.373.092 3.63 1.097.937.305 4.848 2.051 2.266.11.82.17.326-.127.3-.604-.043-1.166.178-1.004 1.437-2.43 1.344-1.206 1.564-1.869 1.916-1.241.47-.533.257-.557-.066-.369-1.813-1.86-.048-.59.282-.382.782-.461 3.892-.133.715-.194.34-.313.784-1.07.732-1.765.24-.292 1.527-1.258 1.15-.261.999.044 1.767.408 1.538.7 2.022-.06 1.584.45.49.305 1.671.253 2.323.65.76.08 1.174.403.897.483 1.448 1.534.24.102 1.198-.043.921.522.578.514 1.255 1.329 3.238 3.018.407.686.456.531 1.723 1.15.57.565 1.2 1.98 1.248 1.362.306.502 2.27 3.719.27.28.634.354.844.17 2.067-.023 1.263.132 1.536-.151.5-.35.676-1.022.717-.611.768-.349.844-.018.532 2.015-.044 2.236 1.958 1.498 1.324-.635.422-1.836-.9-2.734-.921-2.665.484-.52.838-.128.894.32.825.89.593 1.515.543.661 1.246.412.082.027 5.355 1.091.637-.177.387-.238.205-.308.123-.7-.062-.825-.179-.459-1.013-1.236-.025-.292.343-.326 1.988.269 1.181.72 2.1.7.835.147 2.015-.132.918.233.88.743.354.433.512 2.453.034.925-.108 1.511-.34 2.521-.533 1.171-1.083.556-2.595.06-1.862.351-1.329-.021-1.08.151-1.421.824-.333.32-.115.287-.032.52.524.962 2.918 1.749 1.242 1.393.197.458.042.41-.066 1.627-.159.87-.016 1.157.102.582.497.624.67.141 1.78-.352 1.637-.837.211-.62-.078-2.031.257-.486.39-.279.645-.145 1.225.475.363.298.342.79.062.447-.31 1.787-.615.639-2.943 2.26-.446.637-.08.314.106.339.4.49 2.658.828 1.223.06.9.043 2.505.779 3.963-1.766.38-.38.525-.274 1.368-.176.655.07.492.296.49.483.13.321-.012.339-.27.43-.374.28-.48.288-1.88.607-1.258.576-1.283.86-.214.338-.186.437-.041.753.315.79.227.283 1.18.787 2.164.919.145.202.011.22-.244.39-.235.14-.915 3.172.123.446-.076.286-.027 2.168.616 1.2 1.743.556 2.185-.256.895.356.795.49.32.33.116.755 1.105 2.226 1.535 2.201.799 2.183.134.739-.055.477-.317.394-.5.224-1.687.391-.465.232-.209.315-.048.612.117.316 1.903 3.158.116 1.276-.307 1.676-.802.972-1.648 1.105-.2.292-.103.412.029.682.316.583.772.809 4.045 1.494.81.535.712.709 1.502.01-.06.403-.308.312-1.567.779-.884.85-2.144 4.409-.496 1.438-.395 1.48-.083.756.086.578v.156l-.372.55-.089.157-.45 1.352-.048.27-.42 1.106-.096.176-.148 1.14-.689.308-.285-.063-.174.315-.24.12-.066.18.029 1.359.06.088.632-.03-.634 3.148-1.177 1.906-.582.621-.418.72-.87 2.229-.866 1.308-.137.953-.618 1.426-.041.27.211 1.308-.026.35-1.13 3.372.075.336-.084.95-.149.453-.552.98-.403.269-.334.644-.883 2.454-.533.736-.222 1.163.006.57.178.662.043.678-1.05 1.946-.029-.022-40.648-30.693-.068-.051-14.948-11.143-6.365-4.975-3.396-2.233-5.779-4.834-3.551-2.59-4.618-3.786-6.713-5.415-4.94-3.356-11.613-8.716-.416.955.85.637-.07 1.479-.188.703-.041.746.262.494-.063.742-.213.51-1 .975 1.064 1.416.265.794-.28.797-.51.967-.98 1.197-.485.85-.073.868.422 1.176 1.69 1.645-.067 1.086 1.335.947-2.044 4.324-1.399 2.21-.771.92.891.335 2.615.646 1.579.245.326.877-.05.319-.355.767-.242-.29-.223.023-.677.844-.036.17.431.401-.14.48-2.217 4.933-.192.43-.294-.054-.588.203-.417 1.785-.808.64-.571.653-2.03 2.611-.243.37.028.489-.275.72-.821 1.412-.998.448-.646 1.036.093.116-.173.324-2.07 2.936-.934 1.626.174.342.477.143.28-.09 1.085.74 1.864 2.01.024.063-.842.69-.115.797-.05 1.69-2.22 3.465-1.11 1.39-.72.878-.347.409-.249.323-.174.26-.894 1.259-.29.435.394.329 1.117.063 1.164.678.128.278-.795 1.252.498 1.082 2.841 2.368.976.414.659.828-1.632 1.896-.242.411-2.501 1.504-1.687 2.794-.154 1.555-.286.822-3.738 4.792-1.297.171-.534.43-.129.287-.547.496-.409.182-.39-.462-.217-.102-1.099.653-2.025 1.654-.14.503-1.54 1.933-.692.71-.727.956-.811.791.117.43-.138.618-1.076 1.65-.709.73-.972.457-1.581 1.515-.71 1.008-.288.409-.385.257-1.199 1.532-.445.89-.597.752-2.199 2.45 1.216 1.365.15.086.338-.11.718.437.462.742 1.358.774-.341.43-.488.328-.831.834-.418.726-1.614 1.904-1.824 2.785-.272.547-.155.744-1.05 1.73-.816 1.68-.514.445-.548.18-.455.763-.032.478-1.337-1.225-.597-1.561-.6.092-.823.467-.28-.797-.02-.977-.116-.32-1.003.041-.73.449-.238.325-.286.655.016.555-1.076 1.999-1.582-.271-1.043 1.884-.458 1.727-.716 1.608-.57.434-.695 1.045-.116.593-.74 1.363-1.81 2.165-.227-.123-1.271.306-.591.66-1.086 1.67-1.333.138-1.543 1.679-.651.972-.19.139-.285-.056-.235-.326-.243-.967.192-2.587-.074-.462-.014-.124-.066-.3.07-.659.41-2.371-.256.445-.74.733-.306.15-.416-.008-2.414.984-2.14 2.86-.728 2.116.043.458-.511.642-.326.673-2.586 1.767-1.222.397-1.274 1.308-.37.524-.353 1.262-.276.624-.863.768-2.16 4.637-.48 1.641-.74 2.012-1.084 2.665-1.102 2.359-.909 1.819-.542.733-2.38 4.172-2.812 5.836-.392 1.194-.62 1.022-24.722-20.857-.785.704-.387.492.3 1.095-.024.22-.618.901-.493 1.65-.205.948.05.395-.072.2-.26.355-.758.492-.924.126-.526.535-.807 2.18-.039 1.365.201.267.105.988-.765 1.634-.378.283-.754.021-2.595-.2-.454.36-1.124 1.271-.117.673.268.588.377.336.162.293.106 1.014-.049.324-.423.086-.357.357-.183 1.096-.061 1.267-.05.299-.633.885-.738.591-1.441 1.751-.02.72-.195.626-.502.733-.57 1.132-.41 1.251-.642 1.283-.318 1.125.163 1.012-1.107 3.43.053.536.061.232.339 1.651.538.581.493.31.248.563-.592 3.168-.59 1.133-.285 1.621-.016.82-2.574.888-1.03-.84-1.689-.08-.385.11-1.421 1.229-.24.453-.437 1.8-.358.495-.012.085-.152.33-.113.437-.088.657-.402.21-.563.71-.735 2.153-.044.046-.798 1.268-.734 2.351-.026.5.25.664-.897 1.339.082 1.662.14.145-.067.4-.873 2.307-.863 1.14-.515 1.131-.14.624.21.591-.051.275-.68.412-.07.056-.34.206-.78 1.41-.568 2.102-.925 1.043-.843 1.263-.644 1.433-.818 2.232-.834.841-.885 4.272.802.95-.16.772.003.076-.327 1.139-.051.322-.003.013-.102.33-.876.93-.738.47-.44.66.114 1.052-.611.718-.28.328-1.142.633-.536.269-1.08.815-.349 1.378.077 1.807-.135.722-.91.24-1.13-.6-.266-.027-1.251 1.987-.33.877-.086.207-.368.504-.386.867-.9.257-.473.27-1.473 1.094-.102.11.023.155.048.46.382.571.07.336.122.321-.072.85-.534.676-.521-.274-.253-.32-.306-.093-.407.06-.244.287-.75.39-.39.43-.443.396-2.358.805-11.389-3.564-20.86-7.012-4.702-9.971-4.395-8.909-2.064-2.17-.262-.468-.046-.371-.702-1.155-.276-.218-.842-.331-2.538-1.691-2.108-.532-1.07-.129-15.132-6.781-1.3 3.826-.388.797-.23.104-.405 1.323.179.27.288.94-.633.482-.487-.091-.768 2.845-.052 1.516.566 1.257-.352 1.025-.793 1.38.277.293.352.143.594.636.763 1.379.188.792-.266.352-.427.082-.365.23-.23.228-.064.26v.022l-.248.791-.711-.659-1.226-.029-.223.6.01.923-.254.796-1.023 1.293-.577-.135-.188.076-.425.564-.568 1.751.13.657.304.77.399.104-.136.673-.268.121-.658.68-.115.296.151 1.016.654.191.897 1.307.45 1.243.108.456.058 1.59-.144.235-.476.817.392.931-.345.74-.041.777.151.605.204.278.051.353-3.24 3.96-.473.92.045.624-.75 1.136-.855.877-.983 3.012-.71.62-.665 1.682-.325 1.74.24.285.551.12.177.214.21 1.167.05.571-.07.15-.208.251-.445.108-.523.422-.482.863-1.163.672-.68.044-2.249-.812-.403-.042-1.324.282-.54.784.177.625-.65 2.257-.597 1.58-1.192.994-1.305.202-2.038 1.871-.299 1.08-.277.504-.862.816-.886 1.132-.272.681.014.416.514.825.698.754.14.481.128 1.146.963-.01.476.448 1.138 2.24.469 1.952-.257 1.148-.229.265-1.162.326-.427.12-.566 1.125-.981.582-1.11-.285-.425.56-.283.78.003.353.174.515-.44.518-.479.325-.27-.007-.844-.538-1.093.215-.4.537-.199.65-.02.512-.183.253-.461.16-1.075-.064-.433.134-.239.272-.736 1.672-1.29.58-1.28 1.793-2.983 3.261-.997.798-.427-.016-.318.152-.685.684-.076.318-.065.245-.103.632-1.057 1.714-1.488 1.027-.95.28-.677-.115-.372.538.039.471-.172.163-.8.848.035.106.869.477-.02.621-.357.71-.048.558.2.506.363-.012.198.082.037.14-.7 3.183-.863.987-.415.107-.05.058-.606 1.33-.01.123-.042 1.164-.913 1.074-1.76.314-.403.69 1.216 4.964.18.212.726.251.92.119.664.502-.25.583-.655.862-.558.564-.062.374-.163.284-.618.456-.793.796-1.302 1.85-.855.696-.166.273-1.089 2.937.064 1.242-1.593 4.007-.588.851-.51 1.084.026.315.325.655-.292.888-.301.623-.285.202-.333.053-.362.375-1.023 2.117-.031.267.19.367-.248.61-.778.242-.943 1.356-.175.517.106.618-.138.58-.625 1.293-.606.774-1.25.497-.644.556-.134.298.07.36-.111.437-2.15 1.857-2.35 2.269-2.37 2.631-.517.162-1.03 1.154-.098.111-1.338.979-.567.204-1.552 1.252-.176.649-1.05 1.035-1.194 1.505-1.866 2.874-1.257-.188-.756 1.06-1.964 2.117-.405.673-.024.399.324.356-.046.715-.563.251-.478-.323-.118.027-1.161.962-.177.236-.108.625-.173.3-1.96 1.738-.83-.452-.236-.369-.325-.236-.952 1.274-1.637 1.689-1.316 2.011-.597 1.247-.004.52-.903 1.516-1.004.334-.242.521-.09.96.836 1.758-.467.355-.909.158-1.62 1.508-.977 1.07-.63.822-.58 1.334-.12.738-.88.85-1.035.702-.14.08-.33-.067-1.656 2.736-.415 1.06-.047.583.302.152 1.571 2.128.292-.035.54.322.055 1.127-.164.26-.079.098-.146-.178-.832-.374-1.122-.141-.584.15-.302.673-1.844 1.558-1.088.291-.864 1.344.179.414.133 1.047-.36.314-.948-.12-.198.073-1.03 4.447.493 1.202 1.646.913-.036.642-.166.342-.994 1.33-1.236.464-1.49 1.825-.592.927-2.378 2.878-1.383.646-.399.52.764 1.95.016.061 2.594 6.658 1.806 2.015-.005.014.579.702.045.024.467.123.009-.004.306.104.002.005 1.751.677.008-.005 3.01 1.152 3.648 2.455-.468 1.15-.517.787-2.805 3.3-1.879 1.227-1.803 1.67-.917.538-1.343.566-2.393 1.435-2.46 1.696-6.657 3.659 3.225 4.513-.409.533-1.344.684-.623.095-.616.262-.554.95 4.178 2.199 3.505-2.307 1.845.737-3.423 6.35-1.99 1.125.1.237-1.086.492-1.155.523-1.284.886-.98.414-2.335.412-4.577 1.845.735 1.22-1.245.859-.496.636-1.262.68-.84.258-3.445 2.034-.582.502-4.538 2.637-3.45 2.96-1.658 1.03-1.183.448-1.492 1.54-2.146.808-3.846-3.031-.486-2.435.849-3.255-3.678-5.992-.4.559-.344.221-1.66.42-.969-.115-.8.063-.214.18-1.26.474-1.006-.041-1.432.286-1.872.952-.965.804-3.892 2.491-.872.843-.227.466-1.757 1.322-3.305 1.69-1.059.87-.109.669-.737-.006-1.196.302-.403.225-.596.466-.035.204.121.273-1.783 1.335-1.534.66-.617.483-1.48.844-.172.001-3.91 2.402-1.422.721-2.693 1.786-2.05.978-1.62.612-1.596.888-1.288.54-1.494.609-.638.014-2.23 1.292-2.035.627-1.302-2.844-.023-.114-1.1-1.229-.215-.41.013-.538-.171-.451-1.221-.275-1.705-.04-.315.016-1.131-.59-.198-.822.157-.695-.479-.541-.57-.312-4.93-4.246-.244-.327-.795-.082-.509.604-.42.039-.861-.673-.499-.213-.764-.04-.27-.282-.022-.033-.215-.319-.001.003-.718 1.23-.405 1.181-.009.736.14.707.336.591-4.116 6.983 6.703 9.324-3.175 1.59-.733.486-2.23 2.419-4.098 3.472-3.752 2.2-1.558.615-.815.199-1.406.644-1.957 1.095-3.734.911-1.467.17-1.248-.334-.234-.183-.166-.643.62-1.141-.094-.427-3.286.665-.914.415-1.578.44-2.697.466-3.056.956-9.37 1.397-2.163.424-3.562 1.01-5.98 2.291-3.32.92-1.62.613-2.236 1.21-5.363 3.706-4.09 2.003-18.807-16.413-8.274-9.741-.837.43-.151.356-.215.52-.259.146.019.317.242.284.08.473-.753.858-.272.98-.374.393-.578.034-.564.145-.79-.201-.156-.061-.174-.317-.182-.1-.283.139-1.241.86-.871 1.439-.04.71.263.367.101.469-.278.381-.806.317-.582.712.251.555-1.122 2.629-.111.308.027.205-.416.922-1.038 1.773-2.264.52-.974-.436-3.094.488-.16.247-1.035.634-.941.12-.342.231.137.41-.03.34-.432.66-2.883 1.155-.758.995-.685.12-1.744-.117-.684-.37-.453-.577-.072-.48.136-.155.003-.178-.22-.035-.884 1.355-.205.616-.152.605-.323.806.013 1.307-.234 1.371-.298.306-2.412 1.382-1.351.254-1.133.586-2.286.63-.157.147-.835 1.604-.893 1.314-.508.251-.156.032-.083-.107-.206-.116-.46.364-23.565.884-.074-.249-.55-.304-.369-.513-.123-1.373.095-.087-.627-.427-1.678-.15-.747-1.178-3.305-2.721-.077-1.397-.644-.883-.688-.694-.622-.02-.408.168-1.034.406-1.044-.055-.144-.147-.927-.947-.05-.415.183-.419-.008-.438.539-1.61-.134-.187-.268-.092-.472-.763.004-.805-.11-.572-.305-.19-.722-.216-.165-.114-.152-.265-.414-.287-.492-.585-.031-.28v-.204l.031-.52-.511-.324-.304-.122-.206.077-.213.04-.272.023-.533.211-1.365-.176-.013-.01-.508-.269-.399-.39.011-.65-.737-.668-1.224-.487-.84.672-.04-.13.112-.337-.09-.329-1.928-.311-.423.065-.382.607-.391.035h-.275l-.543.463-.702.293-.586.101-1.087-.054-1.867-.6.024-.332.204-.36-.2-.225-.86-.252-.714.182-.171-.01-.733.219-.624-.16-.706-.636-.082-.92.133-.854-.167-1.303.1-.119.069-.089-.131-1.458-.313-.05-.728.48-.476-.232-.53-.704-.09-.11-.088-.165.054-.158.355-.523.765-.419-.058-.44-1.401-1.318-.551.03-.48-.675-.101-.442-1.003-.97-.057-.734-.176-.084-.262.227-.838.102-.375-.024-.151-.111-1.035.233-.179.003-.191-.325-.002-.158-.138-.006-.103.012-.643-2.102-.002-.207-.691-.327-.156-.182-.43.06-.085.001-.189-.094-.11-.17-.566-1.255-.122-.03-.09-.128-.943-.023-.695-1.035-.074-.507-.166-.257-.807-.243-.18-.412-.37-.437.382-.988-.63-.51-.055-.036-.703-1.528.235-.366-.202-.9-.393-.2-.16-.55.676-2.115.988-1.139.124-1.055-.479-.914.17-.908.548-.377h.314l.255-.18.226-.94-1.768-1.004-.866-1.2-.664-2.31.56-.753.526-1.061-.048-.505-.63-.533-.464-.016-.338.131-.578-.085-.684-1.39-1.839-.635-1.382.25-.728-.872.116-.291-1.435-1.462-.764-.025-.988.703-.418-.152-1.01-1.54-.619-2.251-.142-1.728.767-1.552.621-.464.83-.18 1.068.084.225.217.314.007 1.397-1.296 1.164-.87 1.534.534.787-.047.119-.125v-.474l-.278-.292-.035-.197.08-.936.194-.37.266-.177.527-.07.64.135.412-.249-.03-1.015.236-.404.382-.21 1.778-.58.878-.019.022-.022.208-.204.076-.29-1.304-1.225-2.094-.612-.658-.692-.108-.295.037-.614.725-.677-.002-.167-.395-.204-1.513.888-.614-.123-.203-.344.07-.842.104-.261-.08-.238-.394-.014-1.648.563-.328-.386.216-.866.596-.831.096-.463-1.007-.896-1.246.24-.903.748-.33.13-.993-.282-.316.073-.722 1.033-.29.171-2.682.92-.356.1-.947-.103-.383-.2-.173-1.065-.376-.515h-.423l-.86.547-.711.131-1.579-1.308-.19-1.055-.182-.257-.763-.129-.399.403-.088.549.051.678-2.014 1.217-.53-.048-.76.205-.41-.062-.213-.172-.06-.541.241-.723-.131-.652-1.686-2.677-.35-.21-1.903.054-.904-.172-2.522-.593-.054-.34-.168-.165-2.675.057-1.434-4.255.023-.35-.25-.31-.29-1.924-.53-1.237-.347-.508-1.89-.46-.981.604-.412.425-1.631-.515-.15-1.003-1.28-2.851-.727-.14-.173-.35-.007-.791-1.448-1.337-.916-.937-.185-.539.226-.702-1.045-.223-.124.157-1.02.304-1.73-.622-.254.096-.192.333-.19.075-1.067.148-.75-.098-.423-.221.175-.328-1.023-1.617-.005-.218.242-.274.502-1.001.01-.344-.514-.416-.833-.43-.25-.62-.08-1.241-.106-.29-2.57-2.17-.273-.089-.627.189-1.686.966-.96.012-2.108-1.479-.794-.367-1.114-1.59-1.696-.082-.357.465-.706-.25-.509-.342-.05-.455.123-.277-.017-1.147-.066-.082-.214-1.984-.022-.224-.297-.18-.713-.779-.252-.736.202-.63.945-.871.156-.643-.272-.444-.556-.515-.93-.171-.3-.25-.637-1.429-.056-1.01-.108-.364-.869-.72-.284-1.555-.045-1.336-.11-.18-.154-.166-1.4-.506-1.192-1.216-.058-.06-.03-.522 1.1-1.267 1.366-.656.11-1.04-1.202-1.737-.414-.053-.331-.193-.507-.582-.01-.23-.349-2.06-.312-.227-.246-.38-.029-.356.159-.533-.224-1.278-.143-.142-1.65-.33-1.026-1.515-.359-.2-.998-.173-.505-.268-.224-.344-.102-.387-.42-.59-.425-.294-.963-.133-.492-.228-.18-1.334-.19-.653-1.07-1.66-.256-.209-.234-.007-2.258-3.003-1.573-1.441-.202-.293-.572-2.056-.19-.143-.828-.107-.606-.306.006-.171-.121-1.799-.08-1.183-.294-.239-.137-.353.045-.33.394-.217.93-1.647-.185-.435-.106-.683.082-1.744-.1-.438-.32-.468-1.465-.705-.596-.425-.66-1.8-.531-.825-1.743-1.08-4.695 1.095-.257.02-.396-.275-2.42-4.249-.132-.29-1.395-2.277-.462-.33-.692-1.246-.004-.39.322-.429.664-1.573.018-.646v-.004l.13-.22.274-.043 1.457.38.54-.171.845-.745 1.201-1.402.683-1.03.036-.216-.194-.19.749-3.056.895-.92.209-.851-.012-.78-.228-.348-.297-.21-.897-.34-2.746-2.308-.325-.667-.398-.147-1.982-.138-1.42-.636-.516.049-.693.37-.529-.082-.26-.327-.08-.321.113-.659-.032-.523-.394-.342-.538-1.124-.58-1.666.06-1.707-.236-.302-.639-.323-.875-.893-.676-1.304-.064-.603.339-.715.056-.623-.749-.834-.493-.938-.15-.537.021-1.062-.455-.658-.4-.505.013-1.376-.31-.565-1.62-.564-1.137-1.986-1.623-.422-1.88-2.2-.254-.906.101-.944-.03-2.234-.393-.482-.775-.283-.35-.252-.82-1.29-.401-.38-.48-.256-.757-.649-1.88.089-.642-.154-.17-.188-.143-.445.076-2.182-.175-.36-.782-.382-1.568-.513-.42-.312-.154-.302-.153-1.114.056-2.159-.067-1.146L25 678.204z"/></svg>