<svg height="1000" width="1000"><path class="americon" d="M67.492 162.654l3.022-23.208.01-.08 31.838 1.658 9.683 2.41 46.834 1.323 40.496 1.212 24.15 1.069 27.546 1.114 57.9 1.303 5.032 1.232 54.203 1.257 14.859.268 31.015.299 30.897.157 10.557.08 68.894.124 56.921.517 76.892-.99h.016l29.338-1.408 21.726-1.124 94.816-3.566 4.712-.211 1.595-.073 118.839-5.975 3.6 53.173 1.342 20.949 3.592 55.976.77 12.157.436 6.868 3.193 50.326 3.354 51.721.65 9.709.3 4.482 2.216 33.065 3.357 50.97 4.259 65.338.207 3.392 1.214 19.81 2.892 44.36 2.682 41.549.163 2.6 1.299 20.71 2.183 33.446.984 15.051.583 8.828 2.023 30.58v.017l1.31 20.602 1.808 29.374 1.3 20.303-60.203 3.58-48.58 3.263-11.961.582-45.286 2.029-.038.001-124.1 4.25-3.672.094-14.083.247-73.304.852-62.187.149-6.75-.016-74.905.206-45.168-.246-108.656-2.308-27.264-.87-63.144-1.749-38.754-1.517-6.487-.274-9.935-.43-56.773-2.785L25 846.037l2.956-45.525 1.268-19.54 2.475-36.649.16-2.551 4.73-75.235 3.925-61.839 2.065-29.018 2.635-37.083 2.683-42.739.615-9.814.578-9.229 2.678-42.879 1.985-32.613 1.995-32.789 2.41-38.656.748-13.149 1.307-22.989 2.8-45.424 1.12-17.286.896-26.325.442-7.196.63-10.28z"/></svg>