<svg height="1000" width="1000"><path class="americon" d="M26.838 536.248l.293-3.548.051-.614.882-10.654.04-.391.015-.025.404-5.377.061-.672.019-.025.064-1.336.727-8.854.001-.013.17-2.028.093-1.443 1.053-13.83.072-.93.16-2.369.022-.288.137-1.622.006-.01.125-1.63.271-3.952.247-3.021.075-1.308.17-2.149.079-.99.583-7.44.391-4.996.811-10.69.509-6.706.305-4.023.234-2.91.09-1.242.655-8.162.02-.416.152-1.948v-.002l.044-.567.008-.105.011-.05.047-.522.032-.428.014-.18.142-1.873.043-.766.567-7.485.001-.01.13-1.67.023-.297.082-.973v-.009l.343-4.057.08-1.237.01-.492.367-4.146.016-.49.822-11.187.035.002.09-1.158.03-.378 2.54-33.508 1.226-15.512.008-.108.002-.025.225-2.677.017-.43.189-2.248 1.048-13.967.044-.644 2.615-34.34 6.33.326 2.53.188 4.21.425 6.592.456 4.565.311.168-.002 10.082.776 6.347.384 3.522.345 4.223.28.065-.004 3.366.23 3.755.254.041.003.096.007h.012l10.26.68 5.894.362.615.037 1.655.107 19.57 1.22.123.008 13.36.829 21.324 1.258 3.39.188 1.648.09 3.06.168 1.906.103 12.065.639 2.014.104.197.01.159.008 6.702.341 4.781.223.47.022 3.107.15 4.782.227.099.005.336.015 27.8 1.238h.007l23.774.932 13.903.875h.008l.026.002 9.014.357 11.377.253 1.413.03.498.014 7.074.183 20.063.473.115.01H335.446l8.767.215 9.992.229 4.37.156 3.709.03h.002l.594.024 5.255.092h.03l1.925.043 2.091-.014 2.055.042 4.071.08 6.112.113 7.838.137 4.048.067.647-.06 7.397.087.933.002.992-.018 6.303.043 6.077.108 5.93.099.6.009 6.738.06.605.018 8.122.083h.002l7.318.024h.05l.73.008 8.69.081.672.003 1.98.012.38.002 4.276.022h.182l1.052.01.053.001 2.33.03.946.01 2.942.002h1.224l.8.002 1.017.02.936-.026.078-.002h.009l2.874.026 1.279-.025.618.016.31.013 1.234-.006 1.784-.014.234-.002 2.599.028 1.673.001.78-.002 1.814-.016.226.016 2.99-.01 1.801-.006 8.51-.039 3.47-.02.136-.002 4.07-.031.356-.006h1.665l.326.014 7.756-.079 2.18.001.322-.009.255-.008 1.343-.017.841-.011 6.063-.043 2.593-.036.845.005h.016l2.03-.04 4-.017h.018l3.46-.089.301.002.748.003 1.238-.037.316.025 3.841-.045 1.693-.021.191-.012 1.995-.02 3.912-.042.04-.019.402-.003 1.802-.015 3.918-.06 1.993-.026 2.392-.034h.01l1.635-.035.33.02 1.479-.029 2.547-.05 3.727-.077h.018l2.322-.032 3.778-.08.207-.004 2.043-.04 3.794-.087 4.062-.095.134.006.06.003 1.867-.04 7.83-.178.397.01 2.043-.052 4.763-.124.32 1.466.572 1.398 1.232 1.988 1.095 1.956.142.253.028.02.565.404.327.14.662.682.407.265.134.18.137.626.18.189.455.136.251-.034.282-.124.358-.328.403-.08.072-.015.569.01 1.345.832.885.438 1.332.535 1.155.71.26.107 1.535.633.998.517.231.12.4.255.464.42.227.29.256.57.114.142.291.28.397.262.659.257 1.007.251 1.272.316 1.81.66 1.198.086 1.034-.062.67.201.208.132.32.474 1.559.973.154.125.414.336.243.304.462.318.225.118 1.373.722 1.535.687.298.089.45.134 1.185.353.37.016.437-.043 1.038-.3.511-.148.117.023.956.966.858 1.416.101.167.164.15 2.075 1.268.316.293 1.08 1.253.71.472.523.186 1.625 1.294.476.496.184.438.168.721.34.269.523.266.43.049.098.01.189.022.278.091.51.208.222.206 1.84.193.43.002.743-.286.334.116.225-.006.798-.286 1.513-.725 1.604.118.876-.075h.003l.34-.093 1.354-.906.374-.356.943-1.21.195-.251.557-.236.692-.726.39-.57.154-.272.875-1.559.41-.495.162-.305.337-1.27.468-1.302.053-1.162.301-.578.008-.362-.138-.326-.02-.242.149-.612.317-.2.653-.413.783-.34 1.289-.416 1.133-.188.583-.021.282.167.924.774 1.27.366.364.105 1.345.6.948.295.508.157 1.001.058 1.123-.028.352-.08 3.056.172.023.001 2.012.435 1.498.135 1.867-.155 1.064-.264 1.126-.461 1.14-.584 1.524-.78.86-.282.825-.028.078.046.396.23.767.305 1.805.515 1.307.242 1.48-.126 1.59-.356.532-.19 1.081-.387 1.112-.708.47.157.14.277.305.264.495.204.682.148.267-.013 1.209-.06.917.14.302.107.253.184.437.106 1.015-.067.32-.138.708-.652.627-.743.037-.221.177-.42.6-.692.365-.217.518-.16.4.065.546.385.55.058 1.766-.209.153.302.714.61.176.105.548.326.23.033 1.88-.232.509-.152.545-.249.207-.152.015-.011.152-.187.06-.073.189-.108.647-.204.7-.392.22-.218.211-.05.01-.002.484.251.14.146 1.177 1.22.246.033.463.062.452.062h.003l.19.026.913.123.145-.03.873-.183.122-.025.502-.236.223-.006.106-.003 1.11.264.622.224 1.38.706.16.32.002 1.732v.225l.026.112.03.137.316.657.132.391.136.995.083.163.079.155.166.187.572.365.448.122 1.322.03.947.18.66.012.53.093.325.1.37.197 1.013.537.67.733.357.461.343.443.139.34.005.25v.034l.28.565.022.044.338.343 2.043.258 1.063-.094h.018l.512.024 1.091-.154.619-.219.765-.164.644-.015 1.392.213 1.977.503.328.291.558.152.933.07 1.337.1 1.043.078 1.084-.205.32.049.4.227.694.533.884 1.872.048.212-.017.238-.009.118-.08.268-.32 1.082.035.358.107.286.141.247.207.103.593.062.714-.076.786-.336.433-.283.65-.457.598-.576.37-.175 1.39-.404.214.11.552.286.11.056 1.24.642 1.454.082 1.295.395 1.12.75.696.385 1.453.426.39.014.654.024.66.158.729.276.51.728.169.877.091 1.135-.113 1.707.142.341.242.2.584.28.069.015 1.216.263.289.063 1.462.062 1.302-.405.182-.203.246-.083.495-.082.681-.114.768-.003 3.19.91.68.376.394.41.069.14.028.324-.005.05-.048.486-.119.275-.346.306-.404.647-.98 1.78-.2.487-.153.65-.003.367.108.926.21.603.33.592 1.01 1.21 1.291 1.68.48.46.581.373 1.816.625.923.579.218.136.008.007.487.426.619.758.313.59.266 1.025.001.005.055.998.009.155.071.418.18.646h.001l.27.68.131.332.257.462 1.45.899.106.065.276.107.276.036.29.038.437-.038.335-.03.497-.139.68-.38 1.16-1.18.46-.327 1.025-.412.927-.078.793.192.338.082.688.376.312.249.398.404.506.74.232.538.156.545.194.359.819 1.018.225.185.062.051.027.022.47.25 1.245.297.884.001h.227l.33-.076.998-.495.592-.445 1.43-.732.541.023 1.23.052.478.02.23.016.86.059.065.004.354.025 1.397.404.008.002 1.127 1.281v.001l.075.193.522 1.573.212 1.423-.016.641v.017l-.002.06-.294 1.3-.3.694-1.074 1.474-1.247 1.71-.16.433-.132 1.07v.008l.113.958.422.98.02.047.264.614.054.335.067.418-.49 1.461-.098.226-.184.424-.063.39.009.566.067.451.272.637.2.47.229.275.435.527.551.425.723.42 1.299.623.985 1.001.401.563.218.45.1.352.087.501.028.157.023.354.084 1.3.329.821.57.812.487.445.002.002 1.617.938.604.57.533.725.293.644.167.658-.06 1.147-.094.24.398.438.403.442.023.305-.08.227-.792 1.22-.422.403-.104.05-.176.085-.616.123-1.18.399-.007.006-.145.157-.15.51.106.38.852.98.273.438.136.346.067.478.09.644-.24 1.325.113.755.248.723.434.604.18.25.488.434.907.5.405.224.704.639.297.472.39.94.423.512.462.352.487.203.036.015.23.034 1.393.206.693.258.462.352.304.317.397.653.195.457.125.887.014.094-.046 1.003-.352 1.041-.013.039-.221.404-.036.099-.198.554-.176 1.055.006.529.182 1.384.107.33.271.836.319.643.003.006.171.307.316.358.518.314.179.064.117.042.535.092.15-.204.786-.356.887.018.672.231.712.51.209.25.235.52.048.471-.164.513-.409.592-.943.834-.149.131-.273.774-.01.576.054.277.152.21.469.384.583.192.141.046.445-.074.157-.112.2-.285.378-.94.227-.417.834-.378.099-.045 1.21.007.7.285.393.496.136.365-.003.315-.082.33-.439.898-.23.701.084.338.111.178.407.365.078.07.218.088.74.004.314-.096.617-.342.763-.208.434-.032 1.621.186.942.424.344.395.082.27.013.648-.345 1.352-.185.509-.16.216-.535.723-.093.204-.075.424.153.578.816 1.392.084.509-.038.385-.268.582-.021.018-.24.205-1.234.5-.48.366-.157.295-.105.36.06.524.257.39.158.24.679.675.388.534.186.457.13 1.021.094.355.197.43.284.404.342.34.424.422.508.294.798.263.77.474.252.233.43.573.275.612.05.571-.1.609-.125.754.019.198.016.175.196.615.213.417.437.471.603.377.48.17 1.37.281.598.29.66.565.272.39.3.602.066.453-.159.59-.657.88-.407.762-.086.923.154 1.32.006.05-.135.534-.457.68-.71.458-.591.227-.01.003-.527.423-.175.314-.13.904.041.464.106.41.347.492 1.049.46.587.257.874.54.521.63.212.353.11.259.037.272-.06.266-.273.493-.355.295-.294.245-.852.16-1.555-.248-.701.35-.576.542-.225.45-.063.227-.043.153.019.783v.035l.125.684.334.468.361.427.394.353 1.299.979.223.318.322.821.04.346.05.41-.21 1.11-.275.604-1.31 1.723-.198.353-.142.608.02.546.091.49.222.587.144.282.1.195.495.696.026.037.208.183.346.305.329.203 1.392.483.324.23.272.323.178.37.016.033.103.435.026.426-.101.44-.22.496-.349.515-.33.488-.163.41-.063.4-.103.66-.026.77v.01l.593 1.59.254.306.81.75.29-.01.63.236.565.578.065.065.556.382.649.619.474.341.605.185.787-.026.266-.148.148-.16.158-.388.024-.391.05-.383-.118-.55.278-.18.198-.836.145-1.641.016-.128.305-.457.442-.272.556-.063.947.228.58.495.8 2.226.188.856.038.44-.003.309-.096.325-.209.412-.162.32-.928 1.08-.868.765-.31.499-.05.183.042.198.356.643.027.05.542.721.331.286.453.21 1.47.178.859.025 1.031.278.882.48.34.076.563-.04 1.085-.551.475-.047.558.113.425.168.807.57.374.488.28.577.08.512-.04.517-.11.326-.197.344-.663.877-.138.291-.079.359.165 1.026.144.43.18.538.056.54-.061.736-.551 1.43-.031.47.08.295.25.919.72 1.3.1.675-.18.78-.058.082-.378.532-.554.48-1.15.648-.27.26-.176.383.046.507v.006l.001.01.438.765.716.775.414.328.436.344.009.008 1.373.769.139.077.393.13.892.064.11-.017 1.42-.233L898 518l.619.297.563.557.427.738.454 1.575-.078.823-.007.077v.003l-.382.653-.548.565-.878.548-1.18.736-.153-.107-.972-.681.28-.78.004-.014.448-1.25-.04-.579-.02-.284-.184-.172-.789.041h-.013l-.731.039-.214.126-.525.31-.163.879.019.261.053.758.132.517 1.185.93.417.327.062.049-.494.277-.157.196-.122.549.096.665.029.194.534 1.201.091.206.312.701.321.721.093.563.021.298v.002l.001.011-.133.693-.226.585-.905 1.704-.022.042-.004.031-.183 1.263v.004l.224.906.342.638.004.007.273.277.292.295.41.2.53.061 3.822-.718.927-.174.865.11.727.275.693.548.275.598.026.056.055.118-.001.015-.024.542-.414.657-.69.234-1.335-.247-.252-.114-.246.003-.235.118-.437.455-.447.726-.034.056-.183.72v.005l.05.566.208.968.364.736.037.076.464.69.615.915.146.217.368.943.006.066.194 2.13.015.158.309 1.047v.003l.127.753-.084.703-.142.458-.5.768-.28.322-.462.535-.306.647-.063.688.092.45.293.536 1.118 1.075.917.758.157.208.108.305.1.577-.024.885-.556 1.181-.22.686-.086.477.066.487.249.603.057.073.104.134.289.369.382.272.847.439.9.251.472.3.143.09.614.501.392.59.158.365.113.464-.073 1.221-.286.756-.45 1.186-.086.942-.054.592.13 1.013.196.754.098.376.175.426.41.598.274.3 1.37 1.07.514.517.103.17.315.518.145.34.075.597-.085.656-.123.357-.368.654-.368.37-.555.39-1.448.505-.176.137-.211.166-.156.156-.272.52-.077.208-.053.47.015.148.02.2.058.182.139.437.708 1.173.549 1.426.03.595-.089.72-.485 1.247-.076.346-.002.094-.01.476.072.305.177.754.988 1.809.168.395.074.566.015.108-.077.558-.152.393-.193.29-.39.522-.383.381-.633.473-.932.461-.86.523-.34.314-.568.689-.444.782-.27.838-.158.842.023.633.492 1.504.27.483.698.421.189.01.534.197.818.358.424.186.735.718.054.054.343.563.077.174.168.374.323 1.635.143.342.015.038.243.322.577.387.045.03.2.135.39.261.151.072.89.42.963.169 1.07.02.977.287.68.379.337.28.544.53.672.783.255.412.166.268.195.43.138.577.053.54.1 1.003.157.441.254.337.278.222.723.423.591.466.19.15.195.303.151.488.01.484-.098.425-.29.624-.581.596-.691.59-.292.295-.49.765-.076.67.394 1.036.827 1.258.161.425.083.435-.002.358-.09.375-.345.796-.056.532.09.359.22.348.473.423.647.293.931.177 1.242-.042.641-.263.622-.381.296-.072.893.064.503.451.174.31 1.159-1.08.184-.679-.282-.532-.021-1.166.134-.81.014-.892.721-.587.888-.338.753-.066.742.795.439.93.712.426.315.652.165.53-.158 1.559-.055.542-.584.94-.657.385-2.538 1.169-.364.265-.46.206.502.854.19.767.019 1.004-.056.646-.025.47.074.417.233.62.186.28.695.54.32.249.815.398.626.45.746.734.884 1.267.057.161.011.032.286.805-.007.857-.174.619-.2.832-.05.419.331 1.016.906 1.3.285.409.696 1.281.287 1.213-.023.467.085.735.188.478.25.347.243.339.643.532.487.566.036.042.282.479.008.013.147.369.173.806-.025.36-.175.598-.48.51-.402.274-1.496.65-.6.472-.28.47-.085.533.005.443.096.258.362.396.316.151.684.091.33-.073.63-.284 1.373-.793.562-.224.479-.109.333.013.596.157.732.338.095.084.502.439.4.35.32.198.631.248 1.491-.05.67.203.391.197.644.613.21.342.1.382-.002.702-.408 1.511.028.436.2.451.066.148.218.198.966.1 1.034.455 1.204.743.353.123.547.086.964-.032.758-.166.748-.05.342.06.485.125.368.194.615.462.615.906.3.732.1.41.036.917-.099.608-.183.568-.434.73-.387 1.176-.01.478.08.722.14.348.069.176.232.394.357.499.63.68.194.163 1.018.853.666.32 1.359.37.243.121.515.471.198.373.144.432.126.97.19.717.155.364.28.385.466.367.637.263 1.066-.009.568.104.656.32.401.487.263.497.044.223.05.248.007.181.013.277.01.217-.093.427-.285.466-.305.304-.755.81-.26.956.238 1.04.144.71-.098.704-.03.042-.452.644-.358.505-.206.58-.068.53.168.664.207.818.332.723.41.66.754.704.532.324.775.302.486.102.477.003.46-.087 2.028-.795.778-.067.913.246.253.127 1.239 1.22.888.423 1.177.256.314.139.367.355.134.218.36.778.046.313-1.99.163-1.474.12-3.15.256-.725.059-4.326.341-.007.001-.715.056h-.001l-.527.042-.03.002-1.052.082h-.002l-.274.022h-.01l-1.474.116-.35.027h-.005l-.846.066h-.008l-.073.007-10.352.795-.79.06h-.002l-10.233.768-1.39.103-.179.014-12.229.89-.008.001-.379.03h-.01l-3.73.272-6.625.476h-.007l-1.625.115-.458.032-6.206.433-1.625.11-4.14.275-.443.027-1.03.063-3.028.207-3.259.24-.919.075-3.743.26-.208.013-.016.007h-.02l-2.31.149-.777.056-.013-.006h-.004l-2 .124-5.22.32-.403.025-1.462.1-.22.015h-.004l-6.79.446-.382.025-4.099.25-.969.057-.124.008-.327.02-11.949.706h-.008l-.42.016-.264.026-3.452.204-2.082.122-.743.043-.284.023-1.018.08-1.653.085-.421.022h-.01l-.645.03-.773.037-.647.048-.45.034-.102.006-.436.028-1.062.066-.647.04-.391.025-.6.037-.453.012-.873.025-1.228.07-3.071.171-.232.013-.814.045-2.07.115-.383.021-.247.014-11.812.64-.283.014-7.475.393-.137.007-.351.016-.242.016-3.915.199-.035.002-.224.012-.082.004-1.26.067-5.768.303-2.856.147-.114.007-.317.018-1.798.105-.147.008-.016.001-2.056.106-9.695.408-.44.062-.061.008-.188.01-4.134.19-2.024.097-.232.026-4.7.218-.01-.007-1.183.049-.067.002-10.304.41-.068.01-2.002.07h-.01l-4.139.19-.987.044-.22.006-.837.033-1.065.053-1.046.051-2.048.075-1.987.096-1.67.08-.44.021-1.066.051-.123-.004-.431.018-8.62.349-1.984.078-.249.01-1.027.04-5.199.202-3.997.152-6.368.236-.309.011-.16.006-.137.007-.036.002-.702-.001-4.629.199h-.018l-.228.002h-.011l-1.235.054-.61.026-.207.005-1.89.047-1.423.047-.646.02-6.108.22h-.002l-4.438.14-1.788.057-2.386.075h-.002l-.468.005-3.118.105-.517.017h-.024l-.261-.004-2.05.054-.807.033-1.232.044-1.366.048-4.66.11-1.63.05-1.696.052-.775.016-1.56.027-2.151.078-4.064.145-2.003.03-.638.014-12.961.36-2.563.07-8.291.212-1.003.023-.529.012-2.046.047-2.214.059-1.913.045-1.612.006-1.993.045-2.246.06-.292.005-2.673.044-1.296.063h-.147l-1.749.016-.34.013-1.922.013-.127.009-.182.022-1.903.066-1.749.029h-.008l-.32.005-5.024.08-.249.002-4.773.092-1.526.02-.885.018-4.079.078-6.075.111-1.964.024-.136.002-.774.009-.01-.006-1.179.024-.062.005-2.184.04-2.923.022-.18.012-5.036.082-.1.002-2.044.032-3.071.03-1.048.017-5.147.096-1.007.004H549.705l-.86.01-.213-.005-.956.01h-.023l-2.044.024h-.024l-2.055.026-1.661.021-.401-.013-3.186.059-.406-.016-.445.014h-.126l-8.245.069-2.011.015-2.018.014-.139.003-.88.019-.156-.007-1.045-.043-6.29.087-1.402.008-.461.007-.148-.006-.307-.008-1.49.01-.277.002-6.913.043-3.156.016-1.758.01h-.332l-10.046.03h-1.356l-1.012.001-.602.001-1.123.07-.812-.03-.87-.036-.388.023-4.155.036-2.07-.005-1.966-.005h-.498l-5.728-.019-2.616-.006-1.54-.014-.412-.034-1.049.006-3.181.018-.475.005-4.547-.02-1.18-.006-4.154-.023-2.033-.013-3.083-.02-.475-.003-.63-.004-.95-.007-3.511-.025H438.672l-.236-.01h-.36l-.37.009-2.03-.035-1.549-.021-.239.008-6.433-.065-1.879-.02-9.12-.106-1.362-.014-1.932-.02-2.098-.022-.88-.013-1.152-.01-.651-.005-.584-.004-.78-.016h-.127l-1.116-.016-2.63-.044-.37-.005-2.035-.03-.084-.002-2.003-.03-1.69-.024-3.027-.056h-.681l-.874-.012-1.967-.029h-.039l-2.016-.03-.052-.002-1.574-.063-.535-.01-2.018-.042-.903-.01-1.22-.012-2.024-.023-.966-.022-.373-.03-.608-.004-1.188-.009-.282-.002-.73-.038-12.347-.216-7.303-.14-2.732-.061-2.484-.058-4.713-.112-3.59-.089-4.147-.106-3.617-.096-4.157-.12-1.111-.016-.89-.025-.586-.016-1.984-.058-.525-.016-3.7-.095-4.167-.115-.818-.022-3.304-.111-.162-.003-1.908-.039-3.462-.09-3.919-.09-.12-.005-.677-.03-12.548-.408-1.205-.041-4.11-.14-1.997-.068-3.08-.107-.138.008-13.35-.474-3.84-.142-2.359-.089-.31-.018-.563-.024-2.127-.095-.976-.015-2.277-.103-4.663-.214-1.377-.05-14.846-.585.352-8.818.479-12.018.094-2.05.394-9.53.034-.88.2-4.369.474-10.376.037-1.55.037-1.555.219-4.72-.01-.475.001-.023.297-6.21.464-11.443.082-2.535.661-15.496.311-7.292.316-7.42.036-.904.084-2.091 1.079-26.916.243-6.08h-.011l-2.026-.09-5.836-.233-7.108-.303-1.918-.1-.03-.002-.304-.016-2.118-.074-.885-.041-2.11-.099-.855-.04h-.021l-.44-.001-2.066-.088-.129-.006-.007-.003-.023.002-5.584-.253-2.06-.094-1.664-.096-.067-.004-9.548-.473-.142-.001-1.868-.1-3.188-.143-4.197-.191-.994-.047-1.013-.052-.026-.01-.317-.02-4.539-.275-3.48-.142-8.821-.45-.42-.023-1.608-.105-1.299-.057-.73-.06-2.068-.098-3.697-.178-.322-.047-1.733-.083-.301-.023-1.774-.054-.217-.04-1.906-.1h-.016l-.178-.017-1.865-.109h-.008l-.179-.02-1.875-.088-.164-.029-1.883-.074-.182-.047-1.588-.061-.116-.002-.195-.013-.122-.023-1.91-.1-.13-.014-1.865-.143-.205-.024-3.934-.197-.508-.043-1.56-.096-.165-.01-1.823-.092-.136-.015-24.488-1.46-6.08-.378-.25-.017-1.838-.175-1.55-.147-2.678-.092-.005-.006-6.935-.448-1.155-.038-4.01-.277-4.166-.291-.08-.006-1.944-.139-16.902-1.234-1.375-.092-10.189-.698-2.09-.153-1.952-.157-1.087-.029-.912-.074-4.14-.336-1.91-.134-.136-.024-4.102-.313-.777-.06-.55-.08-1.701-.077-1.501-.102.179-2.184.02-.174.778-10.163.023-.077.155-2.085.097-1.343.43-6.066z"/></svg>