<svg height="1000" width="1000"><path class="americon" d="M25 602.963l.098-.74.411-1.126.79-1.395.077-.2.388-1.013.21-.286.13-.064.287-.14 2.96.407.161.107.025.289.102.157.64.303 2.855.628.636.228.916.597.206.048.563-.064 1.013-.729.078-.055.49-.595-.028-.858.033-.964.112-.731.213-.76.848-1.85.951-2.076.693-2.78.415-.79.081-.076.6-.555.152-.14.152-.141.619-.451.471-.264 1.293-.46.212-.001.41.177 3.161 2.27.96.363 1.125-.144.447-.175.383-.234.88-.767.04-.034.527-.46.55-.565.15-.223.02-.073.092-.32-.014-.17-.102-1.265-.047-.108-.18-.184-.005-.006-.07-.073-2.309-.508-.278-.149-.367-.535-.328-.5-.351-.501-.233-.386-.249-.545-.007-.045-.08-.49-.212-.04-.32-.438-.298-.866.007-.365.222-1.068.795-.031 1.258.67h.105l.428-1.123.6-1.203.48.298.308.33.49-.06.273-.309.033-.037.062-.756-.055-.465-.183-.551-.178-.476-.43-.576-.34-.554-.45-.912-.715-1.11-.159-.203-.596-.433-.545-.195-.706-.092-.795.057-.962.184-.926.06-.503-.233-.762-.355-.692-.944-.749-1.689-.203-.627.017-.396.509-1.493.18-.387.311-.366.272-.212.629-.225.405-.068 1.1.68.804-.173.998-.486.205.013.504.19.915-.16.425-2.648.397-1.036-.62-1.456.162.038.171-.065.852-1.1.434-.735.398-.42.335-.032.308-.305.5-.722 1.112-2.02-.326-.069-.21-.119-.816-.81-.624-.381-.322-.284-.851-.904-.198-.265-.37-.74-.203-.226-.472-.24-1.483-.377-.521.07-.318.18-.444.371-.215.244-.207.384-.16.573-.004.598.198 1.032.784 1.542-1.06.208-2.359-.171-.653-.444-.619-.642-.074-.428 1.171-3.311.086-1.124.208-.463 3.317-1.774 1.234-.661.856-2.385.331-.78.273-.398.472-.47.778-.558.659.05.35-.21.949.041.567.025.522.305.827.883.442.645.06.193-.041.525-.548 1.411-.397 1.436-.051.763.297 1.476.872 1.161-.863.88 1.462 2.643.015-.005.989-.346.102-.035.396-.473-.386-.12-1.22-.96 1.19-1.174.165-.326.154-.507.192-.261.243-.215 1.035-.579.069-.529.248-.483.237-.346.106-.294.006-.649.058-.394.317-.861.268-.407.42-.987.004-.192.005-.214-.133-.343-1.52-1.52-.843-1.632-.216-.59-.231-1.08-.1-1.493.192-.938.38-.974.181-.27.358-.767.336-1.418.255-.295.542-.388.492-.215.53-.114.517.066.206.026.694-.379.336-.11.912-.073.122-.01.66.095.392.124 1.387.927 1.86 1.772.179.33.076.664-.026.176-.243.405-.022.398.137.226.531.54.343.264.323.115 1.212.188.04.006 1.12.629.417.102.445-.143.402-.287.347-.406.17-.315.51-1.497-.043-.21-.122-.154-.202-.122-.19-.057-.063.006-.235.023-.042-.021-.003-.119.057-.098.075-.043.188-.3.24-.007.043-.158v-.105l-.045-.085-.047-.232-.096-.226-.112-.114-.305-.128-.158-.016-.165-.046-.346-.015-.526-.132-.538-.168-1.313-.763-.34-.532-.21-.458-.697-1.74-.23-.746-.1-.56.017-.239.154-.432.319-.49.357-.417.668-.519 1.474-.759.91-.315.545-.189.86-.602.168-.055.502.22.678.189.306.043.297-.07 2.053-1.386 1.43-.475.828-.447.332-.499.08-.23.18-.523.017-.046.154-.799.025-.98-.21-.775-.548-.852-.25-.151-.382-.067-.818.208-.579.284-.162.169-.54.967-.244.305-.238.185-.399.143-.937.147-.794-.082-1.008-.284-.784-.39-.872-.7-.166-.207-.485-.604-.505-1.31-.76-1.041-.311-.562-.02-.049-.214-.536-.05-.665.098-2.194-.07-1.038-.04-.62.053-.523.316-.752.273-.36.426-.29.648-.325 3.31-1.66.28-.307.361-.262.35.054.137.021 1.833 1.333.466.72.66.532.484.039 1.037-.792.698-.295 1.294-.69 1.47.202.882-.057.415-.111.769-.392.181-.154.423-.412 1.19-1.43.26-.62.04-.342-.203-.807.365-.562 1.693-1.566 1.828-.493.015-.23.824.157 1.592.718.988.01 1.19-.366.319-.215.084-.057 1.57-.819.258-.259.238-.47.026-.052.109-.535-.018-.375-.137-.438-.149-.222-.513-.462-2.152-1.309-2.14-.848-1.592-.82-.53-.472-.306-.499-.072-.32.005-.579.114-.61.152-.463.382-.919.371-.607 1.081-.853.167-.104 1.552-.973 2.876.236 2.86 1.427.639.98.493.608.798.377.387.078 1.11-.649.905-.714.312.336.13-.448-.197-.692.223-.605-.177-.506-.322-1.345-.184-.508-.39-.612-1.56-1.443-.566-.676-1.07-1.034-1.367-.94-1.088-.844-.449-.461-.421-.736-.076-.365-.003-.499.21-1.396-.033-.133-.953-1.084-.277-.465-.176-.516 2.861.117.17-.538.253-.394 1.313-1.613.49-1.155.182-.641.298-1.587.147-.781.432-2.767.288-1.36.149-.28.749-.933.67-.498.995-.393 1.636-.515 1.63-.345.361-.153.435-.272.693-.434.253-.116 1.228-.566.343-.293.58-.7.12-.333.151-.795.118-1.138-.02-.816-.198-.734-.636-1.267-.618-.93-.72-.781-.435-.473-.583-.461-.597-.339-.783-.527-.82-.743-1.04-1.064-.345-.26-.625-.47-.873-.743-.73-.62-.573-.552-.78-.75-.72-.834-.072-.098-.411-.559-.078-.153-.02-.213.038-.236.225-.462.342-.502.098-.145.153-.29.38-.272.154.043.267.074.532.379.88.216 2.793-.166 1.114.227.575.223 1.309.72 1.412.624.496.156.448.055 1.647-.094 1.084-.315.405-.191 1.018-.785.31-.097.458.008.476.12.486.317.452.122.342-.036.267-.111.516-.48.094-1.242-.046-1.184-.16-.524-.039-.127-.18-.292-.555-.448-.193-.009-.3.212-.558.104-2.55-1.57-.597-.712-.57-.5-2.295-1.789-.717-1.613-.084-.285-.009-.028.1-.878.479-.856.592-.556.558-.21.561-.07 2.047.199 2.265.749 1.667.219.757-.051.692-.199.538-.299.493-.393.429-.491.714-1.487.276-1.059.2-.77.022-.15.006-.042-.065-.448-.34-.901-1.113-2.162-1.701-2.747-.178-.493-.086-.464v-.488l.079-.565.207-.509.296-.36 1.545-1.263.244-.317.21-.337.3-.707.178-.674.017-.23.068-.901-.1-.444-.2-.367-1.207-1.432-.39-.764-.07-.139 4.453.25.594.047.767.08-.157.334-.853 2.147-.1.362-.002.37.072.423.24.633.454.552 1.02.565.515.142.82.018.41-.106.818-.38.522-.396 1.338-1.28.86-.958.742-.973.375-.59.307-.673 1.445.059 1.392.081 1.007-.08.187-.038 2.553-.107 1.147-.077 4.976-.276 1.943.148.345.054 2.458.163 4.855.32 5.182.403.022.002.32.023 4.349.319.021.001.245.018 2.962.17 1.918.109.03.001 1.433.08 2.62.148 2.604.154h.012l.391.022.731.04 3.848.234.033.002 4.795.212 2.2.096.018.001.517.045.57.05.51.044.952-.048.116-.006.323.01h.005l1.342.039.438.012 1.266.036.76.022.181.005h.026l.792.043.031.002 1.109.052 1.857.086 5.635.225.053.003 3.436.164h.001l5.819.29.036.002 9.072.396 3.472.15.033.001 3.078.167h.01l.44.007.038.008 2.456.143h.015l1.786.072 2.167.1.259-.022 2.17.106 1.486.072 9.26.353.044.002.47.022h.017l.537.026h.015l1.241.058 14.42.646 4.148.18 1.12.048 4.237.229 3.78.201h.009l.308-.384.574-.527.656-.833.193-.459.069-.534-.042-.43.071-.371.162-.283.206-.695.216-1.28-.1-1.495-.157-1.352-.39-1.5-.125-1.53-.35-2.545-1.038-3.739.022-.442.013-.262-.136-.654-.155-.378-.598-1.033-.376-1.208-.177-2.478 2.777.1 3.554.231 10.699 1.441.04.005 4.29.573 2.422.25-.498 4.087 6.056-.049h.002l5.66-.05 5.463.005h5.73l8.232.033.203.004 9.437.038h.023l.926.003.647.002 1.001.003.672.002h.007l.954.003h.02l1.093-.016.13-.002 1.155.022h.002l.523.005 1.198.013 4.528.047h.06l.872.01.396-.003.88.01 2.27.027 3.612.04.336.012.343.004 2.977.032 1.794.02h.055l2.912.028.605.005h.022l2.524.023 2.53.021 3.884.03h.001l5.847-.033 5.327-.036 2.598-.042.71-.012 6.6-.112 1.426-.025.06-.006 5.59-.027h.025l1.156-.013 1.099-.012 1.593-.045.24-.009.34.013 4.786-.115.586-.014.472-.012 4.874-.01 3.749-.099 2.813-.075 5.035-.137.146-.002 1.634-.042 1.986 1.842.787.728.029-.013.951-.412.41-.177.109-.734.028-.185.016.003.45.08.253.044-.044.451.636-.26 3.257-1.331 3.655.112.046.001h.009l.132-.012.398-.01.953.028 3.041.088 2.173.061.036.001 3.893.109.13-.043 1.589.038 2.81.143 3.98.425.306.033 3.125.24 4.566.349.331.008.289.03.024.01 1.158.096.066.006.787.049 3.513.198 3.99.223 1.465.082 2.184.12 1.339.074.138-.013 4.57.399.566.05.04.005 6.089.198.061.002.316.01.047.002 1.351.043 4.242.245.134.007 4.932.281 4.506.176h.021l3.293-.08 1.388.064h.004l4.69.098 1.443.03 5.845.24 1.283.016h.062l8.46.094 3.788.038.057.007 4.635.001H560.557l5.602-.561.681-.069 1.81-.123 8.551-.588 1.02-.233 2.62-.032.463-.195.014-.002.573-.093 1.54-.036H583.44l6.806-.024 1.022-.004.914-.004.87.015 1.857.033 8 .135 1.05.054 6.682.195 4.132.266 1.254.121 3.35.321 3.396.222 5.722.369-.002.009 1.805.128 4.254.004 1.985.067h.006l.744.002 14.731.018h1.868l2.137.043 4.63.092 2.084.04 2.4-.103 2.265-.099 5.354-.103.817-.016h.404l.321-.002h.111l1.816-.005 15.912-.065 1.062-.052 3.672-.16h.015l.04-.002 2.756-.075.4-.01 5.16-.145.555-.015 1.861-.054.15-.003 2.32-.052.102-.002 5.702-.131 2.881-.069.332-.008 3.607-.087h.025l6.151.002 3.932-.002 5.835-.07 5.563-.072 10.615-.303h.01l.194-.252.123-.383.455-.695.366-.273.243-.348.098-.18.052-.096.01-.297.043-.002.524-.026.002.004 1.055-.008 1.151-.009.448-.003 2.173.126.317.019.058-.002h.004l2.899-.1 4.148-.146 9.143-.433 1.792-.092 8.698-.451 3.03-.187 4.156-.26 2.522-.158.928-.058 1.67.49 1.165-.068.044.003.105.004 2.532-.137 1.499-.082.468-.025 3.517-.193 7.87-.44 7.914-.45.12-.001 4.545-.247 2.523-.138 7.955-.442 6.208-.415.233-.014 13.884-.85.406-.026.824-.052.891-.056 2.781-.196h.003l.344-.025.343-.024 1.613-.115 2.476-.177.05-.003.01-.001 1.677-.14.593-.049 1.534-.127.186-.016.11-.009 1.081-.09.14-.01.59-.048.552-.046.387-.032 3.048-.255 2.524-.212.71-.06h.026l.9-.03 1.31.062.105-.008 8.482-.651 9.685-.757.308-.022.036-.003.366-.026 1.914-.135.975-.07 2.102-.15.097-.007.31-.022.566-.04.906-.065.101-.008.245-.014.186-.026 1.153-.088.038.005.018.003.162-.007 1.176-.044.706-.027.196-.007h.002l.135-.006.83-.026h.008l.07-.001.294-.004h.014l.353-.004.015-.002 1.658-.125.774-.059.058-.004.232-.023.27-.019.811-.057 3.309-.231.597-.042.657-.046 4.577-.325.755-.053 2.938-.21.564-.041 8.629-.626 1.013-3.046.314-.016 5.431-.276 4.6-.237 6.064-.322 1.714-.092 1.909-.102 9.696-.718-3.04 3.459-.252.371.132.606.058.27.243.59.061.492-.29.307-.692.15-.418-.074-.213.418.07.407.252.391.15.492-.058.512-.378.445-.348.666-.21.644.03.387-.855.153.011.552.14.8.092.113.512.62.27.671.06.135.067.167.032.183.216.396.001.122.087.352-.065.116-.176.446-.03.055.06.328.188.092.1.113.02.023.076.365.12.236-.075.93.208 1.232.168.126.044.156-.026.728-.006.011v.001l-.247.437-.126.116-.203-.018-.753.33-.664.728.021.52.113.313.1.514-.38.295.042.167.35.301-.104.399.11.189-.686.482.434.445-.023.223-.183.67-.052.19-.289.064-.042.238-.336.105-.02.211-.172.109-.058.308-.37.102-.082.215.01.1-.12.05-.216-.157-.357.09-.122.304.233.366-.01.44-.081.083.01.152.072.082.02.103.11.01.111.045-.027.398.089.463.526-.01.32.063.29.338-.15.34.035.32.095.104-.126.37-.298.146-.085.34.256.202.175.509.606.65.27.6.037.457.004.424.151.393.23.468.475.42.463.115.497-.005.1.045.314.537-.036.457-.096.176-.019.194-.009.09-.637-.068-.429.018-.12.025-.321-.325-.28-.017-.125-.121-.147-.05-.244-.126-.31.059-.558-.199-.35.465-.086.052-.43.256-.36.086-.264-.046-.107.098-.339.047-.28-.236-.29-.125-.288.004-.297.228-.464-.284-.016-.166-.303-.15-.136.037-.216-.133-.485-.524-.25.153-.299.021-.498-.016-.082-.003-.152-.352-.022-.161-.03-.214-.03-.303-.264-.235-.106-.588-.216.148-.076.205-.057.153-.389.111-.763.595-.472.45-1.014.383-1.144.29-.831.608-.442.435-.54.429-.669.419-.532.607-.05.057-1.097 1.575-.168.435-.322.337-.805.68-.773.332-.342-.009-1.075.818-.928 2.087-1.385 3.114-.55 1.235-2.015 3.934-1.002 2.21-.46 1.013-.03.066-1.28 2.817-.912 2.009-1.603 3.524-.263.576-.689 1.514.043.132-.212.68-.44.56-.071-.007-.458-.048-.696-.53-.79-.075-.334-.031-.008.02-.17.386.032.431-.5 1.067-.62.195-1.318.843-.035.11h-.018l-.617.007-1.369.142-.342-.043-.433-.226-.394.151-.136.085-.502.314-1.294.122-.332-.2-.069-.041-.927-1.716.115-.569-.05-.687-.541-.963-.024-.058-.414-.994-.465-.684-.067.02-.79.232-.521.25-.91.057-.314.05-.175.162-.07.235-.226.206-.23-.13-.167-.072-.238.045-.126-.086-.13-.126-.093-.237-.171-.245-.009-.121-.082-.141-.291.156-.17.186-.382-.135-.45-.333-.3-.283-.354-.26-.712-.212-.284.007-.488.208-.383.152-.108.297-.13.654-.341.484-.486.52-.177.19-.063.137-.094.118-.137.11-.396.309-.169.391-.106.215-.132.119-.182.163-.485-.148-.166-.192-.336-.005-.437.06-.293.508-.23.355-.328.1-.245-.06-.355-.218-.492.157-.188-.028-.944-.827-.112-.033-.856.353-.015.006-.546.336-.452.411-.134.28-.981.827-.346.208-.403.054-.043.03-.376.261-.334.09-.467.307-1.103.036-.177-.085-.178-.148-.553.241-.529.579-.05.135-.002.003-.587.442-.513.206-.448.137-.322.401-.153.485-.787.306-.226.088-1.494 1.362-.506.604-.689 1.49-4.2 9.074-.005.012-.414.205-.993.934-.864.368-.118.216.003.328-.1.144-.123.078-.165.106-.004.01-1.312 1.308-.522.697-.182.04-.588.284-.423-.012-.448.21-.213.176-.927.23-.359.337-.486.136-.019.01-.32.165-.755.554-.351.517-.452.942-1.068-.154-.863-.327-.172-.107-.157-.66-.371-.16-1.207-.034-.306.16-.596.137-.82-.136-.187-.088-.116-.053-.05-.024-.113-.536.052-.414.365-1.38.248-.405-.338-.636-.63-.138-.05-.066-.278-.837.049-.437.044-.165.205-.217.353-.307.082-.263-.207-.15.086-.534.133-.144.39-.165.044-.08-.15-.45.214-.421.162-.2.543-.563.429-.34-.037-.229-.128-.276-.453-.093-.436.071-.183.051-.006-.27-.149-.239-.369-.135-.415-.501-.439-.175-.507-.048-.026-.568.061-.41-.169-.247-1.11-.741-.457-.458-.535.02-.672.45-.382.407-.295.314-.493.245-.27-.038-.576.258-.604.323-.48.369-1.12.654-.121.157-.062.41-.331.482-1.296.65-.212.285-.45.34-.265.082-.562.173-.03.233.045.356-.053.2-.955.683-.308-.021-.43.149-1.889 1.69-.466.259-.513.046-.667.204-1.137.463-.13.183-.127.253-.05.612-.604.659.005.117.048 1.253.436.411.165.017.182-.07.247.108.183.247-.27.704-.566.296-.15.156-.078.191.046.444-.19.97-.02.017-.083.072-1.248 1.08-.542.877-.026.14.057.213.371.68-.004.153-.215.263-.443.017-.218.073-.53.414-.61.329-.083-.089-.44-.948-.342-.415-.13.003-.361-.252-.779-.654-.15-.202-.99-.76-.306-.16-.88.278-.965-.367-.16-.184-.387-.072-1.04.537-.923.6-.464.103-.174-.055-.292 1.02.264.674.091.299-.133.188-.129.234-.34.194-.64-.074-.434-.348-.606.207-.032.164.415.392.382-.017v.277l.145.23.061.313.033.164-.295.234.483.322.41.677-.145.324.284.237.205.827.328.534.022.36-.182.37-.282.496.355.482.38-.138.414.101-.085.333-.241.46-.157.282-1.169.62-.913.063-.03.632.229.434-.1 1.289.367.775.19.494.006.014-.73.328-.455.12-.453.33-.122.474-.417.784-.01.003-.678.265-.177.143-.646 1.19-.358.886-.026.264-.274.633-.281.401-.08.733.088.317-.06.126-.124.262-.608.078-.506.42-.4.59-.574.659-.855.601-.406.135-.627-.048-.54-.6-.705-.152-1.408-.46-1.267-.416-.357.106-.336.205-.158.018-.245-.055-.258-.237-.47-.223-.611.212-.337.218-.27.034-.918-.174-.211-.22-.512.103-.682.538-.077.298-1.165 1.092-.084.05-.153.093-.002.002-.084.05-.012-.004.011.007-.232-.031-.242.128-.018.102-.605.383-.077.026-.007.002-.26.086-.685.579-.84-.206-2.094.52-.115.119-.66.039-.567-.052-.244.22-.345.481-.048.175.103.548-.53 1.185-.185.028-.604.313-.33.702-.113.466-.352.78-.295.03-1.056.641-.203.034-.408-.144-1.166.351-.28-.164-.338-.097-.287.079-1.035.061-.953-.038-.138.431-.143.158-.832.4-.425.523-.006.171.13.348.048.39-.079.327-.087.43.126.33-.014.738-.246.575-.324.392-.444.245-.412.312-.203.544-.437.297-.615.258-.855.493-.154.263-.003.748-.25.721-.352.586-.553.258-.892.266-.252-.035-.597-.54-.379-.497-1.545-.28-.282.34-1.037.408-.222-.04-.246.148-.228.335-.174.396.035.31-.075.319-.202.383-.902 1.208-.13.079-.244.012-.206-.14-.167.06-.323.329-.117.297-.251-.016-.925.2.021.167-.395 1.006-.422.344-.755.23-.267.167-.616.475-.915.516-.052.257-.065.06-1.173.228-.993-.194-.508.017-.126.433-.544.808-.33.68-.73.776-.942.36-.136.166.015.35-.022.02-.262.235-.4.218-.022.076.112.48-.214.359-.484 1.17-.667.215-.712.564-2.12.12-.34-.356-1.505.201-.741-.104-1.243.244-.786-.023-.761-.126-.696.098-.423.225-.615.21-.398-.015-.178-.138-.095-.396-.75-.773-.87-.681-.334-.135-.45.006-.674.77-1.552.907-.298-.15-.377.144-.142.152-.36.156-.548.06-.863-.297-.532-.098-.324.151-.23-.115-.368-.017-.75.09-.359-.161-.86.235-1.507.137-.308.114-.158.005-.199-.105-.37.01-1.467.771-.286.214-1.055-.126-.315-.299-1.543.656-.79-.299-.298.165-.539.153-.79-.043-.122.638-.734.995-.717.465-1.693.838-.662.733-.107.291-1.682 1.5-.208-.104-.494.007-.9.475-.903.352-.606-.219-.598-.082-.784.162-.688-.002-.809.361-.266.224-.162.61-.807 1.348-.101.118-.29.065-.6.748.005.174.139.142-.01.149-.119.287-.44.286-.242.644-.108.642-.256.512-.543.352-.304.046-.139-.01-.453-.035-.533.097-.794.281-.547.602-.077.299-.686.562-.376.086-.008.002-.296-.372-.27-.091-.358.024.002.055.006.122-.02.455-.4.574-.156.07-.356-.054-.174.047-.178.356.034.497-.573.174-.517.765-1.01.625-.424.603-.153.41-.095.637-.068.13-.245.372-.33.24-.678.776-.313.475-.317.122-.404-.106-.197.062v.272l.16.303.047.438.324.586.081.092.325.068.125.09.695.98.004.095-.247.487-.057.247.165.225.036.098.151.411.104.85.016.129-.007.009-.79.948-.423.74-.1.284-.343.462-.143.05-.481.065-.367.146-.033.095-.165.137-.111.02-.172.029-.124.342-.019.053.51.666-.17.182-.068.32.02.201.422.096.131.05.228.433-.1.373-.189.267-.015.28.003.165-.295 1.038.004.668.083.119.708.19.25.14.61 1.051-.202.771-.473.428-.13.088-.747.506-.688 1.431-1.054 1.187-.334.259-.881.24-.751.424-.453.1-.7.305-.176.316-.002.245-.996 1.007-.636.403-.301-.145-.17.04-.1-.087-.125-.186h-.116l-.17-.17-.188.168-.061.099-.132-.11-.107.126-.234.09-.122-.01-.074-.09-.03-.09-.153-.13-.26-.105-.132.046-.108.186-.27.134-.145-.007-.075.064-.118.4.142.499-.07.194-.166.047-.215-.087-.3-.03-.45-.35-.373-.177-.383-.08-1.353.106-.397.097-.157.278-.098.058-.823-.282-.2.008-.716.49-.158.238-1.098.137-.438-.406-.77-.053-.116-.132-.194-.416-.17-1.083-.283-.33-.03-.19-.732-.845-.51-.24-.827-.12-.45.18-.429.439-.886 1.34-.3.284-1.072.544-.528.469-.268.596-1.644 1.027-.756.968-.071.18-.52.305-.183-.021-.073-.12-.14 2.581-.207 3.312-.221 1.93-.014.121-.536 6.263-.002.03-.265 3.872-.013.057v.007l-.094 1.89-.062.867-.496 6.927-.001.024-.328 4.57-2.41.098-1.775.072-1.406.056-1.229.05-1.02.04-.215.009-.108.009-6.76.226-6.001.194-.093.006-6.525.183-5.954.16-.384.06-6.412.186-5.049.142-.401.002-.835.03-4.177.149h-.028l-3.58.126-.119.006-.144-.001h-.761l-.359-.012-.394.039-.872-.018-2.933.112-.367.003-2.82.067-.558.013-4.39.102h-.01l-.944.021-.513.02-.059.001-1.252.035-2.387.08-.323.01-.064.003-7.225.275-.014-.003-2.198.065-2.099.062-1.396.04-3.422.1h-.02l-1.337.038-.198.006-.368.01-1.173.033-2.334.065-.585.016h-.008l-.599.024-1.094.036-.634.02-1.697.056h-.002l-.145.003-.302.02-.145.016-.679.013-.272.005h-.006l-.575.012-.742.028h-.011l-1.4.054h-.017l-1.13.035-.89.027h-.005l-.312.01-.19.003-.404.017-.642.027-.849.036h-.016l-.71.035-.055.003-.444.008-.313.02-2.143.085-.653.026-.927.036-.103.004-.213.009h-.001l-.11.004-2.074.082-.093.003-.054.002-2.206.087-1.114.02-1.42.023-.173.003-1.44.024-1.148.018-2.877.046-.973.015h-5.313l-4.296-.004-5.883-.01-.7-.004h-.008l-.469-.003-8.848-.063-.678-.006h-.002l-.158-.001-2.246-.018-.438-.004h-.03l-2.062-.018-.448-.004-1.008-.01-4.366-.04-1.306-.013-1.764-.017-.483.001-3.602.005h-.337l-22.115-.015-.609-.001h-.008l-9.598-.031-11.3-.055-6.414-.04-.837-.006-6.6-.053-2.175-.018-3.513.063-.595.01-3.79.047h-.615l-4.993-.012-.534-.001-.646-.002-3.052-.05h-.01l-1.718-.012h-.01l-1.975-.033-1.24-.011-4.605-.09h-.02l-2.038-.018-1.257-.035-.392-.003-.265-.01-.1-.001h-.006l-4.926-.022-6.083-.032-.843-.005h-.002l-4.02-.01h-.12l-1.75-.015h-.008l-1.13-.023-.371-.012-.588-.007-.26-.003-.476-.005-.058-.001-1.907-.072h-.004l-6.51-.248-3.317-.129-.349-.023-.265-.012-.202.011-1.595-.064-1.267-.05-1.249-.02-2.115-.075-6.696-.24-.516-.02-2.895-.106-.241-.01-.336-.012-1.562-.058-2.586-.097-5.367-.205-.145-.006-.29-.011-.227-.01-.345-.015-.479-.021-.725-.033-4.412-.193-3.261-.124h-.004l-5.593-.197h-.008l-1.111-.041h-.002l-2.436-.084-.5-.024-.644-.031-2.916-.094-.464-.01-.79-.03-.942-.024h-.004l-.694-.017-5.55-.14h-.003l-.323-.009-2.984-.077-6.143-.164-3.208-.088-1.464-.04-.643-.018-4.371-.07-.814-.02-1.934-.074-.908-.035-.414-.029-.2.002-.797-.039h-.004l-5.52-.218h-.012l-.962-.033-.668-.04-5.314-.192h-.003l-3.433-.126-.171.006-.013.004-2.135-.06-.572-.007-.026.006-5.477-.174-5.2-.169-1.275-.042-1.69-.056-22.67-.975.096.359.097 1.047.075.295h-.03l-5.732-.177h-.005l-.242-.008-.48-.003-11.782-.419-1.898-.07-9.197-.386-.78-.034-.009.003-.478-.017-.523-.017-2.883-.099h-.023l-1.048-.037-1.597-.055-.285-.01-.071-.003-3.643-.128-2.314-.082-2.334-.084-8.78-.324-3.94-.15-7.478-.289-4.072-.16-3.127-.126-.803-.056-3.208-.226-.76-.01-3.52-.04-.658-.03-6.988-.328-2.619-.124-1.051-.05-12.566-.512-.015.003-1.979-.044-.185-.013-4.442-.291-2.136-.14-1.76-.078-13.348-.61-3.178-.149-2.747-.13-3.265-.156-.677-.04-2.273-.135-2.576-.153-.272-.016-.761-.094-1.94-.16h-.001l-1.964-.119-4.053-.245-.768-.047-1.125-.068-.063-.004-1.3-.08-2.646-.163-2.94-.182-6.957-.394-1.977-.113-1.95-.112h-.017l-1.974-.077-3.976-.154-.019-.002-1.983-.114-1.96-.114h-.009l-.783-.046-1.184-.07h-.011l-3.328-.211-.564-.036-.043-.003-1.076-.079-.088-.006-.811-.053-1.943-.128-1.994-.132-2.136-.142-1.818-.121-1.975-.133h-.001l-1.378-.093-.031-.002-.624-.042h-.002l-1.881-.127h-.007l-.697-.048-3.286-.224-3.965-.273-3.414-.237-.074-.005-1.098-.076-18.42-1.313-.742-.054-.02-.735z"/></svg>