<svg height="1000" width="1000"><path class="americon" d="M917.6 366.664l.187-.647.954.543.25-.635-.264-1.584-1.13-2.671-.182-.825 1.394-6.587.75-1.222.448-.063.585.713.43 1.268.166.43-.287 1.634.096.477.39.185.453.112.256-.492.311-1.056.64-.775 1.336-.029.474-.334 1.269.032 2.164-1.156 2.338.26 1.28 1.273 3.229-1.283.107-1.17-.368-1.946.293-.537 1.692.227 1.065.834.722 1.963.133 1.144-.402.283-1.436-.345-.888.467-1.72 3.089-.463 1.07-.435 1.78-.567 1.68-.544-.119-1.441 1.317-.101.537.202 1.314-.565.617-.082.73.55 1.739-.076 1.098-.345.529-.852.535-.64-.271-.994-.46-.82-.641-1.272.521-.36.621-.743 2.176.14 1.264.816.796.444.192.272.698.265 1.007.123 1.447-.398.203-.745-.3.208-1.088-.63-1.7-.604-.7-1.137-.558-.962-1.447-.484-1.09-.694-.515-.82-.095-1.578-.372-1.244-1.37-.123-2.005zm.214 8.337l.9.404.624.078.304.853.428.697-.098.83-.995-.26-.945-.484-.549-1.272zm-35.379 29.533l.77.134.064.585-.191.322-.555-.007-.34-.463zm-8.363 3.591l.32-1.659 1.39-1.282.315.746-1.135.854-.203 1.466.49.807-.021.937-.692.034zm-15.741-2.926l.407-1.145-.142-1.17-.27-.63 1.102-.117.454-.925.344.106.408.787.915.075 1.137-.932.274-.549.02-.612.96-.897.418-.02.038.57.28.508-.348.74-.31.399.4.933.021 3.36-.365.917.15 1.193 1.683 2.532-7.398-3.762zm-17.526 26.548l.017-.03.256-.087.097-.046.165-.098.264-.092.073-.008.165-.032.249-.02.124.036.14.079.143.12.179.187.082.147.029.117.02.013.007.057.02.046.018.06.046.088.04.046.02.009.02.027.024.013.172.158.012.037-.023.02-.09-.015-.262-.144-.27-.138-.581-.224-.043-.008-.03-.012-.183-.058-.219-.08-.4-.105-.261-.036zM412.162 41.27l.02-.037 1.076-1.966.033-.06.325-2.28-.108-1.486-.133-1.82.001-.06.014-.716.238-1.477.057-.354.013-.08.775-2.332.07-.213.09-.08.902-.826.656-.6 1.665-.485 1.11-.324 1.028.72.355-.005.741-.559.91-.052.255.38-.345.65.37.665.012.601-.17 1.012-.001.097-.005.53-.637.971-.224 1.309-.002.025-.04.363-.544.867-.01.035-.198.763.334 2.26-.123.252-.387.85-.217.477-.023.05-.274.358-.02.025-.352.46-1.01.166-.648 1.091-.052.068-.78 1.01-.022.03-1.137.523-.211.097-1.052-.232-.637.248-.336.303-.56.017-1.052.46zm-7.404 25.71l1.676-.977 1.134-1.042 1.556-.283 2.626-1.212 1.192-.76 1.127-.312.243.358.132.193-.29.71-1.208.754-.183.192-.334.35-.34.487-.057.083-.321.304-.035.033-.642.04-.342 1.33-.477.156-.977.32-.474.183-.87.334-.639-.233-1.95-.71zm-7.797-32.218l.293-.395.502-.6.744-.355.319.137-.053.584-.532.724v.51l.56.755 1.356 1.075.381.415.643.547-.08 1.147-.168 1.303-.902 1.14-.808.704-.609-.08-.035-.005-.018-.082-.178-.82-.42-1.75-.164-1.713-.06-1.864-.412-.143-.306-.305zm-2.058-6.403l.128-.812.064-.643.182-.532.243-.127.006-.003.394.556.087.78-.262 1.328-.624.695-.035.04-.148-.73zm-4.872 12.41l.436-.525.515-.285 1.23.004.465.21.055.42.405.507v.668l-.098.783-.488.197-.43.64-.1.033-.977.318-.628-.803-.248-1.015-.448-.88zm-3.75-6.163l.53-.303.17-.492.554-.642.471.232.43.383.078.364-.469.848.23.808-.235.392-.296.243-.09-.018-.538-.104-.745-.881zm-.511 22.727l.516-.696.523-.892 1.263-2.157.127-.216 1.165-.483 1.52-.03 1.088-.593 1.25-.978 3.443-1.186 2.567-.216 1.188-.355 1.05-.711 1.254-.31.582-.382.763.19.718.739.891.537.543.654.079.096-.271.757-.462.461-.311.31-.79 1.045-.27.6-.029.065-.022.1-.24 1.12-.004.015-.193.623-.531.081-.941-.161-.482-.138-.69.42-.4 1.5.176 1.094.304.88.846.509-.431.425-.557.25-1.112.16.022-.31.452-.744-.05-.103-.177-.362-.338-.298-.546-.505-.655-.634-.956-.209-.452.154-.607.207-.291.396-.2.272-.082.11-.665.357-1.412.105-.406-.247-.448-.79-.751-.223-.543.31-.096.543-.402.891-.449.32-1.5.562-.904.25-.592.074-.7-.394-.903-1.2-.552-1.089zm-3.276-6.98l.807-.745.57-1.389.602-.62.07-.04.78-.459.489-.88 1.67-.813.834-.012.39.31-.018 1.76-.435.495-.51.577-.998.454-.076.035-.446.517-.23.617-1.112.871-.785.33-.668.52-.129-.207-.373-.602zm-1.828-15.211l.174-1.242.05-.135.38-1.02.026-.069.736-.409.469.069.344.05 1.82-.462.97-1.09.068-.078.864-.322.059-.022.504.042-.516.98-1.36 1.056-.08.018-.494.116-.156.037-.633.52-.245 1.216-.113.29-.078.199-.066.17-.787 1.531-.01.824-.061.295-.174-.069-1.676-.667-.003-.296zm-1.726 29.309l.708-.517 1.429-.735 1.338-.514.447.061.5.23.498.644-.16.651-.185.238-.476.745-.617.21-.61.136-.32.356-.758.148-.985-.187-.66-.7-.146-.153v-.233zm-.993-20.499l.054-.614.853-2.047.482-.841.776-.717 1.222.239 1.003.032.527.676.76.592.263.204-.003.242-.695.256-.804.815-.86.885-.872.61-.36.657-1.734-.022-.654-.493zm-2.398-18.832l.3-.121.357.306.29.247.433.952.05 1.186-.081.288-.163.574-.663.21-.448-.714-.012-.55-.214-1.867zm-5.188 50.15l.273-1.143.474-2.094.054-.24.253-.512.617-1.257.33-.67 1.272-1.532.636-.554.803-.118.498.233.834 1.372-.072.266-.227.843-1.458 2.558-1.598 1.998-1.074.897-1.155.446-.505-.304zm.042-23.162l.461-.495.83-.89.088-.095.856-.93 1.25-1.04.321.132.543.786.918.318h1.661l.488.631.036.788.85 1.42 1.509 1.605.32 1.027.17.544.25 1.469.026.15-.051.739-.39.17-.206.089-1.938.049-.058.003-2.353.132-.442.158-.082.009-1.177.121-1.128-2.003-.478-.847-.781-.532-.133-1.443-1.002-.974zm-1.392-15.752l.485-.281.115-.254.281-.618.64-.405.109-.068.897-.454.24.206.009.014.563 1.027.043.078.386.45.574-.059.173 1.024.48.421.074.065.24 1.026-.235.986-.303.33-.35.382-.42.56-.028.557-.002.032-.134.21-.244-.283-.686.18-.652-.567-1.079-.067-.383-.56-.125-.844-.235-.522-.124-.733.087-1.252zm-2.74 48.701l.19-.225.561-.428.462-.108.703-.165.46-.036.215-.017.846-.294 1.198-.95.862-.373 1.291-.004 1.427-.39.633-.835.118-1.237.975-1.1 1.205-.972 5.195-2.62 2.59-1.914 1.938-2.089 1.303-2.134 1.69-1.707.783-.316 1.313.14.619.24 1.969 2.849.109.158.973.931 1.43.798.02.061.133.439-.179.184-.496.148-.164.05-.481.744-.872.363-.757.063-1.586.132-1.749.144-.042.02-2.741 1.327-1.255.678-1.57.412-.363.154-2.44 1.032-.43 1.435.188 1.473.72 1.21.493.143.272-.223 1.291.17.33.294.09.662-.234.549-.472.607-.735.175-.838.075-1.627.554-.297.102-2.003.403-.695-.014-.817-.465-.326-.063-.943-.183-1.054.737-1.559 1.96-.64.806-.836.103-.452.303-.61 1.05-.972.805-.55.361-.416.146-.648.225-1.312.085-1.016-.065.099-.556-.276-.712.216-.673.81-1.142-.119-1.018-.315-.72-.76-1.015zm-1.3-38.378l.65-.161.282-.309.16-.868 1.177-.179.585.555-.627.492-.288.657.166.522-.8.17-.457.154-.398-.119-.59-.335zm-10.166-3.823l.382-.153.283.437.343.623 1.084.347.96-.274.721.286.027.477-.445.438-.096.476-.22.428-.462-.007-.91-.983-.538-.46-.837-.337-.366-.805zm-14.385.866l1.591-.618 2.061-.406.78.195 1.052-.565.688-.654-.068-.934.15-.418.91.22.183.82.152.787.551.855.05.441-.474.233-.127.345-.453.233-.446.271.005.9.34 1.263.174.91-.238.87-2.01.06-.908-.317-1.243.522-.546-.158-.264-.612-.4-1.058-.409-.387-.533.19-.372-.078-.468-1.583zm-7.895 8.25l.303-.324.19.4-.14.46-.17.228-.226-.269zm-271.183 259.7l.24-1.022.017-.694-.115-.466.106-.614.071-.417.003-.018.216-.374.256-1.347.088-.458.263-.934.58-1.232.398-1.973.35-2.808.85-1.55.023-.104-.224-.527.55-2.487-.084-.652.098-.495.535-.6.46-.309 1.328-.118.361-.12.063-.11.056-.655.233-.23.831-.04.3-.162.765-.532.753-.026.25-.11.457-.58 1.412-1.036.526-.11.46-.278.678-.648.222-.465.214-.417.589-.333 1.964-1.91.155-.15.558-1.796.01-.058.341-1.879.37-1.063.155-.443.689-1.038.549-.544.977-.618.432-.535.198-.526.03-.954-.253-.888-.114-.246-.127-.271-.326-1.312-.033-.132-.086-.496.107-.598.53-.729.337-.287 1.524-1.028.526-.126.845-.95.115-.26.483-1.986.088-.36-.009-.87.398-.957 2.005-3.126 1.312-1.558.717-.621.646-.226.614-.03 1.882-1.209.343-.22 1.068-.447.135-.22-.118-.716.103-.23.872-.814 1.427-1.15.18-.146.504-.285 2.426.095.106-.286-.17-1.345.036-.217.078-.057.087-.063.362-.079.984.506.222-.046.738-.479 1.192.192.516-.403.372-.29.863-.514 1.766-.112 1.408-.853.826-.342.731.026 1.24-.529 1.292-.067.043-.003.112-.115.236-.975-.08-.768.192-1.475.202-.21.406-.2 1.21-1.524 1.063-.793.505-.249.146-.032.578-.13.36.075.353.136 2.024.779 1.601.984.91-.023.716.42.947.256.493-.154.717-.472.488-.627.025-.16-.315-.28-.097-.192-.011-.243v-.007l-.013-.288.316-.564.874-.451.469-.527-.007-.67.112-.325.213-.537.3-.358.824-1.381.015-.537.339-.888.99-.993 1.033-.571 1.016-.417.125-.051 1.434-.037.334.144 2.07 1.49.082.06 1.538.582 1.254.637 1.1.213.238.046.157.03.597-.037.903-.428.113-.108.152-.146-.03-.412.07-.594.118-.35.434-.353.316-.397.081-.22.24-1.225-.11-1.314.038-.423.332-.486.423-.943.068-.415.477-1.472.373-.656.464-.497.283-.186 1.24-.585.39-.12.53-.165.894-.278 1.159-.07.666-.257.03-.813.382-7.26.348-8.852.002-.053.076-1.92v-.028l.099-2.71.426-9.102.159-3.982.442-8.941.075-1.5.034-.585.078-1.293.024-.57.051-1.358.019-.179.043-.957-.009-.53.082-1.89.009-.207.748-17.377.034-.746.112-2.27.432-9.546.164-3.433.127-1.715.26-5.872.524-11.822.041-.94.084-1.896.18-4.137.06-1.865.134-4.293.051-1.653.001-.015.023-.556.144-.422.539.186.003.918.105.515.337.32.726.072.563.269.185.946.29.441.646-.034.933-1.207.447-.308 1.893 2.018.972-.124 1.018-.55.308.04.389.05.97.61.56.003.759-.378.38-.33.317-.275.111-.322-.001-.01-.064-.462-.01-.027-.404-1.174.214-.44.67-.647 1.033-1.285.703-.421.72-.19.158-.04.557-.632.233-.582-.024-.797-.183-.334-.699-.722-2.145-.27-.918-.486-.036-.858.153-.3.448-.37.601-.323.603-.71.292-1.009.346-.251 1.418.22.647-.077.173-.088.826-.423 1.658.882.902.199.342-.15.233-.563.54-1.304-.27-.603.065-1.323.793-.969 1.803-1.028 1.243-.71 1.176-.056.113.003 2.498.077 2.437 2.787.873.998 2.943 3.362 1.188 1.356 1.27.724.608.346.717-.47.58.215.417-.062 2.73 2.786 1.98 1.358 1.58.853 1.289.387 1.335.237 1.793-.255.561-.08.94-.23 4.632-1.13 1.865-.19.965-.099.915-.093.377-.038 2.383.625 1.25-.001 1.586-.003.755-.139 2.068-.382 1.388-.257 1.166-.56 3.313-1.59 1.275-.613.11-.038.998-.35 1.232-.43 5.204-1.823 1.052-.311 6.04-1.79.078-.024 1.086-.544 1.925-.965 1.473-.738 3.29-1.52.988-.114 1.319-.463 1.571.294 1.608.167.005.002 1.99.236 3.65-.442 1.61-.728 1.045-1.077 3.118-.374 2.934-.817 1.505-.578.693-.812.058-.013 1.036-.235.018-.004.312-.07.703-1.002.999-.477.356-.84.4-.133.46.088.206.4.475.213.941.23.072-.028.542-.207.145-.055.104-.04.868.032 1.358-.34.09-.022 1.14-.848 1.248-1.861 1.995-2.048.096-.051 1.004-.54 2.211-1.187 1.762-.675h1.667l.204-.483.043-.103.654-.005.206.036 1.002.176 1.318-.235 1.29-.57.842-.846 2.605-3.792.843-.71.846-.404 1.352-.175 1.291-.867 1.333-1.768.465-.617.413-.549.957.02-.312 1.114-.39.515-.72.257-.604.526-.335.995-.684 1.136-.52.863.58.991 1.348 1.172.223.12 1.425.762.442-.021.953-.045.097-.004.24-.697-.019-.98.24-.388.64-.044.856-.112.592-.438.268-.963.015-.051.528-1.46.583-.579.762.161.176.442-.234.923-.247.975.08.156.125.246.004.007.01.004.02.007 1.549.575.058.021 1.34-.058 1.12-.186 1.259-.771.471-3.73.23-.32.171-.24.316-.037 1.075-.126.834.334.143.122.662.563.112.095 1.003-.177 1.128-.396.167-.141 1.687-1.433.472-.88.093-1.28.236-.64.556-.43.928-.718.687-.532.415-.196.772-.363.77-.362.882.062.52-.316.167-.18 1.327-1.427 1.568-3.17.75-.516.494.035.109.085 1.297 1.021.01.008.833.061.771.455 1.65.772.82.153.45.084 1.115-.404.188-.752.567-.845 1.157-.68 1.553-.465.83-.534.333-.37.209-1.3 1.19-.6 1.009-.297 1.113.105.696.413.56.331 1.008.219.243.052.822.739.325 1.088-.206 1.437.05 1.124.716.705 1.371.335.683-.7.647-.67.795.104 1.062.748.882 1.51.341 1.2-.051 1.733.379.623 1.074.235.673-.032 1.822 2.035.5 1.073-.04 1.033-.523.62-.956.335-.266-.08-.669-.201-.126.123-.276.268.042.454.078.82-.352 1.04-1.203 2.463-.015.02-.513.693-.104.141-.071.07-.332.321-.017 1.196-.004.252v.043l.405.587-.582.81-.6.638.042.632-.142.323-.49 1.115-.186.425-.345.352-.771.789-.12.122-.227.232-.418.427-.129.575-.106.474-1.06.274-.086.089-.528.54-.35 1.307-1.077 1.544-1.182.148-.926-.28-.814.265-.078.614-.394.174-.025.043-.508.849.513 1.258.008.02.03.072-.21.59-.213.596-.57.706-.035.044-.016.01-1.115.687-.217.134-.778.314-.475.458-.048.83.244 1.08.679 1.9 1.06 2.96 1.462 2.975.864 1.757.07.143-.176 1.247-1.044 1.14-.388.423-.659 1.072-.353.287-.23.186-.784.25-.18.21-.385.446-.025.03-.308.357-.203.235.045.357-.242.21-.093.08-.421-.15-1.28.185-.707.332-.19.09-.398.186-.296.139-.073.436-.322.337-.163.17-.108.534.015 2.117-.107.427-.668 1.206-.034 1.176-.14.625-.38.625-.326.582-.328.905-.65.658-.745 1.31-1.553 1.064.117.678-.049.443.162.361.131.468-.162.393.39.526.494-.045.997.416.553.23.038.016.058.025.336.131 1.263.497 1.185.095.598-.158.005-.39.003-.194.307-.235.141-.108.253-.193.785-.6.14-.108.787-.602.13-.1.022-.014.53-.35.445-.293.15-.1.013-.008.313-.206.169-.112.12-.078.293.153.695-.222.53-.145.375-.104 4.634-2.462.932-.68.02-.006.805-.219 2.004-.544 1.067-.29 1.988-1.192 1.49-1.041.257-.248 1.847-1.783.013-.013 1.054-1.064 1.442-.745-.254-.903-.92-.878-2.074.704-.096-.268 1.922-1.632.575-.137 1.717.296 2.72.702.147-1.13-1.217-1.014-2.69-2.814-.026-.032-1.118-1.423-1.372-1.196-.19-.165-.377-.329-.709-.55-.474-1.111-.051-.084-.784-1.275-1.609-1.319-.006-.001-2.218-.538-.62-.15.137-.48.93.047.459.095 1.865.39 1.201 1.106.945 1.402.916 1.437.67.728.546.59.473.514 1.738 1.882 1.704 1.672 2.702 2.648 1.473 1.443 9.261 8.39 5.783 4.96.95.678 2.194 1.565.77.55 1.177.518.441.195 1.132.375.07.023.019-.013 1.42-.949.28-.187.042-.028 1.787-.609.29.026.676.06 1.192.85 1.994 1.42.59.42.707.503.224.127 3.288 1.862 1.542.644 2.74-.918.2.213.148.387.135 1.196h.018l.53.459.31.009.085.114.007.461.299.954.399.415.098.243.15.083.073-.082h.055l.18.338.436 1.315.095.11.347-.085.062.172-.025.108-.1.078-.253-.01-.088.112.272.273.17.001.119-.16.216.037.353-.086.179-.025.216-.162.157-.205.431-.22.227.225.251-.115.094-.405.268-.158.221-.08.391-.244.406-.123.117.106.002.198.208.02.127-.078.2-.255.245-.029.081.094.05.318.17.039.165.04.254-.081.735-.22.205-.137.065-.123.052-.424.1-.132.219-.129.06-.23-.299-.167-.03-.154.133-.309.168-.035.281.302.176.048.138-.027.097-.018.18-.25-.058-.164-.265-.05-.197-.041-.13-.123-.04-.198.251-.12.555-.1.238-.18.26.153.446.014.029.113-.127.175.27.014.193.254.196-.225.074.113-.03.176-.072.452.188.389.279.113.256-.221.312.02.033.065.024.137.251.282.182-.182.275.143-.251.387.087.342.354.188.413.124.065.466.007.048-.138.535.094.343-.158.195-.172.234.145.358-.363 1-.473.437.093.32.013.562.433.232h.008l.178-.186.141.12.427-.055.024-.223.093-.1.163-.017.422.217.74-.075.229-.263.122.13.195-.074.015-.21-.118-.242.058-.12.266.14 1.002.439.321-.003.248-.361-.082-.19.471-.14.081-.322.173-.13.633.69.087.28.024.1-.179.128-.28.047-.213.347-.145.341.106.1.296-.178.186.359.414.405-.002.19-.087.126-.226.219-.063.383.013.418.174.088.146-.452.314-.047.27-.139.314.251-.117.315-.02.257.316.217.354-.008.261-.133.211-.251.721.011.54-.136.302.108.373-.082 1.002-.379.662-.553.172.029.134.35-.217.681-.015.266.097.332.223.033.9-.365.255-.004.553.338.241.371.002.361.358.91.151.128-.142.333.061.23.316.59.123.181.242.13.166.31.006.76.227.522.306.412.013.018.541.37.286.18.343.188.138.45-.037.35.28-.01.236-.079.05.187-.11.22-.002.004-.364.284-.01.027-.174.476.356.608.191.28.103.054.136.07.682.167.352.135.056-.13-.209-.21.162-.067.275.273.037.319-.16.544-.005.019.011.176.027.4.066.079.216.255.02.198-.218.766.046.698.003.057.257.064.218.055.396-.035.189.081.16-.103.085-.238.128-.206.118.464.008.349.1.15.381.575V157.915l.14.301.007.589.295.19.086.262-.136.467.28.07.05.445-.095.415.165.562-.162.191-.016.204.017.102.139.814.279.41.261.128-.066.265.145.246-.09.213.159.376.415.31.23.108.223.026-.008.394-.104.138.012.191.29.265.144.432-.065.124.066.272.07.107.283.09.149.18-.092.178.1.134.185.388.269.163.316.409.181.019.242.178-.283.433.2.18-.107.098-.153.57v.007l.11.638.38.184.168.169-.15.186.637.474.505.673.023.201.038.414.257-.003-.044.183.171-.005.01-.002.121.106.278.837.05.31-.037.61-.103.238-.152.035-.234-.065-.23.367-.012.224-.232.047.013.135.22.282.24-.121.087.181.11.395.112.18-.08.074-.024.368-.334.113-.042.107.018.187.107.075 18.36 5.178 8.508 2.382.165.047 1.465.409 1.257.272.243.074 14.57 4.063 5.77 1.6 3.377.906.808.216.004.001 9.543 2.55 4.142 1.201 11.885 3.14 2.96.78 5.41 1.554.728.195 14.865 3.978 1.38.332.495.12 13.65 3.669.056.013 8.049 2.088.257.064 1.781.503.027.006.31.07.286.117.966.29 1.999.498 1.936.483.731.204 5.221 1.412 4.776 1.157 9.337 5.293 5.12 2.894.011.007 6.051 3.39.78.45 1.513.844 11.872 6.611.263.285.13.345.073.168.456.304.01.091.005.27.344.119.151.175.273.29.22-.085.256.032.53.134.653.294.381.313.54.049.215-.016.092.35.288.132.155.196-.026.13-.065.14.017.217.36-.027.216-.195.318-.104.561.096.29-.281.272-.179.368-.028.387.039.09-.26-.074-.407-.644-.639.622-.768.632.326.225.34.096.294.185.061.129-.053.148-.427.265-.372.743.156.087.12-.004.492-.678.942-.046.283.026.42.274.891.283.233.226.01.336-.133.464-.463.444-.18.138-.332-.028-.27-.159-.322-.189-.324.16-.137.297.032.273.166.192.413.15.145.54.424.203.052.328-.137.312-.477.259-.236.472-.127.145-.083.192-.263.627-.098.082-.16.199-.072.28.022.096.134.392.163.165.021.168-.234.229.022.846.397.146.325.39.173-.012.699-.108.26.304.253.287.09.018.125-.123.198.063.156.765.108.095-.723.142-.085.133.054.055.178.171.027.15-.028.044-.206.131-.248.243-.122.852.032.245.125.03.183.285.001.456.173.257.266.165-.007.27-.19.285.172.218-.004h.032l.567.11.223.199.066.175.218-.006.152.225-.13.138-.047.28.245.195.028.16.295.136.122.286-.14.421.221.213.076.193-.095.14-.042.193.229.234.217.048.165.07.04.238-.09.213.045.206.082.111.275-.038.112.079.049.172-.102.22-.882.33-.025.264.508.082.232-.105.156-.096.117-.015.063.137-.01.152.155-.018.119-.143.518-.19.386.137.253.155.132.018.141.02.234-.156.264-.082.123.058.087.256.23.028 1.059.381.27-.039.106-.113-.01-.391.11-.092.882-.113.197.166.103.005.254-.224.447.03.633.134.312-.228.149-.384-.154-.364-.268-.181.034-.183.152-.127-.043-.2.137-.306.313-.323-.071-.472.04-.524-.162-.159.198-.257.171-.012.274-.297.158-.273-.084-.518.264-.438.204-.64.352-.299.476-.017.355.365.261.13.083.139.076.584.301.5.05.28.125.436.11.105 1.176-.42.289-.578.328-.01.45-.43.195-.417.854-.412.491.148.2.128.188-.001h.118l.257-.129.245-.035.614.41.307-.066.187-.131.312.072.567-.089.289-.218.374-.605.196-.09.282-.006.045-.191-.145-.183-.1-.193.252-.074.326.14.493-.082.512.254.87-.129.342.013.728.135.336.17.147.234.058.768-.063.468.26.327.23.453.124.36.249.728.1.292.195.008.142.143.132.133.004.15-.162.398.106.246.297.148.222.02.112.103.02.128.036.106.03.09.825.224.413-.31.317.047.167.097.206-.038.419-.223.207-.171.07-.168-.017-.191-.16-.247.052-.447.534-.473.759.044.24.066.237.194.128-.047.383.025.622.367.088.1-.01.174-.04.564.58.65.227.078.802-.21.331-.044.147.077.092.11.05.237.433.115.146-.049.157.27-.045.165.03.123.237.051.253.166.376.084.248-.025.395.434.17.357-.094.336.394.354.499.282.293-.042.516-.765.17-.118.99-.338.548.172.532-.038 1.033-.6.297-.762.19-.268-.144-.432.448-.114.122-.196.141-.001.545.434.189.032.208.141.07.25.154.283.117.114.504.024.299.173.954.54.087.187.297.231.267.057.123.082.115.203.325.085.198.193.113.162.194.199.303.085.447.449-.024.375.177.238.205-.07.171-.117.58.177.359.408.313.121.27.381.097 1.048-.331.485.486.304.134-.051.07-.223.26-.208.15-.307.271-.243-.08-.287-.012-.398.188-.07.127.069.03.25.26.214.601.308.46-.012.554.356.686.263.58.391.264.591.412.016.79-.564.059-.205.18-.128.236.041 1.377-.357.666.021.072-.222.937-.411.34-.042.39-.679.229-.171.667-.028.144-.024.397.044.096.131-.007.823-.077.44.134.499.198.405.288.356.374.193.983.37.42.019.313-.1.594-.23.23.034.439.193.035-.002 1.382-.079.768-.08.273-.12-.046-.277.33-.257.1-.22.188-.21.22-.018.518.118.068-.056.317.098.355.318.182.26.121.064.553.057.504.291.368.442.441.783.372.305.883.202.117-.148-.025-.192.115-.146.174.009.35.275.394.334.42.127.215-.028.329-.136.174-.008.286.145.074.135-.092.399.073.11.452.29.272.31 1.041.373.37.23.483.155.222.196.052.303-.18.193-.017.165.179.182.423.004.227.127.476-.096.233-.124.21-.111 1.02-.078.503.043.255.043.948.911.219.287.017.24-.099.271-.484.223-.387.386-.345.772-.15.343.01.167-.12.451-.035.502.164.546.08.1.269.27.178.612.164 1.785.245.464.28.183.26.074.649-.022 1.004-.202.442.08.327.235.21.33.26.268.361.074.413.18.164.166.024.224-.303.127-.235.076-.05.246-.204.15-.047.353.234.419.012.022-.057.235-.379.235-.596-.238-.134.034-.325.525-.312 1.035-.19.335-1.316 1.221-1.122 1.903-.342.232-.374.178-.256.31-.987 1.008-.166.243-.268.391-.423.467-.116.128-.806.86-.052.08-.142.22-.13.553.086.351.381.678.199.535.353.403.734.379.534.192.284.224.408.209.937.07.169.018.124.16.326.515-.015.261-.11.264.1.245.28.478.013.29.096.247.224.166.304.057.83.903.788.17.197-.034.657-.113.05.006.358.044.206.137.304.533.623.255.223.058 1.117-.17.638-.053 1.09-.09.292-.335.354.011.085-.118.1-.153.422-.018.168-.282-.066-.28.111-.301-.035-.275.067-.082.881-.071.354.107.558-.011.513-.205.608-.372.235-.144h1.512l.167-.092.6-.327.807-.306.36-.05.275.035.235.108.204.252.08.098.84 2.052.295 1.216-.118.394-.158.062-.068.026-.318-.036-.052.038-.539.392.02.12.012.068.48.481 1.394.48.571.107.063.012.803.443.45.647-.094.278.192.248.605.153.682-.241.856.085.3.223.144-.002.19-.158.267-.057.545-.117.548-.016.764-.496.367.146.681.509.017-.006.263-.083.211-.375.166-.074.27.046.284.367.32.159.19-.044.141-.33.16-.209.27-.027.176.034.29.243.212.275.21.62.243.196.336.032.577-.387.893-.014.483-.188.35-.027.323.06.258.114.216.472.166.223.573.127.184.041.328.592.272.162.282.129.066.133-.016.204-.155.064-.115.092.06.222-.08.915 1.35 2.045.315.187.423.129.576.54.485.456.884.644.862.374.507.029.282.091.271.307.252-.02.758.07.7.16.324.208.641.672.129.379.012.29-.562.686.02.127.459.45.159.332.463.38 2.087 1.29.446.377.378.44.226.546.05 1.005-.025.315-.083.138-.91.28-1.046.2-.5.266-.326.505-.22.216-.053.053-.472.193-1.095.151-.322.266-.469.193-.466.085-.094.17.167.1.038.144-.16.188.194.364-.023.399-.261.6.132 1.245.341.306.666.315 1.061 1.027.902 1.982.725.608.397.442.129.312.07.661.283.25.29.158 1.322.248.302.13.261.75.24.34.014.131-.109.166.154.77.277.234.155.158-.152.422-.037.457-.098.55-.05.272.088 1.095-.364.298-.196.305-.618.38-.152.24-.098.303.026.393v.001l.063.935-.122 1.092.031.347-.051.412-.284.393-.207.223-.335.154-.4.068-1.24-.103-.311-.162-.332-.316-.195-.042-.282.089-.891-.357-.865-.062-.52-.232-.332.166.021.372-.126.584-.124.187.115.628.103.139.757.618 1.243.676.266.522.49.165.338.443.652.567.13.378.447.666.01.014.014.259-.146.55-.002.645.13 1.348.277 1.25.088.888.013.241.554 1.374.815.227.106 1.038-.084.333-.165.199-.232.578-.216.14-.037.162.076.367-.037 1.013-.075.295-1.094 1.292-.055.427.24.537.025.255-.78 1.093-.2.398.013.345.002.054-.36.296-.677.126-.012.216.088.137-.171.138-.514.189-.113.233-.278.001-.245.041-.295.164-.203.269.042.184-.073.297-.218.309-.188.268-1.252.558-.343.886-1.114.621-.178.3-.071.42-.172.308-.23.196-.218.235-.025.29.291.708.005 1.254.246.425.124.06.135.178v.468l.003.007.162.362.527.473.134.12.196.284.143.442.096 1.16-.223.411-.714.351-.442.305-.08.352.032.178.428.664-.335 1.02-.263.299-.474.348-.884.471-.37.377-.254.42-.02.48.195.294.43.418.06.413-.543.357-.243.279-.128.324-.183.262-.542.374-.258.268-.266.663-.127.316-.005.707.172.321.269.273.591.072.184-.051.333-.29.275-.381.538-.249.186-.118.1-.254-.08-.315-.171-.207-.68-.835-.028-.223.095-.134.308-.131.393.003.307.209.333.435.138.424-.051.6.003.4.14.306.215.352.394.362.333.155.852.148.36.4.098.582-.21.487.03.203.18.18.254-.06 1.445-.97.186-.286.177-.942.38-.277.412.034.426.286.297-.048.18-.198.069-.212 1.241.138.646.072 1.372-.538 1.47-.026.348.158.732.566.224-.003 1.093-.36.364-.012.32-.01 1.044.534 1.153-.263.365-.492-.046-.496.094-.183.851-.35.772-.007.164-.155.006-.224.068-.29.595-1.015 1.989-2.772.75-.368.746-.47.203-.547.337-.352.636-.535.154-.082.674-.359.532-.008.638.203.477.755.941.318.216.148.075.163.053.738.139.225 2.207 1.396.204.191.118.296-.022.564.18.376-.082.848.482.89.425.065.33.307.122.309-.033.588.1.278.021.263-.096.405.073.213-.022.589-.112.259-.394.378-.259.704-.267.468-.573.376-.243.328-.051.245.008.07.113.967-.286.658-.219.245-.309.17-.254.612-.272.355-.18.332.124.41-.243.145-.246-.064-.527.45-.084.209-.07.425-.524.341-.473.681.004.366-.33 1.18-.022.077-.163.323-.264.23-.186.592-.217.227-.237.482-.035.315.165.307-.268.386.07.347.12.592-.023.549-.6.517-.257.124-.137.133.024.379-.455.782-.181.218.1.175.296.01-.155.263-.011.508-.274.367.006.382.202.414-.011.102-.02.176-.16.517.065 1.084-.114.2-.172.101-.533-.015-.172.092-.227.524-.585.563-.138.357.055.32.447.298.098.326-.132.737-.613.926-.023.584.19.713.025.67-.244.307-.944.515-.245.217-.437.54-.164.463-.128.361v.238l.11.389.254.295.075.26-.044.394.325.893-.008.484.191.47.222.78-.153.885.069.234.147.14.626.103.462.253.48.423.235.468.788.79.983.417.176-.022.289.262.024.347.12.27.589.486.427.192.816.103.399.194.593.403.687.653.4.552.153.354.464.568.24.349-.022.201-.336.611.054.23.442.506.129.197.078.556.267.52.222.243.585.38.19.236.214.264.369.457.122.151.041.723.01.162.19.15.41-.029.384-.174.44-.066.49.432.357.035 1.084-.135.37.107.002.001.144.042.471-.126.294.174.12.26.18.14.164.028.723.125.353.155.646.284 3.101.877.283.176.222.664.61.743.966 1.608.64 1.326.224.465-.233.327-.583-.403-.118-.082-.065-.045-.055-.039-.02-.014-.77-.545-.326-.23-.037-.027-.07-.137-.577-1.113-.4-.327-.065-.052-.337.21-.326.203-.463.56-.723.874-.02.065-.436 1.419-.419 1.363-.302.984-.093.303-.694 2.256.006.087.427 6.306-.362 5.82-.112 1.794-.008.132-1.282.104-2.173.583-.007.018-.146.39-.043.113-.024.064-.921-.28-1.46-.282-3.6.25-.471.106-1.716.385-1.267.284-.352.079-.997.223-.092.02-.996.223-1.12.25-2.359.527-.228.051-.507.114-.11.024-2.08.813-.025.01-.126.049-.959.375-3.463 1.351-.932.64-.042.103-.435 1.063-.066.161-.096.155-1.052 1.682-.148.141-.856.818-.584 1.548-.079 1.212.262 1.22.022.104.382.977.085.216.05.127 1.404 1.83.113.134.034.041.056.066.035.041.09.107.116.686-.135.448-.216.72-.165.546-.134.444-.04.022-.752.407.17.301.097.172-.238.57-.805.705-.627.086-.609 1.18-.162 1.09v.006l-.058.383-.583 1.34-.498.61-.1.124-.373 1.57-.473.214-.641-.079-.057.021-.576.217-1.068.831-.123.095-.943.846-.341.307-.13.075-.665.388-.06 1.07-.313.636-.05.102-.728 2.337-.47 1.287-.509.424-.262 1.925-.347.863-.536 1.335-.11.272-.215 1.052-.73 1.53-.06.125-.793.343-.187.602.366.442-.62.268-1.2 1.047-.748.824-1.113 1.225-.284.386-.324.438-.859 1.792-.061.765-1.055 1.565-.11 1.176-.203 2.15.132.517-.204 1.345-.044.291-.15.998-.08.523.327 1.85.124.7.085.239.145.408.404 1.14.18.51.529 1.214.16.37.172.395-.119.046-.656.253-.664-2.26-.02-.066-.684-1.414-.21-.446-.018-.037-.027-.006-.469-.116-.367 1.065-.013.037-.53.86-.292 1.773.103 2.016-.06.148-.678 1.692.077 1.113.018.272.535 1.498.388 1.088 3.201 3.556.28.666.217.515.202.481-.044.257-.042.24-.117.671-.19-.32-.26-.437-.366-1.357-1.128-1.013-.854-1.234-.822-.391-.746-1.168-.728.273.015.15.24 2.34-.159 1.386-.354.779-.002.002.208 1.046.061.307-.735 1.047-.175.158-.522.471-.283-.225-.035-.028-.153.058-.932.359-.229.087-.722.901-.31.592.176.658.055.882.595.3.122.061.438-.07.483.248.277.283.116.12 1.288 1.317.654.67 1.145 1.17.194.037.53.102.556.106.351.131.246.092.13.12.27.252.62-.41.516-.3.609.258.16.522-.062.699h.002l1.587.553 2.314.202 1.671-.227.554-.36.068-.045.549-.356.97-.63.555-1.113.25-.5.873-.966 2.021-4.105.152-.308.296-1.094-.143-.145-.04-.041-.63-.638-.69.344-.271-.059-.432-.092.5-.606.54-.276.868-.559.894-.757.344-.292.057-.067.064-.076.476-.566-.09-.422.904-.758.146-1.146 1.337-.583.23-.1.386-.46.37-1.479.885-.766.178-.154 1.25.23 1.098-.112 1.414-1.071.96-.847 2.185-1.929.871-.339 1.161-.134.18-.021 2.728-.318 1.362-.625.48-.534.893-.996.003-.002.696-1.496-.043-.52-.032-.403.348-1.358 1.735-2.128.874-1.072 1.384-2.39.282-.996-.207-2.03-.599-2.29.088-1.162.989-1.381.92-.619.185-.926 2.414-4.39.26-.555.32-.422 1.484-1.957.826-.736.641-.834.13-.925.057-.883 2.086-2.204.402-1.033.815-2.096.074-.09 1.62-1.977 1.37-2.513.68-.728.855-.393 1.543-.671.525-.812.032-.051 1.142-1.034.425-.35.755.022.273.005 2.143.038.958.185.05.278.096.539-.756.375-.07.035-.062.031-.33.164-.251.125-.5 2.119-.238.8-.004.015.528.08.51-.302.187.271-.15.566-.087.389.386.017.82-.421.53-.653.743-.558.178-2.245.57-.515.346-.854-.221-1.038.065-.56.432-.058.227 1.18 1.332.113.278.009.632.02.808-.666.671-.59.076-.632-.63-.041-.48-.572-1.153-1.019-.45-.397.334-.505.096-.003.465-.015 1.173.774.534.573.697.126.117.418-.277.816 1.081.718 1.152-.018.602-.587.168-.952.188-.373.966-1.183 1.41-1.692.546-.55.714-.438 1.306-.93.1-.907.744-.612.58-.032 1.925.975.201.45-1.781-.162-.776-.173-.358.54.109.833.877.099.712-.453.406.47.78.804.889 1.246.705 1.57.675.37.73 1.642.167.377.008.018.464 1.655.03.036.607.704.55 1.44.663-.032.457-.686-.048-.095-.416-.826-.333-1.102-.12-1.043.401-.573.155-.222.001-.699-.248-.791-.085-1.083-.004-.832-.289-.86.273-2.366-.307-.99-1.254-1.647-1.937-1.211.102-1.521.685-1.118.658-.79-.069-.5-.363-.345-.072-.068.636-1.93.452-.576.398-.507.63-1.39 1.02-2.254 1.811-6.512.727-1.533.98-1.102.373-.711.08-.893.187-.98.343-.218.53-.08.607-.459.703-2.153.174-.534.476-.72-.016-.104-.06-.402.07-.835.325-.285.693-.274.788-.833.143-1.32.609-.36.154-.374.422.084.358.92.584.562.803.064.479-.163.131-.84-.003-1.46-.286-.655-.052-.595.216-1.236.161-.86.067-.357.468-.407.145.014.363.034.524-.09.702-.887.406-1.029.003-.009.106-1.31-.148-2.77-.002-1.497.298-1.754.913-2.041.314-.319.62.423.364-.331.007-.555.108-.654-.246-.717-.255-1.635.29-.922.224-.517-.1-.618.33-.33.427-.437-.128-.479-.494-.182-.053-.238.156-.46.805-.753 1.32-.512.193.522-.077.524.25.82.838-.004.406-.06.918.334.93-.018.56.143.33.89.279.436.664 1.04.993.434 1.15-.545.165-.84-.367-.397.039-1.25-.43-1.97 1.034-2.234.564-.389.83-.33.414.016.178.146.256.212.06-.036h.001l.005-.003.438-.265-.169-.58.176-.387.193-.258.43-.066.265.195.715-.15.507-.272.545.097.845.44.527-.279-.048-1.884-.027-1.076-.367-.879-.32-2.714.462-1.594.263-2.274.581-.838.301-.613-.076-1.1.14-.699.42-.317.869-.289.51.257.63.45.01.008.35.117.813.27.808.129.168.026.383-.608-.159-.512-.263-.26-.221-1.303.597-1.345.054-.314.13-.757.112-.656.04-1.89.107-.904.202-.42 1.087-.675.26.474.109.739.372.274.564 1.11 1.144.17.264-.133.512-.565.501-.04.708.04.677.377.462-.405-.26-.954.143-.58.292-.62.43-.316.4.082.339.56.3.08.393.18.733-.156.205-.26.449-.433.517.01.49.383 1.099.085.861.92.846 1.31.37 1.15-.528 1.4-1.346 1.615-.019 1.178.444 1.95.898.564.532-.081-.02.64-.364.45-.864.278-.407.459-.084 1.04.44.306.685.802-.015.515-.276.67.02.811-.644.533-1.081-.147-.34.782-.978.236-.392-.375-.412-1.721-.515-.923-1.385-.65-.65-.484-.993.193-.558.549.469 1.483.104.77.091 1.042-1.29.468.352 1.375.158 1.188-.123 1.5-.69 3.736.117 1.362.461 1.405-.306.424 2.518 2.351-.57.987-1.04 1.158-.721.337-.765-.257-.114-.826-.682-.414-.125-1.033-.647-.416-.696-.69-.826.113-.932 1.368-.465 1.03.655 1.214.317 1.37.495.294.257.152.801.06 1.16.285.048.09.346.656.09.17.522.758.389 1.52.05.615-.527.925.257.798.656.686-.067 1.294-.328.063-.318-.415-.723.487-.285.665-.306.728-.15.334-.296.244-.414-.257-.3-1.06-.938-.49-.81-1.014-.718-.447-.98.504-.459 1.17.092 1.072.616.528 1.042-.061.152.895.64.24.078.566.083 1.166.151 1.521-1.184.413-.639.222-.755-.073-.222-.933.037-1.253-.524-.702-1.331-.207-.928.303-.472.154-.486.678-.032.044.066.277.095.4-.13.573.343.315-.133.126-.382.362.057.649.102 2.224-.772 1.197.106 1.1-.285 1.128-.118.468-.736 2.332-.238.093-1.383.54-.488.191-1.333.945-.661 1.39-.834 2.625-.93 1.083-.276 1.044-.69 1.545.363 2.686.007 1.553.612.632.928.498.47.49.296.583.128.252.183.85-.43.794-.647.379-.509-.076-.549.26-2.47 1.918-1.132 1.24-.477.961-.086 1.82.695.8 1.03 1.58-.064.665.428 1.46-.751.786-.648-.055-1.412.894-.129.669-1.548 1.176-1.92 1.11-1.678.925-.198.216-.566.619-.067.073-.535.87-.461 1.6-.122.42-.281 1.65-.275 1.74-.21.476-.334.238-1.002.477-1.828 1.543-.339.538.225.532-.49.558-.406.415-.094.274-.033.096-.05.147-.126.166-.536.705-.237.747-.06.765.337.951.07 1.094-.284.844-.483.952-.346.681-1.05 2.112-.183.932-.046 1.566-.684 3.879-.655 1.79-.443.944-.24.925-.295.572-.648.963-.206.862-.803 1.388-.75 1.457-.155.378-.011.027-.442 1.083.008.313.021.748-.093.275-.375 1.101v.003l-.397 1.012-.746 1.433-.307.613-.04.747-1.102 2.02-.397.655-.06.1-.06.1-.806.494-.994.905-.081.28-.114.393-.09.308-.077.266-1.5 1.207-.038.042-.204.229-.613.686-.138.452-.109.354-.057.971-.718 1.725-.192.461-.52 2.06-.12.75-2.148 4.46-.356 1.29-.03.141-.254 1.18.006 1.662-.503 1.67-.778 2.581.034 1.44.071 1.016-.476 1.76-.199 2.431-.039.48-.535 1.532.125.595.125.418-.247.28-.318-.031-.121.312-.15.385.115.354.046.142-.37.446-.04.455-.026.308-.042.497-.095 1.114.04.436.136 1.502-.52 2.315-.032.141-.645 1.932-.044.131-.165 1.688-.035.145-.493 2.056-.059.243.252 2.198-.02 1.676-.42 1.666-.014.055-.972 1.765-.587 1.382-.147.349-.179.989.303 1.024-.423.742-.612 1.112-.052.222-.207.878-.304 1.29.236 3.014.617 2.648.043.18.019.046.767 1.787.021.05.436 1.015 1.96 3.871.009.025 1.05 2.867.41 1.12.807 2.196.33 3.918-.646 3.782-.885 2.738-2.836 4.339-.624.598-.764.733-1.012.969-.174.204-.56.655-.026.03-.093.109-.012.014-.06.07-.01.005-2.101 1.088-.646.334-1.21.626-.984.51-.052.026-.514.265-2.271 1.686-.516.384-.142.104-1.503 1.376-.387.394-.64.652-.502.592-.624.735-.178.54-.16.484-.278.764.015.267.001.013.032.528.005.091.006.102.006.1.207.443-.733 1.467-.003.006-.038.88-.023.527.106.39.342 1.255.002.23.012 1.653-.007.035-.254 1.29-.003.017-.459.663-1.693 2.446-.016.03-.853 1.593-.03.055-.417 1.102-.335.884-1.548 6.448v.012l-.129 2.099-.174 2.842-.084.284-.253.855-.335.83-.524.906-.6.706-.577 1.164-.22.61-.179.645-.132 1.12-.007.054-.014.119-.167 1.414-.201.892-.025 1.172-.107.356-.164.546-.045 1.605-.583 2.313-.312 1.235-.022.086-.05.198-.244.966.011.178.024.403.048.817.2.68 1.087 3.698.015.177.041.5.066.8-.043 1.639-.032 1.22.015.149.076.728.122 1.176.428 1.106.005.23.022 1.046.433.968.303.679.943 2.108.182.348.485.932.33.635.273.522.531 1.406.821 1.201.024.036.43.48.247-.099.004.554-.603.308-.115.157-.302.414-.05.787.613.053.196.387-.675.665-.008.028-.049.16-.234.787-.449.48-.004.033-.174 1.46.058.811.03.418.278 1.43.005.027.628 1.861.094.277.007.045.203 1.232.053.984.002.027-.147 1.41.305 1.507-.46 1.706-.006.012-2.448 5.417-.354.782-1.089 2.407-1.091 2.082-2.59 4.931-1.248 2.575-1.654 3.407-.139.376-.934 2.53-.141.38-.296 2.18-.007 1.072.218.747-.013.205-.16 2.569-.015 1.284.124 2.693.095 1.355.079 1.116.03.137.01.045.306 1.433-.52 1.576-.732 2.22-.057.36-.293 1.821-.023.147-.706 1.175-.252.416-.175.288-.026.42-.03.467-.612.48-1.503 2.875-4.045 6.314-.014.022-1.34 2.546.096.667.04.277.084.69-.273.298-.598.283-.373.637-.034.12-.417 1.459-.022.08-.19.666-.012.07-.01.057-.59 3.496-.015.2-.172 2.386-.009.225-.093 2.344-.03 1.429-.267 1.45-.089 1.33-.346 1.246-.448 1.215-.736 1.993-.207.56-.139.795-.763 4.378-.162.927-.18 1.035v.003l.06.487.299 2.392.019.152.038.09 1.004 2.348.007.018.546.935.623 1.066.192 1.154-.21.962.198 1.292.031.2.008.012.676 1.027.574.871.16.244 1.129 3.321-.051.173-.493 1.665-.056.16-.487 1.392-.019.051-.43 1.228-1.133 2.443-.135.868v.003l.198 1.526.22.639.126.364.872 1.454 2.252 2.5.493.546.003.004.9 2.484.08.273.09.3-.01.496-.006.29.582 1.184.017.033.026.053.372.003.07.778-.927 1.345-.763 1.274-.729.742-.225.849-.001.004.07 1.009-.278.131-.545.494-.512.243-.476.166-.022.813-.003.084-.02.779.075.83-.026.068-.19.504.107.304.023.063.15.42v.122l-.002.461.099.221.138.311.89 2 .032.045.494.685-.27.674-.025.06-.056.14.478.6.194.242.33.413.164.207.19.238 1.174.87.105.077.285.212.679.503 1.188 1.237.466.599.706.906.392.865.023.05.395.873.095.664.194 1.357.248 1.731-.401 2.556.07.392.318 1.751.758 1.447-.023.43-.077 1.37-.007.007-.211.18-.335.285-.332.651-.013.026-.097.693-.041.302.145.6.017.072.102.42.473.062-.041.427-.058.597-.298.429.608 1.974.207.551.869 2.31.31.826.631 1.416.036.081.44.74.302.764.233.59.269.681.064.164 1.403 1.899.817.98.117.14 1.153 1.383.741.888.528.632.02.025 1.287 1.013 1.115.877.024.02.456.358.366.288 1.037.612.056.062 1.448 1.616-.012.11-.046.407-.497.457-.093.046-.595.292-.743.977-.187.366-.027.052-.284.555-.04.077-.336.656-.106.207v.001l-.11.675-.084.524-.057.348-.19 1.167.064 1.123.013.232.282.585.022.046.114.235.095.372.033.131.114.445.028.282.002.02.065.654-.14.607-.011.047.026.278.142 1.487-.427.2-.008.112-.116 1.549-.031.423-.035.154-.142.633v.003l-.038.17-.14.618-.262.032-.04.156-.189.741-.218.335-.523.803-.192.295-.037.142-.246.943-.047.182-.034.129-.783 1.716-.007.03-.302 1.326-.046.2-.173.759-.369 1.616-.197.862-.273 1.198-.162.71-.189 1.12-.118.704-.096 1.754-.006.11-.096 1.757-.03.54.126 1.94.51.994.199 1.212.032.197.035.21.55 1.088.002.005.085.022.574.146.032.445-.204.248-.238.29-.165.374-.098.222-.007.016-.123.28.046.55.13 1.572.004.07.097 1.98.002.05.04.587.002.036v.011l.079 1.166.016.243-.16 1.455.239 2.673.239 1.99.222 1.096.762 2.078.005.016.23.627-.082.553.329.487.114.47.176.526-.176.007-.093.004-1.838.04-.103.003h-.053l-.829.019-.52.011-3.197.07-.19.004-.258.005-.663.014-1.513.033-1.538.032-.24.005-1.466.03-.114.003-.422.009-1.696.035-.419.008-2.668.055-5.237.104-1.164.022-2.04.06-2.936.083-1.987.057-7.272.202-1.916.033-1.25.022-1.192.02-2.573.045-1.057.017-.076.002-.115.002-.982.016-.168.003-.303.005-.587.01-.44.016-.893.035-2.281.086-1.82.07-4.166.156-.833.03-.945.036-1.567.058h-.024l-.015.001-.15.005-.098.004-1 .041-1.024.042-.143.006-.44.018-.306.011-.755.028-1.259.047-.953.035-1.902.07-1.81.174-.569.054-.978.094h-.004l-.451.016-.443.015-.397.013-.8.027-2.733.092-.321.011-1.043.035-.302.01-.66.022-.15.005-.535.018-2.005.066h-.017l-.652.022-2.479.08-9.063.29-.667.022-.164.005-.647.019-1.465.043-2.323.067-2.263.065-1.435.03-5.664.115-5.235.135-1.52.039-1.496.038-4.644.115-1.531.038-6.12.147-3.073.166-1.937.104-5.701.303-2.277.136-.847.05-1.418.084-.1.006-4.395.258-1.736.05-1.589.044-5.184-.025-11.657-.067-7.148-.049-.45-.006-1.346-.007-4.048-.023h-.1l-1.112-.008-.846-.005-.228-.001h-.078l-1.292.02h-.018l-1.59.023h-.085l-.242.004-.021-.001-.973.01-.966.01-1.61.018-.847.009h-.018l-.125.001-.576.012-1.266.025-.257.005-.534.01-1.196.024-.518.01-.059.001-1.311.004-3.021.009h-.016l-2.8-.041-.509-.008h-.062l-.702.019-.75.002-4.248.011-1.21.003-.285.024-4.881-.004-4.409-.006-.313-.015-2.917.024-.146.01-.444.027-1.852-.028h-.006l-4.405-.069-11.026-.108-.662-.044-.036-.003-5.52.03h-3.054l-.246-.017-.212-.027-.193.022-2.935-.017-1.731-.01-4.457-.028h-.103l-1.297-.007-.094.001-4.575-.037-6.444-.1-.088-.002-1.489-.044-.785-.023-.414-.012-2.05-.062-.816-.037-.224.012-.325.016-1.543-.07-4.8-.09h-.03l-.928-.013-2.695-.056-3.508-.029h-.014l-.517.023-4.042-.01-2.304-.007-1.282-.004h-.002l-1.296.01-2.771.02-.181.002-1.663.001-2.13-.017-.896.013-.342-.003-5.567-.003-10.765-.016-3.084-.007h-.018l-.081.001-3.026.026-1.386.012-.037-.002-1.658-.062-2.262-.085-.688-.026-.09.007-1.804-.069-.327-.034-2.763-.045-.237-.032-.019-.003-8.542-.216h-.037l-1.865.011-1.153.007-.31.058-1.396-.013-6.077-.06-3.344-.036-2.684.034-.86.012-.898.013-1.554.021-.51.007h-.003l-2.336-.012-.33-.002-4.279.032-.388.036h-.002l-2.187-.075-.341-.02-.551.04-4.594-.013-.235-.001-.748.003-8.428.028-.814-.02h-.014l-.423-.002-1.748.002-3.092.003h-.659l-3.189-.06-1.658-.032h-.026l-5.892-.123-.7.008-1.003-.032-.91-.03-6.068-.048-.255-.002-1.886-.047h-.001l-.07-.002-.992-.006-.733.03-1.48-.034h-.014l-3.116-.073-.7-.017-3.025-.072-.078-.002-.133-.003-.369-.009-.243-.006-.49-.01-1.12-.038-.747-.025-.792-.027-.66-.022-.596-.02.935-.988.045-1.163-.585-1.911-.223-1.246-.259-1.446-.255-.786-.122-.116-1.187-1.127-.758-1.701-.333-2.048-.015-.092-1.72-1.84-.312-.263-.355-.299-.355-.488-.93-1.727-.225-.46-.117-.6-.022-.971-.45-1.787-.147-.582-.294-.88-.926-1.692-.107-.844-.27-.915-.556-.728-.445-.41-1.697-1.012-1.69-.589-1.944-.475-2.586-.792-.331-.12-1.077-.389-1.434-.342-.095-.014-.242-.036-1.132-.167-1.36-.418-1.3-.313-3.52-.847-.704-.17-1.737-.325-1.327-.39-2.26-.863-2.172-.582-.967-.26-1.46-.614-.336-.142-.183-.077-2.016-1.449-1.195-.54-.385-.026-.975.273-1.114.135-.7-.107-1.181-.386-.493-.263-.32-.232-1.616-1.167-1.419-.452-.536-.34-.433-.455-1.234-2.091-1.03-1.071-.702-.538-1.45-.859-.86.155-.09.016-.24-.076-.105-.072-1.357-.94-.44-.546-.147-.618-.028-.574-.002-.032-.151-.41-.517-.614-.61-.252-.736-.041-.383.296-.529.045-.201-.025-.376-.268-.156-.487.016-.878-.22-.564-.27-.408-.317-.267-.697-.105-.16-.526.06-.778.369-.034.264-.142.21-.42-.012-.394-.455-.452-.95-1.219-.049-.384-.108-.859-.033-1.584-.183-1.001-.437-1.641-.016-.107-.341-2.235-.08-1.788-.05-1.123.132-1.552-.625-.497-1.142.132-.6-.344-.145-.88.031-.155.336-1.645.22-1.078.051-.25-.061-.29-.522-.874-.34-.967-.16-.963.14-2.396-.329-1.542-.525-.621-1.23-1.118-.502-.753-.288-.252-2.041-1.129-1.102-.61-.826-.207-.2-.277-.122-.428-.087-.396.01-.524.06-.553.334-1.19v-.016l.022-.454-.063-.784-.168-.802-.614-2.093-.007-.36.143-.967.593-2.085.024-.358-.15-1.085-.082-.236-.128-.36-.428-.928-.687-1.124-.15-.52.017-2.022-.01-.072-.089-.698-1.49-5.757-.043-.164-.605-2.754-.241-1.096-.018-.081-.033-.15-.077-.91-.017-.208-.133-1.582-.187-2.222.04-.455-.226-.683.122-.66.241-.501.04-1.528.421-4.942-.32-3.156-.05-1.316.066-.817.157-.622.281-.587.762-.555 1.537-.638.663-.484.053-.067 1.524-1.89.029-.05.436-.782.305-1.387.023-.105.444-1.348.434-.712.272-.2 1.553-2.803.107-1.186.28-.776.483-.644.833-.517.674-.56.233-.193 1.639-1.613 1.563-1.54 1.233-1.265.046-.048 1.165-1.428.853-.85.604-.802.14-.339.323-.787.294-1.13.004-.293-.101-.488-.164-.297-.31-.19-1.243-.092-.266-.162-.141-.237-.01-.47.2-.8-.01-.672-.289-.711-.909-1.705-.844-1.928-3.204-4.64-1.568-1.227-.477-.42-1.242-1.09-.556-.365-.684-.377-2.644-1.121-2.452-1.343-.066-.047-1.447-1.028-1.045-.375-2.104-.362-.075-.038-.245-.126-.393-.57-.01-.025-1.127-2.702-.043-.103-.023-.448.259-.433.93-.727.204-.272.208-.816.663-1.464.285-.813.222-1.15-.04-.816-.19-.804-.144-1.148.045-.883-.116-.675-.274-.825-.352-.667-.233-.443-.283-.387-2.91-3.988-.51-1.147-.146-.888.04-.548.155-.465.187-.232.242-.301.763-.595.664-1.197.711-2.047.132-.764-.325-1.31-.041-.769-.029-.537.102-.694.01-1.583.1-.914-.133-.414-.64-.74-.269-.194-.84-.608-.431-.507-.532-1.891-.945-1.569-.112-1.116.058-.734.1-.331.41-.887.977-1.4.26-.635.185-1.64.068-.607-.004-.172-.023-1.134-.12-.36-.262-.425-.678-.902-.641-.712-1.403-1.557-.795-.673-.496-.575-.506-.809-.528-1.137.104-2.512.853-2.253.136-.741-.068-.442-.03-.188-.094-.61-.173-.315-.847-.845-.139-.39-.17-2.453.128-2.087.719-3.384.124-.583-.013-1.232-.017-1.735.11-.302.017-.048.183-.506.817-1.14.406-.814.16-.464.298-.87.074-.327.1-.44-.024-2.374 1.87-5.85-.02-.339-1.286-1.79-.986-1.371-.262-.364-.142-.197-.193-1.276-.068-.445-.434-.805-.646-2.023-.127-1.007-.376-1.326-.09-1.06-.141-1.637-.619-1.06-.305-.911-1.006-1.21-.852-.528-.306-.298-.155-.27-.204-.358-1.42-1.678-.265-1.757-.311-1.272-.763-1.416-1.109-1.06-1.482-.92-.605-1.067-.144-.404-.41-1.152-.21-.4-.58-.554-.75-.44-.1-.142-.014-.033-.81-1.936-.001-.002-.15-1.442-.03-.3-.273-.546-1.241-1.457-1.546-2.118-.922-.75-.448-.365-1.616-.986-.201-.26-.444-1.211-.276-.534-1.698-1.97-.149-.357-.07-.167-.137-.71-.444-1.137-.38-.624-.413-.39-.299-.283-.465-.334-1.03-.441-.533-.228-.937-.4-.905-.597-.741-.112-1.513.261-.254-.024h-.008l-.093-.01-2.093-.974-1.05-.931-.732-.464-2.564-.585-1.42-.04-1.982-.222-.898-.352-.88-.345-.225-.041-1.906-.352-1.01-.034-.18-.05-.204-.057-1.395-.874-.81-.774-.268-.592-.567-1.252-.545-.783-.46-.422-.717-.499-.811-.365-.434-.196-.546-.336-.06-.037-.79-.975-.548-.5-.145-.13-.36-.094-.435.189-.197-.02-.464-.292-.626-.963-.41-.355-.284-.246-.359-.594-.545-1.416-.246-.87-.248-.408-.677-.72-.375-.4-1.055-1.123-.624-.232-.832.09-.598-.167-1.788-1.17-.009-.023-.09-.246.057-1.197-.165-1.389-.148-.613-1.216-1.785-.073-.066-.284-.256-1.343-.576-.361-.057-2.78-.438-.73-.445-.89-.75-.837-.704-.856-.87-3.268-1.525-1.668-1.083-1.346-1.082-1.672-3-.48-.424-.092-.051-.825-.465-.884-.498-1.719-1.531-.26-.231-.868-.774-1.173-.582-.406-.307-.039-.15-.08-.303.005-1.128v-.299l-.135-.702-.397-.771-1.35-2.075-.398-1.019-.01-.843.085-.235.751-2.08.046-.301.122-.812-.099-.503-.181-.4-.975-1.453-.093-.54.22-1.567-.097-.354-.326-.529-.588-.552-.435-.41-2.123-1.091-.276-.284-.204-.524-.125-.322-.031-.627.146-.468.488-.81 1.045-1.455.133-.445.013-.208-.345-1.408-.329-.964-.955-2.299-.377-.414-1.164-.742-.741-.473-1.174-1.67-.447-.887-.948-1.371-.586-.585-.45-.38-.512-.432-.679-.373-.536-.198-.802-.045-.442-.143-.045-.015-.974-.594-.894-.692-.38-.462-.484-.373-.352-.18-1.58-.39-.37-.226-2.313-1.407-.056-.034-1.072-1.128-.091-.096-.132-.192-.892-1.298-.425-.298-.754-.32-1.578-.038-.934-.213-.729-.51-.521-.366-1.489-.602-2.008-.596-.608-.462-.825-.972-.493-.34-1.996-.56-.217-.06-3.374-.662-.175-.051-.974-.285-2.787-.931-.892-.298-2.894-1.099-.288-.142-.574-.285-1.645-1.118-.685-.857-.3-.475-.353-.558-.403-.555-.598-.583-1.937-1.251-2.046-1.854-.79-.877-1.212-1.665-.842-1.547-.687-1.603-.081-.69.187-2.671-.067-.452-.06-.247-.614-.994-.387-.906-.347-1.694-.05-.248-.293-.626-.153-.328-.043-.062-.317-.458-1.289-1.293-.967-.653-.055-.038-1.664-.725-2.046-.46-1-.096-1.09.061-1.99.112-1.508-.19-1.734-.4-.583-.134-.814-.386-.726-.565-.776-.28-.32.044-1.132.503-2.131.1-2.203-.755-.556-.264-1.007-.48-.555.017-.864.347-.287.004-.208.003-.495-.225-1.673-.761-.548-.333-.823-.74-.372-.022-.97.297-1.032.622-.982.592-.563.03-.338-.12-.203-.073-.268-.261-.204-.554.066-.38.005-.01.242-.509.076-.35-.04-.714-1.491-2.944-.882-1.457-.142-.176-.167-.207-.507-.255-.616-.113-.26.217-.002.002-.436.618-.47.186-.22-.058-.365-.352-.204-.89-1.57-1.346-.826-.12-1.103.093-.499-.26-.484-.47-.22-.677-.002-.517.143-.576.47-1.16.048-1.014v-.02l-.239-1.005-1.428-2.156-3.402-2.039-.735-.627-.521-.544-1-1.334-2.021-2.702-1.143-1.306-.251-.288-.388-.587-.224-.34-1.727-1.609-2.642-2.746-.731-.76-1.852-1.125-.582-.164-.399-.24-1.272-1.265-1.51-.861-1.62-.925-2.05-1.711-.019-.132-.032-.22-.097-.214-.056-.123-.073-.066-.389-.358-.087-.234.172-1.535.244-1.163.163-.778.827-1.828.678-.936 1.128-1.132.573-.906.391-1.189.336-2.322.19-.65 1.234-1.77.129-.333-.077-.682.076-.351.405-.656.06-.099.513-.63.144-.453.041-.804-.342-2.775.003-.801.002-.78V470.499l.342-.936.554-1.083.067-.42-.09-.364-.726-1.501-.562-1.486-.11-.587.105-1.09.101-.41.148-.258.796-.472.473-.28.512-.304.272-.184.137-.225.19-.454.364-1.506.606-2.518.317-1.316.022-.883-.008-.06-.192-1.397-.04-.293-.167-1.213-.016-.04-.593-1.453-.185-.456-.92-.69-.176-.373-.107-.484-.016-.44-.037-.975.012-.285.028-.616.24-.996-.14-.884-.057-.355.019-1.5.212-.624.224-.656.1-.295.365-.906.532-1.318.04-.096.111-.391-.003-.384-.325-.937-.787-1.083-1.175-1.204-1.024-.745-.258-.188-.745-.797-.517-.745-.61-1.34-.043-.096-.111-.742.072-.912.132-.439.211-.386 1.283-1.774.073-.1.034-.048.078-.107 1.032-.711 1.622-1.117 1.294-1.298 1.712-1.447 1.154-.75.277-.246.698-1.017.157-.448.018-.188-.137-.408-.322-.32-.363-.668-.007-.011-.386-3.124-.93-2.89-.093-.75.044-1.043.175-.952.206-.389.498-.941.042-.441-.688-.772-1.03-1.156-.254-.561-.038-.974.121-1.016.542-1.99.286-.46.62-.465.615-.63.276-.834.12-.365-.045-.496-.233-.395-.23-.64-.202-.957.075-1.605-.28-2.347.235-.775.572-.658.558-.991.052-.875-.057-.402-.05-.358-.722-1.123-.334-.845-.118-1.268.022-.428.145-.409.354-.382 1.165-.357.79-.551 1.273-.89.638-.68.058-.062.756-1.008 2.698-2.345.008-.01.597-.773.198-.256.775-1.446.165-.525.005-.016.038-.615-.003-.035-.053-.6-.54-2.347.077-.547.165-.434.952-.997 2.597-1.766.15-.177-.05-.539.299-.798.355-.545.01-.015.672-1.031.132-.203.824-.826.84-.526.942-.354.248-.093.02-.704.007-.286.39-.83.273-1.184-.029-.216-.343-.459-.088-.574.06-.483.127-1.022.08-.638.427-1.693.062-.762-.008-.029-.143-.512-.6-2.155-.114-.175-1.065-.657-2.276-1.058-.42-.326-.44-.853-.032-.062-.119-.23-.275-.532-.655-.858-.45-1.386-.908-2.141-1.289-2.175-.53-.726-1.172-1.203-.314-.477-.109-.903.031-1.408.097-.365.503-1.892.004-.386-.165-.522-1.911-1.843-.774-.747-1.245-.79-.338-.214-1.04-1.308-.777-.73-.446-.29-.368-.069-1.41.05-.643.167-1.678.75-1.541.278-.644-.018-.974-.027-1.538-.526-1.353-.697-.379-.098-3.533-.406-1.383-1.275-.354-.446-.136-.695.361-2.25-.397-1.062.039-.78.078-.348.212-.94.398-1.053-.025-.727-.466-1.265-.14-1.079z"/></svg>