<svg height="1000" width="1000"><path class="americon" d="M67.488 162.695l.893-11.613-.046-.408.84-11.287.005-.061 1.243.075.097.005 31.837 1.659 2.85.691 1.303.422 5.53 1.298 18.769 1.06.65-.003 7.256.406 10.472.297 5.001-.925 2.513.395 2.173.092 4.608.63 10.715.638 11.045-.823 10.288.51.098.015 2.95.19.793.051 4.06.174 10.6.44 2.505.156 6.955.425.025.002 5.864.337 10.705.255 10.982.394 23.107.414 1.316.092 13.085.302.72.011 8.453.215 11.218.269 2.482 1.164 2.515.067.036.001.554.014 13.222.314 12.856.28 19.904.387.097.002 7.594.132 5.268.087 1.545.012 8.021.297 28.227.328 2.676.172h.01l1.38-.112 2.419-.029 8.499.007 18.294.145.408-.056 10.557.124 3.567.039 4.623.046 11.597.104 1.646.005 15.797.022.127-.012 4.862-.03 9.379-.066 17.296-.028 6.58.028 20.146.048 1.052.118 2.455.094 2.555.35 1.223-.08 2.977.074 5.615-.029 1.91-.01.254-.002 10.577-.071 1.072-.008.505.004 39.102-.395.514-.007 37.276-.59h.015l29.366-.73 11.883-.33 1.68-1.154.103-.169.505-.009 7.528-.139 7.695-.24 50.907-1.813 21.431-.877 14.783-.645 4.693-.211h.018l1.596-.064.735-.04.127-.025 31.111-1.28.641-.011 4.109-.288 7.524-.232.156-.052 23.761-1.21.037-.002 27.009-1.52 23.629-1.316 1.565 21.247.015 1.386 1.154 17.167.003.048.207 3.246.284 4.448.011.051.265 3.993.052 1.146.044.441.55 8.73.77 12.216.304 4.82.278 4.462.005.065 1.728 26.628.55 8.476.75 11.528.886 12.15.427 6.868 2.21 35.51.002.273.874 14.55 1.065 16.094.13 1.966.038.581 1.855 28.645.006.06.053.727.208 3.648.65 9.709.004.045.284 4.438.55 8.596.444 6.643.002.032.758 11.44.266 3.79.125 1.287.082 1.275 3.37 50.97 2.807 43.46.06.814 1.163 17.676.162 2.847.055.542.193 3.392.002.032.009.137 1.217 19.641 2.769 42.414.031.48.092 1.466-.043.003.958 14.157.068.617.279 5.257.074.618.12 1.564.292 5.142v.011l.071 1.233.024.376.135 2.114v.014l.622 9.475.083.968.155 2.37.015.229.036.542.034.66-.005.066.009.133.045.718v.003l.157 2.466.05.524.632 10.34.11 1.573.224 3.686.335 5.093.557 8.49.89 13.535.4 6.328.598 9.423.077 1.255.171 2.722.139 1.651.23 3.829.366 4.998.135 2.064-.007.014.119 2.056.024.365.222 2.997.076 1.178 1.15 17.512.142 1.824.15 2.571v.017l.672 11.221.158 1.686-.019.034.043.853.456 6.808-.014.034.02.497.8 13.505.046.78.267 4.497.141 2.384.548 7.677.118 1.7.179 2.64-.015.1.845 12.872.006.222.167 2.769-1.86.102-2.592.156-2.512.165-2.577.149-11.919.753-.368.027-.069-.012-21.236 1.302-13.08.771-3.99.167-.013-.004-13.886.862-.075.005-10.3.622-13.16.881-7.66.502-3.487.395-11.96.581-42.287 1.897-.238.013-2.76.12-.039.002-18.412.82-42.392 1.715-.763.03-5.454.18-39.493 1.177-17.585.354-3.673.069-14.086.083-8.869-.167-.747.01-5.316.008-.88.01-.291-.026-1.944.025-54.904.801-19.418.083-15.697.198-17.008.178-8.394.02-2.02.003-6.75.007-35.098.206-8.94-.014-30.866-.132-17.417-.144-18.313.1-9.438-.055-6.739-.09-25.628-.4-1.62-.028-3.536.028-14.195-.369-34.39-.756-22.549-.693-16.795-.52-7.915-.459-2.554.11-33.97-.808-4.658.008-1.191-.047-2.906-.114-2.858-.114-12.264-.501-.029-.001-4.334-.152-.725-.026-.209.005-2.316-.081-2.171-.077-14.381-.526-.136.003-16.326-.768-3.305-.044-.118-.01h-.001l-.781-.119-5.704-.214-9.937-.384-.557.072-15.235-.539-1.74-.206-4.329-.165-12.651-.497-16.97-.87-5.29-.58-.794-.044-8.299-.465-14.682-.845-2.003-.155-2.836-.22-15.466-1.01-.989-.066-21.934-1.491-1.748-.122 1.85-28.383.525-8.05.552-8.46.04-.631.002-.016.392-6.101.863-13.425.242-3.048 1.71-25.738.522-7.862.16-2.552 2.245-35.68v-.008l2.486-39.546 1.557-25.08.075-1.15.391-5.991.133-2.152.985-15.281.782-12.185v-.005l.598-9.122 1.21-18.456.103-1.448.883-12.327.897-11.646.116-1.502.893-11.596 1.459-23.824.19-3.105.907-13.874.127-1.935.04-.632.017-.257.067-.984.08-1.33.21-3.455.176-2.919.012-.238.022-.453.044-.345.003-.047.018-.276.024-.505.15-2.142.028-.57.019-.293.093-1.502.057-.969.062-1.034.022-.362.049-.73 1.134-17.934.027-.428.007-.107-.003-.02.086-1.27.062-.845.063-1.117.054-.873 1.247-20.285 2.005-32.612.456-7.418.429-6.978.82-13.35.206-3.558.017-.289.013-.68.019-.16.015-.357.343-6.004.043-.702.005-.085.017-.072.6-9.886.265-4.377.08-1.32 1.057-16.211.691-11.663.076-1.487.148-2.882.007-3.54.49-7.051.005-.076.037-.36.6-9.079.03-1.77.08-1.3 2.387-38.642.304-3.712.666-10.618.028-.392.426-6.276.895-26.325.442-7.195.63-10.28.16-4.283z"/></svg>